<?xml version="1.0" encoding="UTF-8" standalone="no"?>
<svg
   viewBox="0 0 64 64"
   version="1.1"
   id="svg31"
   sodipodi:docname="pertambangan.svg"
   inkscape:version="1.1.2 (b8e25be833, 2022-02-05)"
   xmlns:inkscape="http://www.inkscape.org/namespaces/inkscape"
   xmlns:sodipodi="http://sodipodi.sourceforge.net/DTD/sodipodi-0.dtd"
   xmlns="http://www.w3.org/2000/svg"
   xmlns:svg="http://www.w3.org/2000/svg">
  <defs
     id="defs35" />
  <sodipodi:namedview
     id="namedview33"
     pagecolor="#ffffff"
     bordercolor="#666666"
     borderopacity="1.0"
     inkscape:pageshadow="2"
     inkscape:pageopacity="0.0"
     inkscape:pagecheckerboard="0"
     showgrid="false"
     inkscape:zoom="5.9220192"
     inkscape:cx="41.962039"
     inkscape:cy="42.04647"
     inkscape:window-width="1366"
     inkscape:window-height="745"
     inkscape:window-x="-8"
     inkscape:window-y="-8"
     inkscape:window-maximized="1"
     inkscape:current-layer="svg31" />
  <circle
     style="opacity:1;fill:#ffffff;stroke-width:0.929714;fill-opacity:1"
     id="circle4061"
     cx="31.699436"
     cy="33.028519"
     r="22.336185" />
  <g
     id="g6591"
     transform="matrix(0.54089674,0,0,0.54089674,3.7564916,8.4847746)">
    <path
       d="m 48.777,43.392 2.828,2.828 7.476,-7.476 -2.828,-2.828 z m 6.769,-8.89 a 0.5,0.5 0 0 0 0,0.707 l 3.535,3.535 0.707,0.707 a 0.498,0.498 0 0 0 0.708,0 l 0.74,-0.74 A 63.005,63.005 0 0 1 68.714,48.941 24.307,24.307 0 0 0 63.9,36.047 l 0.839,-0.839 a 0.5,0.5 0 0 0 0,-0.708 l -0.707,-0.707 0.707,-0.707 a 0.999,0.999 0 0 0 0,-1.414 l -1.414,-1.414 a 0.999,0.999 0 0 0 -1.414,0 l -0.707,0.707 -0.707,-0.707 a 0.514,0.514 0 0 0 -0.707,0 l -0.839,0.839 a 24.31,24.31 0 0 0 -12.894,-4.814 63.063,63.063 0 0 1 10.231,7.479 z m 4.596,-3.183 3.536,3.536 -3.536,3.535 -3.535,-3.535 z m -24.48,7.443 3.536,6.364 5.657,-5.657 -6.364,-3.536 z m 4.95,0.707 a 0.50027817,0.50027817 0 1 1 0.707,0.708 0.50027817,0.50027817 0 0 1 -0.707,-0.708 z m -1.414,1.414 a 0.50027817,0.50027817 0 1 1 0.707,0.708 0.50027817,0.50027817 0 0 1 -0.707,-0.708 z M 68.714,63.328 67.3,61.914 67.299,61.913 65.885,60.5 a 0.5,0.5 0 0 0 -0.707,0 l -1.06,1.06 -19.97,-19.97 -2.828,2.828 19.97,19.97 2.282,-2.282 -3.343,3.344 a 0.5,0.5 0 0 0 0,0.707 l 2.828,2.828 a 2.495,2.495 0 0 0 1.769,0.731 c 0.64,0 1.28,-0.244 1.768,-0.731 l 2.121,-2.121 a 2.504,2.504 0 0 0 -0.001,-3.536 z m -7.424,2.476 4.242,-4.243 0.708,0.707 -4.243,4.243 z m 6.717,0.353 -2.121,2.121 a 1.504,1.504 0 0 1 -2.122,0 l -1.061,-1.061 4.243,-4.243 1.061,1.06 a 1.503,1.503 0 0 1 0,2.123 z m -33.759,-20.324 2.699,-2.699 -2.525,-4.546 3.895,-3.895 4.546,2.525 2.699,-2.699 -5.35,-5.35 a 8.001,8.001 0 0 0 -7.456,-2.138 l -4.872,1.124 -1.124,4.872 a 8.002,8.002 0 0 0 2.138,7.456 z M 27.969,64.2 a 2,2 0 1 0 2.828,2.828 L 45.949,51.876 43.12,49.048 Z"
       id="path6581" />
  </g>
  <g
     id="g10767"
     transform="matrix(0.10586455,0,0,0.10586455,2.2762731,6.4724873)">
    <path
       d="M 291.707,493.641 H 221.23 c -3.978,0 -7.202,-3.224 -7.202,-7.201 v -56.693 c -17.627,-4.316 -34.42,-11.281 -50.066,-20.766 l -40.084,40.141 c -1.35,1.352 -3.182,2.112 -5.093,2.112 -10e-4,0 -0.002,0 -0.002,0 -1.911,0 -3.742,-0.759 -5.093,-2.109 L 63.842,399.276 c -2.811,-2.811 -2.813,-7.368 -0.003,-10.181 l 40.089,-40.136 C 94.426,333.324 87.476,316.546 83.209,298.937 H 26.47 c -3.977,0 -7.202,-3.224 -7.202,-7.201 v -70.478 c 0,-3.978 3.225,-7.201 7.202,-7.201 h 56.739 c 4.282,-17.686 11.248,-34.485 20.765,-50.083 L 63.842,123.842 c -1.351,-1.351 -2.109,-3.183 -2.109,-5.093 0,-1.91 0.759,-3.742 2.109,-5.093 L 113.69,63.812 c 1.351,-1.35 3.183,-2.108 5.092,-2.108 0.001,0 0.001,0 0.003,0 1.911,0 3.743,0.761 5.093,2.112 l 40.084,40.141 c 15.646,-9.484 32.439,-16.449 50.066,-20.766 V 26.498 c 0,-3.978 3.224,-7.201 7.202,-7.201 h 70.477 c 3.979,0 7.202,3.224 7.202,7.201 v 56.693 c 17.645,4.32 34.422,11.285 50.013,20.762 l 40.142,-40.141 c 2.811,-2.811 7.371,-2.813 10.184,0 l 49.849,49.844 c 1.351,1.351 2.109,3.183 2.109,5.093 0,1.91 -0.759,3.742 -2.108,5.093 l -40.134,40.133 c 9.454,15.508 16.415,32.307 20.752,50.082 h 56.753 c 3.978,0 7.201,3.224 7.201,7.201 v 70.478 c 0,3.978 -3.224,7.201 -7.201,7.201 h -56.753 c -4.33,17.73 -11.291,34.512 -20.751,50.026 l 40.132,40.128 c 1.351,1.351 2.109,3.183 2.109,5.093 0,1.91 -0.758,3.741 -2.108,5.093 l -49.849,49.849 c -1.351,1.35 -3.183,2.108 -5.093,2.108 -0.001,0 -0.002,0 -0.003,0 -1.91,0 -3.742,-0.761 -5.093,-2.112 l -40.085,-40.141 c -15.646,9.484 -32.438,16.449 -50.065,20.766 v 56.693 c -0.001,3.977 -3.224,7.201 -7.203,7.201 z m -63.275,-14.403 h 56.074 V 424 c 0,-3.406 2.387,-6.347 5.719,-7.047 19.867,-4.18 38.661,-11.973 55.858,-23.163 2.854,-1.856 6.617,-1.462 9.023,0.947 l 39.053,39.106 39.66,-39.66 -39.113,-39.108 c -2.414,-2.413 -2.802,-6.189 -0.93,-9.043 11.153,-17 18.938,-35.766 23.142,-55.777 0.7,-3.334 3.641,-5.721 7.048,-5.721 h 55.301 v -56.075 h -55.301 c -3.407,0 -6.348,-2.387 -7.048,-5.721 -4.215,-20.067 -12.001,-38.853 -23.142,-55.833 -1.872,-2.854 -1.484,-6.629 0.929,-9.043 L 433.819,118.749 394.155,79.09 355.04,118.204 c -2.41,2.41 -6.179,2.799 -9.029,0.938 -17.12,-11.181 -35.89,-18.972 -55.786,-23.157 -3.332,-0.7 -5.719,-3.641 -5.719,-7.047 V 33.699 h -56.074 v 55.238 c 0,3.406 -2.386,6.347 -5.719,7.048 -19.868,4.179 -38.661,11.972 -55.858,23.162 -2.854,1.857 -6.618,1.463 -9.023,-0.947 l -39.053,-39.107 -39.659,39.656 39.113,39.113 c 2.413,2.414 2.801,6.189 0.929,9.043 -11.225,17.108 -19.009,35.887 -23.138,55.813 -0.692,3.344 -3.638,5.74 -7.052,5.74 h -55.3 v 56.075 h 55.3 c 3.414,0 6.359,2.396 7.052,5.74 4.109,19.831 11.878,38.596 23.091,55.771 1.861,2.851 1.471,6.616 -0.935,9.025 l -39.063,39.109 39.663,39.663 39.052,-39.106 c 2.406,-2.409 6.17,-2.804 9.023,-0.947 17.197,11.19 35.99,18.983 55.858,23.162 3.333,0.701 5.719,3.642 5.719,7.048 z"
       id="path10755" />
  </g>
</svg>
