<?xml version="1.0" encoding="UTF-8" standalone="no"?>
<svg
   data-name="Layer 1"
   viewBox="0 0 64 64"
   version="1.1"
   id="svg1319"
   sodipodi:docname="rekhut.svg"
   inkscape:version="1.1.2 (b8e25be833, 2022-02-05)"
   xmlns:inkscape="http://www.inkscape.org/namespaces/inkscape"
   xmlns:sodipodi="http://sodipodi.sourceforge.net/DTD/sodipodi-0.dtd"
   xmlns="http://www.w3.org/2000/svg"
   xmlns:svg="http://www.w3.org/2000/svg">
  <defs
     id="defs1323" />
  <sodipodi:namedview
     id="namedview1321"
     pagecolor="#ffffff"
     bordercolor="#666666"
     borderopacity="1.0"
     inkscape:pageshadow="2"
     inkscape:pageopacity="0.0"
     inkscape:pagecheckerboard="0"
     showgrid="false"
     inkscape:zoom="4.3671875"
     inkscape:cx="5.8389982"
     inkscape:cy="30.912343"
     inkscape:window-width="1366"
     inkscape:window-height="745"
     inkscape:window-x="-8"
     inkscape:window-y="-8"
     inkscape:window-maximized="1"
     inkscape:current-layer="svg1319" />
  <path
     style="line-height:normal;text-indent:0;text-align:start;text-decoration-line:none;text-decoration-style:solid;text-decoration-color:#000000;text-transform:none;isolation:auto;mix-blend-mode:normal;stroke-width:1.56239"
     d="m 32.213061,9.0734278 c -12.071105,0 -21.867312,9.8084142 -21.867344,21.8795402 -1.5e-5,12.071125 9.796223,21.867334 21.867344,21.867334 12.071123,0 21.879547,-9.796209 21.879531,-21.867334 C 54.092577,18.881842 44.284152,9.0734278 32.213061,9.0734278 Z m 0,1.5684912 c 11.226715,0 20.311034,9.084293 20.31105,20.311049 1.5e-5,11.226698 -9.084304,20.311049 -20.31105,20.311049 -11.226744,0 -20.311064,-9.084351 -20.311048,-20.311049 1.6e-5,-11.226756 9.08432,-20.311049 20.311048,-20.311049 z m -4.723787,7.805839 c -0.427469,0 -0.877468,0.278793 -1.058877,0.69575 l 0.04578,-0.09154 -3.25294,5.407328 -0.02437,0.04883 c -0.16119,0.370841 -0.145457,0.776181 0.03656,1.119915 0.130771,0.246834 0.37916,0.460608 0.674388,0.564536 l -2.371049,4.461351 -0.01249,0.04578 c -0.145147,0.376745 -0.127491,0.767164 0.03656,1.116864 0.11421,0.243289 0.345397,0.477736 0.637767,0.601152 l -2.368002,4.485763 -0.01251,0.04883 c -0.14499,0.376155 -0.12999,0.769921 0.03359,1.119916 0.163566,0.350172 0.561241,0.692698 1.049722,0.692698 h 4.232494 v 3.896818 a 0.78127224,0.78127224 0 0 0 0.784226,0.784242 h 3.127838 a 0.78127224,0.78127224 0 0 0 0.784241,-0.784246 V 38.76492 h 4.232495 c 0.0062,0 0.01249,-0.0028 0.01828,-0.0031 h 1.272487 v 3.899868 a 0.78127224,0.78127224 0 0 0 0.772038,0.784319 h 3.124778 a 0.78127224,0.78127224 0 0 0 0.78424,-0.784246 V 38.76187 h 3.497062 c 0.399363,0 0.787444,-0.21308 1.000914,-0.543174 0.213469,-0.330095 0.244701,-0.788428 0.04875,-1.153481 l -0.01249,-0.02442 -1.949939,-3.115622 c 0.18205,-0.09331 0.340241,-0.230772 0.448577,-0.41501 0.212188,-0.36021 0.177112,-0.878594 -0.06718,-1.220616 l 0.03359,0.03663 -1.937736,-3.094261 c 0.186143,-0.102738 0.346694,-0.246321 0.451639,-0.421113 0.201408,-0.335409 0.21786,-0.776616 0.03359,-1.144327 l -0.0125,-0.02442 -2.883715,-4.91298 c -0.449999,-0.749768 -1.521283,-0.749827 -1.971296,0 l -2.895903,4.91298 -0.0125,0.02442 c -0.284995,0.569842 -0.03953,1.283278 0.491293,1.577646 L 33.4473,30.602058 31.10067,26.177325 c 0.641344,-0.24329 0.969087,-1.028905 0.643875,-1.669193 l -0.01249,-0.02442 -3.19496,-5.419534 c -0.217516,-0.374962 -0.62233,-0.610298 -1.0498,-0.610298 v -0.0031 z m 0.0125,1.940779 2.548037,4.302672 h -5.141852 z m 10.195193,3.759498 2.15744,3.664899 h -4.31486 z M 25.631209,26.2597 h 3.753387 l 2.477855,4.684114 h -8.709097 z m 10.424051,3.127828 h 3.295672 l 1.952985,3.121726 h -7.201641 z m -12.129867,3.121726 h 7.140599 l 1.187056,2.258138 1.26944,2.422924 H 21.447534 Z M 34.53865,34.06554 h 0.34482 5.987118 l 1.946893,3.124776 h -3.564199 -3.124776 -0.936825 c -0.01641,-0.08031 -0.0125,-0.158891 -0.04265,-0.238021 l -0.01249,-0.04883 v -0.0031 l -1.083298,-2.062841 z m 2.374097,4.696318 h 1.568497 v 3.121726 h -1.568497 z m -10.207396,0.0031 h 1.55628 v 3.121724 h -1.55628 z"
     color="#000000"
     font-family="sans-serif"
     font-weight="400"
     overflow="visible"
     id="path9138" />
</svg>
