<svg width="140" height="237" viewBox="0 0 140 237" fill="none" xmlns="http://www.w3.org/2000/svg">
<path d="M27.6718 122.448C28.3515 123.623 29.855 124.024 31.0299 123.345C32.2048 122.665 32.6063 121.161 31.9266 119.986C31.2468 118.812 29.7434 118.41 28.5684 119.09C27.3935 119.769 26.992 121.273 27.6718 122.448Z" fill="#B5B5B5"/>
<path d="M78.7096 153.741L54.793 167.601C53.0216 168.623 50.9332 168.951 48.9339 168.52C46.9345 168.088 45.1668 166.929 43.9742 165.268L25.0119 138.901C24.0297 137.534 23.3445 135.977 23.0004 134.329C22.6564 132.682 22.661 130.981 23.0142 129.335C23.3673 127.689 24.0611 126.136 25.0508 124.775C26.0405 123.414 27.3044 122.275 28.7608 121.432L52.1797 107.867L78.7096 153.741Z" fill="#969696"/>
<path d="M78.5384 153.438L55.5161 166.753C53.8082 167.738 51.7946 168.052 49.8678 167.634C47.9411 167.215 46.2391 166.095 45.0938 164.49L26.9872 139.337C26.0286 137.996 25.3605 136.471 25.0258 134.857C24.6911 133.244 24.6971 131.578 25.0434 129.968C25.3898 128.357 26.0688 126.835 27.037 125.502C28.0053 124.169 29.2413 123.053 30.6661 122.225L52.9883 109.267L78.5384 153.438Z" fill="#B5B5B5"/>
<path d="M77.2701 93.7639C76.5904 92.589 75.0869 92.1875 73.912 92.8673C72.737 93.547 72.3356 95.0505 73.0153 96.2255C73.695 97.4004 75.1985 97.8019 76.3735 97.1222C77.5484 96.4424 77.9497 94.9389 77.2701 93.7639Z" fill="#B5B5B5"/>
<path d="M78.6396 153.78L102.556 139.943C104.327 138.919 105.654 137.273 106.279 135.326C106.905 133.378 106.783 131.267 105.94 129.404L92.5384 99.8486C91.8423 98.3174 90.8328 96.9488 89.5759 95.831C88.319 94.7131 86.842 93.8707 85.2398 93.3579C83.6376 92.8452 81.9459 92.6733 80.2737 92.8535C78.6007 93.0337 76.9846 93.5619 75.5284 94.4041L52.1096 107.914L78.6396 153.78Z" fill="#969696"/>
<path d="M78.1651 153.656L101.187 140.34C102.884 139.355 104.158 137.777 104.759 135.91C105.361 134.043 105.25 132.019 104.446 130.229L91.644 101.941C90.9627 100.436 89.9733 99.0903 88.7398 97.9911C87.5062 96.8918 86.0564 96.063 84.483 95.5581C82.9103 95.0533 81.2482 94.8836 79.6056 95.0599C77.9629 95.2362 76.3754 95.7547 74.9453 96.5819L52.623 109.493L78.1651 153.656Z" fill="#B5B5B5"/>
<path d="M86.9618 167.601L86.3862 167.936C86.289 167.989 86.2042 168.064 86.1381 168.153C86.0712 168.244 86.0253 168.346 86.0028 168.456C85.9794 168.565 85.981 168.678 86.0051 168.786C86.03 168.895 86.0774 168.997 86.1451 169.087C89.0618 172.976 98.2162 191.588 100.923 197.141C101.13 197.57 101.164 198.063 101.019 198.516C100.875 198.97 100.562 199.352 100.145 199.583L86.4562 207.501C86.1101 207.701 85.7095 207.787 85.3121 207.743C84.9147 207.699 84.5413 207.53 84.2473 207.26C82.3107 205.471 77.7918 201.193 72.2929 195.204C64.9118 187.178 56.0296 171.817 52.9107 164.093C49.7918 156.37 49.7995 156.316 48.2828 149.004C44.7984 153.446 45.8328 163.852 46.1128 166.162C46.1477 166.459 46.2604 166.74 46.4395 166.979C47.5906 168.534 52.0861 174.484 53.1128 176.266C54.295 178.311 53.1128 179.921 52.2495 179.501C50.1298 178.24 48.0811 176.864 46.1128 175.379C45.9562 175.26 45.7726 175.182 45.5784 175.153C45.3842 175.122 45.1856 175.142 45.0006 175.208C43.6161 175.752 45.8407 177.72 45.8407 177.72C47.2413 178.794 48.7177 179.766 50.2584 180.629C50.6632 180.82 51.0179 181.103 51.2945 181.456C51.5713 181.808 51.7624 182.22 51.8528 182.659C51.94 182.979 51.9367 183.317 51.8433 183.636C51.75 183.954 51.5702 184.24 51.3239 184.463C48.4539 187.046 44.0517 185.778 41.6173 184.759C40.3437 184.239 39.2586 183.343 38.5061 182.192C37.1143 180.082 36.2868 177.651 36.1028 175.13C36.2609 172.197 35.5288 169.286 34.0028 166.777C23.0128 145.714 36.5773 127.017 37.7828 123.485C44.7828 121.012 49.5506 115.225 54.9484 112.161L54.7851 112.254C60.1673 109.089 66.895 107.44 72.5573 102.579C76.2206 103.302 99.8496 101.287 112.628 121.323C114.051 123.899 116.22 125.985 118.851 127.304C120.944 128.722 122.639 130.652 123.774 132.912C124.397 134.126 124.638 135.501 124.466 136.856C124.132 139.469 123.035 143.918 119.372 145.116C119.056 145.217 118.718 145.23 118.395 145.152C118.073 145.074 117.778 144.907 117.544 144.672C117.209 144.374 116.947 144.003 116.779 143.588C116.612 143.172 116.544 142.723 116.58 142.277C116.601 140.51 116.494 138.746 116.261 136.996C116.261 136.996 115.67 134.102 114.511 135.012C114.36 135.139 114.243 135.302 114.172 135.484C114.099 135.668 114.074 135.866 114.098 136.062C114.378 138.753 115.498 142.907 114.534 143.459C113.57 144.011 112.488 144.641 111.298 142.596C110.272 140.814 107.324 133.939 106.577 132.181C106.46 131.906 106.272 131.667 106.033 131.489C104.174 130.097 95.6651 124.006 90.0807 124.815C95.6807 129.77 95.6807 129.778 100.853 136.35C106.025 142.922 114.907 158.283 118.19 168.682C120.64 176.46 122.078 182.488 122.685 185.054C122.774 185.444 122.736 185.852 122.576 186.219C122.417 186.585 122.145 186.892 121.798 187.092L108.11 195.01C107.7 195.249 107.215 195.323 106.753 195.218C106.29 195.113 105.886 194.835 105.621 194.442C102.16 189.324 90.594 172.112 88.6729 167.64C88.6293 167.537 88.5648 167.446 88.4831 167.371C88.4014 167.296 88.305 167.239 88.2 167.204C88.0942 167.17 87.983 167.159 87.8725 167.17C87.7621 167.182 87.6563 167.218 87.5607 167.274L86.9851 167.609" fill="#F2F2F2"/>
<path d="M92.7671 105.667L87.1119 118.796L92.4272 121.085L98.0817 107.956L92.7671 105.667Z" fill="#FFCB39"/>
<path d="M44.6899 144.072L29.99 143L29.5563 148.95L44.2561 150.022L44.6899 144.072Z" fill="#FFCB39"/>
<path d="M113.945 162.056L94.1119 177.543L95.6589 179.552L115.112 164.778L113.945 162.056Z" fill="#FFCB39"/>
<path d="M91.3897 178.389L66.9841 188.551L68.4439 190.445L92.5843 180.522L91.3897 178.389Z" fill="#FFCB39"/>
<path d="M88.0662 145.956L67.7274 157.98C67.1977 158.297 66.6104 158.507 65.9991 158.596C65.3879 158.685 64.7651 158.652 64.1668 158.499C63.5685 158.346 63.0065 158.075 62.5136 157.703C62.0206 157.331 61.6065 156.864 61.2951 156.331L56.4418 148.157C56.1239 147.627 55.9143 147.039 55.8252 146.428C55.736 145.817 55.7691 145.194 55.9225 144.596C56.0758 143.997 56.3465 143.436 56.7187 142.942C57.0909 142.449 57.5573 142.036 58.0907 141.724L78.4373 129.661C78.967 129.343 79.5542 129.133 80.1656 129.044C80.7769 128.955 81.3999 128.988 81.998 129.142C82.5961 129.295 83.1585 129.565 83.6508 129.938C84.1439 130.31 84.5584 130.776 84.8696 131.31L89.7229 139.516C90.0418 140.045 90.2518 140.634 90.3412 141.246C90.4307 141.859 90.3972 142.483 90.2425 143.082C90.0885 143.681 89.817 144.244 89.4429 144.738C89.0696 145.231 88.6013 145.644 88.0662 145.956Z" fill="#D3D3D3"/>
<path d="M70.2139 145.515L63.1845 149.673C62.7445 149.932 62.5987 150.5 62.8589 150.94L62.8629 150.947C63.1231 151.387 63.6907 151.533 64.1307 151.272L71.1601 147.115C71.6001 146.855 71.7459 146.288 71.4856 145.847L71.4817 145.84C71.2215 145.401 70.6539 145.255 70.2139 145.515Z" fill="#B5B5B5"/>
<path d="M70.5809 147.227C70.9321 147.02 71.0484 146.566 70.8407 146.215C70.633 145.864 70.1798 145.747 69.8286 145.955C69.4773 146.162 69.361 146.616 69.5687 146.967C69.7765 147.318 70.2296 147.435 70.5809 147.227Z" fill="#FFCB39"/>
<path d="M71.5317 147.744L64.5023 151.901C64.0623 152.161 63.9165 152.728 64.1768 153.169L64.1807 153.175C64.4409 153.615 65.0085 153.761 65.4485 153.501L72.4779 149.344C72.9179 149.083 73.0637 148.516 72.8034 148.076L72.7995 148.069C72.5393 147.629 71.9717 147.483 71.5317 147.744Z" fill="#B5B5B5"/>
<path d="M66.7922 152.49C67.1435 152.283 67.2598 151.83 67.0521 151.479C66.8443 151.128 66.3912 151.011 66.0399 151.219C65.6887 151.426 65.5723 151.88 65.7801 152.231C65.9878 152.582 66.441 152.699 66.7922 152.49Z" fill="#FFCB39"/>
<path d="M72.8613 149.986L65.8319 154.143C65.3919 154.404 65.2461 154.972 65.5064 155.411L65.5103 155.418C65.7705 155.858 66.3381 156.004 66.7781 155.744L73.8075 151.587C74.2475 151.326 74.3933 150.758 74.133 150.319L74.1291 150.312C73.8689 149.872 73.3013 149.726 72.8613 149.986Z" fill="#B5B5B5"/>
<path d="M71.3112 152.833C71.6624 152.625 71.7788 152.172 71.571 151.821C71.3633 151.469 70.9102 151.353 70.5589 151.561C70.2077 151.769 70.0913 152.222 70.2991 152.573C70.5067 152.924 70.9599 153.04 71.3112 152.833Z" fill="#FFCB39"/>
<path d="M83.7814 137.486L76.1159 142.019L76.3059 142.34L83.9712 137.808L83.7814 137.486Z" fill="#B5B5B5"/>
<path d="M84.0964 138.002L76.4311 142.535L76.6211 142.856L84.2862 138.323L84.0964 138.002Z" fill="#B5B5B5"/>
<path d="M84.4076 138.532L76.7425 143.065L76.9326 143.387L84.5981 138.853L84.4076 138.532Z" fill="#B5B5B5"/>
<path d="M84.7303 138.923L77.0718 143.464L77.2622 143.786L84.9209 139.243L84.7303 138.923Z" fill="#B5B5B5"/>
<path d="M85.0236 139.575L77.3585 144.108L77.5486 144.43L85.2141 139.897L85.0236 139.575Z" fill="#B5B5B5"/>
<path d="M85.3316 140.099L77.6661 144.632L77.8563 144.953L85.5213 140.42L85.3316 140.099Z" fill="#B5B5B5"/>
<path d="M85.6621 140.475L78.0033 145.018L78.1931 145.338L85.8519 140.797L85.6621 140.475Z" fill="#B5B5B5"/>
<path d="M85.974 141.009L78.3152 145.551L78.5058 145.872L86.1646 141.33L85.974 141.009Z" fill="#B5B5B5"/>
<path d="M86.282 141.532L78.6232 146.074L78.8138 146.395L86.4726 141.853L86.282 141.532Z" fill="#B5B5B5"/>
<path d="M86.59 142.046L78.9312 146.589L79.1218 146.91L86.7806 142.368L86.59 142.046Z" fill="#B5B5B5"/>
<path d="M86.8817 142.711L79.2167 147.244L79.4064 147.566L87.0714 143.033L86.8817 142.711Z" fill="#B5B5B5"/>
<path d="M87.1827 143.231L79.5169 147.764L79.7074 148.086L87.3724 143.552L87.1827 143.231Z" fill="#B5B5B5"/>
<path d="M78.7313 132.927L60.8362 143.51C59.8676 144.083 59.5467 145.333 60.1196 146.302L60.1235 146.308C60.6964 147.277 61.9461 147.597 62.9148 147.025L80.8096 136.442C81.7787 135.869 82.0991 134.619 81.5267 133.65L81.5228 133.643C80.9496 132.675 79.6997 132.354 78.7313 132.927Z" fill="url(#paint0_linear_1_2)"/>
<path d="M117.169 124.52L104.802 132.539L106.139 134.601L118.506 126.582L117.169 124.52Z" fill="#D3D3D3"/>
<path d="M47.4846 165.675L34.1649 171.985L35.2172 174.206L48.5368 167.896L47.4846 165.675Z" fill="#D3D3D3"/>
<path d="M107.483 144.762L56.7907 174.171L59.2574 178.423L109.95 149.015L107.483 144.762Z" fill="#D3D3D3"/>
<path d="M84.9061 156.854L78.1853 160.753C77.6949 161.037 77.528 161.666 77.8128 162.156L80.1267 166.145C80.4113 166.636 81.0398 166.803 81.5306 166.518L88.2513 162.619C88.7413 162.335 88.9086 161.706 88.6239 161.216L86.3092 157.226C86.0253 156.736 85.3969 156.569 84.9061 156.854Z" fill="#B5B5B5"/>
<path d="M84.3632 163.652C85.4513 163.02 85.8223 161.625 85.1908 160.537C84.5592 159.448 83.1647 159.078 82.0758 159.71C80.9869 160.341 80.6167 161.736 81.2482 162.824C81.8798 163.913 83.2743 164.283 84.3632 163.652Z" fill="#FCFCFC"/>
<path d="M107.651 196.947L115.841 209.702C116.585 210.685 117.529 211.5 118.611 212.092C119.693 212.685 120.888 213.042 122.117 213.14C123.247 213.248 124.387 213.194 125.501 212.977C127.034 212.674 128.507 212.116 129.856 211.328C136.981 207.244 143.584 203.48 136.537 197.717C135.249 196.667 133.75 195.907 132.143 195.484C131.466 195.306 130.797 195.15 130.191 195.01C129.113 194.774 128.098 194.311 127.213 193.653C126.328 192.994 125.593 192.155 125.057 191.191L123.416 188.274L107.651 196.947Z" fill="#DEDFE0"/>
<path d="M108.798 197.164L123.38 188.729C124.302 188.195 124.617 187.015 124.084 186.093C123.551 185.171 122.37 184.855 121.448 185.389L106.866 193.825C105.944 194.359 105.629 195.539 106.162 196.461C106.696 197.383 107.875 197.698 108.798 197.164Z" fill="#D3D3D3"/>
<path d="M114.315 197.602L113.569 198.035L117.436 204.721L118.183 204.288L114.315 197.602Z" fill="#ADADAD"/>
<path d="M118.202 195.362L117.455 195.794L121.322 202.479L122.07 202.047L118.202 195.362Z" fill="#ADADAD"/>
<path d="M116.262 196.484L115.516 196.916L119.383 203.601L120.13 203.169L116.262 196.484Z" fill="#ADADAD"/>
<path d="M102.284 200.05L109.284 213.513C109.765 214.649 110.001 215.873 109.975 217.107C109.951 218.34 109.664 219.554 109.136 220.669C108.665 221.703 108.047 222.665 107.301 223.523C106.274 224.702 105.057 225.701 103.7 226.479C96.6062 230.624 90.0496 234.467 88.5718 225.491C88.3058 223.85 88.3929 222.172 88.8284 220.568C89.0151 219.891 89.2018 219.238 89.3962 218.639C89.7244 217.585 89.8256 216.474 89.691 215.378C89.5572 214.282 89.1917 213.227 88.6184 212.284L86.9073 209.414L102.284 200.05Z" fill="#DEDFE0"/>
<path d="M99.9592 197.8L85.3767 206.236C84.455 206.769 84.14 207.949 84.6728 208.872C85.2063 209.794 86.3862 210.109 87.3087 209.575L101.891 201.139C102.813 200.606 103.128 199.425 102.594 198.504C102.062 197.581 100.881 197.266 99.9592 197.8Z" fill="#D3D3D3"/>
<path d="M103.402 212.848L104.15 212.416L100.282 205.731L99.5346 206.163L103.402 212.848Z" fill="#ADADAD"/>
<path d="M99.5229 215.088L100.27 214.656L96.4024 207.971L95.6558 208.403L99.5229 215.088Z" fill="#ADADAD"/>
<path d="M101.163 213.248L101.914 212.816L98.0521 206.097L97.3016 206.529L101.163 213.248Z" fill="#ADADAD"/>
<path d="M7.49526 108.132L11.4472 105.846L11.1667 105.361L7.21484 107.647L7.49526 108.132Z" fill="#C6C6C6"/>
<path d="M12.3779 96.9619L19.4791 109.318C18.169 110.071 16.6134 110.272 15.1547 109.878C13.6959 109.484 12.4534 108.527 11.7005 107.217L10.2811 104.747C9.52809 103.437 9.32649 101.882 9.72043 100.423C10.1144 98.964 11.0717 97.7215 12.3818 96.9686L12.3779 96.9619Z" fill="#C6C6C6"/>
<path d="M41.7709 115.314C53.806 111.362 60.1554 97.7828 55.9525 84.9844C51.7495 72.186 38.5859 65.0149 26.5506 68.9671C14.5154 72.9195 8.16612 86.4986 12.3691 99.297C16.572 112.095 29.7356 119.267 41.7709 115.314Z" fill="#B2B2B2"/>
<path d="M11.7314 107.017C12.0661 106.823 12.0234 106.124 11.6363 105.454C11.2491 104.785 10.6639 104.4 10.3293 104.593C9.9946 104.787 10.0372 105.486 10.4244 106.156C10.8116 106.825 11.3968 107.21 11.7314 107.017Z" fill="#B2B2B2"/>
<path d="M74.7228 80.5899L70.7709 82.8762L71.0514 83.3609L75.0033 81.0747L74.7228 80.5899Z" fill="#C6C6C6"/>
<path d="M69.8531 79.9414L62.7412 67.6481C64.0446 66.894 65.5943 66.6886 67.0491 67.0771C68.504 67.4656 69.745 68.4161 70.499 69.7195L71.9245 72.1836C72.6786 73.487 72.8839 75.0366 72.4955 76.4914C72.107 77.9464 71.1565 79.1873 69.8531 79.9414Z" fill="#C6C6C6"/>
<path d="M60.4382 105.608C71.3138 99.3164 74.7177 84.8599 68.0409 73.3187C61.3642 61.7774 47.1351 57.5219 36.2594 63.8137C25.3837 70.1053 21.9798 84.5618 28.6566 96.103C35.3334 107.644 49.5624 111.9 60.4382 105.608Z" fill="#B2B2B2"/>
<path d="M71.899 84.1267C72.2337 83.9331 72.1911 83.2336 71.8039 82.5643C71.4167 81.895 70.8315 81.5094 70.4969 81.7031C70.1622 81.8967 70.2049 82.5961 70.592 83.2654C70.9792 83.9347 71.5644 84.3203 71.899 84.1267Z" fill="#B2B2B2"/>
<path d="M56.4041 115.119C70.8967 106.79 75.8932 88.2892 67.5642 73.7966C59.2351 59.304 40.7345 54.3075 26.2419 62.6366C11.7493 70.9656 6.7528 89.4663 15.0819 103.959C23.411 118.451 41.9116 123.448 56.4041 115.119Z" fill="#E8E8E8"/>
<path d="M58.0023 114.196C71.6914 106.329 76.0366 88.2024 67.7075 73.7098C59.3784 59.2172 41.5291 53.8463 27.8401 61.7137C14.151 69.581 9.80583 87.7072 18.1349 102.2C26.464 116.692 44.3132 122.063 58.0023 114.196Z" fill="#F2F2F2"/>
<path d="M57.8839 113.785C71.4738 105.923 75.7284 87.8605 67.3867 73.4414C59.0451 59.0223 41.266 53.7067 27.6761 61.5687C14.0862 69.4307 9.83158 87.493 18.1732 101.912C26.5149 116.331 44.294 121.647 57.8839 113.785Z" fill="white"/>
<path d="M56.8248 114.395C69.8272 106.873 73.6055 89.0863 65.2639 74.6672C56.9222 60.2481 39.6194 54.657 26.617 62.1792C13.6145 69.7012 9.83617 87.4881 18.1778 101.907C26.5194 116.326 43.8223 121.917 56.8248 114.395Z" fill="#F2F2F2"/>
<path d="M60.1128 77.7597C66.1639 88.2208 62.9128 100.393 52.4517 106.444C41.9906 112.495 28.3017 110.139 22.2506 99.6775C16.1995 89.2164 20.9828 76.1575 31.4439 70.1219C41.905 64.0864 54.085 67.2675 60.1128 77.7597Z" fill="#7F1BBF"/>
<path d="M59.8096 77.1608C65.6662 87.2719 63.1229 98.7052 53.8207 104.087C49.1605 106.753 43.6344 107.465 38.4508 106.067C33.2673 104.67 28.8481 101.276 26.1596 96.6292C23.4712 91.9822 22.7322 86.4597 24.1043 81.2693C25.4764 76.079 28.848 71.6432 33.4818 68.9319C42.784 63.5497 53.9529 67.0419 59.8096 77.1608Z" fill="url(#paint1_linear_1_2)"/>
<path d="M42.3484 67.073C49.4495 67.073 56.1306 70.8375 60.1361 77.7597C66.1873 88.2208 62.9361 100.393 52.475 106.444C48.7912 108.583 44.6093 109.715 40.3495 109.726C33.085 109.726 26.1084 106.351 22.2506 99.6775C16.1995 89.2164 20.9828 76.1575 31.4439 70.1219C34.743 68.1704 38.4998 67.1265 42.3328 67.0964L42.3484 67.073ZM42.3328 63.2075C37.8147 63.2453 33.3861 64.4711 29.4917 66.7619C16.7828 74.0964 12.015 89.7452 18.8906 101.622C23.2306 109.127 31.2573 113.615 40.3573 113.615C45.2972 113.603 50.147 112.292 54.4195 109.812C57.2885 108.209 59.8118 106.054 61.8436 103.471C63.8753 100.888 65.3754 97.9278 66.2573 94.7619C67.0707 91.5796 67.2463 88.2677 66.7737 85.0172C66.3011 81.7667 65.1898 78.6419 63.5039 75.823C58.9306 67.913 51.0595 63.1919 42.3484 63.1919L42.3328 63.2075Z" fill="#D8D8D8"/>
<path d="M38.8694 118.808L68.6264 101.594C69.3055 101.197 70.0563 100.939 70.8356 100.833C71.6148 100.727 72.4073 100.777 73.1674 100.978C73.9276 101.18 74.6405 101.529 75.2653 102.007C75.8901 102.484 76.4144 103.08 76.8082 103.761L77.4898 104.939L37.3717 128.148L36.6901 126.97C35.8968 125.599 35.6807 123.968 36.0894 122.438C36.4981 120.907 37.4981 119.602 38.8694 118.808Z" fill="#C6C6C6"/>
<path d="M35.6313 119.474L70.8214 99.1161C71.4671 98.7448 72.2329 98.6422 72.9537 98.8304C73.6744 99.0185 74.2922 99.4825 74.6741 100.122L76.9447 104.047L36.8468 127.245L34.5762 123.319C34.2113 122.668 34.1175 121.9 34.315 121.18C34.5125 120.461 34.9854 119.848 35.6313 119.474Z" fill="#D8D8D8"/>
<path d="M39.7543 123.57C40.5946 123.084 40.8818 122.009 40.3956 121.169C39.9095 120.328 38.8342 120.041 37.9939 120.527C37.1536 121.014 36.8665 122.089 37.3526 122.929C37.8387 123.77 38.914 124.057 39.7543 123.57Z" fill="#B5B5B5"/>
<path d="M45.1718 120.437C46.0121 119.951 46.2992 118.876 45.8131 118.035C45.3269 117.195 44.2517 116.908 43.4114 117.394C42.571 117.88 42.284 118.956 42.7701 119.796C43.2562 120.636 44.3315 120.923 45.1718 120.437Z" fill="#B5B5B5"/>
<path d="M50.59 117.308C51.4303 116.822 51.7175 115.746 51.2314 114.906C50.7452 114.066 49.6699 113.779 48.8296 114.265C47.9893 114.751 47.7022 115.826 48.1883 116.666C48.6744 117.507 49.7498 117.794 50.59 117.308Z" fill="#B5B5B5"/>
<path d="M56.0075 114.167C56.8479 113.68 57.1349 112.605 56.6488 111.765C56.1627 110.925 55.0874 110.637 54.2471 111.124C53.4068 111.61 53.1197 112.685 53.6058 113.525C54.092 114.366 55.1672 114.653 56.0075 114.167Z" fill="#B5B5B5"/>
<path d="M61.4178 111.037C62.2581 110.551 62.5452 109.476 62.0591 108.635C61.5729 107.795 60.4977 107.508 59.6573 107.994C58.817 108.48 58.53 109.555 59.0161 110.396C59.5022 111.236 60.5775 111.523 61.4178 111.037Z" fill="#B5B5B5"/>
<path d="M66.8428 107.904C67.6832 107.418 67.9703 106.342 67.4842 105.502C66.998 104.662 65.9227 104.375 65.0824 104.861C64.2421 105.347 63.955 106.422 64.4411 107.263C64.9273 108.103 66.0025 108.39 66.8428 107.904Z" fill="#B5B5B5"/>
<path d="M72.2535 104.767C73.0938 104.28 73.3809 103.205 72.8948 102.365C72.4087 101.524 71.3334 101.237 70.4931 101.723C69.6528 102.21 69.3656 103.285 69.8518 104.125C70.3379 104.966 71.4132 105.253 72.2535 104.767Z" fill="#B5B5B5"/>
<path d="M81.6597 159.137L81.6667 159.125L82.677 159.708L81.3159 162.066L81.2902 160.552C81.291 160.064 81.4077 159.573 81.6597 159.137ZM84.0101 163.621L85.3712 161.264L86.3816 161.847L86.3746 161.859C86.1226 162.295 85.7648 162.647 85.3331 162.887L84.0101 163.621ZM85.5167 161.011C85.358 161.287 85.0842 161.454 84.791 161.49L83.041 164.521C82.6202 165.251 81.9824 165.804 81.0934 165.912C80.9651 165.927 80.8414 165.856 80.7909 165.737C80.4393 164.914 80.5996 164.084 81.0203 163.354L82.7703 160.323C82.6552 160.052 82.6638 159.732 82.8224 159.455L82.8714 159.371L81.8611 158.788L81.9583 158.62C82.1193 158.341 82.4763 158.245 82.7548 158.406L83.2603 158.698L83.2113 158.782C83.3459 158.549 83.643 158.47 83.8756 158.604L85.7282 159.674C85.9608 159.808 86.0401 160.105 85.9063 160.337L85.9546 160.253L86.4593 160.545C86.7386 160.706 86.8342 161.063 86.6732 161.342L86.576 161.51L85.5657 160.927L85.5167 161.011ZM82.4126 164.444C82.432 164.41 82.4273 164.391 82.3923 164.372L81.4746 163.841C81.4497 163.827 81.4217 163.827 81.4022 163.861C81.2824 164.068 81.3532 164.332 81.5601 164.452L81.8214 164.603C82.0283 164.723 82.2928 164.652 82.4126 164.444Z" fill="url(#paint2_linear_1_2)"/>
<ellipse cx="92.5" cy="38.5" rx="46.5" ry="28.5" fill="#FCFCFC"/>
<path d="M49.9431 67.5606L63.3904 44.6537L73.6842 55.6476L49.9431 67.5606Z" fill="#FCFCFC"/>
<path d="M68.0176 32.9443V26.0469H70.0615V32.9443C70.0615 33.6097 69.9157 34.1816 69.624 34.6602C69.3324 35.1341 68.9336 35.4987 68.4277 35.7539C67.9264 36.0091 67.3613 36.1367 66.7324 36.1367C66.0807 36.1367 65.5042 36.0273 65.0029 35.8086C64.5016 35.5898 64.1074 35.2549 63.8203 34.8037C63.5332 34.348 63.3896 33.7715 63.3896 33.0742H65.4473C65.4473 33.4388 65.4974 33.7282 65.5977 33.9424C65.7025 34.1566 65.8506 34.3092 66.042 34.4004C66.2334 34.4915 66.4635 34.5371 66.7324 34.5371C66.9922 34.5371 67.2178 34.4756 67.4092 34.3525C67.6006 34.2295 67.7487 34.0495 67.8535 33.8125C67.9629 33.5755 68.0176 33.2861 68.0176 32.9443ZM75.708 27.749L73.001 36H70.8203L74.5186 26.0469H75.9062L75.708 27.749ZM77.957 36L75.2432 27.749L75.0244 26.0469H76.4258L80.1445 36H77.957ZM77.834 32.2949V33.9014H72.5771V32.2949H77.834ZM89.168 26.0469V36H87.1172L83.1182 29.3281V36H81.0674V26.0469H83.1182L87.124 32.7256V26.0469H89.168ZM98.8408 30.7979V34.7422C98.6859 34.929 98.4466 35.1318 98.123 35.3506C97.7995 35.5648 97.3825 35.7493 96.8721 35.9043C96.3617 36.0592 95.7441 36.1367 95.0195 36.1367C94.377 36.1367 93.7913 36.0319 93.2627 35.8223C92.734 35.6081 92.2783 35.2959 91.8955 34.8857C91.5173 34.4756 91.2256 33.9743 91.0205 33.3818C90.8154 32.7848 90.7129 32.1035 90.7129 31.3379V30.7158C90.7129 29.9502 90.8109 29.2689 91.0068 28.6719C91.2074 28.0749 91.4922 27.5713 91.8613 27.1611C92.2305 26.751 92.6702 26.4388 93.1807 26.2246C93.6911 26.0104 94.2585 25.9033 94.8828 25.9033C95.7487 25.9033 96.4596 26.0446 97.0156 26.3271C97.5716 26.6051 97.9954 26.9925 98.2871 27.4893C98.5833 27.9814 98.7656 28.5465 98.834 29.1846H96.8447C96.7946 28.8473 96.6989 28.5534 96.5576 28.3027C96.4163 28.0521 96.2135 27.8561 95.9492 27.7148C95.6895 27.5736 95.3522 27.5029 94.9375 27.5029C94.5957 27.5029 94.2904 27.5736 94.0215 27.7148C93.7572 27.8516 93.5339 28.0544 93.3516 28.3232C93.1693 28.5921 93.0303 28.9248 92.9346 29.3213C92.8389 29.7178 92.791 30.1781 92.791 30.7021V31.3379C92.791 31.8574 92.8411 32.3177 92.9414 32.7188C93.0417 33.1152 93.1898 33.4502 93.3857 33.7236C93.5863 33.9925 93.8324 34.1953 94.124 34.332C94.4157 34.4688 94.7552 34.5371 95.1426 34.5371C95.4661 34.5371 95.735 34.5098 95.9492 34.4551C96.168 34.4004 96.3434 34.3343 96.4756 34.2568C96.6123 34.1748 96.7171 34.0973 96.79 34.0244V32.2607H94.917V30.7979H98.8408ZM104.542 27.749L101.835 36H99.6543L103.353 26.0469H104.74L104.542 27.749ZM106.791 36L104.077 27.749L103.858 26.0469H105.26L108.979 36H106.791ZM106.668 32.2949V33.9014H101.411V32.2949H106.668ZM118.002 26.0469V36H115.951L111.952 29.3281V36H109.901V26.0469H111.952L115.958 32.7256V26.0469H118.002Z" fill="#4440E7"/>
<path d="M66.1787 52H64.0117L64.0254 50.4004H66.1787C66.7165 50.4004 67.1699 50.2796 67.5391 50.0381C67.9082 49.792 68.1862 49.4342 68.373 48.9648C68.5645 48.4954 68.6602 47.9281 68.6602 47.2627V46.7773C68.6602 46.2669 68.6055 45.818 68.4961 45.4307C68.3913 45.0433 68.234 44.7174 68.0244 44.4531C67.8148 44.1888 67.5573 43.9906 67.252 43.8584C66.9466 43.7217 66.5957 43.6533 66.1992 43.6533H63.9707V42.0469H66.1992C66.8646 42.0469 67.473 42.1608 68.0244 42.3887C68.5804 42.612 69.0612 42.9333 69.4668 43.3525C69.8724 43.7718 70.1846 44.2731 70.4033 44.8564C70.6266 45.4352 70.7383 46.0801 70.7383 46.791V47.2627C70.7383 47.9691 70.6266 48.6139 70.4033 49.1973C70.1846 49.7806 69.8724 50.2819 69.4668 50.7012C69.0658 51.1159 68.585 51.4372 68.0244 51.665C67.4684 51.8883 66.8532 52 66.1787 52ZM65.1738 42.0469V52H63.123V42.0469H65.1738ZM74.4092 42.0469V52H72.3652V42.0469H74.4092ZM81.8672 42.0469V52H79.8164V42.0469H81.8672ZM87.8281 42.0469L83.8838 46.9619L81.6074 49.4092L81.2383 47.4678L82.7764 45.3623L85.3125 42.0469H87.8281ZM85.4971 52L82.5645 47.3994L84.082 46.1279L87.9238 52H85.4971ZM95.1152 50.4004V52H90.1045V50.4004H95.1152ZM90.7676 42.0469V52H88.7168V42.0469H90.7676ZM98.4717 42.0469V52H96.4277V42.0469H98.4717ZM102.443 42.0469V52H100.393V42.0469H102.443ZM108.404 42.0469L104.46 46.9619L102.184 49.4092L101.814 47.4678L103.353 45.3623L105.889 42.0469H108.404ZM106.073 52L103.141 47.3994L104.658 46.1279L108.5 52H106.073ZM111.392 42.0469L111.166 48.958H109.525L109.293 42.0469H111.392ZM109.238 51.0977C109.238 50.806 109.339 50.5645 109.539 50.373C109.744 50.1771 110.013 50.0791 110.346 50.0791C110.683 50.0791 110.952 50.1771 111.152 50.373C111.353 50.5645 111.453 50.806 111.453 51.0977C111.453 51.3802 111.353 51.6195 111.152 51.8154C110.952 52.0114 110.683 52.1094 110.346 52.1094C110.013 52.1094 109.744 52.0114 109.539 51.8154C109.339 51.6195 109.238 51.3802 109.238 51.0977ZM115.179 42.0469L114.953 48.958H113.312L113.08 42.0469H115.179ZM113.025 51.0977C113.025 50.806 113.126 50.5645 113.326 50.373C113.531 50.1771 113.8 50.0791 114.133 50.0791C114.47 50.0791 114.739 50.1771 114.939 50.373C115.14 50.5645 115.24 50.806 115.24 51.0977C115.24 51.3802 115.14 51.6195 114.939 51.8154C114.739 52.0114 114.47 52.1094 114.133 52.1094C113.8 52.1094 113.531 52.0114 113.326 51.8154C113.126 51.6195 113.025 51.3802 113.025 51.0977ZM118.966 42.0469L118.74 48.958H117.1L116.867 42.0469H118.966ZM116.812 51.0977C116.812 50.806 116.913 50.5645 117.113 50.373C117.318 50.1771 117.587 50.0791 117.92 50.0791C118.257 50.0791 118.526 50.1771 118.727 50.373C118.927 50.5645 119.027 50.806 119.027 51.0977C119.027 51.3802 118.927 51.6195 118.727 51.8154C118.526 52.0114 118.257 52.1094 117.92 52.1094C117.587 52.1094 117.318 52.0114 117.113 51.8154C116.913 51.6195 116.812 51.3802 116.812 51.0977Z" fill="#DC0A0A"/>
<defs>
<linearGradient id="paint0_linear_1_2" x1="60.1235" y1="146.308" x2="81.5197" y2="133.654" gradientUnits="userSpaceOnUse">
<stop stop-color="#9E23CC"/>
<stop offset="1" stop-color="#4804FF"/>
</linearGradient>
<linearGradient id="paint1_linear_1_2" x1="26.1344" y1="96.6458" x2="59.8164" y2="77.1602" gradientUnits="userSpaceOnUse">
<stop stop-color="#9E23CC"/>
<stop offset="1" stop-color="#4804FF"/>
</linearGradient>
<linearGradient id="paint2_linear_1_2" x1="85.8013" y1="162.827" x2="79.5682" y2="161.001" gradientUnits="userSpaceOnUse">
<stop stop-color="#7739A3"/>
<stop offset="1" stop-color="#1A75FF"/>
</linearGradient>
</defs>
</svg>
