                <svg class="object_astronaut" width="140px" height="237" viewBox="0 0 180 237" fill="none" xmlns="http://www.w3.org/2000/svg">
                    <path d="M35.578 96.5759C36.4519 98.0866 38.385 98.6027 39.8956 97.7288C41.4062 96.8549 41.9224 94.9218 41.0485 93.4112C40.1745 91.9005 38.2415 91.3844 36.7308 92.2583C35.2202 93.1322 34.704 95.0653 35.578 96.5759Z" fill="#B5B5B5"/>
                    <path d="M101.198 136.81L70.4482 154.63C68.1706 155.944 65.4856 156.365 62.915 155.811C60.3444 155.256 58.0716 153.766 56.5382 151.63L32.1582 117.73C30.8953 115.972 30.0144 113.97 29.572 111.852C29.1296 109.734 29.1356 107.547 29.5897 105.431C30.0437 103.315 30.9357 101.318 32.2082 99.5682C33.4807 97.8181 35.1056 96.3538 36.9782 95.2696L67.0882 77.8296L101.198 136.81Z" fill="#969696"/>
                    <path d="M100.978 136.42L71.3778 153.54C69.182 154.806 66.5931 155.21 64.1158 154.672C61.6385 154.134 59.4503 152.693 57.9778 150.63L34.6978 118.29C33.4653 116.566 32.6064 114.605 32.176 112.531C31.7457 110.456 31.7534 108.315 32.1987 106.244C32.644 104.173 33.517 102.217 34.7619 100.503C36.0068 98.789 37.596 97.3539 39.4278 96.2896L68.1278 79.6296L100.978 136.42Z" fill="#B5B5B5"/>
                    <path d="M99.3473 59.6965C98.4734 58.1859 96.5403 57.6697 95.0297 58.5437C93.519 59.4176 93.0029 61.3507 93.8768 62.8613C94.7507 64.3719 96.6838 64.8881 98.1945 64.0142C99.7051 63.1402 100.221 61.2072 99.3473 59.6965Z" fill="#B5B5B5"/>
                    <path d="M101.108 136.86L131.858 119.07C134.135 117.753 135.841 115.637 136.645 113.133C137.449 110.629 137.293 107.915 136.208 105.52L118.978 67.5196C118.083 65.5509 116.785 63.7913 115.169 62.3541C113.553 60.9169 111.654 59.8338 109.594 59.1745C107.534 58.5152 105.359 58.2943 103.209 58.5259C101.058 58.7576 98.9802 59.4367 97.108 60.5196L66.998 77.8896L101.108 136.86Z" fill="#969696"/>
                    <path d="M100.498 136.7L130.098 119.58C132.28 118.314 133.917 116.285 134.69 113.884C135.464 111.484 135.321 108.881 134.288 106.58L117.828 70.2096C116.952 68.2746 115.68 66.5447 114.094 65.1314C112.508 63.718 110.644 62.6524 108.621 62.0033C106.599 61.3542 104.462 61.136 102.35 61.3627C100.238 61.5894 98.197 62.256 96.3582 63.3196L67.6582 79.9196L100.498 136.7Z" fill="#B5B5B5"/>
                    <path d="M111.808 154.63L111.068 155.06C110.943 155.129 110.834 155.225 110.749 155.34C110.663 155.456 110.604 155.588 110.575 155.729C110.545 155.869 110.547 156.014 110.578 156.154C110.61 156.294 110.671 156.425 110.758 156.54C114.508 161.54 126.278 185.47 129.758 192.61C130.024 193.162 130.068 193.795 129.882 194.378C129.696 194.962 129.294 195.453 128.758 195.75L111.158 205.93C110.713 206.187 110.198 206.297 109.687 206.241C109.176 206.185 108.696 205.967 108.318 205.62C105.828 203.32 100.018 197.82 92.948 190.12C83.458 179.8 72.038 160.05 68.028 150.12C64.018 140.19 64.0279 140.12 62.0779 130.72C57.5979 136.43 58.9279 149.81 59.2879 152.78C59.3327 153.161 59.4776 153.523 59.7079 153.83C61.1879 155.83 66.9679 163.48 68.2879 165.77C69.8079 168.4 68.2879 170.47 67.1779 169.93C64.4526 168.309 61.8186 166.54 59.2879 164.63C59.0866 164.477 58.8505 164.377 58.6008 164.339C58.3511 164.3 58.0958 164.325 57.8579 164.41C56.0779 165.11 58.938 167.64 58.938 167.64C60.7388 169.021 62.6371 170.271 64.618 171.38C65.1384 171.626 65.5944 171.99 65.9501 172.443C66.3059 172.896 66.5516 173.426 66.6679 173.99C66.78 174.401 66.7757 174.836 66.6557 175.246C66.5357 175.655 66.3045 176.023 65.9879 176.31C62.2979 179.63 56.6379 178 53.5079 176.69C51.8705 176.021 50.4753 174.87 49.5079 173.39C47.7184 170.677 46.6545 167.551 46.4179 164.31C46.6211 160.539 45.6799 156.796 43.7179 153.57C29.5879 126.49 47.0279 102.45 48.5779 97.9096C57.5779 94.7296 63.7079 87.2896 70.6479 83.3496L70.438 83.4696C77.358 79.3996 86.0079 77.2796 93.2879 71.0296C97.9979 71.9596 128.378 69.3696 144.808 95.1296C146.637 98.4421 149.426 101.123 152.808 102.82C155.5 104.642 157.679 107.124 159.138 110.03C159.939 111.591 160.249 113.359 160.028 115.1C159.598 118.46 158.188 124.18 153.478 125.72C153.072 125.851 152.637 125.867 152.222 125.767C151.808 125.666 151.429 125.452 151.128 125.15C150.697 124.767 150.36 124.29 150.145 123.756C149.93 123.221 149.842 122.644 149.888 122.07C149.915 119.799 149.778 117.53 149.478 115.28C149.478 115.28 148.718 111.56 147.228 112.73C147.034 112.893 146.884 113.102 146.792 113.337C146.699 113.573 146.667 113.828 146.698 114.08C147.058 117.54 148.498 122.88 147.258 123.59C146.018 124.3 144.628 125.11 143.098 122.48C141.778 120.19 137.988 111.35 137.028 109.09C136.877 108.736 136.636 108.429 136.328 108.2C133.938 106.41 122.998 98.5796 115.818 99.6196C123.018 105.99 123.018 106 129.668 114.45C136.318 122.9 147.738 142.65 151.958 156.02C155.108 166.02 156.958 173.77 157.738 177.07C157.852 177.571 157.803 178.095 157.598 178.567C157.393 179.038 157.043 179.432 156.598 179.69L138.998 189.87C138.472 190.177 137.848 190.273 137.254 190.137C136.659 190.002 136.139 189.645 135.798 189.14C131.348 182.56 116.478 160.43 114.008 154.68C113.952 154.548 113.869 154.431 113.764 154.334C113.659 154.238 113.535 154.165 113.4 154.12C113.264 154.076 113.121 154.061 112.979 154.076C112.837 154.091 112.701 154.137 112.578 154.21L111.838 154.64" fill="#F2F2F2"/>
                    <path d="M119.272 75L112.001 91.881L118.835 94.8239L126.105 77.9429L119.272 75Z" fill="#FFCB39"/>
                    <path d="M57.4584 124.378L38.5586 123L38.0009 130.65L56.9007 132.028L57.4584 124.378Z" fill="#FFCB39"/>
                    <path d="M146.501 147.5L121.001 167.412L122.99 169.995L148.001 151L146.501 147.5Z" fill="#FFCB39"/>
                    <path d="M117.501 168.5L86.1224 181.566L87.9993 184.001L119.037 171.243L117.501 168.5Z" fill="#FFCB39"/>
                    <path d="M113.228 126.8L87.0781 142.26C86.3971 142.668 85.6419 142.938 84.856 143.052C84.0702 143.167 83.2694 143.124 82.5002 142.927C81.7309 142.73 81.0084 142.382 80.3746 141.904C79.7408 141.425 79.2083 140.825 78.808 140.14L72.568 129.63C72.1593 128.949 71.8898 128.193 71.7752 127.408C71.6606 126.622 71.7031 125.821 71.9003 125.052C72.0975 124.282 72.4455 123.56 72.924 122.926C73.4026 122.292 74.0022 121.76 74.6881 121.36L100.848 105.85C101.529 105.441 102.284 105.171 103.07 105.057C103.856 104.942 104.657 104.985 105.426 105.182C106.195 105.379 106.918 105.727 107.551 106.206C108.185 106.684 108.718 107.284 109.118 107.97L115.358 118.52C115.768 119.201 116.038 119.958 116.153 120.745C116.268 121.533 116.225 122.335 116.026 123.105C115.828 123.876 115.479 124.599 114.998 125.234C114.518 125.868 113.916 126.4 113.228 126.8Z" fill="#D3D3D3"/>
                    <path d="M90.275 126.234L81.2372 131.579C80.6715 131.913 80.4841 132.643 80.8186 133.209L80.8237 133.217C81.1583 133.783 81.8881 133.971 82.4538 133.636L91.4916 128.291C92.0573 127.957 92.2447 127.227 91.9101 126.661L91.905 126.652C91.5705 126.087 90.8407 125.899 90.275 126.234Z" fill="#B5B5B5"/>
                    <path d="M90.7468 128.435C91.1984 128.168 91.348 127.585 91.0809 127.133C90.8138 126.682 90.2312 126.532 89.7796 126.799C89.328 127.066 89.1784 127.649 89.4455 128.101C89.7126 128.552 90.2952 128.702 90.7468 128.435Z" fill="#FFCB39"/>
                    <path d="M91.9693 129.099L82.9315 134.444C82.3658 134.778 82.1784 135.508 82.513 136.074L82.5181 136.082C82.8526 136.648 83.5824 136.836 84.1481 136.501L93.1859 131.156C93.7516 130.821 93.939 130.092 93.6044 129.526L93.5993 129.517C93.2648 128.952 92.535 128.764 91.9693 129.099Z" fill="#B5B5B5"/>
                    <path d="M85.8757 135.202C86.3273 134.935 86.4769 134.353 86.2098 133.901C85.9427 133.45 85.3601 133.3 84.9085 133.567C84.4569 133.834 84.3073 134.417 84.5744 134.868C84.8415 135.32 85.4241 135.47 85.8757 135.202Z" fill="#FFCB39"/>
                    <path d="M93.6788 131.982L84.641 137.327C84.0753 137.662 83.8879 138.392 84.2225 138.957L84.2275 138.966C84.5621 139.532 85.2919 139.719 85.8576 139.385L94.8954 134.04C95.4611 133.705 95.6485 132.975 95.3139 132.41L95.3088 132.401C94.9743 131.835 94.2445 131.648 93.6788 131.982Z" fill="#B5B5B5"/>
                    <path d="M91.6858 135.642C92.1374 135.375 92.287 134.793 92.0199 134.341C91.7528 133.889 91.1702 133.74 90.7186 134.007C90.267 134.274 90.1174 134.857 90.3845 135.308C90.6515 135.76 91.2342 135.909 91.6858 135.642Z" fill="#FFCB39"/>
                    <path d="M107.719 115.911L97.8633 121.739L98.1076 122.152L107.963 116.324L107.719 115.911Z" fill="#B5B5B5"/>
                    <path d="M108.124 116.574L98.2686 122.402L98.5129 122.815L108.368 116.987L108.124 116.574Z" fill="#B5B5B5"/>
                    <path d="M108.524 117.255L98.6689 123.084L98.9133 123.497L108.769 117.668L108.524 117.255Z" fill="#B5B5B5"/>
                    <path d="M108.939 117.758L99.0923 123.597L99.3371 124.01L109.184 118.17L108.939 117.758Z" fill="#B5B5B5"/>
                    <path d="M109.316 118.597L99.4609 124.425L99.7053 124.838L109.561 119.01L109.316 118.597Z" fill="#B5B5B5"/>
                    <path d="M109.712 119.27L99.8564 125.098L100.101 125.511L109.956 119.683L109.712 119.27Z" fill="#B5B5B5"/>
                    <path d="M110.137 119.754L100.29 125.594L100.534 126.006L110.381 120.167L110.137 119.754Z" fill="#B5B5B5"/>
                    <path d="M110.538 120.44L100.691 126.28L100.936 126.692L110.783 120.853L110.538 120.44Z" fill="#B5B5B5"/>
                    <path d="M110.934 121.112L101.087 126.952L101.332 127.365L111.179 121.525L110.934 121.112Z" fill="#B5B5B5"/>
                    <path d="M111.33 121.774L101.483 127.614L101.728 128.027L111.575 122.187L111.33 121.774Z" fill="#B5B5B5"/>
                    <path d="M111.705 122.629L101.85 128.457L102.094 128.87L111.949 123.042L111.705 122.629Z" fill="#B5B5B5"/>
                    <path d="M112.092 123.297L102.236 129.125L102.481 129.539L112.336 123.71L112.092 123.297Z" fill="#B5B5B5"/>
                    <path d="M101.226 110.049L78.218 123.656C76.9726 124.392 76.56 125.999 77.2966 127.245L77.3017 127.253C78.0382 128.499 79.645 128.911 80.8905 128.175L103.898 114.568C105.144 113.831 105.556 112.225 104.82 110.979L104.815 110.97C104.078 109.725 102.471 109.312 101.226 110.049Z" fill="url(#paint0_linear_313_159)"/>
                    <path d="M150.646 99.2398L134.746 109.55L136.465 112.201L152.365 101.891L150.646 99.2398Z" fill="#D3D3D3"/>
                    <path d="M61.0516 152.153L43.9263 160.267L45.2792 163.122L62.4045 155.009L61.0516 152.153Z" fill="#D3D3D3"/>
                    <path d="M138.193 125.266L73.0166 163.077L76.1881 168.544L141.364 130.733L138.193 125.266Z" fill="#D3D3D3"/>
                    <path d="M109.165 140.812L100.524 145.825C99.8935 146.191 99.6789 146.999 100.045 147.629L103.02 152.758C103.386 153.389 104.194 153.604 104.825 153.238L113.466 148.225C114.096 147.859 114.311 147.051 113.945 146.421L110.969 141.291C110.604 140.661 109.796 140.446 109.165 140.812Z" fill="#B5B5B5"/>
                    <path d="M108.467 149.552C109.866 148.74 110.343 146.947 109.531 145.548C108.719 144.148 106.926 143.672 105.526 144.484C104.126 145.296 103.65 147.089 104.462 148.488C105.274 149.888 107.067 150.364 108.467 149.552Z" fill="#FCFCFC"/>
                    <path d="M138.408 192.36L148.938 208.76C149.895 210.024 151.109 211.071 152.5 211.833C153.891 212.595 155.427 213.054 157.008 213.18C158.461 213.319 159.926 213.249 161.358 212.97C163.33 212.581 165.223 211.864 166.958 210.85C176.118 205.6 184.608 200.76 175.548 193.35C173.891 192.001 171.964 191.023 169.898 190.48C169.028 190.25 168.168 190.05 167.388 189.87C166.003 189.566 164.698 188.971 163.56 188.125C162.422 187.278 161.477 186.199 160.788 184.96L158.678 181.21L138.408 192.36Z" fill="#DEDFE0"/>
                    <path d="M139.883 192.64L158.632 181.794C159.817 181.108 160.222 179.591 159.536 178.405C158.851 177.22 157.333 176.814 156.148 177.5L137.399 188.347C136.214 189.033 135.809 190.55 136.494 191.735C137.18 192.921 138.697 193.326 139.883 192.64Z" fill="#D3D3D3"/>
                    <path d="M146.977 193.203L146.017 193.759L150.989 202.355L151.95 201.799L146.977 193.203Z" fill="#ADADAD"/>
                    <path d="M151.974 190.322L151.014 190.878L155.986 199.473L156.947 198.917L151.974 190.322Z" fill="#ADADAD"/>
                    <path d="M149.48 191.765L148.52 192.321L153.492 200.916L154.453 200.36L149.48 191.765Z" fill="#ADADAD"/>
                    <path d="M131.508 196.35L140.508 213.66C141.127 215.12 141.43 216.694 141.397 218.28C141.365 219.866 140.997 221.426 140.318 222.86C139.712 224.19 138.917 225.427 137.958 226.53C136.638 228.046 135.073 229.33 133.328 230.33C124.208 235.66 115.778 240.6 113.878 229.06C113.536 226.95 113.648 224.792 114.208 222.73C114.448 221.86 114.688 221.02 114.938 220.25C115.36 218.895 115.49 217.466 115.317 216.057C115.145 214.648 114.675 213.292 113.938 212.08L111.738 208.39L131.508 196.35Z" fill="#DEDFE0"/>
                    <path d="M128.519 193.457L109.77 204.303C108.585 204.989 108.18 206.506 108.865 207.692C109.551 208.878 111.068 209.283 112.254 208.597L131.003 197.75C132.188 197.065 132.593 195.547 131.907 194.362C131.222 193.176 129.704 192.771 128.519 193.457Z" fill="#D3D3D3"/>
                    <path d="M132.946 212.805L133.907 212.249L128.934 203.654L127.973 204.21L132.946 212.805Z" fill="#ADADAD"/>
                    <path d="M127.958 215.685L128.919 215.129L123.946 206.534L122.986 207.09L127.958 215.685Z" fill="#ADADAD"/>
                    <path d="M130.067 213.319L131.032 212.764L126.067 204.125L125.102 204.68L130.067 213.319Z" fill="#ADADAD"/>
                    <path d="M9.63677 78.1698L14.7178 75.2303L14.3572 74.6071L9.27622 77.5465L9.63677 78.1698Z" fill="#C6C6C6"/>
                    <path d="M15.9145 63.8081L25.0445 79.6943C23.3601 80.6623 21.3601 80.9216 19.4846 80.415C17.609 79.9085 16.0115 78.6777 15.0435 76.9933L13.2185 73.8178C12.2504 72.1334 11.9912 70.1334 12.4977 68.2579C13.0042 66.3823 14.2351 64.7848 15.9195 63.8168L15.9145 63.8081Z" fill="#C6C6C6"/>
                    <path d="M53.7054 87.404C69.1792 82.3224 77.3426 64.8636 71.9389 48.4085C66.5351 31.9534 49.6104 22.7334 34.1365 27.8149C18.6627 32.8965 10.4993 50.3554 15.9031 66.8104C21.3069 83.2655 38.2315 92.4856 53.7054 87.404Z" fill="#B2B2B2"/>
                    <path d="M15.0832 76.7359C15.5135 76.487 15.4587 75.5877 14.9609 74.7272C14.4631 73.8667 13.7107 73.3709 13.2805 73.6198C12.8502 73.8687 12.905 74.7681 13.4028 75.6286C13.9006 76.489 14.653 76.9848 15.0832 76.7359Z" fill="#B2B2B2"/>
                    <path d="M96.0722 27.3299L90.9912 30.2694L91.3518 30.8926L96.4328 27.9532L96.0722 27.3299Z" fill="#C6C6C6"/>
                    <path d="M89.8111 41.9246L80.6673 26.119C82.3431 25.1494 84.3355 24.8854 86.206 25.3848C88.0766 25.8843 89.6721 27.1064 90.6416 28.7822L92.4744 31.9503C93.4439 33.6261 93.7079 35.6185 93.2085 37.489C92.709 39.3596 91.4869 40.9551 89.8111 41.9246Z" fill="#C6C6C6"/>
                    <path d="M77.7062 74.9247C91.6892 66.8354 96.0656 48.2485 87.4812 33.4098C78.8968 18.571 60.6023 13.0996 46.6192 21.189C32.6362 29.2783 28.2598 47.8652 36.8442 62.7039C45.4286 77.5427 63.7231 83.0141 77.7062 74.9247Z" fill="#B2B2B2"/>
                    <path d="M92.4416 31.8772C92.8719 31.6283 92.8171 30.7289 92.3193 29.8684C91.8215 29.0079 91.0691 28.5121 90.6389 28.7611C90.2086 29.01 90.2634 29.9093 90.7612 30.7698C91.259 31.6303 92.0114 32.1261 92.4416 31.8772Z" fill="#B2B2B2"/>
                    <path d="M72.5196 87.1528C91.1529 76.444 97.577 52.6575 86.8682 34.0242C76.1594 15.3909 52.3729 8.96678 33.7396 19.6756C15.1063 30.3844 8.68218 54.1709 19.391 72.8042C30.0998 91.4375 53.8863 97.8616 72.5196 87.1528Z" fill="#E8E8E8"/>
                    <path d="M74.5744 85.9662C92.1746 75.8511 97.7613 52.5459 87.0525 33.9126C76.3437 15.2793 53.3946 8.37387 35.7944 18.489C18.1941 28.6041 12.6075 51.9093 23.3163 70.5426C34.0251 89.1759 56.9741 96.0813 74.5744 85.9662Z" fill="#F2F2F2"/>
                    <path d="M74.4222 85.4377C91.8949 75.3294 97.3651 52.1064 86.6401 33.5675C75.9151 15.0287 53.0563 8.19435 35.5836 18.3026C18.1108 28.4109 12.6406 51.6339 23.3656 70.1728C34.0906 88.7116 56.9494 95.5459 74.4222 85.4377Z" fill="white"/>
                    <path d="M73.0604 86.2225C89.7778 76.5512 94.6357 53.6824 83.9107 35.1436C73.1857 16.6047 50.9392 9.41617 34.2218 19.0875C17.5043 28.7587 12.6465 51.6276 23.3714 70.1664C34.0964 88.7052 56.3429 95.8938 73.0604 86.2225Z" fill="#F2F2F2"/>
                    <path d="M77.2879 39.1196C85.0679 52.5696 80.8879 68.2196 67.4379 75.9996C53.9879 83.7796 36.3879 80.7496 28.6079 67.2996C20.8279 53.8496 26.9779 37.0596 40.4279 29.2996C53.8779 21.5396 69.5379 25.6296 77.2879 39.1196Z" fill="#7F1BBF"/>
                    <path d="M76.898 38.3496C84.428 51.3496 81.158 66.0496 69.198 72.9696C63.2064 76.3968 56.1014 77.312 49.4368 75.515C42.7723 73.718 37.0904 69.3552 33.6338 63.3804C30.1772 57.4057 29.2271 50.3054 30.9913 43.632C32.7554 36.9587 37.0903 31.2555 43.048 27.7696C55.008 20.8496 69.368 25.3396 76.898 38.3496Z" fill="url(#paint1_linear_313_159)"/>
                    <path d="M54.4479 25.3796C63.5779 25.3796 72.1679 30.2196 77.3179 39.1196C85.0979 52.5696 80.9179 68.2196 67.4679 75.9996C62.7315 78.7498 57.3548 80.2052 51.8779 80.2196C42.5379 80.2196 33.5679 75.8796 28.6079 67.2996C20.8279 53.8496 26.9779 37.0596 40.4279 29.2996C44.6696 26.7905 49.4998 25.4484 54.4279 25.4096L54.4479 25.3796ZM54.4279 20.4096C48.6189 20.4582 42.925 22.0343 37.9179 24.9796C21.5779 34.4096 15.4479 54.5296 24.2879 69.7996C29.8679 79.4496 40.1879 85.2196 51.8879 85.2196C58.2392 85.2043 64.4747 83.5179 69.9679 80.3296C73.6567 78.2688 76.9009 75.4979 79.5132 72.1768C82.1254 68.8556 84.0541 65.05 85.1879 60.9796C86.2338 56.888 86.4595 52.6299 85.8519 48.4507C85.2443 44.2715 83.8155 40.2539 81.6479 36.6296C75.7679 26.4596 65.6479 20.3896 54.4479 20.3896L54.4279 20.4096Z" fill="#D8D8D8"/>
                    <path d="M49.9749 91.8965L88.2339 69.7631C89.1071 69.2534 90.0724 68.9211 91.0743 68.7854C92.0762 68.6496 93.0951 68.713 94.0724 68.9719C95.0498 69.2308 95.9664 69.6802 96.7697 70.2942C97.573 70.9082 98.2471 71.6748 98.7534 72.55L99.6297 74.0648L48.0493 103.905L47.173 102.39C46.153 100.627 45.8752 98.5309 46.4007 96.563C46.9261 94.5951 48.2118 92.9165 49.9749 91.8965V91.8965Z" fill="#C6C6C6"/>
                    <path d="M45.8117 92.7524L91.0561 66.5779C91.8863 66.1005 92.8709 65.9685 93.7976 66.2105C94.7242 66.4524 95.5186 67.0489 96.0095 67.8712L98.9289 72.9176L47.3745 102.743L44.4551 97.6962C43.986 96.8592 43.8654 95.8712 44.1193 94.946C44.3732 94.0208 44.9812 93.2327 45.8117 92.7524V92.7524Z" fill="#D8D8D8"/>
                    <path d="M51.1127 98.0192C52.1931 97.3942 52.5623 96.0116 51.9372 94.9313C51.3122 93.8509 49.9297 93.4817 48.8493 94.1067C47.7689 94.7318 47.3998 96.1143 48.0248 97.1947C48.6498 98.2751 50.0323 98.6442 51.1127 98.0192Z" fill="#B5B5B5"/>
                    <path d="M58.078 93.9906C59.1584 93.3656 59.5276 91.9831 58.9026 90.9027C58.2775 89.8223 56.895 89.4531 55.8146 90.0781C54.7342 90.7032 54.3651 92.0857 54.9901 93.1661C55.6151 94.2465 56.9976 94.6156 58.078 93.9906Z" fill="#B5B5B5"/>
                    <path d="M65.0443 89.967C66.1247 89.342 66.4939 87.9595 65.8689 86.8791C65.2438 85.7987 63.8613 85.4295 62.7809 86.0546C61.7005 86.6796 61.3314 88.0621 61.9564 89.1425C62.5814 90.2229 63.964 90.5921 65.0443 89.967Z" fill="#B5B5B5"/>
                    <path d="M72.0097 85.9284C73.0901 85.3034 73.4592 83.9209 72.8342 82.8405C72.2092 81.7601 70.8267 81.3909 69.7463 82.016C68.6659 82.641 68.2967 84.0235 68.9217 85.1039C69.5468 86.1843 70.9293 86.5535 72.0097 85.9284Z" fill="#B5B5B5"/>
                    <path d="M78.9657 81.9049C80.0461 81.2798 80.4153 79.8973 79.7903 78.8169C79.1652 77.7365 77.7827 77.3674 76.7023 77.9924C75.6219 78.6174 75.2528 79.9999 75.8778 81.0803C76.5028 82.1607 77.8853 82.5299 78.9657 81.9049Z" fill="#B5B5B5"/>
                    <path d="M85.9408 77.8763C87.0212 77.2513 87.3904 75.8687 86.7654 74.7883C86.1403 73.7079 84.7578 73.3388 83.6774 73.9638C82.597 74.5888 82.2279 75.9714 82.8529 77.0518C83.4779 78.1321 84.8604 78.5013 85.9408 77.8763Z" fill="#B5B5B5"/>
                    <path d="M92.8974 73.8427C93.9778 73.2176 94.3469 71.8351 93.7219 70.7547C93.0969 69.6743 91.7144 69.3052 90.634 69.9302C89.5536 70.5552 89.1844 71.9378 89.8094 73.0181C90.4345 74.0985 91.817 74.4677 92.8974 73.8427Z" fill="#B5B5B5"/>
                    <path d="M104.991 143.747L105 143.732L106.299 144.482L104.549 147.513L104.516 145.567C104.517 144.94 104.667 144.308 104.991 143.747ZM108.013 149.513L109.763 146.482L111.062 147.232L111.053 147.247C110.729 147.808 110.269 148.261 109.714 148.569L108.013 149.513ZM109.95 146.157C109.746 146.512 109.394 146.727 109.017 146.773L106.767 150.67C106.226 151.608 105.406 152.32 104.263 152.458C104.098 152.478 103.939 152.386 103.874 152.233C103.422 151.175 103.628 150.108 104.169 149.17L106.419 145.273C106.271 144.924 106.282 144.512 106.486 144.157L106.549 144.049L105.25 143.299L105.375 143.083C105.582 142.724 106.041 142.601 106.399 142.808L107.049 143.183L106.986 143.291C107.159 142.992 107.541 142.89 107.84 143.062L110.222 144.438C110.521 144.61 110.623 144.992 110.451 145.291L110.513 145.183L111.162 145.558C111.521 145.765 111.644 146.224 111.437 146.583L111.312 146.799L110.013 146.049L109.95 146.157ZM105.959 150.571C105.984 150.527 105.978 150.503 105.933 150.478L104.753 149.796C104.721 149.778 104.685 149.777 104.66 149.821C104.506 150.088 104.597 150.427 104.863 150.581L105.199 150.775C105.465 150.929 105.805 150.838 105.959 150.571V150.571Z" fill="url(#paint2_linear_313_159)"/>
                    <defs>
                    <linearGradient id="paint0_linear_313_159" x1="77.3017" y1="127.253" x2="104.811" y2="110.984" gradientUnits="userSpaceOnUse">
                    <stop stop-color="#9E23CC"/>
                    <stop offset="1" stop-color="#4804FF"/>
                    </linearGradient>
                    <linearGradient id="paint1_linear_313_159" x1="33.6014" y1="63.4017" x2="76.9068" y2="38.3489" gradientUnits="userSpaceOnUse">
                    <stop stop-color="#9E23CC"/>
                    <stop offset="1" stop-color="#4804FF"/>
                    </linearGradient>
                    <linearGradient id="paint2_linear_313_159" x1="110.316" y1="148.492" x2="102.302" y2="146.144" gradientUnits="userSpaceOnUse">
                    <stop stop-color="#7739A3"/>
                    <stop offset="1" stop-color="#1A75FF"/>
                    </linearGradient>
                    </defs>
                </svg>  