<svg width="1280" height="1201" viewBox="0 0 1280 1201" fill="none" xmlns="http://www.w3.org/2000/svg">
<path opacity="0.3" d="M683.82 967.32C686.062 967.32 687.88 965.502 687.88 963.26C687.88 961.018 686.062 959.2 683.82 959.2C681.577 959.2 679.76 961.018 679.76 963.26C679.76 965.502 681.577 967.32 683.82 967.32Z" fill="white"/>
<path opacity="0.3" d="M1069.31 916.18C1071.55 916.18 1073.37 914.362 1073.37 912.12C1073.37 909.878 1071.55 908.06 1069.31 908.06C1067.07 908.06 1065.25 909.878 1065.25 912.12C1065.25 914.362 1067.07 916.18 1069.31 916.18Z" fill="white"/>
<path opacity="0.3" d="M294.27 457.4C296.512 457.4 298.33 455.582 298.33 453.34C298.33 451.098 296.512 449.28 294.27 449.28C292.028 449.28 290.21 451.098 290.21 453.34C290.21 455.582 292.028 457.4 294.27 457.4Z" fill="#66BAF2"/>
<path opacity="0.3" d="M1275.94 44.7201C1278.18 44.7201 1280 42.9024 1280 40.6601C1280 38.4178 1278.18 36.6001 1275.94 36.6001C1273.7 36.6001 1271.88 38.4178 1271.88 40.6601C1271.88 42.9024 1273.7 44.7201 1275.94 44.7201Z" fill="white"/>
<path opacity="0.3" d="M1215.06 222.63C1217.3 222.63 1219.12 220.812 1219.12 218.57C1219.12 216.328 1217.3 214.51 1215.06 214.51C1212.82 214.51 1211 216.328 1211 218.57C1211 220.812 1212.82 222.63 1215.06 222.63Z" fill="white"/>
<path opacity="0.3" d="M652.22 32.5499C654.462 32.5499 656.28 30.7322 656.28 28.4899C656.28 26.2477 654.462 24.4299 652.22 24.4299C649.978 24.4299 648.16 26.2477 648.16 28.4899C648.16 30.7322 649.978 32.5499 652.22 32.5499Z" fill="white"/>
<path opacity="0.3" d="M777.57 245.19C779.812 245.19 781.63 243.372 781.63 241.13C781.63 238.888 779.812 237.07 777.57 237.07C775.327 237.07 773.51 238.888 773.51 241.13C773.51 243.372 775.327 245.19 777.57 245.19Z" fill="white"/>
<path opacity="0.3" d="M332.83 8.12C335.072 8.12 336.89 6.30228 336.89 4.06C336.89 1.81772 335.072 0 332.83 0C330.588 0 328.77 1.81772 328.77 4.06C328.77 6.30228 330.588 8.12 332.83 8.12Z" fill="white"/>
<path opacity="0.3" d="M4.06 264.84C6.30228 264.84 8.12 263.022 8.12 260.78C8.12 258.538 6.30228 256.72 4.06 256.72C1.81772 256.72 0 258.538 0 260.78C0 263.022 1.81772 264.84 4.06 264.84Z" fill="white"/>
<path opacity="0.3" d="M166.41 111.31C168.652 111.31 170.47 109.492 170.47 107.25C170.47 105.008 168.652 103.19 166.41 103.19C164.168 103.19 162.35 105.008 162.35 107.25C162.35 109.492 164.168 111.31 166.41 111.31Z" fill="white"/>
<path opacity="0.3" d="M1275.94 959.02C1278.18 959.02 1280 957.202 1280 954.96C1280 952.718 1278.18 950.9 1275.94 950.9C1273.7 950.9 1271.88 952.718 1271.88 954.96C1271.88 957.202 1273.7 959.02 1275.94 959.02Z" fill="white"/>
<path opacity="0.3" d="M1018.93 81.2599C1021.17 81.2599 1022.99 79.4422 1022.99 77.1999C1022.99 74.9576 1021.17 73.1399 1018.93 73.1399C1016.69 73.1399 1014.87 74.9576 1014.87 77.1999C1014.87 79.4422 1016.69 81.2599 1018.93 81.2599Z" fill="white"/>
<path opacity="0.62" d="M484.62 161.55C486.862 161.55 488.68 159.732 488.68 157.49C488.68 155.248 486.862 153.43 484.62 153.43C482.378 153.43 480.56 155.248 480.56 157.49C480.56 159.732 482.378 161.55 484.62 161.55Z" fill="#66BAF2"/>
<path opacity="0.3" d="M1259.71 1200.79C1261.95 1200.79 1263.77 1198.97 1263.77 1196.73C1263.77 1194.49 1261.95 1192.67 1259.71 1192.67C1257.47 1192.67 1255.65 1194.49 1255.65 1196.73C1255.65 1198.97 1257.47 1200.79 1259.71 1200.79Z" fill="white"/>
<path opacity="0.3" d="M80.5898 438.88C82.8321 438.88 84.6498 437.062 84.6498 434.82C84.6498 432.578 82.8321 430.76 80.5898 430.76C78.3475 430.76 76.5298 432.578 76.5298 434.82C76.5298 437.062 78.3475 438.88 80.5898 438.88Z" fill="white"/>
<path opacity="0.3" d="M1241.44 418.69C1243.68 418.69 1245.5 416.872 1245.5 414.63C1245.5 412.388 1243.68 410.57 1241.44 410.57C1239.2 410.57 1237.38 412.388 1237.38 414.63C1237.38 416.872 1239.2 418.69 1241.44 418.69Z" fill="#66BAF2"/>
<path opacity="0.3" d="M855.41 115.37C857.652 115.37 859.47 113.552 859.47 111.31C859.47 109.068 857.652 107.25 855.41 107.25C853.168 107.25 851.35 109.068 851.35 111.31C851.35 113.552 853.168 115.37 855.41 115.37Z" fill="white"/>
<path opacity="0.3" d="M64.3598 850.15C66.6021 850.15 68.4198 848.332 68.4198 846.09C68.4198 843.848 66.6021 842.03 64.3598 842.03C62.1175 842.03 60.2998 843.848 60.2998 846.09C60.2998 848.332 62.1175 850.15 64.3598 850.15Z" fill="white"/>
<path opacity="0.3" d="M131.04 1190.17C133.282 1190.17 135.1 1188.35 135.1 1186.11C135.1 1183.87 133.282 1182.05 131.04 1182.05C128.798 1182.05 126.98 1183.87 126.98 1186.11C126.98 1188.35 128.798 1190.17 131.04 1190.17Z" fill="white"/>
<path opacity="0.3" d="M331.67 1027.83C333.912 1027.83 335.73 1026.01 335.73 1023.77C335.73 1021.53 333.912 1019.71 331.67 1019.71C329.428 1019.71 327.61 1021.53 327.61 1023.77C327.61 1026.01 329.428 1027.83 331.67 1027.83Z" fill="white"/>
<path opacity="0.3" d="M1179.77 629.4C1181.74 629.4 1183.33 627.806 1183.33 625.84C1183.33 623.874 1181.74 622.28 1179.77 622.28C1177.8 622.28 1176.21 623.874 1176.21 625.84C1176.21 627.806 1177.8 629.4 1179.77 629.4Z" fill="#66BAF2"/>
<path opacity="0.3" d="M250.33 705.42C252.296 705.42 253.89 703.826 253.89 701.86C253.89 699.894 252.296 698.3 250.33 698.3C248.364 698.3 246.77 699.894 246.77 701.86C246.77 703.826 248.364 705.42 250.33 705.42Z" fill="white"/>
<path opacity="0.62" d="M349.59 912.12C351.556 912.12 353.15 910.526 353.15 908.56C353.15 906.594 351.556 905 349.59 905C347.624 905 346.03 906.594 346.03 908.56C346.03 910.526 347.624 912.12 349.59 912.12Z" fill="#66BAF2"/>
<path opacity="0.3" d="M639.33 651.42C641.296 651.42 642.89 649.826 642.89 647.86C642.89 645.894 641.296 644.3 639.33 644.3C637.364 644.3 635.77 645.894 635.77 647.86C635.77 649.826 637.364 651.42 639.33 651.42Z" fill="white"/>
<path opacity="0.3" d="M824.33 756.42C826.296 756.42 827.89 754.826 827.89 752.86C827.89 750.894 826.296 749.3 824.33 749.3C822.364 749.3 820.77 750.894 820.77 752.86C820.77 754.826 822.364 756.42 824.33 756.42Z" fill="white"/>
</svg>
