<?xml version="1.0" encoding="UTF-8" standalone="no"?>
<svg
   fill-rule="evenodd"
   stroke-linejoin="round"
   stroke-miterlimit="2"
   clip-rule="evenodd"
   viewBox="0 0 32 32"
   version="1.1"
   id="svg5596"
   sodipodi:docname="biosistem.svg"
   inkscape:version="1.1.2 (b8e25be833, 2022-02-05)"
   xmlns:inkscape="http://www.inkscape.org/namespaces/inkscape"
   xmlns:sodipodi="http://sodipodi.sourceforge.net/DTD/sodipodi-0.dtd"
   xmlns="http://www.w3.org/2000/svg"
   xmlns:svg="http://www.w3.org/2000/svg">
  <defs
     id="defs5600" />
  <sodipodi:namedview
     id="namedview5598"
     pagecolor="#ffffff"
     bordercolor="#666666"
     borderopacity="1.0"
     inkscape:pageshadow="2"
     inkscape:pageopacity="0.0"
     inkscape:pagecheckerboard="0"
     showgrid="false"
     inkscape:zoom="12.352272"
     inkscape:cx="9.5124204"
     inkscape:cy="17.567619"
     inkscape:window-width="1366"
     inkscape:window-height="745"
     inkscape:window-x="-8"
     inkscape:window-y="-8"
     inkscape:window-maximized="1"
     inkscape:current-layer="svg5596" />
  <g
     style="clip-rule:evenodd;fill-rule:evenodd;stroke-linejoin:round;stroke-miterlimit:1.414"
     id="g6930"
     transform="matrix(0.00810196,0,0,0.00810196,11.549335,10.929189)">
    <path
       fill="none"
       d="M 0,0 H 1280 V 1280 H 0 Z"
       id="path6915" />
    <g
       clip-path="url(#a-1)"
       id="g6919">
      <path
         d="m 645.897,997.002 c -4.066,0.345 -7.288,0.425 -9.259,0.429 -64.344,0.13 -116.584,-52.24 -116.584,-116.585 0,-0.517 0.003,-1.032 0.01,-1.547 v -1.639 h -0.01 V 754.075 h 0.01 c 39.047,-0.609 135.395,7.898 188.528,81.807 13.757,19.136 21.862,42.602 21.862,67.946 0,15.211 -2.92,29.745 -8.229,43.072 l -0.036,-0.03 c -3.406,9.033 -12.469,27.645 -36.113,39.499 -3.805,1.907 -7.69,3.489 -11.536,4.799 16.969,-64.96 -5.212,-159.071 -103.759,-204.296 59.849,37.101 107.124,130.525 75.116,210.13 z"
         transform="matrix(5.25916,0,0,5.25916,-2648.31,-3965.65)"
         id="path6917" />
    </g>
  </g>
  <g
     id="g7227"
     transform="matrix(0.03763694,0,0,0.03763694,-2.9763984,-3.5519742)">
    <path
       d="m 714.73756,560.28022 c -5.29248,21.86026 -13.40379,41.5345 -25.1393,60.63347 -2.01345,3.27904 -1.32312,7.76615 1.32312,10.46992 7.47851,7.47851 15.01455,14.95702 22.43553,22.43553 0.40269,0.40269 0.80538,0.86291 1.20807,1.2656 0.86291,0.8629 2.18603,3.27904 2.58872,4.60216 0.17258,0.51774 0.28763,1.03548 0.40269,1.55323 0.63279,2.35861 0,-0.97796 0.11505,0.46021 0.11505,1.20807 0.11505,2.35861 0.0575,3.56668 -0.11506,1.72581 -0.0575,0.40269 0,0.0575 -0.17258,0.80537 -0.34517,1.55323 -0.57527,2.30108 -0.17258,0.51774 -0.34517,1.03548 -0.51775,1.4957 0.6328,-1.55323 -0.40269,0.69032 -0.51774,0.8629 -0.28763,0.46022 -0.57527,0.92044 -0.86291,1.38065 -1.26559,1.95592 0.97796,-0.80538 -0.74785,0.86291 -0.2301,0.23011 -0.40269,0.46021 -0.63279,0.63279 -0.28764,0.28764 -0.51775,0.51775 -0.80538,0.80538 -1.38065,1.38065 -2.7613,2.7613 -4.08442,4.08442 -9.43443,9.43443 -18.92639,18.92639 -28.36082,28.36082 -2.53119,2.53119 -5.00485,5.1199 -7.59356,7.59356 -0.23011,0.23011 -0.51775,0.46022 -0.69033,0.6328 -1.78333,1.78334 0.6328,-0.34516 -0.51774,0.46022 -0.57527,0.40269 -1.15054,0.74785 -1.72581,1.09301 -0.46022,0.28764 -0.97796,0.51774 -1.43818,0.74785 1.2656,-0.63279 0.11506,-0.0575 -0.17258,0.0575 -0.74785,0.23011 -1.55323,0.40269 -2.30108,0.6328 -1.72581,0.51774 1.09302,0.11505 -0.8629,0.17258 -1.03549,0.0575 -2.1285,0.0575 -3.16399,0 -2.30108,-0.0575 1.38065,0.51774 -0.8629,-0.17258 -0.51775,-0.17258 -1.03549,-0.23011 -1.55323,-0.40269 -0.51775,-0.17258 -1.03549,-0.34516 -1.49571,-0.51775 1.66829,0.6328 -0.69032,-0.40268 -0.8629,-0.51774 -0.46022,-0.28763 -0.92043,-0.57527 -1.38065,-0.8629 -1.84086,-1.20807 0.69032,0.8629 -0.8629,-0.74786 -7.82368,-7.93872 -15.81993,-15.7624 -23.70113,-23.6436 -2.64625,-2.64624 -7.19088,-3.33656 -10.46992,-1.32312 -18.98392,11.85057 -38.65815,19.96187 -60.51842,25.25436 -3.68173,0.86291 -6.32797,4.60216 -6.32797,8.34142 0,10.64249 0.0575,21.34252 0,31.98502 0,0.74785 0,1.43817 -0.0575,2.18602 -0.0575,2.18603 0.46022,-0.69032 -0.0575,0.40269 -0.23011,0.51775 -0.28764,1.2656 -0.46022,1.84087 -0.11506,0.46021 -0.28764,0.97796 -0.46022,1.43817 0.57527,-1.72581 -0.17258,0.28764 -0.34516,0.69033 -0.28763,0.57527 -0.6328,1.03548 -0.97796,1.61075 -0.23011,0.40269 -1.32312,1.61076 -0.17258,0.34516 -0.80538,0.92044 -1.66828,1.78334 -2.58872,2.58872 1.2656,-1.09301 -0.74785,0.46022 -1.26559,0.80538 -0.6328,0.40269 -1.32312,0.74785 -1.95592,1.03548 1.38065,-0.63279 -0.23011,0 -0.74785,0.17259 -0.46022,0.11505 -0.97796,0.2301 -1.4957,0.40268 -2.18603,0.6328 0.97796,0.0575 -0.40269,0.11506 -0.69032,0 -1.32312,0.0575 -2.01345,0.11505 -0.34516,0 -0.74785,0 -1.09301,0 -1.84086,0 -3.68173,0 -5.52259,0 -13.51885,0 -26.98017,0 -40.49902,0 -3.56668,0 -7.19088,0.0575 -10.75755,0 -0.51775,0 -1.09302,-0.0575 -1.61076,-0.0575 -2.1285,-0.0575 0.69033,0.46021 -0.40269,-0.0575 -0.51774,-0.23011 -1.26559,-0.28764 -1.84086,-0.46022 -0.46022,-0.11505 -0.97796,-0.28763 -1.43818,-0.46021 1.78334,0.63279 -0.40269,-0.23011 -0.69032,-0.34517 -0.46022,-0.2301 -0.86291,-0.46021 -1.2656,-0.74785 -0.2301,-0.17258 -2.01344,-1.61075 -0.63279,-0.40269 -0.92044,-0.80537 -1.78334,-1.66828 -2.58872,-2.58871 1.15054,1.26559 -0.69032,-1.09301 -0.97796,-1.61076 -0.28763,-0.51774 -0.57527,-1.09301 -0.8629,-1.66828 0.69032,1.4957 0.11505,0.28763 0.0575,-0.0575 -0.17258,-0.6328 -0.34516,-1.20807 -0.51774,-1.84086 -0.11505,-0.34516 -0.17258,-0.74785 -0.23011,-1.15054 0.11506,1.03548 0.11506,1.03548 0,0 -0.28763,-11.39035 -0.0575,-22.7807 -0.0575,-34.22858 0,-3.68172 -2.64625,-7.42098 -6.32798,-8.34141 -21.86026,-5.29249 -41.5345,-13.4038 -60.63347,-25.13931 -3.27904,-2.01344 -7.76615,-1.32312 -10.46991,1.32312 -7.47852,7.47851 -14.95703,15.01455 -22.43554,22.43554 -0.40269,0.40269 -0.86291,0.80538 -1.26559,1.20807 -0.86291,0.8629 -3.27904,2.18602 -4.60217,2.58871 -0.51774,0.17258 -1.03548,0.28764 -1.55323,0.40269 -2.3586,0.6328 0.97796,0 -0.46021,0.11505 -1.20807,0.11506 -2.35861,0.11506 -3.56668,0.0575 -1.72581,-0.11505 -0.40269,-0.0575 -0.0575,0 -0.80538,-0.17258 -1.55323,-0.34516 -2.30108,-0.57527 -0.51775,-0.17258 -1.03549,-0.34516 -1.49571,-0.51774 1.55323,0.6328 -0.69032,-0.40269 -0.8629,-0.51774 -0.46022,-0.28764 -0.92043,-0.57527 -1.38065,-0.86291 -1.95592,-1.26559 0.80538,0.97796 -0.8629,-0.74785 -0.23011,-0.23011 -0.46022,-0.40269 -0.6328,-0.6328 -0.28764,-0.28763 -0.51774,-0.51774 -0.80538,-0.80538 -1.38065,-1.38064 -2.7613,-2.76129 -4.08442,-4.08441 -9.43443,-9.43443 -18.92639,-18.92639 -28.36082,-28.36082 -2.53118,-2.53119 -5.1199,-5.00485 -7.59356,-7.59357 -0.23011,-0.23011 -0.46022,-0.51774 -0.6328,-0.69032 -1.78334,-1.78334 0.34516,0.63279 -0.46021,-0.51775 -0.40269,-0.57527 -0.74786,-1.15054 -1.09302,-1.72581 -0.28763,-0.46021 -0.51774,-0.97796 -0.74785,-1.43817 0.6328,1.26559 0.0575,0.11505 -0.0575,-0.17258 -0.2301,-0.74785 -0.40269,-1.55323 -0.63279,-2.30108 -0.51775,-1.72581 -0.11506,1.09301 -0.17258,-0.86291 -0.0575,-1.03548 -0.0575,-2.1285 0,-3.16398 0.0575,-2.30108 -0.51775,1.38064 0.17258,-0.86291 0.17258,-0.51774 0.2301,-1.03549 0.40269,-1.55323 0.17258,-0.51774 0.34516,-1.03548 0.51774,-1.4957 -0.6328,1.66828 0.40269,-0.69032 0.51774,-0.86291 0.28764,-0.46021 0.57527,-0.92043 0.86291,-1.38064 1.20806,-1.84087 -0.86291,0.69032 0.74785,-0.86291 7.93873,-7.82367 15.7624,-15.81993 23.6436,-23.70113 2.64624,-2.64624 3.33657,-7.19088 1.32312,-10.46992 -11.90809,-19.04144 -20.0194,-38.71568 -25.31188,-60.57594 -0.86291,-3.68173 -4.60217,-6.32797 -8.34142,-6.32797 -10.6425,0 -21.34252,0.0575 -31.98502,0 -0.74785,0 -1.43818,0 -2.18603,-0.0575 -2.18602,-0.0575 0.69033,0.46022 -0.40269,-0.0575 -0.51774,-0.2301 -1.26559,-0.28763 -1.84086,-0.46021 -0.46022,-0.11506 -0.97796,-0.28764 -1.43818,-0.46022 1.72581,0.57527 -0.28763,-0.17258 -0.69032,-0.34516 -0.57527,-0.28764 -1.03549,-0.6328 -1.61076,-0.97796 -0.40269,-0.23011 -1.61075,-1.32312 -0.34516,-0.17258 -0.92043,-0.80538 -1.78334,-1.66828 -2.58871,-2.58872 1.09301,1.2656 -0.46022,-0.74785 -0.80538,-1.26559 -0.40269,-0.6328 -0.74785,-1.32312 -1.03549,-1.95592 0.6328,1.38065 0,-0.23011 -0.17258,-0.74785 -0.11505,-0.46022 -0.23011,-0.97796 -0.40269,-1.4957 -0.6328,-2.18603 -0.0575,0.97796 -0.11505,-0.40269 0,-0.69033 -0.0575,-1.32312 -0.11506,-2.01345 0,-0.34516 0,-0.74785 0,-1.09301 0,-1.84087 0,-3.68173 0,-5.52259 0,-13.51885 0,-26.98017 0,-40.49902 0,-3.56668 -0.0575,-7.19088 0,-10.75755 0,-0.51775 0.0575,-1.09302 0.0575,-1.61076 0.0575,-2.1285 -0.46022,0.69032 0.0575,-0.40269 0.23011,-0.51774 0.28763,-1.26559 0.46021,-1.84086 0.11506,-0.46022 0.28764,-0.97796 0.46022,-1.43818 -0.6328,1.78334 0.23011,-0.40269 0.34516,-0.69032 0.23011,-0.46022 0.46022,-0.86291 0.74785,-1.2656 0.17258,-0.23011 1.61076,-2.01344 0.40269,-0.63279 0.80538,-0.92044 1.66829,-1.78334 2.58872,-2.58872 -1.2656,1.15054 1.09301,-0.69032 1.61075,-0.97796 0.51775,-0.28763 1.09302,-0.57527 1.66829,-0.8629 -1.49571,0.69032 -0.28764,0.11505 0.0575,0.0575 0.6328,-0.17258 1.20807,-0.34516 1.84087,-0.51774 0.34516,-0.11506 0.74785,-0.17258 1.15054,-0.23011 -1.03549,0.11505 -1.03549,0.11505 0,0 11.39035,-0.28763 22.7807,-0.0575 34.22857,-0.0575 3.68173,0 7.42099,-2.64624 8.34142,-6.32797 5.29248,-21.86026 13.40379,-41.5345 25.1393,-60.63347 2.01345,-3.27904 1.32313,-7.76615 -1.32312,-10.46992 -7.47851,-7.47851 -15.01455,-14.95702 -22.43553,-22.43553 -0.40269,-0.40269 -0.80538,-0.86291 -1.20807,-1.2656 -0.86291,-0.8629 -2.18603,-3.27904 -2.58872,-4.60216 -0.17258,-0.51774 -0.28763,-1.03548 -0.40268,-1.55323 -0.6328,-2.3586 0,0.97796 -0.11506,-0.46021 -0.11505,-1.20807 -0.11505,-2.35861 -0.0575,-3.56668 0.11506,-1.72581 0.0575,-0.40269 0,-0.0575 0.17259,-0.80538 0.34517,-1.55323 0.57527,-2.30109 0.17259,-0.51774 0.34517,-1.03548 0.51775,-1.4957 -0.6328,1.55323 0.40269,-0.69032 0.51774,-0.8629 0.28764,-0.46022 0.57527,-0.92044 0.86291,-1.38065 1.26559,-1.95592 -0.97796,0.80538 0.74785,-0.86291 0.23011,-0.2301 0.40269,-0.46021 0.63279,-0.63279 0.28764,-0.28764 0.51775,-0.51775 0.80538,-0.80538 1.38065,-1.38065 2.7613,-2.7613 4.08442,-4.08442 9.43443,-9.43443 18.92639,-18.92639 28.36082,-28.36082 2.53119,-2.53119 5.00485,-5.1199 7.59356,-7.59356 0.23011,-0.23011 0.51775,-0.46022 0.69033,-0.6328 1.78334,-1.78334 -0.6328,0.34516 0.51774,-0.46022 0.57527,-0.40269 1.15054,-0.74785 1.72581,-1.09301 0.46022,-0.28764 0.97796,-0.51774 1.43818,-0.74785 -1.2656,0.6328 -0.11506,0.0575 0.17258,-0.0575 0.74785,-0.23011 1.55323,-0.40269 2.30108,-0.6328 1.72581,-0.51774 -1.09301,-0.11505 0.8629,-0.17258 1.03549,-0.0575 2.1285,-0.0575 3.16399,0 2.30108,0.0575 -1.38065,-0.51774 0.8629,0.17258 0.51775,0.17259 1.03549,0.23011 1.55323,0.40269 0.51775,0.17258 1.03549,0.34517 1.49571,0.51775 -1.66829,-0.6328 0.69032,0.40269 0.8629,0.51774 0.46022,0.28763 0.92043,0.57527 1.38065,0.86291 1.84086,1.20806 -0.69032,-0.86291 0.86291,0.74785 7.82367,7.93872 15.81992,15.7624 23.70113,23.6436 2.64624,2.64624 7.19087,3.33657 10.46991,1.32312 19.04144,-11.90809 38.71568,-20.0194 60.57595,-25.31189 3.68173,-0.8629 6.32797,-4.60216 6.32797,-8.34141 0,-10.6425 -0.0575,-21.34253 0,-31.98502 0,-0.74785 0,-1.43818 0.0575,-2.18603 0.0575,-2.18603 -0.46022,0.69033 0.0575,-0.40269 0.23011,-0.51774 0.28764,-1.26559 0.46022,-1.84086 0.11505,-0.46022 0.28763,-0.97796 0.46022,-1.43818 -0.57528,1.72581 0.17258,-0.28763 0.34516,-0.69032 0.28763,-0.57527 0.63279,-1.03549 0.97796,-1.61076 0.2301,-0.40269 1.32312,-1.61075 0.17258,-0.34516 0.80538,-0.92043 1.66828,-1.78334 2.58871,-2.58872 -1.26559,1.09302 0.74785,-0.46021 1.2656,-0.80537 0.63279,-0.40269 1.32312,-0.74786 1.95592,-1.03549 -1.38065,0.6328 0.2301,0 0.74785,-0.17258 0.46021,-0.11506 0.97796,-0.23011 1.4957,-0.40269 2.18603,-0.6328 -0.97796,-0.0575 0.40269,-0.11505 0.69032,0 1.32312,-0.0575 2.01344,-0.11506 0.34517,0 0.74786,0 1.09302,0 1.84086,0 3.68173,0 5.52259,0 13.51885,0 26.98017,0 40.49902,0 3.56667,0 7.19088,-0.0575 10.75755,0 0.51774,0 1.09301,0.0575 1.61076,0.0575 2.1285,0.0575 -0.69033,-0.46022 0.40269,0.0575 0.51774,0.2301 1.26559,0.28763 1.84086,0.46021 0.46022,0.11506 0.97796,0.28764 1.43818,0.46022 -1.78334,-0.6328 0.40268,0.23011 0.69032,0.34516 0.46022,0.23011 0.8629,0.46022 1.26559,0.74785 0.23011,0.17258 2.01345,1.61076 0.6328,0.40269 0.92043,0.80538 1.78334,1.66828 2.58872,2.58872 -1.15054,-1.2656 0.69032,1.09301 0.97796,1.61075 0.28763,0.51774 0.57527,1.09302 0.8629,1.66829 -0.69032,-1.49571 -0.11505,-0.28764 -0.0575,0.0575 0.17258,0.6328 0.34517,1.20807 0.51775,1.84087 0.11505,0.34516 0.17258,0.74785 0.23011,1.15054 -0.11506,-1.03549 -0.11506,-1.03549 0,0 0.28763,11.39035 0.0575,22.78069 0.0575,34.22857 0,3.68173 2.64624,7.42098 6.32797,8.34142 21.86027,5.29248 41.53451,13.40379 60.63348,25.1393 3.27904,2.01345 7.76614,1.32312 10.46991,-1.32312 7.47851,-7.47851 14.95703,-15.01455 22.43554,-22.43553 0.40269,-0.40269 0.8629,-0.80538 1.26559,-1.20807 0.86291,-0.86291 3.27904,-2.18603 4.60216,-2.58872 0.51775,-0.17258 1.03549,-0.28763 1.55323,-0.40269 2.35861,-0.63279 -0.97796,0 0.46022,-0.11505 1.20807,-0.11505 2.35861,-0.11505 3.56667,-0.0575 1.72581,0.11506 0.40269,0.0575 0.0575,0 0.80538,0.17258 1.55323,0.34516 2.30108,0.57527 0.51774,0.17258 1.03549,0.34516 1.4957,0.51775 -1.55323,-0.6328 0.69033,0.40268 0.86291,0.51774 0.46022,0.28763 0.92043,0.57527 1.38065,0.8629 1.95592,1.2656 -0.80538,-0.97796 0.8629,0.74786 0.23011,0.2301 0.46022,0.40268 0.6328,0.63279 0.28763,0.28764 0.51774,0.51775 0.80538,0.80538 1.38065,1.38065 2.76129,2.7613 4.08442,4.08442 9.43443,9.43443 18.92638,18.92639 28.36081,28.36082 2.53119,2.53118 5.11991,5.00485 7.59357,7.59356 0.23011,0.23011 0.46022,0.51775 0.6328,0.69033 1.78333,1.78333 -0.34517,-0.6328 0.46021,0.51774 0.40269,0.57527 0.74785,1.15054 1.09302,1.72581 0.28763,0.46022 0.51774,0.97796 0.74785,1.43818 -0.6328,-1.2656 -0.0575,-0.11506 0.0575,0.17258 0.23011,0.74785 0.40269,1.55323 0.6328,2.30108 0.51774,1.72581 0.11506,-1.09302 0.17258,0.8629 0.0575,1.03549 0.0575,2.1285 0,3.16399 -0.0575,2.30108 0.51775,-1.38065 -0.17258,0.8629 -0.17258,0.51775 -0.23011,1.03549 -0.40269,1.55323 -0.17258,0.51775 -0.34516,1.03549 -0.51774,1.4957 0.6328,-1.66828 -0.40269,0.69033 -0.51774,0.86291 -0.28764,0.46022 -0.57527,0.92043 -0.86291,1.38065 -1.20807,1.84086 0.86291,-0.69033 -0.74785,0.8629 -7.93873,7.82368 -15.7624,15.81993 -23.6436,23.70113 -2.64625,2.64625 -3.33657,7.19088 -1.32312,10.46992 11.90809,19.04144 20.0194,38.71568 25.31188,60.57595 0.86291,3.68172 4.60216,6.32797 8.34142,6.32797 10.6425,0 21.34252,-0.0575 31.98502,0 0.74785,0 1.43817,0 2.18603,0.0575 2.18602,0.0575 -0.69033,-0.46021 0.40268,0.0575 0.51775,0.23011 1.2656,0.28764 1.84087,0.46022 0.46021,0.11505 0.97796,0.28763 1.43817,0.46021 -1.72581,-0.57527 0.28764,0.17258 0.69033,0.34517 0.57527,0.28763 1.03548,0.63279 1.61075,0.97795 0.40269,0.23011 1.61076,1.32313 0.34517,0.17259 0.92043,0.80537 1.78333,1.66828 2.58871,2.58871 -1.09301,-1.26559 0.46022,0.74785 0.80538,1.2656 0.40269,0.63279 0.74785,1.32312 1.03549,1.95591 -0.6328,-1.38064 0,0.23011 0.17258,0.74786 0.11505,0.46021 0.23011,0.97795 0.40269,1.4957 0.63279,2.18602 0.0575,-0.97796 0.11505,0.40269 0,0.69032 0.0575,1.32312 0.11505,2.01344 0,0.34516 0,0.74785 0,1.09302 0,1.84086 0,3.68172 0,5.52259 0,13.51885 0,26.98017 0,40.49902 0,3.56667 0.0575,7.19087 0,10.75755 0,0.51774 -0.0575,1.09301 -0.0575,1.61075 -0.0575,2.1285 0.46021,-0.69032 -0.0575,0.40269 -0.23011,0.51775 -0.28763,1.2656 -0.46022,1.84087 -0.11505,0.46021 -0.28763,0.97796 -0.46021,1.43817 0.6328,-1.78333 -0.23011,0.40269 -0.34516,0.69033 -0.23011,0.46021 -0.46022,0.8629 -0.74785,1.26559 -0.17259,0.23011 -1.61076,2.01345 -0.40269,0.6328 -0.80538,0.92043 -1.66829,1.78334 -2.58872,2.58871 1.26559,-1.15054 -1.09301,0.69033 -1.61076,0.97796 -0.51774,0.28764 -1.09301,0.57527 -1.66828,0.86291 1.4957,-0.69033 0.28764,-0.11506 -0.0575,-0.0575 -0.63279,0.17258 -1.20806,0.34516 -1.84086,0.51775 -0.34516,0.11505 -0.74785,0.17258 -1.15054,0.2301 1.03549,-0.11505 1.03549,-0.11505 0,0 -11.39035,0.28764 -22.7807,0.0575 -34.22857,0.0575 -4.48711,0 -8.85916,3.96936 -8.62906,8.62905 0.23011,4.65969 3.79679,8.62905 8.62906,8.62905 10.81507,0 21.68768,0.17259 32.50276,0 12.771,-0.17258 23.81618,-7.8812 28.47587,-19.73176 2.01345,-5.17743 1.95592,-10.58497 1.95592,-16.05004 0,-14.2667 0,-28.47587 0,-42.74257 0,-3.73926 0.23011,-7.53604 -0.0575,-11.27529 -0.92043,-13.05864 -9.95217,-24.73662 -22.89575,-27.78555 -6.84571,-1.61076 -14.38175,-0.92043 -21.34252,-0.92043 -6.21292,0 -12.36831,0 -18.58123,0 2.7613,2.1285 5.5226,4.19947 8.34142,6.32797 -5.52259,-22.7807 -14.61186,-44.75602 -26.86512,-64.77542 -0.46021,3.50915 -0.92043,6.96077 -1.32312,10.46992 7.6511,-7.6511 15.41724,-15.18714 22.95328,-22.95328 8.97422,-9.26185 11.39035,-22.66565 6.09787,-34.40116 -2.30109,-5.1199 -6.27045,-8.80163 -10.12476,-12.71347 -9.95217,-9.95217 -19.84682,-19.84682 -29.79899,-29.79899 -2.53119,-2.53119 -5.00485,-5.17743 -7.6511,-7.59357 -9.95217,-9.20432 -25.7721,-11.16024 -37.21997,-3.39409 -5.7527,3.85431 -10.46992,9.49196 -15.30219,14.32423 -4.257,4.257 -8.514,8.51399 -12.771,12.77099 3.50915,-0.46021 6.96077,-0.92043 10.46992,-1.32312 -20.0194,-12.25325 -41.99472,-21.34252 -64.77542,-26.86511 2.1285,2.76129 4.19947,5.52259 6.32797,8.34141 0,-10.81507 0.17259,-21.68768 0,-32.50276 -0.17258,-12.771 -7.8812,-23.81618 -19.73176,-28.47587 -5.17743,-2.01345 -10.58497,-1.95592 -16.05004,-1.95592 -14.2667,0 -28.47587,0 -42.74257,0 -3.73926,0 -7.53604,-0.23011 -11.27529,0.0575 -13.05864,0.92043 -24.73662,9.95217 -27.78555,22.89575 -1.61076,6.84571 -0.92043,14.38175 -0.92043,21.34252 0,6.21292 0,12.36831 0,18.58123 2.1285,-2.7613 4.19947,-5.5226 6.32797,-8.34142 -22.7807,5.52259 -44.75602,14.61186 -64.77542,26.86512 3.50915,0.46021 6.96077,0.92043 10.46992,1.32312 -7.6511,-7.6511 -15.18714,-15.41724 -22.95328,-22.95328 -9.26185,-8.97422 -22.66565,-11.39035 -34.40116,-6.09787 -5.1199,2.30109 -8.80163,6.27045 -12.71347,10.12476 -9.95217,9.95217 -19.84682,19.84682 -29.79899,29.79899 -2.53119,2.53119 -5.17743,5.00485 -7.59357,7.6511 -9.20432,9.95217 -11.16024,25.7721 -3.39409,37.21997 3.85431,5.7527 9.49196,10.46992 14.32423,15.30219 4.257,4.257 8.51399,8.514 12.77099,12.771 -0.46021,-3.50915 -0.92043,-6.96077 -1.32312,-10.46992 -12.25325,20.0194 -21.34252,41.99472 -26.86511,64.77542 2.76129,-2.1285 5.52259,-4.19947 8.34141,-6.32797 -10.81507,0 -21.68768,-0.17259 -32.50276,0 -12.771,0.17258 -23.81618,7.8812 -28.47587,19.73176 -2.01345,5.17743 -1.95592,10.58497 -1.95592,16.05004 0,14.2667 0,28.47587 0,42.74257 0,3.73926 -0.23011,7.53604 0.0575,11.27529 0.92043,13.05864 9.95217,24.73662 22.89575,27.78555 6.84571,1.61076 14.38175,0.92043 21.34252,0.92043 6.21292,0 12.36831,0 18.58123,0 -2.7613,-2.1285 -5.5226,-4.19947 -8.34142,-6.32797 5.52259,22.7807 14.61186,44.75602 26.86512,64.77542 0.46021,-3.50915 0.92043,-6.96077 1.32312,-10.46992 -7.6511,7.6511 -15.41724,15.18714 -22.95328,22.95328 -8.97422,9.26185 -11.39035,22.66565 -6.09787,34.40116 2.30109,5.1199 6.27045,8.80163 10.12476,12.71347 9.95217,9.95217 19.84682,19.84682 29.79899,29.79899 2.53119,2.53119 5.00485,5.17743 7.6511,7.59357 9.95217,9.20432 25.7721,11.16024 37.21997,3.39409 5.7527,-3.85431 10.46992,-9.49196 15.30219,-14.32423 4.257,-4.257 8.514,-8.51399 12.771,-12.77099 -3.50915,0.46021 -6.96077,0.92043 -10.46992,1.32312 20.0194,12.25325 41.99472,21.34252 64.77542,26.86511 -2.1285,-2.76129 -4.19947,-5.52259 -6.32797,-8.34141 0,10.81507 -0.17259,21.68768 0,32.50276 0.17258,12.771 7.8812,23.81618 19.73176,28.47587 5.17743,2.01345 10.58497,1.95592 16.05004,1.95592 14.2667,0 28.47587,0 42.74257,0 3.73926,0 7.53604,0.23011 11.27529,-0.0575 13.05864,-0.92043 24.73662,-9.95217 27.78555,-22.89575 1.61076,-6.84571 0.92043,-14.38175 0.92043,-21.34252 0,-6.21292 0,-12.36831 0,-18.58123 -2.1285,2.7613 -4.19947,5.5226 -6.32797,8.34142 22.7807,-5.52259 44.75602,-14.61186 64.77542,-26.86512 -3.50915,-0.46021 -6.96077,-0.92043 -10.46992,-1.32312 7.6511,7.6511 15.18714,15.41724 22.95328,22.95328 9.26185,8.97422 22.66565,11.39035 34.40116,6.09787 5.1199,-2.30109 8.80163,-6.27045 12.71347,-10.12476 9.95217,-9.95217 19.84682,-19.84682 29.79899,-29.79899 2.53119,-2.53119 5.17743,-5.00485 7.59357,-7.6511 9.20432,-9.95217 11.16024,-25.7721 3.39409,-37.21997 -3.85431,-5.7527 -9.49196,-10.46992 -14.32423,-15.30219 -4.257,-4.257 -8.51399,-8.514 -12.77099,-12.771 0.46021,3.50915 0.92043,6.96077 1.32312,10.46992 12.25325,-20.0194 21.34252,-41.99472 26.86511,-64.77542 1.03549,-4.37205 -1.38065,-9.54948 -6.04033,-10.64249 -4.54464,-0.92044 -9.54949,1.43817 -10.70003,6.09786 z"
       id="path7215"
       style="stroke-width:0.57527" />
  </g>
</svg>
