<?xml version="1.0" encoding="UTF-8"?>
<svg xmlns="http://www.w3.org/2000/svg" version="1.1" width="200" height="200" viewBox="0 0 200 200"><rect x="0" y="0" width="200" height="200" fill="#ffffff"/><g transform="scale(3.774)"><g transform="translate(2,2)"><path fill-rule="evenodd" d="M8 0L8 2L9 2L9 3L8 3L8 7L9 7L9 8L10 8L10 9L11 9L11 8L12 8L12 9L13 9L13 8L12 8L12 7L13 7L13 5L14 5L14 7L15 7L15 8L14 8L14 10L13 10L13 12L14 12L14 13L15 13L15 14L16 14L16 16L14 16L14 14L13 14L13 13L12 13L12 11L11 11L11 13L9 13L9 12L8 12L8 11L10 11L10 10L8 10L8 11L7 11L7 10L6 10L6 9L7 9L7 8L6 8L6 9L5 9L5 10L6 10L6 11L7 11L7 12L6 12L6 13L7 13L7 12L8 12L8 14L5 14L5 12L3 12L3 14L2 14L2 11L1 11L1 9L0 9L0 11L1 11L1 12L0 12L0 13L1 13L1 14L0 14L0 16L1 16L1 17L0 17L0 18L1 18L1 19L0 19L0 20L1 20L1 21L0 21L0 25L1 25L1 26L0 26L0 29L1 29L1 30L2 30L2 29L1 29L1 27L2 27L2 28L3 28L3 30L5 30L5 31L7 31L7 32L6 32L6 33L7 33L7 32L8 32L8 31L9 31L9 29L8 29L8 28L10 28L10 31L11 31L11 33L10 33L10 32L9 32L9 33L8 33L8 34L3 34L3 33L2 33L2 37L1 37L1 35L0 35L0 37L1 37L1 40L0 40L0 41L3 41L3 40L4 40L4 39L2 39L2 37L3 37L3 35L4 35L4 36L5 36L5 39L7 39L7 38L6 38L6 37L7 37L7 36L8 36L8 37L10 37L10 36L11 36L11 35L12 35L12 36L13 36L13 35L12 35L12 33L13 33L13 34L14 34L14 35L15 35L15 36L14 36L14 40L13 40L13 39L12 39L12 38L13 38L13 37L11 37L11 38L9 38L9 39L11 39L11 40L6 40L6 41L8 41L8 42L9 42L9 43L10 43L10 44L9 44L9 45L8 45L8 46L9 46L9 45L10 45L10 44L11 44L11 46L10 46L10 49L11 49L11 47L12 47L12 45L13 45L13 47L15 47L15 48L16 48L16 49L19 49L19 47L21 47L21 46L22 46L22 48L21 48L21 49L24 49L24 46L23 46L23 45L26 45L26 46L27 46L27 47L29 47L29 48L27 48L27 49L31 49L31 47L33 47L33 48L32 48L32 49L33 49L33 48L34 48L34 47L35 47L35 48L36 48L36 49L40 49L40 48L41 48L41 49L42 49L42 48L41 48L41 46L42 46L42 47L43 47L43 48L44 48L44 49L46 49L46 47L49 47L49 46L48 46L48 45L49 45L49 44L48 44L48 43L49 43L49 36L48 36L48 38L47 38L47 37L46 37L46 35L47 35L47 34L46 34L46 35L44 35L44 33L46 33L46 32L47 32L47 33L48 33L48 35L49 35L49 33L48 33L48 32L47 32L47 31L45 31L45 32L44 32L44 31L43 31L43 29L44 29L44 30L46 30L46 29L47 29L47 30L48 30L48 31L49 31L49 28L48 28L48 27L49 27L49 25L47 25L47 26L46 26L46 23L45 23L45 21L46 21L46 20L47 20L47 21L48 21L48 24L49 24L49 20L47 20L47 19L43 19L43 18L42 18L42 19L41 19L41 18L40 18L40 16L41 16L41 17L42 17L42 16L41 16L41 14L42 14L42 13L43 13L43 14L44 14L44 16L43 16L43 17L44 17L44 18L46 18L46 17L47 17L47 18L48 18L48 19L49 19L49 16L48 16L48 15L49 15L49 8L47 8L47 9L48 9L48 14L47 14L47 16L45 16L45 14L44 14L44 13L46 13L46 8L43 8L43 11L44 11L44 9L45 9L45 12L44 12L44 13L43 13L43 12L42 12L42 13L40 13L40 12L39 12L39 11L42 11L42 9L41 9L41 10L40 10L40 8L41 8L41 6L40 6L40 7L39 7L39 5L38 5L38 7L39 7L39 8L38 8L38 9L37 9L37 8L35 8L35 6L36 6L36 7L37 7L37 6L36 6L36 5L34 5L34 7L33 7L33 6L32 6L32 7L31 7L31 5L33 5L33 4L34 4L34 3L35 3L35 4L36 4L36 3L35 3L35 2L36 2L36 1L35 1L35 0L34 0L34 1L35 1L35 2L34 2L34 3L33 3L33 4L32 4L32 2L33 2L33 1L32 1L32 2L31 2L31 1L30 1L30 0L28 0L28 2L27 2L27 3L24 3L24 2L26 2L26 0L22 0L22 3L23 3L23 4L21 4L21 6L20 6L20 5L19 5L19 6L18 6L18 7L17 7L17 6L16 6L16 7L15 7L15 5L14 5L14 3L15 3L15 4L16 4L16 5L18 5L18 4L20 4L20 0L19 0L19 2L18 2L18 1L17 1L17 2L18 2L18 4L17 4L17 3L16 3L16 2L13 2L13 0ZM14 0L14 1L15 1L15 0ZM37 0L37 1L38 1L38 2L39 2L39 4L40 4L40 3L41 3L41 0L40 0L40 1L38 1L38 0ZM10 1L10 3L9 3L9 7L10 7L10 6L11 6L11 7L12 7L12 5L13 5L13 4L12 4L12 3L13 3L13 2L11 2L11 1ZM29 1L29 2L30 2L30 3L31 3L31 2L30 2L30 1ZM28 3L28 4L27 4L27 5L28 5L28 6L27 6L27 9L24 9L24 10L22 10L22 9L21 9L21 8L22 8L22 6L21 6L21 7L20 7L20 6L19 6L19 7L20 7L20 8L19 8L19 9L21 9L21 10L20 10L20 11L19 11L19 10L18 10L18 11L17 11L17 10L16 10L16 12L17 12L17 15L19 15L19 13L20 13L20 11L24 11L24 10L25 10L25 11L28 11L28 13L29 13L29 14L32 14L32 13L31 13L31 12L33 12L33 13L36 13L36 10L37 10L37 14L39 14L39 15L40 15L40 14L39 14L39 13L38 13L38 11L39 11L39 9L38 9L38 10L37 10L37 9L34 9L34 8L33 8L33 7L32 7L32 8L30 8L30 10L31 10L31 12L30 12L30 11L28 11L28 10L29 10L29 9L28 9L28 8L29 8L29 7L30 7L30 4L29 4L29 3ZM37 3L37 4L38 4L38 3ZM28 4L28 5L29 5L29 4ZM23 5L23 8L26 8L26 5ZM24 6L24 7L25 7L25 6ZM28 6L28 7L29 7L29 6ZM3 8L3 9L2 9L2 10L3 10L3 11L4 11L4 8ZM15 8L15 9L17 9L17 8ZM32 8L32 9L31 9L31 10L32 10L32 11L34 11L34 12L35 12L35 10L34 10L34 9L33 9L33 8ZM32 9L32 10L33 10L33 9ZM14 11L14 12L15 12L15 11ZM21 12L21 13L22 13L22 14L20 14L20 16L17 16L17 19L16 19L16 21L21 21L21 22L20 22L20 23L21 23L21 25L20 25L20 24L19 24L19 22L18 22L18 23L17 23L17 22L16 22L16 23L17 23L17 24L16 24L16 25L17 25L17 26L16 26L16 27L15 27L15 26L14 26L14 27L13 27L13 26L12 26L12 25L13 25L13 24L15 24L15 23L14 23L14 22L15 22L15 17L13 17L13 18L14 18L14 19L12 19L12 17L8 17L8 19L6 19L6 18L7 18L7 17L6 17L6 16L8 16L8 15L6 15L6 16L5 16L5 14L4 14L4 17L5 17L5 18L2 18L2 19L1 19L1 20L2 20L2 21L1 21L1 22L3 22L3 21L4 21L4 22L5 22L5 21L6 21L6 22L9 22L9 21L10 21L10 20L9 20L9 18L11 18L11 19L12 19L12 22L11 22L11 24L12 24L12 25L11 25L11 26L10 26L10 24L9 24L9 27L10 27L10 28L11 28L11 29L12 29L12 28L14 28L14 29L13 29L13 30L11 30L11 31L12 31L12 32L13 32L13 30L14 30L14 33L16 33L16 36L15 36L15 37L17 37L17 39L19 39L19 40L14 40L14 41L19 41L19 42L18 42L18 43L17 43L17 42L16 42L16 44L15 44L15 42L13 42L13 43L12 43L12 41L13 41L13 40L12 40L12 41L9 41L9 42L11 42L11 44L13 44L13 43L14 43L14 46L15 46L15 47L16 47L16 44L17 44L17 45L18 45L18 46L19 46L19 45L18 45L18 44L20 44L20 43L22 43L22 42L20 42L20 41L21 41L21 39L22 39L22 40L24 40L24 39L25 39L25 40L28 40L28 41L27 41L27 42L28 42L28 44L27 44L27 45L28 45L28 46L31 46L31 45L34 45L34 46L35 46L35 47L36 47L36 46L37 46L37 47L38 47L38 48L39 48L39 45L40 45L40 46L41 46L41 45L40 45L40 44L38 44L38 43L37 43L37 44L38 44L38 46L37 46L37 45L36 45L36 46L35 46L35 45L34 45L34 44L31 44L31 43L32 43L32 42L31 42L31 41L29 41L29 40L28 40L28 39L29 39L29 38L24 38L24 37L23 37L23 38L24 38L24 39L22 39L22 37L21 37L21 36L24 36L24 35L23 35L23 34L25 34L25 33L26 33L26 32L27 32L27 34L26 34L26 35L27 35L27 34L28 34L28 36L29 36L29 37L30 37L30 38L31 38L31 39L30 39L30 40L32 40L32 39L33 39L33 37L32 37L32 36L34 36L34 37L35 37L35 38L34 38L34 42L35 42L35 44L36 44L36 39L37 39L37 38L40 38L40 39L38 39L38 40L37 40L37 41L38 41L38 40L39 40L39 41L40 41L40 40L42 40L42 39L41 39L41 37L42 37L42 38L43 38L43 39L44 39L44 40L47 40L47 41L46 41L46 42L45 42L45 43L46 43L46 42L47 42L47 43L48 43L48 42L47 42L47 41L48 41L48 40L47 40L47 38L46 38L46 39L45 39L45 36L44 36L44 35L43 35L43 36L44 36L44 37L42 37L42 36L41 36L41 35L42 35L42 34L41 34L41 33L40 33L40 31L42 31L42 29L40 29L40 28L42 28L42 27L38 27L38 29L40 29L40 31L39 31L39 30L38 30L38 31L36 31L36 30L37 30L37 29L36 29L36 26L39 26L39 25L40 25L40 24L39 24L39 25L36 25L36 24L35 24L35 23L39 23L39 19L38 19L38 18L39 18L39 16L38 16L38 15L37 15L37 16L38 16L38 17L37 17L37 21L36 21L36 22L35 22L35 20L36 20L36 14L34 14L34 15L32 15L32 16L31 16L31 15L30 15L30 16L31 16L31 17L32 17L32 18L33 18L33 19L32 19L32 20L33 20L33 21L34 21L34 22L35 22L35 23L34 23L34 24L33 24L33 25L32 25L32 21L31 21L31 23L30 23L30 20L31 20L31 18L30 18L30 17L29 17L29 15L28 15L28 16L27 16L27 17L25 17L25 16L26 16L26 15L27 15L27 13L25 13L25 12L24 12L24 14L23 14L23 12ZM29 12L29 13L30 13L30 12ZM1 14L1 15L2 15L2 17L3 17L3 15L2 15L2 14ZM9 14L9 15L10 15L10 16L13 16L13 14L12 14L12 15L10 15L10 14ZM24 14L24 15L26 15L26 14ZM21 15L21 16L20 16L20 17L18 17L18 19L17 19L17 20L18 20L18 19L20 19L20 17L24 17L24 16L22 16L22 15ZM34 15L34 20L35 20L35 15ZM47 16L47 17L48 17L48 16ZM27 17L27 19L29 19L29 20L30 20L30 19L29 19L29 17ZM23 18L23 19L21 19L21 20L23 20L23 22L21 22L21 23L22 23L22 25L21 25L21 26L20 26L20 27L26 27L26 28L27 28L27 29L30 29L30 28L29 28L29 26L27 26L27 25L29 25L29 22L28 22L28 20L24 20L24 19L26 19L26 18ZM3 19L3 20L4 20L4 21L5 21L5 20L6 20L6 21L7 21L7 20L6 20L6 19ZM42 19L42 22L43 22L43 21L45 21L45 20L43 20L43 19ZM40 20L40 22L41 22L41 20ZM24 21L24 22L25 22L25 21ZM37 21L37 22L38 22L38 21ZM12 22L12 24L13 24L13 22ZM2 23L2 24L1 24L1 25L2 25L2 24L3 24L3 28L4 28L4 29L6 29L6 30L7 30L7 31L8 31L8 30L7 30L7 29L6 29L6 28L7 28L7 27L6 27L6 28L5 28L5 27L4 27L4 24L3 24L3 23ZM5 23L5 26L8 26L8 23ZM23 23L23 26L26 26L26 23ZM41 23L41 26L44 26L44 23ZM6 24L6 25L7 25L7 24ZM17 24L17 25L18 25L18 26L19 26L19 25L18 25L18 24ZM24 24L24 25L25 25L25 24ZM30 24L30 27L31 27L31 26L32 26L32 25L31 25L31 24ZM34 24L34 25L33 25L33 27L32 27L32 28L31 28L31 29L32 29L32 30L33 30L33 32L31 32L31 30L27 30L27 32L28 32L28 31L30 31L30 34L33 34L33 35L35 35L35 36L36 36L36 37L38 37L38 36L39 36L39 35L38 35L38 36L37 36L37 35L36 35L36 34L38 34L38 33L35 33L35 32L36 32L36 31L35 31L35 32L34 32L34 28L35 28L35 27L34 27L34 26L36 26L36 25L35 25L35 24ZM42 24L42 25L43 25L43 24ZM45 26L45 27L44 27L44 29L45 29L45 27L46 27L46 28L47 28L47 27L46 27L46 26ZM14 27L14 28L15 28L15 29L14 29L14 30L15 30L15 32L16 32L16 31L17 31L17 30L18 30L18 32L17 32L17 36L18 36L18 37L19 37L19 36L21 36L21 35L18 35L18 34L19 34L19 33L18 33L18 32L20 32L20 34L22 34L22 32L25 32L25 31L26 31L26 30L25 30L25 29L24 29L24 28L23 28L23 30L22 30L22 28L18 28L18 29L17 29L17 30L15 30L15 29L16 29L16 28L17 28L17 27L16 27L16 28L15 28L15 27ZM27 27L27 28L28 28L28 27ZM18 29L18 30L20 30L20 32L22 32L22 31L21 31L21 30L20 30L20 29ZM35 29L35 30L36 30L36 29ZM23 30L23 31L25 31L25 30ZM0 31L0 32L3 32L3 31ZM4 32L4 33L5 33L5 32ZM33 32L33 33L34 33L34 34L35 34L35 33L34 33L34 32ZM0 33L0 34L1 34L1 33ZM9 33L9 34L10 34L10 33ZM39 33L39 34L40 34L40 35L41 35L41 34L40 34L40 33ZM5 35L5 36L7 36L7 35ZM8 35L8 36L10 36L10 35ZM29 35L29 36L30 36L30 35ZM25 36L25 37L26 37L26 36ZM40 36L40 37L41 37L41 36ZM31 37L31 38L32 38L32 37ZM20 38L20 39L21 39L21 38ZM35 38L35 39L36 39L36 38ZM19 40L19 41L20 41L20 40ZM23 41L23 44L26 44L26 41ZM41 41L41 44L44 44L44 41ZM19 42L19 43L20 43L20 42ZM24 42L24 43L25 43L25 42ZM29 42L29 45L31 45L31 44L30 44L30 42ZM39 42L39 43L40 43L40 42ZM42 42L42 43L43 43L43 42ZM46 44L46 45L45 45L45 46L47 46L47 44ZM20 45L20 46L21 46L21 45ZM42 45L42 46L44 46L44 45ZM17 47L17 48L18 48L18 47ZM13 48L13 49L14 49L14 48ZM25 48L25 49L26 49L26 48ZM47 48L47 49L49 49L49 48ZM0 0L0 7L7 7L7 0ZM1 1L1 6L6 6L6 1ZM2 2L2 5L5 5L5 2ZM42 0L42 7L49 7L49 0ZM43 1L43 6L48 6L48 1ZM44 2L44 5L47 5L47 2ZM0 42L0 49L7 49L7 42ZM1 43L1 48L6 48L6 43ZM2 44L2 47L5 47L5 44Z" fill="#000000"/></g></g></svg>
