<?xml version="1.0" encoding="UTF-8"?>
<svg xmlns="http://www.w3.org/2000/svg" version="1.1" width="200" height="200" viewBox="0 0 200 200"><rect x="0" y="0" width="200" height="200" fill="#ffffff"/><g transform="scale(3.774)"><g transform="translate(2,2)"><path fill-rule="evenodd" d="M8 0L8 1L9 1L9 0ZM10 0L10 3L9 3L9 2L8 2L8 3L9 3L9 4L8 4L8 5L9 5L9 6L8 6L8 8L9 8L9 9L7 9L7 8L5 8L5 9L2 9L2 10L1 10L1 9L0 9L0 10L1 10L1 11L0 11L0 12L1 12L1 13L0 13L0 15L1 15L1 13L2 13L2 11L4 11L4 12L6 12L6 13L5 13L5 14L6 14L6 15L7 15L7 16L4 16L4 17L5 17L5 18L3 18L3 19L7 19L7 18L6 18L6 17L8 17L8 18L9 18L9 20L10 20L10 21L7 21L7 20L5 20L5 21L3 21L3 20L1 20L1 19L2 19L2 18L0 18L0 23L1 23L1 21L2 21L2 22L3 22L3 23L2 23L2 24L0 24L0 27L1 27L1 28L0 28L0 32L2 32L2 34L1 34L1 37L0 37L0 38L1 38L1 40L0 40L0 41L3 41L3 40L4 40L4 39L2 39L2 37L3 37L3 38L5 38L5 39L7 39L7 40L6 40L6 41L7 41L7 40L10 40L10 41L8 41L8 42L9 42L9 43L8 43L8 44L9 44L9 45L10 45L10 46L9 46L9 49L12 49L12 48L15 48L15 49L17 49L17 47L19 47L19 48L18 48L18 49L20 49L20 48L22 48L22 49L23 49L23 48L25 48L25 49L26 49L26 48L27 48L27 49L28 49L28 47L31 47L31 48L29 48L29 49L34 49L34 48L33 48L33 47L31 47L31 44L33 44L33 45L34 45L34 47L35 47L35 49L37 49L37 48L36 48L36 47L39 47L39 45L40 45L40 48L41 48L41 45L42 45L42 48L43 48L43 49L45 49L45 48L43 48L43 46L44 46L44 45L45 45L45 47L48 47L48 49L49 49L49 42L48 42L48 41L49 41L49 40L48 40L48 41L47 41L47 38L48 38L48 39L49 39L49 38L48 38L48 37L49 37L49 34L48 34L48 33L47 33L47 32L49 32L49 30L48 30L48 29L47 29L47 28L49 28L49 26L48 26L48 27L46 27L46 26L47 26L47 25L48 25L48 24L47 24L47 25L46 25L46 26L45 26L45 23L46 23L46 22L48 22L48 23L49 23L49 22L48 22L48 21L49 21L49 18L48 18L48 17L49 17L49 14L48 14L48 13L49 13L49 12L47 12L47 13L45 13L45 8L44 8L44 11L42 11L42 10L43 10L43 8L42 8L42 10L41 10L41 8L40 8L40 10L41 10L41 11L40 11L40 12L41 12L41 13L42 13L42 14L41 14L41 17L42 17L42 18L40 18L40 19L42 19L42 20L45 20L45 19L46 19L46 18L45 18L45 17L44 17L44 19L43 19L43 17L42 17L42 16L44 16L44 15L45 15L45 16L46 16L46 17L47 17L47 20L46 20L46 21L45 21L45 22L43 22L43 21L42 21L42 22L41 22L41 20L40 20L40 24L39 24L39 21L38 21L38 22L37 22L37 20L36 20L36 19L39 19L39 16L38 16L38 15L40 15L40 14L36 14L36 13L39 13L39 12L38 12L38 11L39 11L39 8L38 8L38 10L37 10L37 6L38 6L38 7L39 7L39 5L38 5L38 4L37 4L37 3L36 3L36 2L37 2L37 1L36 1L36 0L33 0L33 1L32 1L32 0L30 0L30 2L31 2L31 3L32 3L32 5L31 5L31 4L30 4L30 5L31 5L31 6L30 6L30 7L31 7L31 8L32 8L32 10L31 10L31 12L32 12L32 14L31 14L31 13L29 13L29 14L30 14L30 16L28 16L28 17L25 17L25 16L26 16L26 14L25 14L25 13L26 13L26 12L27 12L27 11L30 11L30 10L29 10L29 9L28 9L28 8L29 8L29 5L28 5L28 7L27 7L27 4L28 4L28 3L27 3L27 4L22 4L22 3L23 3L23 1L22 1L22 0L21 0L21 1L22 1L22 2L21 2L21 4L20 4L20 1L18 1L18 0L17 0L17 1L16 1L16 0L12 0L12 1L15 1L15 2L13 2L13 3L14 3L14 5L18 5L18 3L19 3L19 6L18 6L18 7L17 7L17 6L16 6L16 7L15 7L15 6L14 6L14 7L13 7L13 5L12 5L12 2L11 2L11 0ZM24 0L24 2L29 2L29 0L26 0L26 1L25 1L25 0ZM40 0L40 1L38 1L38 2L39 2L39 4L40 4L40 3L41 3L41 0ZM17 1L17 2L18 2L18 1ZM31 1L31 2L32 2L32 3L33 3L33 4L34 4L34 5L37 5L37 4L36 4L36 3L35 3L35 2L36 2L36 1L35 1L35 2L34 2L34 3L33 3L33 2L32 2L32 1ZM15 2L15 3L16 3L16 2ZM34 3L34 4L35 4L35 3ZM10 4L10 6L9 6L9 7L10 7L10 9L9 9L9 10L8 10L8 11L6 11L6 10L7 10L7 9L5 9L5 10L4 10L4 11L6 11L6 12L8 12L8 11L9 11L9 10L11 10L11 11L13 11L13 10L11 10L11 7L12 7L12 5L11 5L11 4ZM21 4L21 7L20 7L20 6L19 6L19 7L20 7L20 8L18 8L18 9L19 9L19 10L17 10L17 9L14 9L14 8L15 8L15 7L14 7L14 8L13 8L13 9L14 9L14 10L15 10L15 11L14 11L14 12L13 12L13 13L11 13L11 12L9 12L9 13L11 13L11 14L10 14L10 15L8 15L8 17L10 17L10 20L11 20L11 21L10 21L10 22L9 22L9 24L10 24L10 22L11 22L11 25L10 25L10 26L11 26L11 25L12 25L12 27L13 27L13 25L14 25L14 24L13 24L13 23L12 23L12 21L13 21L13 22L14 22L14 23L15 23L15 26L14 26L14 28L11 28L11 29L12 29L12 30L10 30L10 31L9 31L9 29L8 29L8 28L10 28L10 27L5 27L5 28L4 28L4 29L3 29L3 27L2 27L2 29L1 29L1 31L4 31L4 33L5 33L5 31L6 31L6 32L7 32L7 31L6 31L6 30L8 30L8 31L9 31L9 32L8 32L8 33L9 33L9 35L11 35L11 36L10 36L10 38L9 38L9 37L6 37L6 36L8 36L8 34L7 34L7 33L6 33L6 34L7 34L7 35L5 35L5 36L4 36L4 35L3 35L3 34L2 34L2 36L4 36L4 37L5 37L5 38L7 38L7 39L11 39L11 40L12 40L12 39L14 39L14 40L13 40L13 42L16 42L16 41L18 41L18 42L17 42L17 43L15 43L15 44L16 44L16 46L19 46L19 47L21 47L21 46L23 46L23 45L21 45L21 46L20 46L20 45L19 45L19 44L20 44L20 43L21 43L21 44L22 44L22 41L21 41L21 40L22 40L22 39L24 39L24 40L25 40L25 39L27 39L27 40L28 40L28 41L27 41L27 44L28 44L28 43L30 43L30 44L31 44L31 42L33 42L33 44L34 44L34 45L35 45L35 47L36 47L36 44L38 44L38 45L37 45L37 46L38 46L38 45L39 45L39 44L40 44L40 43L39 43L39 44L38 44L38 42L40 42L40 41L39 41L39 40L38 40L38 39L36 39L36 40L34 40L34 38L39 38L39 39L40 39L40 38L39 38L39 35L38 35L38 37L34 37L34 33L35 33L35 34L36 34L36 36L37 36L37 34L38 34L38 33L39 33L39 34L40 34L40 33L41 33L41 35L40 35L40 36L41 36L41 35L42 35L42 36L43 36L43 39L42 39L42 37L41 37L41 39L42 39L42 40L44 40L44 39L46 39L46 38L47 38L47 36L48 36L48 34L47 34L47 35L44 35L44 33L42 33L42 32L43 32L43 31L41 31L41 29L38 29L38 27L37 27L37 26L39 26L39 27L40 27L40 25L38 25L38 23L37 23L37 22L36 22L36 20L35 20L35 19L34 19L34 20L35 20L35 23L34 23L34 21L32 21L32 24L35 24L35 23L36 23L36 24L37 24L37 26L35 26L35 25L32 25L32 26L31 26L31 27L32 27L32 28L30 28L30 29L29 29L29 27L28 27L28 26L29 26L29 24L31 24L31 23L28 23L28 20L27 20L27 18L25 18L25 17L24 17L24 18L25 18L25 20L27 20L27 21L25 21L25 22L27 22L27 24L28 24L28 26L27 26L27 27L26 27L26 31L25 31L25 28L24 28L24 29L22 29L22 28L21 28L21 29L19 29L19 30L17 30L17 29L18 29L18 28L17 28L17 27L16 27L16 26L17 26L17 25L18 25L18 27L20 27L20 26L21 26L21 27L22 27L22 25L19 25L19 24L21 24L21 23L22 23L22 22L21 22L21 20L23 20L23 22L24 22L24 19L23 19L23 15L22 15L22 13L23 13L23 14L24 14L24 13L25 13L25 12L26 12L26 11L24 11L24 9L22 9L22 8L21 8L21 7L22 7L22 4ZM23 5L23 8L26 8L26 5ZM10 6L10 7L11 7L11 6ZM24 6L24 7L25 7L25 6ZM31 6L31 7L32 7L32 8L34 8L34 9L33 9L33 10L32 10L32 11L34 11L34 9L36 9L36 8L35 8L35 7L36 7L36 6L35 6L35 7L34 7L34 6L33 6L33 7L32 7L32 6ZM40 6L40 7L41 7L41 6ZM16 7L16 8L17 8L17 7ZM46 8L46 10L48 10L48 11L49 11L49 10L48 10L48 9L49 9L49 8L48 8L48 9L47 9L47 8ZM21 9L21 10L20 10L20 11L19 11L19 13L18 13L18 12L14 12L14 14L12 14L12 16L11 16L11 15L10 15L10 17L13 17L13 18L15 18L15 20L16 20L16 21L17 21L17 23L16 23L16 24L17 24L17 23L18 23L18 24L19 24L19 23L18 23L18 21L17 21L17 20L16 20L16 18L17 18L17 19L18 19L18 20L20 20L20 19L22 19L22 17L21 17L21 16L22 16L22 15L21 15L21 13L22 13L22 12L24 12L24 11L22 11L22 9ZM35 10L35 12L34 12L34 13L33 13L33 15L31 15L31 17L29 17L29 18L28 18L28 19L29 19L29 20L30 20L30 19L31 19L31 17L32 17L32 16L33 16L33 15L34 15L34 16L35 16L35 18L37 18L37 17L38 17L38 16L37 16L37 15L36 15L36 16L35 16L35 15L34 15L34 14L35 14L35 12L37 12L37 11L36 11L36 10ZM20 11L20 13L19 13L19 14L18 14L18 15L17 15L17 18L19 18L19 17L20 17L20 18L21 18L21 17L20 17L20 16L21 16L21 15L20 15L20 13L21 13L21 12L22 12L22 11ZM41 11L41 12L42 12L42 11ZM6 13L6 14L8 14L8 13ZM15 13L15 14L14 14L14 15L13 15L13 17L15 17L15 16L14 16L14 15L16 15L16 14L17 14L17 13ZM44 13L44 14L42 14L42 15L44 15L44 14L45 14L45 13ZM2 14L2 17L3 17L3 14ZM47 14L47 17L48 17L48 14ZM19 15L19 16L20 16L20 15ZM36 16L36 17L37 17L37 16ZM29 18L29 19L30 19L30 18ZM32 19L32 20L33 20L33 19ZM13 20L13 21L14 21L14 22L15 22L15 21L14 21L14 20ZM47 20L47 21L48 21L48 20ZM5 21L5 22L7 22L7 21ZM20 22L20 23L21 23L21 22ZM5 23L5 26L8 26L8 23ZM23 23L23 26L26 26L26 23ZM41 23L41 26L44 26L44 23ZM6 24L6 25L7 25L7 24ZM24 24L24 25L25 25L25 24ZM42 24L42 25L43 25L43 24ZM34 26L34 27L35 27L35 28L36 28L36 29L35 29L35 31L34 31L34 32L31 32L31 33L30 33L30 34L31 34L31 35L29 35L29 36L28 36L28 37L30 37L30 40L29 40L29 38L27 38L27 36L25 36L25 35L27 35L27 34L29 34L29 32L30 32L30 31L33 31L33 29L30 29L30 31L28 31L28 30L29 30L29 29L28 29L28 30L27 30L27 31L28 31L28 32L27 32L27 33L26 33L26 34L25 34L25 31L24 31L24 32L23 32L23 30L22 30L22 29L21 29L21 30L22 30L22 31L21 31L21 32L20 32L20 30L19 30L19 32L16 32L16 29L17 29L17 28L16 28L16 27L15 27L15 28L14 28L14 29L13 29L13 30L14 30L14 31L13 31L13 32L12 32L12 31L10 31L10 33L11 33L11 32L12 32L12 34L11 34L11 35L12 35L12 34L13 34L13 35L15 35L15 33L16 33L16 34L18 34L18 36L17 36L17 37L19 37L19 39L22 39L22 37L23 37L23 38L24 38L24 37L25 37L25 38L27 38L27 39L28 39L28 40L29 40L29 41L28 41L28 42L29 42L29 41L30 41L30 42L31 42L31 40L32 40L32 39L33 39L33 38L32 38L32 37L33 37L33 34L31 34L31 33L34 33L34 32L35 32L35 33L36 33L36 32L37 32L37 28L36 28L36 27L35 27L35 26ZM42 27L42 28L43 28L43 29L42 29L42 30L43 30L43 29L44 29L44 32L45 32L45 33L46 33L46 32L47 32L47 29L46 29L46 27L45 27L45 29L44 29L44 27ZM5 28L5 29L7 29L7 28ZM14 29L14 30L15 30L15 29ZM45 30L45 31L46 31L46 30ZM14 31L14 32L13 32L13 34L14 34L14 32L15 32L15 31ZM35 31L35 32L36 32L36 31ZM39 31L39 33L40 33L40 31ZM19 32L19 33L18 33L18 34L19 34L19 33L20 33L20 34L21 34L21 35L19 35L19 36L20 36L20 38L21 38L21 37L22 37L22 36L23 36L23 37L24 37L24 36L23 36L23 35L24 35L24 34L21 34L21 33L20 33L20 32ZM42 34L42 35L43 35L43 36L44 36L44 35L43 35L43 34ZM21 35L21 36L22 36L22 35ZM13 36L13 38L14 38L14 39L15 39L15 40L14 40L14 41L15 41L15 40L17 40L17 39L18 39L18 38L17 38L17 39L16 39L16 37L15 37L15 36ZM30 36L30 37L31 37L31 36ZM11 38L11 39L12 39L12 38ZM31 38L31 39L32 39L32 38ZM19 40L19 41L20 41L20 40ZM36 40L36 41L38 41L38 40ZM45 40L45 42L47 42L47 41L46 41L46 40ZM10 41L10 43L11 43L11 44L10 44L10 45L11 45L11 46L12 46L12 47L11 47L11 48L12 48L12 47L15 47L15 48L16 48L16 47L15 47L15 45L14 45L14 46L12 46L12 44L14 44L14 43L12 43L12 42L11 42L11 41ZM23 41L23 44L26 44L26 41ZM41 41L41 44L44 44L44 41ZM18 42L18 44L19 44L19 43L20 43L20 42ZM24 42L24 43L25 43L25 42ZM34 42L34 43L35 43L35 44L36 44L36 43L37 43L37 42ZM42 42L42 43L43 43L43 42ZM45 43L45 45L46 45L46 44L47 44L47 46L48 46L48 43ZM26 45L26 47L25 47L25 46L24 46L24 47L25 47L25 48L26 48L26 47L28 47L28 45ZM29 45L29 46L30 46L30 45ZM0 0L0 7L7 7L7 0ZM1 1L1 6L6 6L6 1ZM2 2L2 5L5 5L5 2ZM42 0L42 7L49 7L49 0ZM43 1L43 6L48 6L48 1ZM44 2L44 5L47 5L47 2ZM0 42L0 49L7 49L7 42ZM1 43L1 48L6 48L6 43ZM2 44L2 47L5 47L5 44Z" fill="#000000"/></g></g></svg>
