<?xml version="1.0" encoding="UTF-8"?>
<svg xmlns="http://www.w3.org/2000/svg" version="1.1" width="200" height="200" viewBox="0 0 200 200"><rect x="0" y="0" width="200" height="200" fill="#ffffff"/><g transform="scale(3.774)"><g transform="translate(2,2)"><path fill-rule="evenodd" d="M9 0L9 1L8 1L8 2L9 2L9 3L10 3L10 4L9 4L9 5L8 5L8 8L4 8L4 9L2 9L2 10L1 10L1 9L0 9L0 15L4 15L4 16L2 16L2 17L1 17L1 16L0 16L0 17L1 17L1 18L2 18L2 19L3 19L3 17L4 17L4 18L6 18L6 19L7 19L7 20L6 20L6 21L5 21L5 22L4 22L4 20L2 20L2 21L1 21L1 20L0 20L0 22L1 22L1 23L3 23L3 24L0 24L0 26L3 26L3 27L4 27L4 30L5 30L5 31L4 31L4 32L6 32L6 33L7 33L7 34L6 34L6 35L4 35L4 34L5 34L5 33L4 33L4 34L3 34L3 33L2 33L2 31L0 31L0 35L1 35L1 34L3 34L3 35L2 35L2 36L3 36L3 37L1 37L1 36L0 36L0 38L1 38L1 40L0 40L0 41L3 41L3 40L4 40L4 39L2 39L2 38L5 38L5 39L7 39L7 40L6 40L6 41L7 41L7 40L8 40L8 45L9 45L9 46L10 46L10 48L11 48L11 49L13 49L13 48L12 48L12 47L13 47L13 44L14 44L14 46L15 46L15 47L17 47L17 48L18 48L18 47L19 47L19 46L17 46L17 45L18 45L18 42L19 42L19 41L21 41L21 45L20 45L20 47L21 47L21 49L24 49L24 48L25 48L25 47L26 47L26 46L25 46L25 47L24 47L24 46L23 46L23 47L21 47L21 45L27 45L27 46L28 46L28 47L27 47L27 48L26 48L26 49L28 49L28 47L30 47L30 48L31 48L31 49L33 49L33 48L34 48L34 49L35 49L35 47L36 47L36 49L38 49L38 47L39 47L39 49L42 49L42 47L41 47L41 48L40 48L40 47L39 47L39 44L40 44L40 45L42 45L42 46L43 46L43 45L47 45L47 44L48 44L48 46L49 46L49 44L48 44L48 41L49 41L49 40L48 40L48 37L49 37L49 35L48 35L48 33L49 33L49 32L48 32L48 33L47 33L47 31L48 31L48 29L49 29L49 27L48 27L48 29L47 29L47 26L48 26L48 25L47 25L47 24L48 24L48 21L49 21L49 20L48 20L48 21L47 21L47 19L48 19L48 17L47 17L47 16L48 16L48 13L49 13L49 11L48 11L48 8L47 8L47 11L46 11L46 9L44 9L44 8L42 8L42 11L40 11L40 10L39 10L39 9L41 9L41 6L40 6L40 7L39 7L39 5L38 5L38 7L39 7L39 8L36 8L36 9L35 9L35 11L34 11L34 13L35 13L35 11L36 11L36 13L37 13L37 14L36 14L36 18L35 18L35 16L34 16L34 17L33 17L33 16L32 16L32 17L30 17L30 16L31 16L31 15L33 15L33 14L32 14L32 13L33 13L33 11L32 11L32 10L31 10L31 11L30 11L30 8L31 8L31 6L30 6L30 7L29 7L29 6L28 6L28 4L29 4L29 1L31 1L31 2L30 2L30 5L32 5L32 4L33 4L33 3L34 3L34 4L36 4L36 3L37 3L37 2L39 2L39 4L40 4L40 3L41 3L41 0L40 0L40 1L37 1L37 0L36 0L36 3L34 3L34 2L35 2L35 1L33 1L33 2L32 2L32 1L31 1L31 0L26 0L26 1L28 1L28 2L25 2L25 0L24 0L24 2L23 2L23 3L22 3L22 2L21 2L21 1L20 1L20 0L18 0L18 2L19 2L19 3L18 3L18 4L19 4L19 3L20 3L20 4L22 4L22 8L17 8L17 6L18 6L18 7L19 7L19 6L20 6L20 7L21 7L21 5L17 5L17 4L14 4L14 2L13 2L13 1L12 1L12 0L11 0L11 2L9 2L9 1L10 1L10 0ZM14 0L14 1L16 1L16 2L15 2L15 3L17 3L17 0ZM11 2L11 3L12 3L12 4L13 4L13 2ZM20 2L20 3L21 3L21 2ZM24 2L24 3L25 3L25 4L26 4L26 3L25 3L25 2ZM31 2L31 4L32 4L32 2ZM27 3L27 4L28 4L28 3ZM10 5L10 6L9 6L9 7L10 7L10 8L11 8L11 9L9 9L9 8L8 8L8 10L7 10L7 9L4 9L4 11L5 11L5 12L4 12L4 15L5 15L5 14L7 14L7 15L6 15L6 16L4 16L4 17L6 17L6 18L7 18L7 19L8 19L8 20L9 20L9 25L10 25L10 26L9 26L9 27L5 27L5 29L6 29L6 30L7 30L7 31L6 31L6 32L7 32L7 33L8 33L8 34L10 34L10 35L9 35L9 36L10 36L10 35L11 35L11 36L12 36L12 37L9 37L9 38L10 38L10 40L11 40L11 38L12 38L12 37L13 37L13 36L14 36L14 39L15 39L15 40L13 40L13 39L12 39L12 40L13 40L13 41L14 41L14 42L13 42L13 43L11 43L11 45L12 45L12 44L13 44L13 43L14 43L14 44L15 44L15 45L16 45L16 44L17 44L17 42L16 42L16 39L17 39L17 37L18 37L18 38L19 38L19 39L18 39L18 40L17 40L17 41L19 41L19 39L20 39L20 38L21 38L21 39L22 39L22 40L24 40L24 38L25 38L25 39L26 39L26 40L27 40L27 41L28 41L28 43L27 43L27 45L29 45L29 44L30 44L30 47L35 47L35 46L36 46L36 43L37 43L37 45L38 45L38 43L39 43L39 42L40 42L40 39L41 39L41 40L42 40L42 39L43 39L43 40L44 40L44 39L47 39L47 37L48 37L48 36L47 36L47 37L46 37L46 38L42 38L42 39L41 39L41 38L39 38L39 39L37 39L37 38L36 38L36 36L34 36L34 37L32 37L32 39L35 39L35 40L34 40L34 41L33 41L33 43L34 43L34 42L36 42L36 43L35 43L35 44L33 44L33 46L31 46L31 43L32 43L32 41L31 41L31 43L29 43L29 40L31 40L31 37L30 37L30 36L32 36L32 35L31 35L31 33L32 33L32 34L33 34L33 35L36 35L36 34L37 34L37 32L38 32L38 33L40 33L40 35L37 35L37 37L38 37L38 36L39 36L39 37L45 37L45 34L42 34L42 32L40 32L40 31L41 31L41 30L42 30L42 31L44 31L44 30L47 30L47 29L43 29L43 30L42 30L42 29L41 29L41 28L42 28L42 27L41 27L41 28L40 28L40 25L39 25L39 27L37 27L37 25L38 25L38 24L39 24L39 23L37 23L37 22L36 22L36 19L37 19L37 20L39 20L39 19L40 19L40 18L41 18L41 19L42 19L42 20L41 20L41 21L39 21L39 22L42 22L42 21L43 21L43 19L45 19L45 18L46 18L46 19L47 19L47 17L46 17L46 15L47 15L47 13L48 13L48 12L47 12L47 13L46 13L46 15L45 15L45 13L44 13L44 14L43 14L43 15L42 15L42 12L43 12L43 11L45 11L45 10L43 10L43 11L42 11L42 12L41 12L41 13L39 13L39 12L40 12L40 11L37 11L37 10L36 10L36 11L37 11L37 13L39 13L39 14L41 14L41 15L40 15L40 17L39 17L39 16L38 16L38 17L37 17L37 18L36 18L36 19L35 19L35 21L34 21L34 19L32 19L32 18L31 18L31 19L32 19L32 20L31 20L31 21L30 21L30 20L29 20L29 19L30 19L30 18L29 18L29 17L28 17L28 16L27 16L27 17L26 17L26 15L27 15L27 14L29 14L29 15L30 15L30 13L27 13L27 12L26 12L26 11L28 11L28 12L30 12L30 11L29 11L29 10L27 10L27 9L29 9L29 7L28 7L28 6L27 6L27 7L28 7L28 8L27 8L27 9L25 9L25 10L24 10L24 9L22 9L22 10L23 10L23 11L25 11L25 12L26 12L26 15L25 15L25 16L24 16L24 15L22 15L22 17L23 17L23 19L19 19L19 18L21 18L21 16L19 16L19 18L18 18L18 17L17 17L17 19L19 19L19 20L16 20L16 18L15 18L15 20L14 20L14 18L13 18L13 16L14 16L14 17L16 17L16 16L17 16L17 15L16 15L16 14L17 14L17 12L15 12L15 11L14 11L14 9L16 9L16 10L18 10L18 9L17 9L17 8L16 8L16 6L17 6L17 5L16 5L16 6L15 6L15 7L14 7L14 5L12 5L12 6L11 6L11 5ZM23 5L23 8L26 8L26 5ZM33 5L33 6L32 6L32 7L33 7L33 8L34 8L34 7L35 7L35 6L36 6L36 7L37 7L37 5ZM10 6L10 7L11 7L11 6ZM12 6L12 7L13 7L13 6ZM24 6L24 7L25 7L25 6ZM33 6L33 7L34 7L34 6ZM12 8L12 9L11 9L11 10L12 10L12 9L13 9L13 8ZM20 9L20 10L21 10L21 9ZM6 10L6 11L7 11L7 12L5 12L5 13L7 13L7 12L9 12L9 10L8 10L8 11L7 11L7 10ZM10 11L10 14L9 14L9 13L8 13L8 15L7 15L7 16L6 16L6 17L9 17L9 18L8 18L8 19L9 19L9 18L10 18L10 20L11 20L11 19L13 19L13 18L12 18L12 16L13 16L13 15L12 15L12 14L13 14L13 12L12 12L12 11ZM20 11L20 12L19 12L19 13L18 13L18 15L19 15L19 14L20 14L20 15L21 15L21 14L25 14L25 13L24 13L24 12L23 12L23 13L22 13L22 12L21 12L21 11ZM31 11L31 13L32 13L32 11ZM2 12L2 14L3 14L3 12ZM11 12L11 14L10 14L10 15L9 15L9 16L10 16L10 17L11 17L11 16L10 16L10 15L11 15L11 14L12 14L12 12ZM14 12L14 16L15 16L15 14L16 14L16 13L15 13L15 12ZM20 12L20 13L21 13L21 12ZM41 15L41 17L42 17L42 18L43 18L43 17L44 17L44 18L45 18L45 15L43 15L43 16L42 16L42 15ZM25 17L25 18L26 18L26 17ZM27 18L27 19L25 19L25 21L24 21L24 22L23 22L23 20L22 20L22 22L20 22L20 21L21 21L21 20L20 20L20 21L19 21L19 22L20 22L20 23L22 23L22 24L21 24L21 25L20 25L20 24L19 24L19 23L18 23L18 24L17 24L17 22L16 22L16 24L15 24L15 21L13 21L13 20L12 20L12 22L11 22L11 21L10 21L10 22L11 22L11 23L13 23L13 22L14 22L14 25L15 25L15 26L14 26L14 28L17 28L17 29L16 29L16 30L15 30L15 31L13 31L13 32L15 32L15 33L16 33L16 34L15 34L15 35L14 35L14 36L16 36L16 37L17 37L17 36L18 36L18 34L17 34L17 33L19 33L19 34L20 34L20 35L21 35L21 36L20 36L20 37L19 37L19 38L20 38L20 37L22 37L22 38L24 38L24 37L23 37L23 36L25 36L25 34L27 34L27 35L26 35L26 37L25 37L25 38L26 38L26 39L27 39L27 40L29 40L29 39L30 39L30 38L29 38L29 36L30 36L30 34L29 34L29 33L28 33L28 32L29 32L29 30L28 30L28 31L27 31L27 33L26 33L26 31L25 31L25 30L27 30L27 29L25 29L25 28L28 28L28 29L30 29L30 28L32 28L32 29L31 29L31 31L33 31L33 32L35 32L35 33L36 33L36 30L37 30L37 31L40 31L40 29L39 29L39 28L37 28L37 27L36 27L36 26L35 26L35 27L29 27L29 23L31 23L31 24L30 24L30 26L31 26L31 25L32 25L32 26L33 26L33 24L34 24L34 25L35 25L35 23L36 23L36 25L37 25L37 23L36 23L36 22L35 22L35 23L33 23L33 24L32 24L32 23L31 23L31 22L33 22L33 21L31 21L31 22L30 22L30 21L29 21L29 20L28 20L28 18ZM26 20L26 21L28 21L28 20ZM6 21L6 22L7 22L7 21ZM44 21L44 22L45 22L45 21ZM46 21L46 22L47 22L47 21ZM28 22L28 23L29 23L29 22ZM5 23L5 26L8 26L8 23ZM23 23L23 26L26 26L26 23ZM41 23L41 26L44 26L44 23ZM3 24L3 25L4 25L4 24ZM6 24L6 25L7 25L7 24ZM10 24L10 25L11 25L11 26L10 26L10 27L9 27L9 28L6 28L6 29L7 29L7 30L8 30L8 31L7 31L7 32L8 32L8 33L9 33L9 32L11 32L11 33L10 33L10 34L11 34L11 33L12 33L12 34L13 34L13 33L12 33L12 31L11 31L11 29L12 29L12 28L10 28L10 27L12 27L12 26L13 26L13 24L12 24L12 25L11 25L11 24ZM16 24L16 27L17 27L17 28L21 28L21 29L22 29L22 31L23 31L23 33L22 33L22 32L21 32L21 31L19 31L19 33L22 33L22 35L23 35L23 34L25 34L25 32L24 32L24 31L23 31L23 30L25 30L25 29L24 29L24 28L22 28L22 26L20 26L20 27L19 27L19 24L18 24L18 25L17 25L17 24ZM24 24L24 25L25 25L25 24ZM27 24L27 25L28 25L28 24ZM42 24L42 25L43 25L43 24ZM45 25L45 26L47 26L47 25ZM17 26L17 27L18 27L18 26ZM1 27L1 28L2 28L2 27ZM35 27L35 29L34 29L34 28L33 28L33 29L32 29L32 30L33 30L33 31L35 31L35 29L36 29L36 27ZM43 27L43 28L45 28L45 27ZM0 29L0 30L3 30L3 29ZM8 29L8 30L9 30L9 31L8 31L8 32L9 32L9 31L10 31L10 29ZM18 29L18 30L20 30L20 29ZM16 30L16 31L15 31L15 32L17 32L17 30ZM30 32L30 33L31 33L31 32ZM43 32L43 33L45 33L45 32ZM46 33L46 35L47 35L47 33ZM28 34L28 35L29 35L29 34ZM41 34L41 35L40 35L40 36L41 36L41 35L42 35L42 36L43 36L43 35L42 35L42 34ZM3 35L3 36L4 36L4 37L5 37L5 38L8 38L8 37L6 37L6 36L8 36L8 35L6 35L6 36L4 36L4 35ZM12 35L12 36L13 36L13 35ZM26 37L26 38L27 38L27 39L29 39L29 38L28 38L28 37ZM15 38L15 39L16 39L16 38ZM36 39L36 41L37 41L37 43L38 43L38 42L39 42L39 40L38 40L38 41L37 41L37 39ZM45 40L45 42L47 42L47 41L48 41L48 40ZM9 41L9 43L10 43L10 42L12 42L12 41ZM23 41L23 44L26 44L26 41ZM41 41L41 44L44 44L44 41ZM15 42L15 43L16 43L16 42ZM24 42L24 43L25 43L25 42ZM42 42L42 43L43 43L43 42ZM19 43L19 44L20 44L20 43ZM43 47L43 49L44 49L44 47ZM45 47L45 49L49 49L49 48L48 48L48 47ZM14 48L14 49L15 49L15 48ZM0 0L0 7L7 7L7 0ZM1 1L1 6L6 6L6 1ZM2 2L2 5L5 5L5 2ZM42 0L42 7L49 7L49 0ZM43 1L43 6L48 6L48 1ZM44 2L44 5L47 5L47 2ZM0 42L0 49L7 49L7 42ZM1 43L1 48L6 48L6 43ZM2 44L2 47L5 47L5 44Z" fill="#000000"/></g></g></svg>
