<?xml version="1.0" encoding="UTF-8"?>
<svg xmlns="http://www.w3.org/2000/svg" version="1.1" width="200" height="200" viewBox="0 0 200 200"><rect x="0" y="0" width="200" height="200" fill="#ffffff"/><g transform="scale(3.774)"><g transform="translate(2,2)"><path fill-rule="evenodd" d="M8 0L8 1L9 1L9 3L8 3L8 4L9 4L9 3L10 3L10 2L11 2L11 4L10 4L10 5L13 5L13 4L14 4L14 1L15 1L15 0L14 0L14 1L13 1L13 0ZM19 0L19 1L20 1L20 0ZM21 0L21 2L18 2L18 1L16 1L16 2L15 2L15 4L17 4L17 5L14 5L14 8L13 8L13 6L12 6L12 8L11 8L11 9L10 9L10 8L8 8L8 9L9 9L9 10L6 10L6 9L7 9L7 8L4 8L4 9L3 9L3 8L2 8L2 9L0 9L0 10L1 10L1 11L2 11L2 9L3 9L3 10L4 10L4 11L5 11L5 10L6 10L6 11L7 11L7 12L6 12L6 13L5 13L5 12L3 12L3 18L4 18L4 19L3 19L3 20L4 20L4 21L2 21L2 20L1 20L1 19L0 19L0 21L1 21L1 22L0 22L0 25L1 25L1 24L2 24L2 26L0 26L0 29L1 29L1 30L0 30L0 31L2 31L2 32L3 32L3 31L4 31L4 30L5 30L5 28L6 28L6 29L7 29L7 30L6 30L6 31L7 31L7 30L8 30L8 29L7 29L7 28L10 28L10 27L9 27L9 24L10 24L10 25L12 25L12 26L11 26L11 27L12 27L12 26L13 26L13 27L14 27L14 28L15 28L15 27L16 27L16 29L15 29L15 30L16 30L16 32L18 32L18 35L17 35L17 34L16 34L16 33L14 33L14 34L13 34L13 35L12 35L12 33L13 33L13 32L15 32L15 31L13 31L13 32L12 32L12 33L11 33L11 34L9 34L9 33L10 33L10 32L11 32L11 31L12 31L12 30L13 30L13 28L11 28L11 29L10 29L10 32L9 32L9 31L8 31L8 33L7 33L7 32L4 32L4 33L3 33L3 34L1 34L1 33L0 33L0 34L1 34L1 35L0 35L0 36L1 36L1 35L2 35L2 37L3 37L3 36L5 36L5 37L4 37L4 38L5 38L5 39L7 39L7 38L8 38L8 39L11 39L11 40L12 40L12 41L11 41L11 43L8 43L8 45L9 45L9 46L8 46L8 47L9 47L9 46L10 46L10 44L11 44L11 43L13 43L13 44L12 44L12 45L11 45L11 47L10 47L10 49L11 49L11 48L12 48L12 45L14 45L14 48L13 48L13 49L14 49L14 48L16 48L16 49L19 49L19 46L20 46L20 48L21 48L21 49L24 49L24 48L23 48L23 47L24 47L24 46L23 46L23 45L27 45L27 47L28 47L28 45L27 45L27 44L29 44L29 43L30 43L30 44L31 44L31 43L30 43L30 41L31 41L31 42L32 42L32 45L29 45L29 46L32 46L32 49L33 49L33 48L34 48L34 45L35 45L35 46L36 46L36 49L37 49L37 48L38 48L38 49L40 49L40 48L41 48L41 49L42 49L42 47L43 47L43 48L44 48L44 49L46 49L46 43L47 43L47 44L48 44L48 45L47 45L47 49L49 49L49 48L48 48L48 47L49 47L49 46L48 46L48 45L49 45L49 44L48 44L48 43L49 43L49 36L48 36L48 35L49 35L49 33L48 33L48 35L47 35L47 36L48 36L48 39L47 39L47 40L48 40L48 43L47 43L47 42L46 42L46 40L44 40L44 39L46 39L46 35L45 35L45 38L44 38L44 36L43 36L43 34L44 34L44 32L43 32L43 30L42 30L42 31L41 31L41 32L40 32L40 33L39 33L39 32L38 32L38 29L37 29L37 28L38 28L38 25L39 25L39 27L42 27L42 28L44 28L44 27L45 27L45 30L46 30L46 27L47 27L47 26L48 26L48 27L49 27L49 25L46 25L46 23L47 23L47 24L49 24L49 20L48 20L48 23L47 23L47 22L46 22L46 23L45 23L45 21L46 21L46 19L45 19L45 18L46 18L46 16L45 16L45 15L44 15L44 17L43 17L43 18L42 18L42 16L41 16L41 15L42 15L42 13L43 13L43 12L42 12L42 8L41 8L41 12L42 12L42 13L41 13L41 14L40 14L40 12L38 12L38 13L37 13L37 11L38 11L38 9L37 9L37 8L38 8L38 7L39 7L39 10L40 10L40 7L41 7L41 6L40 6L40 7L39 7L39 5L38 5L38 3L37 3L37 5L38 5L38 7L37 7L37 6L36 6L36 7L37 7L37 8L36 8L36 9L37 9L37 10L36 10L36 11L34 11L34 9L35 9L35 8L34 8L34 7L35 7L35 4L36 4L36 1L35 1L35 0L34 0L34 3L33 3L33 1L31 1L31 0L28 0L28 3L27 3L27 0L25 0L25 1L26 1L26 3L22 3L22 4L21 4L21 2L22 2L22 0ZM37 0L37 2L39 2L39 4L40 4L40 3L41 3L41 0L40 0L40 1L38 1L38 0ZM30 1L30 2L29 2L29 3L28 3L28 4L27 4L27 9L24 9L24 10L23 10L23 12L21 12L21 11L22 11L22 9L21 9L21 10L18 10L18 9L20 9L20 8L18 8L18 9L17 9L17 8L14 8L14 9L11 9L11 10L9 10L9 12L10 12L10 13L9 13L9 14L8 14L8 16L7 16L7 15L6 15L6 16L7 16L7 17L5 17L5 16L4 16L4 18L5 18L5 19L4 19L4 20L5 20L5 19L6 19L6 20L7 20L7 21L6 21L6 22L9 22L9 21L8 21L8 20L11 20L11 21L10 21L10 23L12 23L12 22L15 22L15 21L14 21L14 20L15 20L15 19L16 19L16 21L17 21L17 22L18 22L18 25L17 25L17 24L16 24L16 27L17 27L17 29L16 29L16 30L19 30L19 31L21 31L21 32L19 32L19 34L20 34L20 36L19 36L19 35L18 35L18 36L17 36L17 35L16 35L16 37L15 37L15 38L14 38L14 36L15 36L15 34L14 34L14 36L12 36L12 37L13 37L13 38L12 38L12 40L13 40L13 41L14 41L14 42L13 42L13 43L15 43L15 47L17 47L17 46L16 46L16 44L17 44L17 45L18 45L18 46L19 46L19 44L20 44L20 46L21 46L21 48L22 48L22 47L23 47L23 46L21 46L21 44L22 44L22 42L21 42L21 41L20 41L20 40L17 40L17 39L16 39L16 38L17 38L17 37L18 37L18 36L19 36L19 38L18 38L18 39L19 39L19 38L20 38L20 39L21 39L21 40L24 40L24 39L25 39L25 40L28 40L28 41L27 41L27 42L29 42L29 39L30 39L30 40L31 40L31 41L32 41L32 42L33 42L33 41L32 41L32 39L33 39L33 37L34 37L34 40L35 40L35 41L34 41L34 42L35 42L35 43L34 43L34 44L33 44L33 45L34 45L34 44L35 44L35 45L36 45L36 46L37 46L37 45L36 45L36 42L35 42L35 41L36 41L36 38L35 38L35 37L36 37L36 35L37 35L37 34L36 34L36 35L35 35L35 33L34 33L34 32L33 32L33 29L32 29L32 26L33 26L33 25L34 25L34 27L35 27L35 29L34 29L34 31L36 31L36 33L38 33L38 40L39 40L39 41L38 41L38 42L39 42L39 43L40 43L40 42L39 42L39 41L40 41L40 40L42 40L42 38L43 38L43 39L44 39L44 38L43 38L43 37L42 37L42 34L41 34L41 33L42 33L42 32L41 32L41 33L40 33L40 34L39 34L39 33L38 33L38 32L37 32L37 31L36 31L36 30L37 30L37 29L36 29L36 27L37 27L37 25L38 25L38 24L37 24L37 25L36 25L36 23L37 23L37 21L38 21L38 23L39 23L39 21L38 21L38 20L39 20L39 19L38 19L38 17L39 17L39 16L38 16L38 15L40 15L40 14L39 14L39 13L38 13L38 15L37 15L37 13L36 13L36 12L34 12L34 11L33 11L33 13L34 13L34 15L33 15L33 14L32 14L32 15L30 15L30 14L31 14L31 12L32 12L32 11L31 11L31 10L30 10L30 11L31 11L31 12L30 12L30 13L29 13L29 9L30 9L30 8L31 8L31 9L32 9L32 10L33 10L33 9L34 9L34 8L33 8L33 7L34 7L34 4L35 4L35 3L34 3L34 4L33 4L33 3L31 3L31 1ZM12 2L12 3L13 3L13 2ZM16 2L16 3L17 3L17 4L18 4L18 5L17 5L17 7L18 7L18 5L19 5L19 7L20 7L20 5L21 5L21 4L18 4L18 3L17 3L17 2ZM29 3L29 4L28 4L28 9L29 9L29 6L30 6L30 7L31 7L31 6L32 6L32 7L33 7L33 4L31 4L31 3ZM29 4L29 5L30 5L30 4ZM23 5L23 8L26 8L26 5ZM8 6L8 7L9 7L9 6ZM10 6L10 7L11 7L11 6ZM15 6L15 7L16 7L16 6ZM21 6L21 8L22 8L22 6ZM24 6L24 7L25 7L25 6ZM45 8L45 11L44 11L44 13L46 13L46 14L47 14L47 13L46 13L46 11L47 11L47 12L48 12L48 15L47 15L47 16L48 16L48 19L49 19L49 16L48 16L48 15L49 15L49 8L48 8L48 11L47 11L47 10L46 10L46 8ZM4 9L4 10L5 10L5 9ZM15 9L15 12L12 12L12 13L10 13L10 15L9 15L9 16L8 16L8 17L7 17L7 18L6 18L6 19L7 19L7 20L8 20L8 19L10 19L10 18L9 18L9 17L10 17L10 15L11 15L11 16L12 16L12 15L13 15L13 16L14 16L14 18L13 18L13 17L12 17L12 19L11 19L11 20L12 20L12 19L13 19L13 20L14 20L14 18L15 18L15 16L14 16L14 15L16 15L16 13L17 13L17 12L19 12L19 11L17 11L17 9ZM43 9L43 10L44 10L44 9ZM13 10L13 11L14 11L14 10ZM24 10L24 12L23 12L23 13L19 13L19 14L23 14L23 15L20 15L20 16L21 16L21 17L23 17L23 15L25 15L25 14L27 14L27 15L26 15L26 18L25 18L25 16L24 16L24 18L23 18L23 20L24 20L24 21L23 21L23 22L21 22L21 20L22 20L22 19L21 19L21 20L20 20L20 21L19 21L19 22L21 22L21 23L22 23L22 25L21 25L21 24L20 24L20 23L19 23L19 24L20 24L20 25L18 25L18 26L17 26L17 27L18 27L18 26L20 26L20 25L21 25L21 27L26 27L26 29L29 29L29 31L25 31L25 32L24 32L24 30L25 30L25 29L24 29L24 28L21 28L21 31L23 31L23 32L24 32L24 33L23 33L23 34L21 34L21 33L20 33L20 34L21 34L21 35L23 35L23 36L21 36L21 37L24 37L24 38L25 38L25 36L26 36L26 39L27 39L27 38L28 38L28 37L29 37L29 38L30 38L30 39L31 39L31 38L32 38L32 37L33 37L33 35L34 35L34 33L32 33L32 31L31 31L31 30L32 30L32 29L31 29L31 30L30 30L30 28L29 28L29 27L31 27L31 26L29 26L29 27L28 27L28 26L27 26L27 24L28 24L28 20L29 20L29 24L30 24L30 25L31 25L31 23L33 23L33 24L32 24L32 25L33 25L33 24L34 24L34 25L35 25L35 24L34 24L34 21L32 21L32 20L31 20L31 19L30 19L30 20L29 20L29 19L28 19L28 20L27 20L27 21L26 21L26 18L31 18L31 17L32 17L32 18L33 18L33 16L30 16L30 15L29 15L29 14L28 14L28 11L26 11L26 10ZM10 11L10 12L11 12L11 11ZM16 11L16 12L15 12L15 13L16 13L16 12L17 12L17 11ZM25 11L25 12L24 12L24 14L25 14L25 12L26 12L26 13L27 13L27 12L26 12L26 11ZM7 12L7 13L6 13L6 14L7 14L7 13L8 13L8 12ZM1 13L1 14L0 14L0 16L2 16L2 15L1 15L1 14L2 14L2 13ZM4 13L4 14L5 14L5 13ZM11 14L11 15L12 15L12 14ZM17 14L17 16L16 16L16 18L17 18L17 21L18 21L18 19L20 19L20 18L19 18L19 17L17 17L17 16L19 16L19 15L18 15L18 14ZM34 15L34 16L35 16L35 15ZM36 15L36 17L34 17L34 19L35 19L35 18L36 18L36 21L35 21L35 22L36 22L36 21L37 21L37 20L38 20L38 19L37 19L37 15ZM27 16L27 17L28 17L28 16ZM0 17L0 18L2 18L2 17ZM40 17L40 18L41 18L41 19L40 19L40 22L41 22L41 21L42 21L42 22L43 22L43 21L44 21L44 18L43 18L43 19L42 19L42 18L41 18L41 17ZM7 18L7 19L8 19L8 18ZM24 19L24 20L25 20L25 19ZM41 19L41 20L42 20L42 19ZM4 21L4 22L1 22L1 23L2 23L2 24L3 24L3 26L2 26L2 27L1 27L1 28L2 28L2 27L3 27L3 29L2 29L2 31L3 31L3 29L4 29L4 28L5 28L5 27L4 27L4 24L3 24L3 23L4 23L4 22L5 22L5 21ZM11 21L11 22L12 22L12 21ZM24 21L24 22L25 22L25 21ZM31 21L31 22L30 22L30 23L31 23L31 22L32 22L32 21ZM5 23L5 26L8 26L8 23ZM13 23L13 24L12 24L12 25L13 25L13 26L14 26L14 25L13 25L13 24L14 24L14 23ZM23 23L23 26L26 26L26 23ZM41 23L41 26L44 26L44 23ZM6 24L6 25L7 25L7 24ZM24 24L24 25L25 25L25 24ZM39 24L39 25L40 25L40 24ZM42 24L42 25L43 25L43 24ZM45 26L45 27L46 27L46 26ZM6 27L6 28L7 28L7 27ZM27 27L27 28L28 28L28 27ZM18 28L18 29L19 29L19 30L20 30L20 29L19 29L19 28ZM22 29L22 30L23 30L23 29ZM39 29L39 31L40 31L40 29ZM48 29L48 31L49 31L49 29ZM45 31L45 33L46 33L46 31ZM25 32L25 33L26 33L26 36L27 36L27 34L29 34L29 35L28 35L28 36L29 36L29 37L30 37L30 38L31 38L31 37L32 37L32 35L33 35L33 34L32 34L32 35L31 35L31 33L30 33L30 32L27 32L27 33L26 33L26 32ZM4 33L4 35L5 35L5 34L7 34L7 33ZM29 33L29 34L30 34L30 33ZM8 34L8 36L7 36L7 35L6 35L6 36L7 36L7 37L6 37L6 38L7 38L7 37L8 37L8 38L11 38L11 36L10 36L10 35L9 35L9 34ZM24 34L24 36L25 36L25 34ZM8 36L8 37L9 37L9 36ZM40 36L40 38L39 38L39 39L40 39L40 38L42 38L42 37L41 37L41 36ZM1 38L1 40L0 40L0 41L3 41L3 40L4 40L4 39L2 39L2 38ZM22 38L22 39L23 39L23 38ZM14 39L14 40L15 40L15 41L17 41L17 40L15 40L15 39ZM6 40L6 41L7 41L7 40ZM8 40L8 42L9 42L9 41L10 41L10 40ZM18 41L18 43L17 43L17 44L19 44L19 43L20 43L20 44L21 44L21 43L20 43L20 41ZM23 41L23 44L26 44L26 41ZM41 41L41 44L44 44L44 41ZM24 42L24 43L25 43L25 42ZM42 42L42 43L43 43L43 42ZM45 42L45 43L46 43L46 42ZM39 44L39 45L38 45L38 47L39 47L39 45L40 45L40 47L42 47L42 46L43 46L43 47L44 47L44 48L45 48L45 47L44 47L44 45L42 45L42 46L41 46L41 45L40 45L40 44ZM25 46L25 49L26 49L26 46ZM29 47L29 48L30 48L30 49L31 49L31 47ZM0 0L0 7L7 7L7 0ZM1 1L1 6L6 6L6 1ZM2 2L2 5L5 5L5 2ZM42 0L42 7L49 7L49 0ZM43 1L43 6L48 6L48 1ZM44 2L44 5L47 5L47 2ZM0 42L0 49L7 49L7 42ZM1 43L1 48L6 48L6 43ZM2 44L2 47L5 47L5 44Z" fill="#000000"/></g></g></svg>
