<?xml version="1.0" encoding="UTF-8"?>
<svg xmlns="http://www.w3.org/2000/svg" version="1.1" width="200" height="200" viewBox="0 0 200 200"><rect x="0" y="0" width="200" height="200" fill="#ffffff"/><g transform="scale(3.774)"><g transform="translate(2,2)"><path fill-rule="evenodd" d="M9 0L9 1L10 1L10 2L9 2L9 4L8 4L8 5L10 5L10 7L9 7L9 6L8 6L8 8L6 8L6 9L11 9L11 10L10 10L10 12L12 12L12 13L9 13L9 11L8 11L8 12L6 12L6 11L7 11L7 10L5 10L5 11L4 11L4 12L3 12L3 13L2 13L2 11L3 11L3 10L4 10L4 8L2 8L2 11L1 11L1 9L0 9L0 20L1 20L1 22L0 22L0 23L3 23L3 22L4 22L4 24L0 24L0 25L2 25L2 27L3 27L3 30L2 30L2 29L1 29L1 28L0 28L0 29L1 29L1 30L0 30L0 34L1 34L1 36L0 36L0 38L1 38L1 40L0 40L0 41L3 41L3 40L4 40L4 39L2 39L2 38L1 38L1 36L2 36L2 35L3 35L3 38L5 38L5 39L7 39L7 38L6 38L6 37L7 37L7 36L8 36L8 40L6 40L6 41L8 41L8 43L10 43L10 44L11 44L11 46L10 46L10 45L8 45L8 47L12 47L12 48L10 48L10 49L12 49L12 48L15 48L15 47L17 47L17 46L15 46L15 45L16 45L16 44L17 44L17 45L18 45L18 46L19 46L19 45L23 45L23 46L20 46L20 47L22 47L22 49L23 49L23 47L24 47L24 48L25 48L25 49L27 49L27 48L28 48L28 49L30 49L30 48L31 48L31 46L30 46L30 48L28 48L28 46L29 46L29 45L32 45L32 48L33 48L33 49L34 49L34 48L36 48L36 49L37 49L37 48L38 48L38 49L39 49L39 48L38 48L38 46L37 46L37 45L36 45L36 46L34 46L34 45L35 45L35 44L34 44L34 45L32 45L32 43L31 43L31 40L32 40L32 41L34 41L34 42L35 42L35 41L36 41L36 39L40 39L40 38L43 38L43 39L44 39L44 38L45 38L45 40L42 40L42 39L41 39L41 40L40 40L40 42L39 42L39 43L40 43L40 45L39 45L39 47L41 47L41 46L40 46L40 45L42 45L42 47L43 47L43 48L45 48L45 47L46 47L46 49L49 49L49 48L47 48L47 47L46 47L46 46L47 46L47 45L46 45L46 44L45 44L45 43L46 43L46 42L48 42L48 43L47 43L47 44L48 44L48 43L49 43L49 39L48 39L48 40L47 40L47 41L46 41L46 39L47 39L47 38L45 38L45 36L44 36L44 35L45 35L45 34L46 34L46 32L44 32L44 31L46 31L46 30L45 30L45 29L47 29L47 30L48 30L48 31L47 31L47 35L46 35L46 37L47 37L47 35L48 35L48 38L49 38L49 35L48 35L48 32L49 32L49 29L47 29L47 28L48 28L48 27L47 27L47 26L48 26L48 25L49 25L49 23L48 23L48 21L47 21L47 22L46 22L46 20L45 20L45 21L44 21L44 19L43 19L43 18L45 18L45 19L47 19L47 18L48 18L48 19L49 19L49 17L48 17L48 16L49 16L49 15L48 15L48 16L47 16L47 15L46 15L46 16L47 16L47 17L46 17L46 18L45 18L45 15L44 15L44 14L47 14L47 11L48 11L48 9L47 9L47 10L46 10L46 13L44 13L44 14L42 14L42 13L43 13L43 12L40 12L40 13L41 13L41 14L40 14L40 15L39 15L39 12L38 12L38 10L37 10L37 9L39 9L39 11L40 11L40 8L39 8L39 5L38 5L38 4L37 4L37 3L38 3L38 2L39 2L39 4L40 4L40 3L41 3L41 0L40 0L40 1L38 1L38 2L36 2L36 1L34 1L34 0L30 0L30 1L33 1L33 2L32 2L32 4L31 4L31 3L30 3L30 2L26 2L26 1L29 1L29 0L23 0L23 2L22 2L22 0L21 0L21 2L19 2L19 1L20 1L20 0L18 0L18 3L16 3L16 0L15 0L15 2L14 2L14 1L13 1L13 2L12 2L12 3L13 3L13 4L11 4L11 3L10 3L10 2L11 2L11 0ZM13 2L13 3L14 3L14 2ZM23 2L23 4L24 4L24 3L25 3L25 4L26 4L26 3L25 3L25 2ZM33 2L33 3L34 3L34 2ZM19 3L19 4L18 4L18 5L19 5L19 8L17 8L17 7L18 7L18 6L17 6L17 7L16 7L16 5L17 5L17 4L15 4L15 7L16 7L16 8L14 8L14 6L13 6L13 7L12 7L12 6L11 6L11 7L12 7L12 8L11 8L11 9L12 9L12 10L13 10L13 11L12 11L12 12L13 12L13 13L12 13L12 15L11 15L11 16L10 16L10 15L6 15L6 14L8 14L8 13L6 13L6 14L5 14L5 12L4 12L4 13L3 13L3 15L2 15L2 14L1 14L1 15L2 15L2 16L1 16L1 18L3 18L3 19L5 19L5 18L8 18L8 19L9 19L9 20L8 20L8 22L9 22L9 26L10 26L10 27L9 27L9 28L11 28L11 29L13 29L13 30L11 30L11 31L12 31L12 32L13 32L13 31L14 31L14 32L15 32L15 35L13 35L13 36L11 36L11 35L10 35L10 36L9 36L9 38L10 38L10 37L11 37L11 38L12 38L12 39L10 39L10 40L9 40L9 41L11 41L11 44L12 44L12 47L13 47L13 44L14 44L14 43L12 43L12 42L13 42L13 38L14 38L14 40L15 40L15 41L16 41L16 39L15 39L15 38L14 38L14 37L16 37L16 38L17 38L17 39L18 39L18 40L19 40L19 39L18 39L18 38L19 38L19 37L20 37L20 38L21 38L21 39L20 39L20 41L19 41L19 42L20 42L20 43L17 43L17 42L18 42L18 41L17 41L17 42L16 42L16 43L17 43L17 44L18 44L18 45L19 45L19 44L22 44L22 41L21 41L21 39L22 39L22 40L23 40L23 39L22 39L22 37L20 37L20 36L23 36L23 38L25 38L25 39L24 39L24 40L27 40L27 43L29 43L29 44L27 44L27 46L28 46L28 45L29 45L29 44L31 44L31 43L30 43L30 42L29 42L29 41L30 41L30 40L31 40L31 38L30 38L30 37L31 37L31 36L32 36L32 39L33 39L33 36L32 36L32 35L33 35L33 34L32 34L32 31L33 31L33 32L34 32L34 29L35 29L35 27L36 27L36 30L35 30L35 31L36 31L36 32L38 32L38 31L36 31L36 30L37 30L37 29L38 29L38 30L40 30L40 29L43 29L43 31L44 31L44 28L45 28L45 27L42 27L42 28L41 28L41 27L39 27L39 29L38 29L38 24L40 24L40 23L39 23L39 20L40 20L40 22L42 22L42 20L43 20L43 19L42 19L42 20L41 20L41 18L43 18L43 17L44 17L44 16L42 16L42 15L41 15L41 16L40 16L40 17L39 17L39 16L37 16L37 15L38 15L38 12L37 12L37 13L36 13L36 12L35 12L35 13L33 13L33 12L34 12L34 11L33 11L33 9L34 9L34 10L35 10L35 9L37 9L37 8L38 8L38 5L36 5L36 6L35 6L35 4L36 4L36 3L35 3L35 4L32 4L32 5L31 5L31 7L30 7L30 6L29 6L29 7L28 7L28 3L27 3L27 8L31 8L31 9L32 9L32 10L30 10L30 9L29 9L29 10L30 10L30 11L27 11L27 10L28 10L28 9L26 9L26 11L25 11L25 12L24 12L24 10L22 10L22 9L21 9L21 7L22 7L22 5L21 5L21 4L22 4L22 3ZM10 4L10 5L11 5L11 4ZM29 4L29 5L30 5L30 4ZM20 5L20 7L21 7L21 5ZM23 5L23 8L26 8L26 5ZM33 5L33 6L32 6L32 7L31 7L31 8L32 8L32 7L33 7L33 6L34 6L34 7L35 7L35 6L34 6L34 5ZM24 6L24 7L25 7L25 6ZM36 6L36 7L37 7L37 6ZM40 6L40 7L41 7L41 6ZM12 8L12 9L13 9L13 8ZM19 8L19 9L16 9L16 10L14 10L14 11L13 11L13 12L14 12L14 11L15 11L15 12L17 12L17 16L18 16L18 14L19 14L19 15L20 15L20 17L19 17L19 18L18 18L18 19L16 19L16 17L15 17L15 16L14 16L14 19L13 19L13 20L12 20L12 19L10 19L10 20L9 20L9 22L10 22L10 23L11 23L11 24L10 24L10 26L11 26L11 25L12 25L12 27L11 27L11 28L12 28L12 27L14 27L14 28L13 28L13 29L14 29L14 28L15 28L15 29L16 29L16 30L14 30L14 31L16 31L16 33L17 33L17 35L15 35L15 36L17 36L17 38L18 38L18 37L19 37L19 36L18 36L18 35L20 35L20 34L18 34L18 31L17 31L17 30L18 30L18 29L20 29L20 31L19 31L19 33L20 33L20 32L21 32L21 29L20 29L20 27L21 27L21 28L22 28L22 29L23 29L23 30L25 30L25 32L24 32L24 31L22 31L22 32L23 32L23 33L21 33L21 35L22 35L22 34L25 34L25 32L27 32L27 34L26 34L26 35L27 35L27 36L24 36L24 35L23 35L23 36L24 36L24 37L25 37L25 38L26 38L26 39L29 39L29 38L28 38L28 37L27 37L27 36L29 36L29 35L30 35L30 36L31 36L31 35L32 35L32 34L31 34L31 33L29 33L29 32L27 32L27 31L26 31L26 29L25 29L25 28L26 28L26 27L27 27L27 24L28 24L28 23L29 23L29 25L30 25L30 26L29 26L29 27L28 27L28 28L30 28L30 30L29 30L29 29L27 29L27 30L29 30L29 31L30 31L30 32L31 32L31 31L32 31L32 30L33 30L33 28L34 28L34 26L33 26L33 25L35 25L35 26L36 26L36 25L37 25L37 24L38 24L38 22L37 22L37 21L38 21L38 20L39 20L39 19L38 19L38 20L37 20L37 19L36 19L36 20L37 20L37 21L35 21L35 22L34 22L34 21L33 21L33 22L31 22L31 21L32 21L32 20L34 20L34 17L36 17L36 15L37 15L37 14L36 14L36 15L34 15L34 17L33 17L33 16L32 16L32 15L31 15L31 14L32 14L32 12L31 12L31 11L30 11L30 12L31 12L31 14L29 14L29 15L31 15L31 16L32 16L32 17L33 17L33 19L32 19L32 18L31 18L31 17L30 17L30 16L28 16L28 17L27 17L27 15L26 15L26 17L27 17L27 18L26 18L26 19L25 19L25 20L24 20L24 18L25 18L25 17L23 17L23 16L24 16L24 15L25 15L25 14L23 14L23 13L21 13L21 12L22 12L22 10L21 10L21 9L20 9L20 8ZM34 8L34 9L35 9L35 8ZM41 8L41 9L42 9L42 11L43 11L43 10L44 10L44 9L45 9L45 8L44 8L44 9L43 9L43 8ZM19 9L19 11L20 11L20 12L18 12L18 11L17 11L17 10L16 10L16 11L17 11L17 12L18 12L18 13L19 13L19 14L20 14L20 12L21 12L21 11L20 11L20 9ZM36 10L36 11L37 11L37 10ZM44 11L44 12L45 12L45 11ZM25 12L25 13L26 13L26 12ZM27 12L27 14L28 14L28 12ZM48 12L48 14L49 14L49 12ZM14 13L14 14L13 14L13 15L14 15L14 14L16 14L16 13ZM4 14L4 16L6 16L6 17L10 17L10 16L6 16L6 15L5 15L5 14ZM21 15L21 17L20 17L20 19L19 19L19 20L20 20L20 22L19 22L19 21L18 21L18 20L17 20L17 21L18 21L18 22L16 22L16 21L15 21L15 22L16 22L16 23L18 23L18 22L19 22L19 24L15 24L15 23L14 23L14 21L12 21L12 20L10 20L10 22L12 22L12 23L13 23L13 24L12 24L12 25L13 25L13 26L14 26L14 27L15 27L15 25L16 25L16 26L17 26L17 25L20 25L20 26L22 26L22 25L21 25L21 24L20 24L20 23L22 23L22 22L21 22L21 21L23 21L23 22L24 22L24 21L23 21L23 20L22 20L22 19L23 19L23 17L22 17L22 15ZM11 16L11 18L13 18L13 16ZM3 17L3 18L5 18L5 17ZM38 17L38 18L39 18L39 17ZM40 17L40 18L41 18L41 17ZM27 18L27 20L28 20L28 21L29 21L29 23L31 23L31 25L33 25L33 24L34 24L34 23L31 23L31 22L30 22L30 21L31 21L31 20L32 20L32 19L31 19L31 20L30 20L30 21L29 21L29 19L28 19L28 18ZM6 19L6 20L7 20L7 19ZM15 19L15 20L16 20L16 19ZM2 20L2 22L3 22L3 21L4 21L4 20ZM25 20L25 21L26 21L26 20ZM5 21L5 22L7 22L7 21ZM43 21L43 22L44 22L44 21ZM5 23L5 26L8 26L8 23ZM23 23L23 26L26 26L26 23ZM41 23L41 26L44 26L44 23ZM45 23L45 26L46 26L46 23ZM47 23L47 24L48 24L48 23ZM6 24L6 25L7 25L7 24ZM24 24L24 25L25 25L25 24ZM35 24L35 25L36 25L36 24ZM42 24L42 25L43 25L43 24ZM32 26L32 27L30 27L30 28L32 28L32 27L33 27L33 26ZM4 27L4 28L5 28L5 27ZM6 27L6 28L7 28L7 29L4 29L4 30L3 30L3 31L2 31L2 32L1 32L1 34L3 34L3 35L5 35L5 34L8 34L8 33L5 33L5 34L3 34L3 31L4 31L4 32L5 32L5 31L6 31L6 32L8 32L8 31L9 31L9 30L8 30L8 28L7 28L7 27ZM16 27L16 28L17 28L17 29L18 29L18 28L19 28L19 27L18 27L18 28L17 28L17 27ZM24 27L24 28L23 28L23 29L24 29L24 28L25 28L25 27ZM46 27L46 28L47 28L47 27ZM4 30L4 31L5 31L5 30ZM6 30L6 31L8 31L8 30ZM30 30L30 31L31 31L31 30ZM41 30L41 31L40 31L40 32L39 32L39 33L34 33L34 34L35 34L35 35L34 35L34 36L35 36L35 37L34 37L34 41L35 41L35 37L36 37L36 36L35 36L35 35L36 35L36 34L38 34L38 35L37 35L37 36L39 36L39 35L40 35L40 34L42 34L42 35L44 35L44 34L45 34L45 33L44 33L44 32L41 32L41 31L42 31L42 30ZM40 32L40 33L41 33L41 32ZM9 33L9 34L10 34L10 33ZM28 33L28 35L29 35L29 33ZM6 35L6 36L5 36L5 37L6 37L6 36L7 36L7 35ZM13 36L13 37L12 37L12 38L13 38L13 37L14 37L14 36ZM40 36L40 37L42 37L42 36ZM26 37L26 38L27 38L27 37ZM37 37L37 38L38 38L38 37ZM43 37L43 38L44 38L44 37ZM28 40L28 41L29 41L29 40ZM37 40L37 42L36 42L36 44L37 44L37 43L38 43L38 41L39 41L39 40ZM23 41L23 44L26 44L26 41ZM41 41L41 44L44 44L44 41ZM45 41L45 42L46 42L46 41ZM24 42L24 43L25 43L25 42ZM42 42L42 43L43 43L43 42ZM24 45L24 47L25 47L25 46L26 46L26 45ZM48 45L48 46L49 46L49 45ZM14 46L14 47L15 47L15 46ZM36 46L36 47L37 47L37 46ZM43 46L43 47L44 47L44 46ZM33 47L33 48L34 48L34 47ZM16 48L16 49L18 49L18 48ZM19 48L19 49L21 49L21 48ZM40 48L40 49L42 49L42 48ZM0 0L0 7L7 7L7 0ZM1 1L1 6L6 6L6 1ZM2 2L2 5L5 5L5 2ZM42 0L42 7L49 7L49 0ZM43 1L43 6L48 6L48 1ZM44 2L44 5L47 5L47 2ZM0 42L0 49L7 49L7 42ZM1 43L1 48L6 48L6 43ZM2 44L2 47L5 47L5 44Z" fill="#000000"/></g></g></svg>
