<?xml version="1.0" encoding="UTF-8"?>
<svg xmlns="http://www.w3.org/2000/svg" version="1.1" width="200" height="200" viewBox="0 0 200 200"><rect x="0" y="0" width="200" height="200" fill="#ffffff"/><g transform="scale(3.774)"><g transform="translate(2,2)"><path fill-rule="evenodd" d="M8 0L8 1L9 1L9 3L8 3L8 4L9 4L9 3L10 3L10 2L11 2L11 4L10 4L10 5L9 5L9 6L8 6L8 7L9 7L9 6L10 6L10 7L11 7L11 8L10 8L10 9L9 9L9 8L8 8L8 9L9 9L9 10L6 10L6 9L7 9L7 8L4 8L4 9L5 9L5 10L4 10L4 11L3 11L3 18L4 18L4 19L3 19L3 20L4 20L4 21L5 21L5 22L4 22L4 23L3 23L3 22L2 22L2 20L0 20L0 25L1 25L1 24L2 24L2 26L0 26L0 29L1 29L1 30L2 30L2 31L3 31L3 29L9 29L9 28L10 28L10 27L9 27L9 24L10 24L10 25L12 25L12 26L11 26L11 27L12 27L12 26L13 26L13 27L14 27L14 28L15 28L15 30L16 30L16 31L15 31L15 32L14 32L14 30L13 30L13 28L11 28L11 29L10 29L10 31L11 31L11 32L9 32L9 31L8 31L8 30L6 30L6 31L5 31L5 30L4 30L4 31L5 31L5 32L3 32L3 33L2 33L2 32L1 32L1 31L0 31L0 33L2 33L2 34L0 34L0 38L1 38L1 40L0 40L0 41L3 41L3 40L4 40L4 39L2 39L2 37L3 37L3 36L1 36L1 35L2 35L2 34L3 34L3 35L4 35L4 36L5 36L5 37L4 37L4 38L5 38L5 39L7 39L7 38L8 38L8 39L12 39L12 40L11 40L11 41L12 41L12 42L11 42L11 43L12 43L12 42L13 42L13 44L12 44L12 45L10 45L10 44L9 44L9 43L8 43L8 45L9 45L9 46L8 46L8 47L9 47L9 46L11 46L11 47L10 47L10 49L11 49L11 48L12 48L12 45L13 45L13 44L14 44L14 43L17 43L17 44L16 44L16 46L17 46L17 47L15 47L15 45L14 45L14 48L13 48L13 49L14 49L14 48L16 48L16 49L19 49L19 46L20 46L20 48L21 48L21 49L24 49L24 48L23 48L23 47L24 47L24 46L23 46L23 47L22 47L22 48L21 48L21 46L22 46L22 45L25 45L25 46L26 46L26 45L27 45L27 47L26 47L26 49L28 49L28 48L27 48L27 47L28 47L28 45L27 45L27 44L31 44L31 43L30 43L30 41L31 41L31 42L32 42L32 45L31 45L31 46L32 46L32 49L33 49L33 48L34 48L34 45L35 45L35 46L36 46L36 49L37 49L37 47L38 47L38 45L39 45L39 48L38 48L38 49L40 49L40 48L41 48L41 49L42 49L42 47L43 47L43 48L44 48L44 49L46 49L46 47L45 47L45 46L46 46L46 43L47 43L47 44L48 44L48 45L47 45L47 49L49 49L49 48L48 48L48 47L49 47L49 46L48 46L48 45L49 45L49 44L48 44L48 43L49 43L49 36L48 36L48 35L49 35L49 33L48 33L48 35L47 35L47 36L48 36L48 39L47 39L47 40L48 40L48 43L47 43L47 42L46 42L46 40L44 40L44 39L46 39L46 35L45 35L45 38L44 38L44 36L43 36L43 34L44 34L44 32L43 32L43 30L42 30L42 29L43 29L43 28L44 28L44 27L45 27L45 30L46 30L46 27L47 27L47 28L48 28L48 31L49 31L49 25L46 25L46 23L47 23L47 24L49 24L49 20L48 20L48 23L47 23L47 22L46 22L46 23L45 23L45 21L46 21L46 19L45 19L45 18L46 18L46 16L45 16L45 15L44 15L44 21L43 21L43 22L42 22L42 21L41 21L41 22L40 22L40 19L41 19L41 20L42 20L42 19L43 19L43 18L42 18L42 16L41 16L41 15L42 15L42 13L43 13L43 12L42 12L42 8L41 8L41 12L42 12L42 13L41 13L41 14L40 14L40 7L41 7L41 6L40 6L40 7L39 7L39 5L38 5L38 3L37 3L37 5L38 5L38 7L37 7L37 6L36 6L36 7L37 7L37 8L36 8L36 9L37 9L37 10L36 10L36 11L34 11L34 9L35 9L35 8L34 8L34 7L35 7L35 4L36 4L36 1L35 1L35 0L34 0L34 3L32 3L32 2L31 2L31 3L29 3L29 4L28 4L28 9L29 9L29 6L30 6L30 8L31 8L31 6L32 6L32 7L33 7L33 8L34 8L34 9L33 9L33 10L32 10L32 9L30 9L30 11L29 11L29 13L30 13L30 12L31 12L31 14L30 14L30 15L29 15L29 14L28 14L28 11L26 11L26 10L24 10L24 9L27 9L27 2L26 2L26 3L22 3L22 0L21 0L21 2L18 2L18 1L16 1L16 2L15 2L15 3L16 3L16 2L17 2L17 3L18 3L18 4L17 4L17 6L16 6L16 7L15 7L15 5L16 5L16 4L15 4L15 5L13 5L13 6L12 6L12 5L11 5L11 4L12 4L12 2L13 2L13 4L14 4L14 1L15 1L15 0L14 0L14 1L13 1L13 0ZM19 0L19 1L20 1L20 0ZM25 0L25 1L27 1L27 0ZM32 0L32 1L33 1L33 0ZM37 0L37 2L39 2L39 4L40 4L40 3L41 3L41 0L40 0L40 1L38 1L38 0ZM23 1L23 2L24 2L24 1ZM28 1L28 2L29 2L29 1ZM34 3L34 4L31 4L31 5L32 5L32 6L33 6L33 7L34 7L34 4L35 4L35 3ZM18 4L18 5L21 5L21 7L20 7L20 6L19 6L19 9L18 9L18 6L17 6L17 8L15 8L15 7L14 7L14 6L13 6L13 7L12 7L12 6L11 6L11 7L12 7L12 8L15 8L15 9L17 9L17 10L19 10L19 12L18 12L18 13L17 13L17 14L18 14L18 15L19 15L19 16L17 16L17 17L16 17L16 18L14 18L14 16L16 16L16 15L14 15L14 16L13 16L13 19L15 19L15 20L11 20L11 21L8 21L8 20L10 20L10 18L11 18L11 19L12 19L12 18L11 18L11 17L12 17L12 16L11 16L11 15L10 15L10 14L12 14L12 15L13 15L13 14L12 14L12 13L10 13L10 12L13 12L13 13L14 13L14 12L15 12L15 14L16 14L16 12L17 12L17 11L16 11L16 12L15 12L15 10L14 10L14 9L10 9L10 10L11 10L11 11L9 11L9 13L10 13L10 14L8 14L8 15L6 15L6 14L7 14L7 13L8 13L8 12L7 12L7 11L6 11L6 10L5 10L5 13L4 13L4 14L5 14L5 15L4 15L4 17L6 17L6 18L5 18L5 19L4 19L4 20L5 20L5 19L6 19L6 20L7 20L7 21L6 21L6 22L10 22L10 23L12 23L12 22L13 22L13 21L14 21L14 22L15 22L15 20L16 20L16 21L17 21L17 22L18 22L18 25L17 25L17 24L16 24L16 27L15 27L15 28L16 28L16 27L17 27L17 31L16 31L16 32L15 32L15 33L14 33L14 34L15 34L15 33L16 33L16 34L17 34L17 35L16 35L16 36L14 36L14 37L11 37L11 33L12 33L12 35L13 35L13 33L12 33L12 32L13 32L13 31L12 31L12 30L11 30L11 31L12 31L12 32L11 32L11 33L9 33L9 32L8 32L8 34L7 34L7 33L3 33L3 34L4 34L4 35L5 35L5 34L7 34L7 35L6 35L6 36L7 36L7 37L6 37L6 38L7 38L7 37L8 37L8 38L9 38L9 37L11 37L11 38L13 38L13 41L14 41L14 42L16 42L16 41L15 41L15 40L17 40L17 43L18 43L18 41L19 41L19 40L20 40L20 41L21 41L21 42L19 42L19 43L20 43L20 46L21 46L21 45L22 45L22 41L21 41L21 39L22 39L22 40L24 40L24 39L25 39L25 40L27 40L27 39L28 39L28 41L27 41L27 43L29 43L29 39L30 39L30 40L31 40L31 41L32 41L32 42L33 42L33 41L32 41L32 39L30 39L30 38L31 38L31 37L32 37L32 35L33 35L33 34L32 34L32 35L31 35L31 34L29 34L29 33L31 33L31 32L30 32L30 31L29 31L29 30L27 30L27 29L29 29L29 28L30 28L30 30L31 30L31 29L32 29L32 30L33 30L33 29L32 29L32 26L33 26L33 25L34 25L34 27L35 27L35 29L34 29L34 31L36 31L36 33L38 33L38 36L37 36L37 37L38 37L38 40L39 40L39 41L38 41L38 42L39 42L39 43L40 43L40 42L39 42L39 41L40 41L40 40L42 40L42 38L43 38L43 39L44 39L44 38L43 38L43 37L42 37L42 34L41 34L41 33L42 33L42 32L41 32L41 31L42 31L42 30L41 30L41 29L42 29L42 27L39 27L39 25L40 25L40 24L39 24L39 21L38 21L38 20L39 20L39 19L38 19L38 17L39 17L39 16L38 16L38 15L40 15L40 14L39 14L39 13L38 13L38 12L39 12L39 7L38 7L38 8L37 8L37 9L38 9L38 11L37 11L37 13L36 13L36 12L34 12L34 11L33 11L33 13L34 13L34 15L33 15L33 14L32 14L32 15L30 15L30 16L32 16L32 17L31 17L31 18L28 18L28 17L29 17L29 16L28 16L28 15L27 15L27 13L26 13L26 11L25 11L25 12L24 12L24 10L23 10L23 12L21 12L21 11L22 11L22 8L21 8L21 7L22 7L22 5L21 5L21 4ZM29 4L29 5L30 5L30 4ZM23 5L23 8L26 8L26 5ZM24 6L24 7L25 7L25 6ZM2 8L2 9L1 9L1 10L3 10L3 8ZM20 8L20 9L19 9L19 10L21 10L21 8ZM45 8L45 11L44 11L44 13L46 13L46 14L47 14L47 13L46 13L46 11L47 11L47 12L48 12L48 15L47 15L47 16L48 16L48 19L49 19L49 16L48 16L48 15L49 15L49 8L48 8L48 11L47 11L47 10L46 10L46 8ZM43 9L43 10L44 10L44 9ZM13 10L13 12L14 12L14 10ZM0 11L0 13L2 13L2 11ZM31 11L31 12L32 12L32 11ZM6 12L6 13L7 13L7 12ZM23 12L23 15L20 15L20 14L22 14L22 13L20 13L20 14L19 14L19 13L18 13L18 14L19 14L19 15L20 15L20 16L19 16L19 17L17 17L17 18L16 18L16 19L17 19L17 18L18 18L18 19L19 19L19 20L20 20L20 21L19 21L19 22L21 22L21 23L22 23L22 25L21 25L21 24L20 24L20 23L19 23L19 24L20 24L20 25L18 25L18 26L17 26L17 27L18 27L18 26L20 26L20 25L21 25L21 27L26 27L26 29L25 29L25 28L24 28L24 29L23 29L23 30L24 30L24 31L25 31L25 32L23 32L23 31L22 31L22 29L20 29L20 28L18 28L18 29L20 29L20 30L21 30L21 31L22 31L22 32L21 32L21 33L20 33L20 34L19 34L19 33L18 33L18 34L19 34L19 36L18 36L18 35L17 35L17 36L18 36L18 38L17 38L17 40L19 40L19 39L18 39L18 38L20 38L20 39L21 39L21 37L24 37L24 38L25 38L25 36L26 36L26 39L27 39L27 38L28 38L28 37L29 37L29 38L30 38L30 37L29 37L29 36L28 36L28 35L29 35L29 34L25 34L25 32L26 32L26 33L27 33L27 32L29 32L29 31L27 31L27 32L26 32L26 29L27 29L27 27L28 27L28 26L29 26L29 24L30 24L30 26L31 26L31 24L30 24L30 23L28 23L28 20L29 20L29 21L30 21L30 22L31 22L31 23L33 23L33 24L32 24L32 25L33 25L33 24L34 24L34 25L35 25L35 26L36 26L36 29L37 29L37 30L36 30L36 31L37 31L37 32L38 32L38 33L39 33L39 34L40 34L40 33L41 33L41 32L40 32L40 33L39 33L39 32L38 32L38 29L37 29L37 28L38 28L38 25L37 25L37 23L38 23L38 21L37 21L37 20L38 20L38 19L37 19L37 15L38 15L38 13L37 13L37 14L36 14L36 13L35 13L35 14L36 14L36 17L34 17L34 19L35 19L35 18L36 18L36 21L35 21L35 22L36 22L36 21L37 21L37 23L36 23L36 25L35 25L35 24L34 24L34 21L32 21L32 20L31 20L31 21L30 21L30 19L28 19L28 20L27 20L27 21L26 21L26 18L27 18L27 17L28 17L28 16L27 16L27 15L26 15L26 18L23 18L23 20L24 20L24 21L23 21L23 22L21 22L21 20L22 20L22 19L21 19L21 20L20 20L20 19L19 19L19 18L21 18L21 17L24 17L24 15L25 15L25 14L26 14L26 13L25 13L25 14L24 14L24 12ZM0 14L0 16L2 16L2 15L1 15L1 14ZM8 15L8 16L6 16L6 17L8 17L8 16L9 16L9 17L10 17L10 15ZM34 15L34 16L35 16L35 15ZM0 17L0 18L2 18L2 17ZM32 17L32 18L31 18L31 19L32 19L32 18L33 18L33 17ZM40 17L40 18L41 18L41 19L42 19L42 18L41 18L41 17ZM6 18L6 19L7 19L7 20L8 20L8 19L7 19L7 18ZM24 19L24 20L25 20L25 19ZM17 20L17 21L18 21L18 20ZM11 21L11 22L12 22L12 21ZM24 21L24 22L25 22L25 21ZM31 21L31 22L32 22L32 21ZM1 22L1 23L2 23L2 24L3 24L3 26L2 26L2 27L1 27L1 28L2 28L2 27L3 27L3 28L5 28L5 27L4 27L4 24L3 24L3 23L2 23L2 22ZM5 23L5 26L8 26L8 23ZM13 23L13 24L12 24L12 25L13 25L13 26L14 26L14 25L13 25L13 24L14 24L14 23ZM23 23L23 26L26 26L26 23ZM27 23L27 24L28 24L28 23ZM41 23L41 26L44 26L44 23ZM6 24L6 25L7 25L7 24ZM24 24L24 25L25 25L25 24ZM42 24L42 25L43 25L43 24ZM27 25L27 26L28 26L28 25ZM45 26L45 27L46 27L46 26ZM47 26L47 27L48 27L48 26ZM6 27L6 28L7 28L7 27ZM24 29L24 30L25 30L25 29ZM39 29L39 31L40 31L40 29ZM18 30L18 32L19 32L19 30ZM6 31L6 32L7 32L7 31ZM32 31L32 33L34 33L34 40L35 40L35 41L34 41L34 42L35 42L35 43L34 43L34 44L33 44L33 45L34 45L34 44L35 44L35 45L36 45L36 46L37 46L37 45L36 45L36 42L35 42L35 41L36 41L36 35L37 35L37 34L36 34L36 35L35 35L35 33L34 33L34 32L33 32L33 31ZM45 31L45 33L46 33L46 31ZM21 33L21 34L20 34L20 36L22 36L22 35L24 35L24 34L22 34L22 33ZM21 34L21 35L22 35L22 34ZM7 35L7 36L8 36L8 37L9 37L9 36L10 36L10 35L9 35L9 36L8 36L8 35ZM26 35L26 36L27 36L27 35ZM40 36L40 38L39 38L39 39L40 39L40 38L42 38L42 37L41 37L41 36ZM14 37L14 38L16 38L16 37ZM22 38L22 39L23 39L23 38ZM14 39L14 40L15 40L15 39ZM6 40L6 41L7 41L7 40ZM8 40L8 42L9 42L9 41L10 41L10 40ZM23 41L23 44L26 44L26 41ZM41 41L41 44L44 44L44 41ZM24 42L24 43L25 43L25 42ZM42 42L42 43L43 43L43 42ZM45 42L45 43L46 43L46 42ZM17 44L17 45L18 45L18 46L19 46L19 45L18 45L18 44ZM39 44L39 45L40 45L40 47L42 47L42 46L43 46L43 47L44 47L44 48L45 48L45 47L44 47L44 45L42 45L42 46L41 46L41 45L40 45L40 44ZM29 45L29 47L30 47L30 48L29 48L29 49L30 49L30 48L31 48L31 47L30 47L30 45ZM0 0L0 7L7 7L7 0ZM1 1L1 6L6 6L6 1ZM2 2L2 5L5 5L5 2ZM42 0L42 7L49 7L49 0ZM43 1L43 6L48 6L48 1ZM44 2L44 5L47 5L47 2ZM0 42L0 49L7 49L7 42ZM1 43L1 48L6 48L6 43ZM2 44L2 47L5 47L5 44Z" fill="#000000"/></g></g></svg>
