<?xml version="1.0" encoding="UTF-8"?>
<svg xmlns="http://www.w3.org/2000/svg" version="1.1" width="200" height="200" viewBox="0 0 200 200"><rect x="0" y="0" width="200" height="200" fill="#ffffff"/><g transform="scale(3.774)"><g transform="translate(2,2)"><path fill-rule="evenodd" d="M8 0L8 2L9 2L9 3L8 3L8 7L9 7L9 9L10 9L10 11L9 11L9 10L8 10L8 11L7 11L7 10L6 10L6 9L7 9L7 8L6 8L6 9L5 9L5 10L6 10L6 11L7 11L7 12L5 12L5 11L4 11L4 10L3 10L3 9L4 9L4 8L3 8L3 9L1 9L1 10L0 10L0 11L1 11L1 12L0 12L0 16L1 16L1 17L0 17L0 19L2 19L2 18L4 18L4 19L3 19L3 20L0 20L0 25L1 25L1 26L0 26L0 29L1 29L1 30L0 30L0 33L3 33L3 35L2 35L2 34L0 34L0 35L2 35L2 36L0 36L0 38L1 38L1 40L0 40L0 41L3 41L3 40L4 40L4 39L2 39L2 37L3 37L3 35L4 35L4 36L5 36L5 39L7 39L7 38L6 38L6 37L7 37L7 36L8 36L8 37L9 37L9 39L11 39L11 40L6 40L6 41L8 41L8 42L9 42L9 43L10 43L10 49L11 49L11 47L12 47L12 45L13 45L13 42L15 42L15 41L14 41L14 40L15 40L15 38L16 38L16 39L17 39L17 40L19 40L19 41L16 41L16 42L18 42L18 43L14 43L14 44L16 44L16 47L15 47L15 46L13 46L13 47L15 47L15 48L16 48L16 49L19 49L19 47L21 47L21 46L22 46L22 48L21 48L21 49L24 49L24 46L23 46L23 45L25 45L25 47L26 47L26 48L27 48L27 47L29 47L29 48L28 48L28 49L30 49L30 48L31 48L31 47L33 47L33 48L32 48L32 49L33 49L33 48L34 48L34 47L35 47L35 48L36 48L36 49L37 49L37 48L39 48L39 49L40 49L40 48L41 48L41 49L42 49L42 48L41 48L41 46L42 46L42 47L43 47L43 48L44 48L44 49L46 49L46 47L45 47L45 45L46 45L46 44L47 44L47 47L49 47L49 46L48 46L48 45L49 45L49 44L48 44L48 43L49 43L49 36L48 36L48 38L47 38L47 37L46 37L46 35L47 35L47 34L46 34L46 35L44 35L44 33L46 33L46 32L47 32L47 33L48 33L48 35L49 35L49 33L48 33L48 32L47 32L47 31L45 31L45 32L44 32L44 31L43 31L43 30L42 30L42 31L40 31L40 29L41 29L41 28L40 28L40 29L38 29L38 27L42 27L42 28L43 28L43 29L44 29L44 30L46 30L46 29L47 29L47 30L48 30L48 31L49 31L49 25L47 25L47 26L46 26L46 23L45 23L45 21L46 21L46 20L47 20L47 21L48 21L48 24L49 24L49 20L47 20L47 19L45 19L45 18L46 18L46 17L47 17L47 18L48 18L48 19L49 19L49 16L48 16L48 15L49 15L49 8L47 8L47 9L48 9L48 14L47 14L47 16L45 16L45 14L44 14L44 13L46 13L46 8L43 8L43 11L44 11L44 9L45 9L45 12L44 12L44 13L43 13L43 12L42 12L42 13L40 13L40 12L41 12L41 11L42 11L42 9L41 9L41 11L40 11L40 8L41 8L41 6L40 6L40 7L39 7L39 5L38 5L38 7L39 7L39 8L38 8L38 9L37 9L37 8L35 8L35 6L36 6L36 7L37 7L37 6L36 6L36 5L34 5L34 7L33 7L33 5L31 5L31 4L34 4L34 3L35 3L35 4L36 4L36 3L35 3L35 2L36 2L36 1L35 1L35 0L34 0L34 1L35 1L35 2L34 2L34 3L32 3L32 2L33 2L33 0L30 0L30 2L29 2L29 1L27 1L27 0L26 0L26 2L27 2L27 3L24 3L24 1L25 1L25 0L24 0L24 1L21 1L21 2L23 2L23 3L22 3L22 4L21 4L21 3L20 3L20 0L19 0L19 2L18 2L18 1L17 1L17 2L18 2L18 4L17 4L17 3L16 3L16 2L13 2L13 0ZM14 0L14 1L15 1L15 0ZM37 0L37 1L38 1L38 2L39 2L39 4L40 4L40 3L41 3L41 0L40 0L40 1L38 1L38 0ZM10 1L10 3L9 3L9 7L10 7L10 8L11 8L11 11L12 11L12 13L9 13L9 15L10 15L10 16L13 16L13 14L12 14L12 13L13 13L13 11L14 11L14 16L15 16L15 17L8 17L8 15L6 15L6 14L8 14L8 12L9 12L9 11L8 11L8 12L7 12L7 13L5 13L5 12L4 12L4 13L5 13L5 14L4 14L4 15L5 15L5 18L8 18L8 19L6 19L6 20L5 20L5 21L4 21L4 20L3 20L3 21L4 21L4 22L3 22L3 28L2 28L2 27L1 27L1 29L3 29L3 30L2 30L2 32L3 32L3 31L4 31L4 32L5 32L5 33L4 33L4 34L7 34L7 35L5 35L5 36L7 36L7 35L8 35L8 36L9 36L9 34L10 34L10 33L11 33L11 32L14 32L14 31L15 31L15 33L16 33L16 36L15 36L15 34L13 34L13 33L12 33L12 35L11 35L11 37L10 37L10 38L11 38L11 39L13 39L13 40L12 40L12 41L9 41L9 42L12 42L12 41L13 41L13 40L14 40L14 38L15 38L15 37L16 37L16 38L17 38L17 39L19 39L19 40L20 40L20 39L21 39L21 40L24 40L24 39L25 39L25 40L29 40L29 38L24 38L24 37L23 37L23 38L24 38L24 39L22 39L22 37L21 37L21 36L22 36L22 35L23 35L23 33L21 33L21 34L20 34L20 32L21 32L21 29L22 29L22 28L24 28L24 30L25 30L25 31L24 31L24 33L25 33L25 35L24 35L24 36L25 36L25 37L26 37L26 34L28 34L28 36L29 36L29 37L30 37L30 38L31 38L31 37L32 37L32 36L33 36L33 34L30 34L30 33L31 33L31 32L33 32L33 33L34 33L34 34L35 34L35 33L38 33L38 34L36 34L36 35L37 35L37 37L36 37L36 36L35 36L35 38L34 38L34 42L35 42L35 44L36 44L36 38L40 38L40 39L38 39L38 40L37 40L37 41L38 41L38 40L39 40L39 41L40 41L40 40L42 40L42 39L41 39L41 37L42 37L42 38L43 38L43 39L44 39L44 40L47 40L47 41L46 41L46 42L45 42L45 43L46 43L46 42L47 42L47 43L48 43L48 42L47 42L47 41L48 41L48 40L47 40L47 38L46 38L46 39L45 39L45 36L44 36L44 35L43 35L43 36L44 36L44 37L42 37L42 36L41 36L41 35L42 35L42 34L41 34L41 33L40 33L40 31L39 31L39 30L38 30L38 31L36 31L36 30L37 30L37 29L36 29L36 27L35 27L35 26L36 26L36 24L35 24L35 23L37 23L37 24L38 24L38 25L37 25L37 26L39 26L39 25L40 25L40 24L38 24L38 23L39 23L39 19L38 19L38 18L39 18L39 16L38 16L38 15L37 15L37 14L39 14L39 15L40 15L40 14L39 14L39 13L38 13L38 11L39 11L39 9L38 9L38 10L37 10L37 9L34 9L34 8L33 8L33 7L32 7L32 6L31 6L31 7L32 7L32 8L30 8L30 9L28 9L28 8L29 8L29 7L30 7L30 4L28 4L28 5L27 5L27 9L24 9L24 10L22 10L22 9L21 9L21 8L22 8L22 5L21 5L21 7L20 7L20 6L19 6L19 7L18 7L18 6L17 6L17 5L16 5L16 6L15 6L15 4L16 4L16 3L14 3L14 6L13 6L13 5L11 5L11 4L12 4L12 3L13 3L13 2L11 2L11 1ZM31 1L31 2L30 2L30 3L31 3L31 2L32 2L32 1ZM28 2L28 3L29 3L29 2ZM37 3L37 4L38 4L38 3ZM18 4L18 5L20 5L20 4ZM23 5L23 8L26 8L26 5ZM28 5L28 7L29 7L29 5ZM10 6L10 7L11 7L11 6ZM12 6L12 9L14 9L14 10L15 10L15 13L16 13L16 14L15 14L15 15L17 15L17 16L16 16L16 19L20 19L20 20L23 20L23 22L21 22L21 21L19 21L19 20L18 20L18 22L17 22L17 21L16 21L16 20L15 20L15 18L12 18L12 20L11 20L11 22L10 22L10 20L9 20L9 22L6 22L6 21L7 21L7 20L6 20L6 21L5 21L5 22L4 22L4 27L5 27L5 28L3 28L3 29L4 29L4 31L5 31L5 32L6 32L6 33L7 33L7 34L9 34L9 33L10 33L10 30L11 30L11 29L14 29L14 30L12 30L12 31L14 31L14 30L15 30L15 31L16 31L16 32L17 32L17 34L19 34L19 32L20 32L20 31L19 31L19 30L18 30L18 29L19 29L19 28L18 28L18 29L17 29L17 27L16 27L16 26L17 26L17 25L18 25L18 26L19 26L19 25L18 25L18 24L17 24L17 23L18 23L18 22L19 22L19 24L20 24L20 25L21 25L21 26L20 26L20 27L21 27L21 28L22 28L22 27L26 27L26 28L27 28L27 27L31 27L31 26L32 26L32 25L33 25L33 27L32 27L32 28L31 28L31 30L29 30L29 29L30 29L30 28L29 28L29 29L28 29L28 30L29 30L29 31L30 31L30 32L29 32L29 33L30 33L30 32L31 32L31 30L32 30L32 31L33 31L33 32L34 32L34 33L35 33L35 32L36 32L36 31L35 31L35 32L34 32L34 28L35 28L35 27L34 27L34 26L35 26L35 24L34 24L34 23L35 23L35 22L36 22L36 21L37 21L37 22L38 22L38 21L37 21L37 17L38 17L38 16L37 16L37 15L36 15L36 13L37 13L37 10L36 10L36 13L33 13L33 12L31 12L31 11L30 11L30 10L32 10L32 11L34 11L34 12L35 12L35 10L34 10L34 9L33 9L33 8L32 8L32 9L30 9L30 10L28 10L28 11L27 11L27 12L25 12L25 10L24 10L24 11L20 11L20 10L21 10L21 9L19 9L19 8L20 8L20 7L19 7L19 8L17 8L17 6L16 6L16 8L17 8L17 9L15 9L15 6L14 6L14 8L13 8L13 6ZM24 6L24 7L25 7L25 6ZM18 9L18 10L19 10L19 9ZM32 9L32 10L33 10L33 9ZM1 10L1 11L3 11L3 10ZM16 10L16 13L17 13L17 10ZM18 11L18 13L19 13L19 14L17 14L17 15L19 15L19 16L17 16L17 18L18 18L18 17L19 17L19 18L20 18L20 17L21 17L21 19L24 19L24 20L28 20L28 22L29 22L29 25L30 25L30 26L31 26L31 25L32 25L32 21L31 21L31 20L30 20L30 21L29 21L29 19L31 19L31 18L32 18L32 15L30 15L30 16L31 16L31 18L30 18L30 17L28 17L28 16L29 16L29 15L28 15L28 16L27 16L27 17L24 17L24 16L26 16L26 14L25 14L25 12L24 12L24 14L22 14L22 13L23 13L23 12L21 12L21 13L19 13L19 12L20 12L20 11ZM28 11L28 13L29 13L29 14L32 14L32 13L31 13L31 12L30 12L30 11ZM2 12L2 13L1 13L1 15L2 15L2 17L3 17L3 15L2 15L2 14L3 14L3 12ZM29 12L29 13L30 13L30 12ZM42 13L42 14L41 14L41 16L40 16L40 18L41 18L41 19L42 19L42 22L43 22L43 21L45 21L45 20L43 20L43 19L42 19L42 18L44 18L44 17L43 17L43 16L44 16L44 14L43 14L43 13ZM10 14L10 15L12 15L12 14ZM19 14L19 15L20 15L20 16L19 16L19 17L20 17L20 16L21 16L21 15L22 15L22 14L21 14L21 15L20 15L20 14ZM24 14L24 15L23 15L23 16L24 16L24 15L25 15L25 14ZM34 14L34 15L33 15L33 19L32 19L32 20L33 20L33 21L34 21L34 22L35 22L35 20L36 20L36 15L35 15L35 14ZM34 15L34 20L35 20L35 15ZM6 16L6 17L7 17L7 16ZM41 16L41 17L42 17L42 16ZM47 16L47 17L48 17L48 16ZM9 18L9 19L10 19L10 18ZM24 18L24 19L26 19L26 18ZM27 18L27 19L28 19L28 18ZM13 19L13 20L12 20L12 22L11 22L11 24L12 24L12 25L11 25L11 26L10 26L10 24L9 24L9 27L10 27L10 28L8 28L8 29L6 29L6 28L7 28L7 27L6 27L6 28L5 28L5 31L6 31L6 32L7 32L7 31L9 31L9 30L10 30L10 28L14 28L14 29L15 29L15 30L16 30L16 27L15 27L15 26L14 26L14 27L13 27L13 26L12 26L12 25L13 25L13 24L15 24L15 23L14 23L14 22L15 22L15 20L14 20L14 19ZM13 20L13 21L14 21L14 20ZM40 20L40 22L41 22L41 20ZM24 21L24 22L25 22L25 21ZM30 21L30 22L31 22L31 21ZM12 22L12 24L13 24L13 22ZM16 22L16 23L17 23L17 22ZM20 22L20 23L21 23L21 25L22 25L22 23L21 23L21 22ZM5 23L5 26L8 26L8 23ZM23 23L23 26L26 26L26 23ZM30 23L30 25L31 25L31 23ZM41 23L41 26L44 26L44 23ZM1 24L1 25L2 25L2 24ZM6 24L6 25L7 25L7 24ZM16 24L16 25L17 25L17 24ZM24 24L24 25L25 25L25 24ZM33 24L33 25L34 25L34 24ZM42 24L42 25L43 25L43 24ZM45 26L45 27L44 27L44 29L45 29L45 27L46 27L46 28L47 28L47 29L48 29L48 27L46 27L46 26ZM14 27L14 28L15 28L15 27ZM8 29L8 30L9 30L9 29ZM26 29L26 30L27 30L27 29ZM32 29L32 30L33 30L33 29ZM35 29L35 30L36 30L36 29ZM6 30L6 31L7 31L7 30ZM18 31L18 32L19 32L19 31ZM22 31L22 32L23 32L23 31ZM27 31L27 32L25 32L25 33L27 33L27 32L28 32L28 31ZM39 33L39 34L40 34L40 35L41 35L41 34L40 34L40 33ZM21 34L21 35L19 35L19 36L18 36L18 35L17 35L17 38L18 38L18 37L20 37L20 38L21 38L21 37L20 37L20 36L21 36L21 35L22 35L22 34ZM12 35L12 36L13 36L13 37L11 37L11 38L13 38L13 37L15 37L15 36L14 36L14 35ZM29 35L29 36L30 36L30 35ZM38 35L38 37L39 37L39 35ZM40 36L40 37L41 37L41 36ZM32 38L32 39L30 39L30 40L32 40L32 39L33 39L33 38ZM20 41L20 42L19 42L19 43L18 43L18 44L20 44L20 43L22 43L22 41ZM23 41L23 44L26 44L26 41ZM27 41L27 42L30 42L30 45L29 45L29 43L28 43L28 44L27 44L27 45L26 45L26 47L27 47L27 45L28 45L28 46L29 46L29 47L31 47L31 46L30 46L30 45L34 45L34 46L35 46L35 47L36 47L36 46L37 46L37 47L39 47L39 45L40 45L40 46L41 46L41 45L40 45L40 44L38 44L38 43L37 43L37 44L38 44L38 46L37 46L37 45L36 45L36 46L35 46L35 45L34 45L34 44L31 44L31 43L32 43L32 42L31 42L31 41ZM41 41L41 44L44 44L44 41ZM24 42L24 43L25 43L25 42ZM39 42L39 43L40 43L40 42ZM42 42L42 43L43 43L43 42ZM11 43L11 44L12 44L12 43ZM8 45L8 46L9 46L9 45ZM18 45L18 46L19 46L19 45ZM20 45L20 46L21 46L21 45ZM42 45L42 46L44 46L44 45ZM17 47L17 48L18 48L18 47ZM13 48L13 49L14 49L14 48ZM47 48L47 49L49 49L49 48ZM0 0L0 7L7 7L7 0ZM1 1L1 6L6 6L6 1ZM2 2L2 5L5 5L5 2ZM42 0L42 7L49 7L49 0ZM43 1L43 6L48 6L48 1ZM44 2L44 5L47 5L47 2ZM0 42L0 49L7 49L7 42ZM1 43L1 48L6 48L6 43ZM2 44L2 47L5 47L5 44Z" fill="#000000"/></g></g></svg>
