<?xml version="1.0" encoding="UTF-8"?>
<svg xmlns="http://www.w3.org/2000/svg" version="1.1" width="200" height="200" viewBox="0 0 200 200"><rect x="0" y="0" width="200" height="200" fill="#ffffff"/><g transform="scale(3.774)"><g transform="translate(2,2)"><path fill-rule="evenodd" d="M10 0L10 2L11 2L11 3L9 3L9 2L8 2L8 4L9 4L9 5L10 5L10 4L12 4L12 5L11 5L11 6L10 6L10 7L11 7L11 6L12 6L12 8L10 8L10 9L8 9L8 8L6 8L6 9L7 9L7 10L5 10L5 8L3 8L3 9L1 9L1 10L0 10L0 11L1 11L1 13L2 13L2 14L0 14L0 15L2 15L2 16L3 16L3 13L2 13L2 12L3 12L3 11L1 11L1 10L5 10L5 11L4 11L4 13L5 13L5 15L4 15L4 18L3 18L3 19L2 19L2 18L0 18L0 19L2 19L2 20L3 20L3 21L1 21L1 20L0 20L0 21L1 21L1 22L0 22L0 23L1 23L1 22L3 22L3 23L2 23L2 24L0 24L0 27L1 27L1 28L0 28L0 30L1 30L1 29L2 29L2 31L3 31L3 29L4 29L4 28L5 28L5 29L9 29L9 31L10 31L10 32L8 32L8 31L7 31L7 30L4 30L4 33L3 33L3 32L1 32L1 31L0 31L0 32L1 32L1 34L3 34L3 35L0 35L0 36L1 36L1 37L0 37L0 38L1 38L1 40L0 40L0 41L3 41L3 40L4 40L4 39L2 39L2 38L5 38L5 39L7 39L7 40L6 40L6 41L7 41L7 40L8 40L8 43L9 43L9 44L8 44L8 46L9 46L9 49L12 49L12 48L15 48L15 49L17 49L17 48L18 48L18 49L20 49L20 48L22 48L22 49L23 49L23 48L22 48L22 47L23 47L23 46L25 46L25 45L28 45L28 47L27 47L27 46L26 46L26 47L27 47L27 48L28 48L28 49L34 49L34 48L35 48L35 49L38 49L38 46L39 46L39 45L40 45L40 47L41 47L41 48L43 48L43 49L45 49L45 48L43 48L43 46L44 46L44 47L45 47L45 46L44 46L44 45L45 45L45 43L48 43L48 47L47 47L47 45L46 45L46 48L48 48L48 49L49 49L49 42L47 42L47 41L49 41L49 40L47 40L47 39L44 39L44 38L45 38L45 37L43 37L43 36L44 36L44 35L43 35L43 34L41 34L41 32L40 32L40 31L37 31L37 28L36 28L36 27L35 27L35 29L34 29L34 30L35 30L35 31L34 31L34 32L33 32L33 28L32 28L32 26L33 26L33 25L36 25L36 26L38 26L38 28L39 28L39 29L40 29L40 30L41 30L41 31L44 31L44 34L45 34L45 35L46 35L46 36L47 36L47 38L48 38L48 39L49 39L49 38L48 38L48 37L49 37L49 34L48 34L48 33L45 33L45 31L46 31L46 30L47 30L47 32L49 32L49 30L47 30L47 29L48 29L48 28L49 28L49 26L48 26L48 28L47 28L47 25L48 25L48 23L49 23L49 22L48 22L48 21L49 21L49 18L47 18L47 17L49 17L49 14L48 14L48 13L49 13L49 12L48 12L48 11L49 11L49 10L48 10L48 9L47 9L47 8L45 8L45 9L44 9L44 10L45 10L45 9L46 9L46 10L47 10L47 11L46 11L46 12L47 12L47 13L45 13L45 11L39 11L39 12L38 12L38 10L39 10L39 5L38 5L38 4L37 4L37 3L38 3L38 2L39 2L39 4L40 4L40 3L41 3L41 0L40 0L40 1L36 1L36 0L33 0L33 1L32 1L32 2L31 2L31 4L29 4L29 3L28 3L28 2L27 2L27 1L29 1L29 0L25 0L25 3L26 3L26 2L27 2L27 4L22 4L22 8L21 8L21 11L22 11L22 9L24 9L24 10L23 10L23 11L25 11L25 12L27 12L27 11L28 11L28 12L30 12L30 11L31 11L31 12L32 12L32 13L29 13L29 14L28 14L28 15L27 15L27 16L26 16L26 15L25 15L25 14L27 14L27 13L24 13L24 14L23 14L23 13L22 13L22 12L20 12L20 11L18 11L18 10L19 10L19 9L20 9L20 7L21 7L21 5L20 5L20 3L19 3L19 1L18 1L18 0L17 0L17 1L16 1L16 0L12 0L12 1L13 1L13 2L14 2L14 4L15 4L15 5L16 5L16 7L17 7L17 6L18 6L18 8L19 8L19 9L18 9L18 10L17 10L17 11L16 11L16 12L17 12L17 13L16 13L16 14L17 14L17 15L18 15L18 14L19 14L19 16L20 16L20 14L21 14L21 15L22 15L22 16L21 16L21 17L20 17L20 18L19 18L19 19L20 19L20 20L18 20L18 19L17 19L17 18L18 18L18 16L16 16L16 15L14 15L14 17L11 17L11 16L12 16L12 15L13 15L13 14L8 14L8 13L10 13L10 12L11 12L11 13L12 13L12 12L13 12L13 13L14 13L14 14L15 14L15 13L14 13L14 12L15 12L15 11L14 11L14 9L16 9L16 8L15 8L15 6L14 6L14 5L13 5L13 3L12 3L12 2L11 2L11 0ZM21 0L21 1L20 1L20 2L22 2L22 1L23 1L23 2L24 2L24 1L23 1L23 0ZM17 1L17 2L15 2L15 4L16 4L16 3L17 3L17 2L18 2L18 1ZM35 1L35 2L36 2L36 3L35 3L35 4L34 4L34 3L32 3L32 4L34 4L34 6L33 6L33 5L30 5L30 6L29 6L29 8L30 8L30 9L31 9L31 10L32 10L32 9L31 9L31 8L32 8L32 6L33 6L33 8L35 8L35 9L36 9L36 8L35 8L35 7L36 7L36 5L37 5L37 4L36 4L36 3L37 3L37 2L36 2L36 1ZM18 3L18 4L17 4L17 5L18 5L18 6L19 6L19 7L20 7L20 6L19 6L19 3ZM27 4L27 5L29 5L29 4ZM35 4L35 5L36 5L36 4ZM23 5L23 8L26 8L26 5ZM8 6L8 7L9 7L9 6ZM13 6L13 8L14 8L14 6ZM24 6L24 7L25 7L25 6ZM27 6L27 7L28 7L28 6ZM30 6L30 7L31 7L31 6ZM34 6L34 7L35 7L35 6ZM37 6L37 7L38 7L38 6ZM40 6L40 7L41 7L41 6ZM33 9L33 11L34 11L34 13L32 13L32 14L31 14L31 15L32 15L32 14L33 14L33 15L34 15L34 16L35 16L35 15L36 15L36 16L37 16L37 17L36 17L36 18L37 18L37 17L39 17L39 20L38 20L38 21L37 21L37 22L36 22L36 20L37 20L37 19L36 19L36 20L35 20L35 19L34 19L34 21L32 21L32 19L33 19L33 17L30 17L30 14L29 14L29 17L28 17L28 16L27 16L27 17L28 17L28 18L22 18L22 19L21 19L21 20L20 20L20 21L18 21L18 20L16 20L16 19L15 19L15 18L16 18L16 16L15 16L15 18L14 18L14 21L15 21L15 25L14 25L14 24L13 24L13 23L12 23L12 24L11 24L11 23L10 23L10 22L12 22L12 21L13 21L13 19L12 19L12 18L11 18L11 20L10 20L10 21L9 21L9 20L8 20L8 21L9 21L9 24L11 24L11 25L10 25L10 27L5 27L5 28L10 28L10 27L11 27L11 25L12 25L12 27L14 27L14 28L13 28L13 29L14 29L14 30L13 30L13 32L16 32L16 33L14 33L14 34L15 34L15 35L13 35L13 34L12 34L12 31L11 31L11 33L10 33L10 35L12 35L12 36L14 36L14 37L18 37L18 35L17 35L17 34L16 34L16 33L18 33L18 34L19 34L19 33L18 33L18 31L15 31L15 30L16 30L16 29L15 29L15 27L16 27L16 28L17 28L17 25L18 25L18 27L19 27L19 24L21 24L21 23L22 23L22 22L21 22L21 20L22 20L22 21L23 21L23 22L24 22L24 19L29 19L29 20L27 20L27 21L26 21L26 20L25 20L25 22L27 22L27 23L28 23L28 21L30 21L30 19L31 19L31 21L32 21L32 22L33 22L33 23L32 23L32 24L34 24L34 21L35 21L35 22L36 22L36 23L35 23L35 24L37 24L37 25L38 25L38 23L39 23L39 24L40 24L40 21L41 21L41 22L42 22L42 21L43 21L43 22L45 22L45 21L48 21L48 20L47 20L47 18L46 18L46 16L45 16L45 15L44 15L44 16L41 16L41 15L38 15L38 14L37 14L37 13L36 13L36 14L35 14L35 11L34 11L34 9ZM37 9L37 10L38 10L38 9ZM40 9L40 10L41 10L41 9ZM42 9L42 10L43 10L43 9ZM9 10L9 12L10 12L10 11L11 11L11 12L12 12L12 11L13 11L13 10L12 10L12 11L11 11L11 10ZM26 10L26 11L27 11L27 10ZM29 10L29 11L30 11L30 10ZM5 11L5 13L6 13L6 14L7 14L7 15L5 15L5 19L3 19L3 20L7 20L7 19L10 19L10 18L9 18L9 17L10 17L10 15L8 15L8 14L7 14L7 13L6 13L6 12L8 12L8 11ZM17 11L17 12L18 12L18 13L17 13L17 14L18 14L18 13L19 13L19 14L20 14L20 12L18 12L18 11ZM36 11L36 12L37 12L37 11ZM39 12L39 14L42 14L42 15L43 15L43 14L44 14L44 13L43 13L43 14L42 14L42 13L41 13L41 12ZM36 14L36 15L37 15L37 16L38 16L38 15L37 15L37 14ZM46 14L46 15L47 15L47 16L48 16L48 14ZM7 15L7 16L6 16L6 17L7 17L7 18L6 18L6 19L7 19L7 18L8 18L8 17L9 17L9 16L8 16L8 15ZM24 16L24 17L26 17L26 16ZM44 16L44 18L43 18L43 17L40 17L40 19L42 19L42 20L43 20L43 21L44 21L44 20L43 20L43 19L46 19L46 18L45 18L45 16ZM29 17L29 19L30 19L30 17ZM34 17L34 18L35 18L35 17ZM31 18L31 19L32 19L32 18ZM3 21L3 22L4 22L4 21ZM5 21L5 22L7 22L7 21ZM38 21L38 22L37 22L37 23L38 23L38 22L39 22L39 21ZM30 22L30 23L31 23L31 22ZM46 22L46 23L45 23L45 26L46 26L46 25L47 25L47 24L46 24L46 23L47 23L47 22ZM5 23L5 26L8 26L8 23ZM17 23L17 24L19 24L19 23ZM23 23L23 26L26 26L26 23ZM41 23L41 26L44 26L44 23ZM6 24L6 25L7 25L7 24ZM24 24L24 25L25 25L25 24ZM28 24L28 25L27 25L27 27L26 27L26 28L27 28L27 29L23 29L23 28L21 28L21 29L22 29L22 31L21 31L21 30L20 30L20 32L22 32L22 34L21 34L21 33L20 33L20 35L19 35L19 36L21 36L21 37L22 37L22 38L23 38L23 39L24 39L24 40L25 40L25 38L26 38L26 39L27 39L27 41L28 41L28 43L27 43L27 44L28 44L28 45L29 45L29 46L30 46L30 48L31 48L31 47L32 47L32 46L33 46L33 48L34 48L34 45L33 45L33 44L35 44L35 46L36 46L36 44L37 44L37 46L38 46L38 45L39 45L39 44L40 44L40 43L38 43L38 42L40 42L40 41L36 41L36 42L37 42L37 43L36 43L36 44L35 44L35 43L34 43L34 41L35 41L35 40L34 40L34 39L36 39L36 40L38 40L38 38L37 38L37 37L39 37L39 34L40 34L40 33L39 33L39 32L38 32L38 33L37 33L37 32L36 32L36 31L35 31L35 32L36 32L36 33L35 33L35 36L37 36L37 37L34 37L34 36L33 36L33 39L32 39L32 40L31 40L31 42L29 42L29 41L30 41L30 37L31 37L31 38L32 38L32 37L31 37L31 36L30 36L30 35L29 35L29 34L26 34L26 32L28 32L28 33L29 33L29 32L28 32L28 31L26 31L26 30L29 30L29 31L30 31L30 30L29 30L29 29L31 29L31 31L32 31L32 28L28 28L28 25L29 25L29 26L30 26L30 27L31 27L31 26L32 26L32 25L29 25L29 24ZM42 24L42 25L43 25L43 24ZM1 25L1 27L2 27L2 29L3 29L3 27L2 27L2 26L3 26L3 25ZM21 25L21 27L22 27L22 25ZM39 25L39 27L40 27L40 25ZM42 27L42 28L43 28L43 29L41 29L41 30L43 30L43 29L44 29L44 31L45 31L45 30L46 30L46 27L45 27L45 28L44 28L44 27ZM11 28L11 29L10 29L10 30L11 30L11 29L12 29L12 28ZM19 28L19 29L20 29L20 28ZM17 29L17 30L18 30L18 29ZM35 29L35 30L36 30L36 29ZM23 30L23 32L24 32L24 33L23 33L23 34L22 34L22 35L21 35L21 36L22 36L22 37L23 37L23 38L24 38L24 37L27 37L27 36L26 36L26 34L24 34L24 33L25 33L25 31L24 31L24 30ZM6 31L6 32L7 32L7 31ZM30 32L30 33L31 33L31 34L32 34L32 35L34 35L34 33L32 33L32 32ZM42 32L42 33L43 33L43 32ZM6 33L6 34L5 34L5 35L3 35L3 36L4 36L4 37L5 37L5 38L7 38L7 37L6 37L6 36L9 36L9 37L10 37L10 38L8 38L8 39L10 39L10 38L11 38L11 37L10 37L10 36L9 36L9 34L8 34L8 33ZM38 33L38 34L37 34L37 35L38 35L38 34L39 34L39 33ZM6 34L6 35L5 35L5 36L6 36L6 35L8 35L8 34ZM23 34L23 35L24 35L24 34ZM16 35L16 36L17 36L17 35ZM28 35L28 37L30 37L30 36L29 36L29 35ZM41 35L41 36L43 36L43 35ZM23 36L23 37L24 37L24 36ZM19 37L19 38L18 38L18 39L17 39L17 38L16 38L16 39L17 39L17 40L16 40L16 42L17 42L17 45L16 45L16 46L17 46L17 47L15 47L15 48L17 48L17 47L18 47L18 48L19 48L19 47L20 47L20 43L19 43L19 42L21 42L21 43L22 43L22 39L21 39L21 41L20 41L20 37ZM41 37L41 38L39 38L39 39L42 39L42 40L44 40L44 39L42 39L42 37ZM27 38L27 39L28 39L28 40L29 40L29 39L28 39L28 38ZM36 38L36 39L37 39L37 38ZM14 39L14 40L13 40L13 42L14 42L14 43L13 43L13 44L16 44L16 43L15 43L15 39ZM9 40L9 41L10 41L10 40ZM11 40L11 41L12 41L12 40ZM17 40L17 41L18 41L18 40ZM32 40L32 41L33 41L33 40ZM45 40L45 42L46 42L46 40ZM23 41L23 44L26 44L26 41ZM41 41L41 44L44 44L44 41ZM9 42L9 43L10 43L10 44L11 44L11 45L10 45L10 46L11 46L11 47L10 47L10 48L11 48L11 47L14 47L14 46L12 46L12 42ZM24 42L24 43L25 43L25 42ZM31 42L31 43L33 43L33 42ZM42 42L42 43L43 43L43 42ZM18 43L18 44L19 44L19 43ZM28 43L28 44L29 44L29 45L32 45L32 44L29 44L29 43ZM37 43L37 44L38 44L38 43ZM21 44L21 46L23 46L23 45L22 45L22 44ZM41 45L41 46L42 46L42 45ZM18 46L18 47L19 47L19 46ZM24 47L24 48L25 48L25 47ZM35 47L35 48L37 48L37 47ZM0 0L0 7L7 7L7 0ZM1 1L1 6L6 6L6 1ZM2 2L2 5L5 5L5 2ZM42 0L42 7L49 7L49 0ZM43 1L43 6L48 6L48 1ZM44 2L44 5L47 5L47 2ZM0 42L0 49L7 49L7 42ZM1 43L1 48L6 48L6 43ZM2 44L2 47L5 47L5 44Z" fill="#000000"/></g></g></svg>
