<?xml version="1.0" encoding="UTF-8"?>
<svg xmlns="http://www.w3.org/2000/svg" version="1.1" width="200" height="200" viewBox="0 0 200 200"><rect x="0" y="0" width="200" height="200" fill="#ffffff"/><g transform="scale(3.774)"><g transform="translate(2,2)"><path fill-rule="evenodd" d="M9 0L9 1L8 1L8 2L9 2L9 3L10 3L10 4L9 4L9 5L8 5L8 8L4 8L4 9L7 9L7 10L6 10L6 11L7 11L7 12L5 12L5 11L3 11L3 10L2 10L2 9L1 9L1 10L0 10L0 15L4 15L4 16L2 16L2 17L1 17L1 16L0 16L0 17L1 17L1 18L0 18L0 20L1 20L1 23L4 23L4 25L3 25L3 24L0 24L0 26L3 26L3 27L4 27L4 29L5 29L5 27L9 27L9 28L6 28L6 29L7 29L7 30L4 30L4 32L2 32L2 31L1 31L1 30L3 30L3 29L0 29L0 31L1 31L1 32L2 32L2 33L1 33L1 34L0 34L0 35L1 35L1 34L2 34L2 35L3 35L3 33L4 33L4 34L5 34L5 33L4 33L4 32L6 32L6 33L7 33L7 34L6 34L6 35L4 35L4 36L3 36L3 37L1 37L1 36L0 36L0 38L1 38L1 40L0 40L0 41L3 41L3 40L4 40L4 39L2 39L2 38L5 38L5 39L7 39L7 40L6 40L6 41L7 41L7 40L8 40L8 45L9 45L9 46L10 46L10 48L11 48L11 49L13 49L13 48L12 48L12 47L13 47L13 46L14 46L14 44L15 44L15 43L16 43L16 45L15 45L15 47L17 47L17 48L18 48L18 47L19 47L19 46L18 46L18 45L19 45L19 44L21 44L21 42L20 42L20 41L17 41L17 40L18 40L18 39L19 39L19 40L21 40L21 38L20 38L20 37L22 37L22 38L24 38L24 40L22 40L22 45L20 45L20 47L21 47L21 49L24 49L24 48L25 48L25 49L26 49L26 48L27 48L27 49L28 49L28 47L30 47L30 48L31 48L31 49L33 49L33 48L34 48L34 49L35 49L35 47L36 47L36 49L37 49L37 47L39 47L39 48L38 48L38 49L42 49L42 47L41 47L41 48L40 48L40 47L39 47L39 44L40 44L40 45L42 45L42 46L43 46L43 45L47 45L47 44L48 44L48 46L49 46L49 44L48 44L48 41L49 41L49 40L48 40L48 37L49 37L49 35L48 35L48 33L49 33L49 32L48 32L48 33L47 33L47 31L48 31L48 29L49 29L49 27L48 27L48 29L47 29L47 26L48 26L48 25L47 25L47 24L48 24L48 21L49 21L49 20L48 20L48 21L47 21L47 19L48 19L48 17L47 17L47 16L48 16L48 13L49 13L49 11L48 11L48 8L47 8L47 11L46 11L46 9L44 9L44 8L42 8L42 11L41 11L41 10L40 10L40 11L39 11L39 9L41 9L41 6L40 6L40 7L39 7L39 5L38 5L38 7L39 7L39 8L36 8L36 9L35 9L35 11L36 11L36 13L37 13L37 14L36 14L36 18L35 18L35 16L34 16L34 17L33 17L33 16L32 16L32 15L33 15L33 14L32 14L32 13L34 13L34 11L32 11L32 10L30 10L30 9L31 9L31 6L30 6L30 7L29 7L29 6L28 6L28 5L29 5L29 4L28 4L28 2L29 2L29 1L31 1L31 2L30 2L30 5L31 5L31 2L32 2L32 4L33 4L33 3L34 3L34 4L36 4L36 3L37 3L37 2L39 2L39 4L40 4L40 3L41 3L41 0L40 0L40 1L37 1L37 0L36 0L36 3L34 3L34 2L35 2L35 1L33 1L33 2L32 2L32 1L31 1L31 0L26 0L26 1L28 1L28 2L25 2L25 0L24 0L24 2L23 2L23 3L22 3L22 0L21 0L21 1L20 1L20 0L18 0L18 2L19 2L19 3L18 3L18 4L19 4L19 5L18 5L18 7L19 7L19 8L17 8L17 6L16 6L16 7L15 7L15 6L14 6L14 5L15 5L15 4L17 4L17 0L14 0L14 1L16 1L16 2L15 2L15 4L14 4L14 2L13 2L13 1L12 1L12 0L11 0L11 2L9 2L9 1L10 1L10 0ZM11 2L11 4L12 4L12 5L9 5L9 8L8 8L8 10L7 10L7 11L8 11L8 10L9 10L9 12L7 12L7 13L5 13L5 12L4 12L4 13L5 13L5 14L7 14L7 15L6 15L6 16L4 16L4 17L3 17L3 19L2 19L2 18L1 18L1 20L4 20L4 22L5 22L5 21L6 21L6 22L7 22L7 21L6 21L6 20L7 20L7 19L6 19L6 18L8 18L8 20L9 20L9 18L8 18L8 17L9 17L9 16L10 16L10 17L11 17L11 18L10 18L10 20L11 20L11 22L10 22L10 21L9 21L9 25L10 25L10 26L9 26L9 27L10 27L10 28L12 28L12 29L13 29L13 30L10 30L10 29L8 29L8 30L7 30L7 31L6 31L6 32L7 32L7 33L8 33L8 32L11 32L11 31L13 31L13 32L12 32L12 33L11 33L11 34L10 34L10 35L9 35L9 36L10 36L10 35L11 35L11 36L12 36L12 37L9 37L9 38L10 38L10 40L11 40L11 41L9 41L9 42L11 42L11 41L14 41L14 42L12 42L12 43L9 43L9 44L11 44L11 45L10 45L10 46L11 46L11 45L12 45L12 43L13 43L13 44L14 44L14 43L15 43L15 42L16 42L16 43L17 43L17 45L18 45L18 43L19 43L19 42L16 42L16 39L17 39L17 37L18 37L18 38L19 38L19 39L20 39L20 38L19 38L19 37L20 37L20 36L21 36L21 35L20 35L20 34L19 34L19 33L22 33L22 35L23 35L23 37L24 37L24 38L25 38L25 39L26 39L26 40L28 40L28 41L27 41L27 45L26 45L26 46L25 46L25 45L23 45L23 46L21 46L21 47L23 47L23 46L24 46L24 47L28 47L28 46L27 46L27 45L29 45L29 46L30 46L30 47L35 47L35 46L36 46L36 43L37 43L37 45L38 45L38 43L39 43L39 42L40 42L40 39L41 39L41 40L42 40L42 39L43 39L43 40L44 40L44 39L47 39L47 37L48 37L48 36L47 36L47 37L46 37L46 38L42 38L42 39L41 39L41 38L39 38L39 39L37 39L37 38L36 38L36 36L34 36L34 35L36 35L36 34L37 34L37 32L38 32L38 33L40 33L40 35L37 35L37 36L38 36L38 37L45 37L45 34L42 34L42 32L40 32L40 31L41 31L41 30L42 30L42 31L44 31L44 30L47 30L47 29L43 29L43 30L42 30L42 27L41 27L41 28L40 28L40 25L39 25L39 27L37 27L37 25L38 25L38 24L39 24L39 23L38 23L38 24L37 24L37 25L36 25L36 23L37 23L37 22L36 22L36 19L37 19L37 20L39 20L39 19L40 19L40 18L41 18L41 19L42 19L42 20L41 20L41 21L39 21L39 22L42 22L42 21L43 21L43 19L45 19L45 18L46 18L46 19L47 19L47 17L46 17L46 15L47 15L47 13L48 13L48 12L47 12L47 13L46 13L46 15L45 15L45 13L44 13L44 14L43 14L43 15L42 15L42 12L43 12L43 11L45 11L45 10L43 10L43 11L42 11L42 12L41 12L41 11L40 11L40 12L41 12L41 13L39 13L39 14L41 14L41 15L40 15L40 17L39 17L39 16L38 16L38 17L37 17L37 18L36 18L36 19L35 19L35 21L34 21L34 19L32 19L32 18L33 18L33 17L32 17L32 16L30 16L30 17L32 17L32 18L31 18L31 19L32 19L32 20L31 20L31 21L29 21L29 22L28 22L28 23L29 23L29 27L28 27L28 28L26 28L26 29L24 29L24 28L22 28L22 26L20 26L20 27L19 27L19 24L20 24L20 25L21 25L21 24L22 24L22 23L20 23L20 22L22 22L22 20L23 20L23 22L24 22L24 21L25 21L25 19L28 19L28 20L26 20L26 21L28 21L28 20L29 20L29 19L30 19L30 18L29 18L29 17L26 17L26 15L27 15L27 16L29 16L29 15L30 15L30 13L27 13L27 14L26 14L26 13L24 13L24 12L23 12L23 13L22 13L22 12L21 12L21 11L20 11L20 12L19 12L19 13L18 13L18 15L19 15L19 14L20 14L20 15L23 15L23 16L24 16L24 17L23 17L23 19L21 19L21 21L20 21L20 19L19 19L19 18L18 18L18 17L17 17L17 18L16 18L16 16L17 16L17 15L16 15L16 14L17 14L17 12L15 12L15 11L14 11L14 8L15 8L15 9L16 9L16 10L18 10L18 9L17 9L17 8L15 8L15 7L14 7L14 6L13 6L13 7L14 7L14 8L13 8L13 9L12 9L12 5L13 5L13 4L12 4L12 3L13 3L13 2ZM20 2L20 3L19 3L19 4L21 4L21 7L20 7L20 6L19 6L19 7L20 7L20 8L22 8L22 4L21 4L21 2ZM24 2L24 3L25 3L25 4L26 4L26 3L25 3L25 2ZM27 4L27 5L28 5L28 4ZM23 5L23 8L26 8L26 5ZM32 5L32 7L33 7L33 8L34 8L34 7L35 7L35 6L36 6L36 7L37 7L37 5ZM10 6L10 8L9 8L9 10L12 10L12 9L11 9L11 6ZM24 6L24 7L25 7L25 6ZM27 6L27 7L28 7L28 8L27 8L27 9L25 9L25 10L24 10L24 9L22 9L22 10L23 10L23 11L25 11L25 12L26 12L26 11L28 11L28 12L30 12L30 11L29 11L29 10L27 10L27 9L29 9L29 7L28 7L28 6ZM33 6L33 7L34 7L34 6ZM20 9L20 10L21 10L21 9ZM36 10L36 11L37 11L37 13L38 13L38 12L39 12L39 11L37 11L37 10ZM10 11L10 14L9 14L9 13L8 13L8 16L9 16L9 15L10 15L10 16L11 16L11 17L12 17L12 16L13 16L13 18L12 18L12 19L13 19L13 18L14 18L14 19L15 19L15 20L12 20L12 22L11 22L11 23L13 23L13 21L15 21L15 20L16 20L16 18L15 18L15 17L14 17L14 16L15 16L15 14L16 14L16 13L15 13L15 12L14 12L14 16L13 16L13 15L12 15L12 14L13 14L13 12L12 12L12 11ZM31 11L31 13L32 13L32 11ZM2 12L2 14L3 14L3 12ZM11 12L11 14L10 14L10 15L11 15L11 14L12 14L12 12ZM20 12L20 13L21 13L21 14L22 14L22 13L21 13L21 12ZM23 14L23 15L24 15L24 16L25 16L25 15L26 15L26 14ZM27 14L27 15L29 15L29 14ZM41 15L41 17L42 17L42 18L44 18L44 17L45 17L45 15L43 15L43 16L42 16L42 15ZM6 16L6 17L4 17L4 18L6 18L6 17L7 17L7 16ZM19 16L19 17L20 17L20 18L21 18L21 17L22 17L22 16L21 16L21 17L20 17L20 16ZM24 17L24 18L26 18L26 17ZM28 18L28 19L29 19L29 18ZM17 19L17 20L18 20L18 22L20 22L20 21L19 21L19 20L18 20L18 19ZM31 21L31 22L30 22L30 23L31 23L31 24L30 24L30 26L31 26L31 25L32 25L32 26L33 26L33 24L34 24L34 25L35 25L35 23L36 23L36 22L35 22L35 23L33 23L33 24L32 24L32 23L31 23L31 22L33 22L33 21ZM44 21L44 22L45 22L45 21ZM46 21L46 22L47 22L47 21ZM14 22L14 25L15 25L15 26L14 26L14 28L15 28L15 30L17 30L17 31L16 31L16 32L14 32L14 34L15 34L15 35L14 35L14 36L13 36L13 35L12 35L12 36L13 36L13 37L12 37L12 38L11 38L11 40L12 40L12 39L13 39L13 40L15 40L15 39L16 39L16 38L15 38L15 39L14 39L14 36L16 36L16 37L17 37L17 36L18 36L18 33L17 33L17 32L19 32L19 31L20 31L20 32L22 32L22 33L23 33L23 32L22 32L22 31L24 31L24 32L25 32L25 34L27 34L27 35L26 35L26 37L25 37L25 38L26 38L26 39L27 39L27 38L26 38L26 37L28 37L28 38L29 38L29 39L28 39L28 40L29 40L29 42L28 42L28 43L30 43L30 44L29 44L29 45L30 45L30 44L31 44L31 46L33 46L33 44L35 44L35 43L36 43L36 42L34 42L34 43L33 43L33 41L34 41L34 40L35 40L35 39L36 39L36 41L37 41L37 43L38 43L38 42L39 42L39 40L38 40L38 41L37 41L37 39L36 39L36 38L35 38L35 39L31 39L31 40L29 40L29 39L30 39L30 38L29 38L29 36L30 36L30 37L32 37L32 38L33 38L33 37L34 37L34 36L33 36L33 34L32 34L32 33L31 33L31 31L33 31L33 32L35 32L35 33L36 33L36 30L37 30L37 31L40 31L40 29L39 29L39 28L37 28L37 27L36 27L36 26L35 26L35 27L29 27L29 28L28 28L28 29L26 29L26 30L22 30L22 28L21 28L21 29L20 29L20 28L17 28L17 27L18 27L18 26L17 26L17 27L16 27L16 24L17 24L17 25L18 25L18 24L19 24L19 23L18 23L18 24L17 24L17 22L16 22L16 24L15 24L15 22ZM5 23L5 26L8 26L8 23ZM23 23L23 26L26 26L26 23ZM41 23L41 26L44 26L44 23ZM6 24L6 25L7 25L7 24ZM10 24L10 25L11 25L11 26L10 26L10 27L12 27L12 26L13 26L13 24L12 24L12 25L11 25L11 24ZM24 24L24 25L25 25L25 24ZM27 24L27 25L28 25L28 24ZM42 24L42 25L43 25L43 24ZM45 25L45 26L47 26L47 25ZM1 27L1 28L2 28L2 27ZM35 27L35 29L34 29L34 28L33 28L33 29L32 29L32 28L30 28L30 29L29 29L29 30L26 30L26 33L27 33L27 31L29 31L29 32L28 32L28 33L30 33L30 31L31 31L31 29L32 29L32 30L33 30L33 31L35 31L35 29L36 29L36 27ZM43 27L43 28L45 28L45 27ZM16 28L16 29L17 29L17 28ZM18 29L18 31L19 31L19 30L20 30L20 31L22 31L22 30L20 30L20 29ZM8 30L8 31L7 31L7 32L8 32L8 31L9 31L9 30ZM13 30L13 31L14 31L14 30ZM43 32L43 33L45 33L45 32ZM12 33L12 34L13 34L13 33ZM15 33L15 34L16 34L16 33ZM46 33L46 35L47 35L47 33ZM28 34L28 35L29 35L29 34ZM41 34L41 35L40 35L40 36L41 36L41 35L42 35L42 36L43 36L43 35L42 35L42 34ZM6 35L6 36L4 36L4 37L5 37L5 38L8 38L8 37L6 37L6 36L7 36L7 35ZM24 35L24 36L25 36L25 35ZM30 35L30 36L32 36L32 35ZM45 40L45 42L47 42L47 41L48 41L48 40ZM23 41L23 44L26 44L26 41ZM31 41L31 43L32 43L32 41ZM41 41L41 44L44 44L44 41ZM24 42L24 43L25 43L25 42ZM42 42L42 43L43 43L43 42ZM46 46L46 47L45 47L45 49L49 49L49 48L48 48L48 47L47 47L47 46ZM43 47L43 49L44 49L44 47ZM14 48L14 49L15 49L15 48ZM0 0L0 7L7 7L7 0ZM1 1L1 6L6 6L6 1ZM2 2L2 5L5 5L5 2ZM42 0L42 7L49 7L49 0ZM43 1L43 6L48 6L48 1ZM44 2L44 5L47 5L47 2ZM0 42L0 49L7 49L7 42ZM1 43L1 48L6 48L6 43ZM2 44L2 47L5 47L5 44Z" fill="#000000"/></g></g></svg>
