<?xml version="1.0" encoding="UTF-8"?>
<svg xmlns="http://www.w3.org/2000/svg" version="1.1" width="200" height="200" viewBox="0 0 200 200"><rect x="0" y="0" width="200" height="200" fill="#ffffff"/><g transform="scale(3.774)"><g transform="translate(2,2)"><path fill-rule="evenodd" d="M11 0L11 1L10 1L10 2L9 2L9 3L10 3L10 2L11 2L11 4L12 4L12 5L11 5L11 6L10 6L10 7L11 7L11 6L12 6L12 7L13 7L13 6L14 6L14 8L13 8L13 9L12 9L12 8L11 8L11 10L10 10L10 9L9 9L9 6L8 6L8 8L6 8L6 9L7 9L7 10L5 10L5 11L2 11L2 10L3 10L3 9L4 9L4 8L2 8L2 9L1 9L1 12L0 12L0 14L1 14L1 15L3 15L3 17L7 17L7 18L5 18L5 20L3 20L3 19L4 19L4 18L2 18L2 17L1 17L1 16L0 16L0 18L1 18L1 19L0 19L0 22L2 22L2 23L0 23L0 25L1 25L1 26L2 26L2 27L1 27L1 30L0 30L0 34L3 34L3 35L2 35L2 36L0 36L0 38L1 38L1 40L0 40L0 41L3 41L3 40L4 40L4 39L2 39L2 38L5 38L5 39L7 39L7 40L6 40L6 41L7 41L7 40L8 40L8 43L9 43L9 45L8 45L8 47L9 47L9 49L10 49L10 47L11 47L11 46L10 46L10 45L11 45L11 44L10 44L10 43L9 43L9 42L11 42L11 43L14 43L14 41L13 41L13 40L15 40L15 41L16 41L16 40L15 40L15 37L16 37L16 39L19 39L19 40L17 40L17 42L16 42L16 43L15 43L15 44L16 44L16 47L17 47L17 45L18 45L18 46L19 46L19 44L20 44L20 45L21 45L21 44L22 44L22 45L23 45L23 46L22 46L22 47L21 47L21 46L20 46L20 49L21 49L21 48L22 48L22 47L23 47L23 49L24 49L24 47L25 47L25 49L26 49L26 46L25 46L25 45L27 45L27 49L28 49L28 48L29 48L29 49L30 49L30 48L31 48L31 46L30 46L30 44L31 44L31 45L32 45L32 48L33 48L33 49L35 49L35 48L36 48L36 49L37 49L37 48L39 48L39 47L42 47L42 46L44 46L44 47L43 47L43 48L44 48L44 47L45 47L45 46L46 46L46 44L45 44L45 43L46 43L46 42L48 42L48 43L47 43L47 44L48 44L48 43L49 43L49 41L48 41L48 40L42 40L42 39L41 39L41 40L40 40L40 42L39 42L39 43L40 43L40 45L39 45L39 47L38 47L38 46L37 46L37 45L36 45L36 46L34 46L34 45L35 45L35 44L34 44L34 45L32 45L32 43L30 43L30 42L29 42L29 41L27 41L27 40L29 40L29 39L27 39L27 40L26 40L26 37L25 37L25 35L28 35L28 36L30 36L30 35L28 35L28 34L26 34L26 33L27 33L27 32L26 32L26 33L25 33L25 32L24 32L24 31L27 31L27 30L26 30L26 29L29 29L29 28L30 28L30 29L31 29L31 30L28 30L28 32L29 32L29 34L31 34L31 35L32 35L32 36L33 36L33 35L34 35L34 37L35 37L35 41L34 41L34 38L33 38L33 37L32 37L32 38L31 38L31 39L30 39L30 40L32 40L32 41L31 41L31 42L32 42L32 41L34 41L34 42L35 42L35 41L36 41L36 44L37 44L37 43L38 43L38 41L39 41L39 40L37 40L37 41L36 41L36 37L37 37L37 36L38 36L38 34L36 34L36 35L35 35L35 34L34 34L34 33L38 33L38 32L40 32L40 33L39 33L39 34L40 34L40 35L39 35L39 37L38 37L38 39L40 39L40 38L42 38L42 37L44 37L44 38L43 38L43 39L44 39L44 38L45 38L45 39L46 39L46 38L45 38L45 36L43 36L43 35L42 35L42 34L40 34L40 33L41 33L41 32L44 32L44 33L46 33L46 32L45 32L45 31L47 31L47 30L48 30L48 31L49 31L49 29L48 29L48 27L47 27L47 26L49 26L49 25L47 25L47 23L48 23L48 24L49 24L49 23L48 23L48 21L47 21L47 23L46 23L46 27L45 27L45 21L46 21L46 20L45 20L45 21L44 21L44 17L46 17L46 18L45 18L45 19L47 19L47 18L48 18L48 19L49 19L49 17L48 17L48 16L49 16L49 15L48 15L48 16L45 16L45 14L47 14L47 11L48 11L48 14L49 14L49 11L48 11L48 9L47 9L47 11L46 11L46 9L45 9L45 8L44 8L44 9L45 9L45 11L44 11L44 12L45 12L45 11L46 11L46 13L43 13L43 12L42 12L42 13L41 13L41 10L40 10L40 8L39 8L39 5L38 5L38 4L37 4L37 3L38 3L38 2L39 2L39 4L40 4L40 3L41 3L41 0L40 0L40 1L38 1L38 0L37 0L37 1L38 1L38 2L36 2L36 1L34 1L34 0L33 0L33 2L34 2L34 3L31 3L31 1L32 1L32 0L30 0L30 3L31 3L31 5L30 5L30 4L29 4L29 2L27 2L27 3L26 3L26 2L25 2L25 1L24 1L24 0L23 0L23 1L22 1L22 0L19 0L19 2L23 2L23 1L24 1L24 3L26 3L26 4L23 4L23 3L22 3L22 4L21 4L21 3L19 3L19 4L18 4L18 1L17 1L17 0L15 0L15 1L14 1L14 3L15 3L15 5L13 5L13 0ZM27 0L27 1L29 1L29 0ZM16 2L16 5L15 5L15 9L18 9L18 6L19 6L19 8L20 8L20 9L19 9L19 10L16 10L16 11L15 11L15 10L14 10L14 11L15 11L15 13L16 13L16 14L17 14L17 13L16 13L16 11L18 11L18 13L19 13L19 15L15 15L15 14L13 14L13 16L12 16L12 17L11 17L11 18L13 18L13 22L12 22L12 19L11 19L11 20L10 20L10 19L9 19L9 15L10 15L10 16L11 16L11 15L12 15L12 13L13 13L13 11L12 11L12 13L11 13L11 11L10 11L10 10L9 10L9 9L8 9L8 10L9 10L9 12L7 12L7 11L5 11L5 12L3 12L3 14L4 14L4 15L5 15L5 14L7 14L7 15L6 15L6 16L8 16L8 19L6 19L6 20L8 20L8 22L12 22L12 23L9 23L9 24L10 24L10 26L9 26L9 27L10 27L10 28L8 28L8 27L4 27L4 26L3 26L3 24L4 24L4 23L2 23L2 24L1 24L1 25L2 25L2 26L3 26L3 28L2 28L2 30L3 30L3 28L7 28L7 29L6 29L6 30L5 30L5 29L4 29L4 31L3 31L3 33L4 33L4 34L5 34L5 35L3 35L3 36L2 36L2 37L3 37L3 36L7 36L7 37L6 37L6 38L8 38L8 40L13 40L13 39L9 39L9 38L10 38L10 37L13 37L13 38L14 38L14 37L15 37L15 36L16 36L16 35L17 35L17 34L19 34L19 33L18 33L18 32L19 32L19 31L18 31L18 30L19 30L19 29L21 29L21 30L20 30L20 32L22 32L22 30L23 30L23 29L24 29L24 30L25 30L25 29L24 29L24 28L23 28L23 27L20 27L20 28L18 28L18 30L17 30L17 29L16 29L16 27L17 27L17 26L18 26L18 25L19 25L19 26L20 26L20 25L21 25L21 26L22 26L22 25L21 25L21 22L24 22L24 21L25 21L25 22L26 22L26 19L25 19L25 18L26 18L26 16L25 16L25 15L27 15L27 17L28 17L28 16L29 16L29 19L30 19L30 20L28 20L28 22L29 22L29 23L27 23L27 26L29 26L29 27L28 27L28 28L29 28L29 27L31 27L31 25L33 25L33 26L32 26L32 27L33 27L33 26L34 26L34 27L36 27L36 30L35 30L35 31L36 31L36 32L38 32L38 31L36 31L36 30L37 30L37 29L38 29L38 30L39 30L39 31L40 31L40 32L41 32L41 31L42 31L42 29L43 29L43 31L44 31L44 30L46 30L46 29L45 29L45 27L42 27L42 29L41 29L41 31L40 31L40 28L41 28L41 27L38 27L38 25L39 25L39 26L40 26L40 25L39 25L39 24L40 24L40 23L39 23L39 20L40 20L40 22L42 22L42 20L43 20L43 19L42 19L42 18L43 18L43 17L44 17L44 16L43 16L43 17L42 17L42 16L40 16L40 17L39 17L39 16L37 16L37 15L38 15L38 13L39 13L39 15L40 15L40 14L41 14L41 13L40 13L40 11L39 11L39 9L37 9L37 8L38 8L38 5L36 5L36 6L35 6L35 4L36 4L36 3L34 3L34 4L32 4L32 5L34 5L34 6L33 6L33 9L31 9L31 8L30 8L30 5L29 5L29 4L27 4L27 5L28 5L28 6L27 6L27 7L28 7L28 6L29 6L29 9L28 9L28 8L27 8L27 9L26 9L26 11L25 11L25 10L24 10L24 9L23 9L23 10L22 10L22 9L21 9L21 8L20 8L20 6L19 6L19 5L18 5L18 4L17 4L17 2ZM8 4L8 5L9 5L9 4ZM23 5L23 8L26 8L26 5ZM16 6L16 8L17 8L17 6ZM21 6L21 7L22 7L22 6ZM24 6L24 7L25 7L25 6ZM31 6L31 7L32 7L32 6ZM34 6L34 7L35 7L35 6ZM36 6L36 7L37 7L37 6ZM40 6L40 7L41 7L41 6ZM34 8L34 9L33 9L33 10L31 10L31 11L30 11L30 12L29 12L29 10L30 10L30 9L29 9L29 10L28 10L28 13L30 13L30 12L31 12L31 13L32 13L32 12L33 12L33 13L35 13L35 14L37 14L37 11L38 11L38 10L37 10L37 9L35 9L35 8ZM41 8L41 9L42 9L42 11L43 11L43 8ZM20 9L20 10L21 10L21 9ZM34 9L34 10L35 10L35 9ZM23 10L23 12L21 12L21 13L20 13L20 12L19 12L19 13L20 13L20 14L21 14L21 15L19 15L19 16L14 16L14 19L15 19L15 22L13 22L13 23L12 23L12 24L11 24L11 25L12 25L12 26L11 26L11 28L10 28L10 29L9 29L9 30L8 30L8 31L7 31L7 30L6 30L6 31L7 31L7 32L4 32L4 33L5 33L5 34L6 34L6 35L7 35L7 34L8 34L8 36L9 36L9 35L11 35L11 33L7 33L7 32L8 32L8 31L9 31L9 32L10 32L10 31L11 31L11 32L14 32L14 33L12 33L12 36L13 36L13 37L14 37L14 36L15 36L15 35L16 35L16 33L15 33L15 32L14 32L14 31L15 31L15 30L16 30L16 32L18 32L18 31L17 31L17 30L16 30L16 29L15 29L15 30L13 30L13 28L15 28L15 27L16 27L16 26L15 26L15 27L13 27L13 26L14 26L14 24L15 24L15 23L16 23L16 22L17 22L17 21L18 21L18 23L19 23L19 24L20 24L20 23L19 23L19 21L20 21L20 22L21 22L21 21L20 21L20 19L23 19L23 20L24 20L24 19L23 19L23 18L25 18L25 16L24 16L24 12L25 12L25 14L26 14L26 13L27 13L27 12L25 12L25 11L24 11L24 10ZM36 10L36 11L34 11L34 12L35 12L35 13L36 13L36 11L37 11L37 10ZM31 11L31 12L32 12L32 11ZM5 12L5 13L4 13L4 14L5 14L5 13L7 13L7 12ZM1 13L1 14L2 14L2 13ZM9 13L9 14L8 14L8 15L9 15L9 14L10 14L10 15L11 15L11 13ZM42 13L42 14L43 14L43 13ZM27 14L27 15L29 15L29 14ZM32 14L32 16L31 16L31 15L30 15L30 16L31 16L31 17L30 17L30 18L31 18L31 17L32 17L32 16L33 16L33 15L34 15L34 17L33 17L33 18L32 18L32 19L31 19L31 20L32 20L32 21L29 21L29 22L31 22L31 23L30 23L30 25L29 25L29 26L30 26L30 25L31 25L31 23L34 23L34 24L33 24L33 25L34 25L34 24L36 24L36 26L37 26L37 24L38 24L38 22L37 22L37 21L38 21L38 20L39 20L39 19L38 19L38 20L37 20L37 17L36 17L36 15L34 15L34 14ZM21 15L21 16L19 16L19 17L20 17L20 18L21 18L21 16L22 16L22 17L23 17L23 15ZM15 17L15 18L16 18L16 19L17 19L17 20L16 20L16 21L17 21L17 20L18 20L18 21L19 21L19 18L18 18L18 17ZM34 17L34 20L33 20L33 21L34 21L34 22L36 22L36 21L37 21L37 20L36 20L36 17ZM38 17L38 18L39 18L39 17ZM40 17L40 18L41 18L41 17ZM17 18L17 19L18 19L18 18ZM27 18L27 19L28 19L28 18ZM8 19L8 20L9 20L9 21L10 21L10 20L9 20L9 19ZM41 19L41 20L42 20L42 19ZM1 20L1 21L2 21L2 22L3 22L3 21L2 21L2 20ZM4 21L4 22L7 22L7 21ZM43 21L43 22L44 22L44 21ZM5 23L5 26L8 26L8 23ZM13 23L13 24L12 24L12 25L13 25L13 24L14 24L14 23ZM23 23L23 26L26 26L26 23ZM41 23L41 26L44 26L44 23ZM6 24L6 25L7 25L7 24ZM16 24L16 25L18 25L18 24ZM24 24L24 25L25 25L25 24ZM42 24L42 25L43 25L43 24ZM46 27L46 28L47 28L47 27ZM11 28L11 29L10 29L10 30L9 30L9 31L10 31L10 30L11 30L11 31L13 31L13 30L11 30L11 29L12 29L12 28ZM21 28L21 29L22 29L22 28ZM31 28L31 29L32 29L32 30L31 30L31 34L32 34L32 35L33 35L33 34L32 34L32 30L33 30L33 33L34 33L34 29L35 29L35 28L34 28L34 29L32 29L32 28ZM1 31L1 32L2 32L2 31ZM29 31L29 32L30 32L30 31ZM48 32L48 33L47 33L47 34L46 34L46 37L47 37L47 35L48 35L48 33L49 33L49 32ZM6 33L6 34L7 34L7 33ZM21 33L21 34L20 34L20 36L21 36L21 37L18 37L18 38L20 38L20 39L22 39L22 40L23 40L23 39L24 39L24 40L25 40L25 39L24 39L24 37L23 37L23 36L24 36L24 35L25 35L25 33L24 33L24 35L23 35L23 33ZM14 34L14 35L15 35L15 34ZM21 34L21 36L22 36L22 34ZM18 35L18 36L19 36L19 35ZM35 36L35 37L36 37L36 36ZM40 36L40 37L42 37L42 36ZM48 36L48 38L49 38L49 36ZM8 37L8 38L9 38L9 37ZM21 37L21 38L22 38L22 39L23 39L23 38L22 38L22 37ZM29 37L29 38L30 38L30 37ZM32 38L32 39L33 39L33 38ZM11 41L11 42L12 42L12 41ZM19 41L19 43L20 43L20 42L22 42L22 41ZM23 41L23 44L26 44L26 41ZM41 41L41 44L44 44L44 41ZM45 41L45 42L46 42L46 41ZM17 42L17 43L16 43L16 44L17 44L17 43L18 43L18 42ZM24 42L24 43L25 43L25 42ZM27 42L27 45L28 45L28 46L29 46L29 44L28 44L28 43L29 43L29 42ZM42 42L42 43L43 43L43 42ZM12 45L12 47L13 47L13 45ZM40 45L40 46L42 46L42 45ZM48 45L48 46L49 46L49 45ZM9 46L9 47L10 47L10 46ZM14 46L14 48L13 48L13 49L16 49L16 48L15 48L15 46ZM23 46L23 47L24 47L24 46ZM36 46L36 47L37 47L37 46ZM18 47L18 48L17 48L17 49L19 49L19 47ZM33 47L33 48L34 48L34 47ZM46 47L46 49L49 49L49 48L47 48L47 47ZM40 48L40 49L42 49L42 48ZM0 0L0 7L7 7L7 0ZM1 1L1 6L6 6L6 1ZM2 2L2 5L5 5L5 2ZM42 0L42 7L49 7L49 0ZM43 1L43 6L48 6L48 1ZM44 2L44 5L47 5L47 2ZM0 42L0 49L7 49L7 42ZM1 43L1 48L6 48L6 43ZM2 44L2 47L5 47L5 44Z" fill="#000000"/></g></g></svg>
