<?xml version="1.0" encoding="UTF-8"?>
<svg xmlns="http://www.w3.org/2000/svg" version="1.1" width="200" height="200" viewBox="0 0 200 200"><rect x="0" y="0" width="200" height="200" fill="#ffffff"/><g transform="scale(3.774)"><g transform="translate(2,2)"><path fill-rule="evenodd" d="M8 0L8 3L9 3L9 2L10 2L10 3L12 3L12 4L13 4L13 3L15 3L15 2L13 2L13 3L12 3L12 2L11 2L11 1L13 1L13 0L11 0L11 1L9 1L9 0ZM15 0L15 1L16 1L16 4L17 4L17 6L16 6L16 7L15 7L15 6L14 6L14 5L15 5L15 4L14 4L14 5L12 5L12 7L11 7L11 6L10 6L10 4L9 4L9 5L8 5L8 9L7 9L7 8L6 8L6 9L7 9L7 10L6 10L6 11L8 11L8 12L9 12L9 13L8 13L8 14L6 14L6 13L7 13L7 12L5 12L5 11L4 11L4 9L5 9L5 8L2 8L2 9L1 9L1 10L0 10L0 11L1 11L1 12L0 12L0 13L1 13L1 12L2 12L2 13L3 13L3 14L2 14L2 15L3 15L3 16L2 16L2 17L3 17L3 18L2 18L2 19L0 19L0 20L2 20L2 19L3 19L3 20L4 20L4 19L5 19L5 18L4 18L4 17L3 17L3 16L4 16L4 15L5 15L5 16L6 16L6 17L7 17L7 16L10 16L10 17L12 17L12 18L10 18L10 20L11 20L11 19L16 19L16 21L15 21L15 20L13 20L13 21L12 21L12 23L13 23L13 27L12 27L12 24L11 24L11 22L10 22L10 23L9 23L9 22L8 22L8 21L7 21L7 20L5 20L5 21L7 21L7 22L4 22L4 23L3 23L3 22L2 22L2 21L1 21L1 22L0 22L0 23L1 23L1 22L2 22L2 23L3 23L3 25L1 25L1 24L0 24L0 27L1 27L1 28L0 28L0 30L1 30L1 29L2 29L2 28L3 28L3 30L5 30L5 29L7 29L7 30L6 30L6 31L5 31L5 34L4 34L4 33L2 33L2 34L1 34L1 35L0 35L0 37L1 37L1 40L0 40L0 41L3 41L3 40L4 40L4 39L2 39L2 36L1 36L1 35L3 35L3 37L4 37L4 38L5 38L5 39L7 39L7 40L6 40L6 41L7 41L7 40L8 40L8 39L7 39L7 38L5 38L5 37L7 37L7 36L11 36L11 35L12 35L12 34L13 34L13 36L12 36L12 37L10 37L10 38L11 38L11 40L10 40L10 41L11 41L11 43L9 43L9 44L8 44L8 47L10 47L10 48L9 48L9 49L10 49L10 48L11 48L11 47L12 47L12 48L13 48L13 49L16 49L16 48L17 48L17 49L19 49L19 48L20 48L20 49L21 49L21 47L22 47L22 48L23 48L23 49L24 49L24 48L25 48L25 47L24 47L24 46L25 46L25 45L27 45L27 46L26 46L26 49L27 49L27 46L28 46L28 47L29 47L29 48L28 48L28 49L29 49L29 48L30 48L30 49L31 49L31 48L33 48L33 49L35 49L35 48L36 48L36 49L39 49L39 48L40 48L40 49L42 49L42 48L43 48L43 46L47 46L47 47L48 47L48 48L46 48L46 47L45 47L45 48L46 48L46 49L49 49L49 42L48 42L48 41L49 41L49 40L48 40L48 41L47 41L47 40L46 40L46 41L45 41L45 40L42 40L42 39L43 39L43 37L45 37L45 38L46 38L46 39L47 39L47 38L48 38L48 39L49 39L49 38L48 38L48 37L49 37L49 34L48 34L48 33L47 33L47 32L49 32L49 30L48 30L48 29L49 29L49 28L46 28L46 26L47 26L47 24L46 24L46 23L47 23L47 22L48 22L48 23L49 23L49 22L48 22L48 21L49 21L49 18L48 18L48 17L49 17L49 14L48 14L48 13L49 13L49 12L48 12L48 13L47 13L47 12L46 12L46 11L45 11L45 10L46 10L46 9L47 9L47 10L48 10L48 11L49 11L49 10L48 10L48 9L49 9L49 8L46 8L46 9L45 9L45 10L44 10L44 11L42 11L42 10L43 10L43 9L44 9L44 8L40 8L40 7L41 7L41 6L40 6L40 7L39 7L39 5L38 5L38 4L37 4L37 3L36 3L36 2L37 2L37 1L38 1L38 2L39 2L39 4L40 4L40 3L41 3L41 0L40 0L40 1L38 1L38 0L37 0L37 1L36 1L36 2L35 2L35 1L34 1L34 0L33 0L33 1L34 1L34 2L31 2L31 4L30 4L30 5L32 5L32 7L31 7L31 6L30 6L30 8L32 8L32 9L33 9L33 10L34 10L34 12L33 12L33 11L32 11L32 10L31 10L31 13L30 13L30 12L28 12L28 11L30 11L30 10L26 10L26 9L28 9L28 8L29 8L29 5L27 5L27 4L29 4L29 3L28 3L28 2L29 2L29 1L31 1L31 0L29 0L29 1L28 1L28 2L27 2L27 0L22 0L22 2L21 2L21 3L22 3L22 7L21 7L21 6L20 6L20 8L22 8L22 10L21 10L21 9L20 9L20 11L19 11L19 12L20 12L20 13L21 13L21 14L22 14L22 13L24 13L24 14L23 14L23 16L24 16L24 17L23 17L23 18L18 18L18 21L17 21L17 17L16 17L16 16L17 16L17 15L18 15L18 13L17 13L17 12L16 12L16 11L14 11L14 10L17 10L17 8L16 8L16 7L17 7L17 6L18 6L18 7L19 7L19 6L18 6L18 3L20 3L20 1L21 1L21 0L19 0L19 1L18 1L18 2L17 2L17 0ZM23 1L23 4L26 4L26 3L27 3L27 2L26 2L26 1ZM34 2L34 5L33 5L33 4L32 4L32 5L33 5L33 7L32 7L32 8L33 8L33 7L34 7L34 10L35 10L35 13L34 13L34 14L33 14L33 16L32 16L32 15L31 15L31 17L29 17L29 16L30 16L30 14L29 14L29 13L28 13L28 12L25 12L25 11L24 11L24 9L23 9L23 10L22 10L22 11L24 11L24 13L25 13L25 15L24 15L24 16L25 16L25 17L27 17L27 16L28 16L28 18L29 18L29 20L30 20L30 19L31 19L31 17L32 17L32 20L35 20L35 21L34 21L34 22L32 22L32 24L31 24L31 25L30 25L30 23L28 23L28 22L30 22L30 21L28 21L28 19L25 19L25 20L27 20L27 21L28 21L28 22L27 22L27 24L29 24L29 25L28 25L28 27L27 27L27 30L25 30L25 33L24 33L24 35L25 35L25 33L27 33L27 34L26 34L26 35L28 35L28 36L25 36L25 37L24 37L24 38L23 38L23 36L22 36L22 35L19 35L19 34L18 34L18 35L19 35L19 36L18 36L18 39L17 39L17 37L16 37L16 39L15 39L15 41L14 41L14 40L13 40L13 42L15 42L15 43L13 43L13 45L14 45L14 44L15 44L15 43L16 43L16 45L15 45L15 46L12 46L12 43L11 43L11 45L10 45L10 44L9 44L9 46L12 46L12 47L15 47L15 46L16 46L16 45L18 45L18 46L19 46L19 47L17 47L17 48L19 48L19 47L21 47L21 46L22 46L22 45L19 45L19 44L21 44L21 43L22 43L22 42L21 42L21 40L23 40L23 39L24 39L24 40L25 40L25 39L26 39L26 40L27 40L27 42L30 42L30 43L29 43L29 45L28 45L28 46L31 46L31 47L30 47L30 48L31 48L31 47L34 47L34 48L35 48L35 47L36 47L36 48L37 48L37 47L36 47L36 44L38 44L38 45L37 45L37 46L39 46L39 47L38 47L38 48L39 48L39 47L40 47L40 46L41 46L41 48L42 48L42 45L40 45L40 46L39 46L39 44L38 44L38 43L39 43L39 40L41 40L41 39L42 39L42 36L43 36L43 35L44 35L44 36L45 36L45 37L46 37L46 38L47 38L47 37L48 37L48 34L47 34L47 33L46 33L46 32L47 32L47 31L48 31L48 30L47 30L47 29L46 29L46 28L45 28L45 27L42 27L42 28L41 28L41 27L40 27L40 26L39 26L39 25L38 25L38 24L39 24L39 23L40 23L40 22L42 22L42 21L43 21L43 22L44 22L44 21L46 21L46 22L45 22L45 23L46 23L46 22L47 22L47 21L48 21L48 20L47 20L47 19L48 19L48 18L47 18L47 17L48 17L48 14L47 14L47 15L45 15L45 16L42 16L42 17L41 17L41 16L39 16L39 17L40 17L40 18L37 18L37 17L38 17L38 16L37 16L37 14L39 14L39 13L40 13L40 15L41 15L41 14L42 14L42 15L44 15L44 14L46 14L46 12L43 12L43 13L44 13L44 14L42 14L42 11L40 11L40 10L42 10L42 9L40 9L40 8L39 8L39 7L38 7L38 6L37 6L37 10L39 10L39 11L36 11L36 10L35 10L35 9L36 9L36 8L35 8L35 7L36 7L36 6L35 6L35 7L34 7L34 5L37 5L37 4L36 4L36 3L35 3L35 2ZM20 4L20 5L21 5L21 4ZM23 5L23 8L26 8L26 5ZM9 6L9 8L10 8L10 10L11 10L11 11L13 11L13 10L11 10L11 7L10 7L10 6ZM13 6L13 7L12 7L12 8L13 8L13 9L14 9L14 8L15 8L15 7L14 7L14 6ZM24 6L24 7L25 7L25 6ZM27 6L27 8L28 8L28 6ZM18 8L18 10L19 10L19 8ZM38 8L38 9L39 9L39 10L40 10L40 9L39 9L39 8ZM2 9L2 10L1 10L1 11L2 11L2 12L3 12L3 13L4 13L4 12L3 12L3 11L2 11L2 10L3 10L3 9ZM8 9L8 11L9 11L9 9ZM20 11L20 12L21 12L21 11ZM11 12L11 14L10 14L10 13L9 13L9 14L10 14L10 16L11 16L11 14L12 14L12 13L13 13L13 14L14 14L14 15L12 15L12 17L15 17L15 16L16 16L16 15L17 15L17 14L16 14L16 15L15 15L15 14L14 14L14 13L13 13L13 12ZM32 12L32 13L31 13L31 14L32 14L32 13L33 13L33 12ZM36 12L36 14L37 14L37 13L39 13L39 12ZM40 12L40 13L41 13L41 12ZM26 13L26 14L28 14L28 13ZM0 14L0 15L1 15L1 14ZM3 14L3 15L4 15L4 14ZM5 14L5 15L6 15L6 16L7 16L7 15L6 15L6 14ZM34 14L34 16L33 16L33 17L34 17L34 18L33 18L33 19L34 19L34 18L35 18L35 16L36 16L36 17L37 17L37 16L36 16L36 15L35 15L35 14ZM19 15L19 16L20 16L20 17L22 17L22 16L20 16L20 15ZM25 15L25 16L27 16L27 15ZM46 16L46 17L42 17L42 20L46 20L46 21L47 21L47 20L46 20L46 19L47 19L47 18L46 18L46 17L47 17L47 16ZM8 17L8 18L6 18L6 19L8 19L8 18L9 18L9 17ZM23 18L23 19L22 19L22 20L23 20L23 21L21 21L21 19L20 19L20 20L19 20L19 22L18 22L18 23L17 23L17 22L15 22L15 21L14 21L14 23L17 23L17 24L18 24L18 27L20 27L20 28L19 28L19 29L20 29L20 28L21 28L21 30L20 30L20 31L21 31L21 32L22 32L22 30L23 30L23 32L24 32L24 29L22 29L22 28L23 28L23 27L22 27L22 26L21 26L21 24L22 24L22 22L24 22L24 18ZM36 18L36 19L35 19L35 20L36 20L36 22L37 22L37 23L39 23L39 22L40 22L40 21L41 21L41 20L40 20L40 19L39 19L39 20L40 20L40 21L39 21L39 22L37 22L37 20L36 20L36 19L37 19L37 18ZM43 18L43 19L45 19L45 18ZM20 21L20 23L21 23L21 21ZM25 21L25 22L26 22L26 21ZM34 22L34 23L33 23L33 26L34 26L34 27L31 27L31 26L32 26L32 25L31 25L31 26L30 26L30 25L29 25L29 26L30 26L30 27L29 27L29 29L30 29L30 30L27 30L27 33L29 33L29 32L30 32L30 35L29 35L29 36L33 36L33 34L34 34L34 35L35 35L35 36L34 36L34 37L32 37L32 38L34 38L34 39L31 39L31 37L30 37L30 40L29 40L29 38L28 38L28 37L25 37L25 38L27 38L27 40L29 40L29 41L30 41L30 42L31 42L31 40L34 40L34 39L35 39L35 40L36 40L36 41L38 41L38 40L36 40L36 39L39 39L39 38L36 38L36 37L38 37L38 36L39 36L39 37L40 37L40 39L41 39L41 37L40 37L40 36L39 36L39 35L41 35L41 36L42 36L42 35L43 35L43 34L42 34L42 35L41 35L41 34L40 34L40 32L39 32L39 34L37 34L37 35L38 35L38 36L36 36L36 34L34 34L34 32L35 32L35 33L36 33L36 32L37 32L37 31L39 31L39 30L40 30L40 31L41 31L41 30L40 30L40 29L41 29L41 28L38 28L38 29L39 29L39 30L37 30L37 28L36 28L36 27L39 27L39 26L34 26L34 23L35 23L35 24L36 24L36 25L37 25L37 24L36 24L36 23L35 23L35 22ZM5 23L5 26L8 26L8 23ZM18 23L18 24L19 24L19 23ZM23 23L23 26L26 26L26 23ZM41 23L41 26L44 26L44 23ZM6 24L6 25L7 25L7 24ZM10 24L10 25L9 25L9 26L11 26L11 24ZM14 24L14 25L16 25L16 26L14 26L14 27L15 27L15 29L14 29L14 28L13 28L13 29L14 29L14 31L12 31L12 29L11 29L11 31L9 31L9 32L7 32L7 31L8 31L8 30L10 30L10 29L9 29L9 28L8 28L8 27L3 27L3 28L4 28L4 29L5 29L5 28L7 28L7 29L8 29L8 30L7 30L7 31L6 31L6 32L7 32L7 33L6 33L6 34L7 34L7 33L11 33L11 34L10 34L10 35L11 35L11 34L12 34L12 32L16 32L16 30L15 30L15 29L18 29L18 28L16 28L16 26L17 26L17 25L16 25L16 24ZM24 24L24 25L25 25L25 24ZM42 24L42 25L43 25L43 24ZM45 24L45 25L46 25L46 24ZM3 25L3 26L4 26L4 25ZM20 26L20 27L21 27L21 26ZM48 26L48 27L49 27L49 26ZM10 27L10 28L11 28L11 27ZM25 28L25 29L26 29L26 28ZM30 28L30 29L34 29L34 30L32 30L32 31L30 31L30 32L33 32L33 31L34 31L34 30L35 30L35 32L36 32L36 30L35 30L35 29L36 29L36 28ZM44 28L44 29L42 29L42 31L43 31L43 32L42 32L42 33L45 33L45 32L46 32L46 31L47 31L47 30L46 30L46 29L45 29L45 28ZM44 29L44 30L43 30L43 31L44 31L44 32L45 32L45 31L44 31L44 30L45 30L45 29ZM18 30L18 31L19 31L19 30ZM1 31L1 32L0 32L0 33L1 33L1 32L3 32L3 31ZM17 32L17 33L16 33L16 34L14 34L14 33L13 33L13 34L14 34L14 35L16 35L16 36L17 36L17 33L20 33L20 32ZM31 33L31 34L32 34L32 33ZM3 34L3 35L4 35L4 34ZM44 34L44 35L45 35L45 36L46 36L46 37L47 37L47 36L46 36L46 35L47 35L47 34ZM5 35L5 36L7 36L7 35ZM13 36L13 37L14 37L14 38L12 38L12 39L14 39L14 38L15 38L15 37L14 37L14 36ZM19 36L19 37L20 37L20 38L19 38L19 43L20 43L20 39L22 39L22 38L21 38L21 36ZM35 36L35 37L34 37L34 38L35 38L35 39L36 39L36 38L35 38L35 37L36 37L36 36ZM16 39L16 41L15 41L15 42L16 42L16 43L17 43L17 44L18 44L18 43L17 43L17 42L18 42L18 41L17 41L17 39ZM8 41L8 42L9 42L9 41ZM16 41L16 42L17 42L17 41ZM23 41L23 44L26 44L26 41ZM33 41L33 42L34 42L34 41ZM41 41L41 44L44 44L44 41ZM46 41L46 44L45 44L45 45L46 45L46 44L47 44L47 46L48 46L48 42L47 42L47 41ZM24 42L24 43L25 43L25 42ZM36 42L36 43L35 43L35 44L36 44L36 43L38 43L38 42ZM42 42L42 43L43 43L43 42ZM30 43L30 44L33 44L33 45L32 45L32 46L34 46L34 47L35 47L35 46L34 46L34 43ZM0 0L0 7L7 7L7 0ZM1 1L1 6L6 6L6 1ZM2 2L2 5L5 5L5 2ZM42 0L42 7L49 7L49 0ZM43 1L43 6L48 6L48 1ZM44 2L44 5L47 5L47 2ZM0 42L0 49L7 49L7 42ZM1 43L1 48L6 48L6 43ZM2 44L2 47L5 47L5 44Z" fill="#000000"/></g></g></svg>
