<?xml version="1.0" encoding="UTF-8"?>
<svg xmlns="http://www.w3.org/2000/svg" version="1.1" width="200" height="200" viewBox="0 0 200 200"><rect x="0" y="0" width="200" height="200" fill="#ffffff"/><g transform="scale(3.774)"><g transform="translate(2,2)"><path fill-rule="evenodd" d="M8 0L8 1L9 1L9 2L10 2L10 3L11 3L11 4L12 4L12 5L11 5L11 6L10 6L10 7L9 7L9 6L8 6L8 7L9 7L9 8L8 8L8 9L7 9L7 8L4 8L4 9L5 9L5 16L2 16L2 14L3 14L3 13L4 13L4 12L3 12L3 13L1 13L1 11L2 11L2 10L1 10L1 11L0 11L0 13L1 13L1 16L0 16L0 19L1 19L1 18L2 18L2 17L3 17L3 19L4 19L4 20L3 20L3 24L2 24L2 20L0 20L0 21L1 21L1 22L0 22L0 23L1 23L1 24L0 24L0 25L1 25L1 26L0 26L0 27L1 27L1 26L2 26L2 27L3 27L3 26L2 26L2 25L3 25L3 24L4 24L4 27L7 27L7 28L6 28L6 29L7 29L7 30L5 30L5 28L4 28L4 29L3 29L3 30L2 30L2 28L1 28L1 30L0 30L0 31L1 31L1 32L0 32L0 34L2 34L2 35L1 35L1 36L0 36L0 37L1 37L1 40L0 40L0 41L3 41L3 40L4 40L4 39L2 39L2 36L3 36L3 37L4 37L4 38L5 38L5 39L8 39L8 40L6 40L6 41L8 41L8 42L9 42L9 43L8 43L8 45L9 45L9 46L8 46L8 47L11 47L11 48L10 48L10 49L15 49L15 48L14 48L14 47L15 47L15 46L14 46L14 47L13 47L13 48L12 48L12 47L11 47L11 46L10 46L10 45L9 45L9 44L12 44L12 45L14 45L14 44L12 44L12 43L15 43L15 42L17 42L17 40L18 40L18 39L17 39L17 40L16 40L16 41L14 41L14 40L15 40L15 38L16 38L16 37L13 37L13 39L14 39L14 40L13 40L13 42L12 42L12 41L11 41L11 42L12 42L12 43L10 43L10 40L12 40L12 39L8 39L8 38L6 38L6 37L7 37L7 36L6 36L6 35L8 35L8 34L10 34L10 33L11 33L11 35L12 35L12 36L11 36L11 38L12 38L12 36L16 36L16 35L17 35L17 36L18 36L18 35L19 35L19 37L18 37L18 38L21 38L21 39L20 39L20 41L19 41L19 42L20 42L20 44L19 44L19 43L18 43L18 44L19 44L19 45L18 45L18 46L19 46L19 45L20 45L20 44L21 44L21 49L22 49L22 45L23 45L23 46L24 46L24 47L23 47L23 49L24 49L24 48L26 48L26 46L27 46L27 49L29 49L29 47L30 47L30 48L31 48L31 47L30 47L30 45L31 45L31 46L32 46L32 49L33 49L33 48L34 48L34 45L35 45L35 46L36 46L36 45L37 45L37 47L36 47L36 49L37 49L37 47L38 47L38 45L39 45L39 48L38 48L38 49L40 49L40 48L41 48L41 49L42 49L42 47L43 47L43 46L42 46L42 45L44 45L44 47L45 47L45 49L46 49L46 47L47 47L47 49L49 49L49 48L48 48L48 47L49 47L49 46L48 46L48 45L49 45L49 44L48 44L48 43L49 43L49 40L48 40L48 39L49 39L49 32L48 32L48 35L47 35L47 36L48 36L48 39L47 39L47 40L46 40L46 38L44 38L44 35L45 35L45 37L46 37L46 35L45 35L45 34L44 34L44 32L45 32L45 33L46 33L46 31L47 31L47 30L46 30L46 27L48 27L48 31L49 31L49 25L48 25L48 26L46 26L46 23L47 23L47 24L48 24L48 23L49 23L49 20L48 20L48 23L47 23L47 22L46 22L46 23L45 23L45 21L46 21L46 19L45 19L45 18L46 18L46 17L45 17L45 13L46 13L46 11L45 11L45 10L44 10L44 9L43 9L43 10L44 10L44 13L43 13L43 12L42 12L42 8L41 8L41 10L40 10L40 7L41 7L41 6L40 6L40 7L39 7L39 5L38 5L38 3L37 3L37 5L38 5L38 7L37 7L37 6L36 6L36 7L37 7L37 8L36 8L36 9L37 9L37 10L36 10L36 13L35 13L35 12L33 12L33 11L34 11L34 9L35 9L35 4L36 4L36 1L37 1L37 2L39 2L39 4L40 4L40 3L41 3L41 0L40 0L40 1L38 1L38 0L36 0L36 1L35 1L35 0L34 0L34 2L35 2L35 4L34 4L34 7L33 7L33 5L31 5L31 4L33 4L33 3L32 3L32 2L33 2L33 1L32 1L32 0L29 0L29 1L28 1L28 0L25 0L25 1L24 1L24 0L21 0L21 1L23 1L23 2L24 2L24 3L23 3L23 4L22 4L22 3L21 3L21 2L20 2L20 1L19 1L19 0L18 0L18 1L16 1L16 0L13 0L13 1L14 1L14 2L10 2L10 1L12 1L12 0ZM18 1L18 2L19 2L19 1ZM25 1L25 2L26 2L26 3L27 3L27 2L26 2L26 1ZM15 2L15 3L12 3L12 4L13 4L13 8L14 8L14 6L15 6L15 7L16 7L16 5L19 5L19 7L20 7L20 8L19 8L19 9L20 9L20 8L22 8L22 6L21 6L21 5L22 5L22 4L21 4L21 3L20 3L20 4L21 4L21 5L19 5L19 4L18 4L18 3L16 3L16 2ZM28 2L28 4L27 4L27 5L28 5L28 4L29 4L29 5L30 5L30 3L31 3L31 2L30 2L30 3L29 3L29 2ZM8 3L8 4L9 4L9 5L10 5L10 4L9 4L9 3ZM15 3L15 4L14 4L14 5L15 5L15 4L16 4L16 3ZM23 5L23 8L26 8L26 5ZM11 6L11 7L12 7L12 6ZM17 6L17 7L18 7L18 6ZM20 6L20 7L21 7L21 6ZM24 6L24 7L25 7L25 6ZM27 6L27 7L28 7L28 6ZM29 6L29 8L30 8L30 9L31 9L31 10L32 10L32 9L34 9L34 8L33 8L33 7L32 7L32 6L31 6L31 7L30 7L30 6ZM31 7L31 9L32 9L32 7ZM38 7L38 8L37 8L37 9L38 9L38 12L40 12L40 14L39 14L39 13L38 13L38 15L37 15L37 14L36 14L36 15L35 15L35 13L34 13L34 15L33 15L33 14L32 14L32 15L31 15L31 13L30 13L30 15L31 15L31 16L30 16L30 17L29 17L29 15L28 15L28 14L29 14L29 12L30 12L30 10L28 10L28 8L27 8L27 10L28 10L28 11L29 11L29 12L28 12L28 14L27 14L27 13L26 13L26 9L24 9L24 10L25 10L25 14L23 14L23 17L25 17L25 16L24 16L24 15L26 15L26 14L27 14L27 16L28 16L28 17L27 17L27 19L29 19L29 18L30 18L30 19L31 19L31 20L30 20L30 21L29 21L29 20L26 20L26 18L25 18L25 19L24 19L24 18L23 18L23 20L22 20L22 16L21 16L21 17L20 17L20 15L19 15L19 17L18 17L18 18L16 18L16 17L17 17L17 16L16 16L16 15L15 15L15 14L17 14L17 15L18 15L18 13L16 13L16 12L17 12L17 11L19 11L19 12L21 12L21 14L22 14L22 13L24 13L24 12L23 12L23 11L22 11L22 10L23 10L23 9L21 9L21 10L20 10L20 11L19 11L19 10L17 10L17 9L18 9L18 8L17 8L17 9L16 9L16 8L15 8L15 9L14 9L14 10L13 10L13 11L12 11L12 12L11 12L11 10L12 10L12 8L11 8L11 9L10 9L10 8L9 8L9 9L10 9L10 11L9 11L9 10L7 10L7 9L6 9L6 10L7 10L7 11L6 11L6 12L8 12L8 13L6 13L6 14L7 14L7 15L6 15L6 16L5 16L5 18L4 18L4 19L5 19L5 21L4 21L4 22L7 22L7 21L8 21L8 22L10 22L10 23L9 23L9 26L11 26L11 28L10 28L10 29L11 29L11 30L7 30L7 31L6 31L6 32L5 32L5 30L4 30L4 31L2 31L2 32L1 32L1 33L2 33L2 32L5 32L5 33L6 33L6 34L8 34L8 33L6 33L6 32L9 32L9 31L11 31L11 32L12 32L12 34L13 34L13 35L14 35L14 33L15 33L15 32L14 32L14 31L11 31L11 30L14 30L14 29L15 29L15 31L16 31L16 33L18 33L18 34L17 34L17 35L18 35L18 34L19 34L19 35L20 35L20 36L21 36L21 35L22 35L22 37L23 37L23 38L22 38L22 39L23 39L23 40L24 40L24 39L25 39L25 40L27 40L27 38L24 38L24 37L25 37L25 36L23 36L23 35L24 35L24 34L23 34L23 32L24 32L24 33L26 33L26 34L25 34L25 35L26 35L26 34L27 34L27 35L28 35L28 37L30 37L30 36L31 36L31 37L32 37L32 38L33 38L33 37L34 37L34 40L35 40L35 41L34 41L34 42L35 42L35 43L34 43L34 44L33 44L33 45L32 45L32 43L33 43L33 41L32 41L32 39L30 39L30 38L28 38L28 42L27 42L27 46L28 46L28 42L29 42L29 44L30 44L30 43L31 43L31 45L32 45L32 46L33 46L33 45L34 45L34 44L35 44L35 45L36 45L36 42L35 42L35 41L36 41L36 39L37 39L37 37L38 37L38 40L39 40L39 41L38 41L38 42L39 42L39 43L40 43L40 42L39 42L39 41L40 41L40 40L42 40L42 38L43 38L43 39L44 39L44 38L43 38L43 36L42 36L42 34L43 34L43 35L44 35L44 34L43 34L43 33L42 33L42 32L41 32L41 31L42 31L42 30L43 30L43 32L44 32L44 31L46 31L46 30L44 30L44 28L45 28L45 27L46 27L46 26L45 26L45 27L44 27L44 28L42 28L42 27L39 27L39 25L38 25L38 24L39 24L39 23L40 23L40 22L41 22L41 21L42 21L42 22L43 22L43 21L44 21L44 18L45 18L45 17L44 17L44 14L43 14L43 13L42 13L42 12L41 12L41 11L39 11L39 9L38 9L38 8L39 8L39 7ZM2 8L2 9L3 9L3 8ZM45 8L45 9L46 9L46 8ZM48 8L48 11L47 11L47 12L48 12L48 15L47 15L47 16L48 16L48 15L49 15L49 8ZM16 10L16 11L15 11L15 12L14 12L14 11L13 11L13 12L12 12L12 13L9 13L9 14L12 14L12 15L11 15L11 16L9 16L9 15L7 15L7 16L6 16L6 17L7 17L7 16L8 16L8 18L5 18L5 19L9 19L9 17L10 17L10 19L11 19L11 18L12 18L12 19L13 19L13 18L14 18L14 17L11 17L11 16L15 16L15 15L13 15L13 14L12 14L12 13L15 13L15 12L16 12L16 11L17 11L17 10ZM8 11L8 12L9 12L9 11ZM21 11L21 12L22 12L22 11ZM19 13L19 14L20 14L20 13ZM41 13L41 14L40 14L40 15L38 15L38 16L39 16L39 17L38 17L38 19L37 19L37 18L36 18L36 17L37 17L37 15L36 15L36 17L34 17L34 19L35 19L35 18L36 18L36 21L35 21L35 22L36 22L36 25L35 25L35 26L36 26L36 29L37 29L37 30L36 30L36 31L35 31L35 32L34 32L34 29L33 29L33 28L34 28L34 25L33 25L33 24L34 24L34 21L33 21L33 22L32 22L32 20L31 20L31 22L30 22L30 23L31 23L31 22L32 22L32 23L33 23L33 24L32 24L32 25L33 25L33 26L32 26L32 28L31 28L31 26L30 26L30 25L31 25L31 24L30 24L30 25L28 25L28 27L29 27L29 30L28 30L28 28L27 28L27 24L28 24L28 23L27 23L27 22L26 22L26 21L25 21L25 22L24 22L24 21L21 21L21 19L20 19L20 17L19 17L19 19L20 19L20 20L19 20L19 22L18 22L18 19L17 19L17 20L16 20L16 18L15 18L15 20L16 20L16 21L15 21L15 23L13 23L13 24L12 24L12 25L14 25L14 26L15 26L15 25L17 25L17 26L18 26L18 27L19 27L19 28L16 28L16 27L13 27L13 26L12 26L12 27L13 27L13 28L11 28L11 29L14 29L14 28L15 28L15 29L16 29L16 30L17 30L17 32L18 32L18 33L19 33L19 34L20 34L20 32L18 32L18 31L21 31L21 32L23 32L23 30L27 30L27 31L24 31L24 32L27 32L27 33L28 33L28 34L29 34L29 32L30 32L30 33L31 33L31 36L32 36L32 37L33 37L33 35L34 35L34 33L35 33L35 36L34 36L34 37L35 37L35 38L36 38L36 37L37 37L37 36L38 36L38 37L39 37L39 36L38 36L38 33L36 33L36 31L37 31L37 32L38 32L38 29L39 29L39 28L38 28L38 25L37 25L37 23L38 23L38 21L39 21L39 22L40 22L40 19L41 19L41 20L42 20L42 19L43 19L43 18L44 18L44 17L43 17L43 16L42 16L42 13ZM34 15L34 16L35 16L35 15ZM32 16L32 17L31 17L31 18L32 18L32 19L33 19L33 18L32 18L32 17L33 17L33 16ZM40 17L40 18L41 18L41 17ZM42 17L42 18L43 18L43 17ZM48 17L48 19L49 19L49 17ZM38 19L38 20L37 20L37 21L36 21L36 22L37 22L37 21L38 21L38 20L39 20L39 19ZM6 20L6 21L7 21L7 20ZM8 20L8 21L9 21L9 20ZM10 20L10 22L12 22L12 21L13 21L13 20L12 20L12 21L11 21L11 20ZM16 21L16 22L17 22L17 21ZM28 21L28 22L29 22L29 21ZM19 22L19 23L20 23L20 24L18 24L18 23L15 23L15 24L18 24L18 25L20 25L20 26L22 26L22 25L21 25L21 24L22 24L22 22ZM5 23L5 26L8 26L8 23ZM10 23L10 24L11 24L11 23ZM23 23L23 26L26 26L26 23ZM41 23L41 26L44 26L44 23ZM1 24L1 25L2 25L2 24ZM6 24L6 25L7 25L7 24ZM24 24L24 25L25 25L25 24ZM42 24L42 25L43 25L43 24ZM8 27L8 28L7 28L7 29L8 29L8 28L9 28L9 27ZM20 27L20 29L19 29L19 30L20 30L20 29L22 29L22 30L21 30L21 31L22 31L22 30L23 30L23 29L24 29L24 28L23 28L23 27L22 27L22 28L21 28L21 27ZM25 27L25 29L26 29L26 27ZM22 28L22 29L23 29L23 28ZM30 28L30 29L31 29L31 28ZM37 28L37 29L38 29L38 28ZM40 28L40 29L41 29L41 30L42 30L42 29L41 29L41 28ZM17 29L17 30L18 30L18 29ZM32 30L32 33L34 33L34 32L33 32L33 30ZM28 31L28 32L29 32L29 31ZM30 31L30 32L31 32L31 31ZM13 32L13 33L14 33L14 32ZM40 32L40 33L41 33L41 34L42 34L42 33L41 33L41 32ZM3 34L3 35L4 35L4 36L5 36L5 37L6 37L6 36L5 36L5 34ZM15 34L15 35L16 35L16 34ZM32 34L32 35L33 35L33 34ZM36 34L36 35L37 35L37 34ZM29 35L29 36L30 36L30 35ZM8 36L8 37L9 37L9 38L10 38L10 36ZM35 36L35 37L36 37L36 36ZM40 36L40 38L39 38L39 39L40 39L40 38L41 38L41 36ZM23 38L23 39L24 39L24 38ZM21 40L21 41L20 41L20 42L21 42L21 44L22 44L22 42L21 42L21 41L22 41L22 40ZM29 40L29 41L31 41L31 40ZM45 40L45 41L46 41L46 42L45 42L45 43L46 43L46 46L47 46L47 45L48 45L48 44L47 44L47 43L48 43L48 40L47 40L47 41L46 41L46 40ZM23 41L23 44L26 44L26 41ZM41 41L41 44L44 44L44 41ZM24 42L24 43L25 43L25 42ZM42 42L42 43L43 43L43 42ZM46 42L46 43L47 43L47 42ZM16 43L16 44L17 44L17 43ZM39 44L39 45L40 45L40 47L41 47L41 45L40 45L40 44ZM16 45L16 49L17 49L17 48L18 48L18 47L17 47L17 45ZM25 45L25 46L26 46L26 45ZM19 47L19 49L20 49L20 47ZM0 0L0 7L7 7L7 0ZM1 1L1 6L6 6L6 1ZM2 2L2 5L5 5L5 2ZM42 0L42 7L49 7L49 0ZM43 1L43 6L48 6L48 1ZM44 2L44 5L47 5L47 2ZM0 42L0 49L7 49L7 42ZM1 43L1 48L6 48L6 43ZM2 44L2 47L5 47L5 44Z" fill="#000000"/></g></g></svg>
