<?xml version="1.0" encoding="UTF-8"?>
<svg xmlns="http://www.w3.org/2000/svg" version="1.1" width="200" height="200" viewBox="0 0 200 200"><rect x="0" y="0" width="200" height="200" fill="#ffffff"/><g transform="scale(3.774)"><g transform="translate(2,2)"><path fill-rule="evenodd" d="M8 0L8 3L9 3L9 4L12 4L12 5L11 5L11 6L10 6L10 7L9 7L9 5L8 5L8 9L10 9L10 10L8 10L8 11L7 11L7 10L6 10L6 11L4 11L4 9L5 9L5 8L2 8L2 9L3 9L3 11L2 11L2 12L0 12L0 13L1 13L1 15L0 15L0 16L2 16L2 17L1 17L1 18L0 18L0 20L1 20L1 23L0 23L0 27L3 27L3 28L2 28L2 29L3 29L3 28L4 28L4 29L5 29L5 30L6 30L6 31L4 31L4 32L3 32L3 30L1 30L1 29L0 29L0 31L2 31L2 32L3 32L3 33L1 33L1 32L0 32L0 33L1 33L1 34L0 34L0 37L1 37L1 35L2 35L2 36L3 36L3 37L2 37L2 38L1 38L1 40L0 40L0 41L3 41L3 40L4 40L4 39L2 39L2 38L3 38L3 37L4 37L4 38L5 38L5 39L8 39L8 40L6 40L6 41L8 41L8 42L9 42L9 41L10 41L10 39L9 39L9 38L11 38L11 39L13 39L13 41L14 41L14 42L16 42L16 43L17 43L17 44L16 44L16 45L18 45L18 46L16 46L16 47L15 47L15 46L14 46L14 45L15 45L15 44L14 44L14 43L13 43L13 42L12 42L12 40L11 40L11 43L10 43L10 44L8 44L8 47L9 47L9 48L10 48L10 49L12 49L12 48L11 48L11 46L12 46L12 47L14 47L14 48L16 48L16 49L18 49L18 48L19 48L19 49L21 49L21 48L22 48L22 49L23 49L23 48L22 48L22 47L23 47L23 46L24 46L24 47L25 47L25 49L27 49L27 48L26 48L26 47L25 47L25 46L27 46L27 45L28 45L28 46L29 46L29 47L28 47L28 49L30 49L30 48L29 48L29 47L31 47L31 48L33 48L33 49L34 49L34 47L35 47L35 48L36 48L36 49L37 49L37 48L36 48L36 47L39 47L39 48L38 48L38 49L39 49L39 48L40 48L40 49L42 49L42 48L43 48L43 46L45 46L45 44L46 44L46 45L47 45L47 44L46 44L46 41L45 41L45 40L46 40L46 39L45 39L45 40L42 40L42 39L43 39L43 38L42 38L42 39L41 39L41 37L40 37L40 36L39 36L39 37L40 37L40 39L41 39L41 40L39 40L39 43L38 43L38 42L37 42L37 41L38 41L38 40L36 40L36 38L34 38L34 39L31 39L31 38L33 38L33 37L35 37L35 36L36 36L36 37L37 37L37 36L38 36L38 35L41 35L41 36L42 36L42 37L45 37L45 38L46 38L46 37L47 37L47 38L48 38L48 40L49 40L49 38L48 38L48 37L49 37L49 36L48 36L48 37L47 37L47 36L46 36L46 33L47 33L47 34L48 34L48 35L49 35L49 34L48 34L48 33L49 33L49 32L46 32L46 30L48 30L48 31L49 31L49 30L48 30L48 29L49 29L49 28L48 28L48 27L49 27L49 24L46 24L46 22L45 22L45 21L44 21L44 22L43 22L43 21L42 21L42 22L40 22L40 21L41 21L41 20L40 20L40 19L39 19L39 20L40 20L40 21L39 21L39 22L37 22L37 20L36 20L36 19L35 19L35 20L33 20L33 22L34 22L34 23L33 23L33 26L34 26L34 27L32 27L32 28L31 28L31 29L32 29L32 30L31 30L31 31L32 31L32 30L34 30L34 31L33 31L33 32L30 32L30 30L29 30L29 29L30 29L30 25L31 25L31 26L32 26L32 25L31 25L31 24L32 24L32 22L31 22L31 21L30 21L30 20L31 20L31 18L30 18L30 17L34 17L34 18L33 18L33 19L34 19L34 18L35 18L35 16L36 16L36 18L40 18L40 17L39 17L39 16L41 16L41 17L42 17L42 18L41 18L41 19L42 19L42 20L46 20L46 21L47 21L47 22L48 22L48 23L49 23L49 22L48 22L48 21L49 21L49 18L48 18L48 17L49 17L49 14L48 14L48 13L49 13L49 10L48 10L48 9L49 9L49 8L46 8L46 9L47 9L47 10L44 10L44 8L40 8L40 7L41 7L41 6L40 6L40 7L39 7L39 5L38 5L38 4L37 4L37 3L36 3L36 2L37 2L37 1L36 1L36 2L35 2L35 1L34 1L34 0L30 0L30 1L29 1L29 0L24 0L24 4L23 4L23 3L22 3L22 5L21 5L21 2L23 2L23 0L21 0L21 1L20 1L20 0L18 0L18 1L17 1L17 2L16 2L16 5L15 5L15 6L14 6L14 4L15 4L15 1L16 1L16 0L15 0L15 1L11 1L11 0ZM40 0L40 1L38 1L38 2L39 2L39 4L40 4L40 3L41 3L41 0ZM18 1L18 2L17 2L17 3L19 3L19 5L18 5L18 4L17 4L17 5L18 5L18 6L17 6L17 7L16 7L16 6L15 6L15 7L14 7L14 6L13 6L13 7L14 7L14 8L17 8L17 10L16 10L16 9L15 9L15 10L13 10L13 8L11 8L11 7L12 7L12 6L11 6L11 7L10 7L10 8L11 8L11 9L12 9L12 10L11 10L11 11L10 11L10 12L9 12L9 13L6 13L6 12L7 12L7 11L6 11L6 12L4 12L4 15L2 15L2 16L4 16L4 17L2 17L2 18L3 18L3 19L1 19L1 20L4 20L4 21L3 21L3 22L4 22L4 21L5 21L5 22L7 22L7 21L8 21L8 22L10 22L10 21L11 21L11 23L12 23L12 26L11 26L11 27L10 27L10 26L9 26L9 28L7 28L7 27L6 27L6 28L5 28L5 27L4 27L4 25L1 25L1 26L3 26L3 27L4 27L4 28L5 28L5 29L6 29L6 30L7 30L7 29L9 29L9 30L8 30L8 31L6 31L6 32L7 32L7 33L5 33L5 32L4 32L4 33L5 33L5 34L3 34L3 36L5 36L5 38L9 38L9 37L12 37L12 38L13 38L13 39L14 39L14 41L15 41L15 40L16 40L16 39L18 39L18 40L17 40L17 43L19 43L19 44L18 44L18 45L19 45L19 47L20 47L20 48L21 48L21 47L22 47L22 44L21 44L21 43L22 43L22 41L21 41L21 43L19 43L19 39L20 39L20 40L21 40L21 39L20 39L20 38L18 38L18 37L17 37L17 35L19 35L19 34L21 34L21 35L20 35L20 36L19 36L19 37L20 37L20 36L21 36L21 35L24 35L24 36L23 36L23 37L24 37L24 36L25 36L25 35L26 35L26 36L27 36L27 39L25 39L25 38L24 38L24 40L27 40L27 39L29 39L29 40L28 40L28 42L27 42L27 44L28 44L28 42L29 42L29 43L30 43L30 44L29 44L29 45L30 45L30 46L31 46L31 47L34 47L34 46L35 46L35 47L36 47L36 44L38 44L38 45L37 45L37 46L39 46L39 47L40 47L40 46L41 46L41 48L42 48L42 46L41 46L41 45L40 45L40 46L39 46L39 44L38 44L38 43L36 43L36 40L35 40L35 39L34 39L34 40L31 40L31 39L30 39L30 38L31 38L31 34L32 34L32 33L30 33L30 32L29 32L29 30L28 30L28 29L29 29L29 28L27 28L27 27L26 27L26 28L25 28L25 27L24 27L24 30L23 30L23 31L22 31L22 32L24 32L24 31L25 31L25 32L26 32L26 33L25 33L25 34L21 34L21 32L19 32L19 30L18 30L18 32L19 32L19 33L18 33L18 34L17 34L17 32L16 32L16 33L15 33L15 34L14 34L14 32L12 32L12 33L13 33L13 34L11 34L11 35L12 35L12 36L10 36L10 34L8 34L8 33L9 33L9 30L10 30L10 31L11 31L11 29L10 29L10 28L11 28L11 27L12 27L12 29L13 29L13 28L14 28L14 27L16 27L16 28L17 28L17 26L18 26L18 29L19 29L19 27L20 27L20 30L22 30L22 29L23 29L23 28L22 28L22 26L21 26L21 27L20 27L20 26L19 26L19 25L21 25L21 24L22 24L22 23L21 23L21 24L19 24L19 23L20 23L20 22L21 22L21 20L19 20L19 18L20 18L20 19L23 19L23 20L24 20L24 21L23 21L23 22L24 22L24 21L25 21L25 20L24 20L24 19L23 19L23 18L21 18L21 16L23 16L23 17L24 17L24 18L25 18L25 19L26 19L26 20L27 20L27 21L28 21L28 20L29 20L29 18L28 18L28 17L30 17L30 16L31 16L31 14L30 14L30 15L29 15L29 16L28 16L28 15L27 15L27 14L29 14L29 13L31 13L31 11L32 11L32 13L33 13L33 11L34 11L34 12L35 12L35 13L34 13L34 14L35 14L35 13L36 13L36 14L39 14L39 13L40 13L40 15L41 15L41 16L42 16L42 15L45 15L45 16L43 16L43 19L45 19L45 18L44 18L44 17L45 17L45 16L46 16L46 18L47 18L47 19L46 19L46 20L47 20L47 21L48 21L48 20L47 20L47 19L48 19L48 18L47 18L47 17L48 17L48 14L47 14L47 16L46 16L46 15L45 15L45 14L46 14L46 12L47 12L47 13L48 13L48 10L47 10L47 11L46 11L46 12L43 12L43 14L42 14L42 13L40 13L40 12L42 12L42 11L44 11L44 10L42 10L42 9L40 9L40 8L39 8L39 7L38 7L38 6L37 6L37 10L39 10L39 11L36 11L36 10L35 10L35 9L36 9L36 8L35 8L35 7L36 7L36 6L35 6L35 7L34 7L34 5L37 5L37 4L36 4L36 3L35 3L35 2L34 2L34 1L33 1L33 2L34 2L34 3L35 3L35 4L34 4L34 5L33 5L33 3L32 3L32 1L31 1L31 4L30 4L30 6L29 6L29 5L28 5L28 4L29 4L29 3L28 3L28 2L29 2L29 1L28 1L28 2L27 2L27 3L28 3L28 4L27 4L27 5L28 5L28 6L27 6L27 7L28 7L28 8L27 8L27 9L26 9L26 10L27 10L27 11L26 11L26 12L25 12L25 10L24 10L24 11L23 11L23 10L22 10L22 6L21 6L21 8L19 8L19 7L20 7L20 1ZM9 2L9 3L10 3L10 2ZM11 2L11 3L13 3L13 2ZM25 2L25 4L26 4L26 2ZM31 4L31 5L32 5L32 7L31 7L31 6L30 6L30 7L31 7L31 10L32 10L32 11L33 11L33 10L34 10L34 11L35 11L35 12L36 12L36 13L37 13L37 12L36 12L36 11L35 11L35 10L34 10L34 7L33 7L33 5L32 5L32 4ZM23 5L23 8L26 8L26 5ZM18 6L18 7L17 7L17 8L18 8L18 10L19 10L19 8L18 8L18 7L19 7L19 6ZM24 6L24 7L25 7L25 6ZM28 6L28 7L29 7L29 6ZM6 8L6 9L7 9L7 8ZM29 8L29 9L28 9L28 11L27 11L27 13L28 13L28 12L29 12L29 11L30 11L30 8ZM32 8L32 10L33 10L33 8ZM38 8L38 9L39 9L39 10L40 10L40 11L42 11L42 10L40 10L40 9L39 9L39 8ZM0 9L0 10L1 10L1 9ZM20 9L20 10L21 10L21 9ZM11 11L11 12L12 12L12 14L11 14L11 13L10 13L10 14L11 14L11 15L10 15L10 16L11 16L11 17L9 17L9 14L8 14L8 15L7 15L7 14L6 14L6 15L4 15L4 16L5 16L5 17L7 17L7 18L5 18L5 19L4 19L4 20L5 20L5 21L7 21L7 20L8 20L8 17L9 17L9 19L10 19L10 20L11 20L11 19L12 19L12 20L13 20L13 21L14 21L14 22L15 22L15 21L14 21L14 20L15 20L15 17L18 17L18 18L17 18L17 21L16 21L16 22L17 22L17 24L18 24L18 22L20 22L20 21L18 21L18 18L19 18L19 16L18 16L18 15L19 15L19 14L15 14L15 15L17 15L17 16L15 16L15 17L12 17L12 16L11 16L11 15L13 15L13 11ZM22 11L22 12L23 12L23 11ZM2 12L2 14L3 14L3 12ZM17 12L17 13L18 13L18 12ZM20 12L20 13L21 13L21 14L20 14L20 16L21 16L21 14L23 14L23 16L25 16L25 15L26 15L26 16L27 16L27 15L26 15L26 13L21 13L21 12ZM38 12L38 13L39 13L39 12ZM24 14L24 15L25 15L25 14ZM32 14L32 16L34 16L34 15L33 15L33 14ZM41 14L41 15L42 15L42 14ZM6 15L6 16L7 16L7 15ZM36 15L36 16L37 16L37 17L38 17L38 16L37 16L37 15ZM25 17L25 18L26 18L26 19L27 19L27 20L28 20L28 19L27 19L27 18L26 18L26 17ZM10 18L10 19L11 19L11 18ZM13 18L13 19L14 19L14 18ZM5 19L5 20L7 20L7 19ZM35 20L35 21L34 21L34 22L35 22L35 23L34 23L34 24L35 24L35 25L34 25L34 26L35 26L35 27L34 27L34 30L35 30L35 32L33 32L33 33L34 33L34 34L33 34L33 36L32 36L32 37L33 37L33 36L34 36L34 34L36 34L36 36L37 36L37 34L41 34L41 35L42 35L42 36L45 36L45 37L46 37L46 36L45 36L45 33L46 33L46 32L45 32L45 33L42 33L42 32L43 32L43 31L44 31L44 30L43 30L43 31L42 31L42 29L41 29L41 27L40 27L40 26L39 26L39 25L40 25L40 24L39 24L39 23L40 23L40 22L39 22L39 23L37 23L37 22L35 22L35 21L36 21L36 20ZM29 21L29 23L30 23L30 24L31 24L31 22L30 22L30 21ZM12 22L12 23L13 23L13 24L14 24L14 23L13 23L13 22ZM27 22L27 25L28 25L28 26L29 26L29 24L28 24L28 22ZM2 23L2 24L4 24L4 23ZM5 23L5 26L8 26L8 23ZM23 23L23 26L26 26L26 23ZM35 23L35 24L36 24L36 27L35 27L35 28L36 28L36 29L35 29L35 30L36 30L36 32L35 32L35 33L36 33L36 32L37 32L37 31L41 31L41 30L40 30L40 28L39 28L39 26L37 26L37 24L36 24L36 23ZM41 23L41 26L44 26L44 23ZM6 24L6 25L7 25L7 24ZM9 24L9 25L10 25L10 24ZM24 24L24 25L25 25L25 24ZM38 24L38 25L39 25L39 24ZM42 24L42 25L43 25L43 24ZM45 24L45 25L46 25L46 24ZM14 25L14 26L15 26L15 25ZM47 25L47 26L45 26L45 27L42 27L42 28L43 28L43 29L46 29L46 28L47 28L47 27L48 27L48 25ZM36 27L36 28L37 28L37 30L39 30L39 28L38 28L38 27ZM45 27L45 28L46 28L46 27ZM6 28L6 29L7 29L7 28ZM26 28L26 30L27 30L27 28ZM32 28L32 29L33 29L33 28ZM14 29L14 30L13 30L13 31L14 31L14 30L15 30L15 31L16 31L16 30L17 30L17 29ZM26 31L26 32L28 32L28 31ZM10 32L10 33L11 33L11 32ZM38 32L38 33L40 33L40 32ZM27 33L27 34L28 34L28 33ZM6 34L6 35L5 35L5 36L6 36L6 37L7 37L7 36L8 36L8 37L9 37L9 35L8 35L8 34ZM13 34L13 37L14 37L14 34ZM15 34L15 35L16 35L16 34ZM42 34L42 35L43 35L43 34ZM6 35L6 36L7 36L7 35ZM29 37L29 38L30 38L30 37ZM22 38L22 40L23 40L23 38ZM38 38L38 39L39 39L39 38ZM8 40L8 41L9 41L9 40ZM29 40L29 42L30 42L30 43L31 43L31 44L30 44L30 45L31 45L31 44L33 44L33 45L32 45L32 46L34 46L34 43L31 43L31 42L32 42L32 41L31 41L31 42L30 42L30 40ZM23 41L23 44L26 44L26 41ZM33 41L33 42L34 42L34 41ZM41 41L41 44L44 44L44 41ZM47 41L47 42L48 42L48 46L47 46L47 47L48 47L48 48L46 48L46 47L44 47L44 48L46 48L46 49L49 49L49 42L48 42L48 41ZM24 42L24 43L25 43L25 42ZM42 42L42 43L43 43L43 42ZM11 43L11 44L10 44L10 45L9 45L9 47L10 47L10 46L11 46L11 44L13 44L13 45L12 45L12 46L13 46L13 45L14 45L14 44L13 44L13 43ZM35 43L35 44L36 44L36 43ZM20 44L20 45L21 45L21 44ZM24 45L24 46L25 46L25 45ZM17 47L17 48L18 48L18 47ZM0 0L0 7L7 7L7 0ZM1 1L1 6L6 6L6 1ZM2 2L2 5L5 5L5 2ZM42 0L42 7L49 7L49 0ZM43 1L43 6L48 6L48 1ZM44 2L44 5L47 5L47 2ZM0 42L0 49L7 49L7 42ZM1 43L1 48L6 48L6 43ZM2 44L2 47L5 47L5 44Z" fill="#000000"/></g></g></svg>
