<?xml version="1.0" encoding="UTF-8"?>
<svg xmlns="http://www.w3.org/2000/svg" version="1.1" width="200" height="200" viewBox="0 0 200 200"><rect x="0" y="0" width="200" height="200" fill="#ffffff"/><g transform="scale(3.774)"><g transform="translate(2,2)"><path fill-rule="evenodd" d="M11 0L11 1L10 1L10 2L9 2L9 3L10 3L10 2L11 2L11 3L13 3L13 0ZM15 0L15 1L14 1L14 3L15 3L15 5L13 5L13 6L12 6L12 4L11 4L11 5L10 5L10 7L9 7L9 6L8 6L8 8L6 8L6 9L7 9L7 10L5 10L5 11L4 11L4 12L5 12L5 11L7 11L7 12L6 12L6 13L5 13L5 15L4 15L4 14L3 14L3 10L4 10L4 8L2 8L2 10L0 10L0 11L2 11L2 14L1 14L1 15L3 15L3 17L4 17L4 18L2 18L2 17L1 17L1 16L0 16L0 18L2 18L2 19L1 19L1 21L0 21L0 22L3 22L3 21L7 21L7 22L4 22L4 23L0 23L0 25L1 25L1 26L2 26L2 27L1 27L1 30L0 30L0 31L1 31L1 32L0 32L0 36L1 36L1 35L2 35L2 36L3 36L3 37L1 37L1 40L0 40L0 41L3 41L3 40L4 40L4 39L2 39L2 38L5 38L5 39L7 39L7 40L6 40L6 41L7 41L7 40L8 40L8 43L9 43L9 44L10 44L10 45L8 45L8 47L9 47L9 49L10 49L10 47L11 47L11 44L10 44L10 43L9 43L9 42L11 42L11 43L12 43L12 42L14 42L14 43L13 43L13 44L14 44L14 43L15 43L15 44L16 44L16 47L17 47L17 46L18 46L18 45L19 45L19 44L18 44L18 45L17 45L17 44L16 44L16 42L18 42L18 43L19 43L19 40L17 40L17 41L16 41L16 40L15 40L15 38L16 38L16 39L19 39L19 38L20 38L20 40L21 40L21 41L22 41L22 42L20 42L20 45L21 45L21 43L22 43L22 47L21 47L21 46L20 46L20 49L21 49L21 48L22 48L22 47L23 47L23 49L24 49L24 47L25 47L25 45L26 45L26 46L27 46L27 48L25 48L25 49L29 49L29 46L28 46L28 45L27 45L27 41L29 41L29 39L28 39L28 40L26 40L26 37L25 37L25 36L26 36L26 34L25 34L25 33L26 33L26 32L27 32L27 31L28 31L28 32L29 32L29 33L30 33L30 32L31 32L31 30L29 30L29 31L28 31L28 29L29 29L29 28L30 28L30 29L31 29L31 28L32 28L32 30L33 30L33 29L34 29L34 33L33 33L33 31L32 31L32 34L29 34L29 35L28 35L28 34L27 34L27 35L28 35L28 36L30 36L30 35L32 35L32 36L33 36L33 35L35 35L35 36L36 36L36 38L35 38L35 41L34 41L34 38L33 38L33 39L30 39L30 40L32 40L32 41L31 41L31 42L32 42L32 41L34 41L34 42L35 42L35 41L36 41L36 44L37 44L37 43L38 43L38 41L39 41L39 40L37 40L37 41L36 41L36 38L37 38L37 35L38 35L38 34L36 34L36 35L35 35L35 34L34 34L34 33L38 33L38 32L40 32L40 33L39 33L39 34L40 34L40 35L39 35L39 37L38 37L38 39L40 39L40 38L42 38L42 37L44 37L44 38L43 38L43 39L44 39L44 38L45 38L45 39L46 39L46 38L45 38L45 36L43 36L43 35L42 35L42 34L40 34L40 33L41 33L41 32L44 32L44 33L46 33L46 32L45 32L45 31L47 31L47 30L48 30L48 31L49 31L49 27L47 27L47 26L49 26L49 25L47 25L47 23L48 23L48 24L49 24L49 23L48 23L48 21L47 21L47 23L46 23L46 27L45 27L45 21L46 21L46 20L45 20L45 21L44 21L44 18L45 18L45 19L47 19L47 18L48 18L48 19L49 19L49 17L48 17L48 16L49 16L49 15L48 15L48 16L45 16L45 14L47 14L47 11L48 11L48 14L49 14L49 11L48 11L48 9L47 9L47 11L46 11L46 9L45 9L45 8L44 8L44 9L45 9L45 11L44 11L44 12L45 12L45 11L46 11L46 13L43 13L43 12L42 12L42 13L41 13L41 12L40 12L40 13L41 13L41 14L40 14L40 15L39 15L39 13L38 13L38 15L37 15L37 16L39 16L39 17L38 17L38 18L39 18L39 17L40 17L40 18L41 18L41 17L40 17L40 16L42 16L42 17L43 17L43 16L44 16L44 18L42 18L42 19L41 19L41 20L42 20L42 22L40 22L40 20L39 20L39 19L38 19L38 20L37 20L37 17L36 17L36 15L34 15L34 14L32 14L32 16L31 16L31 15L30 15L30 16L31 16L31 17L30 17L30 18L31 18L31 17L32 17L32 19L31 19L31 20L32 20L32 21L30 21L30 20L29 20L29 18L28 18L28 17L27 17L27 15L28 15L28 16L29 16L29 14L27 14L27 15L26 15L26 12L27 12L27 11L26 11L26 9L27 9L27 8L28 8L28 9L30 9L30 10L28 10L28 13L30 13L30 12L31 12L31 13L32 13L32 12L33 12L33 13L35 13L35 14L36 14L36 13L37 13L37 11L38 11L38 10L37 10L37 9L39 9L39 11L40 11L40 8L39 8L39 5L38 5L38 4L37 4L37 3L38 3L38 2L39 2L39 4L40 4L40 3L41 3L41 0L40 0L40 1L38 1L38 0L37 0L37 1L38 1L38 2L36 2L36 1L34 1L34 0L32 0L32 1L33 1L33 2L30 2L30 1L31 1L31 0L29 0L29 1L28 1L28 0L27 0L27 2L28 2L28 3L26 3L26 0L25 0L25 1L24 1L24 3L26 3L26 4L23 4L23 3L22 3L22 4L21 4L21 3L20 3L20 5L19 5L19 4L18 4L18 1L17 1L17 0ZM19 0L19 2L23 2L23 1L22 1L22 0ZM16 2L16 3L17 3L17 2ZM29 2L29 3L28 3L28 4L27 4L27 7L28 7L28 4L30 4L30 5L29 5L29 7L30 7L30 9L31 9L31 10L33 10L33 9L34 9L34 10L35 10L35 9L37 9L37 8L38 8L38 5L36 5L36 6L35 6L35 4L36 4L36 3L34 3L34 2L33 2L33 3L34 3L34 4L31 4L31 3L30 3L30 2ZM8 4L8 5L9 5L9 4ZM17 4L17 5L18 5L18 6L17 6L17 7L16 7L16 6L15 6L15 7L14 7L14 6L13 6L13 7L14 7L14 8L12 8L12 6L11 6L11 7L10 7L10 10L9 10L9 9L8 9L8 10L9 10L9 11L10 11L10 12L7 12L7 13L6 13L6 14L7 14L7 15L5 15L5 17L6 17L6 18L4 18L4 19L3 19L3 20L5 20L5 19L6 19L6 20L8 20L8 22L10 22L10 20L8 20L8 18L9 18L9 17L8 17L8 18L7 18L7 17L6 17L6 16L8 16L8 14L9 14L9 15L10 15L10 16L11 16L11 18L10 18L10 19L11 19L11 22L12 22L12 23L9 23L9 24L10 24L10 26L9 26L9 27L10 27L10 28L8 28L8 27L4 27L4 26L3 26L3 24L1 24L1 25L2 25L2 26L3 26L3 29L2 29L2 30L1 30L1 31L2 31L2 32L3 32L3 31L4 31L4 28L5 28L5 29L6 29L6 30L5 30L5 31L6 31L6 32L7 32L7 31L8 31L8 33L6 33L6 34L5 34L5 33L3 33L3 34L5 34L5 35L3 35L3 36L7 36L7 37L6 37L6 38L8 38L8 40L12 40L12 39L9 39L9 38L8 38L8 37L9 37L9 31L10 31L10 32L11 32L11 33L10 33L10 36L12 36L12 37L14 37L14 38L15 38L15 37L16 37L16 38L17 38L17 37L18 37L18 36L19 36L19 37L20 37L20 36L21 36L21 37L22 37L22 38L21 38L21 39L22 39L22 40L23 40L23 39L24 39L24 40L25 40L25 39L24 39L24 37L23 37L23 36L21 36L21 34L22 34L22 35L23 35L23 33L24 33L24 32L26 32L26 31L27 31L27 30L26 30L26 29L28 29L28 27L29 27L29 26L30 26L30 27L31 27L31 25L33 25L33 26L32 26L32 27L33 27L33 26L34 26L34 27L36 27L36 30L35 30L35 31L36 31L36 32L38 32L38 31L36 31L36 30L37 30L37 29L38 29L38 30L39 30L39 31L40 31L40 32L41 32L41 31L42 31L42 30L43 30L43 31L44 31L44 30L46 30L46 29L45 29L45 27L42 27L42 29L41 29L41 31L40 31L40 28L41 28L41 27L38 27L38 25L36 25L36 24L34 24L34 23L31 23L31 22L30 22L30 21L29 21L29 20L28 20L28 22L29 22L29 25L28 25L28 27L27 27L27 28L25 28L25 30L24 30L24 28L23 28L23 27L22 27L22 29L23 29L23 30L24 30L24 32L23 32L23 31L22 31L22 30L20 30L20 29L21 29L21 27L20 27L20 29L19 29L19 28L18 28L18 30L17 30L17 31L18 31L18 33L19 33L19 31L20 31L20 32L21 32L21 34L20 34L20 36L19 36L19 34L18 34L18 35L17 35L17 32L15 32L15 31L16 31L16 30L15 30L15 29L17 29L17 28L16 28L16 27L17 27L17 26L18 26L18 25L19 25L19 26L20 26L20 25L21 25L21 26L22 26L22 25L21 25L21 22L24 22L24 21L25 21L25 22L26 22L26 19L24 19L24 20L23 20L23 19L17 19L17 18L18 18L18 17L17 17L17 18L16 18L16 19L15 19L15 20L14 20L14 21L15 21L15 20L16 20L16 21L17 21L17 20L20 20L20 21L19 21L19 23L18 23L18 22L16 22L16 23L15 23L15 24L14 24L14 23L13 23L13 22L12 22L12 20L13 20L13 19L12 19L12 18L14 18L14 16L19 16L19 18L20 18L20 16L19 16L19 15L17 15L17 14L23 14L23 13L20 13L20 12L23 12L23 10L24 10L24 11L25 11L25 10L24 10L24 9L23 9L23 10L22 10L22 9L21 9L21 8L20 8L20 6L21 6L21 7L22 7L22 5L20 5L20 6L19 6L19 5L18 5L18 4ZM23 5L23 8L26 8L26 5ZM30 5L30 7L31 7L31 9L33 9L33 6L34 6L34 7L35 7L35 6L34 6L34 5ZM18 6L18 7L17 7L17 8L19 8L19 9L20 9L20 10L21 10L21 9L20 9L20 8L19 8L19 6ZM24 6L24 7L25 7L25 6ZM31 6L31 7L32 7L32 6ZM36 6L36 7L37 7L37 6ZM40 6L40 7L41 7L41 6ZM11 8L11 10L10 10L10 11L11 11L11 12L10 12L10 13L9 13L9 14L10 14L10 15L11 15L11 14L13 14L13 13L14 13L14 12L12 12L12 11L14 11L14 10L15 10L15 11L16 11L16 12L15 12L15 13L16 13L16 12L17 12L17 11L18 11L18 12L19 12L19 10L18 10L18 9L15 9L15 8L14 8L14 9L12 9L12 8ZM34 8L34 9L35 9L35 8ZM41 8L41 9L42 9L42 11L43 11L43 8ZM16 10L16 11L17 11L17 10ZM36 10L36 11L34 11L34 12L35 12L35 13L36 13L36 11L37 11L37 10ZM29 11L29 12L30 12L30 11ZM31 11L31 12L32 12L32 11ZM11 12L11 13L12 13L12 12ZM24 12L24 15L23 15L23 16L22 16L22 15L21 15L21 16L22 16L22 17L23 17L23 18L24 18L24 16L25 16L25 18L26 18L26 16L25 16L25 12ZM42 13L42 14L43 14L43 13ZM15 14L15 15L16 15L16 14ZM12 15L12 16L13 16L13 15ZM33 15L33 16L32 16L32 17L34 17L34 20L33 20L33 21L34 21L34 22L36 22L36 21L37 21L37 22L38 22L38 23L37 23L37 24L40 24L40 23L39 23L39 20L38 20L38 21L37 21L37 20L36 20L36 17L34 17L34 15ZM45 17L45 18L46 18L46 17ZM6 18L6 19L7 19L7 18ZM27 18L27 19L28 19L28 18ZM42 19L42 20L43 20L43 19ZM20 21L20 22L21 22L21 21ZM43 21L43 22L44 22L44 21ZM5 23L5 26L8 26L8 23ZM12 23L12 24L11 24L11 25L12 25L12 26L11 26L11 28L10 28L10 29L9 29L9 30L8 30L8 29L7 29L7 28L6 28L6 29L7 29L7 30L6 30L6 31L7 31L7 30L8 30L8 31L9 31L9 30L10 30L10 29L12 29L12 31L11 31L11 32L12 32L12 31L13 31L13 29L12 29L12 28L15 28L15 27L16 27L16 26L15 26L15 27L13 27L13 26L14 26L14 24L13 24L13 23ZM19 23L19 24L20 24L20 23ZM23 23L23 26L26 26L26 23ZM27 23L27 24L28 24L28 23ZM30 23L30 25L31 25L31 23ZM41 23L41 26L44 26L44 23ZM6 24L6 25L7 25L7 24ZM12 24L12 25L13 25L13 24ZM16 24L16 25L18 25L18 24ZM24 24L24 25L25 25L25 24ZM33 24L33 25L34 25L34 24ZM42 24L42 25L43 25L43 24ZM39 25L39 26L40 26L40 25ZM36 26L36 27L37 27L37 26ZM46 27L46 28L47 28L47 27ZM34 28L34 29L35 29L35 28ZM2 30L2 31L3 31L3 30ZM14 30L14 31L15 31L15 30ZM18 30L18 31L19 31L19 30ZM25 30L25 31L26 31L26 30ZM21 31L21 32L22 32L22 31ZM14 32L14 33L12 33L12 36L14 36L14 34L15 34L15 35L16 35L16 37L17 37L17 35L16 35L16 33L15 33L15 32ZM48 32L48 33L47 33L47 34L46 34L46 37L47 37L47 35L48 35L48 33L49 33L49 32ZM1 33L1 34L2 34L2 33ZM6 34L6 35L7 35L7 36L8 36L8 35L7 35L7 34ZM24 34L24 36L25 36L25 34ZM32 34L32 35L33 35L33 34ZM40 36L40 37L42 37L42 36ZM48 36L48 38L49 38L49 36ZM10 37L10 38L11 38L11 37ZM29 37L29 38L30 38L30 37ZM31 37L31 38L32 38L32 37ZM22 38L22 39L23 39L23 38ZM41 39L41 40L40 40L40 42L39 42L39 43L40 43L40 45L39 45L39 47L42 47L42 46L44 46L44 47L43 47L43 48L44 48L44 47L45 47L45 45L46 45L46 44L45 44L45 43L46 43L46 42L48 42L48 43L47 43L47 44L48 44L48 43L49 43L49 41L48 41L48 40L42 40L42 39ZM13 40L13 41L14 41L14 42L15 42L15 40ZM11 41L11 42L12 42L12 41ZM23 41L23 44L26 44L26 41ZM41 41L41 44L44 44L44 41ZM45 41L45 42L46 42L46 41ZM24 42L24 43L25 43L25 42ZM29 42L29 43L28 43L28 44L29 44L29 45L32 45L32 48L33 48L33 49L35 49L35 48L36 48L36 49L39 49L39 48L38 48L38 46L37 46L37 45L36 45L36 46L34 46L34 45L35 45L35 44L34 44L34 45L32 45L32 43L30 43L30 42ZM42 42L42 43L43 43L43 42ZM29 43L29 44L30 44L30 43ZM12 45L12 47L13 47L13 46L14 46L14 48L13 48L13 49L16 49L16 48L15 48L15 45ZM40 45L40 46L42 46L42 45ZM48 45L48 46L49 46L49 45ZM9 46L9 47L10 47L10 46ZM23 46L23 47L24 47L24 46ZM36 46L36 47L37 47L37 46ZM18 47L18 48L17 48L17 49L19 49L19 47ZM30 47L30 49L31 49L31 47ZM33 47L33 48L34 48L34 47ZM46 47L46 49L49 49L49 48L47 48L47 47ZM40 48L40 49L42 49L42 48ZM0 0L0 7L7 7L7 0ZM1 1L1 6L6 6L6 1ZM2 2L2 5L5 5L5 2ZM42 0L42 7L49 7L49 0ZM43 1L43 6L48 6L48 1ZM44 2L44 5L47 5L47 2ZM0 42L0 49L7 49L7 42ZM1 43L1 48L6 48L6 43ZM2 44L2 47L5 47L5 44Z" fill="#000000"/></g></g></svg>
