<?xml version="1.0" encoding="UTF-8"?>
<svg xmlns="http://www.w3.org/2000/svg" version="1.1" width="200" height="200" viewBox="0 0 200 200"><rect x="0" y="0" width="200" height="200" fill="#ffffff"/><g transform="scale(3.774)"><g transform="translate(2,2)"><path fill-rule="evenodd" d="M8 0L8 1L9 1L9 3L8 3L8 4L9 4L9 3L10 3L10 2L11 2L11 4L10 4L10 7L9 7L9 6L8 6L8 7L9 7L9 8L8 8L8 9L10 9L10 10L11 10L11 9L13 9L13 8L17 8L17 9L14 9L14 10L13 10L13 11L14 11L14 10L15 10L15 12L12 12L12 13L10 13L10 12L11 12L11 11L10 11L10 12L9 12L9 10L6 10L6 9L7 9L7 8L4 8L4 9L3 9L3 8L2 8L2 9L1 9L1 11L2 11L2 12L3 12L3 18L4 18L4 19L3 19L3 20L2 20L2 17L0 17L0 18L1 18L1 19L0 19L0 20L1 20L1 22L0 22L0 25L1 25L1 24L2 24L2 26L0 26L0 29L1 29L1 30L2 30L2 29L3 29L3 31L0 31L0 32L1 32L1 33L0 33L0 34L1 34L1 35L0 35L0 36L1 36L1 35L2 35L2 34L3 34L3 35L4 35L4 36L5 36L5 37L4 37L4 38L5 38L5 39L7 39L7 38L8 38L8 39L11 39L11 42L12 42L12 45L11 45L11 44L10 44L10 45L9 45L9 43L10 43L10 42L9 42L9 41L10 41L10 40L8 40L8 42L9 42L9 43L8 43L8 45L9 45L9 46L8 46L8 47L9 47L9 46L10 46L10 45L11 45L11 47L10 47L10 49L11 49L11 48L12 48L12 45L13 45L13 46L14 46L14 48L13 48L13 49L14 49L14 48L16 48L16 49L19 49L19 46L20 46L20 48L21 48L21 49L24 49L24 48L23 48L23 47L24 47L24 46L23 46L23 45L26 45L26 46L27 46L27 47L28 47L28 45L27 45L27 44L30 44L30 45L29 45L29 46L30 46L30 47L29 47L29 48L30 48L30 49L31 49L31 46L32 46L32 49L33 49L33 48L34 48L34 45L35 45L35 46L36 46L36 49L37 49L37 48L38 48L38 49L40 49L40 48L41 48L41 49L42 49L42 47L43 47L43 48L44 48L44 49L46 49L46 47L47 47L47 49L49 49L49 48L48 48L48 47L49 47L49 46L48 46L48 45L49 45L49 44L48 44L48 43L49 43L49 36L48 36L48 35L49 35L49 33L48 33L48 35L47 35L47 36L48 36L48 39L47 39L47 40L48 40L48 43L47 43L47 42L46 42L46 40L44 40L44 39L46 39L46 35L45 35L45 38L44 38L44 36L43 36L43 34L44 34L44 32L43 32L43 30L42 30L42 29L43 29L43 28L44 28L44 27L45 27L45 30L46 30L46 27L47 27L47 26L48 26L48 27L49 27L49 25L46 25L46 23L47 23L47 24L49 24L49 20L48 20L48 23L47 23L47 22L46 22L46 23L45 23L45 21L46 21L46 19L45 19L45 18L46 18L46 16L45 16L45 15L44 15L44 17L43 17L43 18L42 18L42 16L41 16L41 15L42 15L42 13L43 13L43 12L42 12L42 8L41 8L41 10L40 10L40 7L41 7L41 6L40 6L40 7L39 7L39 5L38 5L38 3L37 3L37 5L38 5L38 7L37 7L37 6L36 6L36 7L37 7L37 8L36 8L36 9L37 9L37 10L36 10L36 11L34 11L34 9L35 9L35 8L34 8L34 7L35 7L35 4L36 4L36 1L35 1L35 0L34 0L34 3L33 3L33 4L34 4L34 7L33 7L33 5L31 5L31 4L32 4L32 2L33 2L33 1L31 1L31 0L28 0L28 3L29 3L29 4L30 4L30 5L29 5L29 6L28 6L28 9L29 9L29 8L30 8L30 9L31 9L31 10L30 10L30 11L29 11L29 13L30 13L30 12L31 12L31 14L30 14L30 15L29 15L29 14L28 14L28 11L27 11L27 15L26 15L26 14L24 14L24 12L26 12L26 10L24 10L24 9L27 9L27 0L21 0L21 2L18 2L18 1L16 1L16 2L15 2L15 5L17 5L17 6L16 6L16 7L15 7L15 6L14 6L14 5L13 5L13 4L14 4L14 1L15 1L15 0L14 0L14 1L13 1L13 0ZM19 0L19 1L20 1L20 0ZM37 0L37 2L39 2L39 4L40 4L40 3L41 3L41 0L40 0L40 1L38 1L38 0ZM23 1L23 2L21 2L21 4L20 4L20 3L19 3L19 4L18 4L18 3L17 3L17 2L16 2L16 4L18 4L18 5L19 5L19 7L20 7L20 8L19 8L19 9L17 9L17 11L16 11L16 12L15 12L15 13L16 13L16 15L14 15L14 16L13 16L13 15L12 15L12 14L11 14L11 15L10 15L10 13L9 13L9 14L8 14L8 15L6 15L6 14L7 14L7 13L8 13L8 12L7 12L7 11L6 11L6 10L5 10L5 9L4 9L4 10L5 10L5 12L4 12L4 11L3 11L3 12L4 12L4 15L6 15L6 16L8 16L8 15L10 15L10 17L9 17L9 18L8 18L8 17L5 17L5 16L4 16L4 18L5 18L5 19L4 19L4 20L5 20L5 19L6 19L6 20L7 20L7 21L6 21L6 22L10 22L10 23L12 23L12 22L13 22L13 21L15 21L15 19L14 19L14 20L10 20L10 19L9 19L9 18L12 18L12 19L13 19L13 18L14 18L14 16L15 16L15 17L19 17L19 18L17 18L17 20L16 20L16 21L17 21L17 20L18 20L18 25L17 25L17 24L16 24L16 27L15 27L15 28L14 28L14 27L13 27L13 26L14 26L14 25L13 25L13 24L14 24L14 23L13 23L13 24L12 24L12 25L10 25L10 24L9 24L9 27L10 27L10 28L7 28L7 27L6 27L6 28L7 28L7 29L6 29L6 30L7 30L7 31L5 31L5 30L4 30L4 31L3 31L3 32L4 32L4 31L5 31L5 32L7 32L7 33L3 33L3 34L4 34L4 35L5 35L5 34L7 34L7 35L6 35L6 36L7 36L7 37L6 37L6 38L7 38L7 37L8 37L8 38L11 38L11 36L10 36L10 35L9 35L9 34L7 34L7 33L9 33L9 32L8 32L8 31L10 31L10 29L12 29L12 30L14 30L14 31L11 31L11 32L10 32L10 34L11 34L11 33L12 33L12 35L13 35L13 33L12 33L12 32L14 32L14 36L12 36L12 37L13 37L13 38L12 38L12 42L13 42L13 44L14 44L14 45L15 45L15 47L17 47L17 46L16 46L16 44L17 44L17 45L19 45L19 44L20 44L20 46L21 46L21 48L22 48L22 47L23 47L23 46L21 46L21 45L22 45L22 44L21 44L21 43L20 43L20 42L19 42L19 43L18 43L18 44L17 44L17 43L16 43L16 42L18 42L18 41L21 41L21 40L24 40L24 39L25 39L25 40L27 40L27 41L28 41L28 40L29 40L29 39L30 39L30 40L31 40L31 41L30 41L30 44L31 44L31 45L32 45L32 42L33 42L33 41L32 41L32 38L33 38L33 37L32 37L32 35L33 35L33 34L32 34L32 35L31 35L31 31L32 31L32 33L34 33L34 36L35 36L35 37L34 37L34 40L35 40L35 41L34 41L34 42L35 42L35 43L34 43L34 44L33 44L33 45L34 45L34 44L35 44L35 45L36 45L36 46L37 46L37 45L36 45L36 42L35 42L35 41L36 41L36 39L35 39L35 37L36 37L36 38L37 38L37 37L36 37L36 35L37 35L37 36L39 36L39 37L38 37L38 40L39 40L39 41L38 41L38 42L39 42L39 43L40 43L40 42L39 42L39 41L40 41L40 40L42 40L42 38L43 38L43 39L44 39L44 38L43 38L43 37L42 37L42 34L41 34L41 33L42 33L42 32L41 32L41 31L42 31L42 30L41 30L41 29L42 29L42 27L39 27L39 25L40 25L40 24L39 24L39 21L38 21L38 20L39 20L39 19L38 19L38 17L39 17L39 16L38 16L38 15L40 15L40 14L41 14L41 13L42 13L42 12L41 12L41 11L40 11L40 14L39 14L39 13L38 13L38 12L39 12L39 7L38 7L38 8L37 8L37 9L38 9L38 11L37 11L37 13L36 13L36 12L34 12L34 11L33 11L33 13L34 13L34 15L33 15L33 14L32 14L32 15L33 15L33 16L32 16L32 17L31 17L31 18L29 18L29 19L30 19L30 20L28 20L28 19L27 19L27 18L28 18L28 17L29 17L29 16L28 16L28 15L27 15L27 18L26 18L26 15L23 15L23 12L24 12L24 10L23 10L23 12L21 12L21 11L22 11L22 9L21 9L21 10L19 10L19 9L20 9L20 8L22 8L22 6L21 6L21 7L20 7L20 5L21 5L21 4L22 4L22 3L26 3L26 1L25 1L25 2L24 2L24 1ZM30 1L30 2L29 2L29 3L31 3L31 1ZM12 2L12 4L11 4L11 5L12 5L12 4L13 4L13 2ZM34 3L34 4L35 4L35 3ZM19 4L19 5L20 5L20 4ZM23 5L23 8L26 8L26 5ZM11 6L11 7L12 7L12 8L13 8L13 7L14 7L14 6L13 6L13 7L12 7L12 6ZM17 6L17 8L18 8L18 6ZM24 6L24 7L25 7L25 6ZM29 6L29 7L30 7L30 6ZM31 6L31 9L32 9L32 10L33 10L33 9L34 9L34 8L33 8L33 7L32 7L32 6ZM45 8L45 11L44 11L44 13L46 13L46 14L47 14L47 13L46 13L46 11L47 11L47 12L48 12L48 15L47 15L47 16L48 16L48 19L49 19L49 16L48 16L48 15L49 15L49 8L48 8L48 11L47 11L47 10L46 10L46 8ZM2 9L2 10L3 10L3 9ZM43 9L43 10L44 10L44 9ZM17 11L17 12L16 12L16 13L17 13L17 12L19 12L19 11ZM31 11L31 12L32 12L32 11ZM5 12L5 14L6 14L6 13L7 13L7 12ZM1 13L1 14L0 14L0 16L2 16L2 15L1 15L1 14L2 14L2 13ZM19 13L19 14L21 14L21 15L20 15L20 16L19 16L19 15L18 15L18 14L17 14L17 16L19 16L19 17L20 17L20 19L18 19L18 20L20 20L20 21L19 21L19 22L21 22L21 23L22 23L22 25L21 25L21 24L20 24L20 23L19 23L19 24L20 24L20 25L18 25L18 26L17 26L17 27L16 27L16 28L15 28L15 30L17 30L17 27L18 27L18 26L20 26L20 25L21 25L21 28L18 28L18 29L20 29L20 30L18 30L18 31L16 31L16 32L17 32L17 33L18 33L18 35L17 35L17 34L16 34L16 33L15 33L15 36L14 36L14 38L15 38L15 37L16 37L16 35L17 35L17 36L18 36L18 37L17 37L17 38L16 38L16 39L17 39L17 40L21 40L21 39L20 39L20 38L19 38L19 36L20 36L20 34L21 34L21 35L24 35L24 36L21 36L21 37L24 37L24 38L25 38L25 36L26 36L26 39L27 39L27 40L28 40L28 39L27 39L27 38L28 38L28 37L29 37L29 38L30 38L30 39L31 39L31 38L32 38L32 37L31 37L31 38L30 38L30 37L29 37L29 36L28 36L28 35L29 35L29 34L30 34L30 33L29 33L29 34L27 34L27 36L26 36L26 33L27 33L27 32L30 32L30 31L31 31L31 30L32 30L32 31L33 31L33 32L34 32L34 33L35 33L35 35L36 35L36 34L37 34L37 35L38 35L38 33L39 33L39 34L40 34L40 33L41 33L41 32L40 32L40 33L39 33L39 32L38 32L38 29L37 29L37 28L38 28L38 25L39 25L39 24L38 24L38 21L37 21L37 20L38 20L38 19L37 19L37 15L38 15L38 13L37 13L37 14L36 14L36 13L35 13L35 14L36 14L36 17L34 17L34 19L35 19L35 18L36 18L36 21L35 21L35 22L36 22L36 21L37 21L37 23L36 23L36 25L37 25L37 27L36 27L36 29L37 29L37 30L36 30L36 31L34 31L34 29L35 29L35 27L34 27L34 25L35 25L35 24L34 24L34 21L32 21L32 20L30 20L30 21L32 21L32 22L31 22L31 23L29 23L29 24L30 24L30 25L31 25L31 23L33 23L33 24L32 24L32 25L33 25L33 26L32 26L32 29L31 29L31 30L30 30L30 28L29 28L29 27L31 27L31 26L29 26L29 27L28 27L28 26L27 26L27 24L28 24L28 20L27 20L27 21L26 21L26 18L25 18L25 20L24 20L24 19L23 19L23 20L24 20L24 21L23 21L23 22L21 22L21 20L22 20L22 19L21 19L21 17L20 17L20 16L21 16L21 15L22 15L22 16L23 16L23 18L24 18L24 16L23 16L23 15L22 15L22 14L21 14L21 13ZM11 15L11 17L12 17L12 18L13 18L13 17L12 17L12 15ZM30 15L30 16L31 16L31 15ZM34 15L34 16L35 16L35 15ZM40 17L40 18L41 18L41 19L40 19L40 22L41 22L41 21L42 21L42 22L43 22L43 21L44 21L44 19L42 19L42 18L41 18L41 17ZM44 17L44 18L45 18L45 17ZM6 18L6 19L7 19L7 20L8 20L8 21L9 21L9 20L8 20L8 18ZM31 18L31 19L32 19L32 18ZM20 19L20 20L21 20L21 19ZM41 19L41 20L42 20L42 19ZM4 21L4 22L1 22L1 23L2 23L2 24L3 24L3 26L2 26L2 27L1 27L1 28L2 28L2 27L3 27L3 29L5 29L5 27L4 27L4 22L5 22L5 21ZM10 21L10 22L12 22L12 21ZM24 21L24 22L25 22L25 21ZM5 23L5 26L8 26L8 23ZM23 23L23 26L26 26L26 23ZM41 23L41 26L44 26L44 23ZM6 24L6 25L7 25L7 24ZM24 24L24 25L25 25L25 24ZM33 24L33 25L34 25L34 24ZM37 24L37 25L38 25L38 24ZM42 24L42 25L43 25L43 24ZM12 25L12 26L11 26L11 27L12 27L12 26L13 26L13 25ZM45 26L45 27L46 27L46 26ZM22 27L22 31L21 31L21 30L20 30L20 32L19 32L19 31L18 31L18 33L19 33L19 34L20 34L20 33L21 33L21 34L23 34L23 32L22 32L22 31L23 31L23 28L24 28L24 29L25 29L25 28L26 28L26 30L24 30L24 35L25 35L25 33L26 33L26 32L25 32L25 31L26 31L26 30L27 30L27 29L28 29L28 30L29 30L29 29L28 29L28 28L26 28L26 27ZM12 28L12 29L13 29L13 28ZM7 29L7 30L8 30L8 29ZM32 29L32 30L33 30L33 29ZM39 29L39 31L40 31L40 29ZM48 29L48 31L49 31L49 29ZM36 31L36 33L38 33L38 32L37 32L37 31ZM45 31L45 33L46 33L46 31ZM1 33L1 34L2 34L2 33ZM8 35L8 37L9 37L9 35ZM18 35L18 36L19 36L19 35ZM2 36L2 37L3 37L3 36ZM40 36L40 38L39 38L39 39L40 39L40 38L42 38L42 37L41 37L41 36ZM1 38L1 40L0 40L0 41L3 41L3 40L4 40L4 39L2 39L2 38ZM18 38L18 39L19 39L19 38ZM22 38L22 39L23 39L23 38ZM14 39L14 40L15 40L15 39ZM6 40L6 41L7 41L7 40ZM13 41L13 42L14 42L14 43L15 43L15 44L16 44L16 43L15 43L15 42L14 42L14 41ZM23 41L23 44L26 44L26 41ZM31 41L31 42L32 42L32 41ZM41 41L41 44L44 44L44 41ZM24 42L24 43L25 43L25 42ZM27 42L27 43L29 43L29 42ZM42 42L42 43L43 43L43 42ZM45 42L45 43L46 43L46 45L45 45L45 46L47 46L47 45L48 45L48 44L47 44L47 43L46 43L46 42ZM39 44L39 45L38 45L38 48L39 48L39 45L40 45L40 47L42 47L42 46L43 46L43 47L44 47L44 48L45 48L45 47L44 47L44 45L42 45L42 46L41 46L41 45L40 45L40 44ZM25 47L25 48L26 48L26 49L27 49L27 48L26 48L26 47ZM0 0L0 7L7 7L7 0ZM1 1L1 6L6 6L6 1ZM2 2L2 5L5 5L5 2ZM42 0L42 7L49 7L49 0ZM43 1L43 6L48 6L48 1ZM44 2L44 5L47 5L47 2ZM0 42L0 49L7 49L7 42ZM1 43L1 48L6 48L6 43ZM2 44L2 47L5 47L5 44Z" fill="#000000"/></g></g></svg>
