<?xml version="1.0" encoding="UTF-8"?>
<svg xmlns="http://www.w3.org/2000/svg" version="1.1" width="200" height="200" viewBox="0 0 200 200"><rect x="0" y="0" width="200" height="200" fill="#ffffff"/><g transform="scale(3.774)"><g transform="translate(2,2)"><path fill-rule="evenodd" d="M8 0L8 3L9 3L9 0ZM10 0L10 1L11 1L11 0ZM12 0L12 1L13 1L13 2L11 2L11 3L12 3L12 4L14 4L14 3L15 3L15 4L16 4L16 7L17 7L17 8L18 8L18 9L19 9L19 6L18 6L18 7L17 7L17 5L18 5L18 4L19 4L19 3L17 3L17 2L18 2L18 1L19 1L19 2L20 2L20 5L21 5L21 2L20 2L20 1L21 1L21 0L18 0L18 1L17 1L17 2L16 2L16 1L15 1L15 2L14 2L14 1L13 1L13 0ZM22 0L22 7L21 7L21 6L20 6L20 7L21 7L21 9L20 9L20 10L19 10L19 11L18 11L18 10L17 10L17 12L16 12L16 13L15 13L15 12L14 12L14 10L15 10L15 11L16 11L16 8L15 8L15 5L13 5L13 6L12 6L12 5L11 5L11 6L10 6L10 5L8 5L8 9L7 9L7 8L6 8L6 9L5 9L5 8L2 8L2 9L5 9L5 10L4 10L4 14L5 14L5 13L7 13L7 14L6 14L6 15L4 15L4 16L3 16L3 17L2 17L2 15L3 15L3 13L1 13L1 12L3 12L3 10L1 10L1 9L0 9L0 10L1 10L1 12L0 12L0 13L1 13L1 14L0 14L0 15L1 15L1 16L0 16L0 17L1 17L1 18L2 18L2 20L1 20L1 19L0 19L0 21L1 21L1 22L2 22L2 24L0 24L0 25L1 25L1 26L0 26L0 29L2 29L2 31L3 31L3 32L1 32L1 31L0 31L0 32L1 32L1 33L2 33L2 34L3 34L3 32L4 32L4 36L6 36L6 37L4 37L4 38L5 38L5 39L7 39L7 40L6 40L6 41L7 41L7 40L9 40L9 41L8 41L8 42L10 42L10 43L11 43L11 44L10 44L10 49L12 49L12 48L13 48L13 49L14 49L14 46L13 46L13 47L12 47L12 48L11 48L11 44L12 44L12 43L13 43L13 45L14 45L14 43L15 43L15 42L12 42L12 41L13 41L13 40L14 40L14 39L15 39L15 41L16 41L16 44L15 44L15 45L16 45L16 46L17 46L17 47L15 47L15 48L19 48L19 49L24 49L24 48L25 48L25 47L26 47L26 49L27 49L27 48L28 48L28 49L31 49L31 48L33 48L33 49L34 49L34 48L36 48L36 49L37 49L37 48L36 48L36 47L35 47L35 46L37 46L37 47L39 47L39 48L40 48L40 49L42 49L42 48L43 48L43 46L47 46L47 47L48 47L48 48L46 48L46 47L45 47L45 48L46 48L46 49L49 49L49 42L48 42L48 41L49 41L49 38L48 38L48 37L49 37L49 34L48 34L48 33L49 33L49 32L46 32L46 29L47 29L47 30L48 30L48 31L49 31L49 30L48 30L48 29L49 29L49 22L48 22L48 21L49 21L49 18L48 18L48 17L47 17L47 18L46 18L46 16L49 16L49 14L48 14L48 13L47 13L47 12L46 12L46 9L47 9L47 10L48 10L48 12L49 12L49 10L48 10L48 9L49 9L49 8L46 8L46 9L44 9L44 8L41 8L41 6L40 6L40 7L39 7L39 5L38 5L38 4L37 4L37 3L36 3L36 2L37 2L37 1L36 1L36 2L35 2L35 1L34 1L34 0L31 0L31 1L29 1L29 0L28 0L28 1L27 1L27 0L26 0L26 1L25 1L25 0L24 0L24 2L25 2L25 3L23 3L23 0ZM40 0L40 1L38 1L38 2L39 2L39 4L40 4L40 3L41 3L41 0ZM26 1L26 3L25 3L25 4L26 4L26 3L27 3L27 4L28 4L28 5L27 5L27 7L28 7L28 8L27 8L27 10L25 10L25 9L21 9L21 10L20 10L20 11L19 11L19 13L18 13L18 12L17 12L17 13L18 13L18 14L16 14L16 15L18 15L18 16L17 16L17 17L16 17L16 16L15 16L15 17L14 17L14 15L13 15L13 14L15 14L15 13L13 13L13 12L12 12L12 11L11 11L11 12L10 12L10 11L9 11L9 12L7 12L7 11L8 11L8 10L7 10L7 9L6 9L6 10L7 10L7 11L5 11L5 12L7 12L7 13L9 13L9 12L10 12L10 13L13 13L13 14L11 14L11 15L12 15L12 16L11 16L11 17L10 17L10 16L8 16L8 14L7 14L7 15L6 15L6 16L5 16L5 17L4 17L4 19L3 19L3 20L2 20L2 22L3 22L3 20L4 20L4 21L6 21L6 22L9 22L9 20L10 20L10 21L11 21L11 22L10 22L10 23L11 23L11 25L12 25L12 26L11 26L11 27L12 27L12 26L13 26L13 29L12 29L12 28L11 28L11 30L12 30L12 31L13 31L13 32L14 32L14 31L15 31L15 33L13 33L13 35L12 35L12 34L11 34L11 33L12 33L12 32L11 32L11 31L10 31L10 28L9 28L9 27L10 27L10 25L9 25L9 27L8 27L8 28L9 28L9 30L8 30L8 29L6 29L6 28L7 28L7 27L4 27L4 25L3 25L3 26L1 26L1 28L2 28L2 29L3 29L3 28L2 28L2 27L4 27L4 29L6 29L6 30L3 30L3 31L4 31L4 32L5 32L5 33L6 33L6 34L7 34L7 35L6 35L6 36L7 36L7 37L6 37L6 38L7 38L7 39L9 39L9 40L10 40L10 42L11 42L11 40L10 40L10 39L9 39L9 37L10 37L10 38L14 38L14 36L13 36L13 35L14 35L14 34L15 34L15 37L17 37L17 34L16 34L16 33L17 33L17 31L19 31L19 30L20 30L20 28L21 28L21 27L22 27L22 28L24 28L24 29L25 29L25 28L24 28L24 27L22 27L22 23L21 23L21 20L22 20L22 21L23 21L23 22L24 22L24 21L23 21L23 19L22 19L22 18L23 18L23 17L24 17L24 19L26 19L26 18L25 18L25 16L26 16L26 17L27 17L27 18L28 18L28 19L27 19L27 20L26 20L26 21L27 21L27 22L31 22L31 23L27 23L27 27L28 27L28 26L29 26L29 28L30 28L30 29L28 29L28 30L27 30L27 31L25 31L25 30L24 30L24 33L22 33L22 34L21 34L21 35L20 35L20 34L19 34L19 32L18 32L18 35L20 35L20 36L19 36L19 38L18 38L18 39L20 39L20 38L21 38L21 41L22 41L22 38L24 38L24 37L23 37L23 34L24 34L24 36L25 36L25 38L26 38L26 39L23 39L23 40L29 40L29 37L28 37L28 36L27 36L27 35L26 35L26 33L27 33L27 34L28 34L28 35L29 35L29 36L31 36L31 37L30 37L30 39L31 39L31 37L33 37L33 38L32 38L32 39L33 39L33 38L35 38L35 39L34 39L34 40L30 40L30 41L31 41L31 42L30 42L30 44L28 44L28 46L27 46L27 45L26 45L26 46L27 46L27 47L28 47L28 46L29 46L29 47L30 47L30 46L31 46L31 47L34 47L34 46L35 46L35 45L36 45L36 44L38 44L38 45L37 45L37 46L39 46L39 47L40 47L40 46L43 46L43 45L40 45L40 46L39 46L39 44L38 44L38 43L39 43L39 40L41 40L41 39L42 39L42 40L44 40L44 39L46 39L46 40L45 40L45 41L46 41L46 44L45 44L45 45L46 45L46 44L47 44L47 46L48 46L48 42L47 42L47 41L48 41L48 38L47 38L47 37L48 37L48 34L47 34L47 33L46 33L46 32L45 32L45 33L42 33L42 32L43 32L43 31L44 31L44 30L43 30L43 29L46 29L46 28L47 28L47 29L48 29L48 28L47 28L47 27L48 27L48 26L47 26L47 25L46 25L46 24L48 24L48 22L47 22L47 21L48 21L48 20L47 20L47 19L48 19L48 18L47 18L47 19L46 19L46 20L42 20L42 19L41 19L41 18L42 18L42 17L41 17L41 16L42 16L42 15L45 15L45 16L43 16L43 19L44 19L44 18L45 18L45 16L46 16L46 15L45 15L45 14L46 14L46 12L42 12L42 11L45 11L45 10L44 10L44 9L43 9L43 10L42 10L42 9L40 9L40 8L39 8L39 7L38 7L38 6L37 6L37 10L39 10L39 9L40 9L40 10L42 10L42 11L40 11L40 12L39 12L39 11L36 11L36 10L35 10L35 9L36 9L36 8L33 8L33 7L34 7L34 5L37 5L37 4L36 4L36 3L35 3L35 2L34 2L34 1L32 1L32 2L31 2L31 3L32 3L32 4L33 4L33 3L32 3L32 2L34 2L34 5L32 5L32 6L31 6L31 4L30 4L30 2L29 2L29 4L28 4L28 2L27 2L27 1ZM29 4L29 5L28 5L28 7L29 7L29 6L30 6L30 7L31 7L31 6L30 6L30 4ZM23 5L23 8L26 8L26 5ZM9 6L9 8L11 8L11 7L12 7L12 9L15 9L15 8L14 8L14 6L13 6L13 7L12 7L12 6L11 6L11 7L10 7L10 6ZM24 6L24 7L25 7L25 6ZM32 6L32 7L33 7L33 6ZM35 6L35 7L36 7L36 6ZM31 8L31 9L32 9L32 8ZM38 8L38 9L39 9L39 8ZM9 9L9 10L11 10L11 9ZM33 9L33 10L34 10L34 11L33 11L33 12L34 12L34 13L37 13L37 12L36 12L36 11L35 11L35 10L34 10L34 9ZM24 10L24 11L23 11L23 12L24 12L24 13L25 13L25 14L23 14L23 15L21 15L21 12L20 12L20 13L19 13L19 18L18 18L18 19L16 19L16 20L18 20L18 21L17 21L17 22L16 22L16 21L15 21L15 20L14 20L14 18L13 18L13 16L12 16L12 17L11 17L11 19L12 19L12 23L14 23L14 24L13 24L13 26L14 26L14 24L16 24L16 25L17 25L17 27L16 27L16 26L15 26L15 27L14 27L14 28L15 28L15 27L16 27L16 29L14 29L14 30L15 30L15 31L16 31L16 30L17 30L17 27L18 27L18 28L19 28L19 27L20 27L20 26L19 26L19 25L20 25L20 24L21 24L21 23L20 23L20 21L19 21L19 20L21 20L21 19L19 19L19 18L21 18L21 17L20 17L20 16L25 16L25 15L26 15L26 13L28 13L28 14L29 14L29 15L30 15L30 16L29 16L29 17L28 17L28 18L29 18L29 17L31 17L31 18L30 18L30 19L34 19L34 18L35 18L35 16L36 16L36 19L35 19L35 20L33 20L33 21L31 21L31 22L34 22L34 23L33 23L33 26L34 26L34 27L33 27L33 28L31 28L31 26L32 26L32 25L30 25L30 24L29 24L29 25L30 25L30 28L31 28L31 29L30 29L30 30L29 30L29 31L30 31L30 30L31 30L31 31L33 31L33 32L29 32L29 35L30 35L30 33L32 33L32 34L31 34L31 35L33 35L33 34L34 34L34 35L36 35L36 34L34 34L34 33L33 33L33 32L34 32L34 31L35 31L35 30L36 30L36 32L35 32L35 33L36 33L36 32L37 32L37 31L41 31L41 30L37 30L37 28L36 28L36 27L39 27L39 26L36 26L36 27L35 27L35 26L34 26L34 23L35 23L35 24L36 24L36 25L37 25L37 24L36 24L36 23L39 23L39 24L38 24L38 25L40 25L40 27L41 27L41 28L42 28L42 29L43 29L43 28L42 28L42 27L45 27L45 28L46 28L46 27L47 27L47 26L46 26L46 25L45 25L45 24L46 24L46 23L47 23L47 22L46 22L46 21L47 21L47 20L46 20L46 21L44 21L44 22L43 22L43 21L42 21L42 22L40 22L40 21L41 21L41 20L40 20L40 19L39 19L39 20L40 20L40 21L39 21L39 22L36 22L36 23L35 23L35 22L34 22L34 21L35 21L35 20L36 20L36 21L37 21L37 20L36 20L36 19L37 19L37 18L40 18L40 17L39 17L39 16L41 16L41 15L42 15L42 14L43 14L43 13L42 13L42 12L40 12L40 13L39 13L39 12L38 12L38 13L39 13L39 14L38 14L38 15L37 15L37 16L36 16L36 14L34 14L34 16L33 16L33 14L32 14L32 11L31 11L31 14L30 14L30 11L29 11L29 10L28 10L28 11L27 11L27 12L26 12L26 11L25 11L25 10ZM24 11L24 12L25 12L25 13L26 13L26 12L25 12L25 11ZM28 11L28 13L29 13L29 11ZM34 11L34 12L35 12L35 11ZM40 13L40 15L41 15L41 14L42 14L42 13ZM44 13L44 14L45 14L45 13ZM1 14L1 15L2 15L2 14ZM9 14L9 15L10 15L10 14ZM47 14L47 15L48 15L48 14ZM31 15L31 17L32 17L32 18L34 18L34 17L33 17L33 16L32 16L32 15ZM6 16L6 17L5 17L5 20L6 20L6 21L7 21L7 20L6 20L6 19L10 19L10 17L8 17L8 16ZM37 16L37 17L38 17L38 16ZM6 17L6 18L7 18L7 17ZM15 17L15 18L16 18L16 17ZM12 18L12 19L13 19L13 18ZM13 20L13 22L14 22L14 23L16 23L16 22L15 22L15 21L14 21L14 20ZM27 20L27 21L30 21L30 20ZM18 21L18 22L17 22L17 23L18 23L18 24L19 24L19 21ZM45 22L45 23L46 23L46 22ZM5 23L5 26L8 26L8 23ZM23 23L23 26L26 26L26 23ZM31 23L31 24L32 24L32 23ZM41 23L41 26L44 26L44 23ZM6 24L6 25L7 25L7 24ZM24 24L24 25L25 25L25 24ZM42 24L42 25L43 25L43 24ZM34 27L34 28L35 28L35 29L34 29L34 30L33 30L33 31L34 31L34 30L35 30L35 29L36 29L36 28L35 28L35 27ZM39 28L39 29L40 29L40 28ZM18 29L18 30L19 30L19 29ZM21 29L21 30L22 30L22 29ZM31 29L31 30L32 30L32 29ZM6 30L6 31L8 31L8 32L9 32L9 33L7 33L7 32L6 32L6 33L7 33L7 34L8 34L8 35L7 35L7 36L8 36L8 37L7 37L7 38L8 38L8 37L9 37L9 36L10 36L10 37L12 37L12 36L10 36L10 35L9 35L9 34L10 34L10 32L9 32L9 31L8 31L8 30ZM42 30L42 31L43 31L43 30ZM27 31L27 32L28 32L28 31ZM20 32L20 33L21 33L21 32ZM39 32L39 34L37 34L37 36L36 36L36 37L37 37L37 36L38 36L38 37L40 37L40 39L41 39L41 37L40 37L40 36L39 36L39 35L41 35L41 36L42 36L42 39L44 39L44 38L43 38L43 37L45 37L45 38L46 38L46 37L47 37L47 36L46 36L46 33L45 33L45 36L42 36L42 35L44 35L44 34L42 34L42 35L41 35L41 34L40 34L40 32ZM0 35L0 36L1 36L1 37L0 37L0 38L1 38L1 40L0 40L0 41L3 41L3 40L4 40L4 39L2 39L2 37L3 37L3 36L2 36L2 35ZM8 35L8 36L9 36L9 35ZM25 35L25 36L26 36L26 38L27 38L27 36L26 36L26 35ZM21 36L21 37L22 37L22 36ZM33 36L33 37L35 37L35 36ZM45 36L45 37L46 37L46 36ZM36 38L36 39L35 39L35 40L36 40L36 42L37 42L37 43L38 43L38 42L37 42L37 41L38 41L38 40L36 40L36 39L39 39L39 38ZM16 40L16 41L17 41L17 43L18 43L18 41L19 41L19 40ZM23 41L23 44L26 44L26 41ZM27 41L27 42L28 42L28 43L29 43L29 41ZM32 41L32 42L31 42L31 44L30 44L30 45L31 45L31 44L33 44L33 45L32 45L32 46L34 46L34 43L32 43L32 42L34 42L34 41ZM41 41L41 44L44 44L44 41ZM19 42L19 43L20 43L20 44L16 44L16 45L22 45L22 44L21 44L21 43L22 43L22 42ZM24 42L24 43L25 43L25 42ZM42 42L42 43L43 43L43 42ZM35 43L35 44L36 44L36 43ZM8 44L8 47L9 47L9 44ZM23 45L23 46L21 46L21 47L24 47L24 46L25 46L25 45ZM19 46L19 47L20 47L20 46ZM41 47L41 48L42 48L42 47ZM0 0L0 7L7 7L7 0ZM1 1L1 6L6 6L6 1ZM2 2L2 5L5 5L5 2ZM42 0L42 7L49 7L49 0ZM43 1L43 6L48 6L48 1ZM44 2L44 5L47 5L47 2ZM0 42L0 49L7 49L7 42ZM1 43L1 48L6 48L6 43ZM2 44L2 47L5 47L5 44Z" fill="#000000"/></g></g></svg>
