<?xml version="1.0" encoding="UTF-8"?>
<svg xmlns="http://www.w3.org/2000/svg" version="1.1" width="200" height="200" viewBox="0 0 200 200"><rect x="0" y="0" width="200" height="200" fill="#ffffff"/><g transform="scale(3.774)"><g transform="translate(2,2)"><path fill-rule="evenodd" d="M8 0L8 2L9 2L9 3L8 3L8 7L9 7L9 8L10 8L10 7L11 7L11 6L12 6L12 7L13 7L13 8L12 8L12 9L13 9L13 8L14 8L14 10L13 10L13 12L12 12L12 11L11 11L11 10L10 10L10 9L9 9L9 10L8 10L8 11L7 11L7 10L6 10L6 9L7 9L7 8L6 8L6 9L5 9L5 10L6 10L6 11L7 11L7 12L3 12L3 9L4 9L4 8L3 8L3 9L2 9L2 10L1 10L1 9L0 9L0 10L1 10L1 11L0 11L0 16L1 16L1 17L0 17L0 18L1 18L1 19L2 19L2 18L5 18L5 19L3 19L3 20L1 20L1 22L0 22L0 25L1 25L1 26L0 26L0 29L1 29L1 30L0 30L0 34L1 34L1 35L2 35L2 37L3 37L3 34L2 34L2 32L4 32L4 33L5 33L5 31L3 31L3 30L5 30L5 29L7 29L7 30L6 30L6 31L9 31L9 32L11 32L11 34L10 34L10 33L9 33L9 34L8 34L8 35L7 35L7 34L4 34L4 36L5 36L5 39L7 39L7 38L6 38L6 37L7 37L7 36L8 36L8 37L9 37L9 36L8 36L8 35L9 35L9 34L10 34L10 35L12 35L12 36L10 36L10 37L13 37L13 38L9 38L9 39L12 39L12 40L6 40L6 41L8 41L8 42L9 42L9 41L12 41L12 40L13 40L13 42L11 42L11 43L9 43L9 45L8 45L8 46L9 46L9 45L11 45L11 46L10 46L10 49L11 49L11 47L12 47L12 45L13 45L13 47L15 47L15 48L16 48L16 49L19 49L19 47L21 47L21 46L22 46L22 48L21 48L21 49L24 49L24 46L23 46L23 45L26 45L26 48L25 48L25 49L27 49L27 47L29 47L29 49L31 49L31 47L33 47L33 48L32 48L32 49L33 49L33 48L34 48L34 47L35 47L35 48L36 48L36 49L37 49L37 46L38 46L38 44L40 44L40 45L39 45L39 47L38 47L38 48L39 48L39 49L40 49L40 48L41 48L41 49L42 49L42 48L41 48L41 46L42 46L42 47L43 47L43 48L44 48L44 49L46 49L46 46L45 46L45 45L46 45L46 44L47 44L47 47L49 47L49 46L48 46L48 45L49 45L49 44L48 44L48 43L49 43L49 36L48 36L48 38L47 38L47 37L46 37L46 35L47 35L47 34L46 34L46 35L44 35L44 33L46 33L46 32L47 32L47 33L48 33L48 35L49 35L49 33L48 33L48 32L47 32L47 31L45 31L45 32L44 32L44 31L43 31L43 29L44 29L44 30L46 30L46 29L47 29L47 30L48 30L48 31L49 31L49 28L46 28L46 27L49 27L49 25L47 25L47 26L46 26L46 23L45 23L45 21L46 21L46 20L47 20L47 21L48 21L48 24L49 24L49 20L47 20L47 19L43 19L43 18L42 18L42 19L41 19L41 18L40 18L40 16L41 16L41 17L42 17L42 16L41 16L41 14L42 14L42 13L43 13L43 14L44 14L44 16L43 16L43 17L44 17L44 18L46 18L46 17L47 17L47 18L48 18L48 19L49 19L49 16L48 16L48 15L49 15L49 8L47 8L47 9L48 9L48 14L47 14L47 16L45 16L45 14L44 14L44 13L46 13L46 8L43 8L43 11L44 11L44 9L45 9L45 12L44 12L44 13L43 13L43 12L42 12L42 13L40 13L40 11L42 11L42 9L41 9L41 10L40 10L40 8L41 8L41 6L40 6L40 7L39 7L39 5L38 5L38 7L39 7L39 8L38 8L38 9L37 9L37 8L35 8L35 6L36 6L36 7L37 7L37 6L36 6L36 5L34 5L34 7L33 7L33 6L32 6L32 5L33 5L33 4L34 4L34 3L35 3L35 4L36 4L36 3L35 3L35 2L36 2L36 1L35 1L35 0L34 0L34 1L35 1L35 2L34 2L34 3L33 3L33 2L32 2L32 0L28 0L28 1L26 1L26 2L28 2L28 4L30 4L30 8L28 8L28 9L29 9L29 10L28 10L28 11L27 11L27 13L26 13L26 14L24 14L24 12L26 12L26 11L25 11L25 10L24 10L24 9L27 9L27 6L28 6L28 7L29 7L29 6L28 6L28 5L27 5L27 3L24 3L24 2L22 2L22 0L21 0L21 4L20 4L20 0L19 0L19 2L18 2L18 1L17 1L17 2L18 2L18 4L17 4L17 3L16 3L16 2L13 2L13 0ZM14 0L14 1L15 1L15 0ZM23 0L23 1L25 1L25 0ZM37 0L37 1L38 1L38 2L39 2L39 4L40 4L40 3L41 3L41 0L40 0L40 1L38 1L38 0ZM10 1L10 3L9 3L9 7L10 7L10 6L11 6L11 3L12 3L12 6L13 6L13 7L14 7L14 5L17 5L17 7L16 7L16 6L15 6L15 7L16 7L16 8L15 8L15 9L17 9L17 8L18 8L18 11L19 11L19 12L17 12L17 10L16 10L16 12L14 12L14 13L16 13L16 14L14 14L14 16L15 16L15 17L12 17L12 16L11 16L11 15L13 15L13 14L11 14L11 12L10 12L10 13L9 13L9 15L8 15L8 16L9 16L9 15L10 15L10 16L11 16L11 17L9 17L9 18L8 18L8 17L6 17L6 16L7 16L7 15L6 15L6 14L8 14L8 12L9 12L9 11L10 11L10 10L9 10L9 11L8 11L8 12L7 12L7 13L6 13L6 14L5 14L5 13L4 13L4 15L6 15L6 16L4 16L4 17L5 17L5 18L8 18L8 19L6 19L6 20L5 20L5 21L4 21L4 22L2 22L2 24L1 24L1 25L2 25L2 24L3 24L3 28L4 28L4 29L5 29L5 27L4 27L4 22L5 22L5 21L6 21L6 22L9 22L9 21L10 21L10 22L11 22L11 24L12 24L12 25L11 25L11 26L10 26L10 24L9 24L9 27L10 27L10 28L9 28L9 31L10 31L10 28L14 28L14 29L13 29L13 30L14 30L14 29L15 29L15 30L16 30L16 31L12 31L12 29L11 29L11 31L12 31L12 32L14 32L14 33L12 33L12 35L13 35L13 37L14 37L14 38L13 38L13 40L14 40L14 41L15 41L15 42L16 42L16 43L17 43L17 44L18 44L18 43L19 43L19 44L20 44L20 42L16 42L16 41L21 41L21 45L20 45L20 46L21 46L21 45L22 45L22 40L24 40L24 39L25 39L25 40L27 40L27 42L30 42L30 43L28 43L28 44L27 44L27 45L28 45L28 46L29 46L29 47L31 47L31 45L34 45L34 46L35 46L35 47L36 47L36 46L37 46L37 45L36 45L36 46L35 46L35 45L34 45L34 44L31 44L31 43L32 43L32 42L31 42L31 41L28 41L28 39L29 39L29 38L24 38L24 37L23 37L23 38L24 38L24 39L22 39L22 37L20 37L20 36L19 36L19 38L17 38L17 36L18 36L18 35L21 35L21 36L24 36L24 35L25 35L25 37L26 37L26 35L27 35L27 34L28 34L28 36L29 36L29 37L30 37L30 38L32 38L32 39L30 39L30 40L32 40L32 39L33 39L33 37L35 37L35 38L34 38L34 42L35 42L35 44L36 44L36 39L37 39L37 38L40 38L40 39L38 39L38 40L37 40L37 41L38 41L38 40L39 40L39 41L40 41L40 40L42 40L42 39L41 39L41 37L42 37L42 38L43 38L43 39L44 39L44 40L47 40L47 41L46 41L46 42L45 42L45 43L46 43L46 42L47 42L47 43L48 43L48 42L47 42L47 41L48 41L48 40L47 40L47 38L46 38L46 39L45 39L45 36L44 36L44 35L43 35L43 36L44 36L44 37L42 37L42 36L41 36L41 35L42 35L42 34L41 34L41 33L40 33L40 31L42 31L42 30L41 30L41 29L40 29L40 28L42 28L42 27L38 27L38 29L40 29L40 31L39 31L39 30L38 30L38 31L36 31L36 30L37 30L37 29L36 29L36 26L39 26L39 25L40 25L40 24L39 24L39 25L38 25L38 23L39 23L39 19L38 19L38 18L39 18L39 16L38 16L38 15L37 15L37 16L38 16L38 17L37 17L37 21L36 21L36 22L35 22L35 20L36 20L36 10L37 10L37 14L39 14L39 15L40 15L40 14L39 14L39 13L38 13L38 11L40 11L40 10L39 10L39 9L38 9L38 10L37 10L37 9L34 9L34 8L33 8L33 7L32 7L32 6L31 6L31 7L32 7L32 8L30 8L30 10L29 10L29 11L28 11L28 13L29 13L29 14L32 14L32 13L31 13L31 12L33 12L33 13L35 13L35 14L34 14L34 15L32 15L32 16L33 16L33 19L32 19L32 18L30 18L30 17L29 17L29 16L27 16L27 17L25 17L25 16L26 16L26 15L27 15L27 14L26 14L26 15L24 15L24 14L23 14L23 17L22 17L22 16L21 16L21 15L20 15L20 16L17 16L17 15L19 15L19 14L22 14L22 13L23 13L23 12L20 12L20 11L24 11L24 10L22 10L22 8L20 8L20 6L19 6L19 5L20 5L20 4L18 4L18 5L17 5L17 4L15 4L15 3L14 3L14 5L13 5L13 2L11 2L11 1ZM28 1L28 2L30 2L30 3L31 3L31 5L32 5L32 4L33 4L33 3L32 3L32 2L31 2L31 1ZM22 3L22 4L23 4L23 3ZM37 3L37 4L38 4L38 3ZM23 5L23 8L26 8L26 5ZM18 6L18 8L19 8L19 6ZM21 6L21 7L22 7L22 6ZM24 6L24 7L25 7L25 6ZM32 8L32 9L31 9L31 10L32 10L32 11L34 11L34 12L35 12L35 10L34 10L34 9L33 9L33 8ZM19 9L19 11L20 11L20 10L21 10L21 9ZM32 9L32 10L33 10L33 9ZM30 11L30 12L29 12L29 13L30 13L30 12L31 12L31 11ZM2 12L2 13L1 13L1 15L2 15L2 17L3 17L3 15L2 15L2 14L3 14L3 12ZM19 12L19 13L20 13L20 12ZM17 13L17 14L16 14L16 15L17 15L17 14L18 14L18 13ZM10 14L10 15L11 15L11 14ZM30 15L30 16L31 16L31 15ZM34 15L34 20L35 20L35 15ZM47 16L47 17L48 17L48 16ZM15 17L15 18L14 18L14 23L15 23L15 24L13 24L13 22L12 22L12 20L13 20L13 19L12 19L12 18L11 18L11 19L12 19L12 20L10 20L10 19L9 19L9 20L10 20L10 21L11 21L11 22L12 22L12 24L13 24L13 25L12 25L12 26L13 26L13 27L14 27L14 28L15 28L15 27L16 27L16 29L17 29L17 30L18 30L18 29L19 29L19 30L20 30L20 31L18 31L18 32L17 32L17 31L16 31L16 32L17 32L17 33L19 33L19 32L20 32L20 34L22 34L22 35L23 35L23 34L25 34L25 35L26 35L26 34L27 34L27 33L26 33L26 30L27 30L27 32L28 32L28 30L27 30L27 29L28 29L28 26L30 26L30 25L31 25L31 26L32 26L32 25L33 25L33 27L32 27L32 28L31 28L31 30L29 30L29 32L30 32L30 33L29 33L29 36L30 36L30 34L33 34L33 36L32 36L32 37L33 37L33 36L34 36L34 35L35 35L35 36L36 36L36 37L39 37L39 35L38 35L38 36L37 36L37 35L36 35L36 34L38 34L38 33L35 33L35 32L36 32L36 31L35 31L35 32L34 32L34 28L35 28L35 27L34 27L34 26L35 26L35 24L36 24L36 25L37 25L37 23L35 23L35 22L34 22L34 21L33 21L33 20L32 20L32 19L29 19L29 21L30 21L30 25L29 25L29 22L28 22L28 20L24 20L24 19L26 19L26 18L24 18L24 17L23 17L23 18L24 18L24 19L20 19L20 18L21 18L21 17L18 17L18 18L17 18L17 20L18 20L18 19L20 19L20 20L23 20L23 22L21 22L21 21L16 21L16 20L15 20L15 18L16 18L16 17ZM27 18L27 19L28 19L28 18ZM42 19L42 22L43 22L43 21L45 21L45 20L43 20L43 19ZM6 20L6 21L7 21L7 20ZM30 20L30 21L31 21L31 25L32 25L32 21L31 21L31 20ZM40 20L40 22L41 22L41 20ZM24 21L24 22L25 22L25 21ZM37 21L37 22L38 22L38 21ZM16 22L16 23L17 23L17 24L16 24L16 25L17 25L17 26L16 26L16 27L17 27L17 29L18 29L18 28L21 28L21 27L20 27L20 26L21 26L21 25L22 25L22 23L21 23L21 22L20 22L20 23L21 23L21 25L20 25L20 24L19 24L19 22L18 22L18 23L17 23L17 22ZM5 23L5 26L8 26L8 23ZM23 23L23 26L26 26L26 23ZM27 23L27 24L28 24L28 23ZM34 23L34 24L33 24L33 25L34 25L34 24L35 24L35 23ZM41 23L41 26L44 26L44 23ZM6 24L6 25L7 25L7 24ZM17 24L17 25L18 25L18 26L19 26L19 25L18 25L18 24ZM24 24L24 25L25 25L25 24ZM42 24L42 25L43 25L43 24ZM14 26L14 27L15 27L15 26ZM45 26L45 27L44 27L44 29L45 29L45 27L46 27L46 26ZM1 27L1 29L2 29L2 27ZM6 27L6 28L7 28L7 29L8 29L8 28L7 28L7 27ZM22 27L22 29L20 29L20 30L21 30L21 31L22 31L22 33L25 33L25 32L24 32L24 31L25 31L25 30L26 30L26 29L25 29L25 30L24 30L24 28L26 28L26 27ZM29 28L29 29L30 29L30 28ZM22 29L22 30L23 30L23 31L24 31L24 30L23 30L23 29ZM32 29L32 30L33 30L33 29ZM35 29L35 30L36 30L36 29ZM30 31L30 32L33 32L33 33L34 33L34 34L35 34L35 33L34 33L34 32L33 32L33 31ZM6 32L6 33L7 33L7 32ZM14 33L14 34L15 34L15 36L16 36L16 33ZM39 33L39 34L40 34L40 35L41 35L41 34L40 34L40 33ZM17 34L17 35L18 35L18 34ZM5 35L5 36L7 36L7 35ZM0 36L0 37L1 37L1 36ZM40 36L40 37L41 37L41 36ZM15 37L15 38L14 38L14 40L19 40L19 39L16 39L16 37ZM1 38L1 40L0 40L0 41L3 41L3 40L4 40L4 39L2 39L2 38ZM20 38L20 40L22 40L22 39L21 39L21 38ZM35 38L35 39L36 39L36 38ZM23 41L23 44L26 44L26 41ZM41 41L41 44L44 44L44 41ZM24 42L24 43L25 43L25 42ZM39 42L39 43L40 43L40 42ZM42 42L42 43L43 43L43 42ZM12 43L12 44L13 44L13 43ZM14 43L14 45L15 45L15 47L16 47L16 44L15 44L15 43ZM37 43L37 44L38 44L38 43ZM29 44L29 46L30 46L30 44ZM40 45L40 46L41 46L41 45ZM42 45L42 46L44 46L44 45ZM17 47L17 48L18 48L18 47ZM13 48L13 49L14 49L14 48ZM47 48L47 49L49 49L49 48ZM0 0L0 7L7 7L7 0ZM1 1L1 6L6 6L6 1ZM2 2L2 5L5 5L5 2ZM42 0L42 7L49 7L49 0ZM43 1L43 6L48 6L48 1ZM44 2L44 5L47 5L47 2ZM0 42L0 49L7 49L7 42ZM1 43L1 48L6 48L6 43ZM2 44L2 47L5 47L5 44Z" fill="#000000"/></g></g></svg>
