<?xml version="1.0" encoding="UTF-8"?>
<svg xmlns="http://www.w3.org/2000/svg" version="1.1" width="200" height="200" viewBox="0 0 200 200"><rect x="0" y="0" width="200" height="200" fill="#ffffff"/><g transform="scale(3.774)"><g transform="translate(2,2)"><path fill-rule="evenodd" d="M8 0L8 1L9 1L9 0ZM10 0L10 1L11 1L11 3L10 3L10 2L8 2L8 3L9 3L9 4L8 4L8 5L9 5L9 6L8 6L8 8L9 8L9 9L11 9L11 10L10 10L10 11L9 11L9 10L8 10L8 11L7 11L7 10L5 10L5 9L7 9L7 8L5 8L5 9L0 9L0 10L1 10L1 12L0 12L0 14L1 14L1 15L0 15L0 17L2 17L2 16L5 16L5 14L6 14L6 15L7 15L7 16L6 16L6 17L4 17L4 18L6 18L6 19L3 19L3 20L2 20L2 19L1 19L1 20L0 20L0 21L1 21L1 22L0 22L0 28L1 28L1 29L0 29L0 32L1 32L1 33L2 33L2 34L3 34L3 35L2 35L2 36L3 36L3 35L7 35L7 36L4 36L4 37L3 37L3 38L5 38L5 39L7 39L7 40L6 40L6 41L8 41L8 42L9 42L9 41L8 41L8 39L11 39L11 38L8 38L8 37L9 37L9 36L10 36L10 35L11 35L11 36L12 36L12 35L13 35L13 33L12 33L12 32L11 32L11 30L12 30L12 28L13 28L13 30L14 30L14 32L15 32L15 31L16 31L16 30L18 30L18 29L19 29L19 30L20 30L20 31L23 31L23 32L19 32L19 31L17 31L17 32L16 32L16 33L17 33L17 34L18 34L18 36L17 36L17 38L15 38L15 37L16 37L16 36L15 36L15 35L16 35L16 34L15 34L15 33L14 33L14 34L15 34L15 35L14 35L14 36L13 36L13 37L12 37L12 38L13 38L13 39L12 39L12 40L10 40L10 41L12 41L12 42L10 42L10 43L8 43L8 44L10 44L10 43L12 43L12 42L13 42L13 41L14 41L14 44L12 44L12 45L9 45L9 46L15 46L15 48L14 48L14 49L18 49L18 48L19 48L19 47L18 47L18 48L17 48L17 47L16 47L16 45L17 45L17 46L20 46L20 47L21 47L21 46L22 46L22 47L23 47L23 45L26 45L26 46L28 46L28 44L30 44L30 42L31 42L31 44L33 44L33 45L32 45L32 46L33 46L33 45L34 45L34 47L35 47L35 49L37 49L37 48L36 48L36 47L35 47L35 45L34 45L34 44L33 44L33 43L32 43L32 41L31 41L31 40L32 40L32 39L31 39L31 38L32 38L32 37L36 37L36 38L34 38L34 40L36 40L36 41L38 41L38 40L39 40L39 41L40 41L40 42L38 42L38 44L36 44L36 43L37 43L37 42L34 42L34 43L35 43L35 44L36 44L36 46L37 46L37 47L39 47L39 45L40 45L40 48L41 48L41 47L42 47L42 48L43 48L43 49L44 49L44 47L43 47L43 46L44 46L44 45L45 45L45 43L48 43L48 46L47 46L47 44L46 44L46 46L45 46L45 47L46 47L46 46L47 46L47 47L48 47L48 49L49 49L49 42L48 42L48 41L49 41L49 38L48 38L48 37L49 37L49 36L47 36L47 38L46 38L46 37L45 37L45 38L46 38L46 40L42 40L42 39L43 39L43 37L42 37L42 35L43 35L43 33L44 33L44 34L45 34L45 35L47 35L47 34L48 34L48 35L49 35L49 34L48 34L48 33L49 33L49 30L48 30L48 29L49 29L49 28L48 28L48 27L49 27L49 26L48 26L48 24L49 24L49 22L48 22L48 21L49 21L49 18L48 18L48 17L47 17L47 14L48 14L48 16L49 16L49 14L48 14L48 13L49 13L49 12L47 12L47 14L46 14L46 13L45 13L45 11L47 11L47 10L48 10L48 11L49 11L49 10L48 10L48 9L49 9L49 8L48 8L48 9L47 9L47 8L46 8L46 9L45 9L45 8L44 8L44 10L45 10L45 11L42 11L42 10L43 10L43 8L42 8L42 10L41 10L41 8L40 8L40 10L39 10L39 9L38 9L38 10L37 10L37 6L38 6L38 7L39 7L39 5L38 5L38 4L37 4L37 3L36 3L36 2L37 2L37 0L33 0L33 1L32 1L32 4L30 4L30 2L29 2L29 1L28 1L28 4L30 4L30 5L31 5L31 6L30 6L30 7L29 7L29 5L27 5L27 4L23 4L23 2L22 2L22 1L24 1L24 0L21 0L21 3L20 3L20 2L19 2L19 1L20 1L20 0L17 0L17 1L16 1L16 2L15 2L15 0L14 0L14 1L11 1L11 0ZM26 0L26 1L25 1L25 2L24 2L24 3L27 3L27 0ZM30 0L30 1L31 1L31 0ZM40 0L40 1L38 1L38 2L39 2L39 4L40 4L40 3L41 3L41 0ZM17 1L17 2L16 2L16 3L15 3L15 2L14 2L14 3L15 3L15 4L12 4L12 3L11 3L11 4L12 4L12 6L11 6L11 5L10 5L10 4L9 4L9 5L10 5L10 6L9 6L9 8L11 8L11 9L12 9L12 10L13 10L13 13L14 13L14 14L13 14L13 15L12 15L12 13L11 13L11 12L12 12L12 11L10 11L10 13L9 13L9 12L7 12L7 11L6 11L6 12L7 12L7 13L6 13L6 14L7 14L7 15L8 15L8 20L7 20L7 19L6 19L6 20L3 20L3 21L6 21L6 22L8 22L8 21L9 21L9 23L10 23L10 21L9 21L9 19L10 19L10 20L11 20L11 23L13 23L13 25L14 25L14 22L12 22L12 20L13 20L13 21L14 21L14 20L15 20L15 19L16 19L16 21L15 21L15 23L16 23L16 24L15 24L15 25L16 25L16 26L17 26L17 27L18 27L18 26L20 26L20 27L19 27L19 28L20 28L20 30L21 30L21 29L22 29L22 26L21 26L21 25L22 25L22 24L21 24L21 23L20 23L20 22L24 22L24 21L25 21L25 22L26 22L26 20L23 20L23 21L21 21L21 17L20 17L20 16L24 16L24 17L25 17L25 18L23 18L23 19L25 19L25 18L26 18L26 17L27 17L27 20L28 20L28 18L29 18L29 20L30 20L30 21L31 21L31 23L32 23L32 24L34 24L34 25L32 25L32 26L31 26L31 27L29 27L29 26L30 26L30 25L29 25L29 23L30 23L30 22L29 22L29 21L28 21L28 22L29 22L29 23L27 23L27 24L28 24L28 25L29 25L29 26L28 26L28 27L26 27L26 28L28 28L28 29L27 29L27 30L26 30L26 29L24 29L24 28L25 28L25 27L23 27L23 30L24 30L24 33L23 33L23 35L20 35L20 33L19 33L19 36L18 36L18 38L17 38L17 41L19 41L19 42L18 42L18 43L19 43L19 44L17 44L17 45L19 45L19 44L22 44L22 43L21 43L21 42L20 42L20 40L21 40L21 41L22 41L22 40L23 40L23 39L22 39L22 37L23 37L23 36L24 36L24 40L25 40L25 39L26 39L26 35L27 35L27 42L28 42L28 43L29 43L29 41L28 41L28 40L29 40L29 39L30 39L30 38L31 38L31 37L29 37L29 36L30 36L30 35L27 35L27 34L26 34L26 32L27 32L27 33L28 33L28 34L33 34L33 36L34 36L34 33L35 33L35 34L36 34L36 35L35 35L35 36L37 36L37 34L38 34L38 32L39 32L39 28L38 28L38 27L36 27L36 26L39 26L39 27L40 27L40 23L39 23L39 25L35 25L35 23L36 23L36 24L38 24L38 23L36 23L36 20L37 20L37 22L38 22L38 21L39 21L39 22L40 22L40 20L41 20L41 22L42 22L42 21L43 21L43 22L45 22L45 21L46 21L46 20L47 20L47 21L48 21L48 20L47 20L47 17L45 17L45 14L44 14L44 13L43 13L43 14L42 14L42 13L41 13L41 12L42 12L42 11L41 11L41 10L40 10L40 11L36 11L36 10L35 10L35 11L36 11L36 12L39 12L39 13L33 13L33 15L34 15L34 16L35 16L35 18L36 18L36 16L37 16L37 17L38 17L38 16L39 16L39 19L36 19L36 20L35 20L35 19L34 19L34 20L35 20L35 23L34 23L34 21L33 21L33 22L32 22L32 21L31 21L31 20L30 20L30 19L31 19L31 18L33 18L33 17L32 17L32 15L31 15L31 14L32 14L32 11L33 11L33 12L34 12L34 9L36 9L36 8L34 8L34 6L33 6L33 4L32 4L32 6L31 6L31 8L30 8L30 9L29 9L29 8L28 8L28 6L27 6L27 8L28 8L28 10L27 10L27 9L26 9L26 10L25 10L25 11L23 11L23 10L24 10L24 9L23 9L23 10L22 10L22 11L20 11L20 12L19 12L19 10L21 10L21 9L22 9L22 8L21 8L21 7L22 7L22 5L21 5L21 4L22 4L22 3L21 3L21 4L20 4L20 3L18 3L18 4L17 4L17 2L18 2L18 1ZM35 1L35 2L36 2L36 1ZM35 3L35 4L34 4L34 5L37 5L37 4L36 4L36 3ZM16 4L16 5L14 5L14 8L15 8L15 9L13 9L13 6L12 6L12 7L11 7L11 6L10 6L10 7L11 7L11 8L12 8L12 9L13 9L13 10L14 10L14 11L16 11L16 10L17 10L17 9L16 9L16 8L15 8L15 6L16 6L16 7L17 7L17 6L18 6L18 7L19 7L19 6L20 6L20 7L21 7L21 6L20 6L20 5L19 5L19 6L18 6L18 5L17 5L17 4ZM16 5L16 6L17 6L17 5ZM23 5L23 8L26 8L26 5ZM24 6L24 7L25 7L25 6ZM32 6L32 7L33 7L33 6ZM35 6L35 7L36 7L36 6ZM40 6L40 7L41 7L41 6ZM18 8L18 9L19 9L19 8ZM31 8L31 10L30 10L30 11L29 11L29 10L28 10L28 12L30 12L30 14L29 14L29 15L28 15L28 14L27 14L27 15L28 15L28 17L29 17L29 18L31 18L31 17L30 17L30 16L29 16L29 15L30 15L30 14L31 14L31 12L30 12L30 11L32 11L32 9L34 9L34 8ZM3 10L3 11L2 11L2 13L1 13L1 14L2 14L2 13L4 13L4 14L5 14L5 13L4 13L4 12L5 12L5 11L4 11L4 10ZM3 11L3 12L4 12L4 11ZM40 11L40 12L41 12L41 11ZM14 12L14 13L15 13L15 14L14 14L14 15L15 15L15 16L14 16L14 17L15 17L15 16L16 16L16 17L18 17L18 18L16 18L16 19L17 19L17 21L16 21L16 22L17 22L17 24L16 24L16 25L17 25L17 24L18 24L18 23L19 23L19 22L18 22L18 21L20 21L20 19L19 19L19 16L20 16L20 14L21 14L21 13L22 13L22 12L20 12L20 13L19 13L19 12L18 12L18 13L17 13L17 12ZM23 12L23 13L25 13L25 15L24 15L24 16L25 16L25 17L26 17L26 16L25 16L25 15L26 15L26 12ZM7 13L7 14L8 14L8 15L9 15L9 16L11 16L11 13L10 13L10 14L8 14L8 13ZM16 13L16 14L15 14L15 15L16 15L16 16L19 16L19 15L18 15L18 14L19 14L19 13L18 13L18 14L17 14L17 13ZM22 14L22 15L23 15L23 14ZM34 14L34 15L35 15L35 16L36 16L36 14ZM37 14L37 16L38 16L38 15L40 15L40 14ZM41 14L41 15L42 15L42 16L41 16L41 17L42 17L42 20L45 20L45 19L46 19L46 18L45 18L45 17L44 17L44 19L43 19L43 16L44 16L44 15L42 15L42 14ZM1 15L1 16L2 16L2 15ZM12 16L12 17L13 17L13 16ZM6 17L6 18L7 18L7 17ZM9 17L9 18L11 18L11 19L12 19L12 18L11 18L11 17ZM40 18L40 19L41 19L41 18ZM13 19L13 20L14 20L14 19ZM18 19L18 20L19 20L19 19ZM32 19L32 20L33 20L33 19ZM6 20L6 21L7 21L7 20ZM2 22L2 23L1 23L1 24L3 24L3 22ZM46 22L46 23L45 23L45 26L46 26L46 27L45 27L45 28L44 28L44 27L42 27L42 28L43 28L43 29L45 29L45 30L44 30L44 31L45 31L45 33L46 33L46 32L47 32L47 33L48 33L48 32L47 32L47 31L45 31L45 30L47 30L47 29L48 29L48 28L47 28L47 29L46 29L46 27L47 27L47 24L48 24L48 22ZM5 23L5 26L8 26L8 23ZM23 23L23 26L26 26L26 23ZM41 23L41 26L44 26L44 23ZM6 24L6 25L7 25L7 24ZM10 24L10 26L9 26L9 28L8 28L8 27L6 27L6 28L4 28L4 29L1 29L1 32L3 32L3 34L8 34L8 36L9 36L9 34L8 34L8 32L9 32L9 30L10 30L10 28L11 28L11 27L12 27L12 26L11 26L11 24ZM19 24L19 25L20 25L20 24ZM24 24L24 25L25 25L25 24ZM42 24L42 25L43 25L43 24ZM1 25L1 27L3 27L3 25ZM13 26L13 28L15 28L15 29L16 29L16 27L14 27L14 26ZM34 26L34 28L33 28L33 29L32 29L32 27L31 27L31 29L32 29L32 30L33 30L33 29L35 29L35 31L36 31L36 32L35 32L35 33L36 33L36 32L37 32L37 28L36 28L36 27L35 27L35 26ZM20 27L20 28L21 28L21 27ZM6 28L6 29L7 29L7 28ZM29 28L29 29L28 29L28 30L27 30L27 31L29 31L29 29L30 29L30 28ZM35 28L35 29L36 29L36 28ZM40 28L40 33L41 33L41 35L40 35L40 36L41 36L41 35L42 35L42 32L43 32L43 31L41 31L41 30L42 30L42 29L41 29L41 28ZM4 29L4 30L5 30L5 29ZM8 29L8 30L6 30L6 31L3 31L3 30L2 30L2 31L3 31L3 32L6 32L6 33L7 33L7 32L8 32L8 30L9 30L9 29ZM30 30L30 32L31 32L31 33L34 33L34 32L31 32L31 30ZM6 31L6 32L7 32L7 31ZM10 33L10 34L12 34L12 33ZM24 33L24 35L25 35L25 33ZM0 35L0 38L1 38L1 40L0 40L0 41L3 41L3 40L4 40L4 39L2 39L2 38L1 38L1 35ZM31 35L31 36L32 36L32 35ZM38 35L38 37L37 37L37 38L39 38L39 39L40 39L40 38L39 38L39 35ZM14 36L14 37L13 37L13 38L14 38L14 40L15 40L15 38L14 38L14 37L15 37L15 36ZM20 36L20 39L18 39L18 40L20 40L20 39L21 39L21 36ZM5 37L5 38L7 38L7 37ZM28 37L28 39L29 39L29 37ZM41 38L41 39L42 39L42 38ZM47 38L47 40L46 40L46 41L45 41L45 42L47 42L47 41L48 41L48 38ZM36 39L36 40L38 40L38 39ZM15 41L15 42L16 42L16 41ZM23 41L23 44L26 44L26 41ZM41 41L41 44L44 44L44 41ZM24 42L24 43L25 43L25 42ZM42 42L42 43L43 43L43 42ZM15 43L15 44L16 44L16 43ZM39 43L39 44L38 44L38 45L37 45L37 46L38 46L38 45L39 45L39 44L40 44L40 43ZM29 45L29 46L31 46L31 45ZM41 45L41 46L42 46L42 45ZM24 46L24 47L25 47L25 46ZM9 47L9 49L11 49L11 48L10 48L10 47ZM12 47L12 49L13 49L13 47ZM28 47L28 49L30 49L30 47ZM31 47L31 49L34 49L34 48L33 48L33 47ZM25 48L25 49L27 49L27 48ZM38 48L38 49L39 49L39 48ZM0 0L0 7L7 7L7 0ZM1 1L1 6L6 6L6 1ZM2 2L2 5L5 5L5 2ZM42 0L42 7L49 7L49 0ZM43 1L43 6L48 6L48 1ZM44 2L44 5L47 5L47 2ZM0 42L0 49L7 49L7 42ZM1 43L1 48L6 48L6 43ZM2 44L2 47L5 47L5 44Z" fill="#000000"/></g></g></svg>
