<?xml version="1.0" encoding="UTF-8"?>
<svg xmlns="http://www.w3.org/2000/svg" version="1.1" width="200" height="200" viewBox="0 0 200 200"><rect x="0" y="0" width="200" height="200" fill="#ffffff"/><g transform="scale(3.774)"><g transform="translate(2,2)"><path fill-rule="evenodd" d="M11 0L11 1L14 1L14 3L13 3L13 2L10 2L10 1L9 1L9 2L8 2L8 4L12 4L12 3L13 3L13 4L14 4L14 5L12 5L12 7L11 7L11 5L10 5L10 7L9 7L9 6L8 6L8 7L9 7L9 9L10 9L10 10L9 10L9 11L7 11L7 10L8 10L8 8L6 8L6 9L5 9L5 8L3 8L3 11L2 11L2 9L0 9L0 10L1 10L1 12L0 12L0 13L3 13L3 14L0 14L0 15L1 15L1 16L0 16L0 17L1 17L1 18L0 18L0 19L1 19L1 18L3 18L3 20L2 20L2 21L0 21L0 22L2 22L2 23L3 23L3 22L4 22L4 24L3 24L3 26L4 26L4 28L1 28L1 27L2 27L2 26L0 26L0 29L2 29L2 30L3 30L3 29L4 29L4 28L5 28L5 30L6 30L6 31L7 31L7 32L6 32L6 33L5 33L5 34L4 34L4 33L3 33L3 34L2 34L2 32L3 32L3 31L2 31L2 32L1 32L1 30L0 30L0 32L1 32L1 34L2 34L2 35L0 35L0 36L4 36L4 37L2 37L2 38L1 38L1 37L0 37L0 38L1 38L1 40L0 40L0 41L3 41L3 40L4 40L4 39L2 39L2 38L5 38L5 39L7 39L7 40L6 40L6 41L7 41L7 40L8 40L8 43L9 43L9 44L8 44L8 46L9 46L9 45L10 45L10 47L9 47L9 48L10 48L10 47L11 47L11 48L14 48L14 49L15 49L15 48L14 48L14 47L15 47L15 46L16 46L16 45L17 45L17 44L15 44L15 45L14 45L14 46L13 46L13 47L12 47L12 46L11 46L11 45L10 45L10 43L11 43L11 41L10 41L10 38L9 38L9 37L8 37L8 35L7 35L7 34L6 34L6 33L7 33L7 32L8 32L8 34L9 34L9 33L10 33L10 32L11 32L11 31L12 31L12 30L13 30L13 32L12 32L12 33L11 33L11 35L10 35L10 36L12 36L12 35L13 35L13 38L11 38L11 40L12 40L12 41L13 41L13 40L14 40L14 41L15 41L15 43L16 43L16 42L18 42L18 44L19 44L19 46L18 46L18 48L16 48L16 49L18 49L18 48L21 48L21 49L22 49L22 48L21 48L21 47L19 47L19 46L20 46L20 44L21 44L21 40L22 40L22 45L21 45L21 46L22 46L22 45L25 45L25 46L23 46L23 47L24 47L24 48L26 48L26 49L27 49L27 46L26 46L26 45L28 45L28 47L29 47L29 46L30 46L30 49L39 49L39 48L33 48L33 46L32 46L32 47L31 47L31 46L30 46L30 45L32 45L32 44L31 44L31 43L28 43L28 44L27 44L27 41L28 41L28 42L29 42L29 40L32 40L32 43L33 43L33 40L32 40L32 39L30 39L30 37L33 37L33 39L34 39L34 40L35 40L35 41L34 41L34 43L35 43L35 44L33 44L33 45L34 45L34 47L36 47L36 46L37 46L37 47L38 47L38 46L39 46L39 45L40 45L40 47L41 47L41 48L43 48L43 49L45 49L45 48L43 48L43 46L44 46L44 47L45 47L45 46L44 46L44 45L45 45L45 43L48 43L48 47L46 47L46 48L48 48L48 49L49 49L49 42L47 42L47 41L49 41L49 38L48 38L48 37L49 37L49 34L48 34L48 33L49 33L49 32L47 32L47 33L46 33L46 34L45 34L45 32L44 32L44 34L41 34L41 32L40 32L40 30L41 30L41 31L44 31L44 30L45 30L45 31L49 31L49 30L47 30L47 29L49 29L49 22L48 22L48 21L49 21L49 18L47 18L47 17L48 17L48 16L49 16L49 14L48 14L48 12L49 12L49 10L48 10L48 9L47 9L47 8L45 8L45 9L46 9L46 10L44 10L44 11L42 11L42 12L41 12L41 11L40 11L40 10L41 10L41 9L40 9L40 10L39 10L39 5L38 5L38 4L37 4L37 3L38 3L38 2L39 2L39 4L40 4L40 3L41 3L41 0L40 0L40 1L38 1L38 0L37 0L37 1L36 1L36 0L33 0L33 1L32 1L32 3L31 3L31 1L30 1L30 0L29 0L29 1L28 1L28 3L27 3L27 4L25 4L25 3L23 3L23 4L22 4L22 3L21 3L21 2L23 2L23 0L22 0L22 1L20 1L20 2L19 2L19 3L16 3L16 2L15 2L15 0ZM16 0L16 1L17 1L17 2L18 2L18 1L19 1L19 0ZM25 0L25 1L24 1L24 2L25 2L25 1L26 1L26 2L27 2L27 1L26 1L26 0ZM35 1L35 2L36 2L36 3L35 3L35 4L34 4L34 3L33 3L33 4L30 4L30 2L29 2L29 3L28 3L28 4L27 4L27 5L28 5L28 4L29 4L29 7L28 7L28 6L27 6L27 9L26 9L26 10L25 10L25 9L23 9L23 10L21 10L21 8L22 8L22 6L21 6L21 7L20 7L20 6L19 6L19 8L18 8L18 5L19 5L19 4L20 4L20 5L22 5L22 4L21 4L21 3L19 3L19 4L17 4L17 8L18 8L18 9L17 9L17 10L16 10L16 9L15 9L15 8L16 8L16 6L15 6L15 5L14 5L14 6L13 6L13 7L12 7L12 9L13 9L13 10L14 10L14 9L15 9L15 10L16 10L16 11L17 11L17 12L15 12L15 11L14 11L14 12L12 12L12 13L15 13L15 14L16 14L16 13L17 13L17 12L18 12L18 11L19 11L19 12L20 12L20 13L18 13L18 14L17 14L17 15L14 15L14 14L10 14L10 13L6 13L6 14L9 14L9 18L10 18L10 19L11 19L11 18L10 18L10 16L11 16L11 15L12 15L12 17L13 17L13 18L14 18L14 19L13 19L13 20L14 20L14 21L13 21L13 22L15 22L15 25L16 25L16 26L17 26L17 25L18 25L18 24L19 24L19 25L20 25L20 24L19 24L19 22L18 22L18 23L16 23L16 20L17 20L17 19L18 19L18 20L19 20L19 19L18 19L18 18L19 18L19 17L20 17L20 21L21 21L21 22L24 22L24 21L21 21L21 19L22 19L22 20L23 20L23 18L21 18L21 17L20 17L20 16L22 16L22 17L23 17L23 16L26 16L26 15L28 15L28 17L30 17L30 18L31 18L31 19L33 19L33 17L32 17L32 18L31 18L31 17L30 17L30 15L28 15L28 14L26 14L26 13L27 13L27 12L28 12L28 10L27 10L27 9L28 9L28 8L29 8L29 9L30 9L30 10L29 10L29 13L30 13L30 14L31 14L31 16L32 16L32 12L33 12L33 13L34 13L34 14L33 14L33 15L34 15L34 16L35 16L35 14L36 14L36 16L37 16L37 17L39 17L39 20L38 20L38 21L36 21L36 20L37 20L37 19L36 19L36 20L35 20L35 19L34 19L34 21L33 21L33 20L32 20L32 22L31 22L31 21L30 21L30 20L29 20L29 18L26 18L26 19L25 19L25 21L26 21L26 22L27 22L27 19L28 19L28 21L30 21L30 22L29 22L29 23L30 23L30 24L29 24L29 25L28 25L28 24L27 24L27 25L28 25L28 26L27 26L27 27L26 27L26 28L24 28L24 27L23 27L23 28L22 28L22 26L19 26L19 28L18 28L18 27L16 27L16 28L18 28L18 29L23 29L23 30L22 30L22 31L21 31L21 30L19 30L19 31L18 31L18 33L16 33L16 32L17 32L17 29L16 29L16 31L15 31L15 30L14 30L14 28L15 28L15 26L14 26L14 23L12 23L12 26L9 26L9 28L8 28L8 29L6 29L6 30L7 30L7 31L8 31L8 32L10 32L10 31L11 31L11 29L10 29L10 28L11 28L11 27L12 27L12 26L14 26L14 27L13 27L13 30L14 30L14 32L15 32L15 33L16 33L16 34L14 34L14 33L13 33L13 35L17 35L17 37L18 37L18 35L20 35L20 36L21 36L21 35L24 35L24 34L22 34L22 33L24 33L24 32L25 32L25 30L26 30L26 28L29 28L29 29L31 29L31 30L29 30L29 31L28 31L28 29L27 29L27 32L26 32L26 33L25 33L25 35L26 35L26 38L25 38L25 39L23 39L23 38L24 38L24 36L23 36L23 37L22 37L22 38L21 38L21 39L20 39L20 40L18 40L18 41L20 41L20 40L21 40L21 39L22 39L22 40L26 40L26 39L27 39L27 40L28 40L28 38L29 38L29 37L30 37L30 36L33 36L33 35L34 35L34 32L36 32L36 33L35 33L35 35L36 35L36 36L37 36L37 34L38 34L38 35L39 35L39 34L40 34L40 33L39 33L39 32L38 32L38 33L37 33L37 32L36 32L36 31L35 31L35 30L36 30L36 29L35 29L35 30L34 30L34 29L33 29L33 28L34 28L34 27L36 27L36 28L37 28L37 31L39 31L39 29L38 29L38 26L37 26L37 25L33 25L33 26L32 26L32 25L31 25L31 23L32 23L32 24L34 24L34 21L35 21L35 22L38 22L38 23L35 23L35 24L38 24L38 25L39 25L39 27L40 27L40 24L39 24L39 22L40 22L40 21L41 21L41 22L42 22L42 21L43 21L43 22L45 22L45 21L48 21L48 20L47 20L47 18L46 18L46 17L47 17L47 15L48 15L48 14L46 14L46 17L45 17L45 18L46 18L46 19L44 19L44 16L45 16L45 13L47 13L47 12L46 12L46 11L47 11L47 10L46 10L46 11L45 11L45 13L44 13L44 16L43 16L43 20L42 20L42 18L41 18L41 19L40 19L40 17L42 17L42 15L43 15L43 14L42 14L42 13L41 13L41 12L39 12L39 10L38 10L38 9L37 9L37 10L38 10L38 11L35 11L35 12L34 12L34 6L35 6L35 7L36 7L36 5L37 5L37 4L36 4L36 3L37 3L37 2L36 2L36 1ZM9 2L9 3L10 3L10 2ZM15 3L15 4L16 4L16 3ZM33 4L33 5L32 5L32 7L31 7L31 6L30 6L30 7L29 7L29 8L30 8L30 7L31 7L31 8L33 8L33 6L34 6L34 4ZM35 4L35 5L36 5L36 4ZM23 5L23 8L26 8L26 5ZM14 6L14 7L13 7L13 8L15 8L15 6ZM24 6L24 7L25 7L25 6ZM37 6L37 7L38 7L38 6ZM40 6L40 8L41 8L41 6ZM19 8L19 9L20 9L20 8ZM35 8L35 9L36 9L36 8ZM6 9L6 10L5 10L5 12L3 12L3 13L5 13L5 12L7 12L7 11L6 11L6 10L7 10L7 9ZM32 9L32 11L31 11L31 12L32 12L32 11L33 11L33 9ZM42 9L42 10L43 10L43 9ZM11 10L11 11L10 11L10 12L11 12L11 11L12 11L12 10ZM19 10L19 11L21 11L21 12L22 12L22 13L21 13L21 14L20 14L20 15L19 15L19 16L20 16L20 15L22 15L22 16L23 16L23 15L26 15L26 14L22 14L22 13L25 13L25 12L26 12L26 11L27 11L27 10L26 10L26 11L25 11L25 10L23 10L23 11L21 11L21 10ZM23 11L23 12L25 12L25 11ZM36 12L36 13L37 13L37 16L38 16L38 15L42 15L42 14L39 14L39 12ZM3 14L3 15L4 15L4 16L5 16L5 15L4 15L4 14ZM6 15L6 16L7 16L7 15ZM17 15L17 18L18 18L18 15ZM3 17L3 18L4 18L4 17ZM5 17L5 19L4 19L4 20L5 20L5 21L4 21L4 22L5 22L5 21L6 21L6 22L8 22L8 21L10 21L10 23L9 23L9 24L10 24L10 25L11 25L11 22L12 22L12 20L8 20L8 21L6 21L6 20L7 20L7 19L8 19L8 17ZM24 17L24 18L25 18L25 17ZM34 17L34 18L35 18L35 17ZM6 18L6 19L5 19L5 20L6 20L6 19L7 19L7 18ZM14 19L14 20L16 20L16 19ZM43 20L43 21L44 21L44 20ZM2 21L2 22L3 22L3 21ZM38 21L38 22L39 22L39 21ZM32 22L32 23L33 23L33 22ZM46 22L46 23L45 23L45 26L46 26L46 27L45 27L45 30L46 30L46 27L48 27L48 26L47 26L47 25L48 25L48 24L46 24L46 23L47 23L47 22ZM5 23L5 26L8 26L8 23ZM23 23L23 26L26 26L26 23ZM41 23L41 26L44 26L44 23ZM0 24L0 25L1 25L1 24ZM6 24L6 25L7 25L7 24ZM21 24L21 25L22 25L22 24ZM24 24L24 25L25 25L25 24ZM42 24L42 25L43 25L43 24ZM30 25L30 28L31 28L31 29L32 29L32 30L33 30L33 29L32 29L32 28L33 28L33 27L32 27L32 26L31 26L31 25ZM36 26L36 27L37 27L37 26ZM5 27L5 28L7 28L7 27ZM20 27L20 28L21 28L21 27ZM31 27L31 28L32 28L32 27ZM42 27L42 28L43 28L43 29L44 29L44 27ZM40 28L40 29L41 29L41 28ZM8 29L8 31L9 31L9 30L10 30L10 29ZM24 29L24 30L25 30L25 29ZM19 31L19 32L20 32L20 31ZM22 31L22 32L21 32L21 33L22 33L22 32L24 32L24 31ZM29 31L29 32L28 32L28 33L27 33L27 35L28 35L28 34L29 34L29 36L30 36L30 35L32 35L32 34L31 34L31 32L32 32L32 33L33 33L33 31L31 31L31 32L30 32L30 31ZM29 32L29 34L30 34L30 32ZM42 32L42 33L43 33L43 32ZM18 33L18 34L20 34L20 33ZM38 33L38 34L39 34L39 33ZM3 34L3 35L4 35L4 36L7 36L7 35L6 35L6 34L5 34L5 35L4 35L4 34ZM46 34L46 35L41 35L41 36L43 36L43 37L45 37L45 38L43 38L43 39L42 39L42 37L41 37L41 38L39 38L39 39L42 39L42 40L45 40L45 42L46 42L46 41L47 41L47 40L48 40L48 38L47 38L47 36L46 36L46 35L47 35L47 34ZM14 36L14 38L13 38L13 39L14 39L14 38L16 38L16 39L15 39L15 40L17 40L17 38L16 38L16 36ZM34 36L34 39L35 39L35 38L36 38L36 37L35 37L35 36ZM38 36L38 37L39 37L39 36ZM6 37L6 38L8 38L8 40L9 40L9 38L8 38L8 37ZM27 37L27 38L28 38L28 37ZM18 38L18 39L19 39L19 38ZM37 38L37 39L36 39L36 40L38 40L38 38ZM46 38L46 40L47 40L47 38ZM9 41L9 43L10 43L10 41ZM23 41L23 44L26 44L26 41ZM30 41L30 42L31 42L31 41ZM37 41L37 42L36 42L36 44L35 44L35 45L36 45L36 44L37 44L37 46L38 46L38 45L39 45L39 44L40 44L40 43L38 43L38 42L40 42L40 41ZM41 41L41 44L44 44L44 41ZM19 42L19 44L20 44L20 42ZM24 42L24 43L25 43L25 42ZM42 42L42 43L43 43L43 42ZM13 43L13 44L14 44L14 43ZM37 43L37 44L38 44L38 43ZM29 44L29 45L30 45L30 44ZM41 45L41 47L42 47L42 45ZM46 45L46 46L47 46L47 45ZM25 46L25 47L26 47L26 46ZM0 0L0 7L7 7L7 0ZM1 1L1 6L6 6L6 1ZM2 2L2 5L5 5L5 2ZM42 0L42 7L49 7L49 0ZM43 1L43 6L48 6L48 1ZM44 2L44 5L47 5L47 2ZM0 42L0 49L7 49L7 42ZM1 43L1 48L6 48L6 43ZM2 44L2 47L5 47L5 44Z" fill="#000000"/></g></g></svg>
