<?xml version="1.0" encoding="UTF-8"?>
<svg xmlns="http://www.w3.org/2000/svg" version="1.1" width="200" height="200" viewBox="0 0 200 200"><rect x="0" y="0" width="200" height="200" fill="#ffffff"/><g transform="scale(3.774)"><g transform="translate(2,2)"><path fill-rule="evenodd" d="M8 0L8 2L9 2L9 3L8 3L8 7L9 7L9 8L11 8L11 6L12 6L12 9L13 9L13 10L15 10L15 11L14 11L14 12L12 12L12 11L11 11L11 9L9 9L9 10L8 10L8 11L7 11L7 10L6 10L6 9L7 9L7 8L6 8L6 9L5 9L5 10L6 10L6 11L4 11L4 12L3 12L3 14L2 14L2 15L1 15L1 14L0 14L0 16L1 16L1 17L0 17L0 19L2 19L2 18L4 18L4 19L3 19L3 20L2 20L2 22L1 22L1 21L0 21L0 25L1 25L1 26L0 26L0 29L1 29L1 31L0 31L0 32L1 32L1 33L0 33L0 34L2 34L2 37L1 37L1 40L0 40L0 41L3 41L3 40L4 40L4 39L2 39L2 37L3 37L3 36L5 36L5 39L7 39L7 38L6 38L6 37L7 37L7 36L5 36L5 35L8 35L8 34L4 34L4 33L5 33L5 31L7 31L7 32L6 32L6 33L7 33L7 32L8 32L8 33L11 33L11 35L10 35L10 34L9 34L9 35L10 35L10 36L11 36L11 37L10 37L10 38L9 38L9 39L11 39L11 40L6 40L6 41L8 41L8 42L9 42L9 41L11 41L11 42L10 42L10 43L11 43L11 44L9 44L9 45L8 45L8 46L9 46L9 45L11 45L11 46L10 46L10 49L11 49L11 47L12 47L12 45L13 45L13 44L14 44L14 46L13 46L13 47L15 47L15 48L16 48L16 49L19 49L19 47L21 47L21 46L22 46L22 48L21 48L21 49L24 49L24 46L23 46L23 45L26 45L26 47L25 47L25 49L26 49L26 48L27 48L27 47L29 47L29 46L28 46L28 45L27 45L27 44L28 44L28 43L30 43L30 42L29 42L29 41L31 41L31 42L32 42L32 43L31 43L31 44L34 44L34 45L30 45L30 44L29 44L29 45L30 45L30 46L31 46L31 47L30 47L30 49L31 49L31 47L33 47L33 48L32 48L32 49L33 49L33 48L34 48L34 47L35 47L35 48L36 48L36 49L37 49L37 48L38 48L38 49L40 49L40 48L41 48L41 49L42 49L42 48L41 48L41 46L42 46L42 47L43 47L43 48L44 48L44 49L46 49L46 47L45 47L45 46L46 46L46 44L47 44L47 47L49 47L49 46L48 46L48 45L49 45L49 44L48 44L48 43L49 43L49 36L48 36L48 38L47 38L47 37L46 37L46 35L47 35L47 34L46 34L46 35L44 35L44 33L46 33L46 32L47 32L47 33L48 33L48 35L49 35L49 33L48 33L48 32L47 32L47 31L45 31L45 32L44 32L44 31L43 31L43 30L42 30L42 31L40 31L40 29L41 29L41 28L40 28L40 29L38 29L38 27L42 27L42 29L44 29L44 30L46 30L46 29L47 29L47 30L48 30L48 31L49 31L49 29L47 29L47 28L46 28L46 27L49 27L49 25L47 25L47 26L46 26L46 23L45 23L45 21L46 21L46 20L47 20L47 21L48 21L48 24L49 24L49 20L47 20L47 19L45 19L45 18L46 18L46 17L47 17L47 18L48 18L48 19L49 19L49 16L48 16L48 15L49 15L49 8L47 8L47 9L48 9L48 14L47 14L47 16L45 16L45 14L44 14L44 13L46 13L46 8L43 8L43 11L44 11L44 9L45 9L45 12L44 12L44 13L43 13L43 12L42 12L42 13L40 13L40 11L42 11L42 9L41 9L41 10L40 10L40 8L41 8L41 6L40 6L40 7L39 7L39 5L38 5L38 7L39 7L39 8L38 8L38 9L37 9L37 8L35 8L35 6L36 6L36 7L37 7L37 6L36 6L36 5L34 5L34 7L33 7L33 6L32 6L32 5L31 5L31 4L32 4L32 2L33 2L33 1L32 1L32 2L31 2L31 3L30 3L30 1L31 1L31 0L28 0L28 1L29 1L29 3L24 3L24 2L27 2L27 0L24 0L24 1L23 1L23 0L22 0L22 1L23 1L23 3L22 3L22 4L21 4L21 3L20 3L20 0L19 0L19 2L18 2L18 1L17 1L17 2L18 2L18 4L16 4L16 5L15 5L15 6L14 6L14 7L13 7L13 5L14 5L14 3L16 3L16 2L13 2L13 0ZM14 0L14 1L15 1L15 0ZM34 0L34 1L35 1L35 2L34 2L34 3L33 3L33 4L34 4L34 3L35 3L35 4L36 4L36 3L35 3L35 2L36 2L36 1L35 1L35 0ZM37 0L37 1L38 1L38 2L39 2L39 4L40 4L40 3L41 3L41 0L40 0L40 1L38 1L38 0ZM10 1L10 3L9 3L9 5L13 5L13 4L12 4L12 3L13 3L13 2L11 2L11 1ZM37 3L37 4L38 4L38 3ZM18 4L18 5L16 5L16 6L15 6L15 8L13 8L13 9L17 9L17 10L16 10L16 12L15 12L15 13L16 13L16 12L17 12L17 14L16 14L16 15L15 15L15 14L14 14L14 13L13 13L13 14L14 14L14 16L17 16L17 18L15 18L15 17L13 17L13 18L12 18L12 16L13 16L13 15L12 15L12 16L11 16L11 15L10 15L10 14L11 14L11 13L12 13L12 12L10 12L10 10L9 10L9 11L8 11L8 12L7 12L7 11L6 11L6 12L7 12L7 13L5 13L5 12L4 12L4 14L5 14L5 15L6 15L6 16L9 16L9 15L10 15L10 16L11 16L11 17L9 17L9 18L7 18L7 17L6 17L6 18L5 18L5 17L4 17L4 18L5 18L5 19L6 19L6 20L5 20L5 21L4 21L4 20L3 20L3 21L4 21L4 22L3 22L3 29L4 29L4 31L3 31L3 30L2 30L2 31L1 31L1 32L2 32L2 31L3 31L3 32L4 32L4 31L5 31L5 29L6 29L6 30L7 30L7 31L9 31L9 32L10 32L10 31L9 31L9 30L10 30L10 28L11 28L11 29L12 29L12 30L13 30L13 31L11 31L11 32L13 32L13 31L16 31L16 32L15 32L15 33L16 33L16 37L15 37L15 40L14 40L14 38L11 38L11 39L12 39L12 40L11 40L11 41L12 41L12 40L14 40L14 41L15 41L15 42L12 42L12 44L13 44L13 43L14 43L14 44L15 44L15 47L16 47L16 44L15 44L15 43L16 43L16 42L17 42L17 45L19 45L19 44L20 44L20 43L22 43L22 41L21 41L21 42L20 42L20 40L17 40L17 39L19 39L19 38L17 38L17 39L16 39L16 37L18 37L18 36L19 36L19 37L20 37L20 38L21 38L21 40L24 40L24 39L25 39L25 40L27 40L27 43L28 43L28 41L29 41L29 38L24 38L24 37L23 37L23 38L24 38L24 39L22 39L22 37L21 37L21 36L23 36L23 34L24 34L24 36L25 36L25 37L26 37L26 36L25 36L25 35L27 35L27 34L28 34L28 36L29 36L29 37L30 37L30 38L31 38L31 37L32 37L32 36L33 36L33 37L35 37L35 38L34 38L34 42L35 42L35 44L36 44L36 36L35 36L35 35L34 35L34 36L33 36L33 34L31 34L31 33L29 33L29 30L31 30L31 31L30 31L30 32L33 32L33 33L34 33L34 34L35 34L35 33L38 33L38 34L36 34L36 35L39 35L39 37L38 37L38 36L37 36L37 38L40 38L40 39L38 39L38 40L37 40L37 41L38 41L38 40L39 40L39 41L40 41L40 40L42 40L42 39L41 39L41 37L42 37L42 38L43 38L43 39L44 39L44 40L47 40L47 41L46 41L46 42L45 42L45 43L46 43L46 42L47 42L47 43L48 43L48 42L47 42L47 41L48 41L48 40L47 40L47 38L46 38L46 39L45 39L45 36L44 36L44 35L43 35L43 36L44 36L44 37L42 37L42 36L41 36L41 35L42 35L42 34L41 34L41 33L40 33L40 31L39 31L39 30L38 30L38 31L36 31L36 30L37 30L37 29L36 29L36 27L37 27L37 26L39 26L39 25L40 25L40 24L38 24L38 23L39 23L39 19L38 19L38 18L39 18L39 16L38 16L38 15L37 15L37 16L38 16L38 17L37 17L37 21L36 21L36 22L35 22L35 20L36 20L36 15L35 15L35 14L34 14L34 15L32 15L32 16L33 16L33 19L32 19L32 17L31 17L31 18L30 18L30 17L29 17L29 18L28 18L28 19L27 19L27 17L25 17L25 16L26 16L26 15L24 15L24 14L26 14L26 13L25 13L25 12L24 12L24 14L23 14L23 12L20 12L20 11L24 11L24 10L25 10L25 11L26 11L26 12L27 12L27 11L28 11L28 13L29 13L29 14L32 14L32 13L31 13L31 12L33 12L33 13L36 13L36 14L39 14L39 15L40 15L40 14L39 14L39 13L38 13L38 11L40 11L40 10L39 10L39 9L38 9L38 10L37 10L37 9L34 9L34 8L33 8L33 7L32 7L32 6L31 6L31 7L32 7L32 8L31 8L31 9L32 9L32 10L30 10L30 9L28 9L28 8L29 8L29 7L30 7L30 4L28 4L28 6L27 6L27 9L24 9L24 10L22 10L22 9L21 9L21 8L22 8L22 6L21 6L21 7L20 7L20 6L19 6L19 7L18 7L18 5L19 5L19 4ZM23 5L23 8L26 8L26 5ZM9 6L9 7L10 7L10 6ZM16 6L16 8L17 8L17 6ZM24 6L24 7L25 7L25 6ZM28 6L28 7L29 7L29 6ZM19 7L19 8L18 8L18 10L19 10L19 11L18 11L18 12L19 12L19 11L20 11L20 10L21 10L21 9L19 9L19 8L20 8L20 7ZM3 8L3 9L0 9L0 10L4 10L4 8ZM32 8L32 9L33 9L33 10L32 10L32 11L34 11L34 12L35 12L35 10L34 10L34 9L33 9L33 8ZM28 10L28 11L29 11L29 10ZM36 10L36 13L37 13L37 10ZM30 11L30 12L29 12L29 13L30 13L30 12L31 12L31 11ZM8 12L8 14L6 14L6 15L9 15L9 13L10 13L10 12ZM20 13L20 16L21 16L21 15L23 15L23 14L22 14L22 13ZM42 13L42 14L41 14L41 16L40 16L40 18L41 18L41 19L42 19L42 22L43 22L43 21L45 21L45 20L43 20L43 19L42 19L42 18L45 18L45 17L43 17L43 16L44 16L44 14L43 14L43 13ZM2 15L2 17L3 17L3 15ZM17 15L17 16L19 16L19 15ZM27 15L27 16L28 16L28 15ZM30 15L30 16L31 16L31 15ZM34 15L34 20L35 20L35 15ZM23 16L23 19L21 19L21 18L20 18L20 17L18 17L18 18L17 18L17 19L15 19L15 18L14 18L14 19L12 19L12 18L10 18L10 20L9 20L9 22L6 22L6 21L7 21L7 20L6 20L6 21L5 21L5 22L4 22L4 27L5 27L5 28L4 28L4 29L5 29L5 28L6 28L6 29L7 29L7 30L9 30L9 29L8 29L8 28L10 28L10 27L9 27L9 24L10 24L10 26L11 26L11 25L12 25L12 26L13 26L13 27L14 27L14 28L12 28L12 29L14 29L14 30L15 30L15 29L16 29L16 31L17 31L17 32L18 32L18 31L21 31L21 28L22 28L22 27L26 27L26 29L24 29L24 28L23 28L23 29L24 29L24 30L23 30L23 31L22 31L22 32L23 32L23 33L24 33L24 34L26 34L26 33L24 33L24 30L25 30L25 31L26 31L26 32L28 32L28 30L27 30L27 31L26 31L26 29L28 29L28 28L29 28L29 29L30 29L30 28L29 28L29 27L28 27L28 26L29 26L29 25L28 25L28 26L27 26L27 24L28 24L28 23L30 23L30 25L31 25L31 26L30 26L30 27L31 27L31 26L32 26L32 25L33 25L33 27L32 27L32 28L31 28L31 30L32 30L32 31L33 31L33 32L34 32L34 33L35 33L35 32L36 32L36 31L35 31L35 32L34 32L34 28L35 28L35 27L36 27L36 26L35 26L35 24L36 24L36 25L38 25L38 24L37 24L37 23L35 23L35 22L34 22L34 21L33 21L33 20L32 20L32 19L31 19L31 21L32 21L32 25L31 25L31 22L28 22L28 20L24 20L24 19L26 19L26 18L25 18L25 17L24 17L24 16ZM41 16L41 17L42 17L42 16ZM47 16L47 17L48 17L48 16ZM6 18L6 19L7 19L7 18ZM18 18L18 21L17 21L17 20L16 20L16 21L17 21L17 22L16 22L16 23L17 23L17 24L16 24L16 25L17 25L17 26L16 26L16 27L15 27L15 26L14 26L14 27L15 27L15 28L14 28L14 29L15 29L15 28L16 28L16 29L18 29L18 30L17 30L17 31L18 31L18 30L20 30L20 29L18 29L18 28L21 28L21 27L20 27L20 26L21 26L21 25L22 25L22 23L21 23L21 22L23 22L23 20L19 20L19 19L20 19L20 18ZM11 19L11 20L12 20L12 22L11 22L11 21L10 21L10 22L11 22L11 24L12 24L12 25L13 25L13 24L15 24L15 23L14 23L14 22L13 22L13 21L14 21L14 20L15 20L15 19L14 19L14 20L12 20L12 19ZM29 19L29 20L30 20L30 19ZM40 20L40 22L41 22L41 20ZM19 21L19 24L20 24L20 25L21 25L21 23L20 23L20 22L21 22L21 21ZM24 21L24 22L25 22L25 21ZM37 21L37 22L38 22L38 21ZM12 22L12 24L13 24L13 22ZM17 22L17 23L18 23L18 22ZM5 23L5 26L8 26L8 23ZM23 23L23 26L26 26L26 23ZM34 23L34 24L33 24L33 25L34 25L34 24L35 24L35 23ZM41 23L41 26L44 26L44 23ZM1 24L1 25L2 25L2 24ZM6 24L6 25L7 25L7 24ZM17 24L17 25L18 25L18 26L19 26L19 25L18 25L18 24ZM24 24L24 25L25 25L25 24ZM42 24L42 25L43 25L43 24ZM34 26L34 27L35 27L35 26ZM45 26L45 27L44 27L44 29L45 29L45 27L46 27L46 26ZM1 27L1 29L2 29L2 27ZM6 27L6 28L7 28L7 27ZM16 27L16 28L17 28L17 27ZM35 29L35 30L36 30L36 29ZM20 32L20 34L21 34L21 35L19 35L19 33L18 33L18 35L19 35L19 36L21 36L21 35L22 35L22 34L21 34L21 32ZM12 33L12 35L11 35L11 36L12 36L12 37L14 37L14 36L12 36L12 35L15 35L15 34L13 34L13 33ZM39 33L39 34L40 34L40 35L41 35L41 34L40 34L40 33ZM30 34L30 35L29 35L29 36L30 36L30 35L31 35L31 34ZM0 35L0 36L1 36L1 35ZM8 36L8 37L9 37L9 36ZM40 36L40 37L41 37L41 36ZM32 38L32 39L30 39L30 40L32 40L32 39L33 39L33 38ZM27 39L27 40L28 40L28 39ZM16 40L16 41L17 41L17 42L19 42L19 43L18 43L18 44L19 44L19 43L20 43L20 42L19 42L19 41L17 41L17 40ZM23 41L23 44L26 44L26 41ZM41 41L41 44L44 44L44 41ZM24 42L24 43L25 43L25 42ZM39 42L39 43L40 43L40 42ZM42 42L42 43L43 43L43 42ZM37 43L37 44L38 44L38 46L37 46L37 45L36 45L36 46L35 46L35 45L34 45L34 46L35 46L35 47L36 47L36 46L37 46L37 47L39 47L39 45L40 45L40 46L41 46L41 45L40 45L40 44L38 44L38 43ZM21 44L21 45L20 45L20 46L21 46L21 45L22 45L22 44ZM42 45L42 46L44 46L44 45ZM17 47L17 48L18 48L18 47ZM13 48L13 49L14 49L14 48ZM47 48L47 49L49 49L49 48ZM0 0L0 7L7 7L7 0ZM1 1L1 6L6 6L6 1ZM2 2L2 5L5 5L5 2ZM42 0L42 7L49 7L49 0ZM43 1L43 6L48 6L48 1ZM44 2L44 5L47 5L47 2ZM0 42L0 49L7 49L7 42ZM1 43L1 48L6 48L6 43ZM2 44L2 47L5 47L5 44Z" fill="#000000"/></g></g></svg>
