<?xml version="1.0" encoding="UTF-8"?>
<svg xmlns="http://www.w3.org/2000/svg" version="1.1" width="200" height="200" viewBox="0 0 200 200"><rect x="0" y="0" width="200" height="200" fill="#ffffff"/><g transform="scale(3.774)"><g transform="translate(2,2)"><path fill-rule="evenodd" d="M8 0L8 3L10 3L10 1L9 1L9 0ZM11 0L11 4L10 4L10 5L11 5L11 6L10 6L10 7L9 7L9 5L8 5L8 11L7 11L7 10L4 10L4 11L5 11L5 12L4 12L4 13L7 13L7 14L5 14L5 15L7 15L7 14L8 14L8 15L11 15L11 12L9 12L9 10L10 10L10 11L12 11L12 15L13 15L13 14L14 14L14 17L15 17L15 18L17 18L17 21L18 21L18 20L19 20L19 21L20 21L20 23L22 23L22 27L25 27L25 28L24 28L24 29L25 29L25 30L26 30L26 31L25 31L25 32L24 32L24 31L23 31L23 32L22 32L22 31L20 31L20 29L19 29L19 27L20 27L20 26L18 26L18 27L17 27L17 26L15 26L15 25L14 25L14 24L15 24L15 22L16 22L16 20L15 20L15 19L13 19L13 16L12 16L12 17L10 17L10 18L9 18L9 16L6 16L6 17L3 17L3 18L0 18L0 19L1 19L1 21L0 21L0 28L1 28L1 29L0 29L0 33L2 33L2 35L3 35L3 36L1 36L1 35L0 35L0 38L1 38L1 40L0 40L0 41L3 41L3 40L4 40L4 39L2 39L2 38L1 38L1 37L3 37L3 36L4 36L4 35L7 35L7 36L6 36L6 37L7 37L7 38L5 38L5 37L4 37L4 38L5 38L5 39L7 39L7 40L6 40L6 41L8 41L8 42L10 42L10 43L9 43L9 44L8 44L8 47L9 47L9 46L13 46L13 45L14 45L14 46L15 46L15 47L16 47L16 48L15 48L15 49L16 49L16 48L17 48L17 47L16 47L16 46L18 46L18 45L19 45L19 46L20 46L20 47L21 47L21 48L19 48L19 47L18 47L18 48L19 48L19 49L21 49L21 48L22 48L22 49L24 49L24 48L22 48L22 47L23 47L23 46L22 46L22 47L21 47L21 46L20 46L20 45L28 45L28 46L29 46L29 47L27 47L27 48L30 48L30 46L31 46L31 45L28 45L28 44L33 44L33 46L34 46L34 47L31 47L31 48L33 48L33 49L35 49L35 48L36 48L36 49L38 49L38 48L36 48L36 47L35 47L35 46L34 46L34 43L33 43L33 42L34 42L34 41L33 41L33 42L32 42L32 41L31 41L31 40L34 40L34 39L35 39L35 40L36 40L36 41L38 41L38 40L36 40L36 39L39 39L39 38L36 38L36 37L37 37L37 36L38 36L38 37L40 37L40 39L41 39L41 40L39 40L39 43L38 43L38 42L36 42L36 43L35 43L35 44L36 44L36 46L37 46L37 47L39 47L39 48L40 48L40 49L42 49L42 48L44 48L44 49L45 49L45 48L46 48L46 49L49 49L49 42L48 42L48 41L49 41L49 38L48 38L48 37L49 37L49 36L48 36L48 37L47 37L47 36L46 36L46 35L47 35L47 34L48 34L48 35L49 35L49 34L48 34L48 33L49 33L49 30L48 30L48 29L49 29L49 28L48 28L48 27L49 27L49 26L48 26L48 25L47 25L47 24L46 24L46 22L45 22L45 21L44 21L44 22L43 22L43 21L42 21L42 22L40 22L40 21L41 21L41 20L40 20L40 19L39 19L39 20L40 20L40 21L39 21L39 22L37 22L37 20L36 20L36 19L37 19L37 18L40 18L40 17L39 17L39 16L41 16L41 17L42 17L42 18L41 18L41 19L42 19L42 20L46 20L46 21L47 21L47 22L48 22L48 24L49 24L49 22L48 22L48 21L49 21L49 18L48 18L48 17L47 17L47 16L45 16L45 15L47 15L47 14L48 14L48 16L49 16L49 14L48 14L48 13L49 13L49 12L48 12L48 13L47 13L47 12L46 12L46 11L47 11L47 10L48 10L48 11L49 11L49 10L48 10L48 9L49 9L49 8L46 8L46 9L47 9L47 10L45 10L45 11L42 11L42 10L43 10L43 9L44 9L44 8L40 8L40 7L41 7L41 6L40 6L40 7L39 7L39 5L38 5L38 4L37 4L37 3L36 3L36 2L37 2L37 1L38 1L38 2L39 2L39 4L40 4L40 3L41 3L41 0L40 0L40 1L38 1L38 0L36 0L36 2L35 2L35 1L34 1L34 0L28 0L28 1L26 1L26 0L25 0L25 2L24 2L24 0L23 0L23 2L21 2L21 4L20 4L20 2L19 2L19 0L18 0L18 2L17 2L17 0L16 0L16 1L14 1L14 0L13 0L13 1L12 1L12 0ZM20 0L20 1L22 1L22 0ZM29 1L29 2L27 2L27 3L28 3L28 4L29 4L29 5L28 5L28 6L27 6L27 7L28 7L28 6L29 6L29 8L28 8L28 9L27 9L27 10L25 10L25 11L23 11L23 10L24 10L24 9L22 9L22 6L21 6L21 7L20 7L20 5L19 5L19 3L18 3L18 4L17 4L17 5L16 5L16 6L15 6L15 4L16 4L16 3L17 3L17 2L16 2L16 3L15 3L15 2L14 2L14 4L12 4L12 5L13 5L13 7L12 7L12 6L11 6L11 7L10 7L10 8L11 8L11 9L12 9L12 10L13 10L13 12L14 12L14 14L15 14L15 16L16 16L16 17L17 17L17 18L18 18L18 17L17 17L17 16L19 16L19 20L20 20L20 21L21 21L21 20L22 20L22 19L23 19L23 18L24 18L24 19L29 19L29 18L26 18L26 17L27 17L27 16L26 16L26 15L27 15L27 14L26 14L26 13L24 13L24 12L25 12L25 11L26 11L26 12L27 12L27 13L28 13L28 16L30 16L30 17L33 17L33 18L32 18L32 20L35 20L35 21L34 21L34 22L33 22L33 21L31 21L31 20L29 20L29 21L31 21L31 22L29 22L29 23L28 23L28 24L29 24L29 26L28 26L28 25L27 25L27 26L28 26L28 27L29 27L29 28L27 28L27 29L29 29L29 30L27 30L27 31L26 31L26 32L25 32L25 35L24 35L24 36L23 36L23 35L22 35L22 36L21 36L21 35L20 35L20 34L23 34L23 33L19 33L19 36L18 36L18 32L17 32L17 34L16 34L16 36L17 36L17 37L16 37L16 38L17 38L17 39L15 39L15 38L14 38L14 35L15 35L15 34L13 34L13 35L12 35L12 37L10 37L10 36L11 36L11 35L8 35L8 36L7 36L7 37L8 37L8 38L9 38L9 37L10 37L10 38L11 38L11 40L12 40L12 39L13 39L13 38L14 38L14 39L15 39L15 40L16 40L16 42L15 42L15 44L14 44L14 43L13 43L13 42L14 42L14 41L13 41L13 42L12 42L12 41L10 41L10 40L8 40L8 41L10 41L10 42L12 42L12 43L10 43L10 45L12 45L12 44L14 44L14 45L15 45L15 46L16 46L16 45L15 45L15 44L16 44L16 42L17 42L17 41L19 41L19 42L18 42L18 43L21 43L21 44L22 44L22 43L21 43L21 42L22 42L22 40L18 40L18 39L20 39L20 37L22 37L22 36L23 36L23 37L24 37L24 40L25 40L25 39L26 39L26 40L28 40L28 38L27 38L27 39L26 39L26 37L28 37L28 36L29 36L29 39L30 39L30 38L31 38L31 39L34 39L34 38L35 38L35 39L36 39L36 38L35 38L35 37L36 37L36 36L37 36L37 34L41 34L41 35L38 35L38 36L40 36L40 37L43 37L43 39L42 39L42 38L41 38L41 39L42 39L42 40L44 40L44 39L46 39L46 44L45 44L45 45L46 45L46 46L43 46L43 47L44 47L44 48L45 48L45 47L46 47L46 48L48 48L48 47L47 47L47 46L48 46L48 42L47 42L47 41L48 41L48 38L47 38L47 37L46 37L46 36L45 36L45 34L47 34L47 33L48 33L48 32L47 32L47 31L48 31L48 30L47 30L47 29L48 29L48 28L47 28L47 25L46 25L46 24L45 24L45 25L46 25L46 28L45 28L45 27L42 27L42 28L41 28L41 27L40 27L40 26L39 26L39 25L40 25L40 24L39 24L39 23L38 23L38 25L36 25L36 24L37 24L37 23L36 23L36 20L35 20L35 19L36 19L36 16L37 16L37 17L38 17L38 16L37 16L37 14L39 14L39 13L40 13L40 15L41 15L41 16L42 16L42 15L45 15L45 14L47 14L47 13L46 13L46 12L43 12L43 14L42 14L42 11L40 11L40 12L39 12L39 11L36 11L36 10L35 10L35 9L36 9L36 8L34 8L34 10L32 10L32 11L30 11L30 9L31 9L31 8L33 8L33 7L34 7L34 5L37 5L37 4L36 4L36 3L33 3L33 2L34 2L34 1L33 1L33 2L32 2L32 1ZM23 2L23 3L22 3L22 4L26 4L26 3L24 3L24 2ZM29 2L29 4L30 4L30 5L32 5L32 2L31 2L31 4L30 4L30 2ZM33 4L33 5L34 5L34 4ZM17 5L17 6L16 6L16 7L15 7L15 6L14 6L14 8L12 8L12 9L13 9L13 10L14 10L14 11L15 11L15 13L16 13L16 10L15 10L15 9L16 9L16 7L17 7L17 10L19 10L19 12L17 12L17 14L18 14L18 15L19 15L19 16L20 16L20 17L22 17L22 18L21 18L21 19L20 19L20 20L21 20L21 19L22 19L22 18L23 18L23 17L24 17L24 18L25 18L25 17L26 17L26 16L25 16L25 15L23 15L23 16L21 16L21 15L22 15L22 14L21 14L21 13L23 13L23 12L22 12L22 10L21 10L21 9L20 9L20 10L19 10L19 8L18 8L18 7L19 7L19 5ZM23 5L23 8L26 8L26 5ZM17 6L17 7L18 7L18 6ZM24 6L24 7L25 7L25 6ZM30 6L30 8L31 8L31 6ZM32 6L32 7L33 7L33 6ZM35 6L35 7L36 7L36 6ZM37 6L37 10L39 10L39 9L40 9L40 10L42 10L42 9L40 9L40 8L39 8L39 7L38 7L38 6ZM2 8L2 9L1 9L1 12L0 12L0 14L1 14L1 15L0 15L0 17L2 17L2 16L1 16L1 15L4 15L4 14L3 14L3 12L2 12L2 11L3 11L3 10L2 10L2 9L5 9L5 8ZM6 8L6 9L7 9L7 8ZM14 8L14 9L15 9L15 8ZM28 9L28 11L27 11L27 12L28 12L28 13L30 13L30 14L29 14L29 15L30 15L30 14L31 14L31 16L33 16L33 17L34 17L34 18L33 18L33 19L34 19L34 18L35 18L35 16L36 16L36 14L34 14L34 13L35 13L35 12L36 12L36 13L38 13L38 12L36 12L36 11L35 11L35 10L34 10L34 11L32 11L32 12L30 12L30 11L29 11L29 9ZM6 11L6 12L7 12L7 11ZM20 11L20 13L21 13L21 11ZM34 11L34 12L35 12L35 11ZM1 12L1 14L2 14L2 12ZM32 12L32 13L31 13L31 14L32 14L32 13L33 13L33 12ZM40 12L40 13L41 13L41 12ZM8 13L8 14L9 14L9 13ZM18 13L18 14L19 14L19 13ZM44 13L44 14L45 14L45 13ZM20 14L20 15L21 15L21 14ZM33 14L33 16L34 16L34 14ZM41 14L41 15L42 15L42 14ZM16 15L16 16L17 16L17 15ZM43 16L43 18L44 18L44 19L45 19L45 18L44 18L44 17L45 17L45 16ZM6 17L6 18L8 18L8 20L7 20L7 19L6 19L6 20L4 20L4 18L3 18L3 19L2 19L2 21L1 21L1 22L2 22L2 23L1 23L1 27L2 27L2 28L5 28L5 30L3 30L3 29L1 29L1 30L2 30L2 33L3 33L3 34L4 34L4 33L5 33L5 34L8 34L8 32L10 32L10 31L8 31L8 29L10 29L10 28L9 28L9 27L12 27L12 26L11 26L11 25L12 25L12 24L11 24L11 25L9 25L9 27L6 27L6 28L5 28L5 27L3 27L3 26L4 26L4 25L3 25L3 24L2 24L2 23L4 23L4 22L5 22L5 21L6 21L6 22L9 22L9 24L10 24L10 22L11 22L11 23L13 23L13 24L14 24L14 21L15 21L15 20L13 20L13 22L12 22L12 19L11 19L11 20L10 20L10 19L9 19L9 18L8 18L8 17ZM46 17L46 18L47 18L47 19L46 19L46 20L47 20L47 21L48 21L48 20L47 20L47 19L48 19L48 18L47 18L47 17ZM30 18L30 19L31 19L31 18ZM6 20L6 21L7 21L7 20ZM23 20L23 22L24 22L24 21L25 21L25 22L28 22L28 21L26 21L26 20ZM3 21L3 22L4 22L4 21ZM17 22L17 25L18 25L18 23L19 23L19 22ZM34 22L34 23L33 23L33 26L34 26L34 27L31 27L31 26L32 26L32 25L31 25L31 24L32 24L32 23L29 23L29 24L30 24L30 26L29 26L29 27L31 27L31 29L32 29L32 30L29 30L29 31L30 31L30 33L28 33L28 34L27 34L27 35L26 35L26 36L25 36L25 37L26 37L26 36L28 36L28 35L29 35L29 34L30 34L30 37L31 37L31 38L32 38L32 37L31 37L31 35L32 35L32 36L33 36L33 34L34 34L34 35L36 35L36 34L34 34L34 31L35 31L35 30L36 30L36 32L35 32L35 33L36 33L36 32L37 32L37 31L41 31L41 30L42 30L42 31L43 31L43 32L42 32L42 35L41 35L41 36L42 36L42 35L43 35L43 33L45 33L45 32L46 32L46 33L47 33L47 32L46 32L46 29L47 29L47 28L46 28L46 29L43 29L43 28L42 28L42 29L41 29L41 30L37 30L37 28L36 28L36 27L39 27L39 26L36 26L36 27L35 27L35 26L34 26L34 25L35 25L35 24L36 24L36 23L35 23L35 22ZM5 23L5 26L8 26L8 23ZM23 23L23 26L26 26L26 23ZM34 23L34 24L35 24L35 23ZM41 23L41 26L44 26L44 23ZM6 24L6 25L7 25L7 24ZM20 24L20 25L21 25L21 24ZM24 24L24 25L25 25L25 24ZM42 24L42 25L43 25L43 24ZM13 26L13 28L14 28L14 26ZM16 27L16 29L15 29L15 30L16 30L16 31L14 31L14 32L13 32L13 31L12 31L12 29L11 29L11 32L12 32L12 33L11 33L11 34L12 34L12 33L16 33L16 31L17 31L17 27ZM34 27L34 28L35 28L35 29L34 29L34 30L33 30L33 31L31 31L31 32L33 32L33 31L34 31L34 30L35 30L35 29L36 29L36 28L35 28L35 27ZM6 28L6 29L7 29L7 28ZM21 28L21 30L22 30L22 29L23 29L23 28ZM29 28L29 29L30 29L30 28ZM32 28L32 29L33 29L33 28ZM39 28L39 29L40 29L40 28ZM18 29L18 31L19 31L19 29ZM42 29L42 30L43 30L43 31L44 31L44 30L43 30L43 29ZM5 30L5 31L7 31L7 32L6 32L6 33L7 33L7 32L8 32L8 31L7 31L7 30ZM27 31L27 32L26 32L26 33L27 33L27 32L28 32L28 31ZM38 32L38 33L40 33L40 32ZM9 33L9 34L10 34L10 33ZM30 33L30 34L32 34L32 33ZM19 36L19 37L20 37L20 36ZM43 36L43 37L45 37L45 36ZM12 37L12 38L13 38L13 37ZM17 37L17 38L18 38L18 37ZM33 37L33 38L34 38L34 37ZM21 38L21 39L22 39L22 38ZM46 38L46 39L47 39L47 38ZM23 41L23 44L26 44L26 41ZM27 41L27 44L28 44L28 41ZM41 41L41 44L44 44L44 41ZM24 42L24 43L25 43L25 42ZM29 42L29 43L32 43L32 42ZM42 42L42 43L43 43L43 42ZM36 43L36 44L38 44L38 45L37 45L37 46L39 46L39 47L40 47L40 46L42 46L42 45L40 45L40 46L39 46L39 44L38 44L38 43ZM46 44L46 45L47 45L47 44ZM24 46L24 47L25 47L25 49L26 49L26 47L25 47L25 46ZM12 47L12 48L11 48L11 49L14 49L14 48L13 48L13 47ZM34 47L34 48L35 48L35 47ZM41 47L41 48L42 48L42 47ZM9 48L9 49L10 49L10 48ZM0 0L0 7L7 7L7 0ZM1 1L1 6L6 6L6 1ZM2 2L2 5L5 5L5 2ZM42 0L42 7L49 7L49 0ZM43 1L43 6L48 6L48 1ZM44 2L44 5L47 5L47 2ZM0 42L0 49L7 49L7 42ZM1 43L1 48L6 48L6 43ZM2 44L2 47L5 47L5 44Z" fill="#000000"/></g></g></svg>
