<?xml version="1.0" encoding="UTF-8"?>
<svg xmlns="http://www.w3.org/2000/svg" version="1.1" width="200" height="200" viewBox="0 0 200 200"><rect x="0" y="0" width="200" height="200" fill="#ffffff"/><g transform="scale(3.774)"><g transform="translate(2,2)"><path fill-rule="evenodd" d="M8 0L8 2L9 2L9 3L8 3L8 7L9 7L9 8L10 8L10 9L11 9L11 6L10 6L10 5L9 5L9 3L10 3L10 1L11 1L11 2L13 2L13 3L12 3L12 5L14 5L14 3L15 3L15 4L16 4L16 5L18 5L18 8L17 8L17 6L16 6L16 8L17 8L17 9L15 9L15 8L14 8L14 9L15 9L15 10L13 10L13 12L14 12L14 13L15 13L15 14L16 14L16 16L14 16L14 14L13 14L13 13L12 13L12 11L11 11L11 13L9 13L9 12L8 12L8 11L10 11L10 10L8 10L8 11L7 11L7 10L6 10L6 9L7 9L7 8L6 8L6 9L5 9L5 10L6 10L6 11L7 11L7 12L6 12L6 13L7 13L7 12L8 12L8 14L4 14L4 13L5 13L5 12L3 12L3 9L4 9L4 8L3 8L3 9L1 9L1 10L0 10L0 11L1 11L1 12L0 12L0 13L1 13L1 14L0 14L0 16L1 16L1 17L0 17L0 18L5 18L5 17L4 17L4 15L5 15L5 16L6 16L6 17L7 17L7 18L6 18L6 19L3 19L3 20L1 20L1 19L0 19L0 20L1 20L1 21L2 21L2 22L0 22L0 25L1 25L1 26L0 26L0 29L1 29L1 30L2 30L2 29L1 29L1 27L2 27L2 28L3 28L3 30L4 30L4 31L5 31L5 32L3 32L3 31L1 31L1 32L0 32L0 34L3 34L3 35L2 35L2 37L1 37L1 35L0 35L0 37L1 37L1 40L0 40L0 41L3 41L3 40L4 40L4 39L2 39L2 37L3 37L3 35L4 35L4 36L5 36L5 39L7 39L7 38L6 38L6 37L7 37L7 36L5 36L5 35L7 35L7 34L9 34L9 35L8 35L8 37L10 37L10 36L11 36L11 35L12 35L12 36L13 36L13 35L12 35L12 33L13 33L13 34L14 34L14 35L15 35L15 36L14 36L14 40L13 40L13 39L12 39L12 38L13 38L13 37L11 37L11 38L9 38L9 39L11 39L11 40L6 40L6 41L8 41L8 42L9 42L9 41L11 41L11 40L13 40L13 41L12 41L12 42L10 42L10 43L9 43L9 44L10 44L10 43L13 43L13 42L14 42L14 44L11 44L11 46L10 46L10 45L8 45L8 46L10 46L10 49L11 49L11 47L12 47L12 45L14 45L14 44L16 44L16 47L15 47L15 46L13 46L13 47L15 47L15 48L16 48L16 49L19 49L19 47L21 47L21 46L22 46L22 48L21 48L21 49L24 49L24 46L22 46L22 45L27 45L27 46L25 46L25 47L26 47L26 48L25 48L25 49L31 49L31 47L33 47L33 48L32 48L32 49L33 49L33 48L34 48L34 47L35 47L35 48L36 48L36 49L37 49L37 48L39 48L39 49L40 49L40 48L41 48L41 49L42 49L42 48L41 48L41 46L42 46L42 47L43 47L43 48L44 48L44 49L46 49L46 46L47 46L47 47L49 47L49 46L48 46L48 45L49 45L49 44L48 44L48 43L49 43L49 36L48 36L48 38L47 38L47 37L46 37L46 35L47 35L47 34L46 34L46 35L44 35L44 33L46 33L46 32L47 32L47 33L48 33L48 35L49 35L49 33L48 33L48 32L47 32L47 31L45 31L45 32L44 32L44 31L43 31L43 30L42 30L42 31L40 31L40 29L41 29L41 28L40 28L40 29L38 29L38 27L42 27L42 29L44 29L44 30L46 30L46 29L47 29L47 30L48 30L48 31L49 31L49 28L48 28L48 27L49 27L49 25L47 25L47 26L46 26L46 23L47 23L47 22L46 22L46 20L47 20L47 21L48 21L48 24L49 24L49 20L47 20L47 19L45 19L45 18L46 18L46 17L47 17L47 18L48 18L48 19L49 19L49 16L48 16L48 15L49 15L49 8L47 8L47 9L48 9L48 14L47 14L47 16L45 16L45 14L44 14L44 13L46 13L46 8L43 8L43 11L44 11L44 9L45 9L45 12L44 12L44 13L43 13L43 12L42 12L42 13L40 13L40 12L39 12L39 11L40 11L40 8L41 8L41 6L40 6L40 7L39 7L39 5L38 5L38 7L39 7L39 8L38 8L38 9L37 9L37 8L35 8L35 6L36 6L36 7L37 7L37 6L36 6L36 5L34 5L34 7L33 7L33 6L32 6L32 5L33 5L33 4L34 4L34 3L35 3L35 4L36 4L36 3L35 3L35 2L36 2L36 1L35 1L35 0L34 0L34 1L35 1L35 2L34 2L34 3L33 3L33 1L32 1L32 2L31 2L31 1L30 1L30 0L28 0L28 2L27 2L27 3L24 3L24 2L22 2L22 1L25 1L25 2L26 2L26 0L21 0L21 2L22 2L22 3L23 3L23 4L21 4L21 5L20 5L20 7L19 7L19 5L18 5L18 4L20 4L20 0L19 0L19 2L18 2L18 1L17 1L17 2L18 2L18 4L17 4L17 3L16 3L16 2L13 2L13 0ZM14 0L14 1L15 1L15 0ZM37 0L37 1L38 1L38 2L39 2L39 4L40 4L40 3L41 3L41 0L40 0L40 1L38 1L38 0ZM29 1L29 2L30 2L30 3L31 3L31 2L30 2L30 1ZM28 3L28 4L29 4L29 7L28 7L28 5L27 5L27 9L24 9L24 10L22 10L22 9L21 9L21 8L22 8L22 6L21 6L21 7L20 7L20 8L19 8L19 9L18 9L18 11L17 11L17 10L16 10L16 12L17 12L17 15L19 15L19 13L20 13L20 11L24 11L24 10L25 10L25 11L28 11L28 13L29 13L29 14L32 14L32 13L31 13L31 12L33 12L33 13L36 13L36 14L39 14L39 15L40 15L40 14L39 14L39 12L38 12L38 13L36 13L36 10L37 10L37 11L39 11L39 9L38 9L38 10L37 10L37 9L34 9L34 8L33 8L33 7L32 7L32 6L31 6L31 7L30 7L30 4L29 4L29 3ZM37 3L37 4L38 4L38 3ZM23 5L23 8L26 8L26 5ZM9 6L9 7L10 7L10 6ZM12 6L12 7L13 7L13 6ZM14 6L14 7L15 7L15 6ZM24 6L24 7L25 7L25 6ZM29 7L29 8L28 8L28 9L29 9L29 10L28 10L28 11L29 11L29 10L30 10L30 9L31 9L31 10L32 10L32 11L34 11L34 12L35 12L35 10L34 10L34 9L33 9L33 8L32 8L32 7L31 7L31 8L30 8L30 7ZM12 8L12 9L13 9L13 8ZM29 8L29 9L30 9L30 8ZM31 8L31 9L32 9L32 10L33 10L33 9L32 9L32 8ZM19 9L19 11L20 11L20 10L21 10L21 9ZM41 9L41 11L42 11L42 9ZM1 10L1 11L2 11L2 10ZM14 11L14 12L15 12L15 11ZM30 11L30 12L29 12L29 13L30 13L30 12L31 12L31 11ZM2 12L2 14L1 14L1 15L2 15L2 17L3 17L3 15L2 15L2 14L3 14L3 12ZM21 12L21 13L22 13L22 14L20 14L20 16L22 16L22 15L23 15L23 16L26 16L26 15L27 15L27 17L25 17L25 18L26 18L26 19L24 19L24 20L28 20L28 22L29 22L29 21L30 21L30 22L31 22L31 23L29 23L29 25L27 25L27 26L29 26L29 28L28 28L28 29L29 29L29 30L28 30L28 32L27 32L27 30L26 30L26 29L25 29L25 28L26 28L26 27L20 27L20 26L21 26L21 25L22 25L22 23L21 23L21 22L23 22L23 20L20 20L20 19L23 19L23 17L21 17L21 18L20 18L20 17L19 17L19 16L17 16L17 17L12 17L12 18L11 18L11 17L9 17L9 16L8 16L8 17L9 17L9 18L11 18L11 19L10 19L10 20L9 20L9 19L6 19L6 20L5 20L5 21L4 21L4 20L3 20L3 23L2 23L2 24L1 24L1 25L2 25L2 24L3 24L3 28L5 28L5 27L4 27L4 22L5 22L5 21L6 21L6 22L11 22L11 24L12 24L12 25L11 25L11 26L10 26L10 24L9 24L9 27L10 27L10 28L8 28L8 29L9 29L9 30L10 30L10 31L8 31L8 30L7 30L7 29L4 29L4 30L5 30L5 31L6 31L6 32L5 32L5 33L4 33L4 34L7 34L7 33L6 33L6 32L7 32L7 31L8 31L8 32L9 32L9 33L10 33L10 34L11 34L11 32L10 32L10 31L13 31L13 30L14 30L14 32L13 32L13 33L16 33L16 36L15 36L15 37L17 37L17 39L19 39L19 40L14 40L14 41L15 41L15 42L17 42L17 41L20 41L20 42L22 42L22 41L21 41L21 39L22 39L22 40L24 40L24 39L25 39L25 40L27 40L27 42L28 42L28 44L27 44L27 45L28 45L28 46L29 46L29 47L27 47L27 48L29 48L29 47L31 47L31 45L34 45L34 46L35 46L35 47L36 47L36 46L37 46L37 47L39 47L39 45L40 45L40 46L41 46L41 45L40 45L40 44L38 44L38 43L37 43L37 44L38 44L38 46L37 46L37 45L36 45L36 46L35 46L35 45L34 45L34 44L29 44L29 42L30 42L30 43L32 43L32 42L31 42L31 41L29 41L29 42L28 42L28 40L27 40L27 39L29 39L29 38L24 38L24 37L23 37L23 38L24 38L24 39L22 39L22 37L21 37L21 36L24 36L24 35L23 35L23 34L25 34L25 33L26 33L26 32L27 32L27 34L26 34L26 35L27 35L27 34L28 34L28 36L29 36L29 37L30 37L30 38L31 38L31 37L32 37L32 36L35 36L35 38L34 38L34 42L35 42L35 44L36 44L36 39L35 39L35 38L36 38L36 36L35 36L35 35L33 35L33 34L31 34L31 35L30 35L30 32L29 32L29 30L31 30L31 32L33 32L33 33L34 33L34 34L35 34L35 33L38 33L38 34L36 34L36 35L38 35L38 36L39 36L39 37L37 37L37 38L40 38L40 39L38 39L38 40L37 40L37 41L38 41L38 40L39 40L39 41L40 41L40 40L42 40L42 39L41 39L41 37L42 37L42 38L43 38L43 39L44 39L44 40L47 40L47 41L46 41L46 42L45 42L45 43L46 43L46 42L47 42L47 43L48 43L48 42L47 42L47 41L48 41L48 40L47 40L47 38L46 38L46 39L45 39L45 36L44 36L44 35L43 35L43 36L44 36L44 37L42 37L42 36L41 36L41 35L42 35L42 34L41 34L41 33L40 33L40 31L39 31L39 30L38 30L38 31L36 31L36 30L37 30L37 29L36 29L36 26L39 26L39 25L40 25L40 24L38 24L38 23L39 23L39 19L38 19L38 18L39 18L39 16L38 16L38 15L37 15L37 16L38 16L38 17L37 17L37 21L36 21L36 22L35 22L35 20L36 20L36 15L35 15L35 14L34 14L34 15L33 15L33 17L32 17L32 15L30 15L30 16L31 16L31 18L30 18L30 17L28 17L28 15L27 15L27 14L26 14L26 13L27 13L27 12L24 12L24 14L23 14L23 12ZM42 13L42 14L41 14L41 16L40 16L40 18L41 18L41 19L42 19L42 22L43 22L43 21L45 21L45 20L43 20L43 19L44 19L44 18L45 18L45 17L43 17L43 16L44 16L44 14L43 14L43 13ZM9 14L9 15L10 15L10 16L13 16L13 14L12 14L12 15L10 15L10 14ZM24 14L24 15L26 15L26 14ZM6 15L6 16L7 16L7 15ZM34 15L34 20L35 20L35 15ZM41 16L41 17L42 17L42 16ZM47 16L47 17L48 17L48 16ZM18 17L18 18L17 18L17 19L15 19L15 18L14 18L14 20L15 20L15 21L14 21L14 23L15 23L15 24L13 24L13 22L12 22L12 20L13 20L13 18L12 18L12 19L11 19L11 20L10 20L10 21L11 21L11 22L12 22L12 24L13 24L13 25L12 25L12 26L13 26L13 27L14 27L14 28L12 28L12 29L14 29L14 30L16 30L16 28L17 28L17 27L16 27L16 26L17 26L17 25L18 25L18 26L19 26L19 25L18 25L18 24L17 24L17 23L18 23L18 21L19 21L19 24L20 24L20 25L21 25L21 23L20 23L20 22L21 22L21 21L19 21L19 19L20 19L20 18L19 18L19 17ZM18 18L18 19L19 19L19 18ZM27 18L27 19L28 19L28 18ZM32 18L32 19L31 19L31 21L32 21L32 25L31 25L31 24L30 24L30 27L31 27L31 26L32 26L32 25L33 25L33 27L32 27L32 28L31 28L31 30L32 30L32 31L33 31L33 32L34 32L34 33L35 33L35 32L36 32L36 31L35 31L35 32L34 32L34 28L35 28L35 27L34 27L34 26L36 26L36 25L38 25L38 24L37 24L37 23L35 23L35 22L34 22L34 21L33 21L33 20L32 20L32 19L33 19L33 18ZM42 18L42 19L43 19L43 18ZM29 19L29 20L30 20L30 19ZM6 20L6 21L7 21L7 20ZM16 20L16 21L17 21L17 20ZM40 20L40 22L41 22L41 20ZM24 21L24 22L25 22L25 21ZM37 21L37 22L38 22L38 21ZM16 22L16 23L17 23L17 22ZM5 23L5 26L8 26L8 23ZM23 23L23 26L26 26L26 23ZM34 23L34 24L33 24L33 25L34 25L34 24L35 24L35 25L36 25L36 24L35 24L35 23ZM41 23L41 26L44 26L44 23ZM6 24L6 25L7 25L7 24ZM16 24L16 25L17 25L17 24ZM24 24L24 25L25 25L25 24ZM42 24L42 25L43 25L43 24ZM14 26L14 27L15 27L15 28L14 28L14 29L15 29L15 28L16 28L16 27L15 27L15 26ZM45 26L45 27L44 27L44 29L45 29L45 27L46 27L46 28L47 28L47 27L46 27L46 26ZM6 27L6 28L7 28L7 27ZM10 28L10 30L11 30L11 28ZM18 28L18 29L17 29L17 36L18 36L18 37L19 37L19 36L21 36L21 35L18 35L18 32L19 32L19 31L18 31L18 29L19 29L19 30L20 30L20 31L21 31L21 30L22 30L22 31L23 31L23 32L25 32L25 31L23 31L23 30L25 30L25 29L24 29L24 28L22 28L22 29L21 29L21 28ZM29 28L29 29L30 29L30 28ZM20 29L20 30L21 30L21 29ZM32 29L32 30L33 30L33 29ZM35 29L35 30L36 30L36 29ZM6 30L6 31L7 31L7 30ZM1 32L1 33L3 33L3 32ZM20 32L20 34L22 34L22 32ZM39 33L39 34L40 34L40 35L41 35L41 34L40 34L40 33ZM9 35L9 36L10 36L10 35ZM29 35L29 36L30 36L30 35ZM25 36L25 37L26 37L26 36ZM40 36L40 37L41 37L41 36ZM20 38L20 39L21 39L21 38ZM32 38L32 39L30 39L30 40L32 40L32 39L33 39L33 38ZM23 41L23 44L26 44L26 41ZM41 41L41 44L44 44L44 41ZM18 42L18 44L17 44L17 45L18 45L18 46L19 46L19 44L21 44L21 45L20 45L20 46L21 46L21 45L22 45L22 43L19 43L19 42ZM24 42L24 43L25 43L25 42ZM39 42L39 43L40 43L40 42ZM42 42L42 43L43 43L43 42ZM46 44L46 45L47 45L47 44ZM29 45L29 46L30 46L30 45ZM42 45L42 46L44 46L44 45ZM17 47L17 48L18 48L18 47ZM13 48L13 49L14 49L14 48ZM47 48L47 49L49 49L49 48ZM0 0L0 7L7 7L7 0ZM1 1L1 6L6 6L6 1ZM2 2L2 5L5 5L5 2ZM42 0L42 7L49 7L49 0ZM43 1L43 6L48 6L48 1ZM44 2L44 5L47 5L47 2ZM0 42L0 49L7 49L7 42ZM1 43L1 48L6 48L6 43ZM2 44L2 47L5 47L5 44Z" fill="#000000"/></g></g></svg>
