<?xml version="1.0" encoding="UTF-8"?>
<svg xmlns="http://www.w3.org/2000/svg" version="1.1" width="200" height="200" viewBox="0 0 200 200"><rect x="0" y="0" width="200" height="200" fill="#ffffff"/><g transform="scale(3.774)"><g transform="translate(2,2)"><path fill-rule="evenodd" d="M8 0L8 1L9 1L9 0ZM10 0L10 3L9 3L9 2L8 2L8 3L9 3L9 4L8 4L8 5L10 5L10 7L9 7L9 6L8 6L8 8L11 8L11 10L14 10L14 9L13 9L13 6L14 6L14 8L15 8L15 9L17 9L17 11L18 11L18 12L16 12L16 13L17 13L17 15L18 15L18 14L19 14L19 15L20 15L20 16L21 16L21 17L19 17L19 18L21 18L21 19L22 19L22 16L23 16L23 18L24 18L24 16L23 16L23 15L25 15L25 16L26 16L26 15L25 15L25 13L27 13L27 11L31 11L31 12L32 12L32 14L31 14L31 13L29 13L29 14L30 14L30 16L29 16L29 17L32 17L32 16L33 16L33 18L32 18L32 19L30 19L30 18L27 18L27 17L28 17L28 16L27 16L27 17L25 17L25 18L27 18L27 20L25 20L25 19L24 19L24 22L23 22L23 20L21 20L21 22L20 22L20 23L21 23L21 24L19 24L19 23L18 23L18 22L19 22L19 21L18 21L18 22L17 22L17 23L16 23L16 24L17 24L17 23L18 23L18 24L19 24L19 25L22 25L22 27L21 27L21 26L20 26L20 27L18 27L18 25L17 25L17 26L16 26L16 27L15 27L15 28L14 28L14 26L15 26L15 23L14 23L14 21L12 21L12 23L13 23L13 24L14 24L14 25L13 25L13 27L12 27L12 25L11 25L11 22L10 22L10 20L11 20L11 18L15 18L15 19L14 19L14 20L16 20L16 21L17 21L17 20L20 20L20 19L18 19L18 18L17 18L17 16L16 16L16 14L15 14L15 15L14 15L14 14L13 14L13 15L10 15L10 14L9 14L9 13L10 13L10 11L8 11L8 10L9 10L9 9L7 9L7 8L5 8L5 9L1 9L1 10L0 10L0 15L1 15L1 14L2 14L2 17L3 17L3 14L2 14L2 13L1 13L1 11L4 11L4 12L6 12L6 13L8 13L8 14L5 14L5 13L4 13L4 16L5 16L5 15L8 15L8 16L6 16L6 17L8 17L8 16L9 16L9 15L10 15L10 17L9 17L9 19L10 19L10 20L9 20L9 21L7 21L7 20L5 20L5 21L2 21L2 18L1 18L1 19L0 19L0 21L2 21L2 24L0 24L0 27L1 27L1 28L0 28L0 30L1 30L1 29L2 29L2 30L3 30L3 31L2 31L2 32L4 32L4 31L7 31L7 32L5 32L5 33L4 33L4 36L2 36L2 35L3 35L3 33L1 33L1 31L0 31L0 33L1 33L1 36L0 36L0 38L1 38L1 40L0 40L0 41L3 41L3 40L4 40L4 39L2 39L2 37L3 37L3 38L5 38L5 39L7 39L7 40L6 40L6 41L7 41L7 40L10 40L10 41L8 41L8 42L9 42L9 43L8 43L8 44L9 44L9 49L12 49L12 48L15 48L15 49L17 49L17 47L19 47L19 48L18 48L18 49L20 49L20 48L22 48L22 49L23 49L23 48L25 48L25 49L27 49L27 48L28 48L28 49L29 49L29 48L30 48L30 49L34 49L34 48L33 48L33 47L31 47L31 48L30 48L30 46L31 46L31 45L30 45L30 43L29 43L29 41L30 41L30 42L31 42L31 44L33 44L33 45L34 45L34 47L35 47L35 49L39 49L39 45L40 45L40 48L41 48L41 45L42 45L42 48L43 48L43 49L45 49L45 48L43 48L43 46L44 46L44 45L45 45L45 46L47 46L47 47L48 47L48 49L49 49L49 42L48 42L48 41L49 41L49 40L48 40L48 41L47 41L47 38L48 38L48 39L49 39L49 38L48 38L48 37L49 37L49 34L48 34L48 33L47 33L47 32L49 32L49 30L48 30L48 29L49 29L49 26L48 26L48 28L47 28L47 27L46 27L46 26L47 26L47 25L48 25L48 24L47 24L47 25L46 25L46 26L45 26L45 23L46 23L46 22L48 22L48 23L49 23L49 22L48 22L48 21L49 21L49 18L48 18L48 17L49 17L49 14L48 14L48 13L49 13L49 12L47 12L47 13L45 13L45 8L44 8L44 11L42 11L42 10L43 10L43 8L42 8L42 10L41 10L41 8L40 8L40 11L39 11L39 8L38 8L38 10L37 10L37 6L38 6L38 7L39 7L39 5L38 5L38 4L37 4L37 3L36 3L36 2L37 2L37 1L36 1L36 0L33 0L33 1L32 1L32 0L31 0L31 1L32 1L32 2L31 2L31 3L32 3L32 2L33 2L33 3L34 3L34 4L33 4L33 6L32 6L32 7L31 7L31 6L30 6L30 7L29 7L29 6L28 6L28 5L27 5L27 4L23 4L23 3L22 3L22 2L26 2L26 1L25 1L25 0L24 0L24 1L22 1L22 0L21 0L21 1L22 1L22 2L21 2L21 4L22 4L22 7L21 7L21 6L20 6L20 5L18 5L18 3L20 3L20 1L18 1L18 0L17 0L17 1L16 1L16 0L12 0L12 1L15 1L15 2L13 2L13 3L14 3L14 5L13 5L13 4L11 4L11 3L12 3L12 2L11 2L11 0ZM27 0L27 3L29 3L29 2L30 2L30 1L29 1L29 0ZM40 0L40 1L38 1L38 2L39 2L39 4L40 4L40 3L41 3L41 0ZM17 1L17 2L18 2L18 1ZM28 1L28 2L29 2L29 1ZM35 1L35 2L34 2L34 3L35 3L35 4L34 4L34 5L37 5L37 4L36 4L36 3L35 3L35 2L36 2L36 1ZM15 2L15 3L16 3L16 4L15 4L15 5L14 5L14 6L15 6L15 8L17 8L17 9L19 9L19 10L18 10L18 11L20 11L20 12L22 12L22 13L21 13L21 14L20 14L20 15L21 15L21 16L22 16L22 15L23 15L23 14L24 14L24 13L25 13L25 12L26 12L26 11L24 11L24 9L22 9L22 8L21 8L21 7L20 7L20 6L19 6L19 7L20 7L20 8L17 8L17 7L18 7L18 6L17 6L17 3L16 3L16 2ZM10 4L10 5L11 5L11 7L12 7L12 6L13 6L13 5L11 5L11 4ZM30 4L30 5L31 5L31 4ZM23 5L23 8L26 8L26 5ZM16 6L16 7L17 7L17 6ZM24 6L24 7L25 7L25 6ZM27 6L27 7L28 7L28 6ZM33 6L33 7L32 7L32 8L30 8L30 9L29 9L29 8L28 8L28 9L29 9L29 10L30 10L30 9L31 9L31 10L32 10L32 11L34 11L34 9L36 9L36 8L35 8L35 7L36 7L36 6L35 6L35 7L34 7L34 6ZM40 6L40 7L41 7L41 6ZM32 8L32 10L33 10L33 9L34 9L34 8ZM46 8L46 10L48 10L48 11L49 11L49 10L48 10L48 9L49 9L49 8L48 8L48 9L47 9L47 8ZM5 9L5 10L4 10L4 11L6 11L6 12L8 12L8 11L6 11L6 10L7 10L7 9ZM21 9L21 10L20 10L20 11L22 11L22 12L24 12L24 11L22 11L22 9ZM35 10L35 12L34 12L34 13L33 13L33 15L34 15L34 16L35 16L35 18L37 18L37 17L38 17L38 16L39 16L39 19L36 19L36 20L35 20L35 19L34 19L34 20L35 20L35 23L34 23L34 21L32 21L32 24L35 24L35 23L36 23L36 24L38 24L38 23L37 23L37 22L38 22L38 21L39 21L39 24L40 24L40 20L41 20L41 22L42 22L42 21L43 21L43 22L45 22L45 21L46 21L46 20L47 20L47 21L48 21L48 20L47 20L47 17L48 17L48 14L47 14L47 17L46 17L46 16L45 16L45 15L44 15L44 14L45 14L45 13L44 13L44 14L42 14L42 13L41 13L41 12L42 12L42 11L40 11L40 12L39 12L39 11L38 11L38 12L39 12L39 13L37 13L37 14L35 14L35 12L37 12L37 11L36 11L36 10ZM11 11L11 12L13 12L13 13L15 13L15 11L14 11L14 12L13 12L13 11ZM18 12L18 13L19 13L19 12ZM21 14L21 15L22 15L22 14ZM34 14L34 15L35 15L35 16L36 16L36 17L37 17L37 16L38 16L38 15L40 15L40 14L37 14L37 16L36 16L36 15L35 15L35 14ZM41 14L41 17L42 17L42 18L40 18L40 19L42 19L42 20L45 20L45 19L46 19L46 18L45 18L45 19L44 19L44 17L42 17L42 16L44 16L44 15L42 15L42 14ZM13 15L13 17L16 17L16 16L14 16L14 15ZM31 15L31 16L32 16L32 15ZM4 17L4 18L3 18L3 19L4 19L4 18L5 18L5 19L8 19L8 18L5 18L5 17ZM10 17L10 18L11 18L11 17ZM12 19L12 20L13 20L13 19ZM29 19L29 20L30 20L30 19ZM32 19L32 20L33 20L33 19ZM27 20L27 21L25 21L25 22L27 22L27 25L28 25L28 20ZM36 20L36 22L37 22L37 20ZM5 21L5 22L7 22L7 21ZM29 21L29 22L31 22L31 21ZM0 22L0 23L1 23L1 22ZM9 22L9 24L10 24L10 22ZM21 22L21 23L22 23L22 22ZM5 23L5 26L8 26L8 23ZM23 23L23 26L26 26L26 23ZM29 23L29 24L30 24L30 23ZM41 23L41 26L44 26L44 23ZM6 24L6 25L7 25L7 24ZM24 24L24 25L25 25L25 24ZM42 24L42 25L43 25L43 24ZM10 25L10 26L11 26L11 25ZM30 25L30 26L31 26L31 27L32 27L32 28L30 28L30 29L29 29L29 30L26 30L26 31L25 31L25 29L26 29L26 28L27 28L27 29L28 29L28 28L29 28L29 26L27 26L27 27L26 27L26 28L24 28L24 31L23 31L23 34L22 34L22 32L21 32L21 33L20 33L20 31L19 31L19 30L15 30L15 29L16 29L16 28L17 28L17 29L18 29L18 28L17 28L17 27L16 27L16 28L15 28L15 29L14 29L14 28L12 28L12 29L11 29L11 30L9 30L9 29L8 29L8 28L10 28L10 27L5 27L5 28L3 28L3 27L2 27L2 28L3 28L3 30L4 30L4 29L5 29L5 30L9 30L9 31L8 31L8 32L9 32L9 33L8 33L8 34L7 34L7 33L6 33L6 34L7 34L7 35L5 35L5 36L4 36L4 37L5 37L5 38L7 38L7 39L11 39L11 40L13 40L13 41L12 41L12 44L11 44L11 46L12 46L12 47L11 47L11 48L12 48L12 47L15 47L15 48L16 48L16 47L15 47L15 43L16 43L16 46L17 46L17 45L19 45L19 47L21 47L21 46L20 46L20 45L19 45L19 43L21 43L21 44L22 44L22 42L20 42L20 41L19 41L19 39L20 39L20 38L21 38L21 37L22 37L22 39L24 39L24 40L25 40L25 39L27 39L27 38L29 38L29 39L28 39L28 40L30 40L30 37L31 37L31 39L32 39L32 40L31 40L31 42L33 42L33 44L34 44L34 45L35 45L35 47L36 47L36 48L38 48L38 47L36 47L36 44L38 44L38 45L37 45L37 46L38 46L38 45L39 45L39 44L40 44L40 43L39 43L39 44L38 44L38 42L40 42L40 41L39 41L39 40L38 40L38 39L37 39L37 38L39 38L39 39L40 39L40 38L39 38L39 37L38 37L38 36L39 36L39 35L38 35L38 36L37 36L37 34L38 34L38 33L39 33L39 34L40 34L40 33L41 33L41 35L40 35L40 36L41 36L41 35L42 35L42 36L43 36L43 39L42 39L42 37L41 37L41 39L42 39L42 40L44 40L44 39L46 39L46 38L47 38L47 36L48 36L48 34L47 34L47 35L44 35L44 33L42 33L42 32L43 32L43 31L41 31L41 29L44 29L44 32L45 32L45 33L46 33L46 32L47 32L47 29L46 29L46 27L45 27L45 29L44 29L44 27L42 27L42 28L41 28L41 29L38 29L38 27L36 27L36 28L35 28L35 27L34 27L34 26L36 26L36 25L32 25L32 26L31 26L31 25ZM37 25L37 26L39 26L39 27L40 27L40 25ZM6 28L6 29L7 29L7 28ZM19 28L19 29L20 29L20 30L21 30L21 29L22 29L22 28ZM36 28L36 29L35 29L35 31L34 31L34 32L31 32L31 31L32 31L32 30L31 30L31 29L30 29L30 31L28 31L28 32L26 32L26 33L27 33L27 34L26 34L26 35L27 35L27 34L29 34L29 33L34 33L34 35L33 35L33 34L31 34L31 35L29 35L29 36L28 36L28 37L30 37L30 36L31 36L31 37L33 37L33 36L34 36L34 35L35 35L35 38L34 38L34 40L36 40L36 41L38 41L38 40L36 40L36 39L35 39L35 38L37 38L37 36L36 36L36 34L35 34L35 33L36 33L36 32L37 32L37 28ZM13 29L13 31L12 31L12 34L10 34L10 35L9 35L9 34L8 34L8 35L7 35L7 36L6 36L6 37L9 37L9 38L11 38L11 37L12 37L12 36L11 36L11 35L12 35L12 34L13 34L13 37L14 37L14 39L13 39L13 40L14 40L14 41L15 41L15 42L16 42L16 41L17 41L17 42L18 42L18 43L17 43L17 44L18 44L18 43L19 43L19 42L18 42L18 41L17 41L17 40L14 40L14 39L15 39L15 37L16 37L16 36L15 36L15 35L14 35L14 34L15 34L15 33L16 33L16 34L17 34L17 39L18 39L18 38L19 38L19 37L20 37L20 36L18 36L18 34L17 34L17 32L16 32L16 31L15 31L15 30L14 30L14 29ZM45 30L45 31L46 31L46 30ZM9 31L9 32L10 32L10 33L11 33L11 31ZM13 31L13 34L14 34L14 33L15 33L15 31ZM18 31L18 32L19 32L19 31ZM35 31L35 32L34 32L34 33L35 33L35 32L36 32L36 31ZM39 31L39 33L40 33L40 31ZM19 33L19 35L21 35L21 36L22 36L22 37L23 37L23 38L24 38L24 37L25 37L25 38L27 38L27 36L24 36L24 35L23 35L23 36L22 36L22 34L20 34L20 33ZM24 33L24 34L25 34L25 33ZM42 34L42 35L43 35L43 36L44 36L44 35L43 35L43 34ZM9 36L9 37L11 37L11 36ZM23 36L23 37L24 37L24 36ZM32 38L32 39L33 39L33 38ZM45 40L45 42L47 42L47 41L46 41L46 40ZM10 41L10 42L11 42L11 41ZM23 41L23 44L26 44L26 41ZM27 41L27 44L28 44L28 41ZM41 41L41 44L44 44L44 41ZM13 42L13 43L14 43L14 42ZM24 42L24 43L25 43L25 42ZM34 42L34 43L35 43L35 44L36 44L36 43L37 43L37 42ZM42 42L42 43L43 43L43 42ZM9 43L9 44L10 44L10 43ZM45 43L45 45L46 45L46 44L47 44L47 46L48 46L48 43ZM12 44L12 46L13 46L13 44ZM22 45L22 46L23 46L23 45ZM27 45L27 46L24 46L24 47L26 47L26 48L27 48L27 47L28 47L28 48L29 48L29 47L28 47L28 45ZM29 45L29 46L30 46L30 45ZM0 0L0 7L7 7L7 0ZM1 1L1 6L6 6L6 1ZM2 2L2 5L5 5L5 2ZM42 0L42 7L49 7L49 0ZM43 1L43 6L48 6L48 1ZM44 2L44 5L47 5L47 2ZM0 42L0 49L7 49L7 42ZM1 43L1 48L6 48L6 43ZM2 44L2 47L5 47L5 44Z" fill="#000000"/></g></g></svg>
