<?xml version="1.0" encoding="UTF-8"?>
<svg xmlns="http://www.w3.org/2000/svg" version="1.1" width="200" height="200" viewBox="0 0 200 200"><rect x="0" y="0" width="200" height="200" fill="#ffffff"/><g transform="scale(3.774)"><g transform="translate(2,2)"><path fill-rule="evenodd" d="M8 0L8 3L9 3L9 2L10 2L10 3L12 3L12 2L11 2L11 1L13 1L13 0L11 0L11 1L9 1L9 0ZM15 0L15 1L16 1L16 4L14 4L14 7L13 7L13 6L12 6L12 4L11 4L11 6L10 6L10 7L11 7L11 6L12 6L12 7L13 7L13 8L10 8L10 9L9 9L9 5L10 5L10 4L9 4L9 5L8 5L8 9L7 9L7 8L6 8L6 9L7 9L7 10L6 10L6 11L8 11L8 12L9 12L9 11L8 11L8 9L9 9L9 10L10 10L10 9L11 9L11 10L13 10L13 11L11 11L11 12L10 12L10 13L8 13L8 14L6 14L6 15L5 15L5 13L3 13L3 12L2 12L2 11L3 11L3 10L4 10L4 9L5 9L5 8L2 8L2 10L1 10L1 11L0 11L0 15L1 15L1 14L2 14L2 15L3 15L3 16L2 16L2 17L3 17L3 18L1 18L1 19L0 19L0 20L1 20L1 21L0 21L0 23L1 23L1 22L2 22L2 21L3 21L3 20L4 20L4 19L8 19L8 18L4 18L4 17L3 17L3 16L6 16L6 17L7 17L7 16L8 16L8 17L9 17L9 16L10 16L10 17L11 17L11 16L10 16L10 13L11 13L11 12L12 12L12 16L13 16L13 15L14 15L14 13L13 13L13 12L14 12L14 10L13 10L13 9L15 9L15 10L17 10L17 9L18 9L18 8L17 8L17 5L18 5L18 7L19 7L19 6L20 6L20 7L21 7L21 4L22 4L22 8L21 8L21 9L20 9L20 11L17 11L17 12L19 12L19 14L20 14L20 15L19 15L19 16L20 16L20 17L21 17L21 16L23 16L23 18L20 18L20 19L19 19L19 20L18 20L18 19L17 19L17 17L16 17L16 16L15 16L15 17L12 17L12 18L15 18L15 19L17 19L17 20L16 20L16 21L15 21L15 20L14 20L14 19L11 19L11 18L10 18L10 19L9 19L9 20L14 20L14 21L12 21L12 23L13 23L13 27L12 27L12 24L11 24L11 22L10 22L10 23L9 23L9 22L8 22L8 21L7 21L7 20L5 20L5 21L7 21L7 22L4 22L4 23L2 23L2 24L3 24L3 25L1 25L1 24L0 24L0 27L1 27L1 28L0 28L0 31L1 31L1 33L0 33L0 34L2 34L2 35L3 35L3 33L2 33L2 32L4 32L4 31L8 31L8 33L9 33L9 34L11 34L11 35L12 35L12 34L13 34L13 36L15 36L15 37L14 37L14 39L13 39L13 38L11 38L11 37L12 37L12 36L10 36L10 35L9 35L9 37L10 37L10 38L11 38L11 39L12 39L12 41L13 41L13 40L14 40L14 41L15 41L15 39L16 39L16 41L17 41L17 42L14 42L14 44L15 44L15 45L13 45L13 44L12 44L12 46L11 46L11 44L8 44L8 47L10 47L10 48L9 48L9 49L10 49L10 48L11 48L11 47L12 47L12 48L13 48L13 49L16 49L16 48L17 48L17 49L19 49L19 48L20 48L20 49L21 49L21 47L22 47L22 48L23 48L23 49L24 49L24 48L26 48L26 49L28 49L28 48L27 48L27 46L28 46L28 47L29 47L29 48L30 48L30 49L31 49L31 48L33 48L33 49L35 49L35 48L36 48L36 49L38 49L38 47L39 47L39 48L40 48L40 49L42 49L42 48L43 48L43 46L47 46L47 47L48 47L48 48L46 48L46 47L45 47L45 48L46 48L46 49L49 49L49 42L48 42L48 41L49 41L49 40L48 40L48 41L47 41L47 40L46 40L46 41L45 41L45 40L42 40L42 39L43 39L43 37L45 37L45 38L46 38L46 39L47 39L47 38L48 38L48 39L49 39L49 38L48 38L48 37L49 37L49 34L48 34L48 33L47 33L47 32L49 32L49 30L48 30L48 29L49 29L49 28L48 28L48 27L49 27L49 26L48 26L48 27L47 27L47 28L46 28L46 26L47 26L47 24L46 24L46 23L47 23L47 22L48 22L48 23L49 23L49 22L48 22L48 21L49 21L49 18L48 18L48 17L49 17L49 14L48 14L48 13L49 13L49 12L48 12L48 13L47 13L47 12L46 12L46 11L45 11L45 10L46 10L46 9L47 9L47 10L48 10L48 11L49 11L49 10L48 10L48 9L49 9L49 8L46 8L46 9L45 9L45 10L44 10L44 11L42 11L42 10L43 10L43 9L44 9L44 8L40 8L40 7L41 7L41 6L40 6L40 7L39 7L39 5L38 5L38 4L37 4L37 3L36 3L36 2L37 2L37 1L38 1L38 2L39 2L39 4L40 4L40 3L41 3L41 0L40 0L40 1L38 1L38 0L37 0L37 1L36 1L36 2L35 2L35 1L34 1L34 0L33 0L33 1L32 1L32 0L31 0L31 1L30 1L30 0L29 0L29 1L30 1L30 2L31 2L31 4L30 4L30 5L31 5L31 6L30 6L30 7L29 7L29 6L28 6L28 5L29 5L29 4L28 4L28 1L27 1L27 0L26 0L26 1L24 1L24 0L22 0L22 1L21 1L21 0L19 0L19 1L18 1L18 2L17 2L17 0ZM20 1L20 3L18 3L18 5L20 5L20 3L22 3L22 2L21 2L21 1ZM26 1L26 2L23 2L23 4L26 4L26 3L27 3L27 1ZM33 1L33 2L34 2L34 5L32 5L32 4L33 4L33 3L32 3L32 4L31 4L31 5L32 5L32 6L31 6L31 7L30 7L30 10L29 10L29 8L28 8L28 6L27 6L27 8L28 8L28 9L26 9L26 10L29 10L29 11L28 11L28 12L26 12L26 11L24 11L24 9L23 9L23 10L22 10L22 9L21 9L21 10L22 10L22 11L24 11L24 13L23 13L23 14L22 14L22 15L23 15L23 16L24 16L24 19L22 19L22 20L23 20L23 21L21 21L21 20L19 20L19 21L18 21L18 23L17 23L17 22L14 22L14 23L17 23L17 24L18 24L18 27L20 27L20 28L19 28L19 29L20 29L20 28L21 28L21 29L22 29L22 28L23 28L23 29L26 29L26 28L23 28L23 27L22 27L22 26L21 26L21 24L22 24L22 22L24 22L24 19L25 19L25 20L27 20L27 21L28 21L28 22L27 22L27 23L28 23L28 24L29 24L29 27L27 27L27 30L26 30L26 32L27 32L27 31L28 31L28 30L30 30L30 29L32 29L32 31L29 31L29 32L33 32L33 31L34 31L34 30L35 30L35 32L34 32L34 34L33 34L33 36L29 36L29 33L27 33L27 34L26 34L26 35L25 35L25 37L24 37L24 38L23 38L23 36L22 36L22 35L24 35L24 34L23 34L23 33L25 33L25 32L23 32L23 33L22 33L22 35L19 35L19 33L20 33L20 32L19 32L19 31L22 31L22 30L18 30L18 32L19 32L19 33L18 33L18 35L17 35L17 33L16 33L16 34L15 34L15 31L16 31L16 30L15 30L15 29L18 29L18 28L16 28L16 26L17 26L17 25L16 25L16 24L14 24L14 25L16 25L16 26L14 26L14 27L15 27L15 29L14 29L14 28L13 28L13 29L14 29L14 31L13 31L13 30L12 30L12 32L11 32L11 30L10 30L10 29L8 29L8 30L10 30L10 32L9 32L9 33L10 33L10 32L11 32L11 34L12 34L12 32L14 32L14 33L13 33L13 34L15 34L15 35L16 35L16 36L17 36L17 38L18 38L18 39L17 39L17 41L18 41L18 43L16 43L16 45L15 45L15 46L12 46L12 47L15 47L15 46L16 46L16 45L17 45L17 46L19 46L19 47L17 47L17 48L19 48L19 47L21 47L21 46L23 46L23 45L19 45L19 44L20 44L20 43L21 43L21 42L22 42L22 40L23 40L23 39L24 39L24 40L25 40L25 39L26 39L26 40L27 40L27 42L30 42L30 43L29 43L29 44L30 44L30 43L34 43L34 46L32 46L32 45L33 45L33 44L31 44L31 47L30 47L30 48L31 48L31 47L34 47L34 48L35 48L35 47L36 47L36 48L37 48L37 47L36 47L36 44L38 44L38 45L37 45L37 46L39 46L39 47L40 47L40 46L41 46L41 48L42 48L42 45L40 45L40 46L39 46L39 44L38 44L38 43L39 43L39 40L41 40L41 39L42 39L42 36L43 36L43 35L44 35L44 36L45 36L45 37L46 37L46 38L47 38L47 37L48 37L48 34L47 34L47 33L46 33L46 32L47 32L47 31L48 31L48 30L47 30L47 29L46 29L46 28L45 28L45 27L42 27L42 28L41 28L41 27L40 27L40 26L39 26L39 23L40 23L40 22L42 22L42 21L43 21L43 22L44 22L44 21L46 21L46 22L45 22L45 23L46 23L46 22L47 22L47 21L48 21L48 20L47 20L47 19L48 19L48 18L47 18L47 17L48 17L48 14L47 14L47 15L45 15L45 16L42 16L42 17L41 17L41 16L39 16L39 17L40 17L40 18L37 18L37 17L38 17L38 16L37 16L37 15L36 15L36 14L39 14L39 13L40 13L40 15L41 15L41 14L42 14L42 15L44 15L44 14L46 14L46 12L43 12L43 13L44 13L44 14L42 14L42 11L41 11L41 10L42 10L42 9L40 9L40 8L39 8L39 7L38 7L38 6L37 6L37 10L39 10L39 9L40 9L40 11L36 11L36 10L35 10L35 9L36 9L36 8L35 8L35 7L36 7L36 6L35 6L35 7L34 7L34 5L37 5L37 4L36 4L36 3L35 3L35 2L34 2L34 1ZM13 2L13 3L15 3L15 2ZM23 5L23 8L26 8L26 5ZM15 6L15 7L14 7L14 8L15 8L15 7L16 7L16 6ZM24 6L24 7L25 7L25 6ZM32 6L32 7L31 7L31 8L32 8L32 9L33 9L33 10L34 10L34 12L33 12L33 11L32 11L32 10L31 10L31 13L30 13L30 12L28 12L28 13L26 13L26 12L25 12L25 13L24 13L24 14L23 14L23 15L24 15L24 16L28 16L28 17L25 17L25 19L27 19L27 18L28 18L28 17L31 17L31 15L32 15L32 16L33 16L33 17L34 17L34 18L33 18L33 19L34 19L34 18L35 18L35 16L36 16L36 17L37 17L37 16L36 16L36 15L35 15L35 14L34 14L34 13L35 13L35 10L34 10L34 7L33 7L33 6ZM32 7L32 8L33 8L33 7ZM38 8L38 9L39 9L39 8ZM4 11L4 12L5 12L5 11ZM15 11L15 12L16 12L16 11ZM20 11L20 13L21 13L21 11ZM1 12L1 13L2 13L2 14L3 14L3 15L4 15L4 14L3 14L3 13L2 13L2 12ZM6 12L6 13L7 13L7 12ZM32 12L32 13L31 13L31 14L32 14L32 13L33 13L33 12ZM36 12L36 13L39 13L39 12ZM40 12L40 13L41 13L41 12ZM15 13L15 15L16 15L16 13ZM28 13L28 14L27 14L27 15L29 15L29 16L30 16L30 14L29 14L29 13ZM17 14L17 15L18 15L18 14ZM33 14L33 16L34 16L34 14ZM6 15L6 16L7 16L7 15ZM20 15L20 16L21 16L21 15ZM46 16L46 17L44 17L44 18L45 18L45 19L43 19L43 17L42 17L42 20L46 20L46 21L47 21L47 20L46 20L46 19L47 19L47 18L46 18L46 17L47 17L47 16ZM36 18L36 19L35 19L35 20L32 20L32 19L31 19L31 21L30 21L30 23L31 23L31 24L30 24L30 26L32 26L32 25L31 25L31 24L32 24L32 22L34 22L34 23L33 23L33 26L34 26L34 27L29 27L29 28L28 28L28 29L30 29L30 28L36 28L36 29L35 29L35 30L36 30L36 32L35 32L35 33L36 33L36 32L37 32L37 31L39 31L39 30L40 30L40 31L41 31L41 30L40 30L40 29L41 29L41 28L38 28L38 29L39 29L39 30L37 30L37 28L36 28L36 27L39 27L39 26L36 26L36 25L37 25L37 24L38 24L38 23L39 23L39 22L40 22L40 21L41 21L41 20L40 20L40 19L39 19L39 20L40 20L40 21L39 21L39 22L37 22L37 20L36 20L36 19L37 19L37 18ZM2 19L2 20L3 20L3 19ZM28 19L28 21L29 21L29 20L30 20L30 19ZM35 20L35 21L34 21L34 22L35 22L35 23L34 23L34 26L35 26L35 25L36 25L36 24L37 24L37 22L36 22L36 20ZM20 21L20 23L21 23L21 21ZM25 21L25 22L26 22L26 21ZM28 22L28 23L29 23L29 22ZM5 23L5 26L8 26L8 23ZM18 23L18 24L19 24L19 23ZM23 23L23 26L26 26L26 23ZM35 23L35 24L36 24L36 23ZM41 23L41 26L44 26L44 23ZM6 24L6 25L7 25L7 24ZM10 24L10 25L9 25L9 26L11 26L11 24ZM24 24L24 25L25 25L25 24ZM42 24L42 25L43 25L43 24ZM45 24L45 25L46 25L46 24ZM3 25L3 26L4 26L4 25ZM27 25L27 26L28 26L28 25ZM20 26L20 27L21 27L21 28L22 28L22 27L21 27L21 26ZM3 27L3 28L4 28L4 29L5 29L5 30L7 30L7 29L6 29L6 28L8 28L8 27ZM10 27L10 28L11 28L11 27ZM42 28L42 29L43 29L43 30L42 30L42 31L43 31L43 32L42 32L42 33L45 33L45 32L46 32L46 31L47 31L47 30L46 30L46 29L45 29L45 28L44 28L44 29L43 29L43 28ZM1 29L1 30L2 30L2 29ZM33 29L33 30L34 30L34 29ZM44 29L44 30L43 30L43 31L44 31L44 32L45 32L45 31L44 31L44 30L45 30L45 29ZM3 30L3 31L4 31L4 30ZM5 32L5 34L4 34L4 36L3 36L3 37L4 37L4 38L5 38L5 39L7 39L7 40L6 40L6 41L7 41L7 40L8 40L8 39L7 39L7 38L5 38L5 37L7 37L7 36L8 36L8 34L6 34L6 33L7 33L7 32ZM39 32L39 34L37 34L37 35L38 35L38 36L36 36L36 34L34 34L34 35L35 35L35 36L36 36L36 37L38 37L38 36L39 36L39 37L40 37L40 39L41 39L41 37L40 37L40 36L39 36L39 35L41 35L41 36L42 36L42 35L43 35L43 34L42 34L42 35L41 35L41 34L40 34L40 32ZM31 33L31 34L30 34L30 35L31 35L31 34L32 34L32 33ZM44 34L44 35L45 35L45 36L46 36L46 37L47 37L47 36L46 36L46 35L47 35L47 34ZM5 35L5 36L7 36L7 35ZM18 35L18 36L19 36L19 37L18 37L18 38L19 38L19 43L20 43L20 40L21 40L21 39L22 39L22 38L21 38L21 37L20 37L20 36L19 36L19 35ZM26 35L26 36L28 36L28 35ZM0 36L0 37L2 37L2 36ZM33 36L33 38L34 38L34 39L32 39L32 38L31 38L31 37L30 37L30 40L29 40L29 41L30 41L30 42L31 42L31 40L34 40L34 39L35 39L35 40L36 40L36 41L38 41L38 40L36 40L36 39L39 39L39 38L36 38L36 39L35 39L35 38L34 38L34 36ZM19 37L19 38L20 38L20 37ZM25 37L25 38L27 38L27 39L29 39L29 38L28 38L28 37ZM1 38L1 40L0 40L0 41L3 41L3 40L4 40L4 39L2 39L2 38ZM10 40L10 41L11 41L11 40ZM8 41L8 42L9 42L9 41ZM23 41L23 44L26 44L26 41ZM33 41L33 42L34 42L34 41ZM41 41L41 44L44 44L44 41ZM46 41L46 44L45 44L45 45L46 45L46 44L47 44L47 46L48 46L48 42L47 42L47 41ZM10 42L10 43L12 43L12 42ZM24 42L24 43L25 43L25 42ZM36 42L36 43L35 43L35 44L36 44L36 43L38 43L38 42ZM42 42L42 43L43 43L43 42ZM9 45L9 46L10 46L10 45ZM26 45L26 46L24 46L24 47L26 47L26 46L27 46L27 45ZM28 45L28 46L30 46L30 45ZM34 46L34 47L35 47L35 46ZM0 0L0 7L7 7L7 0ZM1 1L1 6L6 6L6 1ZM2 2L2 5L5 5L5 2ZM42 0L42 7L49 7L49 0ZM43 1L43 6L48 6L48 1ZM44 2L44 5L47 5L47 2ZM0 42L0 49L7 49L7 42ZM1 43L1 48L6 48L6 43ZM2 44L2 47L5 47L5 44Z" fill="#000000"/></g></g></svg>
