<?xml version="1.0" encoding="UTF-8"?>
<svg xmlns="http://www.w3.org/2000/svg" version="1.1" width="200" height="200" viewBox="0 0 200 200"><rect x="0" y="0" width="200" height="200" fill="#ffffff"/><g transform="scale(3.774)"><g transform="translate(2,2)"><path fill-rule="evenodd" d="M11 0L11 1L10 1L10 2L9 2L9 3L10 3L10 2L11 2L11 4L12 4L12 7L13 7L13 6L14 6L14 9L15 9L15 11L14 11L14 10L13 10L13 9L12 9L12 8L10 8L10 7L11 7L11 6L10 6L10 7L9 7L9 6L8 6L8 8L6 8L6 9L7 9L7 10L5 10L5 11L4 11L4 10L3 10L3 9L4 9L4 8L2 8L2 10L1 10L1 12L0 12L0 14L1 14L1 15L3 15L3 17L8 17L8 18L5 18L5 20L4 20L4 21L2 21L2 20L3 20L3 19L4 19L4 18L2 18L2 17L1 17L1 16L0 16L0 18L1 18L1 21L0 21L0 22L1 22L1 21L2 21L2 22L4 22L4 24L3 24L3 23L0 23L0 25L1 25L1 26L2 26L2 27L1 27L1 30L2 30L2 31L0 31L0 34L1 34L1 33L2 33L2 32L3 32L3 31L4 31L4 33L3 33L3 34L4 34L4 35L3 35L3 37L2 37L2 36L0 36L0 38L1 38L1 40L0 40L0 41L3 41L3 40L4 40L4 39L2 39L2 38L5 38L5 39L7 39L7 40L6 40L6 41L7 41L7 40L8 40L8 43L10 43L10 45L8 45L8 47L9 47L9 49L10 49L10 47L11 47L11 46L10 46L10 45L11 45L11 43L10 43L10 42L11 42L11 41L12 41L12 42L13 42L13 43L12 43L12 44L14 44L14 45L15 45L15 44L16 44L16 47L17 47L17 46L18 46L18 45L19 45L19 44L18 44L18 45L17 45L17 44L16 44L16 43L19 43L19 40L20 40L20 43L21 43L21 42L22 42L22 44L20 44L20 45L22 45L22 47L21 47L21 46L20 46L20 49L21 49L21 48L22 48L22 47L23 47L23 49L24 49L24 47L25 47L25 48L26 48L26 49L28 49L28 48L29 48L29 49L30 49L30 48L31 48L31 45L32 45L32 48L33 48L33 49L35 49L35 48L36 48L36 49L38 49L38 48L37 48L37 47L38 47L38 46L37 46L37 45L36 45L36 46L34 46L34 45L35 45L35 44L34 44L34 45L32 45L32 43L31 43L31 44L30 44L30 42L28 42L28 40L29 40L29 39L27 39L27 40L26 40L26 37L25 37L25 36L23 36L23 37L24 37L24 39L23 39L23 38L22 38L22 37L21 37L21 36L22 36L22 34L21 34L21 33L23 33L23 32L24 32L24 31L25 31L25 32L26 32L26 33L24 33L24 34L23 34L23 35L24 35L24 34L25 34L25 35L28 35L28 36L30 36L30 35L28 35L28 34L26 34L26 33L27 33L27 31L28 31L28 32L30 32L30 31L32 31L32 34L31 34L31 33L30 33L30 34L31 34L31 35L32 35L32 36L33 36L33 35L34 35L34 37L35 37L35 41L34 41L34 38L33 38L33 37L32 37L32 38L33 38L33 39L30 39L30 40L32 40L32 41L31 41L31 42L32 42L32 41L34 41L34 42L35 42L35 41L36 41L36 44L37 44L37 43L38 43L38 41L39 41L39 40L37 40L37 41L36 41L36 37L38 37L38 39L40 39L40 38L42 38L42 37L44 37L44 38L43 38L43 39L44 39L44 38L45 38L45 39L46 39L46 38L45 38L45 36L43 36L43 35L42 35L42 34L40 34L40 33L41 33L41 32L44 32L44 33L46 33L46 32L45 32L45 31L47 31L47 30L48 30L48 31L49 31L49 29L48 29L48 27L47 27L47 26L49 26L49 25L47 25L47 23L48 23L48 24L49 24L49 23L48 23L48 21L47 21L47 23L46 23L46 27L45 27L45 21L46 21L46 20L45 20L45 21L44 21L44 17L46 17L46 18L45 18L45 19L47 19L47 18L48 18L48 19L49 19L49 17L48 17L48 16L49 16L49 15L48 15L48 16L45 16L45 14L47 14L47 11L48 11L48 14L49 14L49 11L48 11L48 9L47 9L47 11L46 11L46 9L45 9L45 8L44 8L44 9L45 9L45 11L44 11L44 12L45 12L45 11L46 11L46 13L43 13L43 12L42 12L42 13L41 13L41 10L40 10L40 8L39 8L39 5L38 5L38 4L37 4L37 3L38 3L38 2L39 2L39 4L40 4L40 3L41 3L41 0L40 0L40 1L38 1L38 0L37 0L37 1L38 1L38 2L36 2L36 1L34 1L34 0L33 0L33 2L34 2L34 3L31 3L31 1L32 1L32 0L30 0L30 3L31 3L31 4L32 4L32 7L31 7L31 5L30 5L30 4L29 4L29 2L28 2L28 3L26 3L26 2L25 2L25 1L23 1L23 2L24 2L24 3L26 3L26 4L23 4L23 3L22 3L22 4L20 4L20 5L19 5L19 4L18 4L18 1L17 1L17 0L15 0L15 1L14 1L14 3L16 3L16 4L15 4L15 5L13 5L13 0ZM19 0L19 2L22 2L22 0ZM27 0L27 1L29 1L29 0ZM16 2L16 3L17 3L17 2ZM34 3L34 4L33 4L33 5L34 5L34 6L33 6L33 9L28 9L28 8L27 8L27 9L26 9L26 12L27 12L27 13L25 13L25 12L24 12L24 15L23 15L23 16L22 16L22 15L21 15L21 14L20 14L20 13L21 13L21 12L23 12L23 10L24 10L24 11L25 11L25 10L24 10L24 9L23 9L23 10L22 10L22 9L21 9L21 8L20 8L20 9L19 9L19 8L17 8L17 7L18 7L18 4L16 4L16 5L15 5L15 9L19 9L19 10L16 10L16 11L15 11L15 13L16 13L16 14L17 14L17 13L16 13L16 11L18 11L18 13L19 13L19 15L15 15L15 14L13 14L13 16L11 16L11 15L12 15L12 13L13 13L13 11L12 11L12 13L11 13L11 11L10 11L10 10L9 10L9 9L10 9L10 8L9 8L9 9L8 9L8 10L9 10L9 12L7 12L7 11L5 11L5 12L4 12L4 11L2 11L2 12L3 12L3 14L4 14L4 15L6 15L6 16L7 16L7 15L8 15L8 16L9 16L9 15L10 15L10 16L11 16L11 17L13 17L13 18L9 18L9 20L8 20L8 19L6 19L6 20L8 20L8 22L9 22L9 20L11 20L11 22L12 22L12 23L9 23L9 24L10 24L10 26L9 26L9 27L10 27L10 28L8 28L8 27L4 27L4 26L3 26L3 24L1 24L1 25L2 25L2 26L3 26L3 28L2 28L2 30L3 30L3 28L5 28L5 29L4 29L4 31L5 31L5 32L7 32L7 31L8 31L8 33L6 33L6 34L5 34L5 33L4 33L4 34L5 34L5 35L4 35L4 36L7 36L7 37L6 37L6 38L8 38L8 40L13 40L13 41L14 41L14 42L15 42L15 43L14 43L14 44L15 44L15 43L16 43L16 42L15 42L15 41L17 41L17 40L19 40L19 39L16 39L16 37L15 37L15 36L16 36L16 35L17 35L17 33L18 33L18 34L19 34L19 31L18 31L18 30L19 30L19 28L18 28L18 30L17 30L17 29L15 29L15 28L16 28L16 27L17 27L17 26L18 26L18 25L19 25L19 26L20 26L20 25L21 25L21 26L22 26L22 25L21 25L21 22L24 22L24 21L25 21L25 22L26 22L26 19L25 19L25 18L26 18L26 16L25 16L25 17L24 17L24 20L23 20L23 19L21 19L21 18L20 18L20 19L19 19L19 18L18 18L18 17L17 17L17 16L19 16L19 17L20 17L20 16L19 16L19 15L21 15L21 17L23 17L23 16L24 16L24 15L27 15L27 14L29 14L29 15L28 15L28 16L29 16L29 19L33 19L33 18L30 18L30 17L31 17L31 16L33 16L33 17L34 17L34 20L33 20L33 21L34 21L34 22L36 22L36 21L37 21L37 22L38 22L38 23L37 23L37 26L36 26L36 24L34 24L34 23L31 23L31 21L32 21L32 20L30 20L30 23L27 23L27 26L29 26L29 27L27 27L27 28L25 28L25 29L24 29L24 28L23 28L23 27L20 27L20 31L21 31L21 32L22 32L22 31L23 31L23 29L24 29L24 30L26 30L26 31L27 31L27 30L26 30L26 29L28 29L28 30L32 30L32 31L33 31L33 33L34 33L34 34L35 34L35 35L36 35L36 34L38 34L38 35L37 35L37 36L39 36L39 35L40 35L40 34L39 34L39 33L40 33L40 32L41 32L41 31L42 31L42 30L43 30L43 31L44 31L44 30L46 30L46 29L45 29L45 27L42 27L42 29L41 29L41 31L40 31L40 28L41 28L41 27L38 27L38 25L39 25L39 26L40 26L40 25L39 25L39 24L40 24L40 23L39 23L39 20L40 20L40 22L42 22L42 20L43 20L43 19L42 19L42 18L43 18L43 17L44 17L44 16L43 16L43 17L42 17L42 16L40 16L40 17L39 17L39 16L37 16L37 15L38 15L38 13L39 13L39 15L40 15L40 14L41 14L41 13L40 13L40 11L39 11L39 9L37 9L37 8L38 8L38 5L36 5L36 6L35 6L35 4L36 4L36 3ZM8 4L8 5L9 5L9 4ZM27 4L27 7L28 7L28 6L29 6L29 7L30 7L30 8L31 8L31 7L30 7L30 5L28 5L28 4ZM16 5L16 7L17 7L17 5ZM20 5L20 6L19 6L19 7L20 7L20 6L21 6L21 7L22 7L22 6L21 6L21 5ZM23 5L23 8L26 8L26 5ZM24 6L24 7L25 7L25 6ZM34 6L34 7L35 7L35 6ZM36 6L36 7L37 7L37 6ZM40 6L40 7L41 7L41 6ZM34 8L34 9L33 9L33 10L30 10L30 12L29 12L29 10L28 10L28 13L30 13L30 12L31 12L31 13L32 13L32 12L33 12L33 13L35 13L35 14L36 14L36 13L37 13L37 11L38 11L38 10L37 10L37 9L35 9L35 8ZM41 8L41 9L42 9L42 11L43 11L43 8ZM20 9L20 10L21 10L21 9ZM34 9L34 10L35 10L35 9ZM36 10L36 11L34 11L34 12L35 12L35 13L36 13L36 11L37 11L37 10ZM31 11L31 12L32 12L32 11ZM5 12L5 14L6 14L6 15L7 15L7 14L6 14L6 13L7 13L7 12ZM19 12L19 13L20 13L20 12ZM1 13L1 14L2 14L2 13ZM9 13L9 14L8 14L8 15L9 15L9 14L10 14L10 15L11 15L11 13ZM42 13L42 14L43 14L43 13ZM32 14L32 15L34 15L34 17L36 17L36 20L37 20L37 21L38 21L38 20L39 20L39 19L38 19L38 20L37 20L37 17L36 17L36 15L34 15L34 14ZM30 15L30 16L31 16L31 15ZM14 16L14 18L16 18L16 16ZM27 17L27 19L28 19L28 17ZM38 17L38 18L39 18L39 17ZM40 17L40 18L41 18L41 17ZM11 19L11 20L12 20L12 22L13 22L13 23L12 23L12 24L11 24L11 25L12 25L12 26L11 26L11 28L10 28L10 29L9 29L9 30L8 30L8 31L10 31L10 32L9 32L9 34L6 34L6 35L7 35L7 36L8 36L8 35L11 35L11 34L10 34L10 33L11 33L11 32L12 32L12 31L14 31L14 32L15 32L15 30L12 30L12 31L10 31L10 29L11 29L11 28L12 28L12 29L13 29L13 28L15 28L15 27L16 27L16 26L15 26L15 27L13 27L13 26L14 26L14 24L15 24L15 23L16 23L16 22L18 22L18 23L19 23L19 24L20 24L20 23L19 23L19 22L18 22L18 21L20 21L20 22L21 22L21 21L20 21L20 20L18 20L18 19L17 19L17 20L18 20L18 21L16 21L16 19L15 19L15 20L14 20L14 21L15 21L15 22L13 22L13 19ZM41 19L41 20L42 20L42 19ZM28 20L28 22L29 22L29 20ZM4 21L4 22L7 22L7 21ZM43 21L43 22L44 22L44 21ZM5 23L5 26L8 26L8 23ZM13 23L13 24L12 24L12 25L13 25L13 24L14 24L14 23ZM23 23L23 26L26 26L26 23ZM30 23L30 25L29 25L29 26L30 26L30 25L31 25L31 27L29 27L29 28L28 28L28 29L29 29L29 28L30 28L30 29L31 29L31 28L32 28L32 29L34 29L34 33L38 33L38 32L40 32L40 31L39 31L39 30L38 30L38 29L37 29L37 30L36 30L36 27L34 27L34 26L33 26L33 25L34 25L34 24L33 24L33 25L31 25L31 23ZM41 23L41 26L44 26L44 23ZM6 24L6 25L7 25L7 24ZM16 24L16 25L18 25L18 24ZM24 24L24 25L25 25L25 24ZM42 24L42 25L43 25L43 24ZM32 26L32 27L33 27L33 26ZM46 27L46 28L47 28L47 27ZM6 28L6 29L5 29L5 31L7 31L7 30L6 30L6 29L7 29L7 28ZM21 28L21 31L22 31L22 28ZM34 28L34 29L35 29L35 28ZM35 30L35 31L36 31L36 32L38 32L38 31L36 31L36 30ZM16 31L16 32L18 32L18 31ZM48 32L48 33L47 33L47 34L46 34L46 37L47 37L47 35L48 35L48 33L49 33L49 32ZM12 33L12 36L13 36L13 37L10 37L10 38L9 38L9 37L8 37L8 38L9 38L9 39L13 39L13 40L15 40L15 37L14 37L14 36L15 36L15 35L16 35L16 33L14 33L14 34L13 34L13 33ZM14 34L14 35L15 35L15 34ZM20 34L20 36L21 36L21 34ZM32 34L32 35L33 35L33 34ZM18 35L18 36L19 36L19 35ZM35 36L35 37L36 37L36 36ZM40 36L40 37L42 37L42 36ZM48 36L48 38L49 38L49 36ZM13 37L13 38L14 38L14 37ZM18 37L18 38L20 38L20 39L21 39L21 40L23 40L23 39L22 39L22 38L21 38L21 37ZM29 37L29 38L30 38L30 37ZM24 39L24 40L25 40L25 39ZM41 39L41 40L40 40L40 42L39 42L39 43L40 43L40 45L39 45L39 47L42 47L42 46L44 46L44 47L43 47L43 48L44 48L44 47L46 47L46 49L49 49L49 48L47 48L47 46L45 46L45 45L46 45L46 44L45 44L45 43L46 43L46 42L48 42L48 43L47 43L47 44L48 44L48 43L49 43L49 41L48 41L48 40L42 40L42 39ZM23 41L23 44L26 44L26 41ZM41 41L41 44L44 44L44 41ZM45 41L45 42L46 42L46 41ZM24 42L24 43L25 43L25 42ZM27 42L27 45L26 45L26 46L25 46L25 47L26 47L26 48L27 48L27 47L26 47L26 46L27 46L27 45L28 45L28 46L29 46L29 47L30 47L30 45L29 45L29 44L28 44L28 42ZM42 42L42 43L43 43L43 42ZM12 45L12 47L13 47L13 45ZM40 45L40 46L42 46L42 45ZM48 45L48 46L49 46L49 45ZM9 46L9 47L10 47L10 46ZM14 46L14 48L13 48L13 49L16 49L16 48L15 48L15 46ZM23 46L23 47L24 47L24 46ZM36 46L36 47L37 47L37 46ZM18 47L18 48L17 48L17 49L19 49L19 47ZM33 47L33 48L34 48L34 47ZM40 48L40 49L42 49L42 48ZM0 0L0 7L7 7L7 0ZM1 1L1 6L6 6L6 1ZM2 2L2 5L5 5L5 2ZM42 0L42 7L49 7L49 0ZM43 1L43 6L48 6L48 1ZM44 2L44 5L47 5L47 2ZM0 42L0 49L7 49L7 42ZM1 43L1 48L6 48L6 43ZM2 44L2 47L5 47L5 44Z" fill="#000000"/></g></g></svg>
