<?xml version="1.0" encoding="UTF-8"?>
<svg xmlns="http://www.w3.org/2000/svg" version="1.1" width="200" height="200" viewBox="0 0 200 200"><rect x="0" y="0" width="200" height="200" fill="#ffffff"/><g transform="scale(3.774)"><g transform="translate(2,2)"><path fill-rule="evenodd" d="M9 0L9 1L8 1L8 2L9 2L9 1L10 1L10 2L11 2L11 1L13 1L13 2L12 2L12 3L10 3L10 4L12 4L12 7L13 7L13 8L11 8L11 5L10 5L10 7L9 7L9 5L8 5L8 8L4 8L4 9L3 9L3 10L2 10L2 9L1 9L1 10L0 10L0 11L1 11L1 12L0 12L0 14L1 14L1 13L2 13L2 15L3 15L3 17L2 17L2 16L1 16L1 15L0 15L0 16L1 16L1 18L0 18L0 20L2 20L2 19L3 19L3 20L5 20L5 21L8 21L8 22L3 22L3 21L1 21L1 22L3 22L3 23L2 23L2 24L1 24L1 23L0 23L0 26L1 26L1 27L0 27L0 30L1 30L1 31L2 31L2 33L3 33L3 34L4 34L4 33L3 33L3 32L4 32L4 31L5 31L5 34L6 34L6 35L5 35L5 36L4 36L4 37L3 37L3 36L2 36L2 37L1 37L1 33L0 33L0 37L1 37L1 40L0 40L0 41L3 41L3 40L4 40L4 39L2 39L2 38L5 38L5 39L7 39L7 40L6 40L6 41L8 41L8 45L10 45L10 46L9 46L9 47L10 47L10 46L11 46L11 45L10 45L10 44L11 44L11 42L12 42L12 43L13 43L13 44L12 44L12 47L11 47L11 48L12 48L12 47L13 47L13 48L16 48L16 46L17 46L17 45L15 45L15 44L18 44L18 41L17 41L17 40L19 40L19 41L20 41L20 40L22 40L22 41L21 41L21 42L20 42L20 43L21 43L21 45L18 45L18 46L21 46L21 47L17 47L17 49L20 49L20 48L21 48L21 49L22 49L22 48L21 48L21 47L22 47L22 46L21 46L21 45L23 45L23 46L24 46L24 47L26 47L26 46L27 46L27 44L28 44L28 45L29 45L29 46L30 46L30 49L33 49L33 48L34 48L34 49L35 49L35 47L36 47L36 49L37 49L37 47L38 47L38 49L42 49L42 46L43 46L43 45L46 45L46 47L45 47L45 48L43 48L43 49L49 49L49 48L48 48L48 47L47 47L47 44L48 44L48 46L49 46L49 44L48 44L48 41L49 41L49 39L48 39L48 37L49 37L49 36L48 36L48 33L47 33L47 31L48 31L48 29L49 29L49 27L48 27L48 26L47 26L47 24L49 24L49 23L48 23L48 21L49 21L49 20L48 20L48 21L47 21L47 19L48 19L48 17L49 17L49 16L48 16L48 13L49 13L49 11L48 11L48 8L47 8L47 10L46 10L46 11L45 11L45 9L44 9L44 8L42 8L42 11L39 11L39 9L41 9L41 6L40 6L40 7L39 7L39 5L38 5L38 7L39 7L39 9L38 9L38 8L36 8L36 9L35 9L35 12L34 12L34 13L35 13L35 12L36 12L36 14L35 14L35 15L36 15L36 17L38 17L38 16L39 16L39 17L40 17L40 15L41 15L41 14L39 14L39 13L41 13L41 12L42 12L42 15L43 15L43 17L42 17L42 16L41 16L41 17L42 17L42 18L40 18L40 19L39 19L39 20L37 20L37 19L36 19L36 18L35 18L35 16L34 16L34 17L33 17L33 16L30 16L30 14L31 14L31 15L33 15L33 14L32 14L32 13L33 13L33 11L32 11L32 10L33 10L33 9L32 9L32 7L33 7L33 8L35 8L35 6L36 6L36 7L37 7L37 5L33 5L33 4L36 4L36 3L37 3L37 2L39 2L39 4L40 4L40 3L41 3L41 0L40 0L40 1L36 1L36 3L35 3L35 1L33 1L33 0L32 0L32 1L33 1L33 2L32 2L32 5L33 5L33 6L32 6L32 7L31 7L31 6L30 6L30 7L31 7L31 9L30 9L30 8L29 8L29 9L30 9L30 10L29 10L29 11L28 11L28 9L27 9L27 5L28 5L28 3L26 3L26 4L25 4L25 2L23 2L23 1L24 1L24 0L22 0L22 1L20 1L20 2L19 2L19 1L18 1L18 2L19 2L19 3L18 3L18 4L15 4L15 5L14 5L14 4L13 4L13 3L15 3L15 2L17 2L17 0L16 0L16 1L15 1L15 0L11 0L11 1L10 1L10 0ZM25 0L25 1L26 1L26 2L27 2L27 1L28 1L28 0L27 0L27 1L26 1L26 0ZM29 0L29 1L30 1L30 2L29 2L29 4L30 4L30 5L31 5L31 1L30 1L30 0ZM20 2L20 3L19 3L19 4L18 4L18 5L17 5L17 7L16 7L16 5L15 5L15 7L14 7L14 6L13 6L13 7L14 7L14 8L15 8L15 10L14 10L14 9L13 9L13 10L14 10L14 12L15 12L15 11L16 11L16 8L17 8L17 7L18 7L18 10L19 10L19 11L17 11L17 12L16 12L16 13L15 13L15 14L14 14L14 13L13 13L13 14L12 14L12 12L13 12L13 11L11 11L11 13L8 13L8 14L12 14L12 16L11 16L11 17L10 17L10 19L8 19L8 18L9 18L9 15L6 15L6 14L7 14L7 13L6 13L6 12L8 12L8 11L9 11L9 12L10 12L10 10L11 10L11 9L10 9L10 8L8 8L8 9L4 9L4 10L8 10L8 11L6 11L6 12L5 12L5 11L2 11L2 13L3 13L3 15L4 15L4 17L3 17L3 18L4 18L4 19L6 19L6 20L10 20L10 19L12 19L12 20L11 20L11 22L10 22L10 21L9 21L9 23L10 23L10 24L9 24L9 25L10 25L10 27L11 27L11 30L9 30L9 32L8 32L8 31L6 31L6 30L8 30L8 29L10 29L10 28L8 28L8 27L6 27L6 28L5 28L5 29L6 29L6 30L5 30L5 31L6 31L6 32L8 32L8 34L7 34L7 33L6 33L6 34L7 34L7 35L6 35L6 36L7 36L7 35L8 35L8 36L9 36L9 37L10 37L10 36L9 36L9 35L10 35L10 34L11 34L11 35L12 35L12 31L13 31L13 32L14 32L14 33L13 33L13 34L15 34L15 35L16 35L16 34L17 34L17 35L18 35L18 36L17 36L17 38L16 38L16 36L15 36L15 37L14 37L14 38L13 38L13 36L12 36L12 37L11 37L11 39L12 39L12 40L11 40L11 41L10 41L10 42L9 42L9 44L10 44L10 42L11 42L11 41L12 41L12 42L13 42L13 39L14 39L14 38L16 38L16 39L15 39L15 40L14 40L14 41L16 41L16 40L17 40L17 39L18 39L18 37L20 37L20 38L21 38L21 37L20 37L20 36L22 36L22 38L23 38L23 36L24 36L24 33L25 33L25 34L26 34L26 35L25 35L25 36L26 36L26 35L28 35L28 34L31 34L31 33L32 33L32 34L33 34L33 35L35 35L35 37L33 37L33 38L32 38L32 37L31 37L31 35L29 35L29 36L28 36L28 37L24 37L24 38L25 38L25 39L26 39L26 40L27 40L27 41L28 41L28 44L29 44L29 43L30 43L30 46L31 46L31 47L35 47L35 46L36 46L36 47L37 47L37 46L36 46L36 43L37 43L37 45L38 45L38 43L39 43L39 42L40 42L40 39L41 39L41 40L42 40L42 39L43 39L43 40L46 40L46 39L47 39L47 37L48 37L48 36L47 36L47 37L45 37L45 35L44 35L44 34L43 34L43 33L45 33L45 31L44 31L44 29L45 29L45 30L46 30L46 31L47 31L47 29L45 29L45 27L43 27L43 28L44 28L44 29L43 29L43 30L42 30L42 27L41 27L41 29L40 29L40 24L39 24L39 23L40 23L40 22L42 22L42 21L43 21L43 19L44 19L44 18L42 18L42 20L41 20L41 21L39 21L39 23L37 23L37 25L36 25L36 23L35 23L35 22L36 22L36 19L35 19L35 21L34 21L34 19L32 19L32 18L33 18L33 17L32 17L32 18L31 18L31 17L29 17L29 18L31 18L31 19L30 19L30 21L27 21L27 20L29 20L29 19L28 19L28 16L29 16L29 15L28 15L28 14L29 14L29 13L26 13L26 14L27 14L27 17L25 17L25 16L24 16L24 15L25 15L25 14L24 14L24 13L25 13L25 12L24 12L24 11L25 11L25 10L26 10L26 9L25 9L25 10L24 10L24 9L23 9L23 10L24 10L24 11L22 11L22 12L21 12L21 11L20 11L20 10L21 10L21 9L22 9L22 6L21 6L21 5L19 5L19 4L20 4L20 3L22 3L22 4L23 4L23 2ZM18 5L18 7L19 7L19 10L20 10L20 9L21 9L21 6L20 6L20 7L19 7L19 5ZM23 5L23 8L26 8L26 5ZM24 6L24 7L25 7L25 6ZM28 6L28 7L29 7L29 6ZM33 6L33 7L34 7L34 6ZM8 9L8 10L9 10L9 9ZM30 10L30 11L31 11L31 10ZM36 10L36 11L37 11L37 13L39 13L39 11L37 11L37 10ZM43 10L43 11L42 11L42 12L43 12L43 11L44 11L44 10ZM19 11L19 12L20 12L20 13L21 13L21 12L20 12L20 11ZM3 12L3 13L4 13L4 12ZM22 12L22 13L24 13L24 12ZM30 12L30 13L32 13L32 12ZM47 12L47 13L48 13L48 12ZM43 13L43 15L44 15L44 13ZM4 14L4 15L5 15L5 14ZM13 14L13 15L14 15L14 14ZM15 14L15 15L16 15L16 16L13 16L13 17L15 17L15 19L14 19L14 20L13 20L13 21L12 21L12 22L11 22L11 26L12 26L12 27L13 27L13 28L12 28L12 29L14 29L14 32L16 32L16 33L17 33L17 34L18 34L18 35L23 35L23 34L18 34L18 33L20 33L20 32L22 32L22 33L24 33L24 32L22 32L22 30L26 30L26 32L28 32L28 33L27 33L27 34L28 34L28 33L29 33L29 32L30 32L30 31L29 31L29 30L28 30L28 29L30 29L30 30L31 30L31 29L32 29L32 31L33 31L33 32L34 32L34 31L33 31L33 29L34 29L34 27L31 27L31 25L32 25L32 26L33 26L33 24L35 24L35 23L33 23L33 24L32 24L32 22L31 22L31 21L30 21L30 22L29 22L29 23L27 23L27 22L26 22L26 21L25 21L25 20L24 20L24 19L27 19L27 18L24 18L24 16L23 16L23 19L22 19L22 14L20 14L20 15L19 15L19 14L18 14L18 15L17 15L17 14ZM36 14L36 15L37 15L37 14ZM46 14L46 15L45 15L45 16L46 16L46 15L47 15L47 14ZM20 15L20 19L19 19L19 20L18 20L18 19L16 19L16 20L18 20L18 21L17 21L17 23L16 23L16 21L15 21L15 20L14 20L14 21L13 21L13 22L12 22L12 23L13 23L13 22L14 22L14 23L16 23L16 24L17 24L17 23L18 23L18 26L17 26L17 25L14 25L14 24L12 24L12 26L14 26L14 27L15 27L15 28L14 28L14 29L15 29L15 31L16 31L16 32L17 32L17 31L19 31L19 32L20 32L20 31L21 31L21 30L22 30L22 28L21 28L21 27L22 27L22 22L24 22L24 20L23 20L23 21L22 21L22 20L21 20L21 15ZM6 16L6 17L7 17L7 16ZM16 16L16 18L19 18L19 16ZM47 16L47 17L45 17L45 18L46 18L46 19L47 19L47 17L48 17L48 16ZM11 17L11 18L12 18L12 19L13 19L13 18L12 18L12 17ZM6 18L6 19L7 19L7 18ZM31 19L31 20L32 20L32 19ZM19 20L19 21L18 21L18 23L19 23L19 22L20 22L20 23L21 23L21 22L22 22L22 21L21 21L21 20ZM14 21L14 22L15 22L15 21ZM20 21L20 22L21 22L21 21ZM44 21L44 22L45 22L45 23L47 23L47 21ZM5 23L5 26L8 26L8 23ZM23 23L23 26L26 26L26 23ZM41 23L41 26L44 26L44 23ZM3 24L3 25L1 25L1 26L3 26L3 25L4 25L4 24ZM6 24L6 25L7 25L7 24ZM19 24L19 26L18 26L18 27L19 27L19 28L18 28L18 29L17 29L17 28L16 28L16 31L17 31L17 30L19 30L19 29L20 29L20 30L21 30L21 29L20 29L20 27L21 27L21 24ZM24 24L24 25L25 25L25 24ZM27 24L27 25L28 25L28 24ZM29 24L29 26L28 26L28 27L27 27L27 28L26 28L26 30L27 30L27 31L28 31L28 32L29 32L29 31L28 31L28 30L27 30L27 28L30 28L30 29L31 29L31 27L29 27L29 26L30 26L30 24ZM38 24L38 25L37 25L37 27L36 27L36 29L35 29L35 33L36 33L36 30L37 30L37 31L39 31L39 29L38 29L38 28L37 28L37 27L39 27L39 24ZM42 24L42 25L43 25L43 24ZM35 25L35 26L36 26L36 25ZM45 25L45 26L46 26L46 25ZM19 26L19 27L20 27L20 26ZM3 27L3 28L1 28L1 29L2 29L2 30L3 30L3 31L4 31L4 27ZM23 27L23 29L25 29L25 27ZM47 27L47 28L48 28L48 27ZM6 28L6 29L7 29L7 28ZM11 30L11 31L10 31L10 32L9 32L9 33L10 33L10 32L11 32L11 31L12 31L12 30ZM41 30L41 31L40 31L40 32L42 32L42 33L43 33L43 32L44 32L44 31L42 31L42 30ZM37 32L37 34L36 34L36 38L35 38L35 39L31 39L31 40L30 40L30 38L31 38L31 37L30 37L30 38L29 38L29 39L28 39L28 38L27 38L27 39L28 39L28 41L30 41L30 43L31 43L31 46L32 46L32 45L33 45L33 44L35 44L35 43L36 43L36 42L34 42L34 43L31 43L31 42L33 42L33 41L34 41L34 40L35 40L35 39L36 39L36 41L37 41L37 43L38 43L38 42L39 42L39 40L38 40L38 41L37 41L37 39L39 39L39 38L41 38L41 39L42 39L42 38L45 38L45 37L43 37L43 36L44 36L44 35L42 35L42 34L41 34L41 35L40 35L40 34L39 34L39 32ZM46 33L46 35L47 35L47 33ZM37 35L37 37L38 37L38 35ZM39 35L39 37L41 37L41 38L42 38L42 35L41 35L41 36L40 36L40 35ZM5 37L5 38L7 38L7 39L8 39L8 40L10 40L10 38L7 38L7 37ZM23 39L23 40L24 40L24 39ZM47 40L47 41L45 41L45 42L47 42L47 41L48 41L48 40ZM23 41L23 44L26 44L26 41ZM41 41L41 44L44 44L44 41ZM24 42L24 43L25 43L25 42ZM42 42L42 43L43 43L43 42ZM14 43L14 44L13 44L13 47L15 47L15 46L14 46L14 44L15 44L15 43ZM39 44L39 47L40 47L40 48L41 48L41 46L42 46L42 45L40 45L40 44ZM28 47L28 48L29 48L29 47ZM23 48L23 49L24 49L24 48ZM25 48L25 49L26 49L26 48ZM0 0L0 7L7 7L7 0ZM1 1L1 6L6 6L6 1ZM2 2L2 5L5 5L5 2ZM42 0L42 7L49 7L49 0ZM43 1L43 6L48 6L48 1ZM44 2L44 5L47 5L47 2ZM0 42L0 49L7 49L7 42ZM1 43L1 48L6 48L6 43ZM2 44L2 47L5 47L5 44Z" fill="#000000"/></g></g></svg>
