<?xml version="1.0" encoding="UTF-8"?>
<svg xmlns="http://www.w3.org/2000/svg" version="1.1" width="200" height="200" viewBox="0 0 200 200"><rect x="0" y="0" width="200" height="200" fill="#ffffff"/><g transform="scale(3.774)"><g transform="translate(2,2)"><path fill-rule="evenodd" d="M8 0L8 3L9 3L9 2L10 2L10 3L11 3L11 5L10 5L10 4L9 4L9 5L8 5L8 9L7 9L7 8L6 8L6 9L7 9L7 10L6 10L6 11L5 11L5 12L4 12L4 13L3 13L3 12L2 12L2 11L1 11L1 10L0 10L0 11L1 11L1 12L0 12L0 15L1 15L1 14L2 14L2 15L3 15L3 16L2 16L2 17L3 17L3 18L0 18L0 19L1 19L1 20L2 20L2 19L3 19L3 21L0 21L0 23L1 23L1 22L3 22L3 23L4 23L4 24L3 24L3 25L1 25L1 24L0 24L0 27L1 27L1 28L0 28L0 30L1 30L1 29L2 29L2 30L3 30L3 29L4 29L4 31L3 31L3 32L4 32L4 31L5 31L5 29L4 29L4 28L3 28L3 27L8 27L8 28L9 28L9 29L10 29L10 32L8 32L8 31L7 31L7 30L6 30L6 31L7 31L7 32L5 32L5 34L4 34L4 35L3 35L3 34L2 34L2 36L3 36L3 37L4 37L4 38L5 38L5 39L7 39L7 40L6 40L6 41L7 41L7 40L8 40L8 39L7 39L7 38L5 38L5 37L7 37L7 36L5 36L5 35L7 35L7 34L6 34L6 33L10 33L10 34L8 34L8 35L10 35L10 37L9 37L9 38L14 38L14 39L11 39L11 40L10 40L10 41L12 41L12 42L13 42L13 41L12 41L12 40L14 40L14 41L15 41L15 40L16 40L16 39L15 39L15 38L17 38L17 39L18 39L18 38L17 38L17 36L18 36L18 35L17 35L17 36L16 36L16 35L15 35L15 34L16 34L16 33L17 33L17 34L18 34L18 33L19 33L19 35L21 35L21 33L22 33L22 35L23 35L23 38L24 38L24 37L25 37L25 38L27 38L27 40L26 40L26 39L25 39L25 40L24 40L24 39L23 39L23 40L22 40L22 38L21 38L21 39L20 39L20 38L19 38L19 41L20 41L20 42L18 42L18 41L17 41L17 42L16 42L16 43L13 43L13 44L12 44L12 46L11 46L11 43L9 43L9 44L8 44L8 47L10 47L10 48L9 48L9 49L10 49L10 48L11 48L11 47L12 47L12 48L13 48L13 49L16 49L16 48L17 48L17 49L19 49L19 48L20 48L20 49L21 49L21 47L22 47L22 48L23 48L23 49L24 49L24 48L25 48L25 47L24 47L24 46L25 46L25 45L27 45L27 46L28 46L28 47L29 47L29 48L27 48L27 47L26 47L26 49L29 49L29 48L30 48L30 45L29 45L29 44L30 44L30 42L31 42L31 40L34 40L34 39L35 39L35 40L36 40L36 41L38 41L38 40L36 40L36 39L39 39L39 38L36 38L36 39L35 39L35 38L34 38L34 37L35 37L35 36L36 36L36 37L38 37L38 36L36 36L36 34L34 34L34 32L35 32L35 33L36 33L36 32L37 32L37 31L39 31L39 30L40 30L40 31L41 31L41 30L42 30L42 31L43 31L43 32L42 32L42 33L45 33L45 32L46 32L46 33L47 33L47 34L44 34L44 35L43 35L43 34L42 34L42 35L41 35L41 34L40 34L40 32L39 32L39 34L37 34L37 35L41 35L41 36L42 36L42 39L41 39L41 37L40 37L40 36L39 36L39 37L40 37L40 39L41 39L41 40L39 40L39 43L38 43L38 42L36 42L36 43L35 43L35 44L36 44L36 47L35 47L35 46L34 46L34 43L31 43L31 44L33 44L33 45L32 45L32 46L34 46L34 47L31 47L31 48L33 48L33 49L35 49L35 48L36 48L36 49L37 49L37 48L36 48L36 47L39 47L39 48L40 48L40 49L42 49L42 48L43 48L43 46L46 46L46 45L47 45L47 44L46 44L46 41L47 41L47 42L48 42L48 46L47 46L47 47L48 47L48 48L46 48L46 47L45 47L45 48L46 48L46 49L49 49L49 42L48 42L48 41L49 41L49 40L48 40L48 41L47 41L47 40L46 40L46 41L45 41L45 40L42 40L42 39L43 39L43 37L45 37L45 38L46 38L46 39L47 39L47 38L48 38L48 39L49 39L49 38L48 38L48 37L49 37L49 34L48 34L48 33L47 33L47 32L49 32L49 30L48 30L48 29L49 29L49 26L48 26L48 27L47 27L47 28L46 28L46 26L47 26L47 24L46 24L46 22L45 22L45 21L44 21L44 22L43 22L43 21L42 21L42 22L40 22L40 21L41 21L41 20L40 20L40 19L39 19L39 20L40 20L40 21L39 21L39 22L37 22L37 20L36 20L36 19L37 19L37 18L40 18L40 17L39 17L39 16L41 16L41 17L42 17L42 20L46 20L46 21L47 21L47 22L48 22L48 23L49 23L49 22L48 22L48 21L49 21L49 18L48 18L48 17L49 17L49 14L48 14L48 13L49 13L49 12L48 12L48 13L47 13L47 12L46 12L46 11L45 11L45 10L46 10L46 9L47 9L47 10L48 10L48 11L49 11L49 10L48 10L48 9L49 9L49 8L46 8L46 9L45 9L45 10L44 10L44 11L42 11L42 10L43 10L43 9L44 9L44 8L40 8L40 7L41 7L41 6L40 6L40 7L39 7L39 5L38 5L38 4L37 4L37 3L36 3L36 2L37 2L37 1L38 1L38 2L39 2L39 4L40 4L40 3L41 3L41 0L40 0L40 1L38 1L38 0L37 0L37 1L36 1L36 2L35 2L35 1L34 1L34 0L31 0L31 1L34 1L34 2L33 2L33 5L31 5L31 4L32 4L32 2L31 2L31 4L30 4L30 5L31 5L31 6L30 6L30 7L31 7L31 8L32 8L32 9L33 9L33 10L34 10L34 12L33 12L33 11L32 11L32 10L31 10L31 9L30 9L30 8L29 8L29 4L28 4L28 5L27 5L27 3L26 3L26 4L22 4L22 5L18 5L18 3L20 3L20 4L21 4L21 3L22 3L22 2L23 2L23 1L22 1L22 0L19 0L19 1L18 1L18 2L17 2L17 0L15 0L15 1L16 1L16 3L17 3L17 4L14 4L14 7L13 7L13 5L12 5L12 2L11 2L11 1L13 1L13 0L11 0L11 1L9 1L9 0ZM28 0L28 1L27 1L27 2L29 2L29 0ZM20 1L20 3L21 3L21 2L22 2L22 1ZM25 1L25 2L26 2L26 1ZM13 2L13 3L15 3L15 2ZM34 2L34 5L33 5L33 7L32 7L32 6L31 6L31 7L32 7L32 8L33 8L33 7L34 7L34 10L35 10L35 13L34 13L34 14L33 14L33 16L34 16L34 14L35 14L35 13L36 13L36 12L37 12L37 14L39 14L39 13L40 13L40 15L41 15L41 14L42 14L42 15L44 15L44 14L46 14L46 12L43 12L43 13L44 13L44 14L42 14L42 11L40 11L40 10L42 10L42 9L40 9L40 8L39 8L39 7L38 7L38 6L37 6L37 10L39 10L39 11L38 11L38 12L37 12L37 11L36 11L36 10L35 10L35 9L36 9L36 8L35 8L35 7L36 7L36 6L35 6L35 7L34 7L34 5L37 5L37 4L36 4L36 3L35 3L35 2ZM9 5L9 8L10 8L10 5ZM11 5L11 7L12 7L12 5ZM15 5L15 7L14 7L14 8L16 8L16 5ZM17 5L17 10L15 10L15 9L13 9L13 10L9 10L9 9L8 9L8 11L6 11L6 12L7 12L7 13L6 13L6 14L3 14L3 13L2 13L2 12L1 12L1 13L2 13L2 14L3 14L3 15L5 15L5 17L4 17L4 16L3 16L3 17L4 17L4 22L7 22L7 21L8 21L8 22L9 22L9 23L10 23L10 22L11 22L11 24L10 24L10 25L9 25L9 26L11 26L11 24L12 24L12 27L13 27L13 23L12 23L12 21L13 21L13 22L14 22L14 23L17 23L17 24L18 24L18 27L20 27L20 30L19 30L19 31L18 31L18 32L17 32L17 31L16 31L16 30L15 30L15 29L14 29L14 28L12 28L12 31L15 31L15 32L17 32L17 33L18 33L18 32L19 32L19 33L20 33L20 30L21 30L21 31L22 31L22 33L23 33L23 34L24 34L24 36L25 36L25 37L28 37L28 38L29 38L29 39L28 39L28 40L30 40L30 37L31 37L31 38L32 38L32 39L34 39L34 38L33 38L33 37L34 37L34 36L35 36L35 35L34 35L34 34L33 34L33 36L29 36L29 35L31 35L31 34L32 34L32 33L31 33L31 32L33 32L33 31L34 31L34 30L35 30L35 32L36 32L36 30L35 30L35 29L36 29L36 28L37 28L37 30L39 30L39 29L38 29L38 28L41 28L41 27L40 27L40 26L39 26L39 23L40 23L40 22L39 22L39 23L38 23L38 24L37 24L37 22L36 22L36 20L35 20L35 19L36 19L36 18L37 18L37 17L38 17L38 16L37 16L37 15L36 15L36 16L35 16L35 18L34 18L34 17L32 17L32 16L31 16L31 17L29 17L29 18L28 18L28 17L27 17L27 16L25 16L25 15L28 15L28 16L30 16L30 14L29 14L29 13L28 13L28 12L30 12L30 13L31 13L31 14L32 14L32 13L33 13L33 12L32 12L32 13L31 13L31 10L30 10L30 11L28 11L28 12L26 12L26 11L24 11L24 9L23 9L23 10L22 10L22 8L20 8L20 6L19 6L19 7L18 7L18 5ZM23 5L23 8L26 8L26 5ZM21 6L21 7L22 7L22 6ZM24 6L24 7L25 7L25 6ZM27 6L27 8L28 8L28 9L26 9L26 10L29 10L29 8L28 8L28 6ZM2 8L2 9L5 9L5 8ZM18 8L18 11L17 11L17 13L16 13L16 11L15 11L15 10L14 10L14 11L11 11L11 12L15 12L15 13L11 13L11 16L10 16L10 13L8 13L8 14L6 14L6 15L7 15L7 16L6 16L6 17L7 17L7 18L5 18L5 19L7 19L7 18L9 18L9 21L10 21L10 20L12 20L12 19L13 19L13 20L14 20L14 22L17 22L17 23L18 23L18 24L19 24L19 23L18 23L18 20L19 20L19 19L18 19L18 18L16 18L16 17L17 17L17 16L15 16L15 17L13 17L13 16L12 16L12 15L14 15L14 14L15 14L15 13L16 13L16 14L17 14L17 15L18 15L18 14L21 14L21 15L20 15L20 16L21 16L21 17L22 17L22 14L23 14L23 16L24 16L24 15L25 15L25 14L26 14L26 12L25 12L25 13L24 13L24 11L22 11L22 10L21 10L21 9L20 9L20 11L19 11L19 8ZM38 8L38 9L39 9L39 10L40 10L40 9L39 9L39 8ZM8 11L8 12L9 12L9 11ZM18 11L18 13L17 13L17 14L18 14L18 13L19 13L19 11ZM20 11L20 12L21 12L21 11ZM40 12L40 13L41 13L41 12ZM21 13L21 14L22 14L22 13ZM23 13L23 14L24 14L24 13ZM27 13L27 14L28 14L28 13ZM47 14L47 15L45 15L45 16L42 16L42 17L43 17L43 19L45 19L45 18L44 18L44 17L46 17L46 18L47 18L47 19L46 19L46 20L47 20L47 21L48 21L48 20L47 20L47 19L48 19L48 18L47 18L47 17L48 17L48 14ZM8 15L8 16L7 16L7 17L9 17L9 18L10 18L10 19L11 19L11 17L12 17L12 18L13 18L13 19L14 19L14 20L15 20L15 21L16 21L16 20L18 20L18 19L16 19L16 18L13 18L13 17L12 17L12 16L11 16L11 17L10 17L10 16L9 16L9 15ZM36 16L36 17L37 17L37 16ZM46 16L46 17L47 17L47 16ZM23 17L23 18L20 18L20 20L21 20L21 21L20 21L20 23L21 23L21 21L23 21L23 20L22 20L22 19L23 19L23 18L24 18L24 22L22 22L22 24L21 24L21 26L20 26L20 27L21 27L21 26L22 26L22 27L23 27L23 29L25 29L25 32L24 32L24 34L25 34L25 33L26 33L26 29L25 29L25 28L27 28L27 30L28 30L28 28L27 28L27 27L28 27L28 26L29 26L29 29L30 29L30 30L29 30L29 31L27 31L27 33L29 33L29 34L30 34L30 33L29 33L29 31L30 31L30 32L31 32L31 29L30 29L30 28L36 28L36 27L39 27L39 26L37 26L37 24L36 24L36 23L35 23L35 22L34 22L34 21L35 21L35 20L32 20L32 19L34 19L34 18L32 18L32 17L31 17L31 18L32 18L32 19L28 19L28 21L27 21L27 20L25 20L25 19L27 19L27 17L25 17L25 18L24 18L24 17ZM15 19L15 20L16 20L16 19ZM5 20L5 21L7 21L7 20ZM29 20L29 21L28 21L28 22L27 22L27 24L29 24L29 26L30 26L30 24L31 24L31 25L32 25L32 26L31 26L31 27L34 27L34 26L35 26L35 27L36 27L36 26L35 26L35 25L36 25L36 24L35 24L35 23L34 23L34 22L32 22L32 24L31 24L31 21L30 21L30 20ZM25 21L25 22L26 22L26 21ZM28 22L28 23L30 23L30 22ZM5 23L5 26L8 26L8 23ZM23 23L23 26L26 26L26 23ZM33 23L33 26L34 26L34 23ZM41 23L41 26L44 26L44 23ZM6 24L6 25L7 25L7 24ZM14 24L14 25L16 25L16 26L14 26L14 27L15 27L15 28L16 28L16 29L18 29L18 28L16 28L16 26L17 26L17 25L16 25L16 24ZM24 24L24 25L25 25L25 24ZM42 24L42 25L43 25L43 24ZM45 24L45 25L46 25L46 24ZM3 25L3 26L4 26L4 25ZM27 25L27 26L28 26L28 25ZM10 27L10 28L11 28L11 27ZM42 27L42 28L43 28L43 29L44 29L44 30L43 30L43 31L44 31L44 32L45 32L45 31L44 31L44 30L45 30L45 29L46 29L46 30L47 30L47 31L46 31L46 32L47 32L47 31L48 31L48 30L47 30L47 29L48 29L48 28L47 28L47 29L46 29L46 28L45 28L45 27ZM2 28L2 29L3 29L3 28ZM6 28L6 29L7 29L7 28ZM21 28L21 30L22 30L22 31L24 31L24 30L22 30L22 28ZM44 28L44 29L45 29L45 28ZM13 29L13 30L14 30L14 29ZM33 29L33 30L34 30L34 29ZM40 29L40 30L41 30L41 29ZM0 31L0 35L1 35L1 32L2 32L2 31ZM10 32L10 33L11 33L11 34L10 34L10 35L11 35L11 37L12 37L12 36L14 36L14 35L13 35L13 34L14 34L14 33L13 33L13 34L12 34L12 32ZM11 34L11 35L12 35L12 34ZM26 34L26 36L28 36L28 35L27 35L27 34ZM47 34L47 35L46 35L46 36L45 36L45 35L44 35L44 36L45 36L45 37L46 37L46 38L47 38L47 37L48 37L48 34ZM42 35L42 36L43 36L43 35ZM0 36L0 38L1 38L1 40L0 40L0 41L3 41L3 40L4 40L4 39L2 39L2 37L1 37L1 36ZM20 36L20 37L21 37L21 36ZM46 36L46 37L47 37L47 36ZM21 40L21 41L22 41L22 40ZM8 41L8 42L9 42L9 41ZM23 41L23 44L26 44L26 41ZM28 41L28 42L30 42L30 41ZM33 41L33 42L34 42L34 41ZM41 41L41 44L44 44L44 41ZM17 42L17 43L18 43L18 44L16 44L16 45L15 45L15 44L13 44L13 46L12 46L12 47L15 47L15 46L16 46L16 45L19 45L19 47L17 47L17 48L19 48L19 47L21 47L21 45L19 45L19 44L20 44L20 43L18 43L18 42ZM24 42L24 43L25 43L25 42ZM42 42L42 43L43 43L43 42ZM36 43L36 44L38 44L38 45L37 45L37 46L39 46L39 47L40 47L40 46L41 46L41 48L42 48L42 45L40 45L40 46L39 46L39 44L38 44L38 43ZM45 44L45 45L46 45L46 44ZM22 45L22 46L23 46L23 45ZM28 45L28 46L29 46L29 45ZM34 47L34 48L35 48L35 47ZM0 0L0 7L7 7L7 0ZM1 1L1 6L6 6L6 1ZM2 2L2 5L5 5L5 2ZM42 0L42 7L49 7L49 0ZM43 1L43 6L48 6L48 1ZM44 2L44 5L47 5L47 2ZM0 42L0 49L7 49L7 42ZM1 43L1 48L6 48L6 43ZM2 44L2 47L5 47L5 44Z" fill="#000000"/></g></g></svg>
