<?xml version="1.0" encoding="UTF-8"?>
<svg xmlns="http://www.w3.org/2000/svg" version="1.1" width="200" height="200" viewBox="0 0 200 200"><rect x="0" y="0" width="200" height="200" fill="#ffffff"/><g transform="scale(3.774)"><g transform="translate(2,2)"><path fill-rule="evenodd" d="M10 0L10 1L11 1L11 2L8 2L8 4L10 4L10 7L9 7L9 6L8 6L8 7L9 7L9 9L11 9L11 10L10 10L10 11L7 11L7 10L6 10L6 11L5 11L5 8L3 8L3 9L0 9L0 10L1 10L1 12L0 12L0 14L2 14L2 16L1 16L1 15L0 15L0 17L3 17L3 16L5 16L5 17L7 17L7 18L6 18L6 19L0 19L0 28L1 28L1 29L0 29L0 30L1 30L1 31L0 31L0 34L2 34L2 36L4 36L4 37L1 37L1 35L0 35L0 38L1 38L1 40L0 40L0 41L3 41L3 40L4 40L4 39L2 39L2 38L5 38L5 39L7 39L7 40L6 40L6 41L8 41L8 43L9 43L9 44L8 44L8 46L9 46L9 45L10 45L10 44L11 44L11 43L12 43L12 45L11 45L11 47L9 47L9 49L11 49L11 48L12 48L12 49L13 49L13 47L12 47L12 46L14 46L14 47L15 47L15 48L14 48L14 49L18 49L18 48L19 48L19 47L18 47L18 45L19 45L19 46L22 46L22 48L24 48L24 47L25 47L25 48L27 48L27 47L25 47L25 46L28 46L28 45L29 45L29 47L30 47L30 45L29 45L29 43L30 43L30 42L31 42L31 43L32 43L32 41L33 41L33 40L32 40L32 39L33 39L33 36L34 36L34 37L35 37L35 39L34 39L34 40L35 40L35 41L34 41L34 43L35 43L35 44L33 44L33 45L32 45L32 44L31 44L31 45L32 45L32 47L31 47L31 49L34 49L34 48L35 48L35 49L39 49L39 47L38 47L38 46L39 46L39 45L40 45L40 47L41 47L41 48L43 48L43 49L44 49L44 47L46 47L46 48L48 48L48 49L49 49L49 42L47 42L47 41L49 41L49 38L48 38L48 37L49 37L49 36L48 36L48 35L49 35L49 34L48 34L48 33L49 33L49 30L47 30L47 29L49 29L49 28L48 28L48 27L49 27L49 26L48 26L48 24L49 24L49 22L48 22L48 21L49 21L49 18L47 18L47 17L48 17L48 16L49 16L49 14L48 14L48 13L49 13L49 12L48 12L48 11L49 11L49 10L48 10L48 9L47 9L47 8L45 8L45 9L44 9L44 11L41 11L41 13L42 13L42 14L39 14L39 13L38 13L38 12L34 12L34 13L37 13L37 14L38 14L38 15L37 15L37 16L36 16L36 14L35 14L35 16L34 16L34 15L33 15L33 14L32 14L32 13L33 13L33 10L32 10L32 9L34 9L34 11L38 11L38 10L39 10L39 9L38 9L38 8L39 8L39 5L38 5L38 4L37 4L37 3L38 3L38 2L39 2L39 4L40 4L40 3L41 3L41 0L40 0L40 1L37 1L37 0L33 0L33 2L32 2L32 1L31 1L31 0L30 0L30 1L31 1L31 4L30 4L30 2L29 2L29 1L28 1L28 2L26 2L26 3L29 3L29 6L28 6L28 4L23 4L23 3L22 3L22 2L23 2L23 1L24 1L24 0L23 0L23 1L20 1L20 0L17 0L17 1L16 1L16 2L15 2L15 3L13 3L13 1L11 1L11 0ZM14 0L14 1L15 1L15 0ZM26 0L26 1L27 1L27 0ZM17 1L17 2L18 2L18 1ZM35 1L35 2L34 2L34 3L35 3L35 4L34 4L34 6L33 6L33 8L34 8L34 6L35 6L35 7L36 7L36 5L37 5L37 4L36 4L36 3L37 3L37 2L36 2L36 1ZM19 2L19 3L18 3L18 5L17 5L17 3L15 3L15 4L16 4L16 5L14 5L14 4L13 4L13 3L11 3L11 4L12 4L12 6L11 6L11 7L10 7L10 8L11 8L11 9L12 9L12 10L11 10L11 11L12 11L12 10L13 10L13 14L14 14L14 12L16 12L16 11L17 11L17 10L18 10L18 12L17 12L17 13L16 13L16 14L15 14L15 15L12 15L12 13L11 13L11 12L10 12L10 13L9 13L9 12L7 12L7 11L6 11L6 12L5 12L5 11L4 11L4 12L3 12L3 10L2 10L2 14L3 14L3 13L4 13L4 12L5 12L5 13L6 13L6 14L8 14L8 13L9 13L9 14L10 14L10 15L11 15L11 16L9 16L9 15L5 15L5 14L4 14L4 15L5 15L5 16L9 16L9 17L8 17L8 18L7 18L7 19L6 19L6 20L5 20L5 21L6 21L6 22L8 22L8 21L9 21L9 20L11 20L11 22L12 22L12 23L10 23L10 22L9 22L9 23L10 23L10 26L9 26L9 30L8 30L8 27L6 27L6 28L7 28L7 29L6 29L6 30L8 30L8 31L5 31L5 30L4 30L4 29L5 29L5 28L4 28L4 29L3 29L3 28L2 28L2 29L1 29L1 30L3 30L3 31L5 31L5 33L3 33L3 34L5 34L5 35L6 35L6 36L9 36L9 38L10 38L10 39L8 39L8 37L5 37L5 38L7 38L7 39L8 39L8 40L9 40L9 43L10 43L10 40L12 40L12 43L13 43L13 45L14 45L14 46L15 46L15 45L14 45L14 44L15 44L15 42L16 42L16 48L17 48L17 45L18 45L18 44L19 44L19 45L20 45L20 44L21 44L21 43L20 43L20 42L19 42L19 43L18 43L18 41L19 41L19 40L18 40L18 39L19 39L19 37L20 37L20 38L21 38L21 39L20 39L20 41L22 41L22 40L23 40L23 38L22 38L22 37L23 37L23 36L24 36L24 40L25 40L25 37L26 37L26 38L27 38L27 42L28 42L28 43L29 43L29 42L30 42L30 40L29 40L29 39L30 39L30 38L31 38L31 37L29 37L29 36L28 36L28 35L27 35L27 37L26 37L26 33L25 33L25 32L27 32L27 33L28 33L28 34L29 34L29 35L30 35L30 33L31 33L31 34L32 34L32 35L31 35L31 36L32 36L32 35L34 35L34 33L32 33L32 32L30 32L30 30L31 30L31 31L33 31L33 32L36 32L36 33L35 33L35 35L36 35L36 36L37 36L37 37L38 37L38 36L39 36L39 34L38 34L38 33L37 33L37 32L36 32L36 31L35 31L35 30L36 30L36 29L35 29L35 30L34 30L34 29L33 29L33 30L32 30L32 29L31 29L31 27L28 27L28 29L27 29L27 27L26 27L26 28L25 28L25 27L23 27L23 28L25 28L25 29L24 29L24 34L25 34L25 36L24 36L24 35L23 35L23 36L22 36L22 35L21 35L21 34L20 34L20 32L22 32L22 33L23 33L23 31L21 31L21 30L23 30L23 29L21 29L21 28L22 28L22 26L19 26L19 24L20 24L20 25L22 25L22 24L21 24L21 22L24 22L24 21L25 21L25 22L26 22L26 21L25 21L25 20L28 20L28 22L29 22L29 24L28 24L28 23L27 23L27 24L28 24L28 25L29 25L29 26L30 26L30 25L29 25L29 24L30 24L30 23L32 23L32 24L34 24L34 25L33 25L33 26L32 26L32 25L31 25L31 26L32 26L32 28L34 28L34 27L36 27L36 28L37 28L37 31L39 31L39 29L38 29L38 26L37 26L37 25L38 25L38 24L39 24L39 27L40 27L40 23L39 23L39 22L40 22L40 21L41 21L41 22L42 22L42 21L43 21L43 22L45 22L45 21L48 21L48 20L47 20L47 18L46 18L46 17L44 17L44 16L45 16L45 13L46 13L46 15L47 15L47 16L48 16L48 14L47 14L47 12L46 12L46 11L45 11L45 13L44 13L44 16L43 16L43 17L44 17L44 18L43 18L43 20L42 20L42 18L41 18L41 19L40 19L40 17L42 17L42 15L43 15L43 14L42 14L42 15L38 15L38 16L37 16L37 17L39 17L39 20L38 20L38 21L37 21L37 22L38 22L38 24L37 24L37 23L35 23L35 24L34 24L34 21L35 21L35 22L36 22L36 20L37 20L37 19L36 19L36 20L35 20L35 19L34 19L34 21L33 21L33 23L32 23L32 19L31 19L31 18L32 18L32 17L31 17L31 16L33 16L33 15L32 15L32 14L30 14L30 12L31 12L31 13L32 13L32 11L30 11L30 10L31 10L31 9L32 9L32 8L31 8L31 7L32 7L32 5L33 5L33 3L32 3L32 4L31 4L31 5L30 5L30 6L29 6L29 7L30 7L30 8L31 8L31 9L30 9L30 10L29 10L29 9L28 9L28 10L27 10L27 9L26 9L26 10L25 10L25 11L24 11L24 9L23 9L23 10L22 10L22 11L21 11L21 9L22 9L22 8L20 8L20 6L21 6L21 7L22 7L22 5L20 5L20 4L22 4L22 3L21 3L21 2ZM24 2L24 3L25 3L25 2ZM35 2L35 3L36 3L36 2ZM19 3L19 4L20 4L20 3ZM35 4L35 5L36 5L36 4ZM18 5L18 7L17 7L17 6L16 6L16 7L15 7L15 6L14 6L14 10L15 10L15 11L16 11L16 10L17 10L17 9L18 9L18 10L19 10L19 12L18 12L18 13L17 13L17 14L16 14L16 15L15 15L15 19L14 19L14 18L12 18L12 17L13 17L13 16L11 16L11 18L12 18L12 19L13 19L13 20L12 20L12 22L14 22L14 21L16 21L16 22L18 22L18 23L19 23L19 22L18 22L18 21L17 21L17 20L18 20L18 19L19 19L19 20L20 20L20 19L19 19L19 18L21 18L21 21L22 21L22 20L25 20L25 19L28 19L28 20L29 20L29 19L28 19L28 18L29 18L29 15L30 15L30 14L26 14L26 13L27 13L27 12L26 12L26 11L27 11L27 10L26 10L26 11L25 11L25 12L24 12L24 11L22 11L22 12L20 12L20 10L19 10L19 9L20 9L20 8L18 8L18 7L19 7L19 5ZM23 5L23 8L26 8L26 5ZM12 6L12 7L11 7L11 8L12 8L12 9L13 9L13 6ZM24 6L24 7L25 7L25 6ZM27 6L27 8L28 8L28 6ZM30 6L30 7L31 7L31 6ZM37 6L37 7L38 7L38 6ZM40 6L40 7L41 7L41 6ZM6 8L6 9L8 9L8 8ZM35 8L35 9L36 9L36 8ZM37 9L37 10L38 10L38 9ZM40 9L40 10L41 10L41 9ZM42 9L42 10L43 10L43 9ZM28 10L28 11L29 11L29 10ZM6 12L6 13L7 13L7 12ZM19 12L19 13L18 13L18 14L17 14L17 15L16 15L16 17L18 17L18 16L19 16L19 15L20 15L20 17L21 17L21 14L22 14L22 13L23 13L23 15L22 15L22 18L23 18L23 19L24 19L24 18L26 18L26 17L24 17L24 18L23 18L23 16L28 16L28 15L26 15L26 14L25 14L25 13L23 13L23 12L22 12L22 13L20 13L20 12ZM10 13L10 14L11 14L11 13ZM18 14L18 15L19 15L19 14ZM9 17L9 19L8 19L8 20L6 20L6 21L8 21L8 20L9 20L9 19L10 19L10 17ZM27 17L27 18L28 18L28 17ZM30 17L30 18L31 18L31 17ZM34 17L34 18L35 18L35 17ZM17 18L17 19L18 19L18 18ZM44 18L44 19L46 19L46 18ZM1 20L1 21L2 21L2 23L1 23L1 24L2 24L2 23L3 23L3 24L4 24L4 21L3 21L3 20ZM30 20L30 21L29 21L29 22L30 22L30 21L31 21L31 20ZM43 20L43 21L44 21L44 20ZM38 21L38 22L39 22L39 21ZM46 22L46 23L45 23L45 26L47 26L47 24L46 24L46 23L47 23L47 22ZM5 23L5 26L8 26L8 23ZM12 23L12 24L11 24L11 26L10 26L10 27L11 27L11 28L10 28L10 29L11 29L11 28L12 28L12 30L11 30L11 31L12 31L12 32L10 32L10 30L9 30L9 31L8 31L8 32L6 32L6 33L7 33L7 34L6 34L6 35L7 35L7 34L8 34L8 35L9 35L9 36L11 36L11 34L10 34L10 33L12 33L12 35L13 35L13 33L14 33L14 32L13 32L13 31L12 31L12 30L14 30L14 31L15 31L15 32L18 32L18 33L19 33L19 31L18 31L18 30L17 30L17 31L16 31L16 29L17 29L17 28L18 28L18 29L19 29L19 30L21 30L21 29L19 29L19 26L18 26L18 27L16 27L16 25L17 25L17 23L14 23L14 25L15 25L15 26L13 26L13 23ZM23 23L23 26L26 26L26 23ZM41 23L41 26L44 26L44 23ZM6 24L6 25L7 25L7 24ZM15 24L15 25L16 25L16 24ZM24 24L24 25L25 25L25 24ZM35 24L35 25L37 25L37 24ZM42 24L42 25L43 25L43 24ZM2 26L2 27L3 27L3 26ZM11 26L11 27L12 27L12 26ZM36 26L36 27L37 27L37 26ZM13 27L13 28L14 28L14 29L15 29L15 28L16 28L16 27ZM20 27L20 28L21 28L21 27ZM42 27L42 28L40 28L40 29L41 29L41 30L40 30L40 32L41 32L41 34L42 34L42 32L43 32L43 35L41 35L41 36L42 36L42 37L46 37L46 38L44 38L44 39L42 39L42 38L39 38L39 39L42 39L42 40L46 40L46 41L45 41L45 42L46 42L46 41L47 41L47 40L48 40L48 38L47 38L47 36L46 36L46 35L44 35L44 32L45 32L45 33L48 33L48 32L47 32L47 31L45 31L45 30L46 30L46 27L45 27L45 30L44 30L44 31L41 31L41 30L42 30L42 28L43 28L43 29L44 29L44 27ZM25 29L25 31L27 31L27 30L26 30L26 29ZM29 29L29 30L28 30L28 31L29 31L29 30L30 30L30 29ZM1 31L1 32L2 32L2 31ZM9 32L9 33L8 33L8 34L9 34L9 33L10 33L10 32ZM12 32L12 33L13 33L13 32ZM28 32L28 33L29 33L29 32ZM14 34L14 36L13 36L13 37L12 37L12 38L14 38L14 36L15 36L15 37L16 37L16 36L17 36L17 38L18 38L18 36L19 36L19 34L17 34L17 35L16 35L16 34ZM37 34L37 36L38 36L38 34ZM15 35L15 36L16 36L16 35ZM20 36L20 37L21 37L21 36ZM28 37L28 38L29 38L29 37ZM15 38L15 40L16 40L16 42L17 42L17 41L18 41L18 40L17 40L17 39L16 39L16 38ZM37 38L37 39L36 39L36 40L38 40L38 38ZM12 39L12 40L13 40L13 41L14 41L14 42L15 42L15 41L14 41L14 39ZM21 39L21 40L22 40L22 39ZM46 39L46 40L47 40L47 39ZM31 40L31 41L32 41L32 40ZM23 41L23 44L26 44L26 41ZM28 41L28 42L29 42L29 41ZM36 41L36 42L37 42L37 43L36 43L36 44L35 44L35 46L36 46L36 47L35 47L35 48L38 48L38 47L37 47L37 46L38 46L38 45L39 45L39 44L40 44L40 43L38 43L38 42L40 42L40 41ZM41 41L41 44L44 44L44 41ZM24 42L24 43L25 43L25 42ZM42 42L42 43L43 43L43 42ZM37 43L37 44L36 44L36 46L37 46L37 44L38 44L38 43ZM45 43L45 45L44 45L44 46L43 46L43 47L44 47L44 46L46 46L46 45L47 45L47 47L48 47L48 43ZM22 45L22 46L25 46L25 45ZM33 45L33 48L34 48L34 45ZM41 45L41 47L42 47L42 45ZM28 48L28 49L30 49L30 48ZM0 0L0 7L7 7L7 0ZM1 1L1 6L6 6L6 1ZM2 2L2 5L5 5L5 2ZM42 0L42 7L49 7L49 0ZM43 1L43 6L48 6L48 1ZM44 2L44 5L47 5L47 2ZM0 42L0 49L7 49L7 42ZM1 43L1 48L6 48L6 43ZM2 44L2 47L5 47L5 44Z" fill="#000000"/></g></g></svg>
