<?xml version="1.0" encoding="UTF-8"?>
<svg xmlns="http://www.w3.org/2000/svg" version="1.1" width="200" height="200" viewBox="0 0 200 200"><rect x="0" y="0" width="200" height="200" fill="#ffffff"/><g transform="scale(3.774)"><g transform="translate(2,2)"><path fill-rule="evenodd" d="M8 0L8 2L9 2L9 3L8 3L8 7L9 7L9 3L10 3L10 1L11 1L11 2L13 2L13 4L12 4L12 5L10 5L10 8L9 8L9 10L8 10L8 11L7 11L7 10L6 10L6 9L7 9L7 8L6 8L6 9L5 9L5 10L6 10L6 11L7 11L7 12L6 12L6 13L5 13L5 12L4 12L4 11L3 11L3 9L4 9L4 8L3 8L3 9L2 9L2 10L1 10L1 9L0 9L0 10L1 10L1 11L0 11L0 16L1 16L1 17L0 17L0 19L1 19L1 20L0 20L0 21L2 21L2 18L5 18L5 19L3 19L3 21L5 21L5 22L3 22L3 23L2 23L2 22L0 22L0 25L1 25L1 26L0 26L0 29L1 29L1 30L0 30L0 33L1 33L1 35L2 35L2 37L3 37L3 35L4 35L4 36L5 36L5 39L7 39L7 38L6 38L6 37L7 37L7 36L5 36L5 35L9 35L9 34L10 34L10 35L12 35L12 36L10 36L10 37L13 37L13 38L9 38L9 39L12 39L12 40L6 40L6 41L8 41L8 42L9 42L9 44L10 44L10 45L11 45L11 46L10 46L10 49L11 49L11 47L12 47L12 45L13 45L13 44L14 44L14 43L15 43L15 44L16 44L16 47L15 47L15 45L14 45L14 46L13 46L13 47L15 47L15 48L16 48L16 49L19 49L19 47L21 47L21 46L20 46L20 45L21 45L21 44L22 44L22 45L25 45L25 49L27 49L27 47L29 47L29 49L31 49L31 47L33 47L33 48L32 48L32 49L33 49L33 48L34 48L34 47L35 47L35 48L36 48L36 49L38 49L38 48L39 48L39 49L40 49L40 48L41 48L41 49L42 49L42 48L41 48L41 46L42 46L42 47L43 47L43 48L44 48L44 49L46 49L46 47L49 47L49 46L48 46L48 45L49 45L49 44L48 44L48 43L49 43L49 36L48 36L48 38L47 38L47 37L46 37L46 35L47 35L47 34L46 34L46 35L44 35L44 33L46 33L46 32L47 32L47 33L48 33L48 35L49 35L49 33L48 33L48 32L47 32L47 31L45 31L45 32L44 32L44 31L43 31L43 30L42 30L42 31L40 31L40 29L44 29L44 30L46 30L46 29L47 29L47 30L48 30L48 31L49 31L49 28L46 28L46 27L49 27L49 25L47 25L47 26L46 26L46 23L45 23L45 21L46 21L46 20L47 20L47 21L48 21L48 24L49 24L49 20L47 20L47 19L45 19L45 18L46 18L46 17L47 17L47 18L48 18L48 19L49 19L49 16L48 16L48 15L49 15L49 8L47 8L47 9L48 9L48 14L47 14L47 16L45 16L45 14L44 14L44 13L46 13L46 8L43 8L43 11L44 11L44 9L45 9L45 12L44 12L44 13L43 13L43 12L42 12L42 13L40 13L40 8L41 8L41 6L40 6L40 7L39 7L39 5L38 5L38 7L39 7L39 8L38 8L38 9L37 9L37 8L35 8L35 6L36 6L36 7L37 7L37 6L36 6L36 5L34 5L34 7L33 7L33 6L32 6L32 5L31 5L31 3L32 3L32 4L34 4L34 3L35 3L35 4L36 4L36 3L35 3L35 2L36 2L36 1L35 1L35 0L34 0L34 1L35 1L35 2L34 2L34 3L33 3L33 2L32 2L32 0L28 0L28 1L26 1L26 2L27 2L27 3L24 3L24 1L25 1L25 0L24 0L24 1L23 1L23 0L22 0L22 1L23 1L23 2L21 2L21 5L20 5L20 0L19 0L19 2L18 2L18 1L17 1L17 2L18 2L18 4L15 4L15 6L14 6L14 3L16 3L16 2L13 2L13 0ZM14 0L14 1L15 1L15 0ZM37 0L37 1L38 1L38 2L39 2L39 4L40 4L40 3L41 3L41 0L40 0L40 1L38 1L38 0ZM28 1L28 2L30 2L30 3L31 3L31 1ZM22 3L22 4L23 4L23 3ZM27 3L27 9L24 9L24 10L22 10L22 8L21 8L21 7L22 7L22 6L21 6L21 7L20 7L20 5L19 5L19 4L18 4L18 5L19 5L19 7L18 7L18 6L17 6L17 7L16 7L16 6L15 6L15 9L17 9L17 10L16 10L16 12L14 12L14 13L16 13L16 14L14 14L14 16L17 16L17 17L16 17L16 18L15 18L15 17L12 17L12 16L11 16L11 15L13 15L13 14L11 14L11 12L10 12L10 13L9 13L9 15L10 15L10 16L11 16L11 17L8 17L8 16L7 16L7 15L6 15L6 14L8 14L8 12L9 12L9 11L10 11L10 10L9 10L9 11L8 11L8 12L7 12L7 13L6 13L6 14L4 14L4 15L6 15L6 16L4 16L4 17L5 17L5 18L7 18L7 17L8 17L8 19L6 19L6 20L5 20L5 21L6 21L6 22L9 22L9 20L10 20L10 19L9 19L9 18L11 18L11 20L12 20L12 22L11 22L11 24L12 24L12 25L11 25L11 26L10 26L10 24L9 24L9 27L10 27L10 28L9 28L9 31L6 31L6 30L7 30L7 29L8 29L8 28L7 28L7 27L6 27L6 28L5 28L5 27L4 27L4 24L3 24L3 28L4 28L4 29L5 29L5 31L6 31L6 32L5 32L5 33L4 33L4 34L9 34L9 33L10 33L10 34L11 34L11 32L14 32L14 29L16 29L16 27L17 27L17 29L18 29L18 30L15 30L15 33L16 33L16 36L15 36L15 34L13 34L13 33L12 33L12 35L13 35L13 37L14 37L14 38L13 38L13 40L12 40L12 41L9 41L9 42L10 42L10 44L11 44L11 43L12 43L12 42L13 42L13 40L14 40L14 41L15 41L15 43L16 43L16 44L17 44L17 46L18 46L18 45L19 45L19 44L20 44L20 43L21 43L21 42L19 42L19 44L18 44L18 43L16 43L16 42L17 42L17 41L19 41L19 40L20 40L20 41L21 41L21 40L24 40L24 39L25 39L25 40L27 40L27 41L29 41L29 42L28 42L28 44L27 44L27 45L28 45L28 46L29 46L29 44L30 44L30 43L32 43L32 42L31 42L31 41L29 41L29 40L27 40L27 39L29 39L29 38L24 38L24 37L23 37L23 38L24 38L24 39L22 39L22 37L20 37L20 36L19 36L19 38L17 38L17 36L18 36L18 35L21 35L21 36L24 36L24 35L25 35L25 37L26 37L26 35L27 35L27 34L28 34L28 36L29 36L29 37L30 37L30 38L31 38L31 37L32 37L32 39L30 39L30 40L32 40L32 39L33 39L33 37L32 37L32 36L33 36L33 34L31 34L31 33L30 33L30 34L29 34L29 30L33 30L33 29L31 29L31 28L32 28L32 27L33 27L33 25L34 25L34 24L35 24L35 26L34 26L34 27L35 27L35 28L34 28L34 32L33 32L33 31L31 31L31 32L33 32L33 33L34 33L34 34L35 34L35 33L38 33L38 34L36 34L36 35L39 35L39 36L38 36L38 37L37 37L37 38L40 38L40 39L38 39L38 40L37 40L37 41L38 41L38 40L39 40L39 41L40 41L40 40L42 40L42 39L41 39L41 37L42 37L42 38L43 38L43 39L44 39L44 40L47 40L47 41L46 41L46 42L45 42L45 43L46 43L46 42L47 42L47 43L48 43L48 42L47 42L47 41L48 41L48 40L47 40L47 38L46 38L46 39L45 39L45 36L44 36L44 35L43 35L43 36L44 36L44 37L42 37L42 36L41 36L41 35L42 35L42 34L41 34L41 33L40 33L40 31L39 31L39 30L38 30L38 31L36 31L36 30L37 30L37 29L36 29L36 26L39 26L39 25L40 25L40 24L39 24L39 25L36 25L36 24L35 24L35 23L37 23L37 24L38 24L38 23L39 23L39 19L38 19L38 18L39 18L39 16L38 16L38 15L37 15L37 16L38 16L38 17L37 17L37 21L36 21L36 22L35 22L35 20L36 20L36 14L39 14L39 15L40 15L40 14L39 14L39 13L38 13L38 11L39 11L39 9L38 9L38 10L37 10L37 9L34 9L34 8L33 8L33 7L32 7L32 6L31 6L31 7L30 7L30 4L29 4L29 3ZM37 3L37 4L38 4L38 3ZM28 4L28 5L29 5L29 4ZM12 5L12 6L11 6L11 7L12 7L12 6L13 6L13 9L12 9L12 8L10 8L10 9L11 9L11 11L12 11L12 12L13 12L13 10L14 10L14 6L13 6L13 5ZM23 5L23 8L26 8L26 5ZM24 6L24 7L25 7L25 6ZM28 6L28 7L29 7L29 8L28 8L28 9L30 9L30 10L32 10L32 11L34 11L34 12L35 12L35 10L34 10L34 9L33 9L33 8L32 8L32 7L31 7L31 8L32 8L32 9L30 9L30 7L29 7L29 6ZM19 7L19 8L17 8L17 9L19 9L19 11L18 11L18 10L17 10L17 12L19 12L19 13L20 13L20 12L23 12L23 13L21 13L21 14L19 14L19 15L17 15L17 14L18 14L18 13L17 13L17 14L16 14L16 15L17 15L17 16L19 16L19 17L18 17L18 18L16 18L16 19L15 19L15 18L13 18L13 19L15 19L15 20L13 20L13 21L15 21L15 22L14 22L14 23L15 23L15 24L13 24L13 22L12 22L12 24L13 24L13 25L12 25L12 26L13 26L13 27L14 27L14 28L12 28L12 30L11 30L11 28L10 28L10 32L11 32L11 31L12 31L12 30L13 30L13 29L14 29L14 28L15 28L15 27L16 27L16 26L17 26L17 25L18 25L18 26L19 26L19 25L18 25L18 24L17 24L17 23L18 23L18 22L17 22L17 21L16 21L16 19L17 19L17 20L18 20L18 21L19 21L19 24L20 24L20 25L21 25L21 26L20 26L20 27L26 27L26 28L27 28L27 27L28 27L28 28L29 28L29 29L30 29L30 28L29 28L29 27L28 27L28 26L30 26L30 25L31 25L31 26L32 26L32 25L33 25L33 24L34 24L34 23L35 23L35 22L34 22L34 21L33 21L33 20L32 20L32 19L29 19L29 17L30 17L30 18L31 18L31 16L30 16L30 15L34 15L34 20L35 20L35 15L34 15L34 14L36 14L36 13L37 13L37 10L36 10L36 13L33 13L33 12L31 12L31 11L30 11L30 12L29 12L29 13L28 13L28 11L29 11L29 10L28 10L28 11L25 11L25 10L24 10L24 11L20 11L20 10L21 10L21 9L19 9L19 8L20 8L20 7ZM32 9L32 10L33 10L33 9ZM41 9L41 11L42 11L42 9ZM19 11L19 12L20 12L20 11ZM2 12L2 13L1 13L1 15L2 15L2 17L3 17L3 15L2 15L2 14L3 14L3 12ZM24 12L24 14L21 14L21 15L20 15L20 16L22 16L22 17L20 17L20 20L19 20L19 19L18 19L18 20L19 20L19 21L21 21L21 22L20 22L20 23L21 23L21 25L22 25L22 23L21 23L21 22L23 22L23 20L21 20L21 19L23 19L23 18L24 18L24 17L25 17L25 18L26 18L26 19L24 19L24 20L28 20L28 22L31 22L31 25L32 25L32 21L31 21L31 20L29 20L29 19L27 19L27 18L28 18L28 17L29 17L29 15L28 15L28 16L27 16L27 17L25 17L25 16L26 16L26 15L27 15L27 13L25 13L25 12ZM30 12L30 13L29 13L29 14L32 14L32 13L31 13L31 12ZM42 13L42 14L41 14L41 16L40 16L40 18L41 18L41 19L42 19L42 22L43 22L43 21L45 21L45 20L43 20L43 19L44 19L44 18L45 18L45 17L44 17L44 18L43 18L43 16L44 16L44 14L43 14L43 13ZM10 14L10 15L11 15L11 14ZM24 14L24 16L25 16L25 14ZM22 15L22 16L23 16L23 15ZM6 16L6 17L7 17L7 16ZM32 16L32 18L33 18L33 16ZM41 16L41 17L42 17L42 16ZM47 16L47 17L48 17L48 16ZM42 18L42 19L43 19L43 18ZM6 20L6 21L7 21L7 20ZM40 20L40 22L41 22L41 20ZM24 21L24 22L25 22L25 21ZM37 21L37 22L38 22L38 21ZM16 22L16 23L17 23L17 22ZM5 23L5 26L8 26L8 23ZM23 23L23 26L26 26L26 23ZM27 23L27 24L28 24L28 23ZM29 23L29 25L30 25L30 23ZM41 23L41 26L44 26L44 23ZM1 24L1 25L2 25L2 24ZM6 24L6 25L7 25L7 24ZM16 24L16 25L17 25L17 24ZM24 24L24 25L25 25L25 24ZM42 24L42 25L43 25L43 24ZM14 26L14 27L15 27L15 26ZM45 26L45 27L44 27L44 29L45 29L45 27L46 27L46 26ZM1 27L1 29L2 29L2 27ZM38 27L38 29L40 29L40 28L42 28L42 27ZM6 28L6 29L7 29L7 28ZM18 28L18 29L19 29L19 28ZM20 28L20 29L21 29L21 30L20 30L20 31L19 31L19 30L18 30L18 31L17 31L17 35L18 35L18 33L19 33L19 32L20 32L20 34L22 34L22 35L24 35L24 34L23 34L23 33L22 33L22 31L21 31L21 30L23 30L23 31L24 31L24 32L25 32L25 35L26 35L26 34L27 34L27 33L26 33L26 31L27 31L27 32L28 32L28 29L27 29L27 30L26 30L26 29L25 29L25 28L24 28L24 30L23 30L23 29L21 29L21 28ZM35 29L35 30L36 30L36 29ZM1 30L1 32L2 32L2 30ZM3 30L3 31L4 31L4 30ZM24 30L24 31L25 31L25 30ZM20 31L20 32L21 32L21 31ZM35 31L35 32L34 32L34 33L35 33L35 32L36 32L36 31ZM6 32L6 33L7 33L7 32ZM39 33L39 34L40 34L40 35L41 35L41 34L40 34L40 33ZM30 34L30 35L29 35L29 36L30 36L30 35L31 35L31 34ZM34 35L34 36L35 36L35 37L36 37L36 36L35 36L35 35ZM0 36L0 37L1 37L1 36ZM8 36L8 37L9 37L9 36ZM40 36L40 37L41 37L41 36ZM15 37L15 38L14 38L14 40L19 40L19 39L16 39L16 37ZM1 38L1 40L0 40L0 41L3 41L3 40L4 40L4 39L2 39L2 38ZM20 38L20 40L21 40L21 38ZM34 38L34 42L35 42L35 44L36 44L36 39L35 39L35 38ZM23 41L23 44L26 44L26 41ZM41 41L41 44L44 44L44 41ZM24 42L24 43L25 43L25 42ZM29 42L29 43L30 43L30 42ZM39 42L39 43L40 43L40 42ZM42 42L42 43L43 43L43 42ZM37 43L37 44L38 44L38 46L37 46L37 45L36 45L36 46L35 46L35 45L34 45L34 44L31 44L31 45L30 45L30 46L31 46L31 45L34 45L34 46L35 46L35 47L36 47L36 46L37 46L37 48L38 48L38 47L39 47L39 45L40 45L40 46L41 46L41 45L40 45L40 44L38 44L38 43ZM46 44L46 46L47 46L47 44ZM8 45L8 46L9 46L9 45ZM42 45L42 46L44 46L44 45ZM22 46L22 48L21 48L21 49L24 49L24 46ZM26 46L26 47L27 47L27 46ZM17 47L17 48L18 48L18 47ZM13 48L13 49L14 49L14 48ZM47 48L47 49L49 49L49 48ZM0 0L0 7L7 7L7 0ZM1 1L1 6L6 6L6 1ZM2 2L2 5L5 5L5 2ZM42 0L42 7L49 7L49 0ZM43 1L43 6L48 6L48 1ZM44 2L44 5L47 5L47 2ZM0 42L0 49L7 49L7 42ZM1 43L1 48L6 48L6 43ZM2 44L2 47L5 47L5 44Z" fill="#000000"/></g></g></svg>
