<?xml version="1.0" encoding="UTF-8"?>
<svg xmlns="http://www.w3.org/2000/svg" version="1.1" width="200" height="200" viewBox="0 0 200 200"><rect x="0" y="0" width="200" height="200" fill="#ffffff"/><g transform="scale(3.774)"><g transform="translate(2,2)"><path fill-rule="evenodd" d="M11 0L11 1L12 1L12 0ZM13 0L13 2L14 2L14 0ZM16 0L16 3L17 3L17 4L14 4L14 3L12 3L12 2L10 2L10 3L11 3L11 4L8 4L8 5L9 5L9 6L8 6L8 8L6 8L6 9L8 9L8 10L9 10L9 11L8 11L8 12L6 12L6 13L7 13L7 14L6 14L6 15L7 15L7 16L5 16L5 18L4 18L4 19L3 19L3 18L2 18L2 17L4 17L4 16L1 16L1 14L0 14L0 16L1 16L1 17L0 17L0 20L1 20L1 21L2 21L2 20L3 20L3 21L5 21L5 22L4 22L4 24L3 24L3 22L1 22L1 24L0 24L0 25L1 25L1 24L3 24L3 25L2 25L2 26L1 26L1 27L0 27L0 29L1 29L1 31L0 31L0 35L1 35L1 36L0 36L0 37L2 37L2 38L1 38L1 40L0 40L0 41L3 41L3 40L4 40L4 39L2 39L2 38L5 38L5 39L7 39L7 40L6 40L6 41L8 41L8 43L10 43L10 44L9 44L9 45L8 45L8 47L9 47L9 49L10 49L10 48L11 48L11 49L14 49L14 47L15 47L15 49L16 49L16 47L15 47L15 46L14 46L14 45L10 45L10 44L14 44L14 43L11 43L11 42L12 42L12 41L11 41L11 39L9 39L9 37L7 37L7 36L8 36L8 35L9 35L9 36L10 36L10 37L11 37L11 38L12 38L12 40L13 40L13 42L15 42L15 41L14 41L14 40L15 40L15 39L13 39L13 38L12 38L12 36L14 36L14 37L17 37L17 35L18 35L18 34L19 34L19 33L18 33L18 32L19 32L19 29L20 29L20 30L21 30L21 31L20 31L20 33L21 33L21 31L22 31L22 32L23 32L23 31L22 31L22 30L23 30L23 29L24 29L24 30L27 30L27 29L28 29L28 31L29 31L29 32L25 32L25 31L24 31L24 33L23 33L23 34L22 34L22 38L19 38L19 37L20 37L20 35L19 35L19 37L18 37L18 40L17 40L17 43L18 43L18 44L19 44L19 43L18 43L18 41L19 41L19 42L20 42L20 43L21 43L21 44L20 44L20 45L19 45L19 46L17 46L17 45L16 45L16 46L17 46L17 47L19 47L19 49L21 49L21 48L20 48L20 47L19 47L19 46L20 46L20 45L21 45L21 47L22 47L22 49L24 49L24 48L26 48L26 46L27 46L27 47L28 47L28 46L29 46L29 44L30 44L30 43L29 43L29 42L30 42L30 41L28 41L28 40L26 40L26 39L28 39L28 38L32 38L32 37L31 37L31 36L33 36L33 37L34 37L34 36L35 36L35 34L34 34L34 33L39 33L39 32L40 32L40 33L41 33L41 32L44 32L44 33L46 33L46 32L44 32L44 31L46 31L46 30L48 30L48 31L49 31L49 29L48 29L48 26L49 26L49 25L48 25L48 26L46 26L46 27L45 27L45 21L46 21L46 20L45 20L45 21L44 21L44 19L47 19L47 18L48 18L48 19L49 19L49 15L48 15L48 16L46 16L46 18L44 18L44 17L45 17L45 15L44 15L44 14L42 14L42 13L43 13L43 12L42 12L42 13L41 13L41 11L40 11L40 13L41 13L41 14L40 14L40 15L39 15L39 13L38 13L38 15L37 15L37 11L38 11L38 10L37 10L37 9L38 9L38 8L39 8L39 10L40 10L40 8L39 8L39 5L38 5L38 4L37 4L37 3L38 3L38 2L39 2L39 4L40 4L40 3L41 3L41 0L40 0L40 1L38 1L38 0L36 0L36 1L34 1L34 0L28 0L28 2L26 2L26 0L25 0L25 2L26 2L26 4L22 4L22 3L19 3L19 4L18 4L18 1L19 1L19 0L18 0L18 1L17 1L17 0ZM20 0L20 2L22 2L22 0ZM23 0L23 2L24 2L24 0ZM31 1L31 2L32 2L32 3L30 3L30 5L29 5L29 7L30 7L30 5L32 5L32 3L33 3L33 5L34 5L34 6L33 6L33 9L34 9L34 10L35 10L35 9L37 9L37 8L38 8L38 5L36 5L36 6L35 6L35 4L36 4L36 3L35 3L35 2L33 2L33 1ZM36 1L36 2L38 2L38 1ZM27 3L27 4L29 4L29 3ZM13 4L13 5L12 5L12 6L11 6L11 7L10 7L10 6L9 6L9 9L12 9L12 10L11 10L11 13L12 13L12 14L10 14L10 13L9 13L9 16L10 16L10 18L9 18L9 17L8 17L8 16L7 16L7 17L6 17L6 18L7 18L7 17L8 17L8 19L11 19L11 20L10 20L10 22L12 22L12 21L13 21L13 23L12 23L12 24L11 24L11 23L10 23L10 24L11 24L11 25L10 25L10 26L11 26L11 27L13 27L13 28L14 28L14 29L12 29L12 30L11 30L11 29L9 29L9 32L7 32L7 31L8 31L8 30L7 30L7 29L8 29L8 28L9 28L9 27L6 27L6 28L7 28L7 29L6 29L6 30L4 30L4 29L5 29L5 27L4 27L4 26L2 26L2 31L1 31L1 32L2 32L2 31L4 31L4 32L5 32L5 36L4 36L4 34L3 34L3 33L2 33L2 34L1 34L1 35L3 35L3 37L6 37L6 38L7 38L7 39L8 39L8 38L7 38L7 37L6 37L6 36L7 36L7 35L8 35L8 34L9 34L9 35L10 35L10 34L11 34L11 35L14 35L14 34L12 34L12 33L11 33L11 32L12 32L12 30L14 30L14 29L16 29L16 30L17 30L17 32L16 32L16 31L14 31L14 32L13 32L13 33L15 33L15 32L16 32L16 33L17 33L17 34L15 34L15 36L16 36L16 35L17 35L17 34L18 34L18 33L17 33L17 32L18 32L18 30L17 30L17 29L19 29L19 28L21 28L21 29L22 29L22 28L24 28L24 29L25 29L25 27L21 27L21 26L20 26L20 24L21 24L21 25L22 25L22 24L21 24L21 23L22 23L22 22L20 22L20 21L23 21L23 22L24 22L24 20L25 20L25 19L26 19L26 20L27 20L27 21L25 21L25 22L27 22L27 24L28 24L28 21L29 21L29 22L30 22L30 24L29 24L29 25L30 25L30 27L29 27L29 30L30 30L30 28L31 28L31 25L33 25L33 26L32 26L32 27L33 27L33 26L34 26L34 28L33 28L33 33L34 33L34 32L35 32L35 31L36 31L36 32L38 32L38 31L36 31L36 30L37 30L37 29L38 29L38 30L39 30L39 29L41 29L41 31L40 31L40 32L41 32L41 31L42 31L42 29L43 29L43 31L44 31L44 28L45 28L45 27L42 27L42 29L41 29L41 27L38 27L38 25L39 25L39 26L40 26L40 22L42 22L42 20L43 20L43 19L44 19L44 18L43 18L43 17L44 17L44 16L42 16L42 15L41 15L41 16L40 16L40 17L39 17L39 16L37 16L37 15L36 15L36 17L34 17L34 15L35 15L35 13L36 13L36 12L34 12L34 11L33 11L33 12L32 12L32 13L30 13L30 14L31 14L31 15L29 15L29 17L30 17L30 19L33 19L33 17L34 17L34 20L33 20L33 21L32 21L32 20L31 20L31 21L30 21L30 20L28 20L28 19L29 19L29 18L28 18L28 17L27 17L27 18L23 18L23 17L24 17L24 16L26 16L26 14L27 14L27 16L28 16L28 14L29 14L29 13L28 13L28 12L29 12L29 11L27 11L27 12L26 12L26 10L24 10L24 9L21 9L21 7L22 7L22 4L19 4L19 7L20 7L20 9L19 9L19 8L17 8L17 9L16 9L16 8L15 8L15 7L16 7L16 5L14 5L14 4ZM13 5L13 6L12 6L12 7L11 7L11 8L12 8L12 7L13 7L13 6L14 6L14 7L15 7L15 6L14 6L14 5ZM17 5L17 7L18 7L18 5ZM20 5L20 7L21 7L21 5ZM23 5L23 8L26 8L26 5ZM24 6L24 7L25 7L25 6ZM27 6L27 10L28 10L28 6ZM31 6L31 8L29 8L29 10L31 10L31 9L32 9L32 6ZM34 6L34 9L35 9L35 6ZM36 6L36 7L37 7L37 6ZM40 6L40 7L41 7L41 6ZM2 8L2 9L1 9L1 10L0 10L0 13L1 13L1 11L2 11L2 13L3 13L3 14L2 14L2 15L3 15L3 14L5 14L5 12L4 12L4 11L5 11L5 10L3 10L3 9L4 9L4 8ZM13 8L13 10L15 10L15 9L14 9L14 8ZM41 8L41 9L42 9L42 11L43 11L43 8ZM44 8L44 9L45 9L45 8ZM17 9L17 11L16 11L16 12L15 12L15 13L14 13L14 11L13 11L13 12L12 12L12 13L13 13L13 15L14 15L14 16L15 16L15 19L16 19L16 21L15 21L15 23L13 23L13 24L12 24L12 25L13 25L13 27L14 27L14 28L16 28L16 29L17 29L17 28L19 28L19 27L17 27L17 28L16 28L16 27L15 27L15 26L16 26L16 25L15 25L15 26L14 26L14 24L17 24L17 26L19 26L19 25L18 25L18 24L20 24L20 23L16 23L16 21L17 21L17 22L18 22L18 21L17 21L17 20L18 20L18 19L16 19L16 17L17 17L17 14L16 14L16 12L17 12L17 13L18 13L18 14L20 14L20 12L19 12L19 11L20 11L20 10L21 10L21 9L20 9L20 10L18 10L18 9ZM47 9L47 10L46 10L46 13L45 13L45 14L46 14L46 13L47 13L47 11L48 11L48 14L49 14L49 11L48 11L48 9ZM2 10L2 11L3 11L3 10ZM6 10L6 11L7 11L7 10ZM36 10L36 11L37 11L37 10ZM44 10L44 12L45 12L45 10ZM17 11L17 12L18 12L18 11ZM22 11L22 12L21 12L21 13L22 13L22 14L21 14L21 15L19 15L19 16L20 16L20 17L19 17L19 18L20 18L20 19L19 19L19 20L20 20L20 19L21 19L21 20L23 20L23 19L22 19L22 17L23 17L23 14L24 14L24 15L25 15L25 14L26 14L26 12L25 12L25 11L24 11L24 13L23 13L23 11ZM3 12L3 13L4 13L4 12ZM33 12L33 13L34 13L34 12ZM32 14L32 15L31 15L31 16L30 16L30 17L33 17L33 15L34 15L34 14ZM15 15L15 16L16 16L16 15ZM21 15L21 16L22 16L22 15ZM11 17L11 18L12 18L12 20L13 20L13 21L14 21L14 20L13 20L13 19L14 19L14 17L13 17L13 18L12 18L12 17ZM20 17L20 18L21 18L21 17ZM38 17L38 18L39 18L39 17ZM40 17L40 18L41 18L41 20L42 20L42 19L43 19L43 18L41 18L41 17ZM36 18L36 20L37 20L37 21L36 21L36 22L34 22L34 21L33 21L33 22L32 22L32 23L34 23L34 24L33 24L33 25L35 25L35 26L37 26L37 24L38 24L38 22L37 22L37 21L38 21L38 20L39 20L39 22L40 22L40 20L39 20L39 19L38 19L38 20L37 20L37 18ZM5 19L5 21L6 21L6 22L9 22L9 20L8 20L8 21L6 21L6 20L7 20L7 19ZM43 21L43 22L44 22L44 21ZM47 21L47 23L46 23L46 25L47 25L47 23L48 23L48 21ZM36 22L36 23L37 23L37 22ZM5 23L5 26L8 26L8 23ZM23 23L23 26L26 26L26 23ZM41 23L41 26L44 26L44 23ZM6 24L6 25L7 25L7 24ZM24 24L24 25L25 25L25 24ZM30 24L30 25L31 25L31 24ZM35 24L35 25L36 25L36 24ZM42 24L42 25L43 25L43 24ZM27 26L27 27L28 27L28 26ZM35 27L35 28L34 28L34 31L35 31L35 30L36 30L36 27ZM46 27L46 28L47 28L47 27ZM38 28L38 29L39 29L39 28ZM45 29L45 30L46 30L46 29ZM6 30L6 31L7 31L7 30ZM10 30L10 32L9 32L9 33L10 33L10 32L11 32L11 30ZM30 31L30 32L29 32L29 33L31 33L31 34L29 34L29 37L30 37L30 36L31 36L31 34L32 34L32 35L33 35L33 36L34 36L34 35L33 35L33 34L32 34L32 31ZM6 32L6 33L7 33L7 34L6 34L6 35L7 35L7 34L8 34L8 33L7 33L7 32ZM25 33L25 35L26 35L26 34L27 34L27 36L26 36L26 37L25 37L25 36L23 36L23 38L22 38L22 39L23 39L23 38L24 38L24 37L25 37L25 38L28 38L28 33ZM42 33L42 34L40 34L40 35L38 35L38 34L36 34L36 37L35 37L35 38L37 38L37 36L39 36L39 37L38 37L38 39L40 39L40 38L41 38L41 37L40 37L40 36L43 36L43 37L44 37L44 38L43 38L43 39L44 39L44 40L42 40L42 39L41 39L41 40L40 40L40 42L39 42L39 43L40 43L40 45L39 45L39 47L41 47L41 46L40 46L40 45L42 45L42 46L44 46L44 47L45 47L45 45L46 45L46 44L45 44L45 43L46 43L46 42L48 42L48 43L47 43L47 44L48 44L48 43L49 43L49 41L48 41L48 40L49 40L49 39L48 39L48 40L47 40L47 41L46 41L46 42L45 42L45 40L46 40L46 37L47 37L47 35L48 35L48 38L49 38L49 35L48 35L48 33L47 33L47 34L46 34L46 37L45 37L45 36L44 36L44 35L45 35L45 34L44 34L44 35L42 35L42 34L43 34L43 33ZM33 38L33 39L29 39L29 40L32 40L32 41L34 41L34 42L35 42L35 41L36 41L36 44L37 44L37 43L38 43L38 41L39 41L39 40L37 40L37 41L36 41L36 39L35 39L35 41L34 41L34 38ZM44 38L44 39L45 39L45 38ZM24 39L24 40L25 40L25 39ZM19 40L19 41L20 41L20 40ZM21 40L21 41L22 41L22 40ZM9 41L9 42L10 42L10 41ZM23 41L23 44L26 44L26 41ZM27 41L27 43L28 43L28 41ZM41 41L41 44L44 44L44 41ZM21 42L21 43L22 43L22 42ZM24 42L24 43L25 43L25 42ZM32 42L32 43L31 43L31 45L32 45L32 43L33 43L33 42ZM42 42L42 43L43 43L43 42ZM15 43L15 44L16 44L16 43ZM21 44L21 45L22 45L22 44ZM27 44L27 46L28 46L28 44ZM34 44L34 45L33 45L33 46L32 46L32 48L33 48L33 49L35 49L35 48L36 48L36 49L39 49L39 48L37 48L37 47L38 47L38 46L37 46L37 45L36 45L36 46L34 46L34 45L35 45L35 44ZM9 45L9 46L10 46L10 47L11 47L11 48L13 48L13 47L14 47L14 46L13 46L13 47L11 47L11 46L10 46L10 45ZM23 45L23 46L24 46L24 47L23 47L23 48L24 48L24 47L25 47L25 45ZM48 45L48 46L49 46L49 45ZM29 47L29 48L31 48L31 47ZM33 47L33 48L34 48L34 47ZM46 47L46 49L49 49L49 48L47 48L47 47ZM40 48L40 49L42 49L42 48ZM44 48L44 49L45 49L45 48ZM0 0L0 7L7 7L7 0ZM1 1L1 6L6 6L6 1ZM2 2L2 5L5 5L5 2ZM42 0L42 7L49 7L49 0ZM43 1L43 6L48 6L48 1ZM44 2L44 5L47 5L47 2ZM0 42L0 49L7 49L7 42ZM1 43L1 48L6 48L6 43ZM2 44L2 47L5 47L5 44Z" fill="#000000"/></g></g></svg>
