<?xml version="1.0" encoding="UTF-8"?>
<svg xmlns="http://www.w3.org/2000/svg" version="1.1" width="200" height="200" viewBox="0 0 200 200"><rect x="0" y="0" width="200" height="200" fill="#ffffff"/><g transform="scale(3.774)"><g transform="translate(2,2)"><path fill-rule="evenodd" d="M9 0L9 1L8 1L8 2L9 2L9 1L10 1L10 2L11 2L11 1L13 1L13 2L12 2L12 4L11 4L11 3L10 3L10 4L11 4L11 5L12 5L12 4L13 4L13 5L14 5L14 7L15 7L15 6L16 6L16 11L15 11L15 10L14 10L14 9L15 9L15 8L14 8L14 9L13 9L13 8L12 8L12 7L13 7L13 6L12 6L12 7L11 7L11 6L10 6L10 5L8 5L8 8L4 8L4 9L3 9L3 10L2 10L2 9L1 9L1 10L0 10L0 14L1 14L1 10L2 10L2 11L5 11L5 12L6 12L6 13L7 13L7 14L5 14L5 15L3 15L3 13L4 13L4 12L3 12L3 13L2 13L2 15L3 15L3 17L2 17L2 16L1 16L1 15L0 15L0 16L1 16L1 19L3 19L3 20L1 20L1 22L2 22L2 23L4 23L4 25L3 25L3 24L1 24L1 23L0 23L0 26L1 26L1 27L0 27L0 30L1 30L1 35L0 35L0 37L1 37L1 40L0 40L0 41L3 41L3 40L4 40L4 39L2 39L2 38L5 38L5 39L7 39L7 40L6 40L6 41L8 41L8 45L9 45L9 42L10 42L10 44L12 44L12 47L11 47L11 48L12 48L12 47L13 47L13 48L16 48L16 46L18 46L18 45L19 45L19 46L21 46L21 47L17 47L17 49L20 49L20 48L21 48L21 49L22 49L22 48L21 48L21 47L22 47L22 46L21 46L21 45L19 45L19 42L18 42L18 41L16 41L16 40L20 40L20 39L19 39L19 38L20 38L20 37L21 37L21 39L22 39L22 40L21 40L21 42L20 42L20 43L21 43L21 44L22 44L22 45L23 45L23 46L24 46L24 47L25 47L25 49L30 49L30 48L31 48L31 49L33 49L33 48L34 48L34 49L35 49L35 47L36 47L36 49L37 49L37 47L38 47L38 49L42 49L42 46L43 46L43 45L45 45L45 46L46 46L46 47L45 47L45 48L43 48L43 49L49 49L49 48L48 48L48 47L47 47L47 46L46 46L46 45L47 45L47 44L48 44L48 46L49 46L49 44L48 44L48 41L49 41L49 39L48 39L48 37L49 37L49 36L48 36L48 33L47 33L47 31L48 31L48 29L49 29L49 27L48 27L48 26L47 26L47 24L49 24L49 23L48 23L48 21L49 21L49 20L48 20L48 21L47 21L47 19L48 19L48 17L49 17L49 16L48 16L48 13L49 13L49 11L48 11L48 8L47 8L47 10L46 10L46 11L45 11L45 9L44 9L44 8L42 8L42 11L40 11L40 12L38 12L38 11L39 11L39 9L41 9L41 6L40 6L40 7L39 7L39 5L38 5L38 7L39 7L39 9L38 9L38 8L36 8L36 9L35 9L35 12L34 12L34 13L35 13L35 14L37 14L37 15L36 15L36 17L38 17L38 16L39 16L39 17L40 17L40 15L41 15L41 14L39 14L39 13L41 13L41 12L42 12L42 15L43 15L43 17L42 17L42 16L41 16L41 17L42 17L42 18L40 18L40 19L39 19L39 20L37 20L37 19L36 19L36 18L35 18L35 16L34 16L34 17L33 17L33 19L34 19L34 21L35 21L35 19L36 19L36 22L35 22L35 23L33 23L33 24L32 24L32 22L31 22L31 21L30 21L30 22L29 22L29 24L30 24L30 25L28 25L28 24L27 24L27 22L26 22L26 21L25 21L25 20L24 20L24 19L31 19L31 20L32 20L32 19L31 19L31 18L32 18L32 16L30 16L30 14L31 14L31 15L33 15L33 14L32 14L32 13L33 13L33 11L32 11L32 10L33 10L33 9L32 9L32 7L33 7L33 8L35 8L35 6L36 6L36 7L37 7L37 5L33 5L33 4L36 4L36 3L37 3L37 2L39 2L39 4L40 4L40 3L41 3L41 0L40 0L40 1L36 1L36 3L35 3L35 1L33 1L33 0L31 0L31 1L29 1L29 0L28 0L28 1L27 1L27 0L26 0L26 2L27 2L27 3L26 3L26 4L25 4L25 0L23 0L23 1L22 1L22 0L21 0L21 1L20 1L20 2L19 2L19 1L18 1L18 2L19 2L19 3L18 3L18 4L15 4L15 5L14 5L14 4L13 4L13 3L15 3L15 2L17 2L17 0L16 0L16 1L15 1L15 0L11 0L11 1L10 1L10 0ZM21 1L21 2L20 2L20 3L19 3L19 4L18 4L18 5L17 5L17 7L18 7L18 8L17 8L17 9L18 9L18 8L19 8L19 7L20 7L20 6L21 6L21 7L22 7L22 6L21 6L21 3L22 3L22 4L23 4L23 2L22 2L22 1ZM31 1L31 2L32 2L32 3L31 3L31 4L33 4L33 2L32 2L32 1ZM28 2L28 3L27 3L27 9L28 9L28 11L31 11L31 9L30 9L30 10L29 10L29 7L30 7L30 6L31 6L31 7L32 7L32 6L31 6L31 5L30 5L30 4L28 4L28 3L29 3L29 2ZM19 4L19 5L20 5L20 4ZM23 5L23 8L26 8L26 5ZM28 5L28 7L29 7L29 5ZM9 6L9 8L8 8L8 9L4 9L4 10L8 10L8 11L6 11L6 12L8 12L8 11L9 11L9 13L8 13L8 14L11 14L11 15L12 15L12 14L13 14L13 13L12 13L12 14L11 14L11 12L15 12L15 13L14 13L14 15L13 15L13 16L11 16L11 17L10 17L10 18L8 18L8 17L6 17L6 16L9 16L9 15L5 15L5 18L8 18L8 19L6 19L6 20L9 20L9 21L10 21L10 22L9 22L9 23L10 23L10 24L9 24L9 25L10 25L10 27L11 27L11 30L9 30L9 32L8 32L8 31L6 31L6 30L8 30L8 27L6 27L6 28L5 28L5 29L4 29L4 30L5 30L5 32L4 32L4 31L3 31L3 29L2 29L2 28L1 28L1 29L2 29L2 32L4 32L4 36L3 36L3 37L4 37L4 36L5 36L5 35L6 35L6 36L9 36L9 38L7 38L7 37L5 37L5 38L7 38L7 39L8 39L8 40L10 40L10 36L9 36L9 34L8 34L8 33L10 33L10 35L12 35L12 31L13 31L13 30L14 30L14 29L16 29L16 28L17 28L17 29L18 29L18 28L19 28L19 30L17 30L17 31L14 31L14 32L13 32L13 33L14 33L14 35L13 35L13 38L11 38L11 41L10 41L10 42L12 42L12 44L13 44L13 47L15 47L15 45L18 45L18 42L16 42L16 41L15 41L15 40L16 40L16 39L18 39L18 38L19 38L19 37L20 37L20 36L22 36L22 38L23 38L23 35L25 35L25 36L27 36L27 35L28 35L28 34L29 34L29 36L28 36L28 37L24 37L24 38L25 38L25 39L26 39L26 40L27 40L27 41L28 41L28 39L29 39L29 38L30 38L30 40L31 40L31 39L35 39L35 40L34 40L34 41L33 41L33 42L31 42L31 43L34 43L34 42L36 42L36 43L35 43L35 44L33 44L33 45L32 45L32 46L31 46L31 44L30 44L30 41L29 41L29 42L27 42L27 43L28 43L28 44L27 44L27 46L26 46L26 45L25 45L25 47L26 47L26 48L28 48L28 47L29 47L29 48L30 48L30 47L35 47L35 46L36 46L36 47L37 47L37 46L36 46L36 43L37 43L37 45L38 45L38 43L39 43L39 42L40 42L40 39L41 39L41 40L42 40L42 39L43 39L43 40L46 40L46 39L47 39L47 37L48 37L48 36L47 36L47 37L45 37L45 35L44 35L44 34L43 34L43 33L45 33L45 31L44 31L44 29L45 29L45 30L46 30L46 31L47 31L47 29L48 29L48 28L47 28L47 29L45 29L45 27L43 27L43 28L44 28L44 29L43 29L43 30L42 30L42 31L44 31L44 32L43 32L43 33L42 33L42 32L40 32L40 31L41 31L41 29L40 29L40 24L39 24L39 23L40 23L40 22L42 22L42 21L43 21L43 18L44 18L44 19L45 19L45 18L46 18L46 19L47 19L47 17L48 17L48 16L47 16L47 17L45 17L45 18L44 18L44 17L43 17L43 18L42 18L42 20L41 20L41 21L39 21L39 23L37 23L37 24L39 24L39 27L37 27L37 25L36 25L36 23L35 23L35 24L33 24L33 26L32 26L32 25L30 25L30 26L31 26L31 27L29 27L29 26L27 26L27 27L28 27L28 28L26 28L26 30L28 30L28 28L30 28L30 29L29 29L29 31L28 31L28 32L27 32L27 33L28 33L28 34L26 34L26 33L25 33L25 34L21 34L21 32L22 32L22 33L23 33L23 32L26 32L26 31L25 31L25 30L24 30L24 28L25 28L25 27L23 27L23 28L22 28L22 22L24 22L24 20L23 20L23 21L22 21L22 20L21 20L21 19L18 19L18 20L21 20L21 21L20 21L20 22L19 22L19 21L18 21L18 22L17 22L17 23L16 23L16 21L15 21L15 22L14 22L14 21L13 21L13 18L15 18L15 19L16 19L16 20L17 20L17 18L19 18L19 16L17 16L17 15L18 15L18 14L21 14L21 16L20 16L20 18L21 18L21 17L22 17L22 19L24 19L24 18L23 18L23 17L24 17L24 16L25 16L25 15L26 15L26 14L27 14L27 15L28 15L28 14L29 14L29 13L26 13L26 12L27 12L27 11L25 11L25 10L26 10L26 9L25 9L25 10L24 10L24 9L23 9L23 10L24 10L24 11L22 11L22 12L21 12L21 11L20 11L20 10L21 10L21 9L22 9L22 8L21 8L21 9L20 9L20 10L17 10L17 11L20 11L20 13L19 13L19 12L18 12L18 14L17 14L17 15L16 15L16 14L15 14L15 13L17 13L17 12L15 12L15 11L11 11L11 12L10 12L10 10L11 10L11 9L9 9L9 8L11 8L11 7L10 7L10 6ZM18 6L18 7L19 7L19 6ZM24 6L24 7L25 7L25 6ZM33 6L33 7L34 7L34 6ZM8 9L8 10L9 10L9 9ZM36 10L36 11L37 11L37 10ZM43 10L43 11L42 11L42 12L43 12L43 11L44 11L44 10ZM24 11L24 12L22 12L22 13L21 13L21 14L22 14L22 16L23 16L23 14L22 14L22 13L24 13L24 14L25 14L25 13L24 13L24 12L25 12L25 11ZM30 12L30 13L32 13L32 12ZM35 12L35 13L36 13L36 12ZM47 12L47 13L48 13L48 12ZM43 13L43 15L44 15L44 13ZM46 14L46 15L45 15L45 16L46 16L46 15L47 15L47 14ZM13 16L13 17L11 17L11 18L10 18L10 19L9 19L9 20L10 20L10 19L11 19L11 20L12 20L12 19L11 19L11 18L13 18L13 17L17 17L17 16ZM27 16L27 17L25 17L25 18L31 18L31 17L29 17L29 16ZM3 17L3 18L4 18L4 17ZM4 20L4 21L2 21L2 22L8 22L8 21L5 21L5 20ZM27 20L27 21L29 21L29 20ZM12 21L12 22L11 22L11 26L12 26L12 27L13 27L13 28L12 28L12 30L11 30L11 31L10 31L10 33L11 33L11 31L12 31L12 30L13 30L13 29L14 29L14 28L15 28L15 27L14 27L14 26L12 26L12 24L14 24L14 25L17 25L17 26L18 26L18 27L19 27L19 28L20 28L20 27L21 27L21 24L19 24L19 26L18 26L18 23L19 23L19 22L18 22L18 23L17 23L17 24L16 24L16 23L14 23L14 22L13 22L13 21ZM21 21L21 22L20 22L20 23L21 23L21 22L22 22L22 21ZM44 21L44 22L45 22L45 21ZM46 21L46 22L47 22L47 21ZM12 22L12 23L13 23L13 22ZM5 23L5 26L8 26L8 23ZM23 23L23 26L26 26L26 23ZM30 23L30 24L31 24L31 23ZM41 23L41 26L44 26L44 23ZM6 24L6 25L7 25L7 24ZM24 24L24 25L25 25L25 24ZM42 24L42 25L43 25L43 24ZM1 25L1 26L3 26L3 25ZM45 25L45 26L46 26L46 25ZM19 26L19 27L20 27L20 26ZM35 26L35 27L36 27L36 29L35 29L35 33L36 33L36 30L37 30L37 31L39 31L39 29L38 29L38 28L37 28L37 27L36 27L36 26ZM3 27L3 28L4 28L4 27ZM31 27L31 29L30 29L30 30L31 30L31 29L32 29L32 31L33 31L33 32L34 32L34 31L33 31L33 29L34 29L34 27ZM41 27L41 28L42 28L42 27ZM6 28L6 29L5 29L5 30L6 30L6 29L7 29L7 28ZM9 28L9 29L10 29L10 28ZM20 29L20 30L23 30L23 31L24 31L24 30L23 30L23 29ZM19 31L19 33L20 33L20 31ZM29 31L29 32L28 32L28 33L31 33L31 34L30 34L30 35L31 35L31 37L30 37L30 38L33 38L33 37L35 37L35 38L37 38L37 39L36 39L36 41L37 41L37 43L38 43L38 42L39 42L39 40L38 40L38 41L37 41L37 39L39 39L39 38L41 38L41 39L42 39L42 38L45 38L45 37L43 37L43 36L44 36L44 35L42 35L42 34L41 34L41 35L40 35L40 34L39 34L39 32L37 32L37 34L36 34L36 37L35 37L35 35L34 35L34 36L33 36L33 34L32 34L32 33L31 33L31 31ZM5 32L5 34L6 34L6 35L7 35L7 34L6 34L6 33L7 33L7 32ZM16 32L16 33L18 33L18 32ZM46 33L46 35L47 35L47 33ZM2 34L2 35L3 35L3 34ZM16 34L16 35L14 35L14 36L16 36L16 37L17 37L17 38L18 38L18 37L19 37L19 36L18 36L18 35L21 35L21 34ZM25 34L25 35L26 35L26 34ZM38 35L38 36L37 36L37 37L38 37L38 36L39 36L39 37L41 37L41 38L42 38L42 35L41 35L41 36L40 36L40 35ZM1 36L1 37L2 37L2 36ZM17 36L17 37L18 37L18 36ZM14 38L14 39L12 39L12 41L13 41L13 42L14 42L14 43L13 43L13 44L14 44L14 45L15 45L15 44L17 44L17 43L16 43L16 42L15 42L15 41L14 41L14 40L15 40L15 39L16 39L16 38ZM27 38L27 39L28 39L28 38ZM23 39L23 40L24 40L24 39ZM47 40L47 41L45 41L45 42L47 42L47 41L48 41L48 40ZM23 41L23 44L26 44L26 41ZM41 41L41 44L44 44L44 41ZM24 42L24 43L25 43L25 42ZM42 42L42 43L43 43L43 42ZM28 44L28 45L30 45L30 44ZM39 44L39 47L40 47L40 48L41 48L41 46L42 46L42 45L40 45L40 44ZM10 45L10 46L9 46L9 47L10 47L10 46L11 46L11 45ZM29 46L29 47L30 47L30 46ZM23 48L23 49L24 49L24 48ZM0 0L0 7L7 7L7 0ZM1 1L1 6L6 6L6 1ZM2 2L2 5L5 5L5 2ZM42 0L42 7L49 7L49 0ZM43 1L43 6L48 6L48 1ZM44 2L44 5L47 5L47 2ZM0 42L0 49L7 49L7 42ZM1 43L1 48L6 48L6 43ZM2 44L2 47L5 47L5 44Z" fill="#000000"/></g></g></svg>
