<?xml version="1.0" encoding="UTF-8"?>
<svg xmlns="http://www.w3.org/2000/svg" version="1.1" width="200" height="200" viewBox="0 0 200 200"><rect x="0" y="0" width="200" height="200" fill="#ffffff"/><g transform="scale(3.774)"><g transform="translate(2,2)"><path fill-rule="evenodd" d="M8 0L8 2L9 2L9 3L8 3L8 7L9 7L9 10L8 10L8 11L7 11L7 10L6 10L6 9L7 9L7 8L6 8L6 9L5 9L5 10L6 10L6 11L4 11L4 8L3 8L3 9L1 9L1 10L0 10L0 11L1 11L1 12L0 12L0 13L1 13L1 14L0 14L0 16L1 16L1 17L0 17L0 21L1 21L1 22L0 22L0 25L1 25L1 26L0 26L0 29L1 29L1 30L0 30L0 31L1 31L1 32L0 32L0 33L1 33L1 34L2 34L2 37L1 37L1 35L0 35L0 37L1 37L1 40L0 40L0 41L3 41L3 40L4 40L4 39L2 39L2 37L3 37L3 34L4 34L4 36L5 36L5 39L7 39L7 38L6 38L6 37L7 37L7 36L8 36L8 37L10 37L10 36L11 36L11 35L12 35L12 36L13 36L13 35L12 35L12 33L13 33L13 31L11 31L11 29L12 29L12 30L13 30L13 29L14 29L14 31L15 31L15 32L14 32L14 33L15 33L15 34L14 34L14 35L15 35L15 36L14 36L14 40L13 40L13 39L12 39L12 38L13 38L13 37L11 37L11 38L9 38L9 39L11 39L11 40L6 40L6 41L8 41L8 42L9 42L9 41L11 41L11 42L10 42L10 44L9 44L9 45L8 45L8 46L9 46L9 45L11 45L11 46L10 46L10 49L11 49L11 47L12 47L12 45L13 45L13 44L16 44L16 47L15 47L15 45L14 45L14 46L13 46L13 47L15 47L15 48L16 48L16 49L19 49L19 47L21 47L21 46L20 46L20 45L21 45L21 44L22 44L22 45L27 45L27 46L25 46L25 47L26 47L26 48L25 48L25 49L26 49L26 48L27 48L27 49L31 49L31 47L33 47L33 48L32 48L32 49L33 49L33 48L34 48L34 47L35 47L35 48L36 48L36 49L38 49L38 48L39 48L39 49L40 49L40 48L41 48L41 49L42 49L42 48L41 48L41 46L42 46L42 47L43 47L43 48L44 48L44 49L46 49L46 47L45 47L45 46L46 46L46 44L47 44L47 47L49 47L49 46L48 46L48 45L49 45L49 44L48 44L48 43L49 43L49 36L48 36L48 38L47 38L47 37L46 37L46 35L47 35L47 34L46 34L46 35L44 35L44 33L46 33L46 32L47 32L47 33L48 33L48 35L49 35L49 33L48 33L48 32L47 32L47 31L45 31L45 32L44 32L44 31L43 31L43 30L42 30L42 31L40 31L40 29L41 29L41 28L40 28L40 29L38 29L38 27L42 27L42 28L43 28L43 29L44 29L44 30L46 30L46 29L47 29L47 30L48 30L48 31L49 31L49 28L48 28L48 27L49 27L49 25L47 25L47 26L46 26L46 23L45 23L45 21L46 21L46 20L47 20L47 21L48 21L48 24L49 24L49 20L47 20L47 19L45 19L45 18L46 18L46 17L47 17L47 18L48 18L48 19L49 19L49 16L48 16L48 15L49 15L49 8L47 8L47 9L48 9L48 14L47 14L47 16L45 16L45 14L44 14L44 13L46 13L46 8L43 8L43 11L44 11L44 9L45 9L45 12L44 12L44 13L43 13L43 12L42 12L42 13L40 13L40 12L39 12L39 11L40 11L40 8L41 8L41 6L40 6L40 7L39 7L39 5L38 5L38 7L39 7L39 8L38 8L38 9L37 9L37 8L35 8L35 6L36 6L36 7L37 7L37 6L36 6L36 5L34 5L34 7L33 7L33 5L31 5L31 4L32 4L32 3L33 3L33 4L34 4L34 3L35 3L35 4L36 4L36 3L35 3L35 2L36 2L36 1L35 1L35 0L34 0L34 1L35 1L35 2L34 2L34 3L33 3L33 1L32 1L32 2L31 2L31 1L30 1L30 0L28 0L28 2L27 2L27 3L24 3L24 2L26 2L26 0L24 0L24 2L23 2L23 1L21 1L21 2L22 2L22 3L23 3L23 4L21 4L21 3L20 3L20 0L19 0L19 2L18 2L18 1L17 1L17 2L18 2L18 4L17 4L17 3L16 3L16 2L13 2L13 0ZM14 0L14 1L15 1L15 0ZM37 0L37 1L38 1L38 2L39 2L39 4L40 4L40 3L41 3L41 0L40 0L40 1L38 1L38 0ZM10 1L10 3L9 3L9 7L10 7L10 9L11 9L11 10L10 10L10 11L8 11L8 12L7 12L7 11L6 11L6 12L7 12L7 13L6 13L6 14L8 14L8 12L9 12L9 13L11 13L11 11L12 11L12 13L13 13L13 14L12 14L12 15L10 15L10 14L9 14L9 15L10 15L10 16L12 16L12 17L9 17L9 18L8 18L8 15L6 15L6 16L5 16L5 14L4 14L4 17L5 17L5 18L1 18L1 21L2 21L2 22L3 22L3 21L2 21L2 20L3 20L3 19L6 19L6 20L5 20L5 21L4 21L4 22L5 22L5 21L6 21L6 22L11 22L11 24L12 24L12 25L11 25L11 26L10 26L10 24L9 24L9 27L10 27L10 28L8 28L8 29L9 29L9 31L8 31L8 30L7 30L7 29L6 29L6 28L7 28L7 27L6 27L6 28L5 28L5 27L4 27L4 23L3 23L3 28L2 28L2 27L1 27L1 29L2 29L2 31L3 31L3 32L5 32L5 33L4 33L4 34L7 34L7 35L5 35L5 36L7 36L7 35L8 35L8 36L10 36L10 35L9 35L9 33L8 33L8 34L7 34L7 33L6 33L6 32L7 32L7 31L8 31L8 32L11 32L11 31L10 31L10 28L14 28L14 29L16 29L16 27L17 27L17 29L18 29L18 30L20 30L20 29L21 29L21 32L22 32L22 34L20 34L20 31L19 31L19 33L17 33L17 32L18 32L18 31L17 31L17 32L15 32L15 33L16 33L16 36L15 36L15 37L17 37L17 39L19 39L19 40L17 40L17 41L20 41L20 40L21 40L21 42L20 42L20 44L21 44L21 42L22 42L22 40L24 40L24 39L25 39L25 40L28 40L28 41L27 41L27 43L28 43L28 44L27 44L27 45L28 45L28 46L31 46L31 45L34 45L34 46L35 46L35 47L36 47L36 46L37 46L37 47L39 47L39 45L40 45L40 46L41 46L41 45L40 45L40 44L38 44L38 43L37 43L37 44L38 44L38 46L37 46L37 45L36 45L36 46L35 46L35 45L34 45L34 44L31 44L31 43L32 43L32 42L31 42L31 41L29 41L29 38L24 38L24 37L23 37L23 38L24 38L24 39L22 39L22 37L21 37L21 36L25 36L25 37L26 37L26 36L25 36L25 33L26 33L26 32L25 32L25 33L24 33L24 32L22 32L22 31L25 31L25 30L22 30L22 29L21 29L21 27L20 27L20 26L21 26L21 25L22 25L22 23L21 23L21 22L23 22L23 20L21 20L21 19L24 19L24 20L28 20L28 22L29 22L29 25L27 25L27 26L29 26L29 27L28 27L28 28L27 28L27 29L26 29L26 30L27 30L27 31L28 31L28 32L27 32L27 34L26 34L26 35L27 35L27 34L28 34L28 36L29 36L29 37L30 37L30 38L31 38L31 37L32 37L32 39L30 39L30 40L32 40L32 39L33 39L33 37L32 37L32 36L35 36L35 37L36 37L36 36L35 36L35 35L33 35L33 34L31 34L31 35L30 35L30 36L29 36L29 34L30 34L30 32L33 32L33 33L34 33L34 34L35 34L35 33L38 33L38 34L36 34L36 35L39 35L39 37L38 37L38 36L37 36L37 38L40 38L40 39L38 39L38 40L37 40L37 41L38 41L38 40L39 40L39 41L40 41L40 40L42 40L42 39L41 39L41 37L42 37L42 38L43 38L43 39L44 39L44 40L47 40L47 41L46 41L46 42L45 42L45 43L46 43L46 42L47 42L47 43L48 43L48 42L47 42L47 41L48 41L48 40L47 40L47 38L46 38L46 39L45 39L45 36L44 36L44 35L43 35L43 36L44 36L44 37L42 37L42 36L41 36L41 35L42 35L42 34L41 34L41 33L40 33L40 31L39 31L39 30L38 30L38 31L36 31L36 30L37 30L37 29L36 29L36 26L39 26L39 25L40 25L40 24L39 24L39 25L36 25L36 24L35 24L35 23L37 23L37 24L38 24L38 23L39 23L39 19L38 19L38 18L39 18L39 16L38 16L38 15L37 15L37 14L39 14L39 15L40 15L40 14L39 14L39 13L38 13L38 11L39 11L39 9L38 9L38 10L37 10L37 9L34 9L34 8L33 8L33 7L32 7L32 6L31 6L31 7L30 7L30 4L29 4L29 7L28 7L28 6L27 6L27 9L24 9L24 10L22 10L22 9L21 9L21 8L22 8L22 6L21 6L21 8L20 8L20 6L19 6L19 4L20 4L20 3L19 3L19 4L18 4L18 6L17 6L17 7L16 7L16 6L15 6L15 7L16 7L16 8L15 8L15 9L17 9L17 10L16 10L16 12L17 12L17 15L19 15L19 13L20 13L20 11L24 11L24 10L25 10L25 12L24 12L24 14L23 14L23 12L21 12L21 13L22 13L22 15L21 15L21 14L20 14L20 16L16 16L16 14L15 14L15 13L14 13L14 12L15 12L15 11L14 11L14 12L13 12L13 10L14 10L14 9L12 9L12 8L11 8L11 7L12 7L12 6L13 6L13 8L14 8L14 5L17 5L17 4L15 4L15 3L14 3L14 5L13 5L13 2L11 2L11 1ZM29 1L29 2L28 2L28 3L27 3L27 4L28 4L28 3L29 3L29 2L30 2L30 3L31 3L31 2L30 2L30 1ZM37 3L37 4L38 4L38 3ZM10 5L10 7L11 7L11 6L12 6L12 5ZM23 5L23 8L26 8L26 5ZM18 6L18 8L17 8L17 9L18 9L18 10L17 10L17 11L18 11L18 10L19 10L19 11L20 11L20 10L21 10L21 9L19 9L19 6ZM24 6L24 7L25 7L25 6ZM31 7L31 8L28 8L28 9L30 9L30 10L32 10L32 11L34 11L34 12L35 12L35 10L34 10L34 9L33 9L33 8L32 8L32 7ZM31 8L31 9L32 9L32 10L33 10L33 9L32 9L32 8ZM41 9L41 11L42 11L42 9ZM1 10L1 11L2 11L2 14L1 14L1 15L2 15L2 17L3 17L3 15L2 15L2 14L3 14L3 11L2 11L2 10ZM28 10L28 11L27 11L27 12L25 12L25 13L26 13L26 14L27 14L27 15L26 15L26 16L25 16L25 14L24 14L24 15L23 15L23 16L22 16L22 17L23 17L23 18L24 18L24 17L28 17L28 16L29 16L29 17L30 17L30 18L31 18L31 21L32 21L32 25L31 25L31 24L30 24L30 27L31 27L31 26L32 26L32 25L33 25L33 27L32 27L32 28L31 28L31 29L33 29L33 30L32 30L32 31L33 31L33 32L34 32L34 33L35 33L35 32L36 32L36 31L35 31L35 32L34 32L34 28L35 28L35 27L34 27L34 26L36 26L36 25L35 25L35 24L34 24L34 23L35 23L35 22L36 22L36 21L37 21L37 22L38 22L38 21L37 21L37 17L38 17L38 16L37 16L37 15L36 15L36 13L37 13L37 10L36 10L36 13L33 13L33 12L31 12L31 11L30 11L30 12L29 12L29 13L28 13L28 11L29 11L29 10ZM4 12L4 13L5 13L5 12ZM30 12L30 13L29 13L29 14L32 14L32 13L31 13L31 12ZM42 13L42 14L41 14L41 16L40 16L40 18L41 18L41 19L42 19L42 22L43 22L43 21L45 21L45 20L43 20L43 19L42 19L42 18L43 18L43 16L44 16L44 14L43 14L43 13ZM13 14L13 17L15 17L15 18L13 18L13 19L12 19L12 20L10 20L10 21L11 21L11 22L12 22L12 24L13 24L13 25L12 25L12 26L13 26L13 27L14 27L14 28L15 28L15 27L16 27L16 26L17 26L17 25L18 25L18 26L19 26L19 25L18 25L18 24L17 24L17 23L18 23L18 22L19 22L19 24L20 24L20 25L21 25L21 23L20 23L20 22L21 22L21 21L18 21L18 19L19 19L19 20L20 20L20 19L21 19L21 17L20 17L20 18L19 18L19 17L18 17L18 19L15 19L15 18L16 18L16 16L14 16L14 14ZM34 14L34 15L33 15L33 16L32 16L32 15L30 15L30 16L32 16L32 17L31 17L31 18L32 18L32 17L33 17L33 19L32 19L32 20L33 20L33 21L34 21L34 22L35 22L35 20L36 20L36 15L35 15L35 14ZM34 15L34 20L35 20L35 15ZM6 16L6 17L7 17L7 16ZM23 16L23 17L24 17L24 16ZM41 16L41 17L42 17L42 16ZM47 16L47 17L48 17L48 16ZM44 17L44 18L45 18L45 17ZM6 18L6 19L8 19L8 18ZM9 18L9 19L11 19L11 18ZM25 18L25 19L26 19L26 18ZM27 18L27 19L29 19L29 18ZM14 19L14 20L12 20L12 22L13 22L13 24L15 24L15 23L14 23L14 22L15 22L15 21L14 21L14 20L15 20L15 19ZM6 20L6 21L7 21L7 20ZM16 20L16 21L17 21L17 22L16 22L16 23L17 23L17 22L18 22L18 21L17 21L17 20ZM40 20L40 22L41 22L41 20ZM24 21L24 22L25 22L25 21ZM5 23L5 26L8 26L8 23ZM23 23L23 26L26 26L26 23ZM41 23L41 26L44 26L44 23ZM1 24L1 25L2 25L2 24ZM6 24L6 25L7 25L7 24ZM16 24L16 25L17 25L17 24ZM24 24L24 25L25 25L25 24ZM33 24L33 25L34 25L34 24ZM42 24L42 25L43 25L43 24ZM14 26L14 27L15 27L15 26ZM45 26L45 27L44 27L44 29L45 29L45 27L46 27L46 28L47 28L47 27L46 27L46 26ZM22 27L22 28L24 28L24 29L25 29L25 28L26 28L26 27ZM3 28L3 30L4 30L4 31L5 31L5 32L6 32L6 31L7 31L7 30L6 30L6 29L5 29L5 30L4 30L4 28ZM18 28L18 29L20 29L20 28ZM28 28L28 31L31 31L31 30L29 30L29 29L30 29L30 28ZM35 29L35 30L36 30L36 29ZM5 30L5 31L6 31L6 30ZM15 30L15 31L16 31L16 30ZM2 33L2 34L3 34L3 33ZM10 33L10 34L11 34L11 33ZM23 33L23 34L24 34L24 33ZM39 33L39 34L40 34L40 35L41 35L41 34L40 34L40 33ZM17 34L17 36L18 36L18 37L19 37L19 36L21 36L21 35L18 35L18 34ZM40 36L40 37L41 37L41 36ZM20 38L20 39L21 39L21 40L22 40L22 39L21 39L21 38ZM34 38L34 42L35 42L35 44L36 44L36 38ZM11 40L11 41L13 41L13 40ZM14 40L14 41L15 41L15 42L16 42L16 40ZM23 41L23 44L26 44L26 41ZM41 41L41 44L44 44L44 41ZM11 42L11 43L12 43L12 44L13 44L13 43L14 43L14 42ZM18 42L18 43L19 43L19 42ZM24 42L24 43L25 43L25 42ZM29 42L29 43L30 43L30 42ZM39 42L39 43L40 43L40 42ZM42 42L42 43L43 43L43 42ZM16 43L16 44L17 44L17 46L19 46L19 44L17 44L17 43ZM42 45L42 46L44 46L44 45ZM22 46L22 48L21 48L21 49L24 49L24 46ZM17 47L17 48L18 48L18 47ZM27 47L27 48L29 48L29 47ZM13 48L13 49L14 49L14 48ZM47 48L47 49L49 49L49 48ZM0 0L0 7L7 7L7 0ZM1 1L1 6L6 6L6 1ZM2 2L2 5L5 5L5 2ZM42 0L42 7L49 7L49 0ZM43 1L43 6L48 6L48 1ZM44 2L44 5L47 5L47 2ZM0 42L0 49L7 49L7 42ZM1 43L1 48L6 48L6 43ZM2 44L2 47L5 47L5 44Z" fill="#000000"/></g></g></svg>
