<?xml version="1.0" encoding="UTF-8"?>
<svg xmlns="http://www.w3.org/2000/svg" version="1.1" width="200" height="200" viewBox="0 0 200 200"><rect x="0" y="0" width="200" height="200" fill="#ffffff"/><g transform="scale(3.774)"><g transform="translate(2,2)"><path fill-rule="evenodd" d="M8 0L8 2L9 2L9 3L8 3L8 7L9 7L9 3L10 3L10 1L11 1L11 2L13 2L13 5L12 5L12 3L11 3L11 5L10 5L10 7L11 7L11 6L12 6L12 7L13 7L13 8L12 8L12 9L14 9L14 13L13 13L13 12L12 12L12 11L11 11L11 12L12 12L12 13L10 13L10 12L8 12L8 11L10 11L10 10L11 10L11 9L10 9L10 10L8 10L8 11L7 11L7 10L6 10L6 9L7 9L7 8L6 8L6 9L5 9L5 10L6 10L6 11L7 11L7 12L6 12L6 13L7 13L7 12L8 12L8 14L6 14L6 15L8 15L8 18L5 18L5 19L3 19L3 21L2 21L2 22L1 22L1 21L0 21L0 25L1 25L1 26L0 26L0 29L1 29L1 31L2 31L2 32L1 32L1 33L0 33L0 34L1 34L1 35L0 35L0 38L1 38L1 40L0 40L0 41L3 41L3 40L4 40L4 39L2 39L2 38L1 38L1 37L3 37L3 36L5 36L5 39L7 39L7 38L6 38L6 37L7 37L7 36L8 36L8 37L9 37L9 36L10 36L10 33L11 33L11 35L12 35L12 36L11 36L11 38L9 38L9 39L11 39L11 40L6 40L6 41L8 41L8 42L9 42L9 43L11 43L11 45L10 45L10 44L9 44L9 45L8 45L8 46L10 46L10 49L11 49L11 47L12 47L12 45L14 45L14 46L13 46L13 47L15 47L15 48L16 48L16 49L19 49L19 47L21 47L21 46L22 46L22 48L21 48L21 49L24 49L24 46L23 46L23 45L27 45L27 46L25 46L25 47L29 47L29 48L28 48L28 49L29 49L29 48L30 48L30 49L31 49L31 47L33 47L33 48L32 48L32 49L33 49L33 48L34 48L34 47L35 47L35 48L36 48L36 49L37 49L37 46L38 46L38 44L40 44L40 45L39 45L39 47L38 47L38 48L39 48L39 49L40 49L40 48L41 48L41 49L42 49L42 48L41 48L41 46L42 46L42 47L43 47L43 48L44 48L44 49L46 49L46 47L49 47L49 46L48 46L48 45L49 45L49 44L48 44L48 43L49 43L49 36L48 36L48 38L47 38L47 37L46 37L46 35L47 35L47 34L46 34L46 35L44 35L44 33L46 33L46 32L47 32L47 33L48 33L48 35L49 35L49 33L48 33L48 32L47 32L47 31L45 31L45 32L44 32L44 31L43 31L43 30L42 30L42 31L40 31L40 29L44 29L44 30L46 30L46 29L47 29L47 30L48 30L48 31L49 31L49 25L47 25L47 26L46 26L46 23L45 23L45 21L46 21L46 20L47 20L47 21L48 21L48 24L49 24L49 20L47 20L47 19L45 19L45 18L46 18L46 17L47 17L47 18L48 18L48 19L49 19L49 16L48 16L48 15L49 15L49 8L47 8L47 9L48 9L48 14L47 14L47 16L45 16L45 14L44 14L44 13L46 13L46 8L43 8L43 11L44 11L44 9L45 9L45 12L44 12L44 13L43 13L43 12L42 12L42 13L40 13L40 11L42 11L42 9L41 9L41 10L40 10L40 8L41 8L41 6L40 6L40 7L39 7L39 5L38 5L38 7L39 7L39 8L38 8L38 9L37 9L37 8L35 8L35 6L36 6L36 7L37 7L37 6L36 6L36 5L34 5L34 7L33 7L33 5L32 5L32 7L31 7L31 4L34 4L34 3L35 3L35 4L36 4L36 3L35 3L35 2L36 2L36 1L35 1L35 0L34 0L34 1L35 1L35 2L34 2L34 3L30 3L30 0L27 0L27 3L24 3L24 2L23 2L23 0L21 0L21 3L20 3L20 0L19 0L19 2L18 2L18 1L17 1L17 2L18 2L18 4L17 4L17 5L18 5L18 7L19 7L19 5L18 5L18 4L19 4L19 3L20 3L20 4L21 4L21 5L22 5L22 10L24 10L24 11L20 11L20 10L21 10L21 9L18 9L18 10L19 10L19 11L20 11L20 12L19 12L19 13L17 13L17 12L18 12L18 11L17 11L17 12L16 12L16 10L17 10L17 9L14 9L14 8L15 8L15 6L16 6L16 8L17 8L17 6L16 6L16 5L15 5L15 6L14 6L14 7L13 7L13 5L14 5L14 3L15 3L15 4L16 4L16 2L13 2L13 0ZM14 0L14 1L15 1L15 0ZM31 0L31 2L33 2L33 0ZM37 0L37 1L38 1L38 2L39 2L39 4L40 4L40 3L41 3L41 0L40 0L40 1L38 1L38 0ZM25 1L25 2L26 2L26 1ZM22 2L22 3L23 3L23 2ZM28 2L28 4L29 4L29 7L28 7L28 5L27 5L27 9L24 9L24 10L25 10L25 11L26 11L26 12L27 12L27 11L28 11L28 13L29 13L29 14L32 14L32 13L31 13L31 12L33 12L33 13L36 13L36 14L34 14L34 15L33 15L33 18L32 18L32 17L31 17L31 18L30 18L30 17L29 17L29 19L28 19L28 18L27 18L27 17L28 17L28 16L29 16L29 15L27 15L27 17L25 17L25 18L26 18L26 19L24 19L24 17L23 17L23 15L24 15L24 14L26 14L26 13L25 13L25 12L24 12L24 14L23 14L23 12L21 12L21 13L22 13L22 14L21 14L21 15L20 15L20 14L17 14L17 15L16 15L16 14L15 14L15 13L14 13L14 16L15 16L15 17L13 17L13 18L15 18L15 19L14 19L14 21L13 21L13 19L11 19L11 18L12 18L12 17L9 17L9 18L8 18L8 19L6 19L6 20L5 20L5 21L4 21L4 22L3 22L3 28L2 28L2 27L1 27L1 29L2 29L2 31L3 31L3 29L4 29L4 28L5 28L5 29L6 29L6 30L8 30L8 31L5 31L5 30L4 30L4 31L5 31L5 33L4 33L4 32L2 32L2 33L1 33L1 34L2 34L2 35L4 35L4 34L7 34L7 35L5 35L5 36L7 36L7 35L9 35L9 34L7 34L7 33L6 33L6 32L8 32L8 31L9 31L9 30L10 30L10 32L11 32L11 30L10 30L10 28L14 28L14 29L13 29L13 31L14 31L14 32L13 32L13 33L12 33L12 35L13 35L13 36L12 36L12 37L13 37L13 39L12 39L12 38L11 38L11 39L12 39L12 40L11 40L11 41L9 41L9 42L11 42L11 43L12 43L12 44L14 44L14 43L16 43L16 41L19 41L19 40L20 40L20 42L19 42L19 44L20 44L20 42L21 42L21 45L20 45L20 46L21 46L21 45L22 45L22 40L24 40L24 39L25 39L25 40L27 40L27 39L28 39L28 40L29 40L29 38L24 38L24 37L23 37L23 38L24 38L24 39L22 39L22 37L21 37L21 39L22 39L22 40L20 40L20 39L19 39L19 38L20 38L20 37L19 37L19 35L21 35L21 36L22 36L22 35L23 35L23 36L24 36L24 35L23 35L23 32L24 32L24 33L25 33L25 35L26 35L26 36L25 36L25 37L26 37L26 36L27 36L27 35L26 35L26 33L25 33L25 32L27 32L27 34L28 34L28 36L29 36L29 37L30 37L30 38L31 38L31 39L30 39L30 40L32 40L32 39L33 39L33 38L32 38L32 36L33 36L33 37L35 37L35 38L34 38L34 42L35 42L35 44L36 44L36 39L35 39L35 38L36 38L36 36L35 36L35 35L34 35L34 36L33 36L33 34L31 34L31 33L29 33L29 32L30 32L30 31L29 31L29 30L31 30L31 28L32 28L32 27L33 27L33 25L34 25L34 24L35 24L35 26L34 26L34 27L35 27L35 28L34 28L34 32L33 32L33 31L31 31L31 32L33 32L33 33L34 33L34 34L35 34L35 33L38 33L38 34L36 34L36 35L37 35L37 36L38 36L38 37L37 37L37 38L40 38L40 39L38 39L38 40L37 40L37 41L38 41L38 40L39 40L39 41L40 41L40 40L42 40L42 39L41 39L41 37L42 37L42 38L43 38L43 39L44 39L44 40L47 40L47 41L46 41L46 42L45 42L45 43L46 43L46 42L47 42L47 43L48 43L48 42L47 42L47 41L48 41L48 40L47 40L47 38L46 38L46 39L45 39L45 36L44 36L44 35L43 35L43 36L44 36L44 37L42 37L42 36L41 36L41 35L42 35L42 34L41 34L41 33L40 33L40 31L39 31L39 30L38 30L38 31L36 31L36 30L37 30L37 29L36 29L36 24L35 24L35 23L39 23L39 19L38 19L38 18L39 18L39 16L38 16L38 15L37 15L37 16L38 16L38 17L37 17L37 21L36 21L36 22L35 22L35 20L36 20L36 14L39 14L39 15L40 15L40 14L39 14L39 13L38 13L38 11L40 11L40 10L39 10L39 9L38 9L38 10L37 10L37 9L34 9L34 8L33 8L33 7L32 7L32 8L29 8L29 7L30 7L30 4L29 4L29 2ZM37 3L37 4L38 4L38 3ZM23 5L23 8L26 8L26 5ZM20 6L20 7L21 7L21 6ZM24 6L24 7L25 7L25 6ZM3 8L3 9L0 9L0 10L2 10L2 12L3 12L3 14L2 14L2 13L1 13L1 12L0 12L0 13L1 13L1 14L0 14L0 16L1 16L1 17L0 17L0 18L4 18L4 16L5 16L5 15L4 15L4 13L5 13L5 12L4 12L4 11L3 11L3 9L4 9L4 8ZM28 8L28 9L29 9L29 10L28 10L28 11L30 11L30 12L29 12L29 13L30 13L30 12L31 12L31 10L32 10L32 11L34 11L34 12L35 12L35 10L34 10L34 9L33 9L33 8L32 8L32 9L31 9L31 10L30 10L30 9L29 9L29 8ZM32 9L32 10L33 10L33 9ZM36 10L36 13L37 13L37 10ZM12 13L12 14L13 14L13 13ZM42 13L42 14L41 14L41 16L40 16L40 18L41 18L41 19L42 19L42 22L43 22L43 21L45 21L45 20L43 20L43 19L44 19L44 18L45 18L45 17L43 17L43 16L44 16L44 14L43 14L43 13ZM1 14L1 15L2 15L2 17L3 17L3 15L2 15L2 14ZM9 14L9 15L10 15L10 16L11 16L11 15L10 15L10 14ZM12 15L12 16L13 16L13 15ZM17 15L17 16L19 16L19 17L18 17L18 18L17 18L17 17L16 17L16 18L17 18L17 19L15 19L15 22L14 22L14 23L15 23L15 24L13 24L13 22L12 22L12 20L11 20L11 19L9 19L9 20L10 20L10 21L9 21L9 22L6 22L6 21L7 21L7 20L6 20L6 21L5 21L5 22L4 22L4 27L5 27L5 28L6 28L6 29L7 29L7 28L10 28L10 27L9 27L9 24L10 24L10 26L11 26L11 25L12 25L12 26L13 26L13 27L14 27L14 28L15 28L15 29L14 29L14 31L15 31L15 29L16 29L16 28L17 28L17 27L16 27L16 26L17 26L17 25L18 25L18 26L19 26L19 25L18 25L18 24L17 24L17 23L18 23L18 22L19 22L19 24L20 24L20 25L21 25L21 26L20 26L20 27L26 27L26 29L25 29L25 30L24 30L24 29L22 29L22 28L21 28L21 30L22 30L22 31L21 31L21 32L20 32L20 31L19 31L19 32L20 32L20 34L22 34L22 33L21 33L21 32L22 32L22 31L25 31L25 30L26 30L26 31L27 31L27 32L28 32L28 30L29 30L29 29L30 29L30 28L29 28L29 27L30 27L30 25L31 25L31 26L32 26L32 25L33 25L33 24L34 24L34 23L35 23L35 22L34 22L34 21L33 21L33 20L32 20L32 19L29 19L29 20L31 20L31 21L29 21L29 22L28 22L28 20L24 20L24 19L21 19L21 16L19 16L19 15ZM25 15L25 16L26 16L26 15ZM30 15L30 16L32 16L32 15ZM34 15L34 20L35 20L35 15ZM6 16L6 17L7 17L7 16ZM41 16L41 17L42 17L42 16ZM47 16L47 17L48 17L48 16ZM19 17L19 18L18 18L18 19L17 19L17 20L16 20L16 21L18 21L18 20L19 20L19 21L21 21L21 22L20 22L20 23L21 23L21 25L22 25L22 23L21 23L21 22L23 22L23 20L20 20L20 17ZM42 18L42 19L43 19L43 18ZM0 19L0 20L1 20L1 19ZM40 20L40 22L41 22L41 20ZM10 21L10 22L11 22L11 24L12 24L12 25L13 25L13 24L12 24L12 22L11 22L11 21ZM24 21L24 22L25 22L25 21ZM31 21L31 22L30 22L30 23L28 23L28 24L27 24L27 27L29 27L29 25L30 25L30 23L31 23L31 25L32 25L32 21ZM37 21L37 22L38 22L38 21ZM16 22L16 23L17 23L17 22ZM5 23L5 26L8 26L8 23ZM23 23L23 26L26 26L26 23ZM41 23L41 26L44 26L44 23ZM1 24L1 25L2 25L2 24ZM6 24L6 25L7 25L7 24ZM16 24L16 25L17 25L17 24ZM24 24L24 25L25 25L25 24ZM37 24L37 26L39 26L39 25L40 25L40 24ZM42 24L42 25L43 25L43 24ZM14 26L14 27L15 27L15 28L16 28L16 27L15 27L15 26ZM45 26L45 27L44 27L44 29L45 29L45 27L46 27L46 28L48 28L48 27L46 27L46 26ZM6 27L6 28L7 28L7 27ZM38 27L38 29L40 29L40 28L42 28L42 27ZM18 28L18 29L17 29L17 31L16 31L16 32L17 32L17 31L18 31L18 29L19 29L19 30L20 30L20 29L19 29L19 28ZM28 28L28 29L26 29L26 30L28 30L28 29L29 29L29 28ZM8 29L8 30L9 30L9 29ZM32 29L32 30L33 30L33 29ZM35 29L35 30L36 30L36 29ZM35 31L35 32L34 32L34 33L35 33L35 32L36 32L36 31ZM14 32L14 33L13 33L13 34L14 34L14 33L15 33L15 36L14 36L14 40L12 40L12 41L11 41L11 42L13 42L13 43L14 43L14 42L15 42L15 41L14 41L14 40L15 40L15 38L16 38L16 37L15 37L15 36L16 36L16 33L15 33L15 32ZM2 33L2 34L4 34L4 33ZM17 33L17 35L18 35L18 33ZM39 33L39 34L40 34L40 35L41 35L41 34L40 34L40 33ZM29 34L29 36L30 36L30 35L31 35L31 34ZM38 35L38 36L39 36L39 35ZM40 36L40 37L41 37L41 36ZM17 37L17 38L18 38L18 37ZM16 39L16 40L19 40L19 39ZM23 41L23 44L26 44L26 41ZM27 41L27 42L30 42L30 43L32 43L32 42L31 42L31 41ZM41 41L41 44L44 44L44 41ZM17 42L17 46L19 46L19 45L18 45L18 42ZM24 42L24 43L25 43L25 42ZM39 42L39 43L40 43L40 42ZM42 42L42 43L43 43L43 42ZM28 43L28 44L27 44L27 45L28 45L28 46L29 46L29 45L30 45L30 46L31 46L31 45L34 45L34 46L35 46L35 47L36 47L36 46L37 46L37 45L36 45L36 46L35 46L35 45L34 45L34 44L29 44L29 43ZM37 43L37 44L38 44L38 43ZM15 44L15 47L16 47L16 44ZM46 44L46 45L45 45L45 46L47 46L47 44ZM40 45L40 46L41 46L41 45ZM42 45L42 46L44 46L44 45ZM17 47L17 48L18 48L18 47ZM13 48L13 49L14 49L14 48ZM25 48L25 49L26 49L26 48ZM47 48L47 49L49 49L49 48ZM0 0L0 7L7 7L7 0ZM1 1L1 6L6 6L6 1ZM2 2L2 5L5 5L5 2ZM42 0L42 7L49 7L49 0ZM43 1L43 6L48 6L48 1ZM44 2L44 5L47 5L47 2ZM0 42L0 49L7 49L7 42ZM1 43L1 48L6 48L6 43ZM2 44L2 47L5 47L5 44Z" fill="#000000"/></g></g></svg>
