<?xml version="1.0" encoding="UTF-8"?>
<svg xmlns="http://www.w3.org/2000/svg" version="1.1" width="200" height="200" viewBox="0 0 200 200"><rect x="0" y="0" width="200" height="200" fill="#ffffff"/><g transform="scale(3.774)"><g transform="translate(2,2)"><path fill-rule="evenodd" d="M10 0L10 2L11 2L11 3L12 3L12 5L11 5L11 6L10 6L10 3L9 3L9 5L8 5L8 8L4 8L4 9L3 9L3 10L2 10L2 14L0 14L0 15L1 15L1 17L2 17L2 18L0 18L0 21L1 21L1 22L0 22L0 23L1 23L1 24L0 24L0 26L1 26L1 27L0 27L0 28L1 28L1 29L0 29L0 30L2 30L2 31L0 31L0 32L1 32L1 33L0 33L0 34L1 34L1 35L2 35L2 36L0 36L0 37L1 37L1 40L0 40L0 41L3 41L3 40L4 40L4 39L2 39L2 37L3 37L3 38L5 38L5 39L8 39L8 45L9 45L9 46L10 46L10 41L9 41L9 40L11 40L11 41L12 41L12 42L13 42L13 43L12 43L12 44L11 44L11 48L10 48L10 47L9 47L9 49L12 49L12 48L13 48L13 49L18 49L18 47L17 47L17 48L16 48L16 47L15 47L15 46L16 46L16 45L17 45L17 44L19 44L19 46L21 46L21 45L23 45L23 47L21 47L21 49L23 49L23 48L25 48L25 47L24 47L24 45L25 45L25 46L26 46L26 47L27 47L27 46L28 46L28 47L29 47L29 48L26 48L26 49L30 49L30 48L31 48L31 49L33 49L33 48L35 48L35 47L36 47L36 49L38 49L38 48L37 48L37 47L39 47L39 49L42 49L42 46L43 46L43 45L47 45L47 44L48 44L48 46L49 46L49 44L48 44L48 41L47 41L47 42L45 42L45 41L46 41L46 40L48 40L48 37L49 37L49 35L48 35L48 33L49 33L49 31L48 31L48 29L49 29L49 27L48 27L48 26L49 26L49 23L48 23L48 21L49 21L49 20L48 20L48 21L47 21L47 19L48 19L48 17L49 17L49 16L48 16L48 13L49 13L49 12L48 12L48 8L47 8L47 11L46 11L46 9L44 9L44 8L42 8L42 11L40 11L40 10L39 10L39 9L41 9L41 6L40 6L40 7L39 7L39 5L38 5L38 7L39 7L39 9L38 9L38 8L36 8L36 9L35 9L35 11L33 11L33 8L35 8L35 6L36 6L36 7L37 7L37 5L32 5L32 4L34 4L34 3L35 3L35 4L36 4L36 3L37 3L37 2L39 2L39 4L40 4L40 3L41 3L41 0L40 0L40 1L38 1L38 0L37 0L37 1L36 1L36 3L35 3L35 1L33 1L33 2L32 2L32 1L31 1L31 0L30 0L30 1L29 1L29 0L28 0L28 1L29 1L29 2L28 2L28 3L27 3L27 2L26 2L26 4L24 4L24 2L25 2L25 1L23 1L23 0L20 0L20 1L19 1L19 0L18 0L18 1L17 1L17 3L19 3L19 2L20 2L20 4L21 4L21 5L22 5L22 8L19 8L19 6L20 6L20 7L21 7L21 6L20 6L20 5L19 5L19 4L18 4L18 5L17 5L17 4L16 4L16 3L15 3L15 2L16 2L16 1L15 1L15 0L13 0L13 1L11 1L11 0ZM8 1L8 2L9 2L9 1ZM13 1L13 2L15 2L15 1ZM18 1L18 2L19 2L19 1ZM20 1L20 2L21 2L21 4L23 4L23 3L22 3L22 2L23 2L23 1ZM29 2L29 4L27 4L27 5L28 5L28 6L27 6L27 7L28 7L28 6L29 6L29 7L30 7L30 6L31 6L31 7L32 7L32 6L31 6L31 4L32 4L32 2ZM13 4L13 5L12 5L12 6L11 6L11 7L10 7L10 6L9 6L9 7L10 7L10 8L11 8L11 9L12 9L12 10L13 10L13 11L11 11L11 10L10 10L10 9L9 9L9 8L8 8L8 9L9 9L9 10L10 10L10 11L11 11L11 12L10 12L10 13L11 13L11 15L10 15L10 14L9 14L9 15L8 15L8 14L7 14L7 13L9 13L9 12L7 12L7 11L8 11L8 10L7 10L7 9L4 9L4 10L7 10L7 11L5 11L5 14L4 14L4 12L3 12L3 14L4 14L4 15L2 15L2 17L4 17L4 18L3 18L3 19L1 19L1 20L4 20L4 21L2 21L2 23L3 23L3 24L1 24L1 25L4 25L4 23L3 23L3 22L4 22L4 21L5 21L5 22L8 22L8 21L5 21L5 19L6 19L6 20L7 20L7 19L8 19L8 20L9 20L9 21L10 21L10 24L12 24L12 26L13 26L13 28L12 28L12 27L11 27L11 26L10 26L10 25L9 25L9 28L10 28L10 27L11 27L11 28L12 28L12 29L10 29L10 31L9 31L9 29L6 29L6 28L7 28L7 27L5 27L5 29L4 29L4 30L3 30L3 34L4 34L4 33L5 33L5 34L7 34L7 35L5 35L5 38L7 38L7 37L6 37L6 36L7 36L7 35L8 35L8 37L9 37L9 39L10 39L10 37L12 37L12 38L11 38L11 39L14 39L14 40L12 40L12 41L14 41L14 45L12 45L12 47L13 47L13 48L14 48L14 47L13 47L13 46L15 46L15 43L16 43L16 42L18 42L18 43L19 43L19 41L20 41L20 40L21 40L21 39L20 39L20 38L22 38L22 36L23 36L23 37L24 37L24 36L25 36L25 38L27 38L27 39L25 39L25 40L28 40L28 41L27 41L27 42L28 42L28 43L27 43L27 45L28 45L28 44L31 44L31 43L34 43L34 42L36 42L36 43L35 43L35 44L33 44L33 45L32 45L32 46L30 46L30 45L29 45L29 46L30 46L30 47L35 47L35 46L36 46L36 47L37 47L37 46L36 46L36 43L37 43L37 45L38 45L38 43L39 43L39 42L40 42L40 39L41 39L41 40L42 40L42 39L43 39L43 40L45 40L45 39L46 39L46 38L47 38L47 37L48 37L48 36L47 36L47 37L45 37L45 34L47 34L47 33L45 33L45 32L43 32L43 33L42 33L42 32L40 32L40 31L41 31L41 30L42 30L42 31L44 31L44 30L46 30L46 29L43 29L43 30L42 30L42 27L41 27L41 28L40 28L40 24L39 24L39 23L37 23L37 25L39 25L39 30L40 30L40 31L37 31L37 30L36 30L36 33L35 33L35 29L36 29L36 27L37 27L37 28L38 28L38 27L37 27L37 26L36 26L36 23L35 23L35 21L36 21L36 19L35 19L35 21L34 21L34 19L33 19L33 17L34 17L34 16L35 16L35 18L36 18L36 15L37 15L37 13L36 13L36 11L37 11L37 10L36 10L36 11L35 11L35 13L32 13L32 12L33 12L33 11L32 11L32 8L28 8L28 9L29 9L29 10L27 10L27 11L25 11L25 12L23 12L23 11L24 11L24 10L23 10L23 11L22 11L22 10L21 10L21 9L20 9L20 10L19 10L19 9L17 9L17 10L19 10L19 12L18 12L18 13L17 13L17 12L16 12L16 10L14 10L14 8L15 8L15 9L16 9L16 8L18 8L18 6L19 6L19 5L18 5L18 6L17 6L17 7L16 7L16 6L15 6L15 7L14 7L14 4ZM15 4L15 5L16 5L16 4ZM29 4L29 6L30 6L30 4ZM23 5L23 8L26 8L26 5ZM12 6L12 7L11 7L11 8L12 8L12 7L13 7L13 8L14 8L14 7L13 7L13 6ZM24 6L24 7L25 7L25 6ZM33 6L33 7L34 7L34 6ZM15 7L15 8L16 8L16 7ZM25 9L25 10L26 10L26 9ZM30 9L30 10L31 10L31 9ZM43 9L43 11L42 11L42 12L43 12L43 11L44 11L44 9ZM0 10L0 13L1 13L1 10ZM27 11L27 12L28 12L28 11ZM29 11L29 12L32 12L32 11ZM38 11L38 13L39 13L39 14L41 14L41 15L40 15L40 17L39 17L39 16L38 16L38 17L37 17L37 20L39 20L39 19L40 19L40 18L41 18L41 19L42 19L42 20L41 20L41 21L39 21L39 22L42 22L42 21L43 21L43 18L42 18L42 17L41 17L41 15L42 15L42 16L43 16L43 15L45 15L45 17L44 17L44 19L45 19L45 18L46 18L46 19L47 19L47 17L48 17L48 16L47 16L47 14L46 14L46 15L45 15L45 14L43 14L43 15L42 15L42 13L39 13L39 12L40 12L40 11ZM6 12L6 13L7 13L7 12ZM12 12L12 14L15 14L15 15L16 15L16 17L15 17L15 16L13 16L13 15L11 15L11 17L10 17L10 16L9 16L9 17L10 17L10 18L9 18L9 20L10 20L10 21L11 21L11 20L13 20L13 21L14 21L14 22L16 22L16 24L14 24L14 23L12 23L12 22L11 22L11 23L12 23L12 24L13 24L13 26L14 26L14 25L15 25L15 26L16 26L16 27L14 27L14 28L15 28L15 29L14 29L14 30L13 30L13 31L10 31L10 32L11 32L11 33L10 33L10 34L11 34L11 35L12 35L12 36L14 36L14 37L13 37L13 38L16 38L16 39L18 39L18 40L20 40L20 39L19 39L19 37L20 37L20 35L21 35L21 36L22 36L22 35L23 35L23 33L24 33L24 34L27 34L27 33L28 33L28 32L29 32L29 34L28 34L28 36L27 36L27 38L28 38L28 39L29 39L29 41L28 41L28 42L29 42L29 43L30 43L30 40L31 40L31 41L32 41L32 42L33 42L33 41L34 41L34 40L35 40L35 39L30 39L30 37L29 37L29 38L28 38L28 36L32 36L32 37L33 37L33 38L34 38L34 37L35 37L35 36L34 36L34 37L33 37L33 34L32 34L32 33L31 33L31 31L32 31L32 29L33 29L33 28L35 28L35 27L36 27L36 26L35 26L35 27L32 27L32 29L31 29L31 30L30 30L30 32L29 32L29 31L27 31L27 30L26 30L26 29L28 29L28 28L26 28L26 27L28 27L28 26L27 26L27 25L28 25L28 24L27 24L27 22L25 22L25 21L24 21L24 19L23 19L23 17L24 17L24 18L25 18L25 17L26 17L26 19L25 19L25 20L26 20L26 19L27 19L27 21L28 21L28 22L29 22L29 23L30 23L30 24L29 24L29 26L30 26L30 28L29 28L29 29L30 29L30 28L31 28L31 26L30 26L30 25L32 25L32 26L33 26L33 24L34 24L34 25L35 25L35 23L33 23L33 24L32 24L32 22L33 22L33 20L31 20L31 21L30 21L30 20L29 20L29 19L28 19L28 17L29 17L29 18L30 18L30 17L31 17L31 19L32 19L32 17L33 17L33 15L34 15L34 14L33 14L33 15L32 15L32 14L31 14L31 13L29 13L29 14L30 14L30 15L28 15L28 13L27 13L27 15L26 15L26 14L25 14L25 13L26 13L26 12L25 12L25 13L23 13L23 14L24 14L24 15L26 15L26 16L23 16L23 17L22 17L22 16L21 16L21 15L22 15L22 14L21 14L21 13L22 13L22 12L21 12L21 13L20 13L20 12L19 12L19 14L20 14L20 16L19 16L19 15L18 15L18 16L17 16L17 15L16 15L16 12ZM47 12L47 13L48 13L48 12ZM5 14L5 15L7 15L7 14ZM27 15L27 17L28 17L28 15ZM31 15L31 16L32 16L32 15ZM5 16L5 17L8 17L8 16ZM12 16L12 17L11 17L11 18L12 18L12 19L14 19L14 20L16 20L16 21L18 21L18 22L17 22L17 24L16 24L16 26L17 26L17 28L16 28L16 31L18 31L18 30L17 30L17 28L18 28L18 29L20 29L20 28L21 28L21 27L22 27L22 29L23 29L23 28L24 28L24 30L25 30L25 31L24 31L24 32L25 32L25 33L26 33L26 32L27 32L27 31L26 31L26 30L25 30L25 28L24 28L24 27L22 27L22 23L21 23L21 25L19 25L19 24L18 24L18 22L19 22L19 23L20 23L20 21L19 21L19 20L16 20L16 19L19 19L19 18L20 18L20 20L21 20L21 22L22 22L22 20L23 20L23 19L22 19L22 17L21 17L21 16L20 16L20 17L19 17L19 18L18 18L18 17L16 17L16 19L14 19L14 18L15 18L15 17L13 17L13 16ZM29 16L29 17L30 17L30 16ZM12 17L12 18L13 18L13 17ZM4 18L4 19L5 19L5 18ZM6 18L6 19L7 19L7 18ZM10 19L10 20L11 20L11 19ZM21 19L21 20L22 20L22 19ZM23 21L23 22L24 22L24 21ZM44 21L44 22L45 22L45 21ZM46 21L46 22L47 22L47 21ZM5 23L5 26L8 26L8 23ZM23 23L23 26L26 26L26 23ZM41 23L41 26L44 26L44 23ZM6 24L6 25L7 25L7 24ZM24 24L24 25L25 25L25 24ZM42 24L42 25L43 25L43 24ZM45 25L45 27L43 27L43 28L45 28L45 27L46 27L46 25ZM47 25L47 26L48 26L48 25ZM3 26L3 27L1 27L1 28L2 28L2 29L3 29L3 27L4 27L4 26ZM18 26L18 28L20 28L20 27L21 27L21 26L20 26L20 27L19 27L19 26ZM47 27L47 28L48 28L48 27ZM5 29L5 30L4 30L4 31L5 31L5 33L7 33L7 34L8 34L8 35L9 35L9 34L8 34L8 33L9 33L9 32L6 32L6 31L8 31L8 30L6 30L6 29ZM5 30L5 31L6 31L6 30ZM14 30L14 31L13 31L13 32L12 32L12 33L13 33L13 32L14 32L14 36L16 36L16 38L18 38L18 37L17 37L17 36L19 36L19 35L17 35L17 36L16 36L16 35L15 35L15 33L16 33L16 34L17 34L17 33L18 33L18 34L19 34L19 32L14 32L14 31L15 31L15 30ZM19 30L19 31L21 31L21 30ZM22 31L22 32L21 32L21 35L22 35L22 32L23 32L23 31ZM33 31L33 33L34 33L34 31ZM37 32L37 34L36 34L36 37L37 37L37 38L36 38L36 42L37 42L37 43L38 43L38 42L39 42L39 40L38 40L38 41L37 41L37 38L38 38L38 39L39 39L39 38L41 38L41 39L42 39L42 38L41 38L41 37L39 37L39 36L37 36L37 35L40 35L40 36L41 36L41 35L42 35L42 37L43 37L43 38L45 38L45 37L43 37L43 35L42 35L42 34L41 34L41 35L40 35L40 33L38 33L38 32ZM1 33L1 34L2 34L2 33ZM43 33L43 34L45 34L45 33ZM29 34L29 35L31 35L31 34ZM3 35L3 37L4 37L4 35ZM25 35L25 36L26 36L26 35ZM9 36L9 37L10 37L10 36ZM23 38L23 40L24 40L24 38ZM6 40L6 41L7 41L7 40ZM14 40L14 41L17 41L17 40ZM23 41L23 44L26 44L26 41ZM41 41L41 44L44 44L44 41ZM21 42L21 43L20 43L20 45L21 45L21 43L22 43L22 42ZM24 42L24 43L25 43L25 42ZM42 42L42 43L43 43L43 42ZM39 44L39 47L40 47L40 48L41 48L41 45L40 45L40 44ZM45 46L45 47L44 47L44 48L43 48L43 49L49 49L49 48L48 48L48 47L47 47L47 46ZM19 47L19 48L20 48L20 47ZM0 0L0 7L7 7L7 0ZM1 1L1 6L6 6L6 1ZM2 2L2 5L5 5L5 2ZM42 0L42 7L49 7L49 0ZM43 1L43 6L48 6L48 1ZM44 2L44 5L47 5L47 2ZM0 42L0 49L7 49L7 42ZM1 43L1 48L6 48L6 43ZM2 44L2 47L5 47L5 44Z" fill="#000000"/></g></g></svg>
