<?xml version="1.0" encoding="UTF-8"?>
<svg xmlns="http://www.w3.org/2000/svg" version="1.1" width="200" height="200" viewBox="0 0 200 200"><rect x="0" y="0" width="200" height="200" fill="#ffffff"/><g transform="scale(3.774)"><g transform="translate(2,2)"><path fill-rule="evenodd" d="M9 0L9 1L10 1L10 2L13 2L13 1L15 1L15 2L14 2L14 3L13 3L13 5L12 5L12 8L13 8L13 6L14 6L14 9L13 9L13 10L14 10L14 11L15 11L15 12L13 12L13 11L12 11L12 9L10 9L10 10L9 10L9 9L8 9L8 8L6 8L6 9L8 9L8 10L9 10L9 11L7 11L7 10L5 10L5 8L3 8L3 9L1 9L1 10L2 10L2 11L3 11L3 12L2 12L2 15L0 15L0 16L3 16L3 18L4 18L4 19L2 19L2 17L1 17L1 18L0 18L0 19L2 19L2 20L1 20L1 21L0 21L0 22L1 22L1 23L0 23L0 27L1 27L1 26L2 26L2 28L3 28L3 26L4 26L4 29L3 29L3 30L6 30L6 31L7 31L7 32L5 32L5 31L3 31L3 32L2 32L2 31L1 31L1 29L0 29L0 31L1 31L1 32L2 32L2 34L0 34L0 37L1 37L1 40L0 40L0 41L3 41L3 40L4 40L4 39L2 39L2 37L3 37L3 38L5 38L5 39L7 39L7 38L8 38L8 39L9 39L9 37L8 37L8 35L9 35L9 36L10 36L10 40L6 40L6 41L8 41L8 43L9 43L9 44L8 44L8 46L9 46L9 45L10 45L10 47L11 47L11 48L12 48L12 47L14 47L14 48L13 48L13 49L15 49L15 47L14 47L14 46L16 46L16 47L17 47L17 48L20 48L20 47L21 47L21 46L22 46L22 48L23 48L23 49L24 49L24 47L25 47L25 46L28 46L28 44L29 44L29 43L30 43L30 44L31 44L31 45L32 45L32 44L31 44L31 43L33 43L33 42L32 42L32 41L33 41L33 40L32 40L32 38L30 38L30 35L31 35L31 36L32 36L32 37L33 37L33 38L34 38L34 35L35 35L35 33L36 33L36 32L37 32L37 33L38 33L38 34L37 34L37 35L38 35L38 36L35 36L35 37L37 37L37 39L38 39L38 40L36 40L36 38L35 38L35 39L34 39L34 40L35 40L35 41L34 41L34 43L35 43L35 44L33 44L33 45L34 45L34 48L33 48L33 46L32 46L32 47L31 47L31 46L30 46L30 47L29 47L29 48L30 48L30 47L31 47L31 49L38 49L38 48L35 48L35 47L38 47L38 46L39 46L39 45L40 45L40 47L41 47L41 48L43 48L43 49L45 49L45 47L46 47L46 48L48 48L48 49L49 49L49 42L47 42L47 41L48 41L48 40L49 40L49 38L48 38L48 37L49 37L49 36L48 36L48 35L49 35L49 34L48 34L48 33L49 33L49 32L47 32L47 33L46 33L46 34L45 34L45 32L44 32L44 35L46 35L46 36L47 36L47 38L46 38L46 40L47 40L47 41L46 41L46 42L45 42L45 39L44 39L44 38L45 38L45 37L43 37L43 36L41 36L41 35L43 35L43 34L41 34L41 32L40 32L40 30L41 30L41 31L44 31L44 30L45 30L45 31L49 31L49 30L45 30L45 23L46 23L46 24L48 24L48 27L47 27L47 25L46 25L46 29L47 29L47 28L48 28L48 29L49 29L49 28L48 28L48 27L49 27L49 24L48 24L48 23L49 23L49 22L48 22L48 21L49 21L49 18L47 18L47 17L49 17L49 14L48 14L48 13L49 13L49 10L48 10L48 9L47 9L47 8L45 8L45 9L42 9L42 10L45 10L45 11L41 11L41 12L42 12L42 14L39 14L39 13L37 13L37 12L38 12L38 10L39 10L39 11L40 11L40 10L41 10L41 9L40 9L40 10L39 10L39 5L38 5L38 4L37 4L37 3L38 3L38 2L39 2L39 4L40 4L40 3L41 3L41 0L40 0L40 1L38 1L38 0L37 0L37 1L36 1L36 0L33 0L33 2L32 2L32 1L31 1L31 0L29 0L29 2L25 2L25 0L22 0L22 3L21 3L21 2L20 2L20 1L21 1L21 0L20 0L20 1L19 1L19 0L13 0L13 1L12 1L12 0L11 0L11 1L10 1L10 0ZM27 0L27 1L28 1L28 0ZM16 1L16 2L15 2L15 3L14 3L14 4L15 4L15 3L16 3L16 4L17 4L17 3L19 3L19 1L18 1L18 2L17 2L17 1ZM23 1L23 3L22 3L22 4L20 4L20 6L19 6L19 5L17 5L17 7L18 7L18 8L16 8L16 6L15 6L15 5L14 5L14 6L15 6L15 8L16 8L16 10L15 10L15 9L14 9L14 10L15 10L15 11L17 11L17 9L18 9L18 12L17 12L17 13L16 13L16 12L15 12L15 13L16 13L16 15L17 15L17 14L19 14L19 12L20 12L20 13L21 13L21 14L22 14L22 15L18 15L18 16L16 16L16 17L15 17L15 19L14 19L14 20L15 20L15 21L14 21L14 22L13 22L13 19L12 19L12 20L11 20L11 21L10 21L10 22L13 22L13 23L9 23L9 27L8 27L8 28L7 28L7 27L6 27L6 28L7 28L7 29L6 29L6 30L7 30L7 31L8 31L8 30L7 30L7 29L8 29L8 28L9 28L9 29L10 29L10 28L9 28L9 27L12 27L12 28L14 28L14 31L13 31L13 29L12 29L12 31L13 31L13 32L12 32L12 33L13 33L13 34L12 34L12 35L10 35L10 34L11 34L11 33L10 33L10 32L11 32L11 31L9 31L9 32L8 32L8 33L4 33L4 32L3 32L3 33L4 33L4 35L1 35L1 36L4 36L4 37L5 37L5 38L7 38L7 37L5 37L5 36L7 36L7 35L8 35L8 34L9 34L9 35L10 35L10 36L12 36L12 38L13 38L13 37L14 37L14 36L15 36L15 37L16 37L16 38L14 38L14 39L16 39L16 40L15 40L15 41L17 41L17 39L18 39L18 42L19 42L19 43L18 43L18 46L17 46L17 47L18 47L18 46L19 46L19 47L20 47L20 45L19 45L19 44L21 44L21 45L22 45L22 39L21 39L21 42L19 42L19 41L20 41L20 40L19 40L19 38L22 38L22 37L23 37L23 35L24 35L24 36L25 36L25 38L24 38L24 40L26 40L26 38L27 38L27 40L28 40L28 41L27 41L27 43L29 43L29 42L31 42L31 41L32 41L32 40L31 40L31 39L30 39L30 38L29 38L29 37L28 37L28 36L27 36L27 35L30 35L30 34L28 34L28 32L29 32L29 33L31 33L31 34L32 34L32 35L34 35L34 31L35 31L35 32L36 32L36 31L35 31L35 30L36 30L36 29L35 29L35 28L34 28L34 27L36 27L36 28L37 28L37 31L39 31L39 30L40 30L40 29L41 29L41 28L40 28L40 29L38 29L38 28L39 28L39 27L40 27L40 23L39 23L39 22L40 22L40 21L41 21L41 22L42 22L42 21L43 21L43 22L45 22L45 21L48 21L48 20L47 20L47 18L46 18L46 17L47 17L47 16L48 16L48 14L46 14L46 17L45 17L45 18L46 18L46 19L44 19L44 18L43 18L43 20L42 20L42 18L41 18L41 19L40 19L40 17L42 17L42 15L43 15L43 14L42 14L42 15L38 15L38 14L36 14L36 13L35 13L35 12L37 12L37 11L35 11L35 12L34 12L34 9L33 9L33 8L35 8L35 9L36 9L36 8L35 8L35 7L36 7L36 5L37 5L37 4L36 4L36 3L37 3L37 2L36 2L36 1L35 1L35 2L36 2L36 3L33 3L33 4L34 4L34 6L33 6L33 5L32 5L32 2L31 2L31 4L29 4L29 3L28 3L28 5L29 5L29 7L28 7L28 6L27 6L27 9L28 9L28 10L26 10L26 11L25 11L25 10L23 10L23 9L22 9L22 8L20 8L20 6L21 6L21 7L22 7L22 4L24 4L24 1ZM8 2L8 4L9 4L9 2ZM11 3L11 4L12 4L12 3ZM25 3L25 4L27 4L27 3ZM35 4L35 5L36 5L36 4ZM23 5L23 8L26 8L26 5ZM31 5L31 6L30 6L30 7L29 7L29 8L28 8L28 9L29 9L29 10L28 10L28 11L29 11L29 12L27 12L27 11L26 11L26 12L25 12L25 13L24 13L24 11L23 11L23 12L22 12L22 11L21 11L21 10L22 10L22 9L21 9L21 10L20 10L20 11L21 11L21 12L22 12L22 13L23 13L23 15L24 15L24 16L21 16L21 17L24 17L24 18L25 18L25 19L24 19L24 20L23 20L23 18L22 18L22 20L21 20L21 21L20 21L20 19L18 19L18 20L19 20L19 21L17 21L17 20L16 20L16 21L15 21L15 22L14 22L14 23L13 23L13 27L14 27L14 25L15 25L15 26L16 26L16 28L18 28L18 26L16 26L16 25L18 25L18 24L17 24L17 23L15 23L15 22L16 22L16 21L17 21L17 22L21 22L21 23L19 23L19 25L22 25L22 27L21 27L21 26L19 26L19 29L18 29L18 30L19 30L19 29L20 29L20 28L22 28L22 29L21 29L21 31L19 31L19 32L18 32L18 31L17 31L17 32L14 32L14 33L15 33L15 34L13 34L13 36L14 36L14 35L15 35L15 36L16 36L16 37L17 37L17 35L18 35L18 38L19 38L19 37L20 37L20 34L21 34L21 33L22 33L22 32L23 32L23 31L24 31L24 35L25 35L25 36L26 36L26 35L27 35L27 33L26 33L26 35L25 35L25 32L27 32L27 31L24 31L24 30L23 30L23 28L24 28L24 27L25 27L25 28L27 28L27 29L25 29L25 30L27 30L27 29L28 29L28 28L30 28L30 25L32 25L32 26L31 26L31 27L32 27L32 26L33 26L33 25L34 25L34 24L35 24L35 25L36 25L36 27L37 27L37 26L38 26L38 27L39 27L39 25L38 25L38 24L35 24L35 23L36 23L36 22L37 22L37 23L38 23L38 22L39 22L39 21L38 21L38 20L39 20L39 17L37 17L37 16L38 16L38 15L37 15L37 16L36 16L36 15L35 15L35 16L34 16L34 14L33 14L33 16L32 16L32 15L31 15L31 16L29 16L29 15L30 15L30 14L31 14L31 13L30 13L30 10L33 10L33 9L31 9L31 6L32 6L32 7L33 7L33 6L32 6L32 5ZM8 6L8 7L9 7L9 8L11 8L11 6L10 6L10 7L9 7L9 6ZM18 6L18 7L19 7L19 6ZM24 6L24 7L25 7L25 6ZM34 6L34 7L35 7L35 6ZM37 6L37 7L38 7L38 6ZM40 6L40 7L41 7L41 6ZM18 8L18 9L20 9L20 8ZM3 9L3 10L4 10L4 11L5 11L5 12L7 12L7 13L5 13L5 14L7 14L7 13L10 13L10 11L9 11L9 12L7 12L7 11L5 11L5 10L4 10L4 9ZM37 9L37 10L38 10L38 9ZM11 11L11 12L12 12L12 11ZM31 11L31 12L32 12L32 13L34 13L34 12L32 12L32 11ZM45 11L45 13L47 13L47 12L46 12L46 11ZM0 12L0 13L1 13L1 12ZM26 12L26 13L27 13L27 12ZM3 13L3 14L4 14L4 13ZM11 13L11 14L12 14L12 13ZM28 13L28 15L25 15L25 14L24 14L24 15L25 15L25 17L26 17L26 19L25 19L25 20L24 20L24 21L23 21L23 20L22 20L22 21L21 21L21 22L24 22L24 21L26 21L26 22L27 22L27 23L28 23L28 24L27 24L27 26L28 26L28 27L29 27L29 25L30 25L30 24L31 24L31 23L30 23L30 22L29 22L29 21L30 21L30 18L31 18L31 19L32 19L32 18L33 18L33 17L29 17L29 16L28 16L28 15L29 15L29 13ZM9 14L9 15L10 15L10 16L7 16L7 15L6 15L6 16L5 16L5 15L4 15L4 17L6 17L6 18L5 18L5 20L8 20L8 21L9 21L9 20L8 20L8 19L10 19L10 18L12 18L12 17L11 17L11 16L13 16L13 17L14 17L14 15L15 15L15 14L14 14L14 15L10 15L10 14ZM44 14L44 16L43 16L43 17L44 17L44 16L45 16L45 14ZM6 16L6 17L7 17L7 16ZM18 16L18 17L16 17L16 18L19 18L19 17L20 17L20 16ZM26 16L26 17L27 17L27 16ZM8 17L8 18L6 18L6 19L8 19L8 18L9 18L9 17ZM28 17L28 18L27 18L27 19L26 19L26 21L27 21L27 19L29 19L29 17ZM34 17L34 18L35 18L35 17ZM36 18L36 20L35 20L35 19L34 19L34 21L33 21L33 20L32 20L32 21L31 21L31 22L32 22L32 21L33 21L33 23L32 23L32 24L34 24L34 21L36 21L36 20L37 20L37 18ZM43 20L43 21L44 21L44 20ZM1 21L1 22L2 22L2 24L1 24L1 25L3 25L3 21ZM4 21L4 22L7 22L7 21ZM37 21L37 22L38 22L38 21ZM28 22L28 23L29 23L29 22ZM46 22L46 23L47 23L47 22ZM5 23L5 26L8 26L8 23ZM14 23L14 24L15 24L15 25L16 25L16 24L15 24L15 23ZM23 23L23 26L26 26L26 23ZM41 23L41 26L44 26L44 23ZM6 24L6 25L7 25L7 24ZM24 24L24 25L25 25L25 24ZM28 24L28 25L29 25L29 24ZM42 24L42 25L43 25L43 24ZM10 25L10 26L12 26L12 25ZM22 27L22 28L23 28L23 27ZM42 27L42 29L44 29L44 27ZM31 28L31 29L32 29L32 31L29 31L29 32L32 32L32 33L33 33L33 29L34 29L34 30L35 30L35 29L34 29L34 28ZM16 29L16 30L15 30L15 31L16 31L16 30L17 30L17 29ZM29 29L29 30L30 30L30 29ZM22 30L22 31L21 31L21 32L20 32L20 33L19 33L19 34L18 34L18 35L19 35L19 34L20 34L20 33L21 33L21 32L22 32L22 31L23 31L23 30ZM17 32L17 33L18 33L18 32ZM42 32L42 33L43 33L43 32ZM5 34L5 35L4 35L4 36L5 36L5 35L7 35L7 34ZM16 34L16 35L17 35L17 34ZM38 34L38 35L39 35L39 34ZM46 34L46 35L47 35L47 34ZM21 36L21 37L22 37L22 36ZM27 37L27 38L28 38L28 40L29 40L29 38L28 38L28 37ZM41 37L41 38L39 38L39 39L42 39L42 40L44 40L44 39L42 39L42 38L43 38L43 37ZM16 38L16 39L17 39L17 38ZM47 38L47 40L48 40L48 38ZM11 39L11 40L10 40L10 41L11 41L11 42L13 42L13 43L11 43L11 44L13 44L13 45L12 45L12 46L13 46L13 45L14 45L14 44L15 44L15 45L17 45L17 44L16 44L16 43L17 43L17 42L16 42L16 43L14 43L14 41L13 41L13 39ZM23 41L23 44L26 44L26 41ZM28 41L28 42L29 42L29 41ZM37 41L37 43L36 43L36 44L35 44L35 46L36 46L36 44L37 44L37 46L38 46L38 45L39 45L39 44L40 44L40 43L38 43L38 42L40 42L40 41ZM41 41L41 44L44 44L44 41ZM9 42L9 43L10 43L10 42ZM24 42L24 43L25 43L25 42ZM42 42L42 43L43 43L43 42ZM13 43L13 44L14 44L14 43ZM37 43L37 44L38 44L38 43ZM45 43L45 45L44 45L44 46L43 46L43 48L44 48L44 46L45 46L45 45L47 45L47 46L46 46L46 47L48 47L48 43ZM24 45L24 46L25 46L25 45ZM27 47L27 48L26 48L26 49L27 49L27 48L28 48L28 47ZM0 0L0 7L7 7L7 0ZM1 1L1 6L6 6L6 1ZM2 2L2 5L5 5L5 2ZM42 0L42 7L49 7L49 0ZM43 1L43 6L48 6L48 1ZM44 2L44 5L47 5L47 2ZM0 42L0 49L7 49L7 42ZM1 43L1 48L6 48L6 43ZM2 44L2 47L5 47L5 44Z" fill="#000000"/></g></g></svg>
