<?xml version="1.0" encoding="UTF-8"?>
<svg xmlns="http://www.w3.org/2000/svg" version="1.1" width="200" height="200" viewBox="0 0 200 200"><rect x="0" y="0" width="200" height="200" fill="#ffffff"/><g transform="scale(3.774)"><g transform="translate(2,2)"><path fill-rule="evenodd" d="M8 0L8 3L9 3L9 2L10 2L10 3L11 3L11 6L10 6L10 7L9 7L9 5L10 5L10 4L9 4L9 5L8 5L8 9L7 9L7 8L6 8L6 9L7 9L7 10L6 10L6 11L5 11L5 12L6 12L6 13L3 13L3 11L2 11L2 12L0 12L0 13L3 13L3 14L2 14L2 15L3 15L3 16L2 16L2 17L3 17L3 18L0 18L0 19L3 19L3 25L1 25L1 24L0 24L0 27L1 27L1 28L0 28L0 30L1 30L1 32L0 32L0 34L3 34L3 35L4 35L4 36L3 36L3 37L4 37L4 38L5 38L5 39L7 39L7 40L6 40L6 41L7 41L7 40L8 40L8 39L7 39L7 38L5 38L5 37L7 37L7 36L8 36L8 35L12 35L12 34L13 34L13 36L11 36L11 37L10 37L10 36L9 36L9 37L10 37L10 38L12 38L12 39L11 39L11 40L10 40L10 41L11 41L11 40L12 40L12 39L13 39L13 40L14 40L14 41L15 41L15 42L13 42L13 41L12 41L12 42L13 42L13 44L12 44L12 43L11 43L11 42L9 42L9 41L8 41L8 42L9 42L9 44L8 44L8 47L10 47L10 48L9 48L9 49L10 49L10 48L11 48L11 47L12 47L12 48L13 48L13 49L16 49L16 48L17 48L17 49L19 49L19 48L20 48L20 49L21 49L21 47L22 47L22 48L23 48L23 49L24 49L24 48L25 48L25 49L31 49L31 48L33 48L33 49L35 49L35 48L36 48L36 49L37 49L37 48L38 48L38 49L39 49L39 48L40 48L40 49L42 49L42 48L43 48L43 46L47 46L47 47L48 47L48 48L46 48L46 47L45 47L45 48L46 48L46 49L49 49L49 42L48 42L48 41L49 41L49 40L48 40L48 41L47 41L47 40L46 40L46 41L45 41L45 40L42 40L42 39L43 39L43 37L45 37L45 38L46 38L46 39L47 39L47 38L48 38L48 39L49 39L49 38L48 38L48 37L49 37L49 34L48 34L48 33L47 33L47 32L49 32L49 30L48 30L48 29L49 29L49 26L48 26L48 27L47 27L47 28L46 28L46 26L47 26L47 24L46 24L46 23L47 23L47 22L48 22L48 23L49 23L49 22L48 22L48 21L49 21L49 18L48 18L48 17L49 17L49 14L48 14L48 13L49 13L49 12L48 12L48 13L47 13L47 12L46 12L46 11L45 11L45 10L46 10L46 9L47 9L47 10L48 10L48 11L49 11L49 10L48 10L48 9L49 9L49 8L46 8L46 9L45 9L45 10L44 10L44 11L42 11L42 10L43 10L43 9L44 9L44 8L40 8L40 7L41 7L41 6L40 6L40 7L39 7L39 5L38 5L38 4L37 4L37 3L36 3L36 2L37 2L37 1L38 1L38 2L39 2L39 4L40 4L40 3L41 3L41 0L40 0L40 1L38 1L38 0L37 0L37 1L36 1L36 2L35 2L35 1L34 1L34 0L29 0L29 1L28 1L28 0L26 0L26 2L27 2L27 3L26 3L26 4L22 4L22 3L21 3L21 4L19 4L19 5L20 5L20 7L19 7L19 6L18 6L18 7L19 7L19 8L20 8L20 7L21 7L21 9L20 9L20 11L19 11L19 13L18 13L18 14L17 14L17 12L18 12L18 9L17 9L17 5L18 5L18 3L20 3L20 1L22 1L22 2L23 2L23 0L19 0L19 1L18 1L18 2L17 2L17 0L15 0L15 1L16 1L16 3L17 3L17 4L16 4L16 8L15 8L15 6L14 6L14 5L15 5L15 4L14 4L14 5L13 5L13 4L12 4L12 2L11 2L11 1L13 1L13 0L11 0L11 1L9 1L9 0ZM24 0L24 1L25 1L25 0ZM32 1L32 3L31 3L31 2L29 2L29 3L28 3L28 4L29 4L29 7L30 7L30 8L28 8L28 5L27 5L27 8L28 8L28 9L26 9L26 10L29 10L29 9L30 9L30 8L31 8L31 10L32 10L32 11L33 11L33 12L32 12L32 13L31 13L31 11L28 11L28 12L27 12L27 11L24 11L24 9L23 9L23 10L22 10L22 9L21 9L21 10L22 10L22 11L24 11L24 13L23 13L23 14L24 14L24 13L25 13L25 14L26 14L26 15L29 15L29 16L28 16L28 17L27 17L27 16L25 16L25 15L24 15L24 16L22 16L22 15L19 15L19 14L21 14L21 13L19 13L19 14L18 14L18 15L17 15L17 14L16 14L16 15L15 15L15 14L14 14L14 15L13 15L13 13L11 13L11 14L10 14L10 12L8 12L8 11L9 11L9 9L11 9L11 8L9 8L9 9L8 9L8 11L6 11L6 12L7 12L7 13L6 13L6 14L3 14L3 15L5 15L5 16L3 16L3 17L5 17L5 18L7 18L7 19L4 19L4 22L7 22L7 21L8 21L8 22L9 22L9 23L10 23L10 22L9 22L9 21L11 21L11 24L10 24L10 25L9 25L9 26L11 26L11 24L12 24L12 27L13 27L13 23L12 23L12 21L13 21L13 22L14 22L14 23L17 23L17 24L18 24L18 27L20 27L20 28L19 28L19 29L20 29L20 28L23 28L23 30L22 30L22 29L21 29L21 30L20 30L20 31L23 31L23 30L24 30L24 33L23 33L23 35L19 35L19 33L20 33L20 32L19 32L19 33L18 33L18 35L17 35L17 33L16 33L16 34L15 34L15 32L16 32L16 31L17 31L17 32L18 32L18 30L17 30L17 29L18 29L18 28L16 28L16 26L17 26L17 25L16 25L16 24L14 24L14 25L16 25L16 26L14 26L14 27L15 27L15 29L14 29L14 28L12 28L12 29L14 29L14 31L15 31L15 32L13 32L13 30L12 30L12 32L11 32L11 34L12 34L12 32L13 32L13 33L14 33L14 34L15 34L15 35L16 35L16 36L19 36L19 37L17 37L17 38L18 38L18 39L17 39L17 41L16 41L16 40L15 40L15 41L16 41L16 42L15 42L15 43L14 43L14 45L13 45L13 46L12 46L12 44L11 44L11 46L12 46L12 47L15 47L15 46L16 46L16 45L19 45L19 47L17 47L17 48L19 48L19 47L21 47L21 46L23 46L23 45L19 45L19 41L20 41L20 40L19 40L19 39L20 39L20 38L22 38L22 39L21 39L21 40L23 40L23 39L24 39L24 40L25 40L25 39L26 39L26 40L28 40L28 41L29 41L29 42L27 42L27 43L29 43L29 45L28 45L28 46L27 46L27 45L26 45L26 47L25 47L25 46L24 46L24 47L25 47L25 48L29 48L29 47L30 47L30 48L31 48L31 47L34 47L34 48L35 48L35 47L36 47L36 48L37 48L37 47L36 47L36 44L38 44L38 45L37 45L37 46L39 46L39 47L38 47L38 48L39 48L39 47L40 47L40 46L41 46L41 48L42 48L42 45L40 45L40 46L39 46L39 44L38 44L38 43L39 43L39 40L41 40L41 39L42 39L42 36L43 36L43 35L44 35L44 36L45 36L45 37L46 37L46 38L47 38L47 37L48 37L48 34L47 34L47 33L46 33L46 32L47 32L47 31L48 31L48 30L47 30L47 29L46 29L46 28L45 28L45 27L42 27L42 28L43 28L43 29L42 29L42 30L41 30L41 29L40 29L40 30L39 30L39 29L38 29L38 28L41 28L41 27L40 27L40 26L39 26L39 25L37 25L37 26L39 26L39 27L36 27L36 28L30 28L30 29L29 29L29 27L28 27L28 26L30 26L30 27L34 27L34 26L35 26L35 25L36 25L36 24L37 24L37 22L39 22L39 23L38 23L38 24L39 24L39 23L40 23L40 22L42 22L42 21L43 21L43 22L44 22L44 21L46 21L46 22L45 22L45 23L46 23L46 22L47 22L47 21L48 21L48 20L47 20L47 19L48 19L48 18L47 18L47 17L48 17L48 14L47 14L47 15L45 15L45 16L42 16L42 17L41 17L41 16L39 16L39 17L40 17L40 18L37 18L37 17L38 17L38 16L37 16L37 15L36 15L36 16L35 16L35 18L34 18L34 17L33 17L33 18L34 18L34 19L32 19L32 20L35 20L35 21L34 21L34 22L32 22L32 24L31 24L31 22L30 22L30 21L31 21L31 20L30 20L30 19L31 19L31 17L32 17L32 16L31 16L31 17L29 17L29 16L30 16L30 14L29 14L29 13L28 13L28 12L30 12L30 13L31 13L31 14L32 14L32 13L33 13L33 12L34 12L34 10L35 10L35 13L34 13L34 14L33 14L33 16L34 16L34 14L35 14L35 13L36 13L36 14L39 14L39 13L40 13L40 15L41 15L41 14L42 14L42 15L44 15L44 14L46 14L46 12L43 12L43 13L44 13L44 14L42 14L42 11L40 11L40 12L39 12L39 11L36 11L36 10L35 10L35 9L36 9L36 8L35 8L35 7L36 7L36 6L35 6L35 7L34 7L34 5L37 5L37 4L36 4L36 3L35 3L35 2L34 2L34 1ZM13 2L13 3L15 3L15 2ZM33 2L33 3L32 3L32 4L30 4L30 5L31 5L31 6L30 6L30 7L31 7L31 8L32 8L32 9L33 9L33 10L34 10L34 7L33 7L33 5L34 5L34 2ZM21 4L21 5L22 5L22 4ZM32 4L32 5L33 5L33 4ZM12 5L12 6L11 6L11 7L12 7L12 8L13 8L13 7L14 7L14 6L13 6L13 5ZM23 5L23 8L26 8L26 5ZM12 6L12 7L13 7L13 6ZM21 6L21 7L22 7L22 6ZM24 6L24 7L25 7L25 6ZM31 6L31 7L32 7L32 8L33 8L33 7L32 7L32 6ZM37 6L37 10L39 10L39 9L40 9L40 10L42 10L42 9L40 9L40 8L39 8L39 7L38 7L38 6ZM2 8L2 9L1 9L1 10L2 10L2 9L5 9L5 8ZM14 8L14 9L13 9L13 10L11 10L11 11L13 11L13 12L15 12L15 11L16 11L16 12L17 12L17 10L15 10L15 8ZM38 8L38 9L39 9L39 8ZM20 11L20 12L21 12L21 11ZM26 12L26 14L28 14L28 13L27 13L27 12ZM36 12L36 13L39 13L39 12ZM40 12L40 13L41 13L41 12ZM8 13L8 14L6 14L6 15L7 15L7 16L6 16L6 17L7 17L7 18L9 18L9 16L10 16L10 17L12 17L12 16L10 16L10 14L9 14L9 13ZM0 14L0 15L1 15L1 14ZM11 14L11 15L12 15L12 14ZM8 15L8 16L9 16L9 15ZM19 16L19 17L22 17L22 16ZM36 16L36 17L37 17L37 16ZM46 16L46 17L45 17L45 18L44 18L44 19L43 19L43 17L42 17L42 20L46 20L46 21L47 21L47 20L46 20L46 19L47 19L47 18L46 18L46 17L47 17L47 16ZM13 17L13 18L14 18L14 20L13 20L13 19L12 19L12 18L11 18L11 20L13 20L13 21L15 21L15 22L17 22L17 23L18 23L18 24L19 24L19 23L18 23L18 20L17 20L17 19L16 19L16 21L15 21L15 17ZM23 17L23 18L20 18L20 19L19 19L19 18L18 18L18 19L19 19L19 20L21 20L21 21L20 21L20 23L21 23L21 21L23 21L23 20L22 20L22 19L23 19L23 18L24 18L24 22L22 22L22 24L21 24L21 26L20 26L20 27L21 27L21 26L22 26L22 27L23 27L23 28L24 28L24 29L25 29L25 30L26 30L26 29L27 29L27 33L26 33L26 32L25 32L25 33L24 33L24 34L25 34L25 33L26 33L26 35L25 35L25 36L23 36L23 38L24 38L24 37L25 37L25 38L27 38L27 39L28 39L28 40L29 40L29 41L30 41L30 42L29 42L29 43L30 43L30 42L31 42L31 40L34 40L34 39L35 39L35 40L36 40L36 41L38 41L38 40L36 40L36 39L35 39L35 38L34 38L34 37L35 37L35 36L36 36L36 38L37 38L37 39L39 39L39 38L37 38L37 37L38 37L38 36L39 36L39 37L40 37L40 39L41 39L41 37L40 37L40 36L39 36L39 35L41 35L41 36L42 36L42 35L43 35L43 34L42 34L42 35L41 35L41 34L40 34L40 32L39 32L39 34L37 34L37 35L38 35L38 36L36 36L36 34L34 34L34 32L35 32L35 33L36 33L36 32L37 32L37 31L39 31L39 30L37 30L37 28L36 28L36 29L35 29L35 30L34 30L34 29L32 29L32 30L31 30L31 29L30 29L30 30L28 30L28 27L27 27L27 26L28 26L28 25L27 25L27 22L28 22L28 24L29 24L29 23L30 23L30 22L28 22L28 21L29 21L29 19L28 19L28 21L27 21L27 20L25 20L25 19L27 19L27 17L25 17L25 18L24 18L24 17ZM28 17L28 18L29 18L29 17ZM36 18L36 19L35 19L35 20L36 20L36 22L37 22L37 20L36 20L36 19L37 19L37 18ZM39 19L39 20L40 20L40 21L39 21L39 22L40 22L40 21L41 21L41 20L40 20L40 19ZM0 20L0 23L1 23L1 20ZM5 20L5 21L7 21L7 20ZM25 21L25 22L26 22L26 21ZM34 22L34 23L33 23L33 26L34 26L34 23L35 23L35 24L36 24L36 23L35 23L35 22ZM5 23L5 26L8 26L8 23ZM23 23L23 26L26 26L26 23ZM41 23L41 26L44 26L44 23ZM6 24L6 25L7 25L7 24ZM24 24L24 25L25 25L25 24ZM30 24L30 26L32 26L32 25L31 25L31 24ZM42 24L42 25L43 25L43 24ZM45 24L45 25L46 25L46 24ZM3 25L3 26L4 26L4 25ZM3 27L3 28L2 28L2 29L1 29L1 30L2 30L2 31L3 31L3 29L4 29L4 28L8 28L8 29L6 29L6 30L8 30L8 31L5 31L5 30L4 30L4 31L5 31L5 32L1 32L1 33L4 33L4 34L5 34L5 32L7 32L7 33L6 33L6 34L7 34L7 33L8 33L8 34L10 34L10 32L9 32L9 31L11 31L11 30L10 30L10 29L9 29L9 28L8 28L8 27ZM10 27L10 28L11 28L11 27ZM25 28L25 29L26 29L26 28ZM44 28L44 29L43 29L43 30L42 30L42 31L43 31L43 32L42 32L42 33L45 33L45 32L46 32L46 31L47 31L47 30L46 30L46 29L45 29L45 28ZM15 29L15 31L16 31L16 29ZM44 29L44 30L43 30L43 31L44 31L44 32L45 32L45 31L44 31L44 30L45 30L45 29ZM32 30L32 31L31 31L31 32L33 32L33 31L34 31L34 30ZM35 30L35 32L36 32L36 30ZM40 30L40 31L41 31L41 30ZM29 31L29 33L27 33L27 35L26 35L26 36L25 36L25 37L28 37L28 38L29 38L29 40L30 40L30 37L33 37L33 36L29 36L29 34L30 34L30 35L31 35L31 34L32 34L32 33L30 33L30 31ZM21 32L21 33L22 33L22 32ZM33 34L33 35L34 35L34 36L35 36L35 35L34 35L34 34ZM44 34L44 35L45 35L45 36L46 36L46 37L47 37L47 36L46 36L46 35L47 35L47 34ZM0 35L0 38L1 38L1 40L0 40L0 41L3 41L3 40L4 40L4 39L2 39L2 38L1 38L1 36L2 36L2 35ZM5 35L5 36L7 36L7 35ZM27 35L27 36L28 36L28 35ZM13 36L13 37L14 37L14 38L13 38L13 39L14 39L14 38L15 38L15 39L16 39L16 38L15 38L15 37L14 37L14 36ZM32 38L32 39L34 39L34 38ZM17 41L17 43L18 43L18 41ZM23 41L23 44L26 44L26 41ZM33 41L33 42L34 42L34 41ZM41 41L41 44L44 44L44 41ZM46 41L46 44L45 44L45 45L46 45L46 44L47 44L47 46L48 46L48 42L47 42L47 41ZM20 42L20 44L21 44L21 43L22 43L22 42ZM24 42L24 43L25 43L25 42ZM36 42L36 43L35 43L35 44L36 44L36 43L38 43L38 42ZM42 42L42 43L43 43L43 42ZM31 43L31 44L30 44L30 45L29 45L29 46L28 46L28 47L29 47L29 46L30 46L30 47L31 47L31 46L30 46L30 45L31 45L31 44L33 44L33 45L32 45L32 46L34 46L34 47L35 47L35 46L34 46L34 43ZM15 44L15 45L16 45L16 44ZM9 45L9 46L10 46L10 45ZM0 0L0 7L7 7L7 0ZM1 1L1 6L6 6L6 1ZM2 2L2 5L5 5L5 2ZM42 0L42 7L49 7L49 0ZM43 1L43 6L48 6L48 1ZM44 2L44 5L47 5L47 2ZM0 42L0 49L7 49L7 42ZM1 43L1 48L6 48L6 43ZM2 44L2 47L5 47L5 44Z" fill="#000000"/></g></g></svg>
