<?xml version="1.0" encoding="UTF-8"?>
<svg xmlns="http://www.w3.org/2000/svg" version="1.1" width="200" height="200" viewBox="0 0 200 200"><rect x="0" y="0" width="200" height="200" fill="#ffffff"/><g transform="scale(3.774)"><g transform="translate(2,2)"><path fill-rule="evenodd" d="M10 0L10 2L11 2L11 3L9 3L9 2L8 2L8 4L9 4L9 6L8 6L8 7L9 7L9 6L10 6L10 7L11 7L11 5L13 5L13 4L12 4L12 2L11 2L11 0ZM12 0L12 1L13 1L13 2L14 2L14 4L15 4L15 2L17 2L17 4L16 4L16 5L17 5L17 4L18 4L18 3L19 3L19 1L18 1L18 0L17 0L17 1L16 1L16 0ZM22 0L22 2L21 2L21 1L20 1L20 2L21 2L21 4L22 4L22 5L21 5L21 6L20 6L20 5L19 5L19 6L18 6L18 7L17 7L17 6L16 6L16 8L14 8L14 7L15 7L15 5L14 5L14 7L13 7L13 6L12 6L12 8L9 8L9 9L8 9L8 8L6 8L6 9L7 9L7 10L5 10L5 8L3 8L3 9L2 9L2 10L1 10L1 9L0 9L0 13L1 13L1 14L0 14L0 15L2 15L2 16L3 16L3 13L1 13L1 11L2 11L2 12L5 12L5 11L8 11L8 12L6 12L6 13L4 13L4 15L5 15L5 16L4 16L4 17L5 17L5 18L3 18L3 19L2 19L2 18L1 18L1 19L0 19L0 20L3 20L3 21L4 21L4 22L2 22L2 21L0 21L0 23L1 23L1 22L2 22L2 24L0 24L0 27L1 27L1 28L0 28L0 30L1 30L1 29L2 29L2 27L3 27L3 28L4 28L4 29L3 29L3 31L1 31L1 32L0 32L0 37L1 37L1 36L2 36L2 38L1 38L1 40L0 40L0 41L3 41L3 40L4 40L4 39L2 39L2 38L5 38L5 39L7 39L7 40L6 40L6 41L7 41L7 40L8 40L8 43L9 43L9 44L8 44L8 46L9 46L9 49L12 49L12 48L15 48L15 49L17 49L17 48L18 48L18 49L20 49L20 48L22 48L22 49L23 49L23 48L22 48L22 47L23 47L23 46L25 46L25 47L24 47L24 48L25 48L25 49L26 49L26 48L27 48L27 49L29 49L29 47L30 47L30 46L31 46L31 45L32 45L32 44L31 44L31 43L33 43L33 42L31 42L31 40L32 40L32 41L33 41L33 40L32 40L32 39L33 39L33 37L34 37L34 36L35 36L35 38L36 38L36 39L34 39L34 40L35 40L35 41L34 41L34 43L35 43L35 44L33 44L33 45L34 45L34 48L33 48L33 46L32 46L32 47L31 47L31 49L34 49L34 48L35 48L35 49L38 49L38 48L35 48L35 47L38 47L38 46L39 46L39 45L40 45L40 47L41 47L41 48L43 48L43 49L45 49L45 48L43 48L43 46L44 46L44 47L45 47L45 46L47 46L47 45L45 45L45 43L48 43L48 47L46 47L46 48L48 48L48 49L49 49L49 42L47 42L47 41L49 41L49 40L47 40L47 39L44 39L44 38L45 38L45 37L43 37L43 36L44 36L44 35L43 35L43 34L41 34L41 32L40 32L40 31L37 31L37 28L36 28L36 27L37 27L37 26L38 26L38 28L39 28L39 29L40 29L40 30L41 30L41 31L44 31L44 34L45 34L45 35L46 35L46 36L47 36L47 38L48 38L48 39L49 39L49 38L48 38L48 37L49 37L49 34L48 34L48 33L45 33L45 31L46 31L46 30L47 30L47 32L49 32L49 30L47 30L47 29L49 29L49 28L48 28L48 27L49 27L49 26L48 26L48 27L47 27L47 25L48 25L48 23L49 23L49 22L48 22L48 21L49 21L49 18L47 18L47 17L49 17L49 14L48 14L48 13L49 13L49 12L48 12L48 11L49 11L49 10L48 10L48 9L47 9L47 8L45 8L45 9L44 9L44 10L45 10L45 9L46 9L46 10L47 10L47 11L46 11L46 12L47 12L47 13L45 13L45 11L41 11L41 9L40 9L40 10L39 10L39 5L38 5L38 4L37 4L37 3L38 3L38 2L39 2L39 4L40 4L40 3L41 3L41 0L40 0L40 1L36 1L36 0L32 0L32 1L31 1L31 0L29 0L29 2L30 2L30 1L31 1L31 2L32 2L32 3L31 3L31 4L29 4L29 3L28 3L28 5L29 5L29 6L28 6L28 7L27 7L27 4L22 4L22 2L24 2L24 1L25 1L25 3L26 3L26 1L28 1L28 0ZM17 1L17 2L18 2L18 1ZM32 1L32 2L33 2L33 1ZM35 1L35 2L36 2L36 3L35 3L35 4L34 4L34 3L33 3L33 4L34 4L34 6L33 6L33 8L35 8L35 9L36 9L36 8L35 8L35 7L36 7L36 5L37 5L37 4L36 4L36 3L37 3L37 2L36 2L36 1ZM10 4L10 5L11 5L11 4ZM35 4L35 5L36 5L36 4ZM23 5L23 8L26 8L26 5ZM30 5L30 6L29 6L29 8L32 8L32 5ZM19 6L19 7L18 7L18 8L16 8L16 9L15 9L15 10L14 10L14 11L13 11L13 10L12 10L12 11L9 11L9 13L8 13L8 14L7 14L7 13L6 13L6 14L7 14L7 15L6 15L6 16L7 16L7 15L8 15L8 18L7 18L7 17L6 17L6 18L5 18L5 19L3 19L3 20L7 20L7 19L9 19L9 17L10 17L10 15L8 15L8 14L9 14L9 13L10 13L10 12L11 12L11 13L12 13L12 14L11 14L11 15L13 15L13 17L14 17L14 15L16 15L16 14L18 14L18 15L17 15L17 16L18 16L18 20L17 20L17 18L14 18L14 19L13 19L13 18L12 18L12 19L11 19L11 20L10 20L10 22L9 22L9 24L11 24L11 25L10 25L10 27L5 27L5 30L4 30L4 31L3 31L3 32L1 32L1 35L2 35L2 36L3 36L3 35L4 35L4 37L5 37L5 38L7 38L7 37L6 37L6 36L8 36L8 35L9 35L9 38L8 38L8 39L10 39L10 36L11 36L11 35L12 35L12 37L11 37L11 38L12 38L12 39L11 39L11 42L9 42L9 43L11 43L11 42L12 42L12 41L13 41L13 42L15 42L15 44L14 44L14 43L13 43L13 44L14 44L14 45L13 45L13 46L12 46L12 44L11 44L11 47L10 47L10 48L11 48L11 47L14 47L14 45L15 45L15 44L17 44L17 43L18 43L18 42L19 42L19 44L18 44L18 46L17 46L17 45L16 45L16 46L17 46L17 47L15 47L15 48L17 48L17 47L18 47L18 48L19 48L19 47L20 47L20 44L21 44L21 45L22 45L22 46L23 46L23 45L22 45L22 44L21 44L21 43L22 43L22 42L19 42L19 41L20 41L20 40L21 40L21 37L22 37L22 38L23 38L23 39L24 39L24 40L25 40L25 38L26 38L26 39L27 39L27 38L28 38L28 39L29 39L29 41L30 41L30 37L31 37L31 36L30 36L30 35L31 35L31 34L32 34L32 35L34 35L34 33L32 33L32 32L31 32L31 33L30 33L30 32L28 32L28 30L29 30L29 31L30 31L30 30L29 30L29 29L31 29L31 30L32 30L32 28L33 28L33 32L34 32L34 31L35 31L35 32L36 32L36 33L35 33L35 36L37 36L37 37L38 37L38 36L39 36L39 34L40 34L40 33L39 33L39 32L38 32L38 33L37 33L37 32L36 32L36 31L35 31L35 30L36 30L36 29L35 29L35 27L36 27L36 26L37 26L37 25L36 25L36 26L35 26L35 25L33 25L33 26L32 26L32 25L31 25L31 26L32 26L32 28L29 28L29 27L30 27L30 25L28 25L28 24L29 24L29 23L30 23L30 24L31 24L31 21L32 21L32 22L33 22L33 23L32 23L32 24L34 24L34 21L35 21L35 22L36 22L36 23L35 23L35 24L38 24L38 23L39 23L39 24L40 24L40 21L41 21L41 22L42 22L42 21L43 21L43 22L45 22L45 21L48 21L48 20L47 20L47 18L46 18L46 16L45 16L45 15L44 15L44 16L41 16L41 15L38 15L38 14L36 14L36 13L35 13L35 11L34 11L34 9L33 9L33 11L34 11L34 13L32 13L32 12L31 12L31 10L32 10L32 9L29 9L29 10L30 10L30 12L28 12L28 11L27 11L27 10L26 10L26 11L23 11L23 10L24 10L24 9L22 9L22 8L20 8L20 9L19 9L19 7L20 7L20 6ZM21 6L21 7L22 7L22 6ZM24 6L24 7L25 7L25 6ZM30 6L30 7L31 7L31 6ZM34 6L34 7L35 7L35 6ZM37 6L37 7L38 7L38 6ZM40 6L40 7L41 7L41 6ZM13 8L13 9L14 9L14 8ZM3 9L3 10L2 10L2 11L3 11L3 10L4 10L4 11L5 11L5 10L4 10L4 9ZM9 9L9 10L10 10L10 9ZM18 9L18 12L20 12L20 13L19 13L19 14L21 14L21 13L22 13L22 14L23 14L23 15L21 15L21 16L20 16L20 15L19 15L19 17L20 17L20 19L19 19L19 20L18 20L18 21L17 21L17 22L18 22L18 21L20 21L20 20L21 20L21 22L22 22L22 23L21 23L21 24L19 24L19 23L17 23L17 24L19 24L19 27L18 27L18 25L17 25L17 29L18 29L18 30L19 30L19 28L21 28L21 25L22 25L22 30L23 30L23 28L26 28L26 27L27 27L27 29L24 29L24 32L23 32L23 31L22 31L22 33L21 33L21 32L19 32L19 31L17 31L17 30L14 30L14 29L13 29L13 28L14 28L14 27L12 27L12 25L11 25L11 27L10 27L10 28L9 28L9 30L10 30L10 29L11 29L11 28L12 28L12 30L14 30L14 31L12 31L12 34L13 34L13 35L14 35L14 37L13 37L13 40L14 40L14 39L15 39L15 40L16 40L16 41L18 41L18 40L17 40L17 39L18 39L18 38L19 38L19 40L20 40L20 37L19 37L19 35L20 35L20 33L21 33L21 34L23 34L23 33L25 33L25 35L23 35L23 36L22 36L22 35L21 35L21 36L22 36L22 37L23 37L23 38L24 38L24 37L27 37L27 36L26 36L26 35L27 35L27 34L29 34L29 35L28 35L28 37L30 37L30 36L29 36L29 35L30 35L30 33L28 33L28 32L27 32L27 31L26 31L26 33L25 33L25 30L28 30L28 29L29 29L29 28L28 28L28 27L29 27L29 26L28 26L28 27L27 27L27 22L25 22L25 20L26 20L26 21L27 21L27 20L29 20L29 19L30 19L30 21L28 21L28 23L29 23L29 22L30 22L30 21L31 21L31 19L32 19L32 21L34 21L34 19L35 19L35 20L36 20L36 22L37 22L37 23L38 23L38 22L39 22L39 21L38 21L38 20L39 20L39 17L37 17L37 16L38 16L38 15L37 15L37 16L36 16L36 15L35 15L35 16L34 16L34 15L33 15L33 14L32 14L32 13L29 13L29 14L28 14L28 15L27 15L27 16L26 16L26 15L25 15L25 14L26 14L26 12L25 12L25 13L24 13L24 14L23 14L23 13L22 13L22 12L20 12L20 11L19 11L19 9ZM21 9L21 11L22 11L22 9ZM37 9L37 10L38 10L38 12L39 12L39 14L42 14L42 15L43 15L43 14L44 14L44 13L43 13L43 14L42 14L42 13L41 13L41 12L39 12L39 10L38 10L38 9ZM42 9L42 10L43 10L43 9ZM12 11L12 12L13 12L13 11ZM14 11L14 12L15 12L15 11ZM16 11L16 12L17 12L17 11ZM36 11L36 12L37 12L37 11ZM14 13L14 14L16 14L16 13ZM29 14L29 17L30 17L30 19L31 19L31 18L32 18L32 17L30 17L30 14ZM31 14L31 15L32 15L32 14ZM46 14L46 15L47 15L47 16L48 16L48 14ZM15 16L15 17L16 17L16 16ZM22 16L22 17L23 17L23 16ZM24 16L24 18L22 18L22 19L21 19L21 20L22 20L22 21L23 21L23 22L24 22L24 19L27 19L27 18L28 18L28 19L29 19L29 18L28 18L28 17L27 17L27 18L25 18L25 17L26 17L26 16ZM44 16L44 17L40 17L40 19L42 19L42 20L43 20L43 21L44 21L44 20L43 20L43 19L46 19L46 18L44 18L44 17L45 17L45 16ZM34 17L34 18L35 18L35 17ZM36 17L36 18L37 18L37 17ZM6 18L6 19L7 19L7 18ZM12 19L12 20L13 20L13 21L12 21L12 22L10 22L10 23L11 23L11 24L12 24L12 23L13 23L13 24L14 24L14 25L15 25L15 22L14 22L14 21L15 21L15 20L16 20L16 19L15 19L15 20L13 20L13 19ZM36 19L36 20L37 20L37 19ZM8 20L8 21L9 21L9 20ZM5 21L5 22L7 22L7 21ZM37 21L37 22L38 22L38 21ZM46 22L46 23L45 23L45 26L46 26L46 25L47 25L47 24L46 24L46 23L47 23L47 22ZM3 23L3 24L4 24L4 23ZM5 23L5 26L8 26L8 23ZM23 23L23 26L26 26L26 23ZM41 23L41 26L44 26L44 23ZM6 24L6 25L7 25L7 24ZM24 24L24 25L25 25L25 24ZM42 24L42 25L43 25L43 24ZM1 25L1 27L2 27L2 26L3 26L3 25ZM39 25L39 27L40 27L40 25ZM15 27L15 28L16 28L16 27ZM42 27L42 29L44 29L44 31L45 31L45 30L46 30L46 27L45 27L45 28L44 28L44 27ZM6 28L6 29L7 29L7 30L5 30L5 31L8 31L8 29L7 29L7 28ZM34 29L34 30L35 30L35 29ZM20 30L20 31L21 31L21 30ZM9 31L9 34L10 34L10 35L11 35L11 32L10 32L10 31ZM14 31L14 32L13 32L13 33L15 33L15 34L14 34L14 35L15 35L15 36L16 36L16 37L15 37L15 38L16 38L16 37L17 37L17 38L18 38L18 35L19 35L19 32L18 32L18 33L17 33L17 31ZM4 32L4 33L3 33L3 34L4 34L4 35L5 35L5 36L6 36L6 35L8 35L8 34L6 34L6 33L8 33L8 32ZM15 32L15 33L16 33L16 34L17 34L17 35L16 35L16 36L17 36L17 35L18 35L18 34L17 34L17 33L16 33L16 32ZM42 32L42 33L43 33L43 32ZM38 33L38 34L37 34L37 36L38 36L38 34L39 34L39 33ZM5 34L5 35L6 35L6 34ZM41 35L41 36L43 36L43 35ZM23 36L23 37L24 37L24 36ZM41 37L41 38L39 38L39 39L42 39L42 40L44 40L44 39L42 39L42 37ZM37 38L37 39L36 39L36 40L38 40L38 38ZM9 40L9 41L10 41L10 40ZM27 40L27 41L28 41L28 40ZM45 40L45 42L46 42L46 40ZM23 41L23 44L26 44L26 41ZM36 41L36 42L37 42L37 43L36 43L36 44L35 44L35 46L36 46L36 44L37 44L37 46L38 46L38 45L39 45L39 44L40 44L40 43L38 43L38 42L40 42L40 41ZM41 41L41 44L44 44L44 41ZM16 42L16 43L17 43L17 42ZM24 42L24 43L25 43L25 42ZM27 42L27 44L28 44L28 45L25 45L25 46L26 46L26 47L28 47L28 45L31 45L31 44L28 44L28 42ZM29 42L29 43L31 43L31 42ZM42 42L42 43L43 43L43 42ZM37 43L37 44L38 44L38 43ZM9 44L9 45L10 45L10 44ZM41 45L41 46L42 46L42 45ZM44 45L44 46L45 46L45 45ZM18 46L18 47L19 47L19 46ZM0 0L0 7L7 7L7 0ZM1 1L1 6L6 6L6 1ZM2 2L2 5L5 5L5 2ZM42 0L42 7L49 7L49 0ZM43 1L43 6L48 6L48 1ZM44 2L44 5L47 5L47 2ZM0 42L0 49L7 49L7 42ZM1 43L1 48L6 48L6 43ZM2 44L2 47L5 47L5 44Z" fill="#000000"/></g></g></svg>
