<?xml version="1.0" encoding="UTF-8"?>
<svg xmlns="http://www.w3.org/2000/svg" version="1.1" width="200" height="200" viewBox="0 0 200 200"><rect x="0" y="0" width="200" height="200" fill="#ffffff"/><g transform="scale(3.774)"><g transform="translate(2,2)"><path fill-rule="evenodd" d="M8 0L8 2L9 2L9 3L8 3L8 7L9 7L9 6L10 6L10 7L11 7L11 6L12 6L12 7L13 7L13 8L12 8L12 9L14 9L14 7L15 7L15 6L16 6L16 7L17 7L17 6L18 6L18 7L19 7L19 6L20 6L20 7L21 7L21 6L22 6L22 8L21 8L21 9L19 9L19 11L18 11L18 12L19 12L19 11L20 11L20 12L23 12L23 13L22 13L22 14L24 14L24 15L22 15L22 17L24 17L24 18L25 18L25 19L26 19L26 18L25 18L25 17L27 17L27 18L28 18L28 19L29 19L29 22L28 22L28 20L24 20L24 19L21 19L21 17L20 17L20 16L21 16L21 13L20 13L20 16L19 16L19 15L17 15L17 16L16 16L16 17L15 17L15 16L14 16L14 14L15 14L15 15L16 15L16 14L17 14L17 12L16 12L16 10L18 10L18 8L17 8L17 9L15 9L15 11L14 11L14 12L12 12L12 11L11 11L11 8L10 8L10 9L9 9L9 10L8 10L8 11L7 11L7 10L6 10L6 9L7 9L7 8L6 8L6 9L5 9L5 10L6 10L6 11L5 11L5 13L4 13L4 10L3 10L3 14L2 14L2 15L1 15L1 14L0 14L0 16L1 16L1 17L0 17L0 20L1 20L1 21L2 21L2 20L1 20L1 19L2 19L2 18L4 18L4 19L3 19L3 20L4 20L4 21L3 21L3 23L4 23L4 27L5 27L5 30L6 30L6 31L5 31L5 32L3 32L3 31L4 31L4 29L3 29L3 24L2 24L2 22L0 22L0 25L1 25L1 26L0 26L0 29L1 29L1 33L0 33L0 34L2 34L2 33L5 33L5 32L6 32L6 33L7 33L7 34L3 34L3 35L2 35L2 37L1 37L1 40L0 40L0 41L3 41L3 40L4 40L4 39L2 39L2 37L3 37L3 36L5 36L5 39L7 39L7 38L6 38L6 37L7 37L7 36L8 36L8 37L9 37L9 35L10 35L10 36L11 36L11 37L10 37L10 38L9 38L9 39L11 39L11 40L6 40L6 41L8 41L8 42L9 42L9 41L11 41L11 40L12 40L12 39L11 39L11 38L14 38L14 40L13 40L13 42L10 42L10 43L9 43L9 44L10 44L10 49L11 49L11 47L12 47L12 45L14 45L14 46L13 46L13 47L15 47L15 48L16 48L16 49L19 49L19 47L21 47L21 46L20 46L20 45L21 45L21 44L22 44L22 45L25 45L25 47L26 47L26 46L27 46L27 47L29 47L29 46L28 46L28 45L27 45L27 44L28 44L28 43L27 43L27 42L29 42L29 45L30 45L30 46L31 46L31 47L30 47L30 49L31 49L31 47L33 47L33 48L32 48L32 49L33 49L33 48L34 48L34 47L35 47L35 48L36 48L36 49L37 49L37 46L38 46L38 44L40 44L40 45L39 45L39 47L38 47L38 49L40 49L40 48L41 48L41 49L42 49L42 48L41 48L41 46L42 46L42 47L43 47L43 48L44 48L44 49L46 49L46 47L49 47L49 46L48 46L48 45L49 45L49 44L48 44L48 43L49 43L49 36L48 36L48 38L47 38L47 37L46 37L46 35L47 35L47 34L46 34L46 35L44 35L44 33L46 33L46 32L47 32L47 33L48 33L48 35L49 35L49 33L48 33L48 32L47 32L47 31L45 31L45 32L44 32L44 31L43 31L43 30L42 30L42 29L41 29L41 28L40 28L40 29L38 29L38 27L42 27L42 28L43 28L43 29L44 29L44 30L46 30L46 29L47 29L47 30L48 30L48 31L49 31L49 29L47 29L47 28L46 28L46 27L49 27L49 25L47 25L47 26L46 26L46 23L45 23L45 21L46 21L46 20L47 20L47 21L48 21L48 24L49 24L49 20L47 20L47 19L45 19L45 18L46 18L46 17L47 17L47 18L48 18L48 19L49 19L49 16L48 16L48 15L49 15L49 8L47 8L47 9L48 9L48 14L47 14L47 16L45 16L45 14L44 14L44 13L46 13L46 8L43 8L43 11L44 11L44 9L45 9L45 12L44 12L44 13L43 13L43 12L42 12L42 13L40 13L40 12L39 12L39 11L38 11L38 13L39 13L39 14L37 14L37 15L36 15L36 14L35 14L35 13L33 13L33 12L31 12L31 10L32 10L32 11L34 11L34 12L35 12L35 10L34 10L34 9L37 9L37 10L36 10L36 13L37 13L37 10L38 10L38 9L39 9L39 10L40 10L40 11L42 11L42 9L41 9L41 10L40 10L40 8L41 8L41 6L40 6L40 7L39 7L39 5L38 5L38 7L39 7L39 8L38 8L38 9L37 9L37 8L35 8L35 6L36 6L36 7L37 7L37 6L36 6L36 5L34 5L34 7L33 7L33 5L32 5L32 7L31 7L31 4L34 4L34 3L35 3L35 4L36 4L36 3L35 3L35 2L36 2L36 1L35 1L35 0L34 0L34 1L35 1L35 2L34 2L34 3L33 3L33 1L32 1L32 2L31 2L31 3L30 3L30 1L31 1L31 0L28 0L28 1L29 1L29 3L28 3L28 4L27 4L27 3L24 3L24 2L27 2L27 0L24 0L24 1L23 1L23 0L22 0L22 1L21 1L21 2L23 2L23 3L22 3L22 4L19 4L19 3L20 3L20 0L19 0L19 2L18 2L18 1L17 1L17 2L18 2L18 4L16 4L16 2L13 2L13 0ZM14 0L14 1L15 1L15 0ZM37 0L37 1L38 1L38 2L39 2L39 4L40 4L40 3L41 3L41 0L40 0L40 1L38 1L38 0ZM10 1L10 3L9 3L9 5L10 5L10 6L11 6L11 4L12 4L12 6L13 6L13 7L14 7L14 5L15 5L15 3L14 3L14 5L13 5L13 4L12 4L12 3L13 3L13 2L11 2L11 1ZM37 3L37 4L38 4L38 3ZM18 4L18 5L19 5L19 4ZM29 4L29 5L28 5L28 6L27 6L27 9L24 9L24 10L22 10L22 9L21 9L21 10L20 10L20 11L24 11L24 10L25 10L25 11L28 11L28 13L29 13L29 14L32 14L32 13L31 13L31 12L30 12L30 9L32 9L32 10L33 10L33 9L34 9L34 8L33 8L33 7L32 7L32 8L31 8L31 7L30 7L30 4ZM16 5L16 6L17 6L17 5ZM20 5L20 6L21 6L21 5ZM23 5L23 8L26 8L26 5ZM24 6L24 7L25 7L25 6ZM28 6L28 7L29 7L29 8L28 8L28 9L30 9L30 7L29 7L29 6ZM3 8L3 9L4 9L4 8ZM32 8L32 9L33 9L33 8ZM0 9L0 10L2 10L2 9ZM9 10L9 11L8 11L8 12L7 12L7 11L6 11L6 12L7 12L7 13L6 13L6 14L8 14L8 12L10 12L10 13L9 13L9 15L8 15L8 16L7 16L7 15L6 15L6 16L7 16L7 17L6 17L6 18L5 18L5 17L4 17L4 18L5 18L5 19L6 19L6 20L5 20L5 21L4 21L4 22L5 22L5 21L6 21L6 22L10 22L10 20L9 20L9 19L10 19L10 18L11 18L11 20L12 20L12 22L11 22L11 24L12 24L12 25L11 25L11 26L10 26L10 24L9 24L9 27L10 27L10 28L8 28L8 29L9 29L9 30L7 30L7 29L6 29L6 30L7 30L7 31L6 31L6 32L7 32L7 33L9 33L9 34L8 34L8 35L9 35L9 34L10 34L10 35L11 35L11 36L12 36L12 37L14 37L14 36L12 36L12 35L15 35L15 33L16 33L16 37L15 37L15 40L14 40L14 41L15 41L15 42L13 42L13 43L12 43L12 44L14 44L14 45L15 45L15 47L16 47L16 44L17 44L17 45L19 45L19 44L21 44L21 41L22 41L22 40L24 40L24 39L25 39L25 40L27 40L27 41L29 41L29 42L30 42L30 43L32 43L32 42L31 42L31 41L29 41L29 40L27 40L27 39L29 39L29 38L24 38L24 37L23 37L23 38L24 38L24 39L22 39L22 37L21 37L21 36L25 36L25 37L26 37L26 36L25 36L25 35L27 35L27 34L28 34L28 36L29 36L29 37L30 37L30 38L31 38L31 39L30 39L30 40L32 40L32 39L33 39L33 38L31 38L31 37L32 37L32 36L33 36L33 37L35 37L35 38L34 38L34 42L35 42L35 44L36 44L36 38L40 38L40 39L38 39L38 40L37 40L37 41L38 41L38 40L39 40L39 41L40 41L40 40L42 40L42 39L41 39L41 37L42 37L42 38L43 38L43 39L44 39L44 40L47 40L47 41L46 41L46 42L45 42L45 43L46 43L46 42L47 42L47 43L48 43L48 42L47 42L47 41L48 41L48 40L47 40L47 38L46 38L46 39L45 39L45 36L44 36L44 35L43 35L43 36L44 36L44 37L42 37L42 36L41 36L41 35L42 35L42 34L41 34L41 33L40 33L40 31L42 31L42 30L41 30L41 29L40 29L40 31L39 31L39 30L38 30L38 31L36 31L36 30L37 30L37 29L36 29L36 27L37 27L37 26L39 26L39 25L40 25L40 24L38 24L38 25L36 25L36 24L35 24L35 23L39 23L39 19L38 19L38 18L39 18L39 16L38 16L38 15L37 15L37 16L38 16L38 17L37 17L37 21L36 21L36 22L35 22L35 20L36 20L36 15L35 15L35 14L34 14L34 15L33 15L33 16L32 16L32 15L30 15L30 16L31 16L31 17L32 17L32 18L30 18L30 17L29 17L29 16L28 16L28 15L27 15L27 14L26 14L26 13L27 13L27 12L24 12L24 14L25 14L25 15L24 15L24 16L26 16L26 15L27 15L27 16L28 16L28 17L29 17L29 19L32 19L32 20L33 20L33 21L34 21L34 22L35 22L35 23L34 23L34 24L33 24L33 25L32 25L32 21L30 21L30 22L29 22L29 23L28 23L28 24L27 24L27 26L28 26L28 27L29 27L29 28L28 28L28 32L27 32L27 31L26 31L26 32L25 32L25 30L24 30L24 29L25 29L25 28L26 28L26 29L27 29L27 28L26 28L26 27L20 27L20 26L21 26L21 25L22 25L22 23L21 23L21 22L23 22L23 20L20 20L20 19L19 19L19 21L18 21L18 19L17 19L17 18L18 18L18 17L19 17L19 16L17 16L17 17L16 17L16 19L17 19L17 20L16 20L16 21L17 21L17 22L16 22L16 23L17 23L17 24L16 24L16 25L17 25L17 26L16 26L16 27L15 27L15 26L14 26L14 27L13 27L13 26L12 26L12 25L13 25L13 24L15 24L15 23L14 23L14 22L13 22L13 21L15 21L15 20L13 20L13 18L14 18L14 19L15 19L15 17L13 17L13 15L12 15L12 17L9 17L9 15L10 15L10 16L11 16L11 15L10 15L10 14L11 14L11 13L12 13L12 12L10 12L10 10ZM28 10L28 11L29 11L29 10ZM15 12L15 13L16 13L16 12ZM29 12L29 13L30 13L30 12ZM13 13L13 14L14 14L14 13ZM42 13L42 14L41 14L41 16L40 16L40 18L41 18L41 19L42 19L42 22L43 22L43 21L45 21L45 20L43 20L43 19L42 19L42 18L44 18L44 17L43 17L43 16L44 16L44 14L43 14L43 13ZM4 14L4 15L5 15L5 14ZM39 14L39 15L40 15L40 14ZM2 15L2 17L3 17L3 15ZM34 15L34 20L35 20L35 15ZM41 16L41 17L42 17L42 16ZM47 16L47 17L48 17L48 16ZM6 18L6 19L9 19L9 18ZM32 18L32 19L33 19L33 18ZM6 20L6 21L7 21L7 20ZM40 20L40 22L41 22L41 20ZM19 21L19 24L20 24L20 25L21 25L21 23L20 23L20 22L21 22L21 21ZM24 21L24 22L25 22L25 21ZM37 21L37 22L38 22L38 21ZM12 22L12 24L13 24L13 22ZM17 22L17 23L18 23L18 22ZM5 23L5 26L8 26L8 23ZM23 23L23 26L26 26L26 23ZM30 23L30 25L31 25L31 26L30 26L30 27L31 27L31 26L32 26L32 25L31 25L31 23ZM41 23L41 26L44 26L44 23ZM1 24L1 25L2 25L2 24ZM6 24L6 25L7 25L7 24ZM17 24L17 25L18 25L18 26L19 26L19 25L18 25L18 24ZM24 24L24 25L25 25L25 24ZM34 24L34 25L33 25L33 27L32 27L32 28L31 28L31 30L29 30L29 33L30 33L30 34L33 34L33 35L35 35L35 36L36 36L36 37L37 37L37 35L36 35L36 34L38 34L38 33L35 33L35 32L36 32L36 31L35 31L35 32L34 32L34 28L35 28L35 27L36 27L36 26L35 26L35 24ZM42 24L42 25L43 25L43 24ZM28 25L28 26L29 26L29 25ZM34 26L34 27L35 27L35 26ZM45 26L45 27L44 27L44 29L45 29L45 27L46 27L46 26ZM1 27L1 29L2 29L2 27ZM6 27L6 28L7 28L7 27ZM14 27L14 28L12 28L12 29L11 29L11 28L10 28L10 30L9 30L9 31L7 31L7 32L9 32L9 33L10 33L10 34L11 34L11 35L12 35L12 33L15 33L15 32L16 32L16 31L18 31L18 29L19 29L19 32L18 32L18 33L19 33L19 32L20 32L20 34L21 34L21 35L19 35L19 34L18 34L18 35L19 35L19 36L18 36L18 37L16 37L16 39L17 39L17 40L15 40L15 41L17 41L17 42L18 42L18 43L17 43L17 44L18 44L18 43L20 43L20 42L19 42L19 41L17 41L17 40L22 40L22 39L21 39L21 38L20 38L20 37L19 37L19 36L21 36L21 35L22 35L22 34L21 34L21 31L20 31L20 29L21 29L21 30L22 30L22 31L23 31L23 33L24 33L24 34L23 34L23 35L25 35L25 34L26 34L26 33L24 33L24 30L23 30L23 29L24 29L24 28L18 28L18 29L17 29L17 27L16 27L16 29L14 29L14 28L15 28L15 27ZM29 28L29 29L30 29L30 28ZM13 29L13 30L14 30L14 29ZM35 29L35 30L36 30L36 29ZM2 30L2 31L3 31L3 30ZM10 30L10 31L9 31L9 32L10 32L10 33L11 33L11 30ZM15 30L15 31L16 31L16 30ZM12 31L12 32L13 32L13 31ZM30 31L30 33L31 33L31 32L33 32L33 33L34 33L34 34L35 34L35 33L34 33L34 32L33 32L33 31ZM39 33L39 34L40 34L40 35L41 35L41 34L40 34L40 33ZM0 35L0 36L1 36L1 35ZM5 35L5 36L7 36L7 35ZM29 35L29 36L30 36L30 35ZM38 35L38 36L39 36L39 35ZM40 36L40 37L41 37L41 36ZM17 38L17 39L19 39L19 38ZM23 41L23 44L26 44L26 41ZM41 41L41 44L44 44L44 41ZM15 42L15 43L14 43L14 44L15 44L15 43L16 43L16 42ZM24 42L24 43L25 43L25 42ZM39 42L39 43L40 43L40 42ZM42 42L42 43L43 43L43 42ZM10 43L10 44L11 44L11 43ZM37 43L37 44L38 44L38 43ZM30 44L30 45L34 45L34 46L35 46L35 47L36 47L36 46L37 46L37 45L36 45L36 46L35 46L35 45L34 45L34 44ZM46 44L46 45L45 45L45 47L46 47L46 46L47 46L47 44ZM8 45L8 46L9 46L9 45ZM40 45L40 46L41 46L41 45ZM42 45L42 46L44 46L44 45ZM22 46L22 48L21 48L21 49L24 49L24 46ZM17 47L17 48L18 48L18 47ZM13 48L13 49L14 49L14 48ZM25 48L25 49L26 49L26 48ZM47 48L47 49L49 49L49 48ZM0 0L0 7L7 7L7 0ZM1 1L1 6L6 6L6 1ZM2 2L2 5L5 5L5 2ZM42 0L42 7L49 7L49 0ZM43 1L43 6L48 6L48 1ZM44 2L44 5L47 5L47 2ZM0 42L0 49L7 49L7 42ZM1 43L1 48L6 48L6 43ZM2 44L2 47L5 47L5 44Z" fill="#000000"/></g></g></svg>
