<?xml version="1.0" encoding="UTF-8"?>
<svg xmlns="http://www.w3.org/2000/svg" version="1.1" width="200" height="200" viewBox="0 0 200 200"><rect x="0" y="0" width="200" height="200" fill="#ffffff"/><g transform="scale(3.774)"><g transform="translate(2,2)"><path fill-rule="evenodd" d="M10 0L10 2L11 2L11 3L9 3L9 2L8 2L8 4L9 4L9 5L10 5L10 8L9 8L9 9L8 9L8 8L6 8L6 9L7 9L7 10L5 10L5 8L3 8L3 9L1 9L1 10L3 10L3 11L2 11L2 12L3 12L3 11L4 11L4 12L5 12L5 13L4 13L4 14L6 14L6 15L4 15L4 17L5 17L5 18L3 18L3 19L2 19L2 20L1 20L1 19L0 19L0 23L1 23L1 21L2 21L2 20L3 20L3 22L2 22L2 23L3 23L3 24L0 24L0 27L1 27L1 28L0 28L0 30L1 30L1 29L2 29L2 31L1 31L1 32L4 32L4 34L3 34L3 35L5 35L5 36L6 36L6 37L7 37L7 38L5 38L5 37L4 37L4 36L2 36L2 33L0 33L0 35L1 35L1 36L0 36L0 37L1 37L1 40L0 40L0 41L3 41L3 40L4 40L4 39L2 39L2 38L5 38L5 39L7 39L7 40L6 40L6 41L7 41L7 40L8 40L8 43L10 43L10 44L8 44L8 46L9 46L9 49L12 49L12 48L15 48L15 49L17 49L17 48L18 48L18 49L20 49L20 48L22 48L22 49L23 49L23 48L22 48L22 47L23 47L23 46L25 46L25 45L26 45L26 46L27 46L27 45L28 45L28 47L26 47L26 48L29 48L29 47L30 47L30 46L29 46L29 45L28 45L28 44L29 44L29 43L28 43L28 42L27 42L27 41L29 41L29 42L31 42L31 43L30 43L30 45L32 45L32 44L31 44L31 43L33 43L33 42L31 42L31 40L32 40L32 41L33 41L33 40L32 40L32 38L33 38L33 36L34 36L34 37L35 37L35 39L34 39L34 40L35 40L35 41L34 41L34 43L35 43L35 44L33 44L33 45L34 45L34 48L33 48L33 46L32 46L32 47L31 47L31 49L34 49L34 48L35 48L35 49L39 49L39 48L38 48L38 46L39 46L39 45L40 45L40 47L41 47L41 48L43 48L43 49L45 49L45 48L43 48L43 46L44 46L44 47L46 47L46 48L48 48L48 49L49 49L49 42L47 42L47 41L49 41L49 40L47 40L47 39L44 39L44 38L45 38L45 37L43 37L43 36L44 36L44 35L43 35L43 34L41 34L41 32L40 32L40 31L37 31L37 28L36 28L36 27L37 27L37 26L38 26L38 28L39 28L39 29L40 29L40 30L41 30L41 31L44 31L44 34L45 34L45 35L46 35L46 36L47 36L47 38L48 38L48 39L49 39L49 38L48 38L48 37L49 37L49 34L48 34L48 33L45 33L45 31L46 31L46 30L47 30L47 32L49 32L49 30L47 30L47 29L49 29L49 28L47 28L47 25L48 25L48 23L49 23L49 22L48 22L48 21L49 21L49 18L47 18L47 17L49 17L49 14L48 14L48 13L49 13L49 12L48 12L48 11L49 11L49 10L48 10L48 9L47 9L47 8L45 8L45 9L44 9L44 10L45 10L45 9L46 9L46 10L47 10L47 11L46 11L46 12L47 12L47 13L45 13L45 11L39 11L39 12L38 12L38 10L39 10L39 5L38 5L38 4L37 4L37 3L38 3L38 2L39 2L39 4L40 4L40 3L41 3L41 0L40 0L40 1L36 1L36 0L31 0L31 1L30 1L30 0L29 0L29 1L28 1L28 0L26 0L26 2L25 2L25 1L24 1L24 2L25 2L25 3L26 3L26 2L28 2L28 3L29 3L29 2L31 2L31 1L32 1L32 2L33 2L33 3L34 3L34 4L33 4L33 6L32 6L32 3L31 3L31 4L22 4L22 5L21 5L21 3L19 3L19 1L18 1L18 0L17 0L17 1L16 1L16 0L12 0L12 1L13 1L13 2L14 2L14 4L18 4L18 3L19 3L19 5L18 5L18 7L17 7L17 5L16 5L16 7L15 7L15 5L13 5L13 3L12 3L12 2L11 2L11 0ZM21 0L21 1L20 1L20 2L23 2L23 1L22 1L22 0ZM17 1L17 2L15 2L15 3L17 3L17 2L18 2L18 1ZM35 1L35 2L36 2L36 3L35 3L35 4L34 4L34 6L33 6L33 8L35 8L35 9L36 9L36 8L35 8L35 7L36 7L36 5L37 5L37 4L36 4L36 3L37 3L37 2L36 2L36 1ZM11 3L11 4L10 4L10 5L11 5L11 7L12 7L12 6L13 6L13 7L14 7L14 6L13 6L13 5L11 5L11 4L12 4L12 3ZM35 4L35 5L36 5L36 4ZM23 5L23 8L26 8L26 5ZM27 5L27 7L28 7L28 5ZM30 5L30 6L29 6L29 9L31 9L31 10L29 10L29 11L30 11L30 12L28 12L28 11L27 11L27 10L26 10L26 11L23 11L23 10L24 10L24 9L22 9L22 11L21 11L21 8L22 8L22 6L21 6L21 7L20 7L20 6L19 6L19 7L20 7L20 9L18 9L18 8L17 8L17 7L16 7L16 9L14 9L14 8L13 8L13 10L12 10L12 11L11 11L11 8L10 8L10 10L9 10L9 11L11 11L11 13L8 13L8 14L7 14L7 13L6 13L6 14L7 14L7 15L6 15L6 16L8 16L8 17L6 17L6 18L9 18L9 17L10 17L10 15L8 15L8 14L11 14L11 13L12 13L12 15L11 15L11 17L12 17L12 19L16 19L16 20L15 20L15 21L14 21L14 20L11 20L11 21L10 21L10 22L9 22L9 24L11 24L11 25L10 25L10 27L5 27L5 29L4 29L4 28L3 28L3 27L2 27L2 26L3 26L3 25L1 25L1 27L2 27L2 28L3 28L3 29L4 29L4 30L7 30L7 31L4 31L4 32L7 32L7 31L8 31L8 33L6 33L6 34L5 34L5 35L6 35L6 36L10 36L10 37L9 37L9 38L8 38L8 39L10 39L10 37L12 37L12 36L13 36L13 38L16 38L16 39L17 39L17 40L18 40L18 41L16 41L16 42L17 42L17 43L15 43L15 44L17 44L17 43L18 43L18 44L19 44L19 47L18 47L18 45L16 45L16 46L17 46L17 47L15 47L15 48L17 48L17 47L18 47L18 48L19 48L19 47L20 47L20 43L21 43L21 46L23 46L23 45L22 45L22 42L21 42L21 40L20 40L20 41L19 41L19 37L20 37L20 39L21 39L21 37L22 37L22 38L23 38L23 39L24 39L24 40L25 40L25 38L26 38L26 39L27 39L27 40L29 40L29 41L30 41L30 37L31 37L31 36L30 36L30 35L31 35L31 34L32 34L32 35L34 35L34 33L32 33L32 32L31 32L31 31L32 31L32 30L33 30L33 32L34 32L34 31L35 31L35 32L36 32L36 33L35 33L35 36L37 36L37 34L38 34L38 37L39 37L39 34L40 34L40 33L39 33L39 32L38 32L38 33L37 33L37 32L36 32L36 31L35 31L35 30L36 30L36 29L35 29L35 27L36 27L36 26L37 26L37 25L33 25L33 26L32 26L32 25L30 25L30 26L27 26L27 27L26 27L26 28L27 28L27 29L26 29L26 30L25 30L25 31L27 31L27 32L26 32L26 33L27 33L27 32L28 32L28 33L30 33L30 35L29 35L29 34L27 34L27 35L25 35L25 32L24 32L24 33L22 33L22 32L21 32L21 33L20 33L20 35L19 35L19 34L18 34L18 35L19 35L19 37L18 37L18 39L17 39L17 36L16 36L16 35L17 35L17 34L16 34L16 33L17 33L17 30L18 30L18 32L20 32L20 31L22 31L22 30L21 30L21 29L19 29L19 30L18 30L18 29L17 29L17 25L18 25L18 27L19 27L19 24L21 24L21 23L22 23L22 22L21 22L21 20L22 20L22 21L23 21L23 22L24 22L24 19L27 19L27 18L25 18L25 17L26 17L26 16L27 16L27 17L28 17L28 14L29 14L29 17L30 17L30 19L31 19L31 20L27 20L27 21L26 21L26 20L25 20L25 22L27 22L27 23L28 23L28 24L27 24L27 25L28 25L28 24L29 24L29 23L31 23L31 21L32 21L32 22L33 22L33 23L32 23L32 24L34 24L34 21L35 21L35 22L36 22L36 23L35 23L35 24L40 24L40 21L41 21L41 22L42 22L42 21L43 21L43 22L45 22L45 21L48 21L48 20L47 20L47 18L46 18L46 16L45 16L45 15L44 15L44 16L41 16L41 15L38 15L38 14L37 14L37 15L36 15L36 14L35 14L35 11L34 11L34 9L33 9L33 11L34 11L34 13L32 13L32 12L31 12L31 10L32 10L32 9L31 9L31 8L32 8L32 6L31 6L31 5ZM8 6L8 7L9 7L9 6ZM24 6L24 7L25 7L25 6ZM30 6L30 7L31 7L31 6ZM34 6L34 7L35 7L35 6ZM37 6L37 7L38 7L38 6ZM40 6L40 7L41 7L41 6ZM3 9L3 10L4 10L4 11L5 11L5 10L4 10L4 9ZM37 9L37 10L38 10L38 9ZM40 9L40 10L41 10L41 9ZM42 9L42 10L43 10L43 9ZM13 10L13 11L12 11L12 13L13 13L13 14L14 14L14 13L15 13L15 14L16 14L16 15L14 15L14 17L13 17L13 18L15 18L15 16L16 16L16 19L17 19L17 18L18 18L18 16L16 16L16 15L18 15L18 13L17 13L17 12L18 12L18 11L19 11L19 13L20 13L20 11L19 11L19 10L18 10L18 11L16 11L16 12L13 12L13 11L14 11L14 10ZM6 11L6 12L8 12L8 11ZM26 11L26 12L25 12L25 13L24 13L24 14L23 14L23 13L22 13L22 12L21 12L21 14L20 14L20 15L19 15L19 16L20 16L20 17L21 17L21 18L20 18L20 20L19 20L19 21L18 21L18 20L17 20L17 22L19 22L19 21L20 21L20 20L21 20L21 19L22 19L22 18L24 18L24 17L22 17L22 16L20 16L20 15L21 15L21 14L22 14L22 15L23 15L23 16L24 16L24 15L25 15L25 16L26 16L26 15L25 15L25 14L26 14L26 12L27 12L27 11ZM36 11L36 12L37 12L37 11ZM0 12L0 15L2 15L2 16L3 16L3 13L2 13L2 14L1 14L1 12ZM39 12L39 14L42 14L42 15L43 15L43 14L44 14L44 13L43 13L43 14L42 14L42 13L41 13L41 12ZM29 13L29 14L30 14L30 17L31 17L31 19L32 19L32 21L34 21L34 19L35 19L35 20L36 20L36 22L37 22L37 23L38 23L38 22L39 22L39 21L38 21L38 20L39 20L39 17L37 17L37 16L38 16L38 15L37 15L37 16L36 16L36 15L35 15L35 16L34 16L34 15L33 15L33 14L32 14L32 13ZM31 14L31 15L32 15L32 17L33 17L33 15L32 15L32 14ZM46 14L46 15L47 15L47 16L48 16L48 14ZM44 16L44 17L40 17L40 19L42 19L42 20L43 20L43 21L44 21L44 20L43 20L43 18L44 18L44 19L46 19L46 18L45 18L45 16ZM34 17L34 18L35 18L35 17ZM36 17L36 18L37 18L37 17ZM28 18L28 19L29 19L29 18ZM32 18L32 19L33 19L33 18ZM3 19L3 20L7 20L7 19ZM36 19L36 20L37 20L37 19ZM8 20L8 21L9 21L9 20ZM5 21L5 22L7 22L7 21ZM12 21L12 22L10 22L10 23L11 23L11 24L12 24L12 23L13 23L13 24L14 24L14 25L15 25L15 22L13 22L13 21ZM28 21L28 23L29 23L29 22L30 22L30 21ZM37 21L37 22L38 22L38 21ZM3 22L3 23L4 23L4 22ZM46 22L46 23L45 23L45 26L46 26L46 25L47 25L47 24L46 24L46 23L47 23L47 22ZM5 23L5 26L8 26L8 23ZM17 23L17 24L19 24L19 23ZM23 23L23 26L26 26L26 23ZM41 23L41 26L44 26L44 23ZM6 24L6 25L7 25L7 24ZM24 24L24 25L25 25L25 24ZM42 24L42 25L43 25L43 24ZM11 25L11 27L10 27L10 28L6 28L6 29L7 29L7 30L8 30L8 29L9 29L9 31L10 31L10 32L9 32L9 34L8 34L8 35L10 35L10 36L12 36L12 35L11 35L11 30L12 30L12 34L13 34L13 35L14 35L14 36L15 36L15 37L16 37L16 36L15 36L15 33L16 33L16 32L15 32L15 33L14 33L14 29L12 29L12 28L14 28L14 27L12 27L12 25ZM21 25L21 27L22 27L22 25ZM39 25L39 27L40 27L40 25ZM31 26L31 27L29 27L29 28L32 28L32 29L33 29L33 28L32 28L32 26ZM48 26L48 27L49 27L49 26ZM15 27L15 29L16 29L16 30L17 30L17 29L16 29L16 27ZM42 27L42 28L43 28L43 29L44 29L44 31L45 31L45 30L46 30L46 27L45 27L45 28L44 28L44 27ZM10 29L10 30L11 30L11 29ZM27 29L27 30L30 30L30 31L28 31L28 32L30 32L30 33L31 33L31 32L30 32L30 31L31 31L31 29ZM34 29L34 30L35 30L35 29ZM41 29L41 30L42 30L42 29ZM42 32L42 33L43 33L43 32ZM13 33L13 34L14 34L14 33ZM21 33L21 34L22 34L22 35L21 35L21 36L20 36L20 37L21 37L21 36L22 36L22 37L23 37L23 38L24 38L24 37L27 37L27 36L24 36L24 37L23 37L23 36L22 36L22 35L23 35L23 34L22 34L22 33ZM38 33L38 34L39 34L39 33ZM6 34L6 35L7 35L7 34ZM28 35L28 37L30 37L30 36L29 36L29 35ZM41 35L41 36L43 36L43 35ZM1 36L1 37L2 37L2 36ZM36 37L36 38L37 38L37 39L36 39L36 40L38 40L38 38L37 38L37 37ZM41 37L41 38L39 38L39 39L42 39L42 40L44 40L44 39L42 39L42 37ZM27 38L27 39L28 39L28 38ZM12 39L12 42L10 42L10 43L11 43L11 44L10 44L10 46L11 46L11 47L10 47L10 48L11 48L11 47L14 47L14 44L13 44L13 43L14 43L14 42L15 42L15 39L14 39L14 40L13 40L13 39ZM9 40L9 41L10 41L10 40ZM45 40L45 42L46 42L46 40ZM23 41L23 44L26 44L26 41ZM36 41L36 42L37 42L37 43L36 43L36 44L35 44L35 46L36 46L36 44L37 44L37 46L38 46L38 45L39 45L39 44L40 44L40 43L38 43L38 42L40 42L40 41ZM41 41L41 44L44 44L44 41ZM12 42L12 43L13 43L13 42ZM19 42L19 43L20 43L20 42ZM24 42L24 43L25 43L25 42ZM42 42L42 43L43 43L43 42ZM27 43L27 44L28 44L28 43ZM37 43L37 44L38 44L38 43ZM45 43L45 45L44 45L44 46L45 46L45 45L47 45L47 47L48 47L48 43ZM12 44L12 46L13 46L13 44ZM41 45L41 46L42 46L42 45ZM24 47L24 48L25 48L25 47ZM35 47L35 48L37 48L37 47ZM0 0L0 7L7 7L7 0ZM1 1L1 6L6 6L6 1ZM2 2L2 5L5 5L5 2ZM42 0L42 7L49 7L49 0ZM43 1L43 6L48 6L48 1ZM44 2L44 5L47 5L47 2ZM0 42L0 49L7 49L7 42ZM1 43L1 48L6 48L6 43ZM2 44L2 47L5 47L5 44Z" fill="#000000"/></g></g></svg>
