<?xml version="1.0" encoding="UTF-8"?>
<svg xmlns="http://www.w3.org/2000/svg" version="1.1" width="200" height="200" viewBox="0 0 200 200"><rect x="0" y="0" width="200" height="200" fill="#ffffff"/><g transform="scale(3.774)"><g transform="translate(2,2)"><path fill-rule="evenodd" d="M8 0L8 1L9 1L9 0ZM10 0L10 3L9 3L9 2L8 2L8 3L9 3L9 4L8 4L8 5L9 5L9 6L8 6L8 8L10 8L10 9L7 9L7 8L5 8L5 9L3 9L3 10L1 10L1 9L0 9L0 10L1 10L1 11L0 11L0 12L1 12L1 13L0 13L0 15L1 15L1 13L2 13L2 12L4 12L4 15L5 15L5 14L6 14L6 15L8 15L8 16L4 16L4 17L5 17L5 18L3 18L3 19L9 19L9 18L10 18L10 20L9 20L9 21L7 21L7 20L5 20L5 21L4 21L4 20L3 20L3 21L4 21L4 22L3 22L3 23L4 23L4 24L0 24L0 27L1 27L1 28L0 28L0 30L1 30L1 31L0 31L0 32L1 32L1 31L2 31L2 32L3 32L3 34L1 34L1 33L0 33L0 34L1 34L1 37L0 37L0 38L1 38L1 40L0 40L0 41L3 41L3 40L4 40L4 39L2 39L2 37L3 37L3 38L5 38L5 39L7 39L7 40L6 40L6 41L7 41L7 40L10 40L10 41L8 41L8 42L9 42L9 43L8 43L8 44L10 44L10 45L11 45L11 44L10 44L10 41L11 41L11 43L12 43L12 41L13 41L13 40L14 40L14 41L15 41L15 42L17 42L17 44L18 44L18 43L20 43L20 44L19 44L19 45L20 45L20 46L21 46L21 47L19 47L19 46L18 46L18 45L17 45L17 46L16 46L16 43L15 43L15 44L14 44L14 43L13 43L13 44L12 44L12 46L9 46L9 49L12 49L12 48L15 48L15 49L17 49L17 47L19 47L19 48L18 48L18 49L20 49L20 48L22 48L22 49L23 49L23 48L25 48L25 49L26 49L26 45L28 45L28 47L27 47L27 49L28 49L28 47L31 47L31 48L29 48L29 49L34 49L34 48L33 48L33 47L31 47L31 44L33 44L33 45L34 45L34 47L35 47L35 49L39 49L39 48L36 48L36 47L39 47L39 45L40 45L40 48L41 48L41 45L42 45L42 48L43 48L43 49L45 49L45 48L43 48L43 46L44 46L44 45L45 45L45 43L48 43L48 46L47 46L47 44L46 44L46 46L45 46L45 47L46 47L46 46L47 46L47 47L48 47L48 49L49 49L49 42L48 42L48 41L49 41L49 40L48 40L48 41L47 41L47 38L48 38L48 39L49 39L49 38L48 38L48 37L49 37L49 34L48 34L48 33L47 33L47 32L49 32L49 30L48 30L48 29L47 29L47 28L49 28L49 26L48 26L48 27L46 27L46 26L47 26L47 25L48 25L48 24L47 24L47 25L46 25L46 26L45 26L45 23L46 23L46 22L48 22L48 23L49 23L49 22L48 22L48 21L49 21L49 18L48 18L48 17L49 17L49 14L48 14L48 13L49 13L49 12L47 12L47 13L45 13L45 8L44 8L44 11L42 11L42 10L43 10L43 8L42 8L42 10L41 10L41 8L40 8L40 11L39 11L39 8L38 8L38 10L37 10L37 6L38 6L38 7L39 7L39 5L38 5L38 4L37 4L37 3L36 3L36 2L37 2L37 1L36 1L36 0L33 0L33 1L32 1L32 0L30 0L30 2L31 2L31 3L32 3L32 2L33 2L33 3L34 3L34 4L32 4L32 5L31 5L31 4L30 4L30 5L31 5L31 6L30 6L30 7L29 7L29 6L28 6L28 5L27 5L27 4L28 4L28 3L29 3L29 0L26 0L26 1L25 1L25 0L22 0L22 1L21 1L21 4L19 4L19 5L18 5L18 3L20 3L20 1L18 1L18 0L17 0L17 1L16 1L16 0L12 0L12 1L15 1L15 2L13 2L13 3L12 3L12 2L11 2L11 0ZM40 0L40 1L38 1L38 2L39 2L39 4L40 4L40 3L41 3L41 0ZM17 1L17 2L18 2L18 1ZM22 1L22 2L23 2L23 3L22 3L22 4L21 4L21 7L20 7L20 5L19 5L19 7L20 7L20 8L19 8L19 10L18 10L18 8L17 8L17 7L18 7L18 6L17 6L17 5L15 5L15 7L14 7L14 3L13 3L13 4L12 4L12 3L11 3L11 4L10 4L10 6L9 6L9 7L10 7L10 6L11 6L11 7L12 7L12 6L11 6L11 5L13 5L13 9L14 9L14 10L15 10L15 11L14 11L14 12L13 12L13 13L11 13L11 12L9 12L9 13L11 13L11 14L10 14L10 15L9 15L9 16L8 16L8 17L10 17L10 18L13 18L13 17L15 17L15 18L14 18L14 20L13 20L13 19L11 19L11 25L10 25L10 26L11 26L11 25L12 25L12 27L13 27L13 25L14 25L14 24L13 24L13 23L12 23L12 21L14 21L14 23L15 23L15 26L14 26L14 28L11 28L11 30L10 30L10 31L9 31L9 29L8 29L8 28L10 28L10 27L5 27L5 28L4 28L4 29L3 29L3 27L2 27L2 29L1 29L1 30L2 30L2 31L4 31L4 33L5 33L5 31L6 31L6 32L7 32L7 31L6 31L6 30L8 30L8 31L9 31L9 32L10 32L10 33L6 33L6 34L7 34L7 35L5 35L5 36L4 36L4 35L3 35L3 36L4 36L4 37L5 37L5 38L7 38L7 39L11 39L11 41L12 41L12 39L14 39L14 40L15 40L15 39L14 39L14 38L13 38L13 36L15 36L15 37L16 37L16 39L17 39L17 41L18 41L18 42L19 42L19 41L20 41L20 42L21 42L21 41L20 41L20 40L21 40L21 39L19 39L19 37L17 37L17 36L18 36L18 34L16 34L16 33L15 33L15 32L14 32L14 34L15 34L15 35L13 35L13 34L12 34L12 32L10 32L10 31L13 31L13 30L12 30L12 29L14 29L14 31L16 31L16 32L17 32L17 33L20 33L20 34L21 34L21 35L19 35L19 36L20 36L20 38L21 38L21 37L22 37L22 39L24 39L24 40L25 40L25 39L27 39L27 38L29 38L29 39L28 39L28 40L27 40L27 41L28 41L28 40L30 40L30 37L31 37L31 38L32 38L32 40L31 40L31 42L30 42L30 41L29 41L29 43L31 43L31 42L33 42L33 44L34 44L34 45L35 45L35 47L36 47L36 44L38 44L38 45L37 45L37 46L38 46L38 45L39 45L39 44L40 44L40 43L39 43L39 44L38 44L38 42L40 42L40 41L39 41L39 40L38 40L38 39L36 39L36 40L34 40L34 38L35 38L35 35L34 35L34 33L35 33L35 34L36 34L36 36L39 36L39 35L37 35L37 34L38 34L38 33L39 33L39 34L40 34L40 33L41 33L41 35L40 35L40 36L41 36L41 35L42 35L42 36L43 36L43 39L42 39L42 37L41 37L41 39L42 39L42 40L44 40L44 39L46 39L46 38L47 38L47 36L48 36L48 34L47 34L47 35L44 35L44 33L42 33L42 32L43 32L43 31L41 31L41 30L43 30L43 29L44 29L44 32L45 32L45 33L46 33L46 32L47 32L47 29L46 29L46 27L45 27L45 29L44 29L44 27L42 27L42 28L43 28L43 29L38 29L38 27L37 27L37 26L39 26L39 27L40 27L40 25L39 25L39 24L40 24L40 20L41 20L41 22L42 22L42 21L43 21L43 22L45 22L45 21L46 21L46 20L47 20L47 21L48 21L48 20L47 20L47 17L48 17L48 14L47 14L47 17L46 17L46 16L45 16L45 15L44 15L44 14L45 14L45 13L44 13L44 14L42 14L42 13L41 13L41 12L42 12L42 11L40 11L40 12L39 12L39 11L38 11L38 12L39 12L39 13L35 13L35 12L37 12L37 11L36 11L36 10L35 10L35 12L34 12L34 13L33 13L33 15L34 15L34 16L35 16L35 18L37 18L37 17L38 17L38 16L39 16L39 19L36 19L36 20L35 20L35 19L34 19L34 20L35 20L35 23L34 23L34 21L32 21L32 24L35 24L35 23L36 23L36 24L37 24L37 22L38 22L38 21L39 21L39 23L38 23L38 25L37 25L37 26L35 26L35 25L32 25L32 26L31 26L31 27L32 27L32 28L30 28L30 29L29 29L29 32L30 32L30 29L31 29L31 30L33 30L33 31L31 31L31 32L34 32L34 33L30 33L30 34L27 34L27 35L25 35L25 34L26 34L26 33L27 33L27 32L28 32L28 31L27 31L27 30L25 30L25 28L24 28L24 29L21 29L21 30L20 30L20 32L17 32L17 31L18 31L18 30L17 30L17 29L18 29L18 28L17 28L17 27L16 27L16 26L17 26L17 25L18 25L18 27L20 27L20 26L21 26L21 28L22 28L22 25L19 25L19 24L21 24L21 23L22 23L22 22L21 22L21 20L23 20L23 22L24 22L24 19L25 19L25 20L27 20L27 21L25 21L25 22L27 22L27 24L28 24L28 26L27 26L27 27L26 27L26 28L27 28L27 27L28 27L28 28L29 28L29 27L28 27L28 26L29 26L29 24L31 24L31 23L30 23L30 21L31 21L31 19L32 19L32 20L33 20L33 19L32 19L32 18L33 18L33 16L32 16L32 18L31 18L31 17L29 17L29 16L30 16L30 14L29 14L29 13L31 13L31 14L32 14L32 12L31 12L31 11L27 11L27 12L26 12L26 13L27 13L27 14L26 14L26 16L25 16L25 17L27 17L27 18L24 18L24 15L23 15L23 14L24 14L24 13L25 13L25 11L24 11L24 9L22 9L22 8L21 8L21 7L22 7L22 4L27 4L27 2L25 2L25 1ZM31 1L31 2L32 2L32 1ZM35 1L35 2L34 2L34 3L35 3L35 4L34 4L34 5L37 5L37 4L36 4L36 3L35 3L35 2L36 2L36 1ZM15 2L15 4L17 4L17 3L16 3L16 2ZM23 5L23 8L26 8L26 5ZM16 6L16 7L15 7L15 8L14 8L14 9L17 9L17 8L16 8L16 7L17 7L17 6ZM24 6L24 7L25 7L25 6ZM27 6L27 7L28 7L28 6ZM31 6L31 7L30 7L30 8L28 8L28 9L30 9L30 10L32 10L32 11L34 11L34 9L36 9L36 8L35 8L35 7L36 7L36 6L35 6L35 7L34 7L34 6L33 6L33 7L32 7L32 6ZM40 6L40 7L41 7L41 6ZM31 7L31 8L30 8L30 9L31 9L31 8L32 8L32 10L33 10L33 9L34 9L34 8L32 8L32 7ZM46 8L46 10L48 10L48 11L49 11L49 10L48 10L48 9L49 9L49 8L48 8L48 9L47 9L47 8ZM5 9L5 10L4 10L4 12L5 12L5 13L6 13L6 14L8 14L8 13L6 13L6 12L8 12L8 11L9 11L9 10L8 10L8 11L6 11L6 10L7 10L7 9ZM10 9L10 10L11 10L11 11L13 11L13 10L11 10L11 9ZM21 9L21 10L20 10L20 11L19 11L19 13L18 13L18 12L14 12L14 14L12 14L12 16L13 16L13 15L14 15L14 16L15 16L15 17L16 17L16 18L15 18L15 19L16 19L16 18L17 18L17 15L18 15L18 14L19 14L19 13L20 13L20 15L19 15L19 17L20 17L20 15L21 15L21 16L22 16L22 15L21 15L21 13L22 13L22 14L23 14L23 13L22 13L22 12L24 12L24 11L22 11L22 9ZM5 11L5 12L6 12L6 11ZM20 11L20 13L21 13L21 12L22 12L22 11ZM15 13L15 14L14 14L14 15L16 15L16 14L17 14L17 13ZM2 14L2 17L3 17L3 14ZM34 14L34 15L35 15L35 16L36 16L36 17L37 17L37 16L38 16L38 15L40 15L40 14ZM41 14L41 17L42 17L42 18L40 18L40 19L42 19L42 20L45 20L45 19L46 19L46 18L44 18L44 17L42 17L42 16L44 16L44 15L42 15L42 14ZM10 15L10 17L11 17L11 15ZM28 15L28 16L27 16L27 17L28 17L28 16L29 16L29 15ZM36 15L36 16L37 16L37 15ZM6 17L6 18L7 18L7 17ZM21 17L21 18L20 18L20 19L17 19L17 20L16 20L16 21L17 21L17 23L16 23L16 24L17 24L17 23L18 23L18 24L19 24L19 23L18 23L18 22L19 22L19 21L18 21L18 20L20 20L20 19L22 19L22 17ZM0 18L0 21L1 21L1 22L0 22L0 23L1 23L1 22L2 22L2 18ZM23 18L23 19L24 19L24 18ZM27 18L27 20L28 20L28 23L29 23L29 20L30 20L30 18L29 18L29 19L28 19L28 18ZM43 18L43 19L44 19L44 18ZM14 20L14 21L15 21L15 20ZM36 20L36 22L37 22L37 20ZM5 21L5 22L7 22L7 21ZM9 22L9 24L10 24L10 22ZM20 22L20 23L21 23L21 22ZM5 23L5 26L8 26L8 23ZM23 23L23 26L26 26L26 23ZM41 23L41 26L44 26L44 23ZM6 24L6 25L7 25L7 24ZM24 24L24 25L25 25L25 24ZM42 24L42 25L43 25L43 24ZM34 26L34 27L35 27L35 28L36 28L36 29L35 29L35 31L34 31L34 32L35 32L35 33L36 33L36 32L37 32L37 28L36 28L36 27L35 27L35 26ZM15 27L15 28L14 28L14 29L15 29L15 30L16 30L16 31L17 31L17 30L16 30L16 27ZM5 28L5 29L7 29L7 28ZM21 30L21 32L20 32L20 33L21 33L21 34L23 34L23 35L24 35L24 37L23 37L23 36L22 36L22 35L21 35L21 36L22 36L22 37L23 37L23 38L24 38L24 37L25 37L25 38L27 38L27 36L25 36L25 35L24 35L24 33L25 33L25 31L24 31L24 32L22 32L22 30ZM45 30L45 31L46 31L46 30ZM26 31L26 32L27 32L27 31ZM35 31L35 32L36 32L36 31ZM39 31L39 33L40 33L40 31ZM10 33L10 34L11 34L11 35L9 35L9 36L6 36L6 37L9 37L9 38L10 38L10 36L11 36L11 35L12 35L12 34L11 34L11 33ZM30 34L30 35L29 35L29 36L28 36L28 37L30 37L30 36L31 36L31 37L32 37L32 38L33 38L33 36L34 36L34 35L33 35L33 34ZM42 34L42 35L43 35L43 36L44 36L44 35L43 35L43 34ZM37 37L37 38L39 38L39 39L40 39L40 38L39 38L39 37ZM11 38L11 39L12 39L12 38ZM17 38L17 39L18 39L18 38ZM36 40L36 41L38 41L38 40ZM45 40L45 42L47 42L47 41L46 41L46 40ZM23 41L23 44L26 44L26 41ZM41 41L41 44L44 44L44 41ZM24 42L24 43L25 43L25 42ZM27 42L27 44L28 44L28 42ZM34 42L34 43L35 43L35 44L36 44L36 43L37 43L37 42ZM42 42L42 43L43 43L43 42ZM14 45L14 46L12 46L12 47L11 47L11 48L12 48L12 47L15 47L15 48L16 48L16 47L15 47L15 45ZM29 45L29 46L30 46L30 45ZM24 46L24 47L25 47L25 46ZM0 0L0 7L7 7L7 0ZM1 1L1 6L6 6L6 1ZM2 2L2 5L5 5L5 2ZM42 0L42 7L49 7L49 0ZM43 1L43 6L48 6L48 1ZM44 2L44 5L47 5L47 2ZM0 42L0 49L7 49L7 42ZM1 43L1 48L6 48L6 43ZM2 44L2 47L5 47L5 44Z" fill="#000000"/></g></g></svg>
