<?xml version="1.0" encoding="UTF-8"?>
<svg xmlns="http://www.w3.org/2000/svg" version="1.1" width="200" height="200" viewBox="0 0 200 200"><rect x="0" y="0" width="200" height="200" fill="#ffffff"/><g transform="scale(3.774)"><g transform="translate(2,2)"><path fill-rule="evenodd" d="M11 0L11 1L12 1L12 0ZM13 0L13 2L14 2L14 0ZM16 0L16 3L17 3L17 4L16 4L16 5L15 5L15 4L14 4L14 3L13 3L13 4L14 4L14 5L13 5L13 6L12 6L12 8L13 8L13 10L15 10L15 9L14 9L14 8L13 8L13 6L14 6L14 7L15 7L15 8L16 8L16 9L17 9L17 11L16 11L16 12L15 12L15 13L14 13L14 11L13 11L13 12L12 12L12 13L11 13L11 10L12 10L12 9L11 9L11 6L10 6L10 7L9 7L9 6L8 6L8 8L6 8L6 9L8 9L8 10L9 10L9 11L8 11L8 12L6 12L6 11L7 11L7 10L6 10L6 11L5 11L5 10L3 10L3 9L4 9L4 8L2 8L2 9L0 9L0 13L1 13L1 11L2 11L2 10L3 10L3 12L2 12L2 13L3 13L3 14L2 14L2 15L3 15L3 14L5 14L5 15L7 15L7 16L5 16L5 18L4 18L4 19L3 19L3 18L2 18L2 17L4 17L4 16L1 16L1 14L0 14L0 16L1 16L1 17L0 17L0 18L1 18L1 20L4 20L4 21L3 21L3 22L1 22L1 24L0 24L0 25L1 25L1 24L2 24L2 23L3 23L3 25L2 25L2 26L1 26L1 27L0 27L0 29L1 29L1 30L0 30L0 32L1 32L1 30L2 30L2 26L4 26L4 27L5 27L5 28L4 28L4 29L5 29L5 30L4 30L4 31L2 31L2 32L3 32L3 34L2 34L2 35L1 35L1 34L0 34L0 35L1 35L1 36L0 36L0 37L2 37L2 38L1 38L1 40L0 40L0 41L3 41L3 40L4 40L4 39L2 39L2 38L5 38L5 39L7 39L7 40L6 40L6 41L8 41L8 43L9 43L9 45L8 45L8 47L9 47L9 49L10 49L10 48L11 48L11 49L14 49L14 47L15 47L15 49L16 49L16 47L15 47L15 46L14 46L14 44L13 44L13 43L14 43L14 42L15 42L15 41L14 41L14 40L15 40L15 39L13 39L13 38L12 38L12 36L14 36L14 37L17 37L17 35L18 35L18 33L19 33L19 31L18 31L18 30L20 30L20 33L21 33L21 30L23 30L23 29L24 29L24 30L25 30L25 31L24 31L24 32L25 32L25 33L28 33L28 38L25 38L25 37L26 37L26 36L27 36L27 34L26 34L26 35L25 35L25 34L24 34L24 35L25 35L25 37L24 37L24 38L23 38L23 34L22 34L22 38L19 38L19 37L20 37L20 35L19 35L19 37L18 37L18 40L17 40L17 43L18 43L18 44L17 44L17 45L16 45L16 46L17 46L17 47L19 47L19 49L21 49L21 48L20 48L20 47L19 47L19 46L20 46L20 45L22 45L22 46L21 46L21 47L22 47L22 49L24 49L24 48L27 48L27 47L28 47L28 46L29 46L29 48L31 48L31 47L30 47L30 46L29 46L29 44L30 44L30 43L29 43L29 42L30 42L30 41L29 41L29 42L28 42L28 43L27 43L27 41L28 41L28 40L32 40L32 41L34 41L34 42L35 42L35 41L36 41L36 44L37 44L37 43L38 43L38 41L39 41L39 40L37 40L37 41L36 41L36 38L37 38L37 37L38 37L38 39L40 39L40 38L41 38L41 37L40 37L40 36L43 36L43 37L44 37L44 38L43 38L43 39L44 39L44 40L42 40L42 39L41 39L41 40L40 40L40 42L39 42L39 43L40 43L40 45L39 45L39 47L41 47L41 46L40 46L40 45L42 45L42 46L44 46L44 47L46 47L46 49L49 49L49 48L47 48L47 47L46 47L46 46L47 46L47 45L46 45L46 44L45 44L45 43L46 43L46 42L48 42L48 43L47 43L47 44L48 44L48 43L49 43L49 41L48 41L48 40L49 40L49 39L48 39L48 40L47 40L47 41L46 41L46 42L45 42L45 40L46 40L46 37L47 37L47 35L48 35L48 38L49 38L49 35L48 35L48 33L47 33L47 34L46 34L46 37L45 37L45 36L44 36L44 35L45 35L45 34L44 34L44 35L42 35L42 34L43 34L43 33L42 33L42 34L40 34L40 35L38 35L38 34L36 34L36 37L35 37L35 34L34 34L34 33L39 33L39 32L40 32L40 33L41 33L41 32L44 32L44 33L46 33L46 32L44 32L44 31L46 31L46 30L48 30L48 31L49 31L49 29L48 29L48 26L49 26L49 25L48 25L48 26L46 26L46 27L45 27L45 23L46 23L46 25L47 25L47 23L48 23L48 21L47 21L47 22L46 22L46 20L45 20L45 21L44 21L44 19L47 19L47 18L48 18L48 19L49 19L49 15L48 15L48 16L46 16L46 18L44 18L44 19L43 19L43 18L41 18L41 17L40 17L40 16L41 16L41 15L42 15L42 16L44 16L44 17L45 17L45 15L44 15L44 14L42 14L42 13L43 13L43 12L42 12L42 13L41 13L41 11L40 11L40 13L41 13L41 14L40 14L40 15L39 15L39 13L38 13L38 12L39 12L39 11L38 11L38 10L37 10L37 9L38 9L38 8L39 8L39 10L40 10L40 8L39 8L39 5L38 5L38 4L37 4L37 3L38 3L38 2L39 2L39 4L40 4L40 3L41 3L41 0L40 0L40 1L38 1L38 0L36 0L36 1L34 1L34 0L28 0L28 2L29 2L29 5L27 5L27 4L28 4L28 3L27 3L27 2L26 2L26 0L25 0L25 2L26 2L26 4L22 4L22 3L21 3L21 4L20 4L20 3L19 3L19 4L18 4L18 1L19 1L19 0L18 0L18 1L17 1L17 0ZM20 0L20 2L22 2L22 1L23 1L23 0ZM31 1L31 2L33 2L33 3L30 3L30 5L29 5L29 8L30 8L30 9L29 9L29 10L31 10L31 9L32 9L32 6L31 6L31 8L30 8L30 5L31 5L31 4L32 4L32 5L34 5L34 6L33 6L33 9L34 9L34 10L35 10L35 9L37 9L37 8L38 8L38 5L36 5L36 6L35 6L35 4L36 4L36 3L35 3L35 2L33 2L33 1ZM36 1L36 2L38 2L38 1ZM10 2L10 3L12 3L12 2ZM8 4L8 5L11 5L11 4ZM21 4L21 5L20 5L20 6L19 6L19 5L16 5L16 6L15 6L15 7L16 7L16 8L17 8L17 7L18 7L18 6L19 6L19 7L20 7L20 6L21 6L21 7L22 7L22 4ZM23 5L23 8L26 8L26 5ZM16 6L16 7L17 7L17 6ZM24 6L24 7L25 7L25 6ZM27 6L27 10L28 10L28 6ZM34 6L34 9L35 9L35 6ZM36 6L36 7L37 7L37 6ZM40 6L40 7L41 7L41 6ZM18 8L18 10L20 10L20 11L19 11L19 12L20 12L20 14L18 14L18 13L17 13L17 12L18 12L18 11L17 11L17 12L16 12L16 14L17 14L17 19L16 19L16 20L15 20L15 19L14 19L14 18L15 18L15 16L16 16L16 15L15 15L15 16L14 16L14 15L13 15L13 13L12 13L12 14L10 14L10 13L9 13L9 16L10 16L10 18L9 18L9 17L8 17L8 16L7 16L7 17L6 17L6 18L7 18L7 17L8 17L8 18L9 18L9 19L11 19L11 18L13 18L13 19L12 19L12 20L11 20L11 21L9 21L9 20L8 20L8 21L6 21L6 20L7 20L7 19L5 19L5 21L4 21L4 22L3 22L3 23L4 23L4 22L5 22L5 21L6 21L6 22L12 22L12 21L13 21L13 19L14 19L14 20L15 20L15 21L16 21L16 23L20 23L20 24L18 24L18 25L19 25L19 26L17 26L17 24L14 24L14 26L15 26L15 27L16 27L16 28L14 28L14 27L13 27L13 25L12 25L12 24L13 24L13 23L15 23L15 22L13 22L13 23L12 23L12 24L11 24L11 23L10 23L10 24L11 24L11 25L10 25L10 26L11 26L11 27L13 27L13 28L11 28L11 29L9 29L9 32L8 32L8 35L6 35L6 34L7 34L7 33L6 33L6 32L7 32L7 31L8 31L8 30L7 30L7 29L8 29L8 28L9 28L9 27L6 27L6 28L5 28L5 29L6 29L6 30L5 30L5 31L4 31L4 32L5 32L5 36L4 36L4 35L3 35L3 37L6 37L6 38L7 38L7 39L8 39L8 38L7 38L7 37L9 37L9 39L11 39L11 40L12 40L12 41L11 41L11 42L12 42L12 41L13 41L13 40L12 40L12 38L11 38L11 37L10 37L10 36L8 36L8 35L10 35L10 34L9 34L9 32L10 32L10 33L11 33L11 35L14 35L14 34L15 34L15 36L16 36L16 35L17 35L17 34L15 34L15 33L13 33L13 34L12 34L12 33L11 33L11 32L10 32L10 31L11 31L11 29L13 29L13 30L12 30L12 32L15 32L15 31L16 31L16 33L17 33L17 32L18 32L18 31L16 31L16 30L17 30L17 29L19 29L19 28L20 28L20 29L21 29L21 26L20 26L20 24L21 24L21 25L22 25L22 24L21 24L21 23L22 23L22 22L20 22L20 21L23 21L23 22L24 22L24 20L25 20L25 19L26 19L26 20L27 20L27 21L25 21L25 22L27 22L27 24L28 24L28 21L29 21L29 20L28 20L28 19L29 19L29 17L30 17L30 19L31 19L31 17L32 17L32 18L33 18L33 17L34 17L34 20L33 20L33 21L32 21L32 20L30 20L30 22L29 22L29 23L30 23L30 24L29 24L29 25L30 25L30 27L29 27L29 28L28 28L28 26L27 26L27 28L25 28L25 27L22 27L22 28L24 28L24 29L26 29L26 31L27 31L27 32L29 32L29 37L30 37L30 36L31 36L31 38L28 38L28 39L31 39L31 38L32 38L32 39L33 39L33 38L34 38L34 41L35 41L35 37L33 37L33 36L34 36L34 35L33 35L33 34L32 34L32 31L31 31L31 33L30 33L30 32L29 32L29 30L30 30L30 28L31 28L31 25L33 25L33 26L32 26L32 27L33 27L33 26L34 26L34 28L33 28L33 33L34 33L34 32L35 32L35 31L36 31L36 32L38 32L38 31L36 31L36 30L37 30L37 29L38 29L38 30L39 30L39 29L41 29L41 31L40 31L40 32L41 32L41 31L42 31L42 29L43 29L43 31L44 31L44 28L45 28L45 27L42 27L42 28L41 28L41 27L38 27L38 24L39 24L39 20L40 20L40 22L42 22L42 20L43 20L43 19L42 19L42 20L41 20L41 18L40 18L40 17L39 17L39 16L37 16L37 15L38 15L38 13L37 13L37 15L36 15L36 17L34 17L34 15L35 15L35 13L36 13L36 12L34 12L34 11L33 11L33 12L32 12L32 13L30 13L30 14L31 14L31 15L28 15L28 14L29 14L29 13L28 13L28 12L29 12L29 11L26 11L26 10L24 10L24 9L21 9L21 8L20 8L20 9L19 9L19 8ZM41 8L41 9L42 9L42 11L43 11L43 8ZM44 8L44 9L45 9L45 8ZM10 9L10 10L11 10L11 9ZM20 9L20 10L21 10L21 9ZM47 9L47 10L46 10L46 13L45 13L45 14L46 14L46 13L47 13L47 11L48 11L48 14L49 14L49 11L48 11L48 9ZM36 10L36 11L37 11L37 10ZM44 10L44 12L45 12L45 10ZM4 11L4 12L3 12L3 13L5 13L5 14L7 14L7 13L5 13L5 11ZM22 11L22 12L21 12L21 14L24 14L24 15L26 15L26 16L24 16L24 19L25 19L25 18L28 18L28 17L29 17L29 16L28 16L28 17L27 17L27 15L26 15L26 13L27 13L27 12L26 12L26 11L24 11L24 13L23 13L23 11ZM25 12L25 13L26 13L26 12ZM33 12L33 13L34 13L34 12ZM32 14L32 15L31 15L31 16L30 16L30 17L31 17L31 16L32 16L32 17L33 17L33 15L34 15L34 14ZM19 15L19 16L20 16L20 18L19 18L19 20L23 20L23 19L22 19L22 17L23 17L23 16L22 16L22 17L21 17L21 15ZM11 16L11 17L13 17L13 18L14 18L14 17L13 17L13 16ZM38 17L38 18L39 18L39 17ZM36 18L36 20L37 20L37 21L36 21L36 22L34 22L34 21L33 21L33 22L32 22L32 23L34 23L34 24L33 24L33 25L35 25L35 26L37 26L37 24L38 24L38 22L37 22L37 21L38 21L38 20L39 20L39 19L38 19L38 20L37 20L37 18ZM17 19L17 20L16 20L16 21L17 21L17 22L18 22L18 21L17 21L17 20L18 20L18 19ZM43 21L43 22L44 22L44 21ZM36 22L36 23L37 23L37 22ZM5 23L5 26L8 26L8 23ZM23 23L23 26L26 26L26 23ZM41 23L41 26L44 26L44 23ZM6 24L6 25L7 25L7 24ZM24 24L24 25L25 25L25 24ZM30 24L30 25L31 25L31 24ZM35 24L35 25L36 25L36 24ZM42 24L42 25L43 25L43 24ZM15 25L15 26L16 26L16 25ZM39 25L39 26L40 26L40 25ZM17 27L17 28L19 28L19 27ZM35 27L35 28L34 28L34 31L35 31L35 30L36 30L36 27ZM46 27L46 28L47 28L47 27ZM6 28L6 29L7 29L7 28ZM13 28L13 29L14 29L14 30L13 30L13 31L15 31L15 29L14 29L14 28ZM27 28L27 30L29 30L29 29L28 29L28 28ZM38 28L38 29L39 29L39 28ZM45 29L45 30L46 30L46 29ZM6 30L6 31L5 31L5 32L6 32L6 31L7 31L7 30ZM22 31L22 32L23 32L23 31ZM30 34L30 35L31 35L31 36L33 36L33 35L32 35L32 34ZM6 36L6 37L7 37L7 36ZM38 36L38 37L39 37L39 36ZM22 38L22 39L21 39L21 41L20 41L20 40L19 40L19 41L18 41L18 42L19 42L19 43L20 43L20 44L19 44L19 45L20 45L20 44L22 44L22 39L23 39L23 38ZM44 38L44 39L45 39L45 38ZM24 39L24 40L25 40L25 39ZM26 39L26 40L27 40L27 39ZM9 41L9 43L10 43L10 41ZM23 41L23 44L26 44L26 41ZM41 41L41 44L44 44L44 41ZM24 42L24 43L25 43L25 42ZM32 42L32 43L31 43L31 45L32 45L32 43L33 43L33 42ZM42 42L42 43L43 43L43 42ZM10 44L10 47L11 47L11 48L13 48L13 47L14 47L14 46L13 46L13 47L11 47L11 45L13 45L13 44ZM27 44L27 46L26 46L26 45L23 45L23 46L24 46L24 47L23 47L23 48L24 48L24 47L25 47L25 46L26 46L26 47L27 47L27 46L28 46L28 44ZM34 44L34 45L33 45L33 46L32 46L32 48L33 48L33 49L35 49L35 48L36 48L36 49L37 49L37 48L38 48L38 49L39 49L39 48L38 48L38 46L37 46L37 45L36 45L36 46L34 46L34 45L35 45L35 44ZM48 45L48 46L49 46L49 45ZM33 47L33 48L34 48L34 47ZM40 48L40 49L42 49L42 48ZM44 48L44 49L45 49L45 48ZM0 0L0 7L7 7L7 0ZM1 1L1 6L6 6L6 1ZM2 2L2 5L5 5L5 2ZM42 0L42 7L49 7L49 0ZM43 1L43 6L48 6L48 1ZM44 2L44 5L47 5L47 2ZM0 42L0 49L7 49L7 42ZM1 43L1 48L6 48L6 43ZM2 44L2 47L5 47L5 44Z" fill="#000000"/></g></g></svg>
