<?xml version="1.0" encoding="UTF-8"?>
<svg xmlns="http://www.w3.org/2000/svg" version="1.1" width="200" height="200" viewBox="0 0 200 200"><rect x="0" y="0" width="200" height="200" fill="#ffffff"/><g transform="scale(3.774)"><g transform="translate(2,2)"><path fill-rule="evenodd" d="M8 0L8 2L9 2L9 3L8 3L8 7L9 7L9 6L10 6L10 7L11 7L11 8L9 8L9 10L8 10L8 11L7 11L7 10L6 10L6 9L7 9L7 8L6 8L6 9L5 9L5 10L6 10L6 11L7 11L7 12L6 12L6 13L7 13L7 12L8 12L8 14L6 14L6 15L5 15L5 13L4 13L4 11L3 11L3 14L2 14L2 13L1 13L1 11L2 11L2 10L4 10L4 8L3 8L3 9L0 9L0 13L1 13L1 14L0 14L0 16L1 16L1 17L0 17L0 19L1 19L1 21L0 21L0 25L1 25L1 26L0 26L0 29L1 29L1 30L0 30L0 33L2 33L2 34L0 34L0 37L1 37L1 40L0 40L0 41L3 41L3 40L4 40L4 39L2 39L2 37L3 37L3 36L5 36L5 39L7 39L7 38L6 38L6 37L7 37L7 36L8 36L8 37L9 37L9 39L12 39L12 38L10 38L10 36L11 36L11 35L12 35L12 37L13 37L13 38L14 38L14 40L13 40L13 41L12 41L12 42L13 42L13 43L12 43L12 44L10 44L10 45L8 45L8 46L10 46L10 49L11 49L11 47L12 47L12 45L14 45L14 46L13 46L13 47L15 47L15 48L16 48L16 49L19 49L19 47L21 47L21 46L20 46L20 45L27 45L27 47L26 47L26 46L25 46L25 47L26 47L26 48L25 48L25 49L26 49L26 48L27 48L27 47L29 47L29 48L31 48L31 47L33 47L33 48L32 48L32 49L33 49L33 48L34 48L34 47L35 47L35 48L36 48L36 49L40 49L40 48L41 48L41 49L42 49L42 48L41 48L41 46L42 46L42 47L43 47L43 48L44 48L44 49L46 49L46 46L47 46L47 47L49 47L49 46L48 46L48 45L49 45L49 44L48 44L48 43L49 43L49 36L48 36L48 38L47 38L47 37L46 37L46 35L47 35L47 34L46 34L46 35L44 35L44 33L46 33L46 32L47 32L47 33L48 33L48 35L49 35L49 33L48 33L48 32L47 32L47 31L45 31L45 32L44 32L44 31L43 31L43 30L42 30L42 31L40 31L40 29L41 29L41 28L40 28L40 29L38 29L38 27L42 27L42 29L44 29L44 30L46 30L46 29L47 29L47 30L48 30L48 31L49 31L49 28L48 28L48 29L47 29L47 28L46 28L46 27L49 27L49 25L47 25L47 26L46 26L46 23L47 23L47 22L46 22L46 20L47 20L47 21L48 21L48 24L49 24L49 20L47 20L47 19L45 19L45 18L46 18L46 17L47 17L47 18L48 18L48 19L49 19L49 16L48 16L48 15L49 15L49 8L47 8L47 9L48 9L48 14L47 14L47 16L45 16L45 14L44 14L44 13L46 13L46 8L43 8L43 11L44 11L44 9L45 9L45 12L44 12L44 13L43 13L43 12L42 12L42 13L40 13L40 11L42 11L42 9L41 9L41 10L40 10L40 8L41 8L41 6L40 6L40 7L39 7L39 5L38 5L38 7L39 7L39 8L38 8L38 9L37 9L37 8L35 8L35 6L36 6L36 7L37 7L37 6L36 6L36 5L34 5L34 7L33 7L33 6L32 6L32 5L33 5L33 4L34 4L34 3L35 3L35 4L36 4L36 3L35 3L35 2L36 2L36 1L35 1L35 0L34 0L34 1L35 1L35 2L34 2L34 3L30 3L30 2L31 2L31 1L32 1L32 0L31 0L31 1L29 1L29 2L28 2L28 0L26 0L26 1L25 1L25 2L26 2L26 1L27 1L27 2L28 2L28 3L29 3L29 4L30 4L30 7L29 7L29 6L28 6L28 5L27 5L27 3L24 3L24 2L23 2L23 1L24 1L24 0L23 0L23 1L22 1L22 3L23 3L23 4L21 4L21 5L20 5L20 0L19 0L19 2L18 2L18 1L17 1L17 2L18 2L18 4L16 4L16 2L13 2L13 0ZM14 0L14 1L15 1L15 0ZM37 0L37 1L38 1L38 2L39 2L39 4L40 4L40 3L41 3L41 0L40 0L40 1L38 1L38 0ZM10 1L10 3L9 3L9 5L10 5L10 6L11 6L11 7L12 7L12 8L11 8L11 9L10 9L10 11L8 11L8 12L11 12L11 15L10 15L10 14L9 14L9 15L10 15L10 16L11 16L11 17L8 17L8 18L7 18L7 17L6 17L6 16L7 16L7 15L6 15L6 16L5 16L5 17L4 17L4 18L2 18L2 20L3 20L3 21L1 21L1 22L2 22L2 24L1 24L1 25L2 25L2 24L3 24L3 29L2 29L2 27L1 27L1 29L2 29L2 30L4 30L4 32L5 32L5 33L3 33L3 31L2 31L2 33L3 33L3 34L2 34L2 35L4 35L4 34L7 34L7 35L5 35L5 36L7 36L7 35L8 35L8 34L7 34L7 33L6 33L6 32L7 32L7 31L8 31L8 32L9 32L9 36L10 36L10 35L11 35L11 33L10 33L10 31L11 31L11 32L12 32L12 31L11 31L11 30L10 30L10 28L11 28L11 29L12 29L12 30L13 30L13 31L14 31L14 34L13 34L13 33L12 33L12 35L14 35L14 37L16 37L16 38L17 38L17 39L16 39L16 40L14 40L14 41L15 41L15 42L14 42L14 44L15 44L15 47L16 47L16 44L17 44L17 45L19 45L19 44L20 44L20 43L19 43L19 42L21 42L21 43L22 43L22 42L21 42L21 41L22 41L22 40L24 40L24 39L25 39L25 40L27 40L27 39L28 39L28 40L29 40L29 38L24 38L24 37L23 37L23 38L24 38L24 39L22 39L22 37L21 37L21 36L23 36L23 35L24 35L24 34L25 34L25 33L24 33L24 32L23 32L23 35L21 35L21 34L22 34L22 32L21 32L21 34L20 34L20 31L17 31L17 32L15 32L15 31L16 31L16 30L15 30L15 31L14 31L14 29L18 29L18 30L20 30L20 29L22 29L22 28L26 28L26 29L27 29L27 30L24 30L24 29L23 29L23 30L24 30L24 31L28 31L28 32L26 32L26 36L25 36L25 37L26 37L26 36L27 36L27 34L28 34L28 36L29 36L29 37L30 37L30 38L32 38L32 39L30 39L30 40L32 40L32 39L33 39L33 37L36 37L36 36L35 36L35 35L34 35L34 36L33 36L33 34L31 34L31 33L29 33L29 30L31 30L31 32L33 32L33 33L34 33L34 34L35 34L35 33L38 33L38 34L36 34L36 35L38 35L38 36L39 36L39 37L37 37L37 38L40 38L40 39L38 39L38 40L37 40L37 41L38 41L38 40L39 40L39 41L40 41L40 40L42 40L42 39L41 39L41 37L42 37L42 38L43 38L43 39L44 39L44 40L47 40L47 41L46 41L46 42L45 42L45 43L46 43L46 42L47 42L47 43L48 43L48 42L47 42L47 41L48 41L48 40L47 40L47 38L46 38L46 39L45 39L45 36L44 36L44 35L43 35L43 36L44 36L44 37L42 37L42 36L41 36L41 35L42 35L42 34L41 34L41 33L40 33L40 31L39 31L39 30L38 30L38 31L36 31L36 30L37 30L37 29L36 29L36 27L35 27L35 26L39 26L39 25L40 25L40 24L39 24L39 25L38 25L38 23L39 23L39 19L38 19L38 18L39 18L39 16L38 16L38 15L37 15L37 16L38 16L38 17L37 17L37 21L36 21L36 22L35 22L35 20L36 20L36 15L35 15L35 14L34 14L34 15L33 15L33 16L32 16L32 15L30 15L30 16L31 16L31 17L32 17L32 18L30 18L30 17L29 17L29 19L27 19L27 17L28 17L28 15L27 15L27 17L25 17L25 18L26 18L26 19L24 19L24 18L23 18L23 17L21 17L21 19L18 19L18 17L19 17L19 16L17 16L17 15L23 15L23 16L26 16L26 15L24 15L24 14L25 14L25 13L27 13L27 12L24 12L24 14L23 14L23 12L20 12L20 11L24 11L24 10L25 10L25 11L28 11L28 13L29 13L29 14L32 14L32 13L31 13L31 12L33 12L33 13L36 13L36 14L39 14L39 15L40 15L40 14L39 14L39 12L38 12L38 13L36 13L36 10L37 10L37 11L40 11L40 10L39 10L39 9L38 9L38 10L37 10L37 9L34 9L34 8L33 8L33 7L32 7L32 6L31 6L31 7L30 7L30 9L28 9L28 8L29 8L29 7L28 7L28 6L27 6L27 9L24 9L24 10L22 10L22 9L21 9L21 8L18 8L18 9L17 9L17 8L16 8L16 4L15 4L15 3L14 3L14 6L13 6L13 7L12 7L12 6L11 6L11 3L13 3L13 2L11 2L11 1ZM37 3L37 4L38 4L38 3ZM12 4L12 5L13 5L13 4ZM18 4L18 5L19 5L19 4ZM31 4L31 5L32 5L32 4ZM23 5L23 8L26 8L26 5ZM14 6L14 7L13 7L13 8L12 8L12 9L14 9L14 10L13 10L13 11L14 11L14 10L15 10L15 12L14 12L14 13L13 13L13 14L12 14L12 16L13 16L13 17L11 17L11 18L13 18L13 17L15 17L15 18L17 18L17 17L15 17L15 16L14 16L14 14L15 14L15 15L17 15L17 14L18 14L18 12L19 12L19 14L22 14L22 13L20 13L20 12L19 12L19 11L20 11L20 10L21 10L21 9L19 9L19 10L18 10L18 11L17 11L17 12L16 12L16 10L17 10L17 9L14 9L14 7L15 7L15 6ZM17 6L17 7L18 7L18 6ZM19 6L19 7L20 7L20 6ZM21 6L21 7L22 7L22 6ZM24 6L24 7L25 7L25 6ZM31 7L31 8L32 8L32 9L30 9L30 12L29 12L29 13L30 13L30 12L31 12L31 10L32 10L32 11L34 11L34 12L35 12L35 10L34 10L34 9L33 9L33 8L32 8L32 7ZM32 9L32 10L33 10L33 9ZM28 10L28 11L29 11L29 10ZM11 11L11 12L12 12L12 11ZM15 12L15 14L17 14L17 13L16 13L16 12ZM42 13L42 14L41 14L41 16L40 16L40 18L41 18L41 19L42 19L42 22L43 22L43 21L45 21L45 20L43 20L43 19L44 19L44 18L45 18L45 17L44 17L44 18L43 18L43 16L44 16L44 14L43 14L43 13ZM1 14L1 15L2 15L2 17L3 17L3 15L2 15L2 14ZM34 15L34 20L35 20L35 15ZM41 16L41 17L42 17L42 16ZM47 16L47 17L48 17L48 16ZM4 18L4 19L3 19L3 20L4 20L4 21L3 21L3 24L4 24L4 27L5 27L5 28L4 28L4 29L7 29L7 30L5 30L5 31L7 31L7 30L8 30L8 31L9 31L9 28L10 28L10 27L9 27L9 24L10 24L10 26L11 26L11 25L12 25L12 26L13 26L13 27L14 27L14 28L12 28L12 29L14 29L14 28L15 28L15 27L16 27L16 28L17 28L17 27L16 27L16 26L17 26L17 25L18 25L18 26L19 26L19 25L18 25L18 24L17 24L17 23L18 23L18 22L19 22L19 24L20 24L20 25L21 25L21 26L20 26L20 27L26 27L26 28L27 28L27 23L29 23L29 22L30 22L30 25L29 25L29 26L28 26L28 27L29 27L29 26L30 26L30 27L31 27L31 26L32 26L32 25L33 25L33 27L32 27L32 28L31 28L31 29L32 29L32 30L33 30L33 32L34 32L34 33L35 33L35 32L36 32L36 31L35 31L35 32L34 32L34 28L35 28L35 27L34 27L34 26L35 26L35 24L36 24L36 25L37 25L37 23L35 23L35 22L34 22L34 21L33 21L33 20L32 20L32 19L30 19L30 20L29 20L29 22L28 22L28 20L24 20L24 19L21 19L21 20L23 20L23 22L21 22L21 21L19 21L19 20L17 20L17 19L16 19L16 20L15 20L15 19L13 19L13 20L15 20L15 22L14 22L14 23L15 23L15 24L13 24L13 22L12 22L12 20L11 20L11 19L10 19L10 18L8 18L8 19L9 19L9 21L10 21L10 22L6 22L6 21L7 21L7 20L6 20L6 19L7 19L7 18ZM42 18L42 19L43 19L43 18ZM5 20L5 21L4 21L4 22L5 22L5 21L6 21L6 20ZM16 20L16 21L17 21L17 22L16 22L16 23L17 23L17 22L18 22L18 21L17 21L17 20ZM40 20L40 22L41 22L41 20ZM24 21L24 22L25 22L25 21ZM31 21L31 25L30 25L30 26L31 26L31 25L32 25L32 21ZM37 21L37 22L38 22L38 21ZM11 22L11 24L12 24L12 25L13 25L13 24L12 24L12 22ZM20 22L20 23L21 23L21 25L22 25L22 23L21 23L21 22ZM5 23L5 26L8 26L8 23ZM23 23L23 26L26 26L26 23ZM34 23L34 24L33 24L33 25L34 25L34 24L35 24L35 23ZM41 23L41 26L44 26L44 23ZM6 24L6 25L7 25L7 24ZM16 24L16 25L17 25L17 24ZM24 24L24 25L25 25L25 24ZM42 24L42 25L43 25L43 24ZM14 26L14 27L15 27L15 26ZM45 26L45 27L44 27L44 29L45 29L45 27L46 27L46 26ZM6 27L6 28L7 28L7 27ZM18 28L18 29L19 29L19 28ZM29 28L29 29L28 29L28 30L29 30L29 29L30 29L30 28ZM35 29L35 30L36 30L36 29ZM17 32L17 33L18 33L18 32ZM15 33L15 36L16 36L16 33ZM39 33L39 34L40 34L40 35L41 35L41 34L40 34L40 33ZM17 35L17 36L21 36L21 35ZM29 35L29 36L30 36L30 35ZM1 36L1 37L2 37L2 36ZM32 36L32 37L33 37L33 36ZM40 36L40 37L41 37L41 36ZM17 37L17 38L19 38L19 39L17 39L17 40L16 40L16 42L15 42L15 43L16 43L16 42L17 42L17 43L18 43L18 44L19 44L19 43L18 43L18 42L19 42L19 41L17 41L17 40L19 40L19 39L20 39L20 41L21 41L21 39L20 39L20 38L19 38L19 37ZM34 38L34 42L35 42L35 44L36 44L36 39L35 39L35 38ZM6 40L6 41L8 41L8 42L9 42L9 41L11 41L11 40ZM23 41L23 44L26 44L26 41ZM29 41L29 42L30 42L30 43L28 43L28 42L27 42L27 43L28 43L28 44L27 44L27 45L28 45L28 46L29 46L29 45L34 45L34 46L35 46L35 47L36 47L36 46L37 46L37 47L38 47L38 48L39 48L39 45L40 45L40 46L41 46L41 45L40 45L40 44L38 44L38 43L37 43L37 44L38 44L38 46L37 46L37 45L36 45L36 46L35 46L35 45L34 45L34 44L30 44L30 43L32 43L32 42L31 42L31 41ZM41 41L41 44L44 44L44 41ZM10 42L10 43L11 43L11 42ZM24 42L24 43L25 43L25 42ZM39 42L39 43L40 43L40 42ZM42 42L42 43L43 43L43 42ZM46 44L46 45L47 45L47 44ZM42 45L42 46L44 46L44 45ZM22 46L22 48L21 48L21 49L24 49L24 46ZM30 46L30 47L31 47L31 46ZM17 47L17 48L18 48L18 47ZM13 48L13 49L14 49L14 48ZM47 48L47 49L49 49L49 48ZM0 0L0 7L7 7L7 0ZM1 1L1 6L6 6L6 1ZM2 2L2 5L5 5L5 2ZM42 0L42 7L49 7L49 0ZM43 1L43 6L48 6L48 1ZM44 2L44 5L47 5L47 2ZM0 42L0 49L7 49L7 42ZM1 43L1 48L6 48L6 43ZM2 44L2 47L5 47L5 44Z" fill="#000000"/></g></g></svg>
