<?xml version="1.0" encoding="UTF-8"?>
<svg xmlns="http://www.w3.org/2000/svg" version="1.1" width="200" height="200" viewBox="0 0 200 200"><rect x="0" y="0" width="200" height="200" fill="#ffffff"/><g transform="scale(3.774)"><g transform="translate(2,2)"><path fill-rule="evenodd" d="M10 0L10 2L11 2L11 3L9 3L9 2L8 2L8 4L9 4L9 6L8 6L8 7L9 7L9 6L10 6L10 8L9 8L9 9L8 9L8 8L6 8L6 9L7 9L7 10L5 10L5 8L3 8L3 9L4 9L4 10L0 10L0 15L2 15L2 16L3 16L3 13L2 13L2 14L1 14L1 11L4 11L4 12L6 12L6 13L4 13L4 16L5 16L5 19L7 19L7 20L3 20L3 19L4 19L4 18L3 18L3 19L1 19L1 21L0 21L0 23L1 23L1 21L2 21L2 22L3 22L3 23L2 23L2 24L0 24L0 27L1 27L1 28L0 28L0 33L1 33L1 36L0 36L0 38L1 38L1 40L0 40L0 41L3 41L3 40L4 40L4 39L2 39L2 38L5 38L5 39L7 39L7 40L6 40L6 41L7 41L7 40L8 40L8 43L9 43L9 44L8 44L8 46L9 46L9 49L12 49L12 48L15 48L15 49L17 49L17 48L18 48L18 49L20 49L20 48L22 48L22 49L23 49L23 48L22 48L22 47L23 47L23 46L25 46L25 47L24 47L24 48L25 48L25 49L26 49L26 45L28 45L28 47L27 47L27 48L28 48L28 49L29 49L29 45L28 45L28 44L30 44L30 43L29 43L29 42L31 42L31 43L33 43L33 42L31 42L31 40L32 40L32 41L33 41L33 40L32 40L32 39L31 39L31 37L32 37L32 38L33 38L33 37L36 37L36 38L35 38L35 39L34 39L34 40L35 40L35 41L34 41L34 43L35 43L35 44L33 44L33 45L34 45L34 48L33 48L33 46L32 46L32 47L31 47L31 45L32 45L32 44L31 44L31 45L30 45L30 47L31 47L31 48L30 48L30 49L34 49L34 48L35 48L35 49L39 49L39 47L38 47L38 46L39 46L39 45L40 45L40 47L41 47L41 48L43 48L43 49L45 49L45 48L43 48L43 46L44 46L44 47L45 47L45 46L46 46L46 48L48 48L48 49L49 49L49 42L47 42L47 41L49 41L49 40L47 40L47 39L44 39L44 38L45 38L45 37L43 37L43 36L44 36L44 35L43 35L43 34L41 34L41 32L40 32L40 31L37 31L37 28L36 28L36 27L37 27L37 26L38 26L38 28L39 28L39 29L40 29L40 30L41 30L41 31L44 31L44 34L45 34L45 35L46 35L46 36L47 36L47 38L48 38L48 39L49 39L49 38L48 38L48 37L49 37L49 34L48 34L48 33L45 33L45 31L46 31L46 30L47 30L47 32L49 32L49 30L47 30L47 25L48 25L48 23L49 23L49 22L48 22L48 21L49 21L49 18L47 18L47 17L49 17L49 14L48 14L48 13L49 13L49 12L48 12L48 11L49 11L49 10L48 10L48 9L47 9L47 8L45 8L45 9L44 9L44 10L45 10L45 9L46 9L46 10L47 10L47 11L46 11L46 12L47 12L47 13L45 13L45 11L40 11L40 10L41 10L41 9L40 9L40 10L39 10L39 5L38 5L38 4L37 4L37 3L38 3L38 2L39 2L39 4L40 4L40 3L41 3L41 0L40 0L40 1L36 1L36 0L33 0L33 3L32 3L32 0L31 0L31 4L29 4L29 6L28 6L28 5L27 5L27 4L28 4L28 3L29 3L29 2L30 2L30 1L29 1L29 0L27 0L27 1L26 1L26 2L25 2L25 3L26 3L26 2L27 2L27 4L23 4L23 2L24 2L24 1L25 1L25 0L24 0L24 1L22 1L22 2L21 2L21 1L20 1L20 2L21 2L21 3L20 3L20 5L21 5L21 4L22 4L22 7L21 7L21 6L20 6L20 7L19 7L19 5L17 5L17 4L18 4L18 3L19 3L19 1L18 1L18 0L17 0L17 1L16 1L16 0L12 0L12 1L13 1L13 2L14 2L14 4L15 4L15 5L13 5L13 6L12 6L12 4L11 4L11 3L12 3L12 2L11 2L11 0ZM17 1L17 2L15 2L15 4L17 4L17 2L18 2L18 1ZM28 1L28 2L29 2L29 1ZM35 1L35 2L36 2L36 3L35 3L35 4L34 4L34 3L33 3L33 4L34 4L34 6L33 6L33 8L35 8L35 9L36 9L36 8L35 8L35 7L36 7L36 5L37 5L37 4L36 4L36 3L37 3L37 2L36 2L36 1ZM10 4L10 5L11 5L11 4ZM31 4L31 5L30 5L30 6L29 6L29 7L30 7L30 6L31 6L31 8L30 8L30 10L32 10L32 9L31 9L31 8L32 8L32 6L31 6L31 5L32 5L32 4ZM35 4L35 5L36 5L36 4ZM15 5L15 7L16 7L16 6L17 6L17 7L18 7L18 6L17 6L17 5ZM23 5L23 8L26 8L26 5ZM11 6L11 7L12 7L12 6ZM13 6L13 7L14 7L14 6ZM24 6L24 7L25 7L25 6ZM27 6L27 7L28 7L28 6ZM34 6L34 7L35 7L35 6ZM37 6L37 7L38 7L38 6ZM40 6L40 7L41 7L41 6ZM20 7L20 9L19 9L19 8L18 8L18 10L17 10L17 8L16 8L16 9L15 9L15 8L13 8L13 9L15 9L15 14L13 14L13 12L14 12L14 10L12 10L12 11L11 11L11 9L9 9L9 11L11 11L11 12L10 12L10 13L8 13L8 14L7 14L7 13L6 13L6 14L7 14L7 15L5 15L5 16L8 16L8 14L11 14L11 15L13 15L13 16L11 16L11 17L12 17L12 18L11 18L11 19L12 19L12 18L13 18L13 17L14 17L14 15L15 15L15 14L17 14L17 13L16 13L16 11L20 11L20 12L22 12L22 13L23 13L23 14L24 14L24 13L26 13L26 12L25 12L25 11L23 11L23 10L24 10L24 9L22 9L22 8L21 8L21 7ZM21 9L21 11L22 11L22 9ZM33 9L33 11L34 11L34 13L32 13L32 12L31 12L31 11L30 11L30 12L28 12L28 11L27 11L27 10L26 10L26 11L27 11L27 15L26 15L26 16L24 16L24 15L23 15L23 16L22 16L22 17L23 17L23 16L24 16L24 18L25 18L25 19L27 19L27 18L25 18L25 17L26 17L26 16L27 16L27 15L28 15L28 16L29 16L29 17L30 17L30 20L27 20L27 21L26 21L26 20L25 20L25 22L27 22L27 25L28 25L28 24L29 24L29 23L28 23L28 21L32 21L32 22L33 22L33 23L32 23L32 24L34 24L34 21L35 21L35 22L36 22L36 23L35 23L35 24L37 24L37 25L38 25L38 24L40 24L40 21L41 21L41 22L42 22L42 21L43 21L43 22L45 22L45 21L48 21L48 20L47 20L47 18L46 18L46 16L45 16L45 15L44 15L44 16L41 16L41 15L38 15L38 14L37 14L37 13L35 13L35 11L34 11L34 9ZM37 9L37 10L38 10L38 12L39 12L39 14L42 14L42 15L43 15L43 14L44 14L44 13L43 13L43 14L42 14L42 13L41 13L41 12L40 12L40 11L39 11L39 10L38 10L38 9ZM42 9L42 10L43 10L43 9ZM4 10L4 11L5 11L5 10ZM6 11L6 12L8 12L8 11ZM12 11L12 12L13 12L13 11ZM36 11L36 12L37 12L37 11ZM18 12L18 13L19 13L19 14L18 14L18 15L16 15L16 16L15 16L15 17L16 17L16 18L14 18L14 20L11 20L11 21L9 21L9 20L10 20L10 19L9 19L9 17L10 17L10 15L9 15L9 17L6 17L6 18L8 18L8 19L9 19L9 20L8 20L8 21L9 21L9 24L11 24L11 25L10 25L10 27L5 27L5 28L3 28L3 27L2 27L2 26L3 26L3 25L1 25L1 27L2 27L2 29L1 29L1 32L2 32L2 35L3 35L3 36L4 36L4 37L5 37L5 38L7 38L7 37L6 37L6 36L8 36L8 35L10 35L10 36L9 36L9 37L11 37L11 41L12 41L12 40L13 40L13 42L16 42L16 43L17 43L17 44L18 44L18 45L16 45L16 46L17 46L17 47L15 47L15 48L17 48L17 47L18 47L18 48L19 48L19 47L20 47L20 43L18 43L18 42L22 42L22 41L21 41L21 40L22 40L22 39L21 39L21 40L19 40L19 38L18 38L18 39L16 39L16 38L17 38L17 36L20 36L20 37L22 37L22 38L23 38L23 39L24 39L24 40L25 40L25 38L26 38L26 39L27 39L27 40L28 40L28 41L27 41L27 42L28 42L28 41L30 41L30 37L31 37L31 36L30 36L30 35L31 35L31 34L32 34L32 35L33 35L33 36L34 36L34 33L32 33L32 32L30 32L30 30L29 30L29 29L31 29L31 30L32 30L32 31L33 31L33 32L34 32L34 31L35 31L35 32L36 32L36 33L35 33L35 36L37 36L37 37L39 37L39 34L40 34L40 33L39 33L39 32L38 32L38 33L37 33L37 32L36 32L36 31L35 31L35 30L36 30L36 29L35 29L35 26L36 26L36 25L33 25L33 26L32 26L32 25L30 25L30 26L32 26L32 28L29 28L29 27L28 27L28 26L27 26L27 27L26 27L26 28L22 28L22 25L21 25L21 28L20 28L20 29L21 29L21 28L22 28L22 29L23 29L23 30L24 30L24 31L23 31L23 32L21 32L21 31L20 31L20 30L19 30L19 31L17 31L17 30L18 30L18 29L17 29L17 25L18 25L18 27L19 27L19 24L21 24L21 23L22 23L22 22L21 22L21 20L22 20L22 21L23 21L23 22L24 22L24 19L23 19L23 18L22 18L22 19L21 19L21 17L20 17L20 19L19 19L19 16L20 16L20 15L22 15L22 14L21 14L21 13L19 13L19 12ZM29 13L29 14L28 14L28 15L29 15L29 14L30 14L30 17L31 17L31 16L33 16L33 19L32 19L32 21L34 21L34 19L35 19L35 20L36 20L36 22L37 22L37 24L38 24L38 22L39 22L39 21L38 21L38 20L39 20L39 17L37 17L37 16L38 16L38 15L37 15L37 14L36 14L36 15L35 15L35 16L34 16L34 15L33 15L33 14L32 14L32 13ZM31 14L31 15L32 15L32 14ZM46 14L46 15L47 15L47 16L48 16L48 14ZM36 15L36 16L37 16L37 15ZM17 16L17 18L16 18L16 19L15 19L15 20L14 20L14 21L12 21L12 22L10 22L10 23L11 23L11 24L12 24L12 23L13 23L13 24L14 24L14 25L15 25L15 20L16 20L16 19L17 19L17 18L18 18L18 16ZM44 16L44 17L45 17L45 16ZM34 17L34 18L35 18L35 17ZM36 17L36 18L37 18L37 17ZM40 17L40 19L42 19L42 20L43 20L43 21L44 21L44 20L43 20L43 17ZM44 18L44 19L46 19L46 18ZM20 19L20 20L19 20L19 21L18 21L18 22L19 22L19 21L20 21L20 20L21 20L21 19ZM36 19L36 20L37 20L37 19ZM2 20L2 21L3 21L3 20ZM5 21L5 22L7 22L7 21ZM37 21L37 22L38 22L38 21ZM30 22L30 23L31 23L31 22ZM46 22L46 23L45 23L45 26L46 26L46 25L47 25L47 24L46 24L46 23L47 23L47 22ZM5 23L5 26L8 26L8 23ZM17 23L17 24L19 24L19 23ZM23 23L23 26L26 26L26 23ZM41 23L41 26L44 26L44 23ZM6 24L6 25L7 25L7 24ZM24 24L24 25L25 25L25 24ZM42 24L42 25L43 25L43 24ZM11 25L11 27L10 27L10 28L9 28L9 30L6 30L6 29L7 29L7 28L6 28L6 29L5 29L5 30L6 30L6 31L8 31L8 33L7 33L7 32L4 32L4 30L3 30L3 29L2 29L2 30L3 30L3 32L4 32L4 34L3 34L3 35L5 35L5 36L6 36L6 35L7 35L7 34L10 34L10 35L11 35L11 37L12 37L12 35L11 35L11 34L10 34L10 33L9 33L9 32L10 32L10 31L11 31L11 32L12 32L12 34L13 34L13 40L14 40L14 39L15 39L15 38L14 38L14 37L16 37L16 36L17 36L17 35L16 35L16 36L15 36L15 33L16 33L16 34L17 34L17 33L16 33L16 32L17 32L17 31L16 31L16 29L15 29L15 31L16 31L16 32L15 32L15 33L14 33L14 34L13 34L13 31L12 31L12 30L14 30L14 29L11 29L11 28L14 28L14 27L12 27L12 25ZM39 25L39 27L40 27L40 25ZM48 26L48 29L49 29L49 26ZM15 27L15 28L16 28L16 27ZM42 27L42 28L43 28L43 29L42 29L42 30L43 30L43 29L44 29L44 31L45 31L45 30L46 30L46 27L45 27L45 28L44 28L44 27ZM26 28L26 29L25 29L25 30L26 30L26 31L25 31L25 32L24 32L24 33L22 33L22 34L21 34L21 36L22 36L22 37L23 37L23 38L24 38L24 37L27 37L27 36L25 36L25 35L24 35L24 33L27 33L27 34L31 34L31 33L30 33L30 32L29 32L29 30L28 30L28 32L26 32L26 31L27 31L27 29L29 29L29 28ZM32 28L32 29L33 29L33 28ZM10 29L10 30L9 30L9 31L10 31L10 30L11 30L11 29ZM34 29L34 30L35 30L35 29ZM18 32L18 34L19 34L19 35L20 35L20 33L21 33L21 32ZM28 32L28 33L29 33L29 32ZM42 32L42 33L43 33L43 32ZM6 33L6 34L5 34L5 35L6 35L6 34L7 34L7 33ZM38 33L38 34L37 34L37 36L38 36L38 34L39 34L39 33ZM22 34L22 35L23 35L23 34ZM28 35L28 37L30 37L30 36L29 36L29 35ZM41 35L41 36L43 36L43 35ZM23 36L23 37L24 37L24 36ZM1 37L1 38L2 38L2 37ZM41 37L41 38L39 38L39 39L42 39L42 40L44 40L44 39L42 39L42 37ZM8 38L8 39L10 39L10 38ZM27 38L27 39L28 39L28 38ZM37 38L37 39L36 39L36 40L38 40L38 38ZM9 40L9 41L10 41L10 40ZM15 40L15 41L16 41L16 42L17 42L17 41L18 41L18 40L17 40L17 41L16 41L16 40ZM45 40L45 42L46 42L46 40ZM23 41L23 44L26 44L26 41ZM36 41L36 42L37 42L37 43L36 43L36 44L35 44L35 46L36 46L36 44L37 44L37 46L38 46L38 45L39 45L39 44L40 44L40 43L38 43L38 42L40 42L40 41ZM41 41L41 44L44 44L44 41ZM9 42L9 43L10 43L10 45L11 45L11 47L10 47L10 48L11 48L11 47L14 47L14 46L15 46L15 43L14 43L14 44L13 44L13 43L12 43L12 42L11 42L11 43L10 43L10 42ZM24 42L24 43L25 43L25 42ZM42 42L42 43L43 43L43 42ZM11 43L11 44L12 44L12 46L14 46L14 45L13 45L13 44L12 44L12 43ZM21 43L21 44L22 44L22 43ZM27 43L27 44L28 44L28 43ZM37 43L37 44L38 44L38 43ZM45 43L45 45L44 45L44 46L45 46L45 45L47 45L47 47L48 47L48 43ZM18 45L18 47L19 47L19 45ZM21 45L21 46L23 46L23 45ZM41 45L41 46L42 46L42 45ZM35 47L35 48L38 48L38 47ZM0 0L0 7L7 7L7 0ZM1 1L1 6L6 6L6 1ZM2 2L2 5L5 5L5 2ZM42 0L42 7L49 7L49 0ZM43 1L43 6L48 6L48 1ZM44 2L44 5L47 5L47 2ZM0 42L0 49L7 49L7 42ZM1 43L1 48L6 48L6 43ZM2 44L2 47L5 47L5 44Z" fill="#000000"/></g></g></svg>
