<?xml version="1.0" encoding="UTF-8"?>
<svg xmlns="http://www.w3.org/2000/svg" version="1.1" width="200" height="200" viewBox="0 0 200 200"><rect x="0" y="0" width="200" height="200" fill="#ffffff"/><g transform="scale(3.774)"><g transform="translate(2,2)"><path fill-rule="evenodd" d="M10 0L10 2L11 2L11 3L9 3L9 2L8 2L8 4L9 4L9 5L10 5L10 4L11 4L11 5L13 5L13 6L12 6L12 8L11 8L11 9L10 9L10 7L11 7L11 6L10 6L10 7L9 7L9 6L8 6L8 7L9 7L9 9L8 9L8 8L6 8L6 9L7 9L7 10L5 10L5 8L3 8L3 9L1 9L1 10L5 10L5 12L6 12L6 13L4 13L4 17L5 17L5 18L3 18L3 19L2 19L2 18L0 18L0 19L2 19L2 21L1 21L1 20L0 20L0 21L1 21L1 22L0 22L0 23L1 23L1 22L2 22L2 21L3 21L3 23L2 23L2 24L0 24L0 27L1 27L1 28L0 28L0 33L1 33L1 34L0 34L0 35L1 35L1 36L0 36L0 37L1 37L1 40L0 40L0 41L3 41L3 40L4 40L4 39L2 39L2 38L5 38L5 39L7 39L7 40L6 40L6 41L7 41L7 40L8 40L8 43L9 43L9 44L8 44L8 46L9 46L9 49L12 49L12 48L15 48L15 49L17 49L17 48L18 48L18 49L20 49L20 48L22 48L22 49L23 49L23 48L22 48L22 47L23 47L23 46L25 46L25 47L24 47L24 48L25 48L25 47L26 47L26 49L27 49L27 48L29 48L29 45L28 45L28 44L30 44L30 43L28 43L28 44L27 44L27 40L29 40L29 39L28 39L28 38L27 38L27 39L26 39L26 38L25 38L25 40L24 40L24 39L23 39L23 38L24 38L24 37L27 37L27 36L25 36L25 35L27 35L27 34L29 34L29 33L28 33L28 32L30 32L30 33L31 33L31 32L32 32L32 33L34 33L34 35L32 35L32 34L30 34L30 36L29 36L29 35L28 35L28 37L30 37L30 41L28 41L28 42L31 42L31 43L33 43L33 42L31 42L31 40L32 40L32 41L33 41L33 40L32 40L32 39L31 39L31 38L32 38L32 37L33 37L33 36L34 36L34 37L35 37L35 38L36 38L36 39L34 39L34 40L35 40L35 41L34 41L34 43L35 43L35 44L33 44L33 45L34 45L34 48L33 48L33 46L32 46L32 47L31 47L31 49L34 49L34 48L35 48L35 49L37 49L37 48L35 48L35 47L38 47L38 46L39 46L39 45L40 45L40 47L41 47L41 48L43 48L43 49L45 49L45 48L43 48L43 46L44 46L44 47L46 47L46 48L48 48L48 49L49 49L49 42L47 42L47 41L49 41L49 40L47 40L47 39L44 39L44 38L45 38L45 37L43 37L43 36L44 36L44 35L43 35L43 34L41 34L41 32L40 32L40 31L37 31L37 28L36 28L36 27L37 27L37 26L38 26L38 28L39 28L39 29L40 29L40 30L41 30L41 31L44 31L44 34L45 34L45 35L46 35L46 36L47 36L47 38L48 38L48 39L49 39L49 38L48 38L48 37L49 37L49 34L48 34L48 33L45 33L45 31L46 31L46 30L47 30L47 32L49 32L49 30L47 30L47 29L49 29L49 28L47 28L47 25L48 25L48 23L49 23L49 22L48 22L48 21L49 21L49 18L47 18L47 17L49 17L49 14L48 14L48 13L49 13L49 12L48 12L48 11L49 11L49 10L48 10L48 9L47 9L47 8L45 8L45 9L44 9L44 10L45 10L45 9L46 9L46 10L47 10L47 11L46 11L46 12L47 12L47 13L45 13L45 11L39 11L39 12L38 12L38 10L39 10L39 5L38 5L38 4L37 4L37 3L38 3L38 2L39 2L39 4L40 4L40 3L41 3L41 0L40 0L40 1L36 1L36 0L31 0L31 1L30 1L30 0L29 0L29 1L28 1L28 0L26 0L26 2L25 2L25 3L26 3L26 2L27 2L27 3L28 3L28 4L22 4L22 5L21 5L21 6L20 6L20 5L18 5L18 7L19 7L19 9L18 9L18 11L16 11L16 12L13 12L13 11L14 11L14 10L15 10L15 9L16 9L16 8L17 8L17 5L16 5L16 4L18 4L18 3L19 3L19 1L18 1L18 0L17 0L17 1L16 1L16 0L12 0L12 1L13 1L13 2L14 2L14 4L15 4L15 5L13 5L13 3L12 3L12 2L11 2L11 0ZM21 0L21 1L20 1L20 2L21 2L21 1L22 1L22 2L24 2L24 1L25 1L25 0ZM17 1L17 2L15 2L15 3L17 3L17 2L18 2L18 1ZM31 1L31 2L29 2L29 4L31 4L31 5L30 5L30 6L29 6L29 5L28 5L28 6L27 6L27 7L28 7L28 6L29 6L29 8L32 8L32 6L33 6L33 8L35 8L35 9L36 9L36 8L35 8L35 7L36 7L36 5L37 5L37 4L36 4L36 3L37 3L37 2L36 2L36 1L35 1L35 2L36 2L36 3L35 3L35 4L34 4L34 3L32 3L32 1ZM20 3L20 4L21 4L21 3ZM31 3L31 4L32 4L32 5L33 5L33 6L34 6L34 7L35 7L35 6L34 6L34 4L32 4L32 3ZM35 4L35 5L36 5L36 4ZM23 5L23 8L26 8L26 5ZM13 6L13 7L14 7L14 8L13 8L13 10L12 10L12 11L11 11L11 10L9 10L9 11L11 11L11 13L8 13L8 14L7 14L7 13L6 13L6 14L5 14L5 15L6 15L6 16L7 16L7 17L6 17L6 18L7 18L7 17L8 17L8 19L9 19L9 20L8 20L8 21L9 21L9 20L10 20L10 21L11 21L11 22L12 22L12 21L13 21L13 22L14 22L14 21L15 21L15 25L14 25L14 24L13 24L13 23L12 23L12 24L11 24L11 23L10 23L10 22L9 22L9 24L11 24L11 25L10 25L10 27L5 27L5 28L10 28L10 27L11 27L11 25L12 25L12 27L14 27L14 28L12 28L12 29L14 29L14 31L16 31L16 33L15 33L15 32L13 32L13 34L12 34L12 32L11 32L11 29L10 29L10 30L9 30L9 29L8 29L8 30L7 30L7 29L4 29L4 28L3 28L3 27L2 27L2 26L3 26L3 25L1 25L1 27L2 27L2 28L3 28L3 29L4 29L4 32L7 32L7 31L8 31L8 33L6 33L6 34L5 34L5 35L4 35L4 37L5 37L5 38L7 38L7 37L6 37L6 36L7 36L7 35L9 35L9 36L10 36L10 37L9 37L9 38L8 38L8 39L10 39L10 37L12 37L12 36L13 36L13 38L16 38L16 39L17 39L17 40L15 40L15 39L14 39L14 40L13 40L13 39L12 39L12 40L13 40L13 41L11 41L11 42L10 42L10 44L11 44L11 45L10 45L10 46L11 46L11 47L10 47L10 48L11 48L11 47L14 47L14 46L12 46L12 44L13 44L13 45L14 45L14 44L15 44L15 43L14 43L14 44L13 44L13 42L15 42L15 41L17 41L17 42L16 42L16 43L17 43L17 44L19 44L19 47L18 47L18 46L17 46L17 45L16 45L16 46L17 46L17 47L15 47L15 48L17 48L17 47L18 47L18 48L19 48L19 47L20 47L20 44L22 44L22 40L20 40L20 41L19 41L19 37L20 37L20 39L21 39L21 37L22 37L22 38L23 38L23 37L24 37L24 36L23 36L23 35L24 35L24 33L22 33L22 32L23 32L23 29L21 29L21 28L22 28L22 25L21 25L21 28L19 28L19 29L20 29L20 31L19 31L19 30L18 30L18 29L16 29L16 28L17 28L17 25L18 25L18 27L19 27L19 24L21 24L21 23L22 23L22 22L21 22L21 20L22 20L22 21L23 21L23 22L24 22L24 19L28 19L28 18L29 18L29 17L30 17L30 20L27 20L27 21L26 21L26 20L25 20L25 22L27 22L27 23L28 23L28 24L27 24L27 25L28 25L28 24L29 24L29 23L31 23L31 22L30 22L30 20L31 20L31 21L32 21L32 22L33 22L33 23L32 23L32 24L34 24L34 21L35 21L35 22L36 22L36 23L35 23L35 24L37 24L37 22L38 22L38 25L39 25L39 27L40 27L40 25L39 25L39 24L40 24L40 21L41 21L41 22L42 22L42 21L43 21L43 22L45 22L45 21L48 21L48 20L47 20L47 18L46 18L46 16L45 16L45 15L44 15L44 16L41 16L41 15L38 15L38 14L37 14L37 13L35 13L35 11L34 11L34 9L33 9L33 11L34 11L34 13L32 13L32 12L31 12L31 11L30 11L30 10L32 10L32 9L30 9L30 10L29 10L29 11L30 11L30 12L28 12L28 11L27 11L27 10L26 10L26 11L27 11L27 12L26 12L26 13L25 13L25 11L23 11L23 10L24 10L24 9L22 9L22 11L21 11L21 8L22 8L22 6L21 6L21 7L20 7L20 6L19 6L19 7L20 7L20 9L19 9L19 11L18 11L18 12L17 12L17 13L18 13L18 15L16 15L16 14L15 14L15 13L14 13L14 14L13 14L13 13L12 13L12 11L13 11L13 10L14 10L14 8L16 8L16 6L15 6L15 7L14 7L14 6ZM24 6L24 7L25 7L25 6ZM30 6L30 7L31 7L31 6ZM37 6L37 7L38 7L38 6ZM40 6L40 7L41 7L41 6ZM37 9L37 10L38 10L38 9ZM40 9L40 10L41 10L41 9ZM42 9L42 10L43 10L43 9ZM2 11L2 12L3 12L3 11ZM6 11L6 12L8 12L8 11ZM19 11L19 13L20 13L20 11ZM36 11L36 12L37 12L37 11ZM0 12L0 15L2 15L2 16L3 16L3 13L2 13L2 14L1 14L1 12ZM21 12L21 13L22 13L22 12ZM39 12L39 14L42 14L42 15L43 15L43 14L44 14L44 13L43 13L43 14L42 14L42 13L41 13L41 12ZM11 13L11 14L8 14L8 17L9 17L9 19L10 19L10 20L11 20L11 19L12 19L12 18L11 18L11 17L13 17L13 21L14 21L14 19L15 19L15 16L16 16L16 17L17 17L17 18L18 18L18 16L16 16L16 15L14 15L14 17L13 17L13 16L11 16L11 15L12 15L12 13ZM24 13L24 14L20 14L20 15L19 15L19 16L20 16L20 15L21 15L21 19L20 19L20 17L19 17L19 19L16 19L16 20L18 20L18 21L20 21L20 20L21 20L21 19L22 19L22 18L23 18L23 19L24 19L24 18L23 18L23 17L22 17L22 16L23 16L23 15L24 15L24 17L25 17L25 18L28 18L28 17L29 17L29 14L30 14L30 17L31 17L31 18L32 18L32 17L31 17L31 16L33 16L33 19L32 19L32 21L34 21L34 19L35 19L35 20L36 20L36 22L37 22L37 21L38 21L38 22L39 22L39 21L38 21L38 20L39 20L39 17L37 17L37 16L38 16L38 15L37 15L37 14L35 14L35 16L34 16L34 15L33 15L33 14L32 14L32 13L29 13L29 14L28 14L28 15L27 15L27 13L26 13L26 15L25 15L25 13ZM6 14L6 15L7 15L7 14ZM31 14L31 15L32 15L32 14ZM46 14L46 15L47 15L47 16L48 16L48 14ZM9 15L9 17L10 17L10 15ZM26 15L26 16L25 16L25 17L26 17L26 16L27 16L27 15ZM36 15L36 16L37 16L37 15ZM44 16L44 17L40 17L40 19L42 19L42 20L43 20L43 21L44 21L44 20L43 20L43 19L46 19L46 18L44 18L44 17L45 17L45 16ZM34 17L34 18L35 18L35 17ZM36 17L36 18L37 18L37 17ZM10 18L10 19L11 19L11 18ZM3 19L3 20L7 20L7 19ZM19 19L19 20L20 20L20 19ZM36 19L36 20L37 20L37 19ZM5 21L5 22L7 22L7 21ZM28 21L28 23L29 23L29 21ZM46 22L46 23L45 23L45 26L46 26L46 25L47 25L47 24L46 24L46 23L47 23L47 22ZM3 23L3 24L4 24L4 23ZM5 23L5 26L8 26L8 23ZM17 23L17 24L19 24L19 23ZM23 23L23 26L26 26L26 23ZM41 23L41 26L44 26L44 23ZM6 24L6 25L7 25L7 24ZM24 24L24 25L25 25L25 24ZM42 24L42 25L43 25L43 24ZM30 25L30 26L27 26L27 27L26 27L26 28L25 28L25 30L26 30L26 31L25 31L25 32L26 32L26 33L27 33L27 32L28 32L28 31L27 31L27 30L26 30L26 28L27 28L27 27L28 27L28 29L32 29L32 28L33 28L33 32L34 32L34 31L35 31L35 32L36 32L36 33L35 33L35 36L37 36L37 34L38 34L38 37L39 37L39 34L40 34L40 33L39 33L39 32L38 32L38 33L37 33L37 32L36 32L36 31L35 31L35 30L36 30L36 29L35 29L35 27L36 27L36 26L37 26L37 25L33 25L33 26L32 26L32 25ZM31 26L31 27L29 27L29 28L32 28L32 26ZM48 26L48 27L49 27L49 26ZM15 27L15 28L16 28L16 27ZM42 27L42 28L41 28L41 29L42 29L42 30L43 30L43 29L44 29L44 31L45 31L45 30L46 30L46 27L45 27L45 28L44 28L44 27ZM42 28L42 29L43 29L43 28ZM1 29L1 30L2 30L2 29ZM34 29L34 30L35 30L35 29ZM6 30L6 31L7 31L7 30ZM12 30L12 31L13 31L13 30ZM17 30L17 33L16 33L16 34L17 34L17 35L16 35L16 36L15 36L15 33L14 33L14 34L13 34L13 35L14 35L14 36L15 36L15 37L16 37L16 36L17 36L17 39L18 39L18 37L19 37L19 35L20 35L20 33L21 33L21 34L22 34L22 35L21 35L21 36L20 36L20 37L21 37L21 36L22 36L22 37L23 37L23 36L22 36L22 35L23 35L23 34L22 34L22 33L21 33L21 32L22 32L22 30L21 30L21 31L20 31L20 32L18 32L18 30ZM29 30L29 31L30 31L30 32L31 32L31 31L30 31L30 30ZM1 32L1 33L2 33L2 32ZM9 32L9 35L10 35L10 36L12 36L12 35L11 35L11 34L10 34L10 33L11 33L11 32ZM42 32L42 33L43 33L43 32ZM3 33L3 34L2 34L2 36L1 36L1 37L2 37L2 36L3 36L3 34L4 34L4 33ZM17 33L17 34L18 34L18 35L19 35L19 33ZM38 33L38 34L39 34L39 33ZM6 34L6 35L5 35L5 36L6 36L6 35L7 35L7 34ZM41 35L41 36L43 36L43 35ZM30 36L30 37L31 37L31 36ZM41 37L41 38L39 38L39 39L42 39L42 40L44 40L44 39L42 39L42 37ZM37 38L37 39L36 39L36 40L38 40L38 38ZM9 40L9 41L10 41L10 40ZM17 40L17 41L18 41L18 40ZM45 40L45 42L46 42L46 40ZM20 41L20 42L21 42L21 41ZM23 41L23 44L26 44L26 41ZM36 41L36 42L37 42L37 43L36 43L36 44L35 44L35 46L36 46L36 44L37 44L37 46L38 46L38 45L39 45L39 44L40 44L40 43L38 43L38 42L40 42L40 41ZM41 41L41 44L44 44L44 41ZM11 42L11 44L12 44L12 42ZM17 42L17 43L18 43L18 42ZM24 42L24 43L25 43L25 42ZM42 42L42 43L43 43L43 42ZM19 43L19 44L20 44L20 43ZM37 43L37 44L38 44L38 43ZM45 43L45 45L44 45L44 46L45 46L45 45L47 45L47 47L48 47L48 43ZM31 44L31 45L32 45L32 44ZM22 45L22 46L23 46L23 45ZM25 45L25 46L26 46L26 47L28 47L28 45ZM41 45L41 46L42 46L42 45ZM0 0L0 7L7 7L7 0ZM1 1L1 6L6 6L6 1ZM2 2L2 5L5 5L5 2ZM42 0L42 7L49 7L49 0ZM43 1L43 6L48 6L48 1ZM44 2L44 5L47 5L47 2ZM0 42L0 49L7 49L7 42ZM1 43L1 48L6 48L6 43ZM2 44L2 47L5 47L5 44Z" fill="#000000"/></g></g></svg>
