<?xml version="1.0" encoding="UTF-8"?>
<svg xmlns="http://www.w3.org/2000/svg" version="1.1" width="200" height="200" viewBox="0 0 200 200"><rect x="0" y="0" width="200" height="200" fill="#ffffff"/><g transform="scale(3.774)"><g transform="translate(2,2)"><path fill-rule="evenodd" d="M8 0L8 3L9 3L9 2L10 2L10 3L12 3L12 4L11 4L11 5L12 5L12 7L11 7L11 6L10 6L10 4L9 4L9 5L8 5L8 9L7 9L7 8L6 8L6 9L7 9L7 10L6 10L6 11L5 11L5 12L4 12L4 13L3 13L3 10L4 10L4 9L5 9L5 8L2 8L2 9L3 9L3 10L2 10L2 11L1 11L1 10L0 10L0 11L1 11L1 12L0 12L0 15L1 15L1 14L2 14L2 15L3 15L3 16L2 16L2 17L3 17L3 18L2 18L2 19L3 19L3 21L2 21L2 20L1 20L1 19L0 19L0 20L1 20L1 21L0 21L0 23L1 23L1 22L2 22L2 23L3 23L3 25L1 25L1 24L0 24L0 27L1 27L1 28L0 28L0 31L2 31L2 30L3 30L3 29L4 29L4 30L5 30L5 31L3 31L3 33L2 33L2 32L0 32L0 35L1 35L1 33L2 33L2 36L3 36L3 37L4 37L4 38L5 38L5 39L7 39L7 40L6 40L6 41L7 41L7 40L8 40L8 39L7 39L7 38L5 38L5 37L7 37L7 36L9 36L9 35L10 35L10 37L9 37L9 38L14 38L14 39L11 39L11 40L10 40L10 41L12 41L12 43L11 43L11 42L9 42L9 41L8 41L8 42L9 42L9 44L8 44L8 47L10 47L10 48L9 48L9 49L10 49L10 48L11 48L11 47L12 47L12 48L13 48L13 49L16 49L16 48L17 48L17 49L19 49L19 48L20 48L20 49L21 49L21 47L22 47L22 48L23 48L23 49L24 49L24 48L26 48L26 49L29 49L29 48L30 48L30 47L31 47L31 48L33 48L33 49L35 49L35 48L36 48L36 49L39 49L39 48L40 48L40 49L42 49L42 48L43 48L43 46L45 46L45 48L46 48L46 49L49 49L49 42L48 42L48 41L49 41L49 40L48 40L48 41L47 41L47 40L46 40L46 41L45 41L45 40L42 40L42 39L43 39L43 37L45 37L45 38L46 38L46 39L47 39L47 38L48 38L48 39L49 39L49 38L48 38L48 37L49 37L49 34L48 34L48 33L47 33L47 32L49 32L49 30L48 30L48 29L49 29L49 26L48 26L48 27L47 27L47 28L46 28L46 26L47 26L47 24L46 24L46 22L45 22L45 21L44 21L44 22L43 22L43 21L42 21L42 22L40 22L40 21L41 21L41 20L40 20L40 19L39 19L39 20L40 20L40 21L39 21L39 22L37 22L37 20L36 20L36 19L37 19L37 18L40 18L40 17L39 17L39 16L41 16L41 17L42 17L42 20L46 20L46 21L47 21L47 22L48 22L48 23L49 23L49 22L48 22L48 21L49 21L49 18L48 18L48 17L49 17L49 14L48 14L48 13L49 13L49 12L48 12L48 13L47 13L47 12L46 12L46 11L45 11L45 10L46 10L46 9L47 9L47 10L48 10L48 11L49 11L49 10L48 10L48 9L49 9L49 8L46 8L46 9L45 9L45 10L44 10L44 11L42 11L42 10L43 10L43 9L44 9L44 8L40 8L40 7L41 7L41 6L40 6L40 7L39 7L39 5L38 5L38 4L37 4L37 3L36 3L36 2L37 2L37 1L38 1L38 2L39 2L39 4L40 4L40 3L41 3L41 0L40 0L40 1L38 1L38 0L37 0L37 1L36 1L36 2L35 2L35 1L34 1L34 0L31 0L31 1L34 1L34 2L33 2L33 4L32 4L32 2L31 2L31 4L30 4L30 5L31 5L31 6L30 6L30 7L31 7L31 8L32 8L32 9L33 9L33 10L34 10L34 12L33 12L33 11L32 11L32 10L31 10L31 13L30 13L30 12L28 12L28 11L29 11L29 10L26 10L26 9L28 9L28 8L29 8L29 5L28 5L28 3L26 3L26 4L22 4L22 5L20 5L20 7L21 7L21 8L22 8L22 10L21 10L21 9L20 9L20 11L19 11L19 8L18 8L18 11L17 11L17 13L16 13L16 11L15 11L15 10L17 10L17 8L13 8L13 6L14 6L14 7L15 7L15 5L16 5L16 4L17 4L17 6L16 6L16 7L17 7L17 6L18 6L18 7L19 7L19 5L18 5L18 3L19 3L19 4L20 4L20 1L21 1L21 3L22 3L22 2L24 2L24 1L25 1L25 2L26 2L26 1L25 1L25 0L24 0L24 1L21 1L21 0L19 0L19 1L18 1L18 2L17 2L17 0L15 0L15 1L16 1L16 3L15 3L15 2L13 2L13 3L12 3L12 2L11 2L11 1L13 1L13 0L11 0L11 1L9 1L9 0ZM28 0L28 1L27 1L27 2L29 2L29 0ZM34 2L34 5L33 5L33 7L32 7L32 6L31 6L31 7L32 7L32 8L33 8L33 7L34 7L34 10L35 10L35 13L34 13L34 14L33 14L33 16L32 16L32 15L31 15L31 17L29 17L29 20L30 20L30 19L32 19L32 20L35 20L35 21L34 21L34 22L32 22L32 24L31 24L31 22L30 22L30 21L28 21L28 19L25 19L25 18L23 18L23 16L24 16L24 17L27 17L27 16L24 16L24 15L23 15L23 16L22 16L22 15L21 15L21 14L18 14L18 13L19 13L19 11L18 11L18 13L17 13L17 14L16 14L16 13L15 13L15 12L11 12L11 11L14 11L14 10L15 10L15 9L13 9L13 10L9 10L9 9L10 9L10 8L9 8L9 9L8 9L8 11L6 11L6 12L7 12L7 13L4 13L4 14L3 14L3 13L2 13L2 12L1 12L1 13L2 13L2 14L3 14L3 15L4 15L4 14L8 14L8 13L10 13L10 16L9 16L9 17L8 17L8 18L7 18L7 17L6 17L6 16L8 16L8 15L5 15L5 17L4 17L4 16L3 16L3 17L4 17L4 21L3 21L3 23L4 23L4 22L7 22L7 21L8 21L8 22L9 22L9 23L10 23L10 22L9 22L9 19L10 19L10 18L13 18L13 19L12 19L12 20L10 20L10 21L11 21L11 24L10 24L10 25L9 25L9 26L11 26L11 24L12 24L12 27L13 27L13 23L12 23L12 21L14 21L14 23L17 23L17 24L18 24L18 27L20 27L20 28L22 28L22 29L20 29L20 30L18 30L18 31L17 31L17 29L18 29L18 28L17 28L17 29L14 29L14 28L12 28L12 29L14 29L14 31L13 31L13 34L12 34L12 30L11 30L11 31L10 31L10 29L9 29L9 28L8 28L8 27L3 27L3 28L2 28L2 29L1 29L1 30L2 30L2 29L3 29L3 28L4 28L4 29L5 29L5 30L7 30L7 31L6 31L6 32L7 32L7 33L6 33L6 34L7 34L7 33L9 33L9 34L10 34L10 35L11 35L11 37L12 37L12 36L14 36L14 35L13 35L13 34L14 34L14 33L15 33L15 32L18 32L18 34L17 34L17 33L16 33L16 34L15 34L15 35L16 35L16 36L17 36L17 38L15 38L15 39L16 39L16 40L15 40L15 41L14 41L14 40L13 40L13 42L14 42L14 43L15 43L15 44L13 44L13 43L12 43L12 44L11 44L11 43L10 43L10 44L11 44L11 46L12 46L12 47L15 47L15 46L16 46L16 45L17 45L17 46L19 46L19 47L17 47L17 48L19 48L19 47L21 47L21 46L22 46L22 43L21 43L21 45L18 45L18 44L16 44L16 43L15 43L15 42L17 42L17 41L18 41L18 42L22 42L22 40L23 40L23 39L24 39L24 40L25 40L25 39L26 39L26 40L27 40L27 41L28 41L28 42L27 42L27 43L28 43L28 42L30 42L30 43L34 43L34 46L32 46L32 45L33 45L33 44L30 44L30 45L28 45L28 46L27 46L27 48L29 48L29 47L28 47L28 46L30 46L30 45L31 45L31 47L34 47L34 48L35 48L35 47L36 47L36 48L39 48L39 47L40 47L40 46L41 46L41 48L42 48L42 45L40 45L40 46L39 46L39 44L38 44L38 43L39 43L39 40L41 40L41 39L42 39L42 36L43 36L43 35L44 35L44 36L45 36L45 37L46 37L46 38L47 38L47 37L48 37L48 34L47 34L47 33L46 33L46 32L47 32L47 31L48 31L48 30L47 30L47 29L48 29L48 28L47 28L47 29L46 29L46 28L45 28L45 27L42 27L42 28L43 28L43 29L44 29L44 30L43 30L43 31L42 31L42 29L40 29L40 30L39 30L39 29L38 29L38 28L41 28L41 27L40 27L40 26L39 26L39 25L38 25L38 24L39 24L39 23L40 23L40 22L39 22L39 23L38 23L38 24L37 24L37 22L36 22L36 20L35 20L35 19L36 19L36 18L37 18L37 17L38 17L38 16L37 16L37 15L36 15L36 16L35 16L35 18L34 18L34 17L33 17L33 16L34 16L34 14L36 14L36 12L37 12L37 14L39 14L39 13L40 13L40 15L41 15L41 14L42 14L42 15L44 15L44 14L46 14L46 12L43 12L43 13L44 13L44 14L42 14L42 11L41 11L41 10L42 10L42 9L40 9L40 8L39 8L39 7L38 7L38 6L37 6L37 10L39 10L39 9L40 9L40 12L39 12L39 11L38 11L38 12L37 12L37 11L36 11L36 10L35 10L35 9L36 9L36 8L35 8L35 7L36 7L36 6L35 6L35 7L34 7L34 5L37 5L37 4L36 4L36 3L35 3L35 2ZM13 3L13 5L14 5L14 4L15 4L15 3ZM31 4L31 5L32 5L32 4ZM23 5L23 8L26 8L26 5ZM9 6L9 7L10 7L10 6ZM21 6L21 7L22 7L22 6ZM24 6L24 7L25 7L25 6ZM27 6L27 8L28 8L28 6ZM38 8L38 9L39 9L39 8ZM23 9L23 10L22 10L22 11L24 11L24 13L23 13L23 14L24 14L24 13L26 13L26 12L27 12L27 13L28 13L28 14L27 14L27 15L28 15L28 16L30 16L30 14L29 14L29 13L28 13L28 12L27 12L27 11L24 11L24 9ZM8 11L8 12L9 12L9 11ZM20 11L20 12L21 12L21 11ZM32 12L32 13L31 13L31 14L32 14L32 13L33 13L33 12ZM40 12L40 13L41 13L41 12ZM11 13L11 16L10 16L10 17L13 17L13 18L15 18L15 17L16 17L16 18L17 18L17 19L15 19L15 20L14 20L14 19L13 19L13 20L14 20L14 21L15 21L15 22L17 22L17 23L18 23L18 24L19 24L19 23L18 23L18 21L17 21L17 19L19 19L19 20L20 20L20 19L19 19L19 18L17 18L17 17L16 17L16 16L15 16L15 17L13 17L13 16L12 16L12 15L14 15L14 14L15 14L15 13ZM17 14L17 15L18 15L18 14ZM47 14L47 15L45 15L45 16L42 16L42 17L43 17L43 18L44 18L44 19L45 19L45 18L44 18L44 17L46 17L46 18L47 18L47 19L46 19L46 20L47 20L47 21L48 21L48 20L47 20L47 19L48 19L48 18L47 18L47 17L48 17L48 14ZM20 15L20 16L19 16L19 17L20 17L20 18L21 18L21 21L20 21L20 23L21 23L21 21L23 21L23 20L22 20L22 19L23 19L23 18L21 18L21 17L22 17L22 16L21 16L21 15ZM36 16L36 17L37 17L37 16ZM46 16L46 17L47 17L47 16ZM5 18L5 19L7 19L7 18ZM33 18L33 19L34 19L34 18ZM24 19L24 22L22 22L22 24L21 24L21 26L20 26L20 27L21 27L21 26L22 26L22 27L23 27L23 29L25 29L25 28L26 28L26 29L27 29L27 30L29 30L29 31L26 31L26 30L25 30L25 33L26 33L26 32L27 32L27 33L29 33L29 36L33 36L33 37L32 37L32 38L31 38L31 37L30 37L30 40L29 40L29 38L28 38L28 37L25 37L25 36L23 36L23 38L24 38L24 37L25 37L25 38L27 38L27 40L28 40L28 41L30 41L30 42L31 42L31 40L34 40L34 39L35 39L35 40L36 40L36 41L38 41L38 40L36 40L36 39L39 39L39 38L34 38L34 35L35 35L35 36L36 36L36 37L37 37L37 36L38 36L38 37L40 37L40 39L41 39L41 37L40 37L40 36L38 36L38 35L41 35L41 36L42 36L42 35L43 35L43 34L42 34L42 35L41 35L41 34L40 34L40 32L39 32L39 34L37 34L37 36L36 36L36 34L34 34L34 32L35 32L35 33L36 33L36 32L37 32L37 31L39 31L39 30L37 30L37 28L36 28L36 27L39 27L39 26L37 26L37 24L36 24L36 23L35 23L35 22L34 22L34 23L33 23L33 26L34 26L34 27L31 27L31 26L32 26L32 25L31 25L31 24L30 24L30 26L29 26L29 24L27 24L27 22L28 22L28 23L29 23L29 22L28 22L28 21L27 21L27 20L25 20L25 19ZM5 20L5 21L7 21L7 20ZM15 20L15 21L16 21L16 20ZM25 21L25 22L26 22L26 21ZM5 23L5 26L8 26L8 23ZM23 23L23 26L26 26L26 23ZM34 23L34 26L35 26L35 27L36 27L36 26L35 26L35 25L36 25L36 24L35 24L35 23ZM41 23L41 26L44 26L44 23ZM6 24L6 25L7 25L7 24ZM14 24L14 25L16 25L16 26L14 26L14 27L15 27L15 28L16 28L16 26L17 26L17 25L16 25L16 24ZM24 24L24 25L25 25L25 24ZM42 24L42 25L43 25L43 24ZM45 24L45 25L46 25L46 24ZM3 25L3 26L4 26L4 25ZM27 25L27 26L28 26L28 28L27 28L27 29L28 29L28 28L29 28L29 26L28 26L28 25ZM10 27L10 28L11 28L11 27ZM5 28L5 29L7 29L7 28ZM30 28L30 29L29 29L29 30L30 30L30 29L34 29L34 30L31 30L31 31L29 31L29 33L30 33L30 34L32 34L32 33L31 33L31 32L33 32L33 31L34 31L34 30L35 30L35 32L36 32L36 30L35 30L35 29L36 29L36 28ZM44 28L44 29L45 29L45 30L44 30L44 31L43 31L43 32L42 32L42 33L45 33L45 32L46 32L46 31L47 31L47 30L46 30L46 29L45 29L45 28ZM15 30L15 31L16 31L16 30ZM20 30L20 31L21 31L21 32L20 32L20 33L19 33L19 35L21 35L21 33L22 33L22 35L23 35L23 33L22 33L22 31L21 31L21 30ZM23 30L23 31L24 31L24 30ZM40 30L40 31L41 31L41 30ZM7 31L7 32L8 32L8 31ZM9 31L9 32L10 32L10 34L11 34L11 35L12 35L12 34L11 34L11 32L10 32L10 31ZM18 31L18 32L19 32L19 31ZM44 31L44 32L45 32L45 31ZM4 32L4 34L3 34L3 35L4 35L4 34L5 34L5 32ZM24 34L24 35L25 35L25 34ZM26 34L26 36L28 36L28 35L27 35L27 34ZM33 34L33 35L34 35L34 34ZM44 34L44 35L45 35L45 36L46 36L46 37L47 37L47 36L46 36L46 35L47 35L47 34ZM5 35L5 36L7 36L7 35ZM17 35L17 36L18 36L18 35ZM0 36L0 38L1 38L1 40L0 40L0 41L3 41L3 40L4 40L4 39L2 39L2 37L1 37L1 36ZM20 36L20 37L21 37L21 36ZM17 38L17 39L18 39L18 38ZM19 38L19 40L21 40L21 39L22 39L22 38L21 38L21 39L20 39L20 38ZM32 38L32 39L34 39L34 38ZM23 41L23 44L26 44L26 41ZM33 41L33 42L34 42L34 41ZM41 41L41 44L44 44L44 41ZM46 41L46 44L45 44L45 46L48 46L48 42L47 42L47 41ZM24 42L24 43L25 43L25 42ZM36 42L36 43L35 43L35 44L36 44L36 47L39 47L39 46L37 46L37 45L38 45L38 44L36 44L36 43L38 43L38 42ZM42 42L42 43L43 43L43 42ZM19 43L19 44L20 44L20 43ZM12 44L12 46L13 46L13 44ZM15 44L15 45L14 45L14 46L15 46L15 45L16 45L16 44ZM46 44L46 45L47 45L47 44ZM25 45L25 46L24 46L24 47L25 47L25 46L26 46L26 45ZM34 46L34 47L35 47L35 46ZM46 47L46 48L48 48L48 47ZM0 0L0 7L7 7L7 0ZM1 1L1 6L6 6L6 1ZM2 2L2 5L5 5L5 2ZM42 0L42 7L49 7L49 0ZM43 1L43 6L48 6L48 1ZM44 2L44 5L47 5L47 2ZM0 42L0 49L7 49L7 42ZM1 43L1 48L6 48L6 43ZM2 44L2 47L5 47L5 44Z" fill="#000000"/></g></g></svg>
