<?xml version="1.0" encoding="UTF-8"?>
<svg xmlns="http://www.w3.org/2000/svg" version="1.1" width="200" height="200" viewBox="0 0 200 200"><rect x="0" y="0" width="200" height="200" fill="#ffffff"/><g transform="scale(3.774)"><g transform="translate(2,2)"><path fill-rule="evenodd" d="M8 0L8 1L9 1L9 0ZM10 0L10 3L9 3L9 2L8 2L8 3L9 3L9 4L8 4L8 5L10 5L10 4L11 4L11 6L10 6L10 7L9 7L9 6L8 6L8 8L10 8L10 9L11 9L11 10L13 10L13 11L11 11L11 13L12 13L12 12L13 12L13 14L11 14L11 15L10 15L10 14L9 14L9 13L10 13L10 12L9 12L9 11L8 11L8 10L9 10L9 9L7 9L7 8L5 8L5 9L3 9L3 10L2 10L2 11L1 11L1 10L0 10L0 11L1 11L1 14L0 14L0 15L1 15L1 14L2 14L2 17L3 17L3 14L2 14L2 11L3 11L3 10L5 10L5 9L7 9L7 10L6 10L6 11L8 11L8 12L5 12L5 11L4 11L4 17L5 17L5 18L3 18L3 19L5 19L5 18L6 18L6 19L7 19L7 18L6 18L6 17L8 17L8 15L10 15L10 17L9 17L9 18L8 18L8 19L9 19L9 21L7 21L7 20L5 20L5 21L3 21L3 20L2 20L2 18L1 18L1 19L0 19L0 20L1 20L1 21L0 21L0 23L1 23L1 21L3 21L3 22L2 22L2 23L3 23L3 24L0 24L0 27L1 27L1 28L0 28L0 34L3 34L3 35L0 35L0 36L1 36L1 37L0 37L0 38L1 38L1 40L0 40L0 41L3 41L3 40L4 40L4 39L2 39L2 38L1 38L1 37L3 37L3 38L5 38L5 39L7 39L7 40L6 40L6 41L7 41L7 40L10 40L10 41L8 41L8 42L9 42L9 43L8 43L8 44L9 44L9 45L10 45L10 46L9 46L9 49L12 49L12 48L15 48L15 49L17 49L17 47L19 47L19 48L18 48L18 49L20 49L20 48L22 48L22 49L23 49L23 48L25 48L25 47L24 47L24 46L25 46L25 45L26 45L26 46L27 46L27 45L28 45L28 47L27 47L27 48L28 48L28 49L34 49L34 48L33 48L33 47L31 47L31 45L30 45L30 44L33 44L33 45L34 45L34 47L35 47L35 49L39 49L39 48L36 48L36 47L39 47L39 45L40 45L40 48L41 48L41 45L42 45L42 48L43 48L43 49L45 49L45 48L43 48L43 46L44 46L44 45L45 45L45 43L48 43L48 46L47 46L47 44L46 44L46 46L47 46L47 47L48 47L48 49L49 49L49 42L48 42L48 41L49 41L49 40L48 40L48 41L47 41L47 38L48 38L48 39L49 39L49 38L48 38L48 37L49 37L49 34L48 34L48 33L47 33L47 32L49 32L49 30L48 30L48 29L47 29L47 27L46 27L46 26L47 26L47 25L48 25L48 24L47 24L47 25L46 25L46 26L45 26L45 23L46 23L46 22L48 22L48 23L49 23L49 22L48 22L48 21L49 21L49 18L48 18L48 17L49 17L49 14L48 14L48 13L49 13L49 12L47 12L47 13L45 13L45 8L44 8L44 11L42 11L42 10L43 10L43 8L42 8L42 10L41 10L41 8L40 8L40 10L41 10L41 11L42 11L42 12L41 12L41 13L42 13L42 14L41 14L41 17L42 17L42 18L40 18L40 19L42 19L42 20L45 20L45 19L46 19L46 18L45 18L45 19L44 19L44 17L42 17L42 16L44 16L44 15L45 15L45 16L46 16L46 17L47 17L47 20L46 20L46 21L45 21L45 22L43 22L43 21L42 21L42 22L41 22L41 20L40 20L40 24L39 24L39 21L38 21L38 22L37 22L37 20L36 20L36 19L39 19L39 16L38 16L38 15L40 15L40 14L37 14L37 13L39 13L39 12L40 12L40 11L39 11L39 8L38 8L38 10L37 10L37 6L38 6L38 7L39 7L39 5L38 5L38 4L37 4L37 3L36 3L36 2L37 2L37 1L36 1L36 0L33 0L33 2L32 2L32 1L31 1L31 4L30 4L30 5L31 5L31 6L30 6L30 7L29 7L29 6L28 6L28 5L29 5L29 4L28 4L28 2L27 2L27 4L22 4L22 8L21 8L21 6L20 6L20 7L19 7L19 6L18 6L18 3L19 3L19 5L20 5L20 4L21 4L21 3L20 3L20 1L18 1L18 0L17 0L17 1L16 1L16 0L12 0L12 1L15 1L15 2L13 2L13 3L14 3L14 5L13 5L13 4L11 4L11 3L12 3L12 2L11 2L11 0ZM25 0L25 1L29 1L29 0ZM40 0L40 1L38 1L38 2L39 2L39 4L40 4L40 3L41 3L41 0ZM17 1L17 2L18 2L18 1ZM22 1L22 3L23 3L23 2L24 2L24 1ZM35 1L35 2L34 2L34 3L33 3L33 4L34 4L34 5L37 5L37 4L36 4L36 3L35 3L35 2L36 2L36 1ZM15 2L15 3L16 3L16 2ZM34 3L34 4L35 4L35 3ZM15 4L15 8L14 8L14 6L13 6L13 5L12 5L12 6L11 6L11 7L12 7L12 6L13 6L13 10L15 10L15 12L14 12L14 15L12 15L12 16L13 16L13 17L12 17L12 18L11 18L11 17L10 17L10 18L9 18L9 19L10 19L10 20L11 20L11 21L9 21L9 24L10 24L10 22L11 22L11 25L10 25L10 26L11 26L11 25L12 25L12 27L13 27L13 25L14 25L14 24L13 24L13 23L12 23L12 21L14 21L14 23L15 23L15 26L14 26L14 28L11 28L11 29L14 29L14 30L15 30L15 29L14 29L14 28L15 28L15 27L16 27L16 29L18 29L18 28L17 28L17 27L16 27L16 26L17 26L17 25L18 25L18 27L20 27L20 26L21 26L21 27L22 27L22 25L19 25L19 24L21 24L21 23L22 23L22 22L21 22L21 20L23 20L23 22L24 22L24 19L25 19L25 20L27 20L27 21L25 21L25 22L27 22L27 23L28 23L28 25L27 25L27 27L26 27L26 29L24 29L24 28L23 28L23 29L21 29L21 28L19 28L19 29L21 29L21 30L22 30L22 31L21 31L21 32L22 32L22 31L23 31L23 29L24 29L24 31L25 31L25 32L26 32L26 31L27 31L27 32L28 32L28 30L29 30L29 34L27 34L27 35L26 35L26 36L27 36L27 38L25 38L25 37L24 37L24 36L23 36L23 35L25 35L25 34L26 34L26 33L24 33L24 34L23 34L23 33L22 33L22 34L21 34L21 33L20 33L20 32L19 32L19 31L17 31L17 32L18 32L18 34L16 34L16 33L15 33L15 34L14 34L14 32L13 32L13 31L11 31L11 32L10 32L10 30L9 30L9 28L10 28L10 27L5 27L5 28L4 28L4 29L3 29L3 33L5 33L5 32L7 32L7 33L6 33L6 34L7 34L7 35L5 35L5 36L4 36L4 35L3 35L3 36L4 36L4 37L5 37L5 38L7 38L7 39L11 39L11 37L10 37L10 36L14 36L14 37L13 37L13 39L14 39L14 40L11 40L11 41L10 41L10 43L12 43L12 44L11 44L11 46L12 46L12 47L11 47L11 48L12 48L12 47L15 47L15 48L16 48L16 47L15 47L15 46L14 46L14 43L15 43L15 41L18 41L18 42L17 42L17 43L16 43L16 46L17 46L17 43L18 43L18 45L19 45L19 47L21 47L21 46L20 46L20 45L19 45L19 44L21 44L21 45L22 45L22 44L21 44L21 42L20 42L20 41L22 41L22 39L24 39L24 40L25 40L25 39L27 39L27 40L30 40L30 37L31 37L31 39L32 39L32 40L31 40L31 42L30 42L30 41L27 41L27 42L29 42L29 44L30 44L30 43L31 43L31 42L33 42L33 44L34 44L34 45L35 45L35 47L36 47L36 44L38 44L38 45L37 45L37 46L38 46L38 45L39 45L39 44L40 44L40 43L39 43L39 44L38 44L38 42L40 42L40 41L39 41L39 40L38 40L38 39L37 39L37 38L39 38L39 39L40 39L40 38L39 38L39 37L38 37L38 36L39 36L39 35L37 35L37 34L38 34L38 33L39 33L39 34L40 34L40 33L41 33L41 35L40 35L40 36L41 36L41 35L42 35L42 36L43 36L43 39L42 39L42 37L41 37L41 39L42 39L42 40L44 40L44 39L46 39L46 38L47 38L47 36L48 36L48 34L47 34L47 35L44 35L44 33L42 33L42 32L43 32L43 31L41 31L41 29L42 29L42 28L43 28L43 29L44 29L44 32L45 32L45 33L46 33L46 32L47 32L47 29L46 29L46 27L45 27L45 29L44 29L44 27L42 27L42 28L41 28L41 29L38 29L38 27L37 27L37 26L39 26L39 27L40 27L40 25L37 25L37 26L36 26L36 25L32 25L32 26L31 26L31 25L29 25L29 24L30 24L30 23L28 23L28 20L27 20L27 18L28 18L28 19L29 19L29 18L30 18L30 19L32 19L32 20L33 20L33 18L32 18L32 17L33 17L33 16L32 16L32 15L31 15L31 16L32 16L32 17L29 17L29 16L30 16L30 14L29 14L29 13L31 13L31 14L32 14L32 12L31 12L31 11L30 11L30 10L29 10L29 11L27 11L27 13L26 13L26 14L25 14L25 15L24 15L24 16L22 16L22 15L23 15L23 14L24 14L24 13L25 13L25 12L26 12L26 11L24 11L24 9L22 9L22 11L20 11L20 10L21 10L21 8L17 8L17 7L18 7L18 6L17 6L17 4ZM27 4L27 5L28 5L28 4ZM31 4L31 5L32 5L32 4ZM23 5L23 8L26 8L26 5ZM16 6L16 7L17 7L17 6ZM24 6L24 7L25 7L25 6ZM27 6L27 7L28 7L28 6ZM31 6L31 7L30 7L30 8L31 8L31 10L32 10L32 11L34 11L34 9L36 9L36 8L35 8L35 7L36 7L36 6L35 6L35 7L34 7L34 6L33 6L33 7L32 7L32 6ZM40 6L40 7L41 7L41 6ZM31 7L31 8L32 8L32 10L33 10L33 9L34 9L34 8L32 8L32 7ZM15 8L15 9L17 9L17 10L18 10L18 9L17 9L17 8ZM28 8L28 9L29 9L29 8ZM46 8L46 10L48 10L48 11L49 11L49 10L48 10L48 9L49 9L49 8L48 8L48 9L47 9L47 8ZM35 10L35 12L34 12L34 13L33 13L33 15L34 15L34 16L35 16L35 18L37 18L37 17L38 17L38 16L37 16L37 15L36 15L36 14L35 14L35 12L37 12L37 11L36 11L36 10ZM17 11L17 13L16 13L16 15L14 15L14 16L15 16L15 17L13 17L13 18L12 18L12 20L15 20L15 19L17 19L17 20L16 20L16 21L17 21L17 23L16 23L16 24L17 24L17 23L18 23L18 24L19 24L19 23L18 23L18 21L19 21L19 20L21 20L21 19L22 19L22 16L21 16L21 18L20 18L20 15L19 15L19 20L18 20L18 19L17 19L17 16L16 16L16 15L18 15L18 14L20 14L20 13L21 13L21 14L22 14L22 12L24 12L24 11L22 11L22 12L20 12L20 11ZM38 11L38 12L39 12L39 11ZM18 12L18 13L17 13L17 14L18 14L18 13L20 13L20 12ZM5 13L5 14L8 14L8 13ZM44 13L44 14L42 14L42 15L44 15L44 14L45 14L45 13ZM34 14L34 15L35 15L35 16L36 16L36 17L37 17L37 16L36 16L36 15L35 15L35 14ZM47 14L47 17L48 17L48 14ZM5 15L5 16L7 16L7 15ZM25 15L25 16L24 16L24 17L23 17L23 19L24 19L24 18L27 18L27 17L28 17L28 16L27 16L27 17L25 17L25 16L26 16L26 15ZM13 18L13 19L14 19L14 18ZM34 19L34 20L35 20L35 23L34 23L34 21L32 21L32 24L35 24L35 23L36 23L36 24L38 24L38 23L37 23L37 22L36 22L36 20L35 20L35 19ZM17 20L17 21L18 21L18 20ZM30 20L30 21L29 21L29 22L30 22L30 21L31 21L31 20ZM47 20L47 21L48 21L48 20ZM5 21L5 22L7 22L7 21ZM3 22L3 23L4 23L4 22ZM20 22L20 23L21 23L21 22ZM5 23L5 26L8 26L8 23ZM23 23L23 26L26 26L26 23ZM41 23L41 26L44 26L44 23ZM6 24L6 25L7 25L7 24ZM24 24L24 25L25 25L25 24ZM42 24L42 25L43 25L43 24ZM28 25L28 26L29 26L29 29L30 29L30 31L33 31L33 30L31 30L31 29L30 29L30 28L32 28L32 27L30 27L30 26L29 26L29 25ZM34 26L34 27L35 27L35 28L36 28L36 29L35 29L35 31L34 31L34 32L30 32L30 34L29 34L29 36L28 36L28 37L30 37L30 36L31 36L31 37L33 37L33 36L34 36L34 37L35 37L35 38L34 38L34 40L36 40L36 41L38 41L38 40L36 40L36 39L35 39L35 38L37 38L37 36L36 36L36 34L35 34L35 33L36 33L36 32L37 32L37 28L36 28L36 27L35 27L35 26ZM48 26L48 28L49 28L49 26ZM2 27L2 28L3 28L3 27ZM27 27L27 29L26 29L26 30L25 30L25 31L26 31L26 30L28 30L28 27ZM6 28L6 29L4 29L4 31L7 31L7 30L6 30L6 29L8 29L8 28ZM1 29L1 33L2 33L2 29ZM45 30L45 31L46 31L46 30ZM8 31L8 33L7 33L7 34L9 34L9 36L8 36L8 35L7 35L7 36L6 36L6 37L9 37L9 38L10 38L10 37L9 37L9 36L10 36L10 33L9 33L9 31ZM15 31L15 32L16 32L16 31ZM35 31L35 32L34 32L34 33L31 33L31 34L30 34L30 35L31 35L31 34L33 34L33 35L34 35L34 36L35 36L35 35L34 35L34 33L35 33L35 32L36 32L36 31ZM39 31L39 33L40 33L40 31ZM12 32L12 34L11 34L11 35L12 35L12 34L13 34L13 35L14 35L14 34L13 34L13 32ZM19 33L19 34L18 34L18 35L17 35L17 36L18 36L18 37L15 37L15 38L14 38L14 39L15 39L15 40L14 40L14 41L15 41L15 40L17 40L17 39L18 39L18 38L19 38L19 39L20 39L20 40L19 40L19 41L20 41L20 40L21 40L21 39L22 39L22 37L23 37L23 38L24 38L24 37L23 37L23 36L22 36L22 35L23 35L23 34L22 34L22 35L21 35L21 34L20 34L20 33ZM42 34L42 35L43 35L43 36L44 36L44 35L43 35L43 34ZM19 35L19 36L21 36L21 37L20 37L20 38L21 38L21 37L22 37L22 36L21 36L21 35ZM27 38L27 39L29 39L29 38ZM32 38L32 39L33 39L33 38ZM45 40L45 42L47 42L47 41L46 41L46 40ZM12 41L12 42L13 42L13 43L14 43L14 42L13 42L13 41ZM23 41L23 44L26 44L26 41ZM41 41L41 44L44 44L44 41ZM19 42L19 43L20 43L20 42ZM24 42L24 43L25 43L25 42ZM34 42L34 43L35 43L35 44L36 44L36 43L37 43L37 42ZM42 42L42 43L43 43L43 42ZM27 43L27 44L28 44L28 43ZM12 44L12 46L13 46L13 44ZM28 47L28 48L31 48L31 47ZM0 0L0 7L7 7L7 0ZM1 1L1 6L6 6L6 1ZM2 2L2 5L5 5L5 2ZM42 0L42 7L49 7L49 0ZM43 1L43 6L48 6L48 1ZM44 2L44 5L47 5L47 2ZM0 42L0 49L7 49L7 42ZM1 43L1 48L6 48L6 43ZM2 44L2 47L5 47L5 44Z" fill="#000000"/></g></g></svg>
