<?xml version="1.0" encoding="UTF-8"?>
<svg xmlns="http://www.w3.org/2000/svg" version="1.1" width="200" height="200" viewBox="0 0 200 200"><rect x="0" y="0" width="200" height="200" fill="#ffffff"/><g transform="scale(3.774)"><g transform="translate(2,2)"><path fill-rule="evenodd" d="M11 0L11 1L10 1L10 2L9 2L9 3L10 3L10 2L11 2L11 3L12 3L12 4L11 4L11 5L13 5L13 0ZM15 0L15 1L14 1L14 3L16 3L16 4L15 4L15 5L16 5L16 7L15 7L15 6L14 6L14 7L13 7L13 6L12 6L12 8L11 8L11 6L10 6L10 5L9 5L9 4L8 4L8 5L9 5L9 6L8 6L8 8L6 8L6 9L7 9L7 10L5 10L5 11L3 11L3 10L4 10L4 8L2 8L2 9L1 9L1 10L0 10L0 11L3 11L3 12L2 12L2 14L1 14L1 15L3 15L3 17L4 17L4 18L2 18L2 17L1 17L1 16L0 16L0 18L2 18L2 19L1 19L1 20L2 20L2 23L0 23L0 25L1 25L1 26L2 26L2 27L1 27L1 30L0 30L0 31L1 31L1 33L0 33L0 36L1 36L1 35L2 35L2 33L3 33L3 37L1 37L1 40L0 40L0 41L3 41L3 40L4 40L4 39L2 39L2 38L5 38L5 39L7 39L7 40L6 40L6 41L7 41L7 40L8 40L8 43L9 43L9 44L10 44L10 45L8 45L8 47L9 47L9 49L10 49L10 47L11 47L11 46L10 46L10 45L11 45L11 44L13 44L13 45L12 45L12 47L13 47L13 45L15 45L15 44L13 44L13 43L9 43L9 42L14 42L14 43L18 43L18 42L19 42L19 43L20 43L20 42L21 42L21 43L22 43L22 45L21 45L21 44L20 44L20 45L21 45L21 46L20 46L20 49L21 49L21 48L22 48L22 47L23 47L23 49L24 49L24 47L25 47L25 48L26 48L26 49L29 49L29 47L30 47L30 49L31 49L31 46L30 46L30 45L29 45L29 46L28 46L28 45L27 45L27 43L28 43L28 44L30 44L30 42L29 42L29 39L28 39L28 42L27 42L27 40L26 40L26 37L25 37L25 36L26 36L26 34L25 34L25 33L26 33L26 31L28 31L28 32L29 32L29 33L30 33L30 34L29 34L29 35L28 35L28 34L27 34L27 35L28 35L28 36L30 36L30 35L32 35L32 36L33 36L33 35L34 35L34 37L35 37L35 36L36 36L36 38L35 38L35 41L34 41L34 38L33 38L33 37L31 37L31 38L33 38L33 39L30 39L30 40L32 40L32 41L31 41L31 42L32 42L32 41L34 41L34 42L35 42L35 41L36 41L36 44L37 44L37 43L38 43L38 41L39 41L39 40L37 40L37 41L36 41L36 38L37 38L37 37L38 37L38 39L40 39L40 38L42 38L42 37L44 37L44 38L43 38L43 39L44 39L44 38L45 38L45 39L46 39L46 38L45 38L45 36L43 36L43 35L42 35L42 34L40 34L40 33L41 33L41 32L44 32L44 33L46 33L46 32L45 32L45 31L47 31L47 30L48 30L48 31L49 31L49 27L47 27L47 26L49 26L49 25L47 25L47 23L48 23L48 24L49 24L49 23L48 23L48 21L47 21L47 22L46 22L46 20L45 20L45 21L44 21L44 18L45 18L45 19L47 19L47 18L48 18L48 19L49 19L49 17L48 17L48 16L49 16L49 15L48 15L48 16L45 16L45 14L47 14L47 11L48 11L48 14L49 14L49 11L48 11L48 9L47 9L47 11L46 11L46 9L45 9L45 8L44 8L44 9L45 9L45 11L44 11L44 12L45 12L45 11L46 11L46 13L43 13L43 12L42 12L42 13L41 13L41 10L40 10L40 8L39 8L39 5L38 5L38 4L37 4L37 3L38 3L38 2L39 2L39 4L40 4L40 3L41 3L41 0L40 0L40 1L38 1L38 0L37 0L37 1L38 1L38 2L36 2L36 1L34 1L34 0L32 0L32 1L33 1L33 2L34 2L34 3L31 3L31 2L30 2L30 1L31 1L31 0L29 0L29 1L28 1L28 0L27 0L27 2L28 2L28 3L29 3L29 2L30 2L30 3L31 3L31 4L32 4L32 5L30 5L30 4L29 4L29 5L28 5L28 7L27 7L27 3L26 3L26 0L22 0L22 2L24 2L24 3L26 3L26 4L23 4L23 3L22 3L22 4L21 4L21 3L19 3L19 4L18 4L18 1L17 1L17 0ZM19 0L19 2L21 2L21 0ZM24 1L24 2L25 2L25 1ZM16 2L16 3L17 3L17 2ZM34 3L34 4L33 4L33 5L34 5L34 6L33 6L33 9L31 9L31 8L30 8L30 5L29 5L29 8L30 8L30 9L28 9L28 8L27 8L27 9L26 9L26 11L25 11L25 10L24 10L24 9L23 9L23 10L22 10L22 9L21 9L21 8L20 8L20 9L19 9L19 12L18 12L18 11L17 11L17 10L18 10L18 8L19 8L19 7L20 7L20 6L21 6L21 7L22 7L22 5L20 5L20 4L19 4L19 7L18 7L18 6L17 6L17 7L18 7L18 8L15 8L15 9L14 9L14 11L12 11L12 12L11 12L11 11L10 11L10 10L9 10L9 9L8 9L8 10L9 10L9 11L10 11L10 12L7 12L7 11L5 11L5 13L4 13L4 12L3 12L3 14L5 14L5 17L6 17L6 18L4 18L4 19L3 19L3 21L4 21L4 22L7 22L7 21L4 21L4 20L5 20L5 19L6 19L6 20L8 20L8 22L9 22L9 20L8 20L8 19L10 19L10 20L11 20L11 21L10 21L10 22L12 22L12 23L9 23L9 24L10 24L10 26L9 26L9 27L10 27L10 28L8 28L8 27L4 27L4 26L3 26L3 24L4 24L4 23L2 23L2 24L1 24L1 25L2 25L2 26L3 26L3 29L2 29L2 30L3 30L3 31L2 31L2 32L3 32L3 33L4 33L4 34L5 34L5 35L4 35L4 36L7 36L7 37L6 37L6 38L8 38L8 40L12 40L12 39L9 39L9 38L8 38L8 37L9 37L9 36L7 36L7 35L6 35L6 34L8 34L8 35L9 35L9 34L10 34L10 36L12 36L12 37L14 37L14 38L15 38L15 40L13 40L13 41L14 41L14 42L17 42L17 40L20 40L20 41L19 41L19 42L20 42L20 41L21 41L21 42L22 42L22 40L23 40L23 39L24 39L24 40L25 40L25 39L24 39L24 37L23 37L23 36L25 36L25 35L24 35L24 33L23 33L23 32L21 32L21 31L22 31L22 30L24 30L24 32L25 32L25 30L26 30L26 29L27 29L27 30L28 30L28 31L29 31L29 32L30 32L30 33L31 33L31 34L32 34L32 35L33 35L33 34L32 34L32 31L33 31L33 33L34 33L34 34L35 34L35 35L36 35L36 34L38 34L38 35L40 35L40 34L39 34L39 33L40 33L40 32L41 32L41 31L42 31L42 30L43 30L43 31L44 31L44 30L46 30L46 29L45 29L45 27L46 27L46 28L47 28L47 27L46 27L46 23L45 23L45 27L42 27L42 28L43 28L43 29L42 29L42 30L41 30L41 31L40 31L40 28L41 28L41 27L38 27L38 25L39 25L39 26L40 26L40 25L39 25L39 24L40 24L40 23L39 23L39 20L40 20L40 22L42 22L42 20L43 20L43 19L42 19L42 18L44 18L44 16L43 16L43 17L42 17L42 16L40 16L40 17L39 17L39 16L37 16L37 15L38 15L38 13L36 13L36 11L37 11L37 10L38 10L38 12L39 12L39 15L40 15L40 14L41 14L41 13L40 13L40 11L39 11L39 9L37 9L37 8L38 8L38 5L36 5L36 6L35 6L35 4L36 4L36 3ZM16 4L16 5L18 5L18 4ZM23 5L23 8L26 8L26 5ZM9 6L9 7L10 7L10 6ZM24 6L24 7L25 7L25 6ZM31 6L31 7L32 7L32 6ZM34 6L34 7L35 7L35 6ZM36 6L36 7L37 7L37 6ZM40 6L40 7L41 7L41 6ZM10 8L10 9L11 9L11 8ZM12 8L12 9L13 9L13 8ZM34 8L34 9L33 9L33 10L28 10L28 13L30 13L30 12L31 12L31 13L32 13L32 12L33 12L33 13L35 13L35 12L34 12L34 11L36 11L36 10L37 10L37 9L35 9L35 8ZM41 8L41 9L42 9L42 11L43 11L43 8ZM2 9L2 10L3 10L3 9ZM15 9L15 11L16 11L16 12L15 12L15 13L16 13L16 12L17 12L17 11L16 11L16 10L17 10L17 9ZM20 9L20 10L21 10L21 9ZM34 9L34 10L35 10L35 9ZM23 10L23 12L20 12L20 13L22 13L22 15L24 15L24 16L26 16L26 18L25 18L25 17L24 17L24 18L23 18L23 16L22 16L22 17L21 17L21 18L20 18L20 16L21 16L21 14L17 14L17 15L19 15L19 16L16 16L16 17L15 17L15 16L14 16L14 18L15 18L15 19L16 19L16 20L14 20L14 19L13 19L13 18L12 18L12 17L13 17L13 15L12 15L12 17L11 17L11 16L10 16L10 15L11 15L11 14L13 14L13 13L14 13L14 12L12 12L12 13L11 13L11 12L10 12L10 13L9 13L9 14L8 14L8 15L7 15L7 14L6 14L6 13L7 13L7 12L6 12L6 13L5 13L5 14L6 14L6 15L7 15L7 16L6 16L6 17L9 17L9 18L10 18L10 19L11 19L11 18L12 18L12 19L13 19L13 20L12 20L12 22L13 22L13 23L12 23L12 24L11 24L11 25L12 25L12 26L11 26L11 28L10 28L10 29L9 29L9 30L8 30L8 29L7 29L7 28L6 28L6 29L5 29L5 28L4 28L4 30L5 30L5 31L3 31L3 32L4 32L4 33L5 33L5 34L6 34L6 33L8 33L8 34L9 34L9 33L10 33L10 34L11 34L11 33L10 33L10 32L11 32L11 31L9 31L9 30L10 30L10 29L12 29L12 28L15 28L15 30L13 30L13 31L12 31L12 32L13 32L13 33L12 33L12 36L14 36L14 32L13 32L13 31L15 31L15 32L16 32L16 29L17 29L17 31L18 31L18 32L17 32L17 33L18 33L18 34L17 34L17 35L16 35L16 33L15 33L15 35L16 35L16 37L15 37L15 38L16 38L16 39L19 39L19 38L20 38L20 40L21 40L21 38L22 38L22 39L23 39L23 38L22 38L22 37L21 37L21 36L23 36L23 35L22 35L22 34L21 34L21 32L19 32L19 31L18 31L18 28L20 28L20 27L23 27L23 28L21 28L21 29L19 29L19 30L20 30L20 31L21 31L21 29L23 29L23 28L24 28L24 30L25 30L25 29L26 29L26 28L27 28L27 27L28 27L28 28L30 28L30 29L31 29L31 30L29 30L29 31L31 31L31 30L32 30L32 29L34 29L34 33L38 33L38 32L40 32L40 31L39 31L39 30L38 30L38 29L37 29L37 30L36 30L36 27L37 27L37 26L36 26L36 27L34 27L34 26L33 26L33 25L34 25L34 24L36 24L36 25L38 25L38 24L37 24L37 23L38 23L38 22L37 22L37 21L38 21L38 20L39 20L39 19L38 19L38 20L37 20L37 17L36 17L36 15L37 15L37 14L36 14L36 15L34 15L34 14L32 14L32 15L30 15L30 16L31 16L31 17L30 17L30 18L32 18L32 19L30 19L30 20L29 20L29 17L28 17L28 18L27 18L27 15L28 15L28 16L29 16L29 14L27 14L27 15L24 15L24 12L25 12L25 14L26 14L26 12L27 12L27 11L26 11L26 12L25 12L25 11L24 11L24 10ZM29 11L29 12L30 12L30 11ZM31 11L31 12L32 12L32 11ZM42 13L42 14L43 14L43 13ZM9 14L9 15L8 15L8 16L9 16L9 15L10 15L10 14ZM15 14L15 15L16 15L16 14ZM32 15L32 16L33 16L33 17L32 17L32 18L33 18L33 17L34 17L34 20L33 20L33 21L34 21L34 22L36 22L36 21L37 21L37 20L36 20L36 17L34 17L34 15ZM16 17L16 18L17 18L17 19L18 19L18 17ZM38 17L38 18L39 18L39 17ZM40 17L40 18L41 18L41 17ZM45 17L45 18L46 18L46 17ZM6 18L6 19L7 19L7 18ZM19 18L19 19L20 19L20 21L19 21L19 20L18 20L18 21L19 21L19 23L18 23L18 22L16 22L16 23L15 23L15 24L14 24L14 23L13 23L13 24L12 24L12 25L13 25L13 24L14 24L14 26L13 26L13 27L15 27L15 28L16 28L16 27L17 27L17 26L18 26L18 25L19 25L19 26L20 26L20 25L21 25L21 26L22 26L22 25L21 25L21 22L24 22L24 21L25 21L25 22L26 22L26 19L25 19L25 18L24 18L24 20L23 20L23 19L20 19L20 18ZM41 19L41 20L42 20L42 19ZM16 20L16 21L17 21L17 20ZM28 20L28 22L29 22L29 25L28 25L28 27L29 27L29 26L30 26L30 27L31 27L31 25L33 25L33 24L34 24L34 23L31 23L31 25L30 25L30 22L29 22L29 20ZM31 20L31 21L32 21L32 20ZM20 21L20 22L21 22L21 21ZM43 21L43 22L44 22L44 21ZM5 23L5 26L8 26L8 23ZM19 23L19 24L20 24L20 23ZM23 23L23 26L26 26L26 23ZM27 23L27 24L28 24L28 23ZM41 23L41 26L44 26L44 23ZM6 24L6 25L7 25L7 24ZM16 24L16 25L18 25L18 24ZM24 24L24 25L25 25L25 24ZM42 24L42 25L43 25L43 24ZM15 26L15 27L16 27L16 26ZM32 26L32 27L33 27L33 26ZM31 28L31 29L32 29L32 28ZM34 28L34 29L35 29L35 28ZM6 29L6 30L7 30L7 31L5 31L5 32L7 32L7 31L8 31L8 32L9 32L9 31L8 31L8 30L7 30L7 29ZM35 30L35 31L36 31L36 32L38 32L38 31L36 31L36 30ZM48 32L48 33L47 33L47 34L46 34L46 37L47 37L47 35L48 35L48 33L49 33L49 32ZM18 34L18 35L17 35L17 37L16 37L16 38L17 38L17 37L18 37L18 36L19 36L19 37L20 37L20 36L21 36L21 34L20 34L20 36L19 36L19 34ZM38 36L38 37L39 37L39 36ZM40 36L40 37L42 37L42 36ZM48 36L48 38L49 38L49 36ZM10 37L10 38L11 38L11 37ZM29 37L29 38L30 38L30 37ZM41 39L41 40L40 40L40 42L39 42L39 43L40 43L40 45L39 45L39 47L42 47L42 46L44 46L44 47L43 47L43 48L44 48L44 47L46 47L46 49L49 49L49 48L47 48L47 47L46 47L46 46L47 46L47 45L46 45L46 44L45 44L45 43L46 43L46 42L48 42L48 43L47 43L47 44L48 44L48 43L49 43L49 41L48 41L48 40L42 40L42 39ZM23 41L23 44L26 44L26 41ZM41 41L41 44L44 44L44 41ZM45 41L45 42L46 42L46 41ZM24 42L24 43L25 43L25 42ZM28 42L28 43L29 43L29 42ZM42 42L42 43L43 43L43 42ZM31 43L31 45L32 45L32 48L33 48L33 49L35 49L35 48L36 48L36 49L37 49L37 48L38 48L38 46L37 46L37 45L36 45L36 46L34 46L34 45L35 45L35 44L34 44L34 45L32 45L32 43ZM16 44L16 47L17 47L17 44ZM40 45L40 46L42 46L42 45ZM48 45L48 46L49 46L49 45ZM9 46L9 47L10 47L10 46ZM14 46L14 48L13 48L13 49L16 49L16 48L15 48L15 46ZM21 46L21 47L22 47L22 46ZM23 46L23 47L24 47L24 46ZM36 46L36 47L37 47L37 46ZM18 47L18 48L17 48L17 49L19 49L19 47ZM26 47L26 48L27 48L27 47ZM33 47L33 48L34 48L34 47ZM40 48L40 49L42 49L42 48ZM0 0L0 7L7 7L7 0ZM1 1L1 6L6 6L6 1ZM2 2L2 5L5 5L5 2ZM42 0L42 7L49 7L49 0ZM43 1L43 6L48 6L48 1ZM44 2L44 5L47 5L47 2ZM0 42L0 49L7 49L7 42ZM1 43L1 48L6 48L6 43ZM2 44L2 47L5 47L5 44Z" fill="#000000"/></g></g></svg>
