<?xml version="1.0" encoding="UTF-8"?>
<svg xmlns="http://www.w3.org/2000/svg" version="1.1" width="200" height="200" viewBox="0 0 200 200"><rect x="0" y="0" width="200" height="200" fill="#ffffff"/><g transform="scale(3.774)"><g transform="translate(2,2)"><path fill-rule="evenodd" d="M11 0L11 1L14 1L14 3L13 3L13 2L10 2L10 1L9 1L9 2L8 2L8 4L14 4L14 5L15 5L15 6L14 6L14 7L13 7L13 5L11 5L11 6L10 6L10 5L9 5L9 6L8 6L8 7L9 7L9 6L10 6L10 7L11 7L11 6L12 6L12 7L13 7L13 9L12 9L12 8L10 8L10 10L9 10L9 11L7 11L7 10L8 10L8 8L6 8L6 9L5 9L5 8L3 8L3 10L1 10L1 9L0 9L0 10L1 10L1 12L0 12L0 13L3 13L3 14L0 14L0 15L1 15L1 16L0 16L0 17L1 17L1 19L0 19L0 22L2 22L2 21L3 21L3 22L4 22L4 24L3 24L3 26L4 26L4 28L1 28L1 27L2 27L2 26L0 26L0 29L2 29L2 30L1 30L1 31L0 31L0 34L2 34L2 35L0 35L0 36L2 36L2 35L5 35L5 34L6 34L6 35L8 35L8 36L4 36L4 37L2 37L2 38L1 38L1 37L0 37L0 38L1 38L1 40L0 40L0 41L3 41L3 40L4 40L4 39L2 39L2 38L5 38L5 39L7 39L7 40L6 40L6 41L7 41L7 40L8 40L8 43L9 43L9 44L8 44L8 46L9 46L9 44L10 44L10 43L11 43L11 44L13 44L13 47L12 47L12 46L11 46L11 45L10 45L10 47L9 47L9 48L10 48L10 47L11 47L11 48L14 48L14 49L15 49L15 48L14 48L14 47L15 47L15 46L16 46L16 45L17 45L17 46L18 46L18 48L16 48L16 49L18 49L18 48L21 48L21 49L22 49L22 48L21 48L21 47L19 47L19 46L20 46L20 44L22 44L22 45L21 45L21 46L23 46L23 47L24 47L24 48L26 48L26 49L27 49L27 47L25 47L25 46L26 46L26 45L28 45L28 47L30 47L30 49L39 49L39 48L33 48L33 46L32 46L32 47L31 47L31 46L29 46L29 45L30 45L30 44L29 44L29 42L28 42L28 41L29 41L29 40L32 40L32 43L33 43L33 40L32 40L32 39L30 39L30 37L33 37L33 39L34 39L34 40L35 40L35 41L34 41L34 43L35 43L35 44L33 44L33 45L34 45L34 47L36 47L36 46L37 46L37 47L38 47L38 46L39 46L39 45L40 45L40 47L41 47L41 48L43 48L43 49L45 49L45 48L43 48L43 47L42 47L42 46L44 46L44 47L46 47L46 48L48 48L48 49L49 49L49 42L47 42L47 41L49 41L49 38L48 38L48 37L49 37L49 34L48 34L48 33L49 33L49 32L47 32L47 33L46 33L46 34L45 34L45 32L44 32L44 34L41 34L41 32L40 32L40 30L41 30L41 31L44 31L44 30L45 30L45 31L49 31L49 30L47 30L47 29L49 29L49 22L48 22L48 21L49 21L49 18L47 18L47 17L48 17L48 16L49 16L49 14L48 14L48 12L49 12L49 10L48 10L48 9L47 9L47 8L45 8L45 9L46 9L46 10L44 10L44 11L42 11L42 12L41 12L41 13L42 13L42 14L39 14L39 13L37 13L37 12L38 12L38 10L39 10L39 11L40 11L40 10L41 10L41 9L40 9L40 10L39 10L39 5L38 5L38 4L37 4L37 3L38 3L38 2L39 2L39 4L40 4L40 3L41 3L41 0L40 0L40 1L38 1L38 0L37 0L37 1L36 1L36 0L33 0L33 1L32 1L32 2L31 2L31 1L30 1L30 0L29 0L29 1L28 1L28 2L27 2L27 1L26 1L26 0L25 0L25 1L26 1L26 2L27 2L27 3L28 3L28 2L30 2L30 4L31 4L31 3L34 3L34 4L32 4L32 5L31 5L31 6L30 6L30 7L31 7L31 8L33 8L33 6L34 6L34 12L35 12L35 11L37 11L37 12L36 12L36 13L37 13L37 16L36 16L36 14L35 14L35 16L34 16L34 15L33 15L33 14L34 14L34 13L33 13L33 12L32 12L32 11L33 11L33 9L32 9L32 11L31 11L31 12L32 12L32 15L33 15L33 16L31 16L31 14L30 14L30 13L29 13L29 11L30 11L30 10L29 10L29 8L28 8L28 9L27 9L27 6L28 6L28 7L29 7L29 5L27 5L27 4L25 4L25 3L23 3L23 4L22 4L22 3L21 3L21 1L20 1L20 2L19 2L19 3L16 3L16 2L15 2L15 0ZM16 0L16 1L17 1L17 2L18 2L18 1L19 1L19 0ZM23 1L23 2L24 2L24 1ZM35 1L35 2L36 2L36 3L35 3L35 4L34 4L34 6L35 6L35 7L36 7L36 5L37 5L37 4L36 4L36 3L37 3L37 2L36 2L36 1ZM9 2L9 3L10 3L10 2ZM17 4L17 5L16 5L16 6L15 6L15 7L16 7L16 6L17 6L17 10L16 10L16 9L15 9L15 8L14 8L14 9L13 9L13 10L16 10L16 11L17 11L17 12L15 12L15 11L14 11L14 12L12 12L12 13L15 13L15 14L16 14L16 13L17 13L17 12L18 12L18 11L19 11L19 12L20 12L20 13L18 13L18 14L17 14L17 15L14 15L14 14L10 14L10 13L6 13L6 12L7 12L7 11L6 11L6 10L7 10L7 9L6 9L6 10L5 10L5 11L6 11L6 12L3 12L3 11L2 11L2 12L3 12L3 13L4 13L4 14L3 14L3 15L4 15L4 16L5 16L5 13L6 13L6 14L9 14L9 15L6 15L6 16L8 16L8 17L5 17L5 19L4 19L4 20L5 20L5 21L4 21L4 22L5 22L5 21L6 21L6 22L8 22L8 21L9 21L9 22L10 22L10 23L9 23L9 24L10 24L10 25L11 25L11 22L12 22L12 20L13 20L13 19L12 19L12 20L11 20L11 21L10 21L10 20L8 20L8 21L6 21L6 20L7 20L7 19L6 19L6 18L8 18L8 19L11 19L11 18L12 18L12 17L13 17L13 18L15 18L15 20L14 20L14 21L15 21L15 25L16 25L16 26L17 26L17 25L18 25L18 24L19 24L19 25L20 25L20 24L19 24L19 22L18 22L18 23L16 23L16 18L17 18L17 21L19 21L19 20L20 20L20 21L21 21L21 22L24 22L24 21L21 21L21 19L22 19L22 20L23 20L23 18L24 18L24 19L25 19L25 21L26 21L26 22L27 22L27 18L26 18L26 19L25 19L25 18L24 18L24 17L23 17L23 18L19 18L19 15L20 15L20 17L21 17L21 15L20 15L20 14L21 14L21 13L22 13L22 12L21 12L21 11L23 11L23 12L25 12L25 11L26 11L26 13L23 13L23 14L22 14L22 15L23 15L23 16L26 16L26 15L23 15L23 14L27 14L27 16L28 16L28 14L27 14L27 12L28 12L28 10L27 10L27 9L26 9L26 10L25 10L25 9L23 9L23 10L21 10L21 8L22 8L22 6L21 6L21 7L20 7L20 6L19 6L19 8L20 8L20 9L18 9L18 5L20 5L20 4ZM21 4L21 5L22 5L22 4ZM35 4L35 5L36 5L36 4ZM23 5L23 8L26 8L26 5ZM32 5L32 6L31 6L31 7L32 7L32 6L33 6L33 5ZM24 6L24 7L25 7L25 6ZM37 6L37 7L38 7L38 6ZM40 6L40 8L41 8L41 6ZM35 8L35 9L36 9L36 8ZM37 9L37 10L38 10L38 9ZM42 9L42 10L43 10L43 9ZM11 10L11 11L10 11L10 12L11 12L11 11L12 11L12 10ZM19 10L19 11L21 11L21 10ZM23 10L23 11L25 11L25 10ZM26 10L26 11L27 11L27 10ZM46 10L46 11L45 11L45 13L44 13L44 16L43 16L43 17L44 17L44 18L43 18L43 20L42 20L42 18L41 18L41 19L40 19L40 17L42 17L42 15L43 15L43 14L42 14L42 15L38 15L38 16L37 16L37 17L39 17L39 20L38 20L38 21L36 21L36 20L37 20L37 19L36 19L36 20L35 20L35 19L34 19L34 21L33 21L33 20L32 20L32 22L31 22L31 23L30 23L30 21L31 21L31 19L28 19L28 21L29 21L29 23L30 23L30 24L29 24L29 25L28 25L28 24L27 24L27 25L28 25L28 26L27 26L27 27L26 27L26 28L27 28L27 27L29 27L29 29L27 29L27 30L28 30L28 31L26 31L26 29L25 29L25 28L24 28L24 27L23 27L23 30L22 30L22 29L21 29L21 28L22 28L22 26L19 26L19 28L18 28L18 27L16 27L16 28L15 28L15 26L14 26L14 23L12 23L12 26L9 26L9 28L8 28L8 29L6 29L6 28L7 28L7 27L5 27L5 29L6 29L6 30L4 30L4 29L3 29L3 30L2 30L2 31L3 31L3 34L5 34L5 33L6 33L6 34L8 34L8 35L9 35L9 36L8 36L8 37L6 37L6 38L8 38L8 40L9 40L9 38L10 38L10 41L9 41L9 42L10 42L10 41L11 41L11 42L12 42L12 41L13 41L13 44L14 44L14 45L15 45L15 44L16 44L16 42L15 42L15 41L14 41L14 40L12 40L12 41L11 41L11 38L13 38L13 39L14 39L14 38L16 38L16 39L15 39L15 40L17 40L17 38L16 38L16 36L14 36L14 38L13 38L13 35L17 35L17 37L18 37L18 35L20 35L20 36L21 36L21 35L23 35L23 37L22 37L22 38L21 38L21 39L20 39L20 40L18 40L18 41L19 41L19 43L18 43L18 42L17 42L17 43L18 43L18 44L17 44L17 45L19 45L19 44L20 44L20 43L21 43L21 42L20 42L20 41L21 41L21 40L26 40L26 39L27 39L27 41L28 41L28 38L29 38L29 37L30 37L30 36L33 36L33 35L34 35L34 32L36 32L36 33L35 33L35 35L36 35L36 36L37 36L37 34L38 34L38 35L39 35L39 34L40 34L40 33L39 33L39 32L38 32L38 33L37 33L37 32L36 32L36 31L35 31L35 30L36 30L36 29L35 29L35 30L34 30L34 29L33 29L33 28L34 28L34 27L36 27L36 28L37 28L37 31L39 31L39 29L38 29L38 26L37 26L37 25L33 25L33 26L32 26L32 25L31 25L31 23L32 23L32 24L34 24L34 21L35 21L35 22L38 22L38 23L35 23L35 24L38 24L38 25L39 25L39 27L40 27L40 21L41 21L41 22L42 22L42 21L43 21L43 22L45 22L45 21L48 21L48 20L47 20L47 18L46 18L46 17L47 17L47 15L48 15L48 14L46 14L46 17L44 17L44 16L45 16L45 13L47 13L47 12L46 12L46 11L47 11L47 10ZM11 15L11 16L10 16L10 18L11 18L11 16L12 16L12 15ZM17 15L17 18L18 18L18 15ZM29 15L29 17L28 17L28 18L29 18L29 17L30 17L30 18L31 18L31 17L30 17L30 15ZM3 17L3 18L2 18L2 19L1 19L1 20L3 20L3 18L4 18L4 17ZM8 17L8 18L9 18L9 17ZM15 17L15 18L16 18L16 17ZM34 17L34 18L35 18L35 17ZM32 18L32 19L33 19L33 18ZM44 18L44 19L46 19L46 18ZM5 19L5 20L6 20L6 19ZM18 19L18 20L19 20L19 19ZM29 20L29 21L30 21L30 20ZM43 20L43 21L44 21L44 20ZM38 21L38 22L39 22L39 21ZM32 22L32 23L33 23L33 22ZM46 22L46 23L45 23L45 26L46 26L46 27L45 27L45 30L46 30L46 27L48 27L48 26L47 26L47 25L48 25L48 24L46 24L46 23L47 23L47 22ZM5 23L5 26L8 26L8 23ZM23 23L23 26L26 26L26 23ZM41 23L41 26L44 26L44 23ZM0 24L0 25L1 25L1 24ZM6 24L6 25L7 25L7 24ZM21 24L21 25L22 25L22 24ZM24 24L24 25L25 25L25 24ZM42 24L42 25L43 25L43 24ZM30 25L30 28L31 28L31 29L29 29L29 30L31 30L31 29L32 29L32 30L33 30L33 29L32 29L32 28L33 28L33 27L32 27L32 26L31 26L31 25ZM12 26L12 27L11 27L11 28L10 28L10 29L8 29L8 31L7 31L7 30L6 30L6 31L5 31L5 32L6 32L6 33L7 33L7 32L8 32L8 33L9 33L9 32L8 32L8 31L9 31L9 30L10 30L10 29L11 29L11 30L12 30L12 28L13 28L13 27L14 27L14 26ZM36 26L36 27L37 27L37 26ZM20 27L20 28L19 28L19 29L18 29L18 28L17 28L17 29L16 29L16 30L15 30L15 28L14 28L14 30L15 30L15 31L16 31L16 33L15 33L15 32L14 32L14 31L10 31L10 32L12 32L12 33L11 33L11 35L10 35L10 36L12 36L12 35L13 35L13 33L14 33L14 34L16 34L16 33L18 33L18 31L19 31L19 32L20 32L20 31L21 31L21 29L20 29L20 28L21 28L21 27ZM31 27L31 28L32 28L32 27ZM42 27L42 28L40 28L40 29L41 29L41 30L43 30L43 29L44 29L44 27ZM42 28L42 29L43 29L43 28ZM24 29L24 30L25 30L25 29ZM16 30L16 31L18 31L18 30ZM6 31L6 32L7 32L7 31ZM22 31L22 32L21 32L21 33L22 33L22 34L23 34L23 35L24 35L24 34L25 34L25 33L26 33L26 32L24 32L24 31ZM31 31L31 32L28 32L28 33L27 33L27 35L28 35L28 34L31 34L31 35L32 35L32 34L31 34L31 32L32 32L32 33L33 33L33 31ZM1 32L1 33L2 33L2 32ZM22 32L22 33L23 33L23 34L24 34L24 32ZM42 32L42 33L43 33L43 32ZM19 33L19 34L20 34L20 33ZM38 33L38 34L39 34L39 33ZM46 34L46 35L41 35L41 36L43 36L43 37L45 37L45 38L43 38L43 39L42 39L42 37L41 37L41 38L39 38L39 39L42 39L42 40L45 40L45 42L46 42L46 41L47 41L47 40L48 40L48 38L47 38L47 36L46 36L46 35L47 35L47 34ZM25 35L25 36L24 36L24 38L23 38L23 39L25 39L25 38L26 38L26 35ZM29 35L29 36L30 36L30 35ZM34 36L34 39L36 39L36 40L38 40L38 38L36 38L36 37L35 37L35 36ZM38 36L38 37L39 37L39 36ZM8 37L8 38L9 38L9 37ZM27 37L27 38L28 38L28 37ZM18 38L18 39L19 39L19 38ZM46 38L46 40L47 40L47 38ZM23 41L23 44L26 44L26 41ZM30 41L30 42L31 42L31 41ZM37 41L37 42L36 42L36 44L35 44L35 45L36 45L36 44L37 44L37 46L38 46L38 45L39 45L39 44L40 44L40 43L38 43L38 42L40 42L40 41ZM41 41L41 44L44 44L44 41ZM14 42L14 43L15 43L15 42ZM24 42L24 43L25 43L25 42ZM27 42L27 44L28 44L28 42ZM42 42L42 43L43 43L43 42ZM37 43L37 44L38 44L38 43ZM45 43L45 45L44 45L44 46L45 46L45 45L47 45L47 47L48 47L48 43ZM31 44L31 45L32 45L32 44ZM23 45L23 46L25 46L25 45ZM0 0L0 7L7 7L7 0ZM1 1L1 6L6 6L6 1ZM2 2L2 5L5 5L5 2ZM42 0L42 7L49 7L49 0ZM43 1L43 6L48 6L48 1ZM44 2L44 5L47 5L47 2ZM0 42L0 49L7 49L7 42ZM1 43L1 48L6 48L6 43ZM2 44L2 47L5 47L5 44Z" fill="#000000"/></g></g></svg>
