<?xml version="1.0" encoding="UTF-8"?>
<svg xmlns="http://www.w3.org/2000/svg" version="1.1" width="200" height="200" viewBox="0 0 200 200"><rect x="0" y="0" width="200" height="200" fill="#ffffff"/><g transform="scale(3.774)"><g transform="translate(2,2)"><path fill-rule="evenodd" d="M10 0L10 2L11 2L11 3L9 3L9 2L8 2L8 4L9 4L9 5L10 5L10 8L9 8L9 9L8 9L8 8L6 8L6 9L7 9L7 10L5 10L5 8L3 8L3 9L1 9L1 10L0 10L0 13L1 13L1 14L0 14L0 15L2 15L2 16L3 16L3 13L1 13L1 11L2 11L2 12L4 12L4 13L7 13L7 14L5 14L5 16L4 16L4 17L5 17L5 18L3 18L3 19L2 19L2 18L0 18L0 19L2 19L2 20L3 20L3 22L4 22L4 24L3 24L3 23L2 23L2 24L0 24L0 27L1 27L1 28L0 28L0 32L1 32L1 29L2 29L2 27L3 27L3 28L4 28L4 29L3 29L3 31L2 31L2 33L0 33L0 37L1 37L1 36L2 36L2 38L1 38L1 40L0 40L0 41L3 41L3 40L4 40L4 39L2 39L2 38L5 38L5 39L7 39L7 40L6 40L6 41L7 41L7 40L8 40L8 43L9 43L9 44L8 44L8 46L9 46L9 49L12 49L12 48L15 48L15 49L17 49L17 48L18 48L18 49L20 49L20 48L22 48L22 49L23 49L23 48L22 48L22 47L23 47L23 46L25 46L25 47L24 47L24 48L25 48L25 49L26 49L26 47L27 47L27 49L29 49L29 45L28 45L28 44L31 44L31 45L30 45L30 47L31 47L31 49L34 49L34 48L35 48L35 49L37 49L37 48L38 48L38 49L39 49L39 48L38 48L38 46L39 46L39 45L40 45L40 47L41 47L41 48L43 48L43 49L45 49L45 48L43 48L43 46L44 46L44 47L45 47L45 46L44 46L44 45L45 45L45 43L48 43L48 47L46 47L46 48L48 48L48 49L49 49L49 42L47 42L47 41L49 41L49 40L47 40L47 39L44 39L44 38L45 38L45 37L43 37L43 36L44 36L44 35L43 35L43 34L41 34L41 32L40 32L40 31L37 31L37 28L36 28L36 27L37 27L37 26L38 26L38 28L39 28L39 29L40 29L40 30L41 30L41 31L44 31L44 34L45 34L45 35L46 35L46 36L47 36L47 38L48 38L48 39L49 39L49 38L48 38L48 37L49 37L49 34L48 34L48 33L45 33L45 31L46 31L46 30L47 30L47 32L49 32L49 30L47 30L47 29L49 29L49 28L48 28L48 27L49 27L49 26L48 26L48 27L47 27L47 25L48 25L48 23L49 23L49 22L48 22L48 21L49 21L49 18L47 18L47 17L49 17L49 14L48 14L48 13L49 13L49 12L48 12L48 11L49 11L49 10L48 10L48 9L47 9L47 8L45 8L45 9L44 9L44 10L45 10L45 9L46 9L46 10L47 10L47 11L46 11L46 12L47 12L47 13L45 13L45 11L39 11L39 12L38 12L38 10L39 10L39 5L38 5L38 4L37 4L37 3L38 3L38 2L39 2L39 4L40 4L40 3L41 3L41 0L40 0L40 1L36 1L36 0L32 0L32 1L31 1L31 0L29 0L29 2L30 2L30 1L31 1L31 3L32 3L32 4L33 4L33 5L31 5L31 4L29 4L29 5L28 5L28 4L22 4L22 2L21 2L21 1L20 1L20 2L21 2L21 3L19 3L19 1L18 1L18 0L17 0L17 1L16 1L16 0L12 0L12 1L13 1L13 2L14 2L14 4L15 4L15 5L10 5L10 4L13 4L13 3L12 3L12 2L11 2L11 0ZM22 0L22 1L24 1L24 2L25 2L25 3L26 3L26 1L28 1L28 0L25 0L25 1L24 1L24 0ZM17 1L17 2L15 2L15 4L16 4L16 5L17 5L17 8L16 8L16 9L15 9L15 8L14 8L14 6L13 6L13 10L12 10L12 11L9 11L9 13L8 13L8 14L7 14L7 15L6 15L6 16L7 16L7 15L8 15L8 18L9 18L9 20L8 20L8 21L9 21L9 24L11 24L11 25L10 25L10 27L5 27L5 28L7 28L7 29L4 29L4 31L3 31L3 32L4 32L4 31L6 31L6 32L8 32L8 33L6 33L6 34L5 34L5 35L3 35L3 36L4 36L4 37L5 37L5 38L7 38L7 37L6 37L6 36L7 36L7 35L6 35L6 34L8 34L8 36L9 36L9 38L8 38L8 39L10 39L10 36L11 36L11 35L12 35L12 37L11 37L11 38L12 38L12 39L11 39L11 42L9 42L9 43L11 43L11 44L9 44L9 45L11 45L11 47L10 47L10 48L11 48L11 47L14 47L14 45L15 45L15 44L18 44L18 45L16 45L16 46L17 46L17 47L15 47L15 48L17 48L17 47L18 47L18 48L19 48L19 47L20 47L20 44L21 44L21 46L22 46L22 42L21 42L21 37L22 37L22 38L23 38L23 39L24 39L24 40L25 40L25 38L26 38L26 39L27 39L27 41L28 41L28 42L29 42L29 43L31 43L31 44L32 44L32 45L31 45L31 47L32 47L32 46L33 46L33 48L34 48L34 45L33 45L33 44L35 44L35 46L36 46L36 44L37 44L37 46L38 46L38 45L39 45L39 44L40 44L40 43L38 43L38 42L40 42L40 41L36 41L36 42L37 42L37 43L36 43L36 44L35 44L35 43L34 43L34 41L35 41L35 40L34 40L34 39L35 39L35 38L37 38L37 39L36 39L36 40L38 40L38 38L37 38L37 37L38 37L38 36L39 36L39 34L40 34L40 33L39 33L39 32L38 32L38 33L37 33L37 32L36 32L36 31L35 31L35 30L36 30L36 29L35 29L35 27L36 27L36 26L37 26L37 25L38 25L38 23L39 23L39 24L40 24L40 21L41 21L41 22L42 22L42 21L43 21L43 22L45 22L45 21L48 21L48 20L47 20L47 18L46 18L46 16L45 16L45 15L44 15L44 16L41 16L41 15L38 15L38 14L37 14L37 15L36 15L36 16L37 16L37 17L36 17L36 18L37 18L37 17L39 17L39 20L38 20L38 21L37 21L37 22L36 22L36 20L37 20L37 19L36 19L36 20L35 20L35 19L34 19L34 21L32 21L32 18L33 18L33 16L31 16L31 17L30 17L30 14L29 14L29 13L32 13L32 14L31 14L31 15L32 15L32 14L33 14L33 15L34 15L34 16L35 16L35 14L36 14L36 13L35 13L35 11L34 11L34 9L33 9L33 11L34 11L34 13L32 13L32 12L31 12L31 10L32 10L32 9L31 9L31 10L29 10L29 11L30 11L30 12L28 12L28 11L27 11L27 10L26 10L26 13L25 13L25 11L23 11L23 10L24 10L24 9L22 9L22 8L20 8L20 9L19 9L19 11L20 11L20 12L18 12L18 10L17 10L17 8L18 8L18 5L19 5L19 7L20 7L20 6L21 6L21 7L22 7L22 6L21 6L21 5L22 5L22 4L21 4L21 5L20 5L20 4L19 4L19 3L18 3L18 4L16 4L16 3L17 3L17 2L18 2L18 1ZM32 1L32 3L33 3L33 4L34 4L34 6L33 6L33 8L35 8L35 9L36 9L36 8L35 8L35 7L36 7L36 5L37 5L37 4L36 4L36 3L37 3L37 2L36 2L36 1L35 1L35 2L36 2L36 3L35 3L35 4L34 4L34 3L33 3L33 1ZM27 2L27 3L28 3L28 2ZM35 4L35 5L36 5L36 4ZM23 5L23 8L26 8L26 5ZM27 5L27 7L28 7L28 5ZM30 5L30 6L29 6L29 7L30 7L30 8L32 8L32 6L31 6L31 5ZM8 6L8 7L9 7L9 6ZM11 6L11 8L10 8L10 9L9 9L9 10L11 10L11 8L12 8L12 6ZM15 6L15 7L16 7L16 6ZM24 6L24 7L25 7L25 6ZM30 6L30 7L31 7L31 6ZM34 6L34 7L35 7L35 6ZM37 6L37 7L38 7L38 6ZM40 6L40 7L41 7L41 6ZM3 9L3 10L4 10L4 12L8 12L8 11L5 11L5 10L4 10L4 9ZM14 9L14 10L13 10L13 11L12 11L12 12L13 12L13 11L14 11L14 12L15 12L15 11L14 11L14 10L15 10L15 9ZM21 9L21 11L22 11L22 9ZM37 9L37 10L38 10L38 9ZM40 9L40 10L41 10L41 9ZM42 9L42 10L43 10L43 9ZM16 11L16 12L17 12L17 11ZM36 11L36 12L37 12L37 11ZM10 12L10 13L9 13L9 14L8 14L8 15L10 15L10 17L9 17L9 18L10 18L10 19L11 19L11 20L12 20L12 19L11 19L11 18L15 18L15 20L14 20L14 19L13 19L13 20L14 20L14 21L15 21L15 20L16 20L16 19L17 19L17 18L18 18L18 16L17 16L17 15L18 15L18 14L16 14L16 13L14 13L14 14L16 14L16 15L14 15L14 17L11 17L11 16L13 16L13 15L11 15L11 14L12 14L12 13L11 13L11 12ZM20 12L20 13L19 13L19 14L21 14L21 15L22 15L22 14L23 14L23 17L22 17L22 16L21 16L21 18L20 18L20 15L19 15L19 18L20 18L20 19L18 19L18 20L17 20L17 22L18 22L18 21L20 21L20 19L22 19L22 18L23 18L23 19L24 19L24 22L23 22L23 21L22 21L22 20L21 20L21 22L22 22L22 23L21 23L21 24L19 24L19 23L17 23L17 24L19 24L19 27L18 27L18 25L17 25L17 28L16 28L16 27L15 27L15 28L16 28L16 29L15 29L15 30L14 30L14 29L13 29L13 28L14 28L14 27L12 27L12 25L11 25L11 27L10 27L10 28L9 28L9 30L10 30L10 31L9 31L9 32L10 32L10 33L9 33L9 34L10 34L10 35L11 35L11 31L12 31L12 34L13 34L13 35L14 35L14 37L13 37L13 40L14 40L14 39L15 39L15 40L17 40L17 41L15 41L15 42L16 42L16 43L17 43L17 41L18 41L18 40L17 40L17 39L18 39L18 38L19 38L19 42L18 42L18 43L19 43L19 42L20 42L20 37L19 37L19 35L20 35L20 33L21 33L21 34L24 34L24 35L25 35L25 36L24 36L24 37L23 37L23 36L22 36L22 35L21 35L21 36L22 36L22 37L23 37L23 38L24 38L24 37L27 37L27 36L26 36L26 35L27 35L27 34L30 34L30 33L31 33L31 32L32 32L32 33L34 33L34 35L32 35L32 34L31 34L31 35L30 35L30 36L29 36L29 35L28 35L28 37L30 37L30 41L29 41L29 42L31 42L31 43L33 43L33 42L31 42L31 40L32 40L32 41L33 41L33 40L32 40L32 39L33 39L33 36L34 36L34 37L37 37L37 36L35 36L35 33L36 33L36 32L35 32L35 31L34 31L34 32L33 32L33 30L32 30L32 29L33 29L33 28L32 28L32 26L33 26L33 25L35 25L35 26L36 26L36 25L37 25L37 24L35 24L35 23L36 23L36 22L35 22L35 21L34 21L34 24L32 24L32 23L33 23L33 22L32 22L32 21L31 21L31 19L30 19L30 17L29 17L29 16L26 16L26 15L27 15L27 13L26 13L26 15L25 15L25 13L24 13L24 14L23 14L23 13L22 13L22 12ZM39 12L39 14L42 14L42 15L43 15L43 14L44 14L44 13L43 13L43 14L42 14L42 13L41 13L41 12ZM28 14L28 15L29 15L29 14ZM46 14L46 15L47 15L47 16L48 16L48 14ZM24 15L24 16L25 16L25 17L26 17L26 16L25 16L25 15ZM37 15L37 16L38 16L38 15ZM44 16L44 19L46 19L46 18L45 18L45 16ZM6 17L6 18L5 18L5 19L3 19L3 20L7 20L7 19L6 19L6 18L7 18L7 17ZM15 17L15 18L17 18L17 17ZM27 17L27 18L25 18L25 19L27 19L27 18L28 18L28 17ZM31 17L31 18L32 18L32 17ZM34 17L34 18L35 18L35 17ZM40 17L40 19L42 19L42 20L43 20L43 21L44 21L44 20L43 20L43 17ZM0 20L0 23L1 23L1 20ZM25 20L25 22L27 22L27 27L26 27L26 30L25 30L25 33L26 33L26 30L27 30L27 32L28 32L28 33L30 33L30 32L31 32L31 31L32 31L32 30L31 30L31 31L30 31L30 30L29 30L29 31L30 31L30 32L28 32L28 30L27 30L27 29L32 29L32 28L29 28L29 27L30 27L30 25L28 25L28 24L29 24L29 23L30 23L30 24L31 24L31 22L29 22L29 23L28 23L28 21L29 21L29 20L27 20L27 21L26 21L26 20ZM5 21L5 22L7 22L7 21ZM10 21L10 23L11 23L11 24L12 24L12 23L13 23L13 24L14 24L14 25L15 25L15 22L13 22L13 21L12 21L12 22L11 22L11 21ZM38 21L38 22L37 22L37 23L38 23L38 22L39 22L39 21ZM46 22L46 23L45 23L45 26L46 26L46 25L47 25L47 24L46 24L46 23L47 23L47 22ZM5 23L5 26L8 26L8 23ZM23 23L23 26L26 26L26 23ZM41 23L41 26L44 26L44 23ZM6 24L6 25L7 25L7 24ZM24 24L24 25L25 25L25 24ZM42 24L42 25L43 25L43 24ZM1 25L1 27L2 27L2 26L3 26L3 25ZM21 25L21 27L22 27L22 25ZM31 25L31 26L32 26L32 25ZM39 25L39 27L40 27L40 25ZM28 26L28 27L27 27L27 28L28 28L28 27L29 27L29 26ZM42 27L42 28L41 28L41 29L42 29L42 28L43 28L43 29L44 29L44 31L45 31L45 30L46 30L46 27L45 27L45 28L44 28L44 27ZM11 28L11 29L10 29L10 30L11 30L11 29L12 29L12 31L13 31L13 32L14 32L14 33L13 33L13 34L14 34L14 35L15 35L15 36L16 36L16 37L15 37L15 38L16 38L16 37L17 37L17 38L18 38L18 35L19 35L19 34L18 34L18 35L17 35L17 34L16 34L16 33L17 33L17 32L18 32L18 33L19 33L19 32L18 32L18 29L17 29L17 32L16 32L16 33L15 33L15 31L16 31L16 30L15 30L15 31L14 31L14 30L13 30L13 29L12 29L12 28ZM19 28L19 29L20 29L20 32L21 32L21 33L22 33L22 32L24 32L24 29L25 29L25 28L22 28L22 29L21 29L21 28ZM7 29L7 30L6 30L6 31L8 31L8 29ZM34 29L34 30L35 30L35 29ZM42 32L42 33L43 33L43 32ZM2 33L2 34L1 34L1 35L2 35L2 34L4 34L4 33ZM14 33L14 34L15 34L15 33ZM38 33L38 34L37 34L37 35L38 35L38 34L39 34L39 33ZM5 35L5 36L6 36L6 35ZM16 35L16 36L17 36L17 35ZM41 35L41 36L43 36L43 35ZM30 36L30 37L31 37L31 38L32 38L32 37L31 37L31 36ZM41 37L41 38L39 38L39 39L42 39L42 40L44 40L44 39L42 39L42 37ZM27 38L27 39L28 39L28 38ZM9 40L9 41L10 41L10 40ZM45 40L45 42L46 42L46 40ZM12 41L12 42L11 42L11 43L12 43L12 46L13 46L13 44L14 44L14 43L13 43L13 41ZM23 41L23 44L26 44L26 41ZM41 41L41 44L44 44L44 41ZM24 42L24 43L25 43L25 42ZM42 42L42 43L43 43L43 42ZM27 43L27 44L28 44L28 43ZM37 43L37 44L38 44L38 43ZM26 45L26 46L27 46L27 47L28 47L28 45ZM41 45L41 46L42 46L42 45ZM46 45L46 46L47 46L47 45ZM18 46L18 47L19 47L19 46ZM35 47L35 48L37 48L37 47ZM0 0L0 7L7 7L7 0ZM1 1L1 6L6 6L6 1ZM2 2L2 5L5 5L5 2ZM42 0L42 7L49 7L49 0ZM43 1L43 6L48 6L48 1ZM44 2L44 5L47 5L47 2ZM0 42L0 49L7 49L7 42ZM1 43L1 48L6 48L6 43ZM2 44L2 47L5 47L5 44Z" fill="#000000"/></g></g></svg>
