<?xml version="1.0" encoding="UTF-8"?>
<svg xmlns="http://www.w3.org/2000/svg" version="1.1" width="200" height="200" viewBox="0 0 200 200"><rect x="0" y="0" width="200" height="200" fill="#ffffff"/><g transform="scale(3.774)"><g transform="translate(2,2)"><path fill-rule="evenodd" d="M8 0L8 3L9 3L9 2L10 2L10 3L11 3L11 6L10 6L10 8L9 8L9 5L10 5L10 4L9 4L9 5L8 5L8 9L7 9L7 8L6 8L6 9L7 9L7 10L6 10L6 11L3 11L3 12L2 12L2 10L4 10L4 9L5 9L5 8L2 8L2 10L1 10L1 9L0 9L0 10L1 10L1 11L0 11L0 15L1 15L1 14L2 14L2 15L3 15L3 16L2 16L2 17L3 17L3 18L1 18L1 19L0 19L0 21L1 21L1 20L2 20L2 21L3 21L3 25L1 25L1 24L0 24L0 27L1 27L1 28L0 28L0 30L1 30L1 29L2 29L2 31L1 31L1 32L0 32L0 34L1 34L1 32L3 32L3 33L2 33L2 35L3 35L3 37L4 37L4 38L5 38L5 39L7 39L7 40L6 40L6 41L7 41L7 40L8 40L8 39L7 39L7 38L5 38L5 37L7 37L7 36L5 36L5 35L8 35L8 33L10 33L10 34L11 34L11 35L12 35L12 34L13 34L13 36L15 36L15 37L14 37L14 39L13 39L13 38L11 38L11 37L12 37L12 36L10 36L10 35L9 35L9 37L10 37L10 38L11 38L11 39L12 39L12 40L10 40L10 41L11 41L11 43L10 43L10 44L8 44L8 47L10 47L10 48L9 48L9 49L10 49L10 48L11 48L11 47L12 47L12 48L13 48L13 49L16 49L16 48L17 48L17 49L19 49L19 48L20 48L20 49L21 49L21 47L22 47L22 48L23 48L23 49L24 49L24 48L25 48L25 49L28 49L28 48L27 48L27 46L28 46L28 47L29 47L29 48L30 48L30 49L31 49L31 48L33 48L33 49L35 49L35 48L36 48L36 49L39 49L39 48L40 48L40 49L42 49L42 48L43 48L43 46L45 46L45 48L46 48L46 49L49 49L49 42L48 42L48 41L49 41L49 40L48 40L48 41L47 41L47 40L46 40L46 41L45 41L45 40L42 40L42 39L43 39L43 37L45 37L45 38L46 38L46 39L47 39L47 38L48 38L48 39L49 39L49 38L48 38L48 37L49 37L49 34L48 34L48 33L47 33L47 32L49 32L49 30L48 30L48 29L49 29L49 28L48 28L48 27L49 27L49 26L48 26L48 27L47 27L47 28L46 28L46 26L47 26L47 24L46 24L46 22L45 22L45 21L44 21L44 22L43 22L43 21L42 21L42 22L40 22L40 21L41 21L41 20L40 20L40 19L39 19L39 20L40 20L40 21L39 21L39 22L37 22L37 20L36 20L36 19L37 19L37 18L40 18L40 17L39 17L39 16L41 16L41 17L42 17L42 20L46 20L46 21L47 21L47 22L48 22L48 23L49 23L49 22L48 22L48 21L49 21L49 18L48 18L48 17L49 17L49 14L48 14L48 13L49 13L49 12L48 12L48 13L47 13L47 12L46 12L46 11L45 11L45 10L46 10L46 9L47 9L47 10L48 10L48 11L49 11L49 10L48 10L48 9L49 9L49 8L46 8L46 9L45 9L45 10L44 10L44 11L42 11L42 10L43 10L43 9L44 9L44 8L40 8L40 7L41 7L41 6L40 6L40 7L39 7L39 5L38 5L38 4L37 4L37 3L36 3L36 2L37 2L37 1L38 1L38 2L39 2L39 4L40 4L40 3L41 3L41 0L40 0L40 1L38 1L38 0L37 0L37 1L36 1L36 2L35 2L35 1L34 1L34 0L33 0L33 1L32 1L32 0L31 0L31 1L30 1L30 0L29 0L29 1L30 1L30 2L32 2L32 3L31 3L31 4L30 4L30 5L31 5L31 4L32 4L32 3L33 3L33 5L32 5L32 7L31 7L31 6L30 6L30 7L29 7L29 5L28 5L28 8L27 8L27 4L29 4L29 2L28 2L28 1L27 1L27 0L26 0L26 1L25 1L25 0L24 0L24 1L23 1L23 2L22 2L22 3L21 3L21 4L20 4L20 1L22 1L22 0L19 0L19 1L18 1L18 2L17 2L17 0L15 0L15 1L16 1L16 3L15 3L15 2L13 2L13 3L12 3L12 2L11 2L11 1L13 1L13 0L11 0L11 1L9 1L9 0ZM24 1L24 2L23 2L23 4L26 4L26 3L28 3L28 2L27 2L27 1L26 1L26 2L25 2L25 1ZM33 1L33 2L34 2L34 5L33 5L33 7L32 7L32 8L31 8L31 7L30 7L30 8L31 8L31 10L30 10L30 9L29 9L29 8L28 8L28 9L26 9L26 10L30 10L30 11L28 11L28 12L27 12L27 11L24 11L24 9L23 9L23 10L22 10L22 9L21 9L21 8L22 8L22 4L21 4L21 5L19 5L19 3L18 3L18 6L17 6L17 5L14 5L14 4L15 4L15 3L13 3L13 5L14 5L14 6L13 6L13 8L15 8L15 7L16 7L16 6L17 6L17 7L18 7L18 9L17 9L17 10L15 10L15 9L14 9L14 12L13 12L13 13L14 13L14 15L13 15L13 17L15 17L15 16L17 16L17 17L16 17L16 20L15 20L15 18L13 18L13 19L14 19L14 20L15 20L15 21L16 21L16 20L17 20L17 22L14 22L14 23L17 23L17 24L18 24L18 27L20 27L20 28L19 28L19 30L20 30L20 28L21 28L21 31L22 31L22 30L23 30L23 29L25 29L25 32L24 32L24 33L22 33L22 35L19 35L19 34L18 34L18 33L16 33L16 34L15 34L15 35L16 35L16 36L17 36L17 38L18 38L18 39L17 39L17 40L16 40L16 39L15 39L15 40L16 40L16 41L14 41L14 40L12 40L12 43L13 43L13 42L16 42L16 41L18 41L18 42L17 42L17 44L16 44L16 43L15 43L15 44L13 44L13 46L12 46L12 44L10 44L10 45L11 45L11 46L12 46L12 47L15 47L15 46L16 46L16 45L17 45L17 46L19 46L19 47L17 47L17 48L19 48L19 47L21 47L21 46L22 46L22 45L19 45L19 44L20 44L20 43L21 43L21 44L22 44L22 43L21 43L21 41L22 41L22 40L23 40L23 39L24 39L24 40L25 40L25 39L26 39L26 40L27 40L27 42L28 42L28 43L29 43L29 44L30 44L30 43L34 43L34 46L32 46L32 45L33 45L33 44L31 44L31 46L30 46L30 48L31 48L31 47L34 47L34 48L35 48L35 47L36 47L36 48L39 48L39 47L40 47L40 46L41 46L41 48L42 48L42 45L40 45L40 46L39 46L39 44L38 44L38 43L39 43L39 40L41 40L41 39L42 39L42 36L43 36L43 35L44 35L44 36L45 36L45 37L46 37L46 38L47 38L47 37L48 37L48 34L47 34L47 33L46 33L46 32L47 32L47 31L48 31L48 30L47 30L47 29L46 29L46 28L45 28L45 27L42 27L42 28L41 28L41 27L40 27L40 26L39 26L39 24L38 24L38 23L37 23L37 22L36 22L36 20L35 20L35 19L36 19L36 18L37 18L37 17L38 17L38 16L37 16L37 15L36 15L36 14L35 14L35 13L36 13L36 12L37 12L37 14L39 14L39 13L40 13L40 15L41 15L41 14L42 14L42 15L44 15L44 14L46 14L46 12L43 12L43 13L44 13L44 14L42 14L42 11L41 11L41 10L42 10L42 9L40 9L40 8L39 8L39 7L38 7L38 6L37 6L37 10L39 10L39 9L40 9L40 11L41 11L41 13L40 13L40 12L39 12L39 11L38 11L38 12L37 12L37 11L36 11L36 10L35 10L35 9L36 9L36 8L35 8L35 7L36 7L36 6L35 6L35 7L34 7L34 5L37 5L37 4L36 4L36 3L35 3L35 2L34 2L34 1ZM16 3L16 4L17 4L17 3ZM23 5L23 8L26 8L26 5ZM11 6L11 7L12 7L12 6ZM14 6L14 7L15 7L15 6ZM18 6L18 7L19 7L19 6ZM20 6L20 8L21 8L21 6ZM24 6L24 7L25 7L25 6ZM33 7L33 8L32 8L32 9L33 9L33 10L34 10L34 12L33 12L33 11L32 11L32 10L31 10L31 13L30 13L30 12L28 12L28 13L27 13L27 12L25 12L25 13L24 13L24 11L22 11L22 10L21 10L21 9L20 9L20 11L17 11L17 12L19 12L19 14L20 14L20 15L19 15L19 18L18 18L18 20L19 20L19 19L20 19L20 18L21 18L21 21L20 21L20 23L21 23L21 21L23 21L23 20L22 20L22 19L23 19L23 18L21 18L21 17L20 17L20 15L22 15L22 13L24 13L24 14L23 14L23 15L24 15L24 17L25 17L25 19L24 19L24 22L22 22L22 24L21 24L21 26L20 26L20 27L21 27L21 28L22 28L22 27L23 27L23 28L25 28L25 29L26 29L26 30L27 30L27 32L25 32L25 33L24 33L24 34L23 34L23 35L22 35L22 36L23 36L23 38L24 38L24 37L25 37L25 38L27 38L27 39L28 39L28 42L29 42L29 43L30 43L30 42L31 42L31 40L34 40L34 39L35 39L35 40L36 40L36 41L38 41L38 40L36 40L36 39L39 39L39 38L36 38L36 39L35 39L35 38L34 38L34 36L36 36L36 37L37 37L37 36L38 36L38 37L40 37L40 39L41 39L41 37L40 37L40 36L38 36L38 35L41 35L41 36L42 36L42 35L43 35L43 34L42 34L42 35L41 35L41 34L40 34L40 32L39 32L39 34L37 34L37 36L36 36L36 34L34 34L34 32L35 32L35 33L36 33L36 32L37 32L37 31L39 31L39 30L40 30L40 31L41 31L41 30L42 30L42 31L43 31L43 32L42 32L42 33L45 33L45 32L46 32L46 31L47 31L47 30L46 30L46 29L45 29L45 28L44 28L44 29L43 29L43 28L42 28L42 29L41 29L41 28L38 28L38 29L39 29L39 30L37 30L37 28L36 28L36 27L39 27L39 26L36 26L36 25L37 25L37 24L36 24L36 23L35 23L35 22L34 22L34 21L35 21L35 20L32 20L32 19L34 19L34 18L35 18L35 16L36 16L36 17L37 17L37 16L36 16L36 15L35 15L35 14L34 14L34 13L35 13L35 10L34 10L34 7ZM10 8L10 9L8 9L8 11L6 11L6 12L5 12L5 13L6 13L6 14L3 14L3 13L4 13L4 12L3 12L3 13L2 13L2 12L1 12L1 13L2 13L2 14L3 14L3 15L6 15L6 16L3 16L3 17L4 17L4 18L8 18L8 17L9 17L9 18L10 18L10 19L11 19L11 21L9 21L9 19L4 19L4 20L3 20L3 19L2 19L2 20L3 20L3 21L4 21L4 22L7 22L7 21L8 21L8 22L9 22L9 23L10 23L10 22L11 22L11 24L10 24L10 25L9 25L9 26L11 26L11 24L12 24L12 27L13 27L13 23L12 23L12 21L13 21L13 20L12 20L12 18L11 18L11 17L10 17L10 16L12 16L12 12L11 12L11 11L13 11L13 10L11 10L11 8ZM38 8L38 9L39 9L39 8ZM8 11L8 12L9 12L9 11ZM15 11L15 12L16 12L16 11ZM20 11L20 13L21 13L21 11ZM6 12L6 13L7 13L7 12ZM10 12L10 13L8 13L8 14L6 14L6 15L8 15L8 16L10 16L10 13L11 13L11 12ZM32 12L32 13L31 13L31 14L32 14L32 13L33 13L33 12ZM15 13L15 15L16 15L16 13ZM25 13L25 15L29 15L29 16L30 16L30 14L29 14L29 13L28 13L28 14L26 14L26 13ZM17 14L17 15L18 15L18 14ZM33 14L33 16L34 16L34 14ZM47 14L47 15L45 15L45 16L42 16L42 17L43 17L43 19L45 19L45 18L44 18L44 17L46 17L46 18L47 18L47 19L46 19L46 20L47 20L47 21L48 21L48 20L47 20L47 19L48 19L48 18L47 18L47 17L48 17L48 14ZM31 15L31 17L29 17L29 20L30 20L30 19L32 19L32 15ZM6 16L6 17L7 17L7 16ZM22 16L22 17L23 17L23 16ZM25 16L25 17L27 17L27 16ZM46 16L46 17L47 17L47 16ZM33 17L33 18L34 18L34 17ZM25 19L25 20L27 20L27 21L28 21L28 22L27 22L27 23L28 23L28 24L29 24L29 27L34 27L34 26L35 26L35 25L36 25L36 24L35 24L35 23L34 23L34 22L32 22L32 24L31 24L31 23L30 23L30 22L31 22L31 21L30 21L30 22L29 22L29 21L28 21L28 19ZM5 20L5 21L7 21L7 20ZM18 21L18 22L17 22L17 23L18 23L18 24L19 24L19 23L18 23L18 22L19 22L19 21ZM25 21L25 22L26 22L26 21ZM0 22L0 23L1 23L1 22ZM28 22L28 23L29 23L29 22ZM39 22L39 23L40 23L40 22ZM5 23L5 26L8 26L8 23ZM23 23L23 26L26 26L26 23ZM33 23L33 26L34 26L34 23ZM41 23L41 26L44 26L44 23ZM6 24L6 25L7 25L7 24ZM14 24L14 25L16 25L16 26L14 26L14 27L15 27L15 28L16 28L16 26L17 26L17 25L16 25L16 24ZM24 24L24 25L25 25L25 24ZM30 24L30 26L32 26L32 25L31 25L31 24ZM42 24L42 25L43 25L43 24ZM45 24L45 25L46 25L46 24ZM3 25L3 26L4 26L4 25ZM27 25L27 26L28 26L28 25ZM21 26L21 27L22 27L22 26ZM3 27L3 28L4 28L4 30L3 30L3 31L4 31L4 30L5 30L5 31L6 31L6 32L8 32L8 31L6 31L6 30L7 30L7 29L5 29L5 28L8 28L8 27ZM10 27L10 28L11 28L11 29L12 29L12 30L11 30L11 31L10 31L10 33L11 33L11 34L12 34L12 30L13 30L13 31L14 31L14 30L15 30L15 31L17 31L17 32L18 32L18 30L17 30L17 29L18 29L18 28L17 28L17 29L14 29L14 28L11 28L11 27ZM27 27L27 30L28 30L28 29L29 29L29 30L30 30L30 29L34 29L34 30L31 30L31 32L33 32L33 31L34 31L34 30L35 30L35 32L36 32L36 30L35 30L35 29L36 29L36 28L30 28L30 29L29 29L29 28L28 28L28 27ZM8 29L8 30L10 30L10 29ZM13 29L13 30L14 30L14 29ZM40 29L40 30L41 30L41 29ZM44 29L44 30L43 30L43 31L44 31L44 32L45 32L45 31L44 31L44 30L45 30L45 29ZM4 32L4 33L3 33L3 34L5 34L5 32ZM13 32L13 34L14 34L14 33L15 33L15 32ZM19 32L19 33L20 33L20 32ZM29 32L29 33L27 33L27 34L26 34L26 35L24 35L24 36L25 36L25 37L28 37L28 38L29 38L29 40L30 40L30 37L31 37L31 39L32 39L32 38L33 38L33 39L34 39L34 38L33 38L33 36L29 36L29 34L30 34L30 32ZM6 33L6 34L7 34L7 33ZM31 33L31 34L32 34L32 33ZM17 34L17 35L18 35L18 36L19 36L19 37L18 37L18 38L19 38L19 41L21 41L21 39L22 39L22 38L21 38L21 37L20 37L20 36L19 36L19 35L18 35L18 34ZM33 34L33 35L34 35L34 34ZM44 34L44 35L45 35L45 36L46 36L46 37L47 37L47 36L46 36L46 35L47 35L47 34ZM26 35L26 36L28 36L28 35ZM0 36L0 37L2 37L2 36ZM19 37L19 38L20 38L20 37ZM1 38L1 40L0 40L0 41L3 41L3 40L4 40L4 39L2 39L2 38ZM8 41L8 42L9 42L9 41ZM23 41L23 44L26 44L26 41ZM29 41L29 42L30 42L30 41ZM33 41L33 42L34 42L34 41ZM41 41L41 44L44 44L44 41ZM46 41L46 44L45 44L45 46L48 46L48 42L47 42L47 41ZM18 42L18 43L20 43L20 42ZM24 42L24 43L25 43L25 42ZM36 42L36 43L35 43L35 44L36 44L36 47L39 47L39 46L37 46L37 45L38 45L38 44L36 44L36 43L38 43L38 42ZM42 42L42 43L43 43L43 42ZM15 44L15 45L16 45L16 44ZM17 44L17 45L18 45L18 44ZM46 44L46 45L47 45L47 44ZM26 45L26 46L24 46L24 47L26 47L26 46L27 46L27 45ZM28 45L28 46L29 46L29 45ZM34 46L34 47L35 47L35 46ZM46 47L46 48L48 48L48 47ZM0 0L0 7L7 7L7 0ZM1 1L1 6L6 6L6 1ZM2 2L2 5L5 5L5 2ZM42 0L42 7L49 7L49 0ZM43 1L43 6L48 6L48 1ZM44 2L44 5L47 5L47 2ZM0 42L0 49L7 49L7 42ZM1 43L1 48L6 48L6 43ZM2 44L2 47L5 47L5 44Z" fill="#000000"/></g></g></svg>
