<?xml version="1.0" encoding="UTF-8"?>
<svg xmlns="http://www.w3.org/2000/svg" version="1.1" width="200" height="200" viewBox="0 0 200 200"><rect x="0" y="0" width="200" height="200" fill="#ffffff"/><g transform="scale(3.774)"><g transform="translate(2,2)"><path fill-rule="evenodd" d="M8 0L8 1L9 1L9 3L8 3L8 4L9 4L9 3L10 3L10 2L11 2L11 3L12 3L12 2L13 2L13 4L14 4L14 1L15 1L15 0L14 0L14 1L13 1L13 0ZM19 0L19 1L20 1L20 0ZM27 0L27 2L26 2L26 3L22 3L22 2L18 2L18 1L16 1L16 2L15 2L15 3L16 3L16 2L17 2L17 3L18 3L18 4L15 4L15 6L14 6L14 5L12 5L12 4L10 4L10 8L8 8L8 9L10 9L10 10L6 10L6 9L7 9L7 8L4 8L4 9L5 9L5 10L3 10L3 8L2 8L2 9L0 9L0 10L1 10L1 11L2 11L2 12L3 12L3 18L4 18L4 17L5 17L5 20L4 20L4 19L3 19L3 20L1 20L1 21L2 21L2 23L1 23L1 22L0 22L0 25L1 25L1 24L2 24L2 26L0 26L0 29L1 29L1 31L2 31L2 32L0 32L0 33L2 33L2 32L3 32L3 33L7 33L7 34L5 34L5 35L4 35L4 34L3 34L3 35L0 35L0 38L1 38L1 40L0 40L0 41L3 41L3 40L4 40L4 39L2 39L2 37L3 37L3 35L4 35L4 36L5 36L5 37L4 37L4 38L5 38L5 39L7 39L7 38L8 38L8 39L11 39L11 41L12 41L12 42L11 42L11 43L10 43L10 42L9 42L9 41L10 41L10 40L8 40L8 42L9 42L9 43L8 43L8 45L10 45L10 46L11 46L11 47L10 47L10 49L11 49L11 48L12 48L12 45L13 45L13 46L14 46L14 48L13 48L13 49L14 49L14 48L16 48L16 49L19 49L19 46L20 46L20 48L21 48L21 49L24 49L24 48L23 48L23 47L24 47L24 46L23 46L23 45L27 45L27 47L25 47L25 48L26 48L26 49L27 49L27 47L28 47L28 45L27 45L27 44L29 44L29 45L30 45L30 44L29 44L29 43L30 43L30 41L31 41L31 42L32 42L32 45L31 45L31 46L30 46L30 49L31 49L31 46L32 46L32 49L33 49L33 48L34 48L34 45L35 45L35 46L36 46L36 49L37 49L37 47L38 47L38 45L39 45L39 49L40 49L40 48L41 48L41 49L42 49L42 47L43 47L43 48L44 48L44 49L46 49L46 47L47 47L47 49L49 49L49 48L48 48L48 47L49 47L49 46L48 46L48 45L49 45L49 44L48 44L48 43L49 43L49 36L48 36L48 35L49 35L49 33L48 33L48 35L47 35L47 36L48 36L48 39L47 39L47 40L48 40L48 43L47 43L47 42L46 42L46 40L44 40L44 39L46 39L46 35L45 35L45 38L44 38L44 36L43 36L43 34L44 34L44 32L43 32L43 30L42 30L42 31L41 31L41 32L40 32L40 33L39 33L39 32L38 32L38 29L37 29L37 28L38 28L38 25L39 25L39 27L42 27L42 28L41 28L41 29L43 29L43 28L44 28L44 27L45 27L45 30L46 30L46 27L47 27L47 26L48 26L48 28L47 28L47 29L48 29L48 31L49 31L49 25L46 25L46 23L47 23L47 24L49 24L49 20L48 20L48 23L47 23L47 22L46 22L46 23L45 23L45 21L46 21L46 19L44 19L44 21L43 21L43 22L42 22L42 21L41 21L41 22L40 22L40 19L41 19L41 20L42 20L42 19L43 19L43 18L42 18L42 16L41 16L41 15L42 15L42 13L43 13L43 12L42 12L42 8L41 8L41 10L40 10L40 7L41 7L41 6L40 6L40 7L39 7L39 5L38 5L38 3L37 3L37 5L38 5L38 7L37 7L37 6L36 6L36 7L37 7L37 8L36 8L36 9L37 9L37 10L36 10L36 11L34 11L34 9L35 9L35 8L34 8L34 7L35 7L35 4L36 4L36 1L35 1L35 0L34 0L34 3L33 3L33 0L31 0L31 1L32 1L32 2L31 2L31 3L28 3L28 1L29 1L29 2L30 2L30 0ZM37 0L37 2L39 2L39 4L40 4L40 3L41 3L41 0L40 0L40 1L38 1L38 0ZM23 1L23 2L25 2L25 1ZM20 3L20 4L18 4L18 5L16 5L16 6L15 6L15 7L14 7L14 6L13 6L13 7L14 7L14 9L11 9L11 8L12 8L12 6L11 6L11 8L10 8L10 9L11 9L11 11L9 11L9 12L10 12L10 14L8 14L8 15L5 15L5 14L7 14L7 13L8 13L8 12L7 12L7 11L6 11L6 10L5 10L5 11L3 11L3 10L2 10L2 11L3 11L3 12L4 12L4 13L5 13L5 14L4 14L4 15L5 15L5 17L6 17L6 18L8 18L8 20L7 20L7 19L6 19L6 20L7 20L7 21L6 21L6 22L9 22L9 21L10 21L10 20L11 20L11 21L12 21L12 22L10 22L10 23L12 23L12 22L13 22L13 21L14 21L14 19L13 19L13 18L14 18L14 16L17 16L17 17L16 17L16 18L17 18L17 17L19 17L19 16L21 16L21 18L18 18L18 19L17 19L17 20L16 20L16 21L17 21L17 22L18 22L18 25L17 25L17 24L16 24L16 27L15 27L15 28L14 28L14 27L13 27L13 26L14 26L14 25L13 25L13 24L14 24L14 23L13 23L13 24L12 24L12 25L10 25L10 24L9 24L9 27L10 27L10 28L8 28L8 29L6 29L6 30L8 30L8 31L9 31L9 34L11 34L11 33L12 33L12 35L13 35L13 36L12 36L12 37L14 37L14 35L15 35L15 33L16 33L16 34L17 34L17 31L16 31L16 29L15 29L15 28L16 28L16 27L17 27L17 30L18 30L18 31L19 31L19 32L18 32L18 33L19 33L19 34L18 34L18 36L17 36L17 35L16 35L16 36L15 36L15 37L18 37L18 39L19 39L19 40L16 40L16 39L17 39L17 38L13 38L13 39L12 39L12 40L13 40L13 41L14 41L14 42L15 42L15 43L11 43L11 45L12 45L12 44L13 44L13 45L14 45L14 46L15 46L15 47L17 47L17 46L16 46L16 44L15 44L15 43L18 43L18 41L19 41L19 42L21 42L21 41L20 41L20 39L22 39L22 40L24 40L24 39L25 39L25 40L27 40L27 39L28 39L28 40L29 40L29 39L30 39L30 40L31 40L31 41L32 41L32 42L33 42L33 41L32 41L32 38L33 38L33 37L32 37L32 35L33 35L33 34L32 34L32 35L31 35L31 33L29 33L29 32L31 32L31 31L29 31L29 30L28 30L28 29L26 29L26 27L21 27L21 25L22 25L22 23L21 23L21 22L23 22L23 21L24 21L24 22L25 22L25 21L24 21L24 20L25 20L25 18L26 18L26 21L27 21L27 20L28 20L28 24L27 24L27 28L30 28L30 30L31 30L31 29L32 29L32 26L33 26L33 25L34 25L34 27L35 27L35 29L34 29L34 31L36 31L36 33L38 33L38 36L37 36L37 37L36 37L36 35L37 35L37 34L36 34L36 35L35 35L35 33L34 33L34 32L33 32L33 31L32 31L32 33L34 33L34 35L35 35L35 37L34 37L34 40L35 40L35 41L34 41L34 42L35 42L35 43L34 43L34 44L33 44L33 45L34 45L34 44L35 44L35 45L36 45L36 46L37 46L37 45L36 45L36 42L35 42L35 41L36 41L36 39L37 39L37 37L38 37L38 40L39 40L39 41L38 41L38 42L39 42L39 43L40 43L40 42L39 42L39 41L40 41L40 40L42 40L42 38L43 38L43 39L44 39L44 38L43 38L43 37L42 37L42 34L41 34L41 33L42 33L42 32L41 32L41 33L40 33L40 34L39 34L39 33L38 33L38 32L37 32L37 31L36 31L36 30L37 30L37 29L36 29L36 27L35 27L35 26L36 26L36 23L37 23L37 21L38 21L38 24L39 24L39 25L40 25L40 24L39 24L39 21L38 21L38 20L39 20L39 19L38 19L38 17L39 17L39 16L38 16L38 15L40 15L40 14L41 14L41 13L42 13L42 12L40 12L40 14L39 14L39 13L38 13L38 12L39 12L39 7L38 7L38 8L37 8L37 9L38 9L38 11L37 11L37 13L36 13L36 12L34 12L34 11L33 11L33 13L34 13L34 15L33 15L33 14L32 14L32 15L30 15L30 14L31 14L31 12L32 12L32 11L31 11L31 9L32 9L32 10L33 10L33 9L34 9L34 8L33 8L33 7L34 7L34 4L35 4L35 3L34 3L34 4L32 4L32 3L31 3L31 4L32 4L32 5L31 5L31 7L30 7L30 6L29 6L29 8L30 8L30 9L28 9L28 6L27 6L27 9L24 9L24 10L23 10L23 12L21 12L21 11L22 11L22 5L21 5L21 3ZM29 4L29 5L30 5L30 4ZM19 5L19 6L18 6L18 7L17 7L17 6L16 6L16 7L15 7L15 8L17 8L17 9L15 9L15 10L13 10L13 11L15 11L15 12L14 12L14 13L15 13L15 14L12 14L12 13L13 13L13 12L12 12L12 13L11 13L11 14L10 14L10 15L8 15L8 17L10 17L10 15L11 15L11 17L12 17L12 18L13 18L13 16L14 16L14 15L15 15L15 14L16 14L16 15L17 15L17 16L19 16L19 15L18 15L18 14L19 14L19 13L20 13L20 14L22 14L22 15L21 15L21 16L22 16L22 17L23 17L23 20L24 20L24 18L25 18L25 17L23 17L23 16L24 16L24 15L26 15L26 18L27 18L27 19L28 19L28 20L29 20L29 22L30 22L30 21L32 21L32 22L31 22L31 23L29 23L29 24L30 24L30 25L28 25L28 26L30 26L30 25L31 25L31 23L33 23L33 24L32 24L32 25L33 25L33 24L34 24L34 25L35 25L35 24L34 24L34 21L32 21L32 20L31 20L31 19L30 19L30 20L29 20L29 18L31 18L31 17L32 17L32 18L33 18L33 16L30 16L30 15L29 15L29 14L28 14L28 11L27 11L27 13L26 13L26 10L24 10L24 12L23 12L23 13L21 13L21 12L19 12L19 13L17 13L17 12L16 12L16 11L17 11L17 10L18 10L18 7L19 7L19 8L20 8L20 9L19 9L19 10L21 10L21 5ZM23 5L23 8L26 8L26 5ZM32 5L32 7L33 7L33 5ZM8 6L8 7L9 7L9 6ZM19 6L19 7L20 7L20 6ZM24 6L24 7L25 7L25 6ZM45 8L45 11L44 11L44 13L46 13L46 14L47 14L47 13L46 13L46 11L47 11L47 12L48 12L48 15L47 15L47 16L48 16L48 19L49 19L49 16L48 16L48 15L49 15L49 8L48 8L48 11L47 11L47 10L46 10L46 8ZM43 9L43 10L44 10L44 9ZM29 11L29 13L30 13L30 12L31 12L31 11ZM0 12L0 13L1 13L1 12ZM5 12L5 13L7 13L7 12ZM24 12L24 14L26 14L26 15L27 15L27 17L28 17L28 18L29 18L29 15L27 15L27 14L26 14L26 13L25 13L25 12ZM16 13L16 14L17 14L17 13ZM37 13L37 14L35 14L35 15L34 15L34 16L35 16L35 15L36 15L36 17L34 17L34 19L35 19L35 18L36 18L36 21L35 21L35 22L36 22L36 21L37 21L37 20L38 20L38 19L37 19L37 15L38 15L38 13ZM0 14L0 16L2 16L2 15L1 15L1 14ZM11 14L11 15L12 15L12 16L13 16L13 15L12 15L12 14ZM22 15L22 16L23 16L23 15ZM44 15L44 17L45 17L45 18L46 18L46 16L45 16L45 15ZM6 16L6 17L7 17L7 16ZM0 17L0 18L1 18L1 19L2 19L2 17ZM40 17L40 18L41 18L41 19L42 19L42 18L41 18L41 17ZM10 18L10 19L11 19L11 20L13 20L13 19L11 19L11 18ZM19 19L19 20L17 20L17 21L19 21L19 22L21 22L21 20L22 20L22 19L21 19L21 20L20 20L20 19ZM8 20L8 21L9 21L9 20ZM19 20L19 21L20 21L20 20ZM4 21L4 22L3 22L3 23L2 23L2 24L3 24L3 26L2 26L2 27L1 27L1 28L2 28L2 29L4 29L4 30L5 30L5 29L4 29L4 28L5 28L5 27L4 27L4 22L5 22L5 21ZM5 23L5 26L8 26L8 23ZM19 23L19 24L20 24L20 25L18 25L18 26L17 26L17 27L18 27L18 26L20 26L20 25L21 25L21 24L20 24L20 23ZM23 23L23 26L26 26L26 23ZM41 23L41 26L44 26L44 23ZM6 24L6 25L7 25L7 24ZM24 24L24 25L25 25L25 24ZM42 24L42 25L43 25L43 24ZM12 25L12 26L11 26L11 27L12 27L12 26L13 26L13 25ZM45 26L45 27L46 27L46 26ZM2 27L2 28L3 28L3 27ZM6 27L6 28L7 28L7 27ZM11 28L11 29L10 29L10 30L11 30L11 31L10 31L10 33L11 33L11 31L14 31L14 32L12 32L12 33L13 33L13 35L14 35L14 32L16 32L16 31L15 31L15 30L13 30L13 28ZM18 28L18 29L19 29L19 30L20 30L20 31L21 31L21 32L23 32L23 34L22 34L22 33L20 33L20 34L19 34L19 39L20 39L20 38L21 38L21 37L24 37L24 38L25 38L25 36L26 36L26 39L27 39L27 38L28 38L28 37L29 37L29 38L30 38L30 39L31 39L31 38L30 38L30 37L29 37L29 36L28 36L28 35L30 35L30 34L27 34L27 33L26 33L26 32L25 32L25 33L24 33L24 32L23 32L23 31L27 31L27 32L29 32L29 31L28 31L28 30L26 30L26 29L25 29L25 30L23 30L23 28ZM11 29L11 30L12 30L12 29ZM20 29L20 30L21 30L21 31L22 31L22 30L21 30L21 29ZM39 29L39 31L40 31L40 29ZM2 30L2 31L3 31L3 30ZM4 31L4 32L5 32L5 31ZM6 31L6 32L7 32L7 31ZM45 31L45 33L46 33L46 31ZM25 33L25 34L26 34L26 33ZM7 34L7 35L6 35L6 36L7 36L7 37L6 37L6 38L7 38L7 37L8 37L8 38L10 38L10 37L11 37L11 35L10 35L10 36L9 36L9 37L8 37L8 34ZM20 34L20 36L22 36L22 34ZM23 34L23 35L24 35L24 36L25 36L25 35L24 35L24 34ZM38 36L38 37L39 37L39 36ZM40 36L40 38L39 38L39 39L40 39L40 38L42 38L42 37L41 37L41 36ZM22 38L22 39L23 39L23 38ZM14 39L14 40L15 40L15 39ZM6 40L6 41L7 41L7 40ZM15 41L15 42L17 42L17 41ZM23 41L23 44L26 44L26 41ZM27 41L27 43L29 43L29 41ZM41 41L41 44L44 44L44 41ZM24 42L24 43L25 43L25 42ZM42 42L42 43L43 43L43 42ZM45 42L45 43L46 43L46 46L45 46L45 47L44 47L44 45L42 45L42 46L41 46L41 45L40 45L40 44L39 44L39 45L40 45L40 47L42 47L42 46L43 46L43 47L44 47L44 48L45 48L45 47L46 47L46 46L47 46L47 45L48 45L48 44L47 44L47 43L46 43L46 42ZM19 43L19 44L17 44L17 45L18 45L18 46L19 46L19 44L20 44L20 46L21 46L21 48L22 48L22 47L23 47L23 46L22 46L22 45L21 45L21 44L20 44L20 43ZM8 46L8 47L9 47L9 46ZM28 48L28 49L29 49L29 48ZM0 0L0 7L7 7L7 0ZM1 1L1 6L6 6L6 1ZM2 2L2 5L5 5L5 2ZM42 0L42 7L49 7L49 0ZM43 1L43 6L48 6L48 1ZM44 2L44 5L47 5L47 2ZM0 42L0 49L7 49L7 42ZM1 43L1 48L6 48L6 43ZM2 44L2 47L5 47L5 44Z" fill="#000000"/></g></g></svg>
