<?xml version="1.0" encoding="UTF-8"?>
<svg xmlns="http://www.w3.org/2000/svg" version="1.1" width="200" height="200" viewBox="0 0 200 200"><rect x="0" y="0" width="200" height="200" fill="#ffffff"/><g transform="scale(3.774)"><g transform="translate(2,2)"><path fill-rule="evenodd" d="M8 0L8 3L9 3L9 2L10 2L10 3L11 3L11 4L12 4L12 5L10 5L10 4L9 4L9 5L8 5L8 9L7 9L7 8L6 8L6 9L7 9L7 10L6 10L6 11L8 11L8 12L9 12L9 13L8 13L8 14L6 14L6 13L7 13L7 12L6 12L6 13L5 13L5 11L3 11L3 10L4 10L4 9L5 9L5 8L2 8L2 9L0 9L0 11L1 11L1 12L0 12L0 13L1 13L1 12L2 12L2 13L3 13L3 14L2 14L2 15L3 15L3 16L2 16L2 17L3 17L3 18L2 18L2 19L3 19L3 22L2 22L2 20L0 20L0 21L1 21L1 22L0 22L0 23L1 23L1 22L2 22L2 24L3 24L3 25L1 25L1 24L0 24L0 27L1 27L1 28L0 28L0 32L2 32L2 33L1 33L1 35L0 35L0 37L1 37L1 40L0 40L0 41L3 41L3 40L4 40L4 39L2 39L2 36L3 36L3 37L4 37L4 38L5 38L5 39L7 39L7 40L6 40L6 41L7 41L7 40L8 40L8 39L7 39L7 38L5 38L5 37L7 37L7 36L5 36L5 35L8 35L8 36L11 36L11 35L12 35L12 34L13 34L13 36L12 36L12 37L10 37L10 38L11 38L11 40L10 40L10 41L11 41L11 42L13 42L13 40L14 40L14 41L15 41L15 42L16 42L16 43L14 43L14 44L15 44L15 45L16 45L16 46L15 46L15 47L12 47L12 46L13 46L13 44L12 44L12 46L11 46L11 45L10 45L10 44L11 44L11 43L9 43L9 44L8 44L8 47L10 47L10 48L9 48L9 49L10 49L10 48L11 48L11 47L12 47L12 48L13 48L13 49L16 49L16 48L17 48L17 49L19 49L19 48L20 48L20 49L21 49L21 47L22 47L22 48L23 48L23 49L24 49L24 48L25 48L25 49L27 49L27 48L25 48L25 47L27 47L27 46L28 46L28 47L29 47L29 48L28 48L28 49L29 49L29 48L30 48L30 49L31 49L31 48L33 48L33 49L35 49L35 48L36 48L36 49L37 49L37 48L36 48L36 47L39 47L39 48L40 48L40 49L42 49L42 48L43 48L43 46L45 46L45 48L46 48L46 49L49 49L49 42L48 42L48 41L49 41L49 40L48 40L48 41L47 41L47 40L46 40L46 41L45 41L45 40L42 40L42 39L43 39L43 37L45 37L45 38L46 38L46 39L47 39L47 38L48 38L48 39L49 39L49 38L48 38L48 37L49 37L49 34L48 34L48 33L47 33L47 32L49 32L49 30L48 30L48 29L49 29L49 28L46 28L46 26L47 26L47 24L46 24L46 22L45 22L45 21L44 21L44 22L43 22L43 21L42 21L42 22L40 22L40 21L41 21L41 20L40 20L40 19L39 19L39 20L40 20L40 21L39 21L39 22L37 22L37 20L36 20L36 19L37 19L37 18L40 18L40 17L39 17L39 16L41 16L41 17L42 17L42 20L46 20L46 21L47 21L47 22L48 22L48 23L49 23L49 22L48 22L48 21L49 21L49 18L48 18L48 17L49 17L49 14L48 14L48 13L49 13L49 12L48 12L48 13L47 13L47 12L46 12L46 11L45 11L45 10L46 10L46 9L47 9L47 10L48 10L48 11L49 11L49 10L48 10L48 9L49 9L49 8L46 8L46 9L45 9L45 10L44 10L44 11L42 11L42 10L43 10L43 9L44 9L44 8L40 8L40 7L41 7L41 6L40 6L40 7L39 7L39 5L38 5L38 4L37 4L37 3L36 3L36 2L37 2L37 1L38 1L38 2L39 2L39 4L40 4L40 3L41 3L41 0L40 0L40 1L38 1L38 0L37 0L37 1L36 1L36 2L35 2L35 1L34 1L34 0L33 0L33 1L34 1L34 2L32 2L32 3L31 3L31 4L30 4L30 5L31 5L31 6L30 6L30 7L29 7L29 4L28 4L28 3L29 3L29 1L31 1L31 0L29 0L29 1L28 1L28 3L26 3L26 4L23 4L23 2L21 2L21 3L22 3L22 7L21 7L21 6L20 6L20 7L19 7L19 5L20 5L20 1L23 1L23 0L19 0L19 1L18 1L18 2L17 2L17 0L15 0L15 1L16 1L16 3L15 3L15 2L13 2L13 3L15 3L15 4L14 4L14 5L13 5L13 4L12 4L12 2L11 2L11 1L13 1L13 0L11 0L11 1L9 1L9 0ZM25 0L25 1L24 1L24 2L25 2L25 1L26 1L26 2L27 2L27 0ZM34 2L34 5L33 5L33 7L32 7L32 6L31 6L31 7L30 7L30 8L31 8L31 9L30 9L30 10L29 10L29 8L28 8L28 6L27 6L27 8L28 8L28 9L26 9L26 10L29 10L29 11L28 11L28 12L27 12L27 11L24 11L24 9L23 9L23 10L22 10L22 8L21 8L21 7L20 7L20 8L19 8L19 7L18 7L18 6L17 6L17 4L16 4L16 5L15 5L15 7L16 7L16 6L17 6L17 8L19 8L19 10L14 10L14 11L16 11L16 12L17 12L17 13L18 13L18 15L17 15L17 14L16 14L16 15L15 15L15 14L14 14L14 13L13 13L13 12L11 12L11 14L10 14L10 13L9 13L9 14L10 14L10 16L8 16L8 17L9 17L9 18L11 18L11 19L10 19L10 20L9 20L9 19L6 19L6 18L7 18L7 17L6 17L6 16L7 16L7 15L6 15L6 16L5 16L5 15L4 15L4 14L3 14L3 15L4 15L4 16L3 16L3 17L4 17L4 18L5 18L5 19L4 19L4 22L7 22L7 21L8 21L8 22L9 22L9 23L10 23L10 22L11 22L11 24L10 24L10 25L9 25L9 26L11 26L11 24L12 24L12 27L13 27L13 23L12 23L12 21L13 21L13 20L14 20L14 19L15 19L15 21L14 21L14 23L17 23L17 24L18 24L18 27L20 27L20 28L19 28L19 33L20 33L20 32L22 32L22 31L23 31L23 32L24 32L24 29L23 29L23 27L22 27L22 26L21 26L21 24L22 24L22 22L24 22L24 19L22 19L22 20L23 20L23 21L21 21L21 20L19 20L19 22L18 22L18 23L17 23L17 22L15 22L15 21L16 21L16 19L20 19L20 17L21 17L21 18L23 18L23 16L24 16L24 17L27 17L27 18L28 18L28 19L25 19L25 20L27 20L27 21L28 21L28 22L27 22L27 24L29 24L29 25L28 25L28 27L27 27L27 28L25 28L25 29L28 29L28 27L30 27L30 26L31 26L31 27L34 27L34 26L39 26L39 27L36 27L36 28L30 28L30 29L29 29L29 30L30 30L30 29L31 29L31 31L30 31L30 32L33 32L33 31L34 31L34 30L35 30L35 32L34 32L34 34L33 34L33 36L29 36L29 35L30 35L30 34L29 34L29 33L27 33L27 32L25 32L25 33L27 33L27 34L26 34L26 35L28 35L28 36L25 36L25 37L24 37L24 38L23 38L23 36L22 36L22 35L19 35L19 34L18 34L18 35L19 35L19 36L18 36L18 39L17 39L17 37L16 37L16 39L15 39L15 40L16 40L16 41L18 41L18 42L19 42L19 43L16 43L16 45L17 45L17 46L18 46L18 45L19 45L19 47L17 47L17 48L19 48L19 47L21 47L21 46L22 46L22 45L19 45L19 43L20 43L20 42L21 42L21 41L22 41L22 40L23 40L23 39L24 39L24 40L25 40L25 39L26 39L26 40L27 40L27 42L28 42L28 41L29 41L29 42L30 42L30 44L31 44L31 46L30 46L30 48L31 48L31 47L34 47L34 48L35 48L35 47L36 47L36 44L38 44L38 45L37 45L37 46L39 46L39 47L40 47L40 46L41 46L41 48L42 48L42 45L40 45L40 46L39 46L39 44L38 44L38 43L39 43L39 40L41 40L41 39L42 39L42 36L43 36L43 35L44 35L44 36L45 36L45 37L46 37L46 38L47 38L47 37L48 37L48 34L47 34L47 33L46 33L46 32L47 32L47 31L48 31L48 30L47 30L47 29L46 29L46 28L45 28L45 27L42 27L42 28L41 28L41 27L40 27L40 26L39 26L39 24L38 24L38 23L37 23L37 22L36 22L36 20L35 20L35 19L36 19L36 18L37 18L37 17L38 17L38 16L37 16L37 14L39 14L39 13L40 13L40 15L41 15L41 14L42 14L42 15L44 15L44 14L46 14L46 12L43 12L43 13L44 13L44 14L42 14L42 11L41 11L41 10L42 10L42 9L40 9L40 8L39 8L39 7L38 7L38 6L37 6L37 10L39 10L39 9L40 9L40 11L38 11L38 12L37 12L37 11L36 11L36 10L35 10L35 9L36 9L36 8L35 8L35 7L36 7L36 6L35 6L35 7L34 7L34 5L37 5L37 4L36 4L36 3L35 3L35 2ZM18 3L18 5L19 5L19 3ZM32 3L32 4L31 4L31 5L32 5L32 4L33 4L33 3ZM27 4L27 5L28 5L28 4ZM12 5L12 6L11 6L11 8L12 8L12 6L13 6L13 7L14 7L14 6L13 6L13 5ZM23 5L23 8L26 8L26 5ZM9 6L9 7L10 7L10 6ZM24 6L24 7L25 7L25 6ZM31 7L31 8L32 8L32 9L33 9L33 10L34 10L34 12L33 12L33 11L32 11L32 10L30 10L30 11L31 11L31 13L30 13L30 12L28 12L28 13L27 13L27 12L25 12L25 13L24 13L24 11L22 11L22 10L21 10L21 9L20 9L20 11L19 11L19 12L20 12L20 13L21 13L21 15L22 15L22 13L24 13L24 14L23 14L23 15L25 15L25 16L27 16L27 17L28 17L28 18L29 18L29 17L32 17L32 18L33 18L33 19L34 19L34 18L35 18L35 16L36 16L36 17L37 17L37 16L36 16L36 15L35 15L35 14L37 14L37 12L36 12L36 13L35 13L35 10L34 10L34 7L33 7L33 8L32 8L32 7ZM9 8L9 9L8 9L8 11L9 11L9 10L11 10L11 11L13 11L13 10L11 10L11 9L10 9L10 8ZM38 8L38 9L39 9L39 8ZM2 9L2 10L1 10L1 11L2 11L2 12L3 12L3 13L4 13L4 12L3 12L3 11L2 11L2 10L3 10L3 9ZM20 11L20 12L21 12L21 11ZM32 12L32 13L31 13L31 14L32 14L32 13L33 13L33 12ZM40 12L40 13L41 13L41 12ZM12 13L12 14L11 14L11 16L10 16L10 17L11 17L11 18L12 18L12 19L13 19L13 18L16 18L16 17L13 17L13 18L12 18L12 15L14 15L14 14L13 14L13 13ZM26 13L26 14L27 14L27 15L29 15L29 16L28 16L28 17L29 17L29 16L30 16L30 14L29 14L29 13L28 13L28 14L27 14L27 13ZM34 13L34 14L33 14L33 16L32 16L32 17L33 17L33 18L34 18L34 17L33 17L33 16L34 16L34 14L35 14L35 13ZM0 14L0 15L1 15L1 14ZM47 14L47 15L45 15L45 16L42 16L42 17L43 17L43 18L44 18L44 19L45 19L45 17L46 17L46 18L47 18L47 19L46 19L46 20L47 20L47 21L48 21L48 20L47 20L47 19L48 19L48 18L47 18L47 17L48 17L48 14ZM16 15L16 16L17 16L17 15ZM19 15L19 16L20 16L20 15ZM21 16L21 17L22 17L22 16ZM46 16L46 17L47 17L47 16ZM28 19L28 21L29 21L29 20L30 20L30 19ZM31 19L31 23L30 23L30 22L28 22L28 23L30 23L30 25L29 25L29 26L30 26L30 25L31 25L31 26L32 26L32 25L31 25L31 24L32 24L32 22L34 22L34 23L33 23L33 26L34 26L34 23L35 23L35 24L36 24L36 25L37 25L37 24L36 24L36 23L35 23L35 22L34 22L34 21L35 21L35 20L32 20L32 19ZM5 20L5 21L7 21L7 20ZM17 20L17 21L18 21L18 20ZM20 21L20 23L21 23L21 21ZM25 21L25 22L26 22L26 21ZM39 22L39 23L40 23L40 22ZM3 23L3 24L4 24L4 23ZM5 23L5 26L8 26L8 23ZM18 23L18 24L19 24L19 23ZM23 23L23 26L26 26L26 23ZM41 23L41 26L44 26L44 23ZM6 24L6 25L7 25L7 24ZM14 24L14 25L16 25L16 26L14 26L14 27L15 27L15 29L14 29L14 28L12 28L12 29L14 29L14 33L15 33L15 29L16 29L16 31L17 31L17 29L18 29L18 28L16 28L16 26L17 26L17 25L16 25L16 24ZM24 24L24 25L25 25L25 24ZM42 24L42 25L43 25L43 24ZM45 24L45 25L46 25L46 24ZM3 25L3 26L4 26L4 25ZM20 26L20 27L21 27L21 28L22 28L22 27L21 27L21 26ZM48 26L48 27L49 27L49 26ZM3 27L3 28L2 28L2 29L1 29L1 31L3 31L3 32L4 32L4 34L3 34L3 33L2 33L2 34L3 34L3 35L4 35L4 34L5 34L5 32L7 32L7 31L8 31L8 30L10 30L10 29L9 29L9 28L8 28L8 27ZM10 27L10 28L11 28L11 27ZM3 28L3 30L4 30L4 32L5 32L5 30L4 30L4 28ZM6 28L6 29L7 29L7 30L6 30L6 31L7 31L7 30L8 30L8 29L7 29L7 28ZM36 28L36 29L35 29L35 30L36 30L36 32L35 32L35 33L36 33L36 32L37 32L37 31L39 31L39 30L40 30L40 31L41 31L41 30L42 30L42 31L43 31L43 32L42 32L42 33L45 33L45 32L46 32L46 31L47 31L47 30L46 30L46 29L45 29L45 28L44 28L44 29L41 29L41 28L38 28L38 29L39 29L39 30L37 30L37 28ZM20 29L20 31L21 31L21 29ZM22 29L22 30L23 30L23 29ZM33 29L33 30L34 30L34 29ZM40 29L40 30L41 30L41 29ZM44 29L44 30L43 30L43 31L44 31L44 32L45 32L45 31L44 31L44 30L45 30L45 29ZM12 30L12 31L9 31L9 33L8 33L8 35L9 35L9 34L10 34L10 35L11 35L11 34L12 34L12 31L13 31L13 30ZM10 32L10 33L11 33L11 32ZM39 32L39 34L37 34L37 36L36 36L36 34L34 34L34 35L35 35L35 36L36 36L36 38L34 38L34 36L33 36L33 38L32 38L32 39L31 39L31 37L30 37L30 40L29 40L29 41L30 41L30 42L31 42L31 40L34 40L34 39L35 39L35 40L36 40L36 41L38 41L38 40L36 40L36 39L39 39L39 38L37 38L37 36L38 36L38 37L40 37L40 39L41 39L41 37L40 37L40 36L38 36L38 35L41 35L41 36L42 36L42 35L43 35L43 34L42 34L42 35L41 35L41 34L40 34L40 32ZM6 33L6 34L7 34L7 33ZM16 33L16 34L14 34L14 35L16 35L16 36L17 36L17 33ZM31 33L31 34L32 34L32 33ZM23 34L23 35L25 35L25 34ZM44 34L44 35L45 35L45 36L46 36L46 37L47 37L47 36L46 36L46 35L47 35L47 34ZM1 35L1 36L2 36L2 35ZM13 36L13 37L14 37L14 38L12 38L12 39L14 39L14 38L15 38L15 37L14 37L14 36ZM19 36L19 37L20 37L20 38L19 38L19 41L21 41L21 40L22 40L22 38L21 38L21 36ZM25 37L25 38L27 38L27 40L28 40L28 39L29 39L29 38L28 38L28 37ZM33 38L33 39L34 39L34 38ZM16 39L16 40L17 40L17 39ZM20 39L20 40L21 40L21 39ZM8 41L8 42L9 42L9 41ZM23 41L23 44L26 44L26 41ZM33 41L33 42L34 42L34 41ZM41 41L41 44L44 44L44 41ZM46 41L46 44L45 44L45 46L48 46L48 42L47 42L47 41ZM24 42L24 43L25 43L25 42ZM36 42L36 43L35 43L35 44L36 44L36 43L38 43L38 42ZM42 42L42 43L43 43L43 42ZM31 43L31 44L33 44L33 45L32 45L32 46L34 46L34 47L35 47L35 46L34 46L34 43ZM17 44L17 45L18 45L18 44ZM46 44L46 45L47 45L47 44ZM9 45L9 46L10 46L10 45ZM25 45L25 46L24 46L24 47L25 47L25 46L27 46L27 45ZM28 45L28 46L29 46L29 45ZM46 47L46 48L48 48L48 47ZM0 0L0 7L7 7L7 0ZM1 1L1 6L6 6L6 1ZM2 2L2 5L5 5L5 2ZM42 0L42 7L49 7L49 0ZM43 1L43 6L48 6L48 1ZM44 2L44 5L47 5L47 2ZM0 42L0 49L7 49L7 42ZM1 43L1 48L6 48L6 43ZM2 44L2 47L5 47L5 44Z" fill="#000000"/></g></g></svg>
