<?xml version="1.0" encoding="UTF-8"?>
<svg xmlns="http://www.w3.org/2000/svg" version="1.1" width="200" height="200" viewBox="0 0 200 200"><rect x="0" y="0" width="200" height="200" fill="#ffffff"/><g transform="scale(3.774)"><g transform="translate(2,2)"><path fill-rule="evenodd" d="M9 0L9 1L8 1L8 2L9 2L9 3L10 3L10 4L9 4L9 5L8 5L8 8L4 8L4 9L3 9L3 10L0 10L0 15L4 15L4 16L2 16L2 17L1 17L1 16L0 16L0 17L1 17L1 19L0 19L0 22L1 22L1 23L2 23L2 24L0 24L0 26L3 26L3 27L4 27L4 28L5 28L5 29L4 29L4 32L5 32L5 30L6 30L6 31L7 31L7 32L6 32L6 33L8 33L8 31L9 31L9 30L8 30L8 29L10 29L10 30L12 30L12 31L10 31L10 32L9 32L9 33L10 33L10 34L9 34L9 35L8 35L8 34L6 34L6 35L4 35L4 34L5 34L5 33L4 33L4 34L3 34L3 35L2 35L2 36L3 36L3 37L1 37L1 36L0 36L0 38L1 38L1 40L0 40L0 41L3 41L3 40L4 40L4 39L2 39L2 38L5 38L5 39L7 39L7 40L6 40L6 41L7 41L7 40L8 40L8 45L9 45L9 44L10 44L10 45L11 45L11 46L10 46L10 48L11 48L11 49L13 49L13 48L12 48L12 47L13 47L13 44L12 44L12 45L11 45L11 43L12 43L12 39L13 39L13 40L15 40L15 42L14 42L14 41L13 41L13 43L14 43L14 44L15 44L15 42L16 42L16 45L15 45L15 47L17 47L17 48L18 48L18 47L19 47L19 45L18 45L18 46L17 46L17 44L21 44L21 42L22 42L22 45L20 45L20 47L21 47L21 49L24 49L24 48L25 48L25 49L26 49L26 48L27 48L27 49L28 49L28 47L29 47L29 45L27 45L27 41L28 41L28 40L29 40L29 42L28 42L28 43L29 43L29 44L31 44L31 45L30 45L30 46L33 46L33 44L35 44L35 43L36 43L36 46L35 46L35 47L30 47L30 48L31 48L31 49L33 49L33 48L34 48L34 49L35 49L35 47L36 47L36 49L42 49L42 47L41 47L41 48L40 48L40 47L39 47L39 44L40 44L40 45L42 45L42 46L43 46L43 45L46 45L46 47L45 47L45 49L49 49L49 48L48 48L48 47L47 47L47 44L48 44L48 46L49 46L49 44L48 44L48 41L49 41L49 40L48 40L48 37L49 37L49 35L48 35L48 33L49 33L49 32L48 32L48 33L47 33L47 31L48 31L48 29L49 29L49 27L48 27L48 29L47 29L47 26L48 26L48 25L47 25L47 24L48 24L48 21L49 21L49 20L48 20L48 21L47 21L47 19L48 19L48 17L47 17L47 16L48 16L48 13L49 13L49 11L48 11L48 8L47 8L47 11L46 11L46 9L44 9L44 8L42 8L42 11L41 11L41 10L40 10L40 12L39 12L39 9L41 9L41 6L40 6L40 7L39 7L39 5L38 5L38 7L39 7L39 8L36 8L36 9L35 9L35 11L34 11L34 12L33 12L33 11L32 11L32 10L31 10L31 8L30 8L30 7L31 7L31 6L32 6L32 7L33 7L33 8L34 8L34 7L35 7L35 6L36 6L36 7L37 7L37 5L31 5L31 4L32 4L32 3L34 3L34 4L36 4L36 3L37 3L37 2L39 2L39 4L40 4L40 3L41 3L41 0L40 0L40 1L37 1L37 0L36 0L36 3L34 3L34 2L35 2L35 1L33 1L33 2L32 2L32 1L31 1L31 0L26 0L26 1L28 1L28 3L27 3L27 2L25 2L25 1L24 1L24 0L23 0L23 1L24 1L24 2L23 2L23 3L22 3L22 1L20 1L20 0L18 0L18 2L19 2L19 3L18 3L18 4L19 4L19 3L20 3L20 2L21 2L21 4L22 4L22 8L18 8L18 7L19 7L19 6L20 6L20 7L21 7L21 5L19 5L19 6L18 6L18 7L17 7L17 6L16 6L16 3L17 3L17 0L14 0L14 1L16 1L16 2L15 2L15 4L14 4L14 2L13 2L13 1L12 1L12 0L11 0L11 2L9 2L9 1L10 1L10 0ZM29 1L29 4L27 4L27 7L28 7L28 8L27 8L27 9L25 9L25 10L24 10L24 9L22 9L22 10L23 10L23 11L26 11L26 12L27 12L27 11L28 11L28 12L30 12L30 11L31 11L31 13L32 13L32 14L33 14L33 15L31 15L31 16L30 16L30 17L32 17L32 16L33 16L33 17L34 17L34 16L35 16L35 18L36 18L36 19L35 19L35 21L34 21L34 19L33 19L33 18L32 18L32 20L31 20L31 21L33 21L33 22L31 22L31 23L30 23L30 22L28 22L28 23L29 23L29 27L27 27L27 28L26 28L26 30L25 30L25 29L24 29L24 28L23 28L23 30L25 30L25 31L26 31L26 33L27 33L27 31L26 31L26 30L27 30L27 28L28 28L28 30L29 30L29 31L31 31L31 32L28 32L28 33L29 33L29 34L28 34L28 35L29 35L29 34L30 34L30 36L29 36L29 38L28 38L28 37L26 37L26 35L27 35L27 34L25 34L25 32L24 32L24 31L22 31L22 29L21 29L21 31L22 31L22 32L20 32L20 30L19 30L19 29L20 29L20 28L21 28L21 27L22 27L22 26L20 26L20 27L19 27L19 24L20 24L20 25L21 25L21 24L22 24L22 23L20 23L20 22L22 22L22 20L23 20L23 22L24 22L24 21L25 21L25 19L27 19L27 17L28 17L28 18L29 18L29 19L28 19L28 20L26 20L26 21L28 21L28 20L29 20L29 21L30 21L30 20L29 20L29 19L30 19L30 18L29 18L29 17L28 17L28 16L29 16L29 15L30 15L30 13L27 13L27 14L29 14L29 15L28 15L28 16L27 16L27 17L26 17L26 15L25 15L25 16L24 16L24 17L23 17L23 14L26 14L26 13L24 13L24 12L23 12L23 13L22 13L22 12L21 12L21 11L20 11L20 12L19 12L19 13L18 13L18 15L19 15L19 14L20 14L20 15L22 15L22 17L23 17L23 19L21 19L21 21L20 21L20 19L19 19L19 21L20 21L20 22L18 22L18 21L17 21L17 20L18 20L18 19L17 19L17 18L18 18L18 17L17 17L17 15L16 15L16 14L17 14L17 12L15 12L15 11L14 11L14 10L13 10L13 9L16 9L16 10L17 10L17 9L18 9L18 8L13 8L13 7L14 7L14 6L15 6L15 7L16 7L16 6L15 6L15 5L13 5L13 7L12 7L12 4L11 4L11 7L10 7L10 6L9 6L9 8L8 8L8 10L7 10L7 9L4 9L4 10L3 10L3 11L2 11L2 14L3 14L3 11L4 11L4 13L6 13L6 14L7 14L7 15L6 15L6 16L4 16L4 17L3 17L3 19L1 19L1 22L2 22L2 23L3 23L3 25L4 25L4 22L5 22L5 21L6 21L6 22L7 22L7 21L6 21L6 20L7 20L7 19L8 19L8 20L9 20L9 18L7 18L7 17L6 17L6 16L7 16L7 15L8 15L8 13L9 13L9 14L10 14L10 15L9 15L9 16L8 16L8 17L9 17L9 16L10 16L10 17L11 17L11 18L10 18L10 19L12 19L12 17L13 17L13 16L14 16L14 17L15 17L15 16L16 16L16 18L13 18L13 23L11 23L11 22L12 22L12 20L10 20L10 21L9 21L9 25L10 25L10 26L9 26L9 27L5 27L5 28L9 28L9 27L10 27L10 28L11 28L11 29L13 29L13 30L15 30L15 32L14 32L14 33L15 33L15 34L12 34L12 33L13 33L13 32L12 32L12 33L11 33L11 34L10 34L10 35L9 35L9 36L10 36L10 35L11 35L11 36L12 36L12 37L9 37L9 38L10 38L10 40L11 40L11 38L12 38L12 37L13 37L13 36L14 36L14 39L15 39L15 40L16 40L16 39L17 39L17 37L18 37L18 38L19 38L19 39L18 39L18 40L17 40L17 41L16 41L16 42L17 42L17 41L19 41L19 42L18 42L18 43L19 43L19 42L20 42L20 41L22 41L22 40L24 40L24 38L25 38L25 39L26 39L26 40L28 40L28 39L29 39L29 40L31 40L31 37L30 37L30 36L32 36L32 35L31 35L31 33L32 33L32 34L33 34L33 35L36 35L36 34L37 34L37 32L38 32L38 33L40 33L40 35L37 35L37 37L38 37L38 36L39 36L39 37L45 37L45 34L42 34L42 32L40 32L40 31L41 31L41 30L42 30L42 31L44 31L44 30L47 30L47 29L43 29L43 28L45 28L45 27L43 27L43 28L42 28L42 27L41 27L41 28L40 28L40 22L42 22L42 21L43 21L43 19L45 19L45 18L46 18L46 19L47 19L47 17L46 17L46 15L47 15L47 13L48 13L48 12L47 12L47 13L46 13L46 15L45 15L45 13L44 13L44 14L43 14L43 15L42 15L42 12L43 12L43 11L45 11L45 10L43 10L43 11L42 11L42 12L41 12L41 13L39 13L39 14L41 14L41 15L40 15L40 17L39 17L39 16L38 16L38 17L37 17L37 18L36 18L36 14L37 14L37 13L38 13L38 11L37 11L37 10L36 10L36 11L35 11L35 12L34 12L34 13L32 13L32 11L31 11L31 10L30 10L30 11L29 11L29 10L27 10L27 9L29 9L29 7L30 7L30 6L31 6L31 5L30 5L30 2L31 2L31 3L32 3L32 2L31 2L31 1ZM11 2L11 3L13 3L13 2ZM24 2L24 3L25 3L25 4L26 4L26 3L25 3L25 2ZM23 5L23 8L26 8L26 5ZM28 5L28 7L29 7L29 5ZM24 6L24 7L25 7L25 6ZM33 6L33 7L34 7L34 6ZM11 7L11 8L9 8L9 10L8 10L8 11L7 11L7 10L6 10L6 11L5 11L5 12L6 12L6 13L7 13L7 12L9 12L9 10L12 10L12 9L13 9L13 8L12 8L12 7ZM11 8L11 9L12 9L12 8ZM20 9L20 10L21 10L21 9ZM6 11L6 12L7 12L7 11ZM10 11L10 14L11 14L11 15L10 15L10 16L13 16L13 15L12 15L12 14L13 14L13 12L12 12L12 11ZM36 11L36 13L37 13L37 11ZM11 12L11 14L12 14L12 12ZM14 12L14 16L15 16L15 14L16 14L16 13L15 13L15 12ZM20 12L20 13L21 13L21 14L22 14L22 13L21 13L21 12ZM4 14L4 15L5 15L5 14ZM41 15L41 17L42 17L42 18L43 18L43 17L44 17L44 18L45 18L45 15L43 15L43 16L42 16L42 15ZM19 16L19 18L20 18L20 16ZM4 17L4 18L6 18L6 19L7 19L7 18L6 18L6 17ZM25 17L25 18L24 18L24 19L25 19L25 18L26 18L26 17ZM40 18L40 19L39 19L39 20L37 20L37 19L36 19L36 22L35 22L35 23L33 23L33 24L32 24L32 23L31 23L31 24L30 24L30 26L31 26L31 25L32 25L32 26L33 26L33 24L34 24L34 25L35 25L35 23L36 23L36 25L37 25L37 27L36 27L36 26L35 26L35 27L29 27L29 29L30 29L30 28L32 28L32 29L31 29L31 31L33 31L33 32L35 32L35 33L36 33L36 30L37 30L37 31L40 31L40 29L39 29L39 28L37 28L37 27L39 27L39 24L38 24L38 25L37 25L37 23L39 23L39 21L41 21L41 20L42 20L42 19L41 19L41 18ZM2 20L2 21L3 21L3 22L4 22L4 20ZM14 21L14 25L15 25L15 26L14 26L14 28L15 28L15 29L16 29L16 30L17 30L17 31L16 31L16 32L15 32L15 33L16 33L16 34L15 34L15 35L14 35L14 36L16 36L16 37L17 37L17 36L18 36L18 34L20 34L20 35L21 35L21 36L20 36L20 37L19 37L19 38L20 38L20 39L19 39L19 40L21 40L21 38L20 38L20 37L22 37L22 38L24 38L24 37L23 37L23 35L22 35L22 33L23 33L23 32L22 32L22 33L19 33L19 32L17 32L17 31L19 31L19 30L18 30L18 29L19 29L19 28L17 28L17 27L18 27L18 26L17 26L17 27L16 27L16 24L17 24L17 25L18 25L18 24L19 24L19 23L18 23L18 24L17 24L17 22L16 22L16 24L15 24L15 21ZM44 21L44 22L45 22L45 23L47 23L47 21ZM36 22L36 23L37 23L37 22ZM5 23L5 26L8 26L8 23ZM23 23L23 26L26 26L26 23ZM41 23L41 26L44 26L44 23ZM6 24L6 25L7 25L7 24ZM10 24L10 25L11 25L11 26L10 26L10 27L12 27L12 26L13 26L13 24L12 24L12 25L11 25L11 24ZM24 24L24 25L25 25L25 24ZM27 24L27 25L28 25L28 24ZM42 24L42 25L43 25L43 24ZM45 25L45 26L47 26L47 25ZM1 27L1 28L2 28L2 27ZM35 27L35 29L34 29L34 28L33 28L33 29L32 29L32 30L33 30L33 31L35 31L35 29L36 29L36 27ZM0 29L0 31L1 31L1 34L0 34L0 35L1 35L1 34L2 34L2 31L1 31L1 30L3 30L3 29ZM6 29L6 30L7 30L7 31L8 31L8 30L7 30L7 29ZM42 29L42 30L43 30L43 29ZM43 32L43 33L45 33L45 32ZM46 33L46 35L47 35L47 33ZM24 34L24 35L25 35L25 34ZM41 34L41 35L40 35L40 36L41 36L41 35L42 35L42 36L43 36L43 35L42 35L42 34ZM3 35L3 36L4 36L4 37L5 37L5 38L8 38L8 37L6 37L6 36L7 36L7 35L6 35L6 36L4 36L4 35ZM12 35L12 36L13 36L13 35ZM34 36L34 37L33 37L33 38L32 38L32 39L35 39L35 40L34 40L34 41L33 41L33 43L34 43L34 42L36 42L36 43L37 43L37 45L38 45L38 43L39 43L39 42L40 42L40 39L41 39L41 40L42 40L42 39L43 39L43 40L44 40L44 39L47 39L47 37L48 37L48 36L47 36L47 37L46 37L46 38L42 38L42 39L41 39L41 38L39 38L39 39L37 39L37 41L36 41L36 39L35 39L35 38L36 38L36 36ZM25 37L25 38L26 38L26 39L27 39L27 38L26 38L26 37ZM15 38L15 39L16 39L16 38ZM29 38L29 39L30 39L30 38ZM38 40L38 41L37 41L37 43L38 43L38 42L39 42L39 40ZM45 40L45 42L47 42L47 41L48 41L48 40ZM9 41L9 43L11 43L11 41ZM23 41L23 44L26 44L26 41ZM31 41L31 43L32 43L32 41ZM41 41L41 44L44 44L44 41ZM24 42L24 43L25 43L25 42ZM42 42L42 43L43 43L43 42ZM23 45L23 46L21 46L21 47L23 47L23 46L24 46L24 47L26 47L26 46L27 46L27 47L28 47L28 46L27 46L27 45L26 45L26 46L25 46L25 45ZM38 47L38 48L39 48L39 47ZM43 47L43 49L44 49L44 47ZM14 48L14 49L15 49L15 48ZM0 0L0 7L7 7L7 0ZM1 1L1 6L6 6L6 1ZM2 2L2 5L5 5L5 2ZM42 0L42 7L49 7L49 0ZM43 1L43 6L48 6L48 1ZM44 2L44 5L47 5L47 2ZM0 42L0 49L7 49L7 42ZM1 43L1 48L6 48L6 43ZM2 44L2 47L5 47L5 44Z" fill="#000000"/></g></g></svg>
