<?xml version="1.0" encoding="UTF-8"?>
<svg xmlns="http://www.w3.org/2000/svg" version="1.1" width="200" height="200" viewBox="0 0 200 200"><rect x="0" y="0" width="200" height="200" fill="#ffffff"/><g transform="scale(3.774)"><g transform="translate(2,2)"><path fill-rule="evenodd" d="M8 0L8 2L9 2L9 3L8 3L8 7L9 7L9 3L10 3L10 1L11 1L11 2L13 2L13 4L12 4L12 3L11 3L11 5L10 5L10 8L9 8L9 10L8 10L8 11L7 11L7 10L6 10L6 9L7 9L7 8L6 8L6 9L5 9L5 10L6 10L6 11L5 11L5 13L7 13L7 12L8 12L8 14L6 14L6 15L5 15L5 14L4 14L4 12L3 12L3 11L4 11L4 8L3 8L3 10L2 10L2 9L0 9L0 12L1 12L1 11L2 11L2 12L3 12L3 14L2 14L2 13L0 13L0 16L1 16L1 17L0 17L0 18L4 18L4 19L3 19L3 20L2 20L2 21L1 21L1 22L0 22L0 25L1 25L1 26L0 26L0 29L1 29L1 30L0 30L0 31L1 31L1 32L0 32L0 34L1 34L1 35L2 35L2 37L3 37L3 36L5 36L5 39L7 39L7 38L6 38L6 37L7 37L7 36L5 36L5 35L7 35L7 34L3 34L3 33L5 33L5 32L6 32L6 33L8 33L8 32L9 32L9 31L12 31L12 32L11 32L11 33L9 33L9 34L8 34L8 37L10 37L10 38L9 38L9 39L11 39L11 36L9 36L9 34L11 34L11 35L12 35L12 37L13 37L13 36L15 36L15 37L16 37L16 33L15 33L15 32L14 32L14 31L15 31L15 29L17 29L17 30L18 30L18 35L17 35L17 37L19 37L19 39L17 39L17 40L20 40L20 39L21 39L21 40L22 40L22 41L20 41L20 42L21 42L21 43L19 43L19 41L17 41L17 42L16 42L16 40L15 40L15 38L14 38L14 40L13 40L13 43L12 43L12 42L10 42L10 43L9 43L9 44L10 44L10 45L8 45L8 46L10 46L10 49L11 49L11 47L12 47L12 45L14 45L14 44L16 44L16 47L15 47L15 46L13 46L13 47L15 47L15 48L16 48L16 49L19 49L19 47L21 47L21 46L20 46L20 45L22 45L22 48L21 48L21 49L24 49L24 46L23 46L23 45L26 45L26 46L27 46L27 47L26 47L26 48L25 48L25 49L29 49L29 48L27 48L27 47L30 47L30 49L31 49L31 47L33 47L33 48L32 48L32 49L33 49L33 48L34 48L34 47L35 47L35 48L36 48L36 49L38 49L38 48L39 48L39 49L40 49L40 48L41 48L41 49L42 49L42 48L41 48L41 46L42 46L42 47L43 47L43 48L44 48L44 49L46 49L46 47L49 47L49 46L48 46L48 45L49 45L49 44L48 44L48 43L49 43L49 36L48 36L48 38L47 38L47 37L46 37L46 35L47 35L47 34L46 34L46 35L44 35L44 33L46 33L46 32L47 32L47 33L48 33L48 35L49 35L49 33L48 33L48 32L47 32L47 31L45 31L45 32L44 32L44 31L43 31L43 30L42 30L42 29L44 29L44 30L46 30L46 29L47 29L47 30L48 30L48 31L49 31L49 29L47 29L47 28L48 28L48 27L49 27L49 25L47 25L47 26L46 26L46 23L45 23L45 21L46 21L46 20L47 20L47 21L48 21L48 24L49 24L49 20L47 20L47 19L45 19L45 18L46 18L46 17L47 17L47 18L48 18L48 19L49 19L49 16L48 16L48 15L49 15L49 8L47 8L47 9L48 9L48 14L47 14L47 16L45 16L45 14L44 14L44 13L46 13L46 8L43 8L43 11L44 11L44 9L45 9L45 12L44 12L44 13L43 13L43 12L42 12L42 13L40 13L40 12L39 12L39 11L38 11L38 13L39 13L39 14L36 14L36 20L35 20L35 15L34 15L34 14L35 14L35 13L33 13L33 12L31 12L31 11L30 11L30 12L29 12L29 13L28 13L28 11L29 11L29 10L30 10L30 9L31 9L31 10L32 10L32 11L34 11L34 12L35 12L35 10L34 10L34 9L37 9L37 10L36 10L36 13L37 13L37 10L38 10L38 9L39 9L39 10L40 10L40 11L42 11L42 9L41 9L41 10L40 10L40 8L41 8L41 6L40 6L40 7L39 7L39 5L38 5L38 7L39 7L39 8L38 8L38 9L37 9L37 8L35 8L35 6L36 6L36 7L37 7L37 6L36 6L36 5L34 5L34 7L33 7L33 4L34 4L34 3L35 3L35 4L36 4L36 3L35 3L35 2L36 2L36 1L35 1L35 0L34 0L34 1L35 1L35 2L34 2L34 3L32 3L32 0L31 0L31 1L30 1L30 0L28 0L28 1L27 1L27 0L26 0L26 1L27 1L27 2L29 2L29 3L28 3L28 4L27 4L27 3L24 3L24 2L25 2L25 0L24 0L24 1L23 1L23 3L22 3L22 0L21 0L21 3L20 3L20 0L19 0L19 2L18 2L18 1L17 1L17 2L18 2L18 4L17 4L17 5L18 5L18 7L17 7L17 6L16 6L16 4L15 4L15 6L14 6L14 3L16 3L16 2L13 2L13 0ZM14 0L14 1L15 1L15 0ZM37 0L37 1L38 1L38 2L39 2L39 4L40 4L40 3L41 3L41 0L40 0L40 1L38 1L38 0ZM30 2L30 3L31 3L31 4L32 4L32 3L31 3L31 2ZM19 3L19 4L18 4L18 5L19 5L19 7L18 7L18 8L16 8L16 6L15 6L15 9L14 9L14 6L13 6L13 5L11 5L11 7L12 7L12 6L13 6L13 9L12 9L12 8L10 8L10 9L11 9L11 10L10 10L10 12L9 12L9 11L8 11L8 12L9 12L9 13L14 13L14 16L15 16L15 17L13 17L13 16L12 16L12 14L11 14L11 15L10 15L10 14L9 14L9 15L6 15L6 16L9 16L9 15L10 15L10 16L11 16L11 17L9 17L9 19L8 19L8 17L6 17L6 18L7 18L7 19L6 19L6 20L5 20L5 21L4 21L4 20L3 20L3 21L4 21L4 22L3 22L3 23L2 23L2 24L1 24L1 25L2 25L2 24L3 24L3 28L2 28L2 27L1 27L1 29L2 29L2 30L3 30L3 29L4 29L4 28L5 28L5 29L6 29L6 30L4 30L4 32L5 32L5 31L6 31L6 32L8 32L8 31L9 31L9 30L10 30L10 28L11 28L11 30L12 30L12 31L14 31L14 29L15 29L15 28L16 28L16 27L17 27L17 29L18 29L18 30L19 30L19 35L18 35L18 36L19 36L19 37L20 37L20 38L21 38L21 39L22 39L22 40L24 40L24 39L25 39L25 40L28 40L28 41L27 41L27 43L28 43L28 44L27 44L27 45L28 45L28 46L29 46L29 42L30 42L30 43L32 43L32 42L31 42L31 41L29 41L29 40L28 40L28 39L29 39L29 38L24 38L24 37L23 37L23 38L24 38L24 39L22 39L22 37L20 37L20 36L19 36L19 35L21 35L21 36L23 36L23 35L21 35L21 34L22 34L22 33L23 33L23 32L25 32L25 31L26 31L26 29L27 29L27 28L30 28L30 29L29 29L29 30L33 30L33 29L31 29L31 28L32 28L32 27L33 27L33 25L34 25L34 24L35 24L35 25L36 25L36 27L35 27L35 26L34 26L34 27L35 27L35 28L34 28L34 32L33 32L33 31L31 31L31 32L33 32L33 33L34 33L34 34L35 34L35 33L38 33L38 34L36 34L36 35L39 35L39 36L37 36L37 38L40 38L40 39L38 39L38 40L37 40L37 41L38 41L38 40L39 40L39 41L40 41L40 40L42 40L42 39L41 39L41 37L42 37L42 38L43 38L43 39L44 39L44 40L47 40L47 41L46 41L46 42L45 42L45 43L46 43L46 42L47 42L47 43L48 43L48 42L47 42L47 41L48 41L48 40L47 40L47 38L46 38L46 39L45 39L45 36L44 36L44 35L43 35L43 36L44 36L44 37L42 37L42 36L41 36L41 35L42 35L42 34L41 34L41 33L40 33L40 31L42 31L42 30L41 30L41 29L40 29L40 28L42 28L42 27L38 27L38 29L40 29L40 31L39 31L39 30L38 30L38 31L36 31L36 30L37 30L37 29L36 29L36 27L37 27L37 26L39 26L39 25L40 25L40 24L39 24L39 25L36 25L36 24L35 24L35 23L39 23L39 19L38 19L38 18L39 18L39 16L38 16L38 15L37 15L37 16L38 16L38 17L37 17L37 21L36 21L36 22L35 22L35 20L34 20L34 15L33 15L33 16L32 16L32 17L33 17L33 19L32 19L32 18L30 18L30 17L29 17L29 15L27 15L27 13L25 13L25 12L24 12L24 14L21 14L21 13L23 13L23 12L21 12L21 13L20 13L20 14L19 14L19 12L20 12L20 11L24 11L24 10L25 10L25 11L28 11L28 10L29 10L29 9L28 9L28 8L30 8L30 4L29 4L29 7L28 7L28 6L27 6L27 9L24 9L24 10L22 10L22 8L20 8L20 6L21 6L21 7L22 7L22 6L21 6L21 5L19 5L19 4L20 4L20 3ZM37 3L37 4L38 4L38 3ZM23 5L23 8L26 8L26 5ZM24 6L24 7L25 7L25 6ZM31 6L31 7L32 7L32 8L31 8L31 9L32 9L32 10L33 10L33 9L34 9L34 8L33 8L33 7L32 7L32 6ZM32 8L32 9L33 9L33 8ZM13 9L13 10L14 10L14 9ZM15 9L15 15L16 15L16 16L19 16L19 15L16 15L16 10L17 10L17 9ZM18 9L18 10L19 10L19 11L20 11L20 10L21 10L21 9ZM6 11L6 12L7 12L7 11ZM11 11L11 12L12 12L12 11ZM17 11L17 12L18 12L18 11ZM30 12L30 13L29 13L29 14L32 14L32 13L31 13L31 12ZM17 13L17 14L18 14L18 13ZM42 13L42 14L41 14L41 16L40 16L40 18L41 18L41 19L42 19L42 22L43 22L43 21L45 21L45 20L43 20L43 19L44 19L44 18L45 18L45 17L44 17L44 18L43 18L43 16L44 16L44 14L43 14L43 13ZM1 14L1 15L2 15L2 17L3 17L3 15L2 15L2 14ZM24 14L24 16L22 16L22 15L20 15L20 18L21 18L21 17L23 17L23 19L21 19L21 20L23 20L23 22L21 22L21 21L19 21L19 20L20 20L20 19L19 19L19 20L18 20L18 19L17 19L17 17L15 17L15 18L14 18L14 19L12 19L12 18L13 18L13 17L12 17L12 18L11 18L11 19L9 19L9 21L10 21L10 22L6 22L6 21L7 21L7 20L6 20L6 21L5 21L5 22L4 22L4 27L5 27L5 28L6 28L6 29L7 29L7 30L6 30L6 31L8 31L8 30L9 30L9 28L10 28L10 27L9 27L9 24L10 24L10 26L11 26L11 25L12 25L12 26L13 26L13 27L14 27L14 28L13 28L13 29L12 29L12 30L13 30L13 29L14 29L14 28L15 28L15 27L16 27L16 26L17 26L17 25L18 25L18 26L19 26L19 25L18 25L18 24L17 24L17 23L18 23L18 22L19 22L19 24L20 24L20 25L21 25L21 26L20 26L20 27L21 27L21 28L22 28L22 29L23 29L23 30L22 30L22 31L21 31L21 32L20 32L20 34L21 34L21 32L22 32L22 31L23 31L23 30L25 30L25 29L26 29L26 28L27 28L27 27L29 27L29 26L32 26L32 25L33 25L33 24L34 24L34 23L35 23L35 22L34 22L34 21L33 21L33 20L32 20L32 19L29 19L29 18L27 18L27 19L29 19L29 22L28 22L28 20L24 20L24 18L25 18L25 19L26 19L26 18L25 18L25 17L28 17L28 16L27 16L27 15L26 15L26 16L25 16L25 14ZM39 14L39 15L40 15L40 14ZM4 15L4 16L5 16L5 15ZM30 15L30 16L31 16L31 15ZM41 16L41 17L42 17L42 16ZM47 16L47 17L48 17L48 16ZM4 17L4 18L5 18L5 17ZM18 17L18 18L19 18L19 17ZM15 18L15 20L14 20L14 21L15 21L15 20L16 20L16 21L18 21L18 20L16 20L16 18ZM42 18L42 19L43 19L43 18ZM0 19L0 20L1 20L1 19ZM11 19L11 20L10 20L10 21L11 21L11 20L12 20L12 22L11 22L11 24L12 24L12 25L13 25L13 24L15 24L15 23L14 23L14 22L13 22L13 20L12 20L12 19ZM40 20L40 22L41 22L41 20ZM24 21L24 22L25 22L25 21ZM30 21L30 23L27 23L27 25L28 25L28 26L29 26L29 25L30 25L30 24L31 24L31 25L32 25L32 21ZM37 21L37 22L38 22L38 21ZM12 22L12 24L13 24L13 22ZM16 22L16 23L17 23L17 22ZM20 22L20 23L21 23L21 25L22 25L22 23L21 23L21 22ZM5 23L5 26L8 26L8 23ZM23 23L23 26L26 26L26 23ZM41 23L41 26L44 26L44 23ZM6 24L6 25L7 25L7 24ZM16 24L16 25L17 25L17 24ZM24 24L24 25L25 25L25 24ZM42 24L42 25L43 25L43 24ZM14 26L14 27L15 27L15 26ZM45 26L45 27L44 27L44 29L45 29L45 27L46 27L46 28L47 28L47 27L46 27L46 26ZM6 27L6 28L7 28L7 29L8 29L8 28L7 28L7 27ZM22 27L22 28L23 28L23 29L24 29L24 28L26 28L26 27ZM18 28L18 29L19 29L19 30L21 30L21 29L20 29L20 28ZM35 29L35 30L36 30L36 29ZM27 30L27 31L28 31L28 32L27 32L27 33L26 33L26 34L25 34L25 33L24 33L24 36L25 36L25 37L26 37L26 35L27 35L27 34L28 34L28 36L29 36L29 37L30 37L30 38L31 38L31 39L30 39L30 40L32 40L32 39L33 39L33 37L36 37L36 36L35 36L35 35L33 35L33 34L31 34L31 33L30 33L30 34L29 34L29 32L30 32L30 31L28 31L28 30ZM16 31L16 32L17 32L17 31ZM35 31L35 32L34 32L34 33L35 33L35 32L36 32L36 31ZM1 32L1 33L2 33L2 32ZM13 32L13 33L12 33L12 35L14 35L14 34L13 34L13 33L14 33L14 32ZM39 33L39 34L40 34L40 35L41 35L41 34L40 34L40 33ZM2 34L2 35L3 35L3 34ZM29 35L29 36L30 36L30 35ZM32 36L32 37L31 37L31 38L32 38L32 37L33 37L33 36ZM40 36L40 37L41 37L41 36ZM1 38L1 40L0 40L0 41L3 41L3 40L4 40L4 39L2 39L2 38ZM12 38L12 39L13 39L13 38ZM34 38L34 42L35 42L35 44L36 44L36 39L35 39L35 38ZM6 40L6 41L8 41L8 42L9 42L9 41L12 41L12 40ZM14 40L14 41L15 41L15 40ZM23 41L23 44L26 44L26 41ZM28 41L28 42L29 42L29 41ZM41 41L41 44L44 44L44 41ZM14 42L14 43L16 43L16 42ZM24 42L24 43L25 43L25 42ZM39 42L39 43L40 43L40 42ZM42 42L42 43L43 43L43 42ZM17 43L17 46L19 46L19 45L18 45L18 44L19 44L19 43ZM21 43L21 44L22 44L22 43ZM37 43L37 44L38 44L38 46L37 46L37 45L36 45L36 46L35 46L35 45L34 45L34 44L30 44L30 47L31 47L31 45L34 45L34 46L35 46L35 47L36 47L36 46L37 46L37 48L38 48L38 47L39 47L39 45L40 45L40 46L41 46L41 45L40 45L40 44L38 44L38 43ZM46 44L46 46L45 46L45 47L46 47L46 46L47 46L47 44ZM10 45L10 46L11 46L11 45ZM42 45L42 46L44 46L44 45ZM17 47L17 48L18 48L18 47ZM13 48L13 49L14 49L14 48ZM47 48L47 49L49 49L49 48ZM0 0L0 7L7 7L7 0ZM1 1L1 6L6 6L6 1ZM2 2L2 5L5 5L5 2ZM42 0L42 7L49 7L49 0ZM43 1L43 6L48 6L48 1ZM44 2L44 5L47 5L47 2ZM0 42L0 49L7 49L7 42ZM1 43L1 48L6 48L6 43ZM2 44L2 47L5 47L5 44Z" fill="#000000"/></g></g></svg>
