<?xml version="1.0" encoding="UTF-8"?>
<svg xmlns="http://www.w3.org/2000/svg" version="1.1" width="200" height="200" viewBox="0 0 200 200"><rect x="0" y="0" width="200" height="200" fill="#ffffff"/><g transform="scale(3.774)"><g transform="translate(2,2)"><path fill-rule="evenodd" d="M10 0L10 2L11 2L11 3L9 3L9 2L8 2L8 4L9 4L9 6L8 6L8 7L9 7L9 6L10 6L10 7L11 7L11 6L12 6L12 7L13 7L13 8L10 8L10 9L8 9L8 8L6 8L6 9L7 9L7 10L5 10L5 8L3 8L3 10L1 10L1 9L0 9L0 10L1 10L1 11L0 11L0 15L2 15L2 16L3 16L3 13L2 13L2 11L4 11L4 15L5 15L5 17L4 17L4 18L3 18L3 19L2 19L2 20L1 20L1 18L0 18L0 23L1 23L1 21L2 21L2 22L3 22L3 23L4 23L4 24L0 24L0 27L1 27L1 28L0 28L0 32L1 32L1 29L2 29L2 30L3 30L3 29L5 29L5 27L10 27L10 28L9 28L9 34L11 34L11 32L12 32L12 34L13 34L13 38L11 38L11 37L10 37L10 36L12 36L12 35L10 35L10 36L9 36L9 35L8 35L8 33L7 33L7 32L8 32L8 31L7 31L7 30L8 30L8 28L6 28L6 29L7 29L7 30L5 30L5 31L4 31L4 33L3 33L3 32L2 32L2 33L1 33L1 34L2 34L2 37L1 37L1 36L0 36L0 37L1 37L1 40L0 40L0 41L3 41L3 40L4 40L4 39L2 39L2 38L5 38L5 39L7 39L7 40L6 40L6 41L7 41L7 40L8 40L8 43L9 43L9 44L8 44L8 46L9 46L9 49L12 49L12 48L15 48L15 49L17 49L17 48L18 48L18 49L20 49L20 48L22 48L22 49L23 49L23 48L22 48L22 47L23 47L23 46L25 46L25 47L24 47L24 48L26 48L26 49L34 49L34 48L35 48L35 49L37 49L37 48L35 48L35 47L38 47L38 46L39 46L39 45L40 45L40 47L41 47L41 48L43 48L43 49L45 49L45 48L43 48L43 46L44 46L44 47L45 47L45 46L46 46L46 48L48 48L48 49L49 49L49 42L47 42L47 41L49 41L49 40L47 40L47 39L44 39L44 38L45 38L45 37L43 37L43 36L44 36L44 35L43 35L43 34L41 34L41 32L40 32L40 31L37 31L37 28L36 28L36 27L37 27L37 26L38 26L38 28L39 28L39 29L40 29L40 30L41 30L41 31L44 31L44 34L45 34L45 35L46 35L46 36L47 36L47 38L48 38L48 39L49 39L49 38L48 38L48 37L49 37L49 34L48 34L48 33L45 33L45 31L46 31L46 30L47 30L47 32L49 32L49 30L47 30L47 28L48 28L48 29L49 29L49 28L48 28L48 27L49 27L49 26L48 26L48 27L47 27L47 25L48 25L48 23L49 23L49 22L48 22L48 21L49 21L49 18L47 18L47 17L49 17L49 14L48 14L48 13L49 13L49 12L48 12L48 11L49 11L49 10L48 10L48 9L47 9L47 8L45 8L45 9L44 9L44 10L45 10L45 9L46 9L46 10L47 10L47 11L46 11L46 12L47 12L47 13L45 13L45 11L40 11L40 10L41 10L41 9L40 9L40 10L39 10L39 5L38 5L38 4L37 4L37 3L38 3L38 2L39 2L39 4L40 4L40 3L41 3L41 0L40 0L40 1L36 1L36 0L32 0L32 1L33 1L33 3L32 3L32 5L31 5L31 4L29 4L29 2L28 2L28 7L27 7L27 4L22 4L22 5L21 5L21 3L20 3L20 4L19 4L19 5L16 5L16 7L17 7L17 8L18 8L18 9L17 9L17 11L16 11L16 13L18 13L18 12L20 12L20 13L21 13L21 14L19 14L19 16L20 16L20 17L21 17L21 19L19 19L19 18L18 18L18 16L17 16L17 15L18 15L18 14L15 14L15 12L14 12L14 11L15 11L15 10L14 10L14 9L13 9L13 8L14 8L14 7L15 7L15 6L14 6L14 5L13 5L13 6L12 6L12 5L11 5L11 6L10 6L10 4L11 4L11 3L12 3L12 2L11 2L11 0ZM12 0L12 1L13 1L13 2L14 2L14 4L15 4L15 2L17 2L17 4L18 4L18 3L19 3L19 1L18 1L18 0L17 0L17 1L16 1L16 0ZM24 0L24 2L25 2L25 3L26 3L26 2L27 2L27 1L26 1L26 0ZM28 0L28 1L29 1L29 0ZM17 1L17 2L18 2L18 1ZM20 1L20 2L21 2L21 1ZM25 1L25 2L26 2L26 1ZM30 1L30 2L31 2L31 1ZM35 1L35 2L36 2L36 3L35 3L35 4L34 4L34 3L33 3L33 4L34 4L34 6L33 6L33 8L35 8L35 9L36 9L36 8L35 8L35 7L36 7L36 5L37 5L37 4L36 4L36 3L37 3L37 2L36 2L36 1ZM35 4L35 5L36 5L36 4ZM20 5L20 6L19 6L19 7L18 7L18 6L17 6L17 7L18 7L18 8L19 8L19 7L20 7L20 6L21 6L21 7L22 7L22 6L21 6L21 5ZM23 5L23 8L26 8L26 5ZM30 5L30 6L29 6L29 9L30 9L30 8L32 8L32 6L31 6L31 5ZM13 6L13 7L14 7L14 6ZM24 6L24 7L25 7L25 6ZM30 6L30 7L31 7L31 6ZM34 6L34 7L35 7L35 6ZM37 6L37 7L38 7L38 6ZM40 6L40 7L41 7L41 6ZM15 8L15 9L16 9L16 8ZM20 8L20 9L19 9L19 10L18 10L18 11L17 11L17 12L18 12L18 11L20 11L20 12L22 12L22 13L23 13L23 14L24 14L24 13L25 13L25 14L26 14L26 16L25 16L25 15L24 15L24 17L23 17L23 15L21 15L21 17L23 17L23 18L22 18L22 19L21 19L21 20L20 20L20 21L19 21L19 22L17 22L17 21L18 21L18 20L19 20L19 19L17 19L17 20L16 20L16 18L15 18L15 19L12 19L12 20L11 20L11 19L10 19L10 18L9 18L9 17L10 17L10 15L9 15L9 16L8 16L8 14L11 14L11 18L12 18L12 17L14 17L14 15L15 15L15 14L14 14L14 13L13 13L13 16L12 16L12 13L11 13L11 12L12 12L12 11L13 11L13 10L12 10L12 11L11 11L11 9L10 9L10 10L9 10L9 11L11 11L11 12L9 12L9 13L8 13L8 14L7 14L7 13L6 13L6 14L5 14L5 15L6 15L6 16L7 16L7 17L6 17L6 18L4 18L4 19L3 19L3 20L7 20L7 19L8 19L8 18L9 18L9 20L8 20L8 21L9 21L9 24L11 24L11 25L10 25L10 27L11 27L11 25L12 25L12 27L14 27L14 28L13 28L13 29L12 29L12 28L11 28L11 29L10 29L10 32L11 32L11 31L12 31L12 32L13 32L13 34L14 34L14 35L15 35L15 36L16 36L16 37L14 37L14 38L16 38L16 40L15 40L15 39L14 39L14 40L13 40L13 41L12 41L12 39L11 39L11 41L12 41L12 42L13 42L13 43L14 43L14 46L12 46L12 44L11 44L11 42L10 42L10 45L9 45L9 46L10 46L10 45L11 45L11 47L10 47L10 48L11 48L11 47L14 47L14 46L15 46L15 43L16 43L16 44L17 44L17 42L19 42L19 41L21 41L21 42L20 42L20 43L19 43L19 47L18 47L18 46L17 46L17 45L16 45L16 46L17 46L17 47L15 47L15 48L17 48L17 47L18 47L18 48L19 48L19 47L20 47L20 43L21 43L21 42L22 42L22 39L20 39L20 38L21 38L21 37L22 37L22 38L23 38L23 39L24 39L24 40L25 40L25 38L26 38L26 39L27 39L27 38L28 38L28 39L29 39L29 41L30 41L30 37L31 37L31 38L32 38L32 37L31 37L31 36L30 36L30 35L31 35L31 34L32 34L32 35L33 35L33 36L34 36L34 33L32 33L32 32L30 32L30 30L29 30L29 29L32 29L32 28L33 28L33 32L34 32L34 31L35 31L35 32L36 32L36 33L35 33L35 36L37 36L37 37L39 37L39 34L40 34L40 33L39 33L39 32L38 32L38 33L37 33L37 32L36 32L36 31L35 31L35 30L36 30L36 29L35 29L35 25L33 25L33 26L32 26L32 25L31 25L31 26L30 26L30 25L29 25L29 24L28 24L28 21L29 21L29 22L30 22L30 24L31 24L31 21L32 21L32 22L33 22L33 23L32 23L32 24L34 24L34 21L35 21L35 22L36 22L36 23L35 23L35 24L37 24L37 25L36 25L36 26L37 26L37 25L38 25L38 23L39 23L39 24L40 24L40 21L41 21L41 22L42 22L42 21L43 21L43 22L45 22L45 21L48 21L48 20L47 20L47 18L46 18L46 16L45 16L45 15L44 15L44 16L41 16L41 15L38 15L38 14L37 14L37 15L36 15L36 14L35 14L35 11L34 11L34 9L33 9L33 11L34 11L34 13L32 13L32 12L31 12L31 10L32 10L32 9L31 9L31 10L30 10L30 12L28 12L28 11L27 11L27 10L26 10L26 11L23 11L23 10L24 10L24 9L22 9L22 11L21 11L21 8ZM37 9L37 10L38 10L38 12L39 12L39 14L42 14L42 15L43 15L43 14L44 14L44 13L43 13L43 14L42 14L42 13L41 13L41 12L40 12L40 11L39 11L39 10L38 10L38 9ZM42 9L42 10L43 10L43 9ZM4 10L4 11L5 11L5 12L8 12L8 11L5 11L5 10ZM36 11L36 12L37 12L37 11ZM26 12L26 13L27 13L27 12ZM1 13L1 14L2 14L2 13ZM29 13L29 14L28 14L28 15L29 15L29 14L30 14L30 17L29 17L29 16L26 16L26 17L25 17L25 18L23 18L23 19L24 19L24 22L23 22L23 21L22 21L22 20L21 20L21 22L22 22L22 23L21 23L21 24L19 24L19 23L17 23L17 24L19 24L19 27L18 27L18 25L17 25L17 28L16 28L16 27L15 27L15 28L16 28L16 30L15 30L15 31L13 31L13 32L14 32L14 33L16 33L16 34L17 34L17 33L18 33L18 34L19 34L19 35L16 35L16 36L17 36L17 37L16 37L16 38L17 38L17 39L18 39L18 38L20 38L20 37L21 37L21 36L22 36L22 37L23 37L23 38L24 38L24 37L27 37L27 34L29 34L29 35L28 35L28 37L30 37L30 36L29 36L29 35L30 35L30 34L31 34L31 33L28 33L28 32L29 32L29 30L27 30L27 29L24 29L24 28L26 28L26 27L27 27L27 28L32 28L32 26L31 26L31 27L28 27L28 26L29 26L29 25L28 25L28 24L27 24L27 22L25 22L25 20L26 20L26 21L27 21L27 20L30 20L30 21L31 21L31 20L30 20L30 17L32 17L32 18L31 18L31 19L32 19L32 21L34 21L34 19L35 19L35 20L36 20L36 22L37 22L37 23L38 23L38 22L39 22L39 21L38 21L38 20L39 20L39 17L37 17L37 16L38 16L38 15L37 15L37 16L36 16L36 15L35 15L35 16L34 16L34 15L33 15L33 14L32 14L32 13ZM6 14L6 15L7 15L7 14ZM31 14L31 16L32 16L32 14ZM46 14L46 15L47 15L47 16L48 16L48 14ZM44 16L44 17L45 17L45 16ZM7 17L7 18L6 18L6 19L7 19L7 18L8 18L8 17ZM27 17L27 18L25 18L25 19L29 19L29 18L28 18L28 17ZM34 17L34 18L35 18L35 17ZM36 17L36 18L37 18L37 17ZM40 17L40 19L42 19L42 20L43 20L43 21L44 21L44 20L43 20L43 17ZM44 18L44 19L46 19L46 18ZM36 19L36 20L37 20L37 19ZM13 20L13 21L12 21L12 22L11 22L11 21L10 21L10 23L11 23L11 24L12 24L12 23L13 23L13 24L14 24L14 25L15 25L15 22L14 22L14 21L15 21L15 20ZM5 21L5 22L7 22L7 21ZM37 21L37 22L38 22L38 21ZM46 22L46 23L45 23L45 26L46 26L46 25L47 25L47 24L46 24L46 23L47 23L47 22ZM5 23L5 26L8 26L8 23ZM23 23L23 26L26 26L26 23ZM41 23L41 26L44 26L44 23ZM6 24L6 25L7 25L7 24ZM24 24L24 25L25 25L25 24ZM42 24L42 25L43 25L43 24ZM1 25L1 27L2 27L2 29L3 29L3 27L2 27L2 26L3 26L3 25ZM21 25L21 27L22 27L22 25ZM39 25L39 27L40 27L40 25ZM42 27L42 28L43 28L43 29L44 29L44 31L45 31L45 30L46 30L46 27L45 27L45 28L44 28L44 27ZM19 28L19 29L20 29L20 28ZM22 28L22 29L21 29L21 32L22 32L22 33L20 33L20 35L19 35L19 36L18 36L18 37L17 37L17 38L18 38L18 37L20 37L20 36L21 36L21 34L22 34L22 36L23 36L23 37L24 37L24 34L22 34L22 33L24 33L24 32L23 32L23 31L24 31L24 29L23 29L23 28ZM13 29L13 30L14 30L14 29ZM17 29L17 32L16 32L16 33L17 33L17 32L18 32L18 31L19 31L19 30L18 30L18 29ZM22 29L22 30L23 30L23 29ZM34 29L34 30L35 30L35 29ZM41 29L41 30L42 30L42 29ZM5 31L5 32L7 32L7 31ZM25 31L25 33L26 33L26 34L27 34L27 33L26 33L26 32L28 32L28 31ZM42 32L42 33L43 33L43 32ZM2 33L2 34L3 34L3 33ZM6 33L6 34L5 34L5 35L4 35L4 37L5 37L5 38L7 38L7 37L6 37L6 36L8 36L8 35L6 35L6 34L7 34L7 33ZM38 33L38 34L37 34L37 36L38 36L38 34L39 34L39 33ZM5 35L5 36L6 36L6 35ZM25 35L25 36L26 36L26 35ZM41 35L41 36L43 36L43 35ZM33 37L33 39L32 39L32 40L31 40L31 42L28 42L28 43L27 43L27 44L28 44L28 45L27 45L27 47L26 47L26 48L27 48L27 47L28 47L28 45L29 45L29 44L30 44L30 45L31 45L31 47L29 47L29 48L31 48L31 47L32 47L32 46L33 46L33 48L34 48L34 45L33 45L33 44L35 44L35 46L36 46L36 44L37 44L37 46L38 46L38 45L39 45L39 44L40 44L40 43L38 43L38 42L40 42L40 41L36 41L36 42L37 42L37 43L36 43L36 44L35 44L35 43L34 43L34 41L35 41L35 40L34 40L34 39L35 39L35 38L36 38L36 37ZM41 37L41 38L39 38L39 39L42 39L42 40L44 40L44 39L42 39L42 37ZM8 38L8 39L10 39L10 38ZM37 38L37 39L36 39L36 40L38 40L38 38ZM19 39L19 40L20 40L20 39ZM9 40L9 41L10 41L10 40ZM17 40L17 41L15 41L15 42L14 42L14 43L15 43L15 42L17 42L17 41L18 41L18 40ZM27 40L27 41L28 41L28 40ZM32 40L32 41L33 41L33 40ZM45 40L45 42L46 42L46 40ZM23 41L23 44L26 44L26 41ZM41 41L41 44L44 44L44 41ZM24 42L24 43L25 43L25 42ZM31 42L31 43L33 43L33 42ZM42 42L42 43L43 43L43 42ZM28 43L28 44L29 44L29 43ZM37 43L37 44L38 44L38 43ZM45 43L45 45L44 45L44 46L45 46L45 45L47 45L47 47L48 47L48 43ZM31 44L31 45L32 45L32 44ZM22 45L22 46L23 46L23 45ZM25 45L25 46L26 46L26 45ZM41 45L41 46L42 46L42 45ZM0 0L0 7L7 7L7 0ZM1 1L1 6L6 6L6 1ZM2 2L2 5L5 5L5 2ZM42 0L42 7L49 7L49 0ZM43 1L43 6L48 6L48 1ZM44 2L44 5L47 5L47 2ZM0 42L0 49L7 49L7 42ZM1 43L1 48L6 48L6 43ZM2 44L2 47L5 47L5 44Z" fill="#000000"/></g></g></svg>
