<?xml version="1.0" encoding="UTF-8"?>
<svg xmlns="http://www.w3.org/2000/svg" version="1.1" width="200" height="200" viewBox="0 0 200 200"><rect x="0" y="0" width="200" height="200" fill="#ffffff"/><g transform="scale(3.774)"><g transform="translate(2,2)"><path fill-rule="evenodd" d="M10 0L10 2L11 2L11 3L9 3L9 2L8 2L8 4L9 4L9 6L8 6L8 7L9 7L9 9L8 9L8 8L6 8L6 9L7 9L7 10L5 10L5 8L3 8L3 10L2 10L2 9L1 9L1 10L0 10L0 11L1 11L1 13L2 13L2 14L0 14L0 15L2 15L2 16L3 16L3 13L2 13L2 11L3 11L3 10L5 10L5 11L8 11L8 12L6 12L6 13L7 13L7 14L6 14L6 15L7 15L7 14L8 14L8 15L10 15L10 17L8 17L8 18L9 18L9 19L7 19L7 18L6 18L6 19L7 19L7 20L4 20L4 21L3 21L3 22L2 22L2 20L3 20L3 19L5 19L5 14L4 14L4 18L3 18L3 19L0 19L0 23L1 23L1 22L2 22L2 23L4 23L4 24L0 24L0 27L1 27L1 28L0 28L0 30L1 30L1 29L2 29L2 31L0 31L0 34L1 34L1 33L3 33L3 34L2 34L2 35L0 35L0 36L1 36L1 37L0 37L0 38L1 38L1 40L0 40L0 41L3 41L3 40L4 40L4 39L2 39L2 38L5 38L5 39L7 39L7 40L6 40L6 41L7 41L7 40L8 40L8 43L9 43L9 44L8 44L8 46L9 46L9 49L12 49L12 48L15 48L15 49L17 49L17 48L18 48L18 49L20 49L20 48L22 48L22 49L23 49L23 48L22 48L22 47L23 47L23 46L25 46L25 45L26 45L26 46L27 46L27 45L28 45L28 47L26 47L26 48L28 48L28 49L34 49L34 48L35 48L35 49L37 49L37 48L38 48L38 49L39 49L39 48L38 48L38 46L39 46L39 45L40 45L40 47L41 47L41 48L43 48L43 49L45 49L45 48L43 48L43 46L44 46L44 47L45 47L45 46L44 46L44 45L45 45L45 43L48 43L48 47L47 47L47 45L46 45L46 48L48 48L48 49L49 49L49 42L47 42L47 41L49 41L49 40L47 40L47 39L44 39L44 38L45 38L45 37L43 37L43 36L44 36L44 35L43 35L43 34L41 34L41 32L40 32L40 31L37 31L37 28L36 28L36 27L35 27L35 29L34 29L34 30L35 30L35 31L34 31L34 32L33 32L33 30L32 30L32 29L33 29L33 28L32 28L32 26L33 26L33 25L36 25L36 26L38 26L38 28L39 28L39 29L40 29L40 30L41 30L41 31L44 31L44 34L45 34L45 35L46 35L46 36L47 36L47 38L48 38L48 39L49 39L49 38L48 38L48 37L49 37L49 34L48 34L48 33L45 33L45 31L46 31L46 30L47 30L47 32L49 32L49 30L47 30L47 29L48 29L48 28L49 28L49 26L48 26L48 28L47 28L47 25L48 25L48 23L49 23L49 22L48 22L48 21L49 21L49 18L47 18L47 17L49 17L49 14L48 14L48 13L49 13L49 12L48 12L48 11L49 11L49 10L48 10L48 9L47 9L47 8L45 8L45 9L44 9L44 10L45 10L45 9L46 9L46 10L47 10L47 11L46 11L46 12L47 12L47 13L45 13L45 11L41 11L41 9L40 9L40 10L39 10L39 5L38 5L38 4L37 4L37 3L38 3L38 2L39 2L39 4L40 4L40 3L41 3L41 0L40 0L40 1L36 1L36 0L33 0L33 1L32 1L32 2L33 2L33 3L31 3L31 4L28 4L28 3L29 3L29 2L28 2L28 3L27 3L27 4L22 4L22 8L21 8L21 11L22 11L22 9L24 9L24 10L23 10L23 11L25 11L25 13L24 13L24 14L22 14L22 17L21 17L21 16L20 16L20 14L21 14L21 13L22 13L22 12L20 12L20 11L18 11L18 10L19 10L19 9L20 9L20 8L19 8L19 6L18 6L18 5L16 5L16 7L15 7L15 6L14 6L14 5L13 5L13 4L12 4L12 2L11 2L11 0ZM12 0L12 1L13 1L13 2L14 2L14 4L16 4L16 3L15 3L15 2L17 2L17 4L18 4L18 3L19 3L19 5L20 5L20 4L21 4L21 3L19 3L19 1L18 1L18 0L17 0L17 1L16 1L16 0ZM21 0L21 1L20 1L20 2L25 2L25 3L26 3L26 2L27 2L27 1L29 1L29 0L24 0L24 1L22 1L22 0ZM17 1L17 2L18 2L18 1ZM35 1L35 2L36 2L36 3L35 3L35 4L34 4L34 3L33 3L33 4L34 4L34 6L33 6L33 5L32 5L32 4L31 4L31 5L30 5L30 6L29 6L29 5L28 5L28 4L27 4L27 5L28 5L28 6L27 6L27 7L28 7L28 6L29 6L29 9L30 9L30 10L29 10L29 11L30 11L30 12L28 12L28 11L27 11L27 10L26 10L26 11L27 11L27 12L26 12L26 13L25 13L25 14L26 14L26 13L27 13L27 15L26 15L26 16L24 16L24 17L23 17L23 18L22 18L22 19L21 19L21 20L20 20L20 18L21 18L21 17L19 17L19 14L20 14L20 12L18 12L18 11L17 11L17 10L18 10L18 9L19 9L19 8L18 8L18 9L17 9L17 8L16 8L16 9L15 9L15 10L14 10L14 11L15 11L15 12L14 12L14 13L13 13L13 12L12 12L12 11L13 11L13 10L12 10L12 11L11 11L11 8L13 8L13 9L14 9L14 8L13 8L13 7L14 7L14 6L13 6L13 5L12 5L12 4L10 4L10 6L9 6L9 7L10 7L10 6L11 6L11 8L10 8L10 10L9 10L9 12L10 12L10 13L8 13L8 14L13 14L13 15L12 15L12 16L11 16L11 18L10 18L10 19L11 19L11 20L10 20L10 21L9 21L9 20L8 20L8 21L9 21L9 24L11 24L11 25L10 25L10 27L5 27L5 28L4 28L4 29L3 29L3 27L2 27L2 26L3 26L3 25L1 25L1 27L2 27L2 29L3 29L3 31L2 31L2 32L3 32L3 33L4 33L4 31L6 31L6 32L7 32L7 33L6 33L6 34L5 34L5 35L4 35L4 34L3 34L3 35L2 35L2 36L4 36L4 37L5 37L5 38L7 38L7 37L6 37L6 36L8 36L8 35L9 35L9 34L10 34L10 35L12 35L12 36L14 36L14 37L18 37L18 35L17 35L17 34L19 34L19 32L22 32L22 34L21 34L21 33L20 33L20 35L19 35L19 36L21 36L21 37L22 37L22 38L23 38L23 39L24 39L24 40L25 40L25 38L26 38L26 39L27 39L27 40L29 40L29 41L30 41L30 37L31 37L31 38L32 38L32 37L31 37L31 36L30 36L30 35L31 35L31 34L32 34L32 35L34 35L34 33L32 33L32 32L31 32L31 34L26 34L26 32L25 32L25 34L26 34L26 36L27 36L27 37L24 37L24 34L23 34L23 30L24 30L24 31L27 31L27 32L28 32L28 33L29 33L29 32L28 32L28 31L30 31L30 30L29 30L29 29L32 29L32 28L28 28L28 31L27 31L27 30L26 30L26 29L27 29L27 27L28 27L28 25L29 25L29 26L30 26L30 27L31 27L31 26L32 26L32 25L29 25L29 24L28 24L28 25L27 25L27 27L26 27L26 29L23 29L23 30L22 30L22 28L21 28L21 29L20 29L20 30L18 30L18 29L17 29L17 25L18 25L18 27L19 27L19 24L21 24L21 23L22 23L22 22L21 22L21 20L22 20L22 21L23 21L23 22L24 22L24 18L25 18L25 19L28 19L28 16L27 16L27 15L28 15L28 14L29 14L29 17L30 17L30 19L29 19L29 20L27 20L27 21L26 21L26 20L25 20L25 22L27 22L27 23L28 23L28 21L29 21L29 23L31 23L31 21L32 21L32 22L33 22L33 23L32 23L32 24L34 24L34 21L35 21L35 22L36 22L36 23L35 23L35 24L37 24L37 25L38 25L38 23L39 23L39 24L40 24L40 21L41 21L41 22L42 22L42 21L43 21L43 22L45 22L45 21L48 21L48 20L47 20L47 18L46 18L46 16L45 16L45 15L44 15L44 16L41 16L41 15L38 15L38 14L37 14L37 13L36 13L36 14L35 14L35 11L34 11L34 9L33 9L33 11L34 11L34 13L32 13L32 12L31 12L31 11L30 11L30 10L32 10L32 9L31 9L31 8L32 8L32 6L33 6L33 8L35 8L35 9L36 9L36 8L35 8L35 7L36 7L36 5L37 5L37 4L36 4L36 3L37 3L37 2L36 2L36 1ZM35 4L35 5L36 5L36 4ZM11 5L11 6L12 6L12 7L13 7L13 6L12 6L12 5ZM23 5L23 8L26 8L26 5ZM17 6L17 7L18 7L18 6ZM20 6L20 7L21 7L21 6ZM24 6L24 7L25 7L25 6ZM30 6L30 8L31 8L31 6ZM34 6L34 7L35 7L35 6ZM37 6L37 7L38 7L38 6ZM40 6L40 7L41 7L41 6ZM37 9L37 10L38 10L38 12L39 12L39 14L42 14L42 15L43 15L43 14L44 14L44 13L43 13L43 14L42 14L42 13L41 13L41 12L39 12L39 10L38 10L38 9ZM42 9L42 10L43 10L43 9ZM1 10L1 11L2 11L2 10ZM10 11L10 12L11 12L11 13L12 13L12 12L11 12L11 11ZM16 11L16 12L17 12L17 13L16 13L16 14L17 14L17 15L18 15L18 14L19 14L19 13L18 13L18 12L17 12L17 11ZM36 11L36 12L37 12L37 11ZM4 12L4 13L5 13L5 12ZM14 13L14 14L15 14L15 13ZM17 13L17 14L18 14L18 13ZM29 13L29 14L30 14L30 17L31 17L31 16L32 16L32 21L34 21L34 19L35 19L35 20L36 20L36 22L37 22L37 23L38 23L38 22L39 22L39 21L38 21L38 20L39 20L39 17L37 17L37 16L38 16L38 15L37 15L37 14L36 14L36 15L35 15L35 16L34 16L34 15L33 15L33 14L32 14L32 13ZM31 14L31 15L32 15L32 14ZM46 14L46 15L47 15L47 16L48 16L48 14ZM14 15L14 17L13 17L13 18L12 18L12 20L13 20L13 18L15 18L15 20L14 20L14 21L12 21L12 22L10 22L10 23L11 23L11 24L12 24L12 23L13 23L13 24L14 24L14 25L15 25L15 22L14 22L14 21L15 21L15 20L16 20L16 19L17 19L17 20L18 20L18 16L16 16L16 15ZM36 15L36 16L37 16L37 15ZM6 16L6 17L7 17L7 16ZM15 16L15 18L16 18L16 16ZM26 16L26 17L25 17L25 18L27 18L27 16ZM44 16L44 17L40 17L40 19L42 19L42 20L43 20L43 21L44 21L44 20L43 20L43 19L44 19L44 17L45 17L45 16ZM34 17L34 18L35 18L35 17ZM36 17L36 18L37 18L37 17ZM45 18L45 19L46 19L46 18ZM30 19L30 21L31 21L31 19ZM36 19L36 20L37 20L37 19ZM19 20L19 21L18 21L18 22L19 22L19 21L20 21L20 20ZM5 21L5 22L7 22L7 21ZM37 21L37 22L38 22L38 21ZM46 22L46 23L45 23L45 26L46 26L46 25L47 25L47 24L46 24L46 23L47 23L47 22ZM5 23L5 26L8 26L8 23ZM17 23L17 24L19 24L19 23ZM23 23L23 26L26 26L26 23ZM41 23L41 26L44 26L44 23ZM6 24L6 25L7 25L7 24ZM24 24L24 25L25 25L25 24ZM42 24L42 25L43 25L43 24ZM11 25L11 27L10 27L10 28L5 28L5 30L6 30L6 31L7 31L7 32L8 32L8 31L7 31L7 30L6 30L6 29L9 29L9 30L10 30L10 31L9 31L9 33L11 33L11 30L14 30L14 29L13 29L13 28L14 28L14 27L12 27L12 25ZM21 25L21 27L22 27L22 25ZM39 25L39 27L40 27L40 25ZM15 27L15 28L16 28L16 27ZM42 27L42 28L43 28L43 29L41 29L41 30L43 30L43 29L44 29L44 31L45 31L45 30L46 30L46 27L45 27L45 28L44 28L44 27ZM10 29L10 30L11 30L11 29ZM35 29L35 30L36 30L36 29ZM16 30L16 31L15 31L15 32L14 32L14 33L13 33L13 32L12 32L12 34L13 34L13 35L15 35L15 33L16 33L16 34L17 34L17 33L18 33L18 31L17 31L17 30ZM31 30L31 31L32 31L32 30ZM16 31L16 33L17 33L17 31ZM35 31L35 32L36 32L36 33L35 33L35 36L34 36L34 37L33 37L33 39L32 39L32 40L31 40L31 42L29 42L29 44L28 44L28 42L27 42L27 44L28 44L28 45L29 45L29 44L30 44L30 43L31 43L31 44L32 44L32 45L31 45L31 47L30 47L30 46L29 46L29 47L30 47L30 48L31 48L31 47L32 47L32 46L33 46L33 48L34 48L34 45L33 45L33 44L35 44L35 46L36 46L36 44L37 44L37 46L38 46L38 45L39 45L39 44L40 44L40 43L38 43L38 42L40 42L40 41L36 41L36 42L37 42L37 43L36 43L36 44L35 44L35 43L34 43L34 41L35 41L35 40L34 40L34 39L36 39L36 40L38 40L38 38L35 38L35 36L37 36L37 37L39 37L39 34L40 34L40 33L39 33L39 32L38 32L38 33L37 33L37 32L36 32L36 31ZM42 32L42 33L43 33L43 32ZM38 33L38 34L37 34L37 35L38 35L38 34L39 34L39 33ZM6 34L6 35L5 35L5 36L6 36L6 35L8 35L8 34ZM22 34L22 35L21 35L21 36L22 36L22 37L23 37L23 38L24 38L24 37L23 37L23 34ZM16 35L16 36L17 36L17 35ZM28 35L28 37L30 37L30 36L29 36L29 35ZM41 35L41 36L43 36L43 35ZM9 36L9 37L10 37L10 38L8 38L8 39L10 39L10 38L11 38L11 37L10 37L10 36ZM19 37L19 38L18 38L18 39L17 39L17 38L16 38L16 39L17 39L17 40L18 40L18 41L16 41L16 42L15 42L15 39L14 39L14 40L13 40L13 41L12 41L12 40L11 40L11 42L13 42L13 45L14 45L14 46L12 46L12 43L11 43L11 45L10 45L10 44L9 44L9 46L11 46L11 47L10 47L10 48L11 48L11 47L14 47L14 46L15 46L15 44L14 44L14 43L17 43L17 45L16 45L16 46L17 46L17 47L15 47L15 48L17 48L17 47L18 47L18 48L19 48L19 47L20 47L20 43L21 43L21 46L22 46L22 41L21 41L21 42L20 42L20 43L17 43L17 42L19 42L19 40L20 40L20 37ZM41 37L41 38L39 38L39 39L42 39L42 40L44 40L44 39L42 39L42 37ZM27 38L27 39L28 39L28 38ZM21 39L21 40L22 40L22 39ZM9 40L9 41L10 41L10 40ZM32 40L32 41L33 41L33 40ZM45 40L45 42L46 42L46 40ZM23 41L23 44L26 44L26 41ZM41 41L41 44L44 44L44 41ZM24 42L24 43L25 43L25 42ZM31 42L31 43L33 43L33 42ZM42 42L42 43L43 43L43 42ZM37 43L37 44L38 44L38 43ZM41 45L41 46L42 46L42 45ZM18 46L18 47L19 47L19 46ZM24 47L24 48L25 48L25 47ZM35 47L35 48L37 48L37 47ZM0 0L0 7L7 7L7 0ZM1 1L1 6L6 6L6 1ZM2 2L2 5L5 5L5 2ZM42 0L42 7L49 7L49 0ZM43 1L43 6L48 6L48 1ZM44 2L44 5L47 5L47 2ZM0 42L0 49L7 49L7 42ZM1 43L1 48L6 48L6 43ZM2 44L2 47L5 47L5 44Z" fill="#000000"/></g></g></svg>
