<?xml version="1.0" encoding="UTF-8"?>
<svg xmlns="http://www.w3.org/2000/svg" version="1.1" width="200" height="200" viewBox="0 0 200 200"><rect x="0" y="0" width="200" height="200" fill="#ffffff"/><g transform="scale(3.774)"><g transform="translate(2,2)"><path fill-rule="evenodd" d="M11 0L11 1L12 1L12 0ZM13 0L13 2L14 2L14 0ZM16 0L16 3L15 3L15 4L14 4L14 3L13 3L13 4L14 4L14 5L15 5L15 6L14 6L14 9L13 9L13 10L15 10L15 8L16 8L16 9L17 9L17 6L18 6L18 8L19 8L19 9L18 9L18 10L17 10L17 11L16 11L16 12L15 12L15 13L14 13L14 11L13 11L13 12L12 12L12 13L11 13L11 10L12 10L12 9L9 9L9 8L10 8L10 7L11 7L11 5L12 5L12 8L13 8L13 5L12 5L12 4L8 4L8 5L9 5L9 6L8 6L8 8L6 8L6 9L8 9L8 10L9 10L9 11L8 11L8 12L6 12L6 13L7 13L7 14L4 14L4 13L5 13L5 12L4 12L4 13L3 13L3 11L5 11L5 10L4 10L4 8L2 8L2 10L0 10L0 13L1 13L1 11L2 11L2 13L3 13L3 14L2 14L2 15L3 15L3 14L4 14L4 15L7 15L7 16L5 16L5 18L4 18L4 19L3 19L3 18L2 18L2 17L4 17L4 16L1 16L1 14L0 14L0 16L1 16L1 17L0 17L0 20L1 20L1 21L2 21L2 22L1 22L1 24L0 24L0 25L1 25L1 24L2 24L2 22L3 22L3 23L4 23L4 24L3 24L3 25L2 25L2 26L1 26L1 27L0 27L0 29L1 29L1 31L0 31L0 32L2 32L2 33L0 33L0 35L1 35L1 36L0 36L0 37L2 37L2 38L1 38L1 40L0 40L0 41L3 41L3 40L4 40L4 39L2 39L2 38L5 38L5 39L7 39L7 40L6 40L6 41L8 41L8 43L9 43L9 44L10 44L10 45L11 45L11 47L10 47L10 46L9 46L9 45L8 45L8 47L9 47L9 49L10 49L10 48L11 48L11 49L14 49L14 47L15 47L15 49L16 49L16 47L15 47L15 44L16 44L16 43L15 43L15 44L14 44L14 45L11 45L11 44L12 44L12 43L14 43L14 42L16 42L16 41L14 41L14 40L15 40L15 39L13 39L13 38L12 38L12 36L14 36L14 37L17 37L17 35L18 35L18 34L17 34L17 33L16 33L16 32L18 32L18 33L19 33L19 32L18 32L18 31L19 31L19 29L20 29L20 28L19 28L19 27L17 27L17 28L16 28L16 27L15 27L15 26L16 26L16 25L15 25L15 26L14 26L14 24L17 24L17 26L19 26L19 25L18 25L18 24L20 24L20 26L21 26L21 29L22 29L22 31L23 31L23 29L24 29L24 30L25 30L25 29L24 29L24 28L23 28L23 29L22 29L22 27L25 27L25 28L27 28L27 29L29 29L29 27L30 27L30 25L31 25L31 28L30 28L30 30L27 30L27 31L24 31L24 32L25 32L25 33L24 33L24 34L25 34L25 33L28 33L28 38L25 38L25 37L26 37L26 36L27 36L27 34L26 34L26 35L23 35L23 34L22 34L22 38L19 38L19 37L20 37L20 35L19 35L19 37L18 37L18 40L17 40L17 42L18 42L18 43L20 43L20 42L21 42L21 41L22 41L22 43L21 43L21 44L20 44L20 45L18 45L18 44L17 44L17 45L16 45L16 46L17 46L17 47L19 47L19 49L21 49L21 48L20 48L20 47L19 47L19 46L20 46L20 45L21 45L21 44L22 44L22 46L21 46L21 47L22 47L22 49L24 49L24 48L25 48L25 49L26 49L26 48L25 48L25 47L26 47L26 45L27 45L27 44L28 44L28 46L27 46L27 47L28 47L28 46L30 46L30 47L29 47L29 48L31 48L31 45L32 45L32 43L33 43L33 42L32 42L32 43L30 43L30 44L29 44L29 43L27 43L27 42L30 42L30 41L29 41L29 40L32 40L32 41L34 41L34 42L35 42L35 41L36 41L36 44L37 44L37 43L38 43L38 41L39 41L39 40L37 40L37 41L36 41L36 39L37 39L37 38L36 38L36 37L38 37L38 39L40 39L40 38L41 38L41 37L40 37L40 36L43 36L43 37L44 37L44 38L43 38L43 39L44 39L44 40L42 40L42 39L41 39L41 40L40 40L40 42L39 42L39 43L40 43L40 45L39 45L39 47L41 47L41 46L40 46L40 45L42 45L42 46L44 46L44 47L46 47L46 49L49 49L49 48L47 48L47 47L46 47L46 46L45 46L45 45L46 45L46 44L45 44L45 43L46 43L46 42L48 42L48 43L47 43L47 44L48 44L48 43L49 43L49 41L48 41L48 40L49 40L49 39L48 39L48 40L47 40L47 41L46 41L46 42L45 42L45 40L46 40L46 37L47 37L47 35L48 35L48 38L49 38L49 35L48 35L48 33L47 33L47 34L46 34L46 37L45 37L45 36L44 36L44 35L45 35L45 34L44 34L44 35L42 35L42 34L43 34L43 33L42 33L42 34L40 34L40 35L38 35L38 34L36 34L36 37L35 37L35 38L36 38L36 39L35 39L35 41L34 41L34 38L33 38L33 37L31 37L31 36L33 36L33 35L35 35L35 34L34 34L34 33L39 33L39 32L40 32L40 33L41 33L41 32L44 32L44 33L46 33L46 32L44 32L44 31L46 31L46 30L48 30L48 31L49 31L49 29L48 29L48 26L49 26L49 25L48 25L48 26L46 26L46 27L45 27L45 21L46 21L46 20L45 20L45 21L44 21L44 19L47 19L47 18L48 18L48 19L49 19L49 15L48 15L48 16L46 16L46 18L44 18L44 19L43 19L43 18L41 18L41 17L40 17L40 16L41 16L41 15L42 15L42 16L44 16L44 17L45 17L45 15L44 15L44 14L42 14L42 13L43 13L43 12L42 12L42 13L41 13L41 12L40 12L40 13L41 13L41 14L40 14L40 15L39 15L39 13L38 13L38 12L37 12L37 11L38 11L38 10L37 10L37 9L38 9L38 8L39 8L39 10L40 10L40 8L39 8L39 5L38 5L38 4L37 4L37 3L38 3L38 2L39 2L39 4L40 4L40 3L41 3L41 0L40 0L40 1L38 1L38 0L36 0L36 1L34 1L34 0L28 0L28 2L29 2L29 3L28 3L28 4L27 4L27 2L26 2L26 0L24 0L24 1L25 1L25 2L26 2L26 4L22 4L22 3L21 3L21 4L20 4L20 3L19 3L19 4L18 4L18 1L19 1L19 0L18 0L18 1L17 1L17 0ZM20 0L20 2L23 2L23 0ZM31 1L31 2L32 2L32 3L33 3L33 5L34 5L34 6L33 6L33 9L34 9L34 10L35 10L35 9L37 9L37 8L38 8L38 5L36 5L36 6L35 6L35 4L36 4L36 3L35 3L35 2L33 2L33 1ZM36 1L36 2L38 2L38 1ZM10 2L10 3L12 3L12 2ZM16 3L16 4L15 4L15 5L16 5L16 6L15 6L15 7L16 7L16 6L17 6L17 3ZM30 3L30 5L29 5L29 7L30 7L30 8L31 8L31 9L32 9L32 6L31 6L31 7L30 7L30 5L32 5L32 4L31 4L31 3ZM21 4L21 5L20 5L20 6L19 6L19 5L18 5L18 6L19 6L19 8L20 8L20 9L19 9L19 10L20 10L20 11L19 11L19 12L20 12L20 14L18 14L18 13L17 13L17 12L18 12L18 11L17 11L17 12L16 12L16 14L17 14L17 18L16 18L16 15L15 15L15 16L14 16L14 15L13 15L13 13L12 13L12 14L10 14L10 13L9 13L9 16L7 16L7 17L6 17L6 18L7 18L7 19L5 19L5 21L4 21L4 20L2 20L2 21L3 21L3 22L5 22L5 21L6 21L6 22L10 22L10 20L8 20L8 21L6 21L6 20L7 20L7 19L9 19L9 16L10 16L10 18L11 18L11 19L12 19L12 18L13 18L13 17L14 17L14 19L13 19L13 20L11 20L11 22L12 22L12 21L14 21L14 19L15 19L15 21L16 21L16 23L20 23L20 24L21 24L21 25L22 25L22 24L21 24L21 23L22 23L22 22L20 22L20 21L23 21L23 22L24 22L24 20L25 20L25 19L26 19L26 20L27 20L27 21L25 21L25 22L27 22L27 24L28 24L28 21L29 21L29 20L30 20L30 22L29 22L29 23L30 23L30 24L29 24L29 25L30 25L30 24L31 24L31 25L33 25L33 26L32 26L32 27L33 27L33 26L34 26L34 28L33 28L33 33L34 33L34 32L35 32L35 31L36 31L36 32L38 32L38 31L36 31L36 30L37 30L37 29L38 29L38 30L39 30L39 29L41 29L41 31L40 31L40 32L41 32L41 31L42 31L42 30L43 30L43 31L44 31L44 28L45 28L45 27L42 27L42 28L43 28L43 29L41 29L41 27L38 27L38 25L39 25L39 26L40 26L40 22L42 22L42 20L43 20L43 19L42 19L42 20L41 20L41 18L40 18L40 17L39 17L39 16L37 16L37 15L38 15L38 13L37 13L37 15L36 15L36 17L34 17L34 15L35 15L35 13L36 13L36 12L35 12L35 11L33 11L33 12L32 12L32 13L30 13L30 14L31 14L31 15L28 15L28 14L29 14L29 13L28 13L28 12L29 12L29 11L30 11L30 9L29 9L29 11L27 11L27 12L25 12L25 13L26 13L26 14L25 14L25 15L24 15L24 14L22 14L22 15L21 15L21 12L22 12L22 11L23 11L23 13L24 13L24 11L26 11L26 10L24 10L24 9L21 9L21 7L22 7L22 4ZM23 5L23 8L26 8L26 5ZM9 6L9 7L10 7L10 6ZM20 6L20 7L21 7L21 6ZM24 6L24 7L25 7L25 6ZM27 6L27 10L28 10L28 6ZM34 6L34 9L35 9L35 6ZM36 6L36 7L37 7L37 6ZM40 6L40 7L41 7L41 6ZM41 8L41 9L42 9L42 11L43 11L43 8ZM44 8L44 9L45 9L45 8ZM20 9L20 10L21 10L21 9ZM47 9L47 10L46 10L46 13L45 13L45 14L46 14L46 13L47 13L47 11L48 11L48 14L49 14L49 11L48 11L48 9ZM2 10L2 11L3 11L3 10ZM6 10L6 11L7 11L7 10ZM36 10L36 11L37 11L37 10ZM44 10L44 12L45 12L45 10ZM33 12L33 13L34 13L34 12ZM26 14L26 16L24 16L24 15L22 15L22 17L21 17L21 15L19 15L19 18L20 18L20 19L19 19L19 20L20 20L20 19L21 19L21 20L23 20L23 19L22 19L22 17L23 17L23 18L24 18L24 17L25 17L25 18L28 18L28 20L29 20L29 19L30 19L30 17L31 17L31 16L30 16L30 17L29 17L29 16L27 16L27 14ZM32 14L32 18L31 18L31 20L32 20L32 21L33 21L33 22L32 22L32 23L34 23L34 24L33 24L33 25L35 25L35 26L37 26L37 25L38 25L38 24L39 24L39 23L38 23L38 22L37 22L37 21L38 21L38 20L39 20L39 22L40 22L40 20L39 20L39 19L38 19L38 20L37 20L37 18L36 18L36 20L37 20L37 21L36 21L36 22L34 22L34 21L33 21L33 20L34 20L34 17L33 17L33 15L34 15L34 14ZM11 16L11 18L12 18L12 16ZM23 16L23 17L24 17L24 16ZM7 17L7 18L8 18L8 17ZM28 17L28 18L29 18L29 17ZM38 17L38 18L39 18L39 17ZM32 18L32 19L33 19L33 18ZM16 19L16 21L17 21L17 22L19 22L19 21L17 21L17 20L18 20L18 19ZM43 21L43 22L44 22L44 21ZM47 21L47 23L46 23L46 25L47 25L47 23L48 23L48 21ZM13 22L13 23L12 23L12 24L11 24L11 23L10 23L10 24L11 24L11 25L10 25L10 26L11 26L11 27L13 27L13 28L12 28L12 29L9 29L9 32L8 32L8 33L9 33L9 35L6 35L6 34L7 34L7 33L6 33L6 32L7 32L7 31L8 31L8 30L7 30L7 29L8 29L8 28L9 28L9 27L6 27L6 28L7 28L7 29L4 29L4 28L5 28L5 27L4 27L4 26L2 26L2 31L4 31L4 32L5 32L5 36L4 36L4 35L2 35L2 34L1 34L1 35L2 35L2 36L3 36L3 37L6 37L6 38L7 38L7 39L8 39L8 38L7 38L7 37L9 37L9 39L11 39L11 41L12 41L12 42L11 42L11 43L10 43L10 41L9 41L9 43L10 43L10 44L11 44L11 43L12 43L12 42L13 42L13 41L12 41L12 38L11 38L11 37L10 37L10 36L9 36L9 35L10 35L10 34L11 34L11 35L14 35L14 34L15 34L15 36L16 36L16 35L17 35L17 34L15 34L15 31L14 31L14 29L15 29L15 30L17 30L17 31L18 31L18 30L17 30L17 29L19 29L19 28L17 28L17 29L16 29L16 28L14 28L14 27L13 27L13 25L12 25L12 24L13 24L13 23L15 23L15 22ZM36 22L36 23L37 23L37 22ZM5 23L5 26L8 26L8 23ZM23 23L23 26L26 26L26 23ZM41 23L41 26L44 26L44 23ZM6 24L6 25L7 25L7 24ZM24 24L24 25L25 25L25 24ZM35 24L35 25L36 25L36 24ZM42 24L42 25L43 25L43 24ZM27 26L27 27L28 27L28 26ZM35 27L35 28L34 28L34 31L35 31L35 30L36 30L36 27ZM46 27L46 28L47 28L47 27ZM13 28L13 29L12 29L12 31L11 31L11 30L10 30L10 32L9 32L9 33L12 33L12 34L13 34L13 33L14 33L14 32L12 32L12 31L13 31L13 29L14 29L14 28ZM38 28L38 29L39 29L39 28ZM45 29L45 30L46 30L46 29ZM4 30L4 31L5 31L5 32L6 32L6 31L7 31L7 30L6 30L6 31L5 31L5 30ZM27 31L27 32L29 32L29 33L31 33L31 34L30 34L30 35L29 35L29 37L30 37L30 36L31 36L31 34L32 34L32 35L33 35L33 34L32 34L32 31L31 31L31 32L30 32L30 31ZM20 32L20 33L21 33L21 32ZM6 36L6 37L7 37L7 36ZM23 36L23 38L22 38L22 39L21 39L21 40L22 40L22 39L23 39L23 38L24 38L24 37L25 37L25 36ZM38 36L38 37L39 37L39 36ZM28 38L28 39L26 39L26 40L28 40L28 39L33 39L33 38ZM44 38L44 39L45 39L45 38ZM24 39L24 40L25 40L25 39ZM18 41L18 42L20 42L20 41ZM23 41L23 44L26 44L26 41ZM41 41L41 44L44 44L44 41ZM24 42L24 43L25 43L25 42ZM42 42L42 43L43 43L43 42ZM30 44L30 45L31 45L31 44ZM34 44L34 45L33 45L33 46L32 46L32 48L33 48L33 49L35 49L35 48L36 48L36 49L38 49L38 48L37 48L37 47L38 47L38 46L37 46L37 45L36 45L36 46L34 46L34 45L35 45L35 44ZM23 45L23 46L24 46L24 47L23 47L23 48L24 48L24 47L25 47L25 45ZM48 45L48 46L49 46L49 45ZM13 46L13 47L11 47L11 48L13 48L13 47L14 47L14 46ZM33 47L33 48L34 48L34 47ZM40 48L40 49L42 49L42 48ZM44 48L44 49L45 49L45 48ZM0 0L0 7L7 7L7 0ZM1 1L1 6L6 6L6 1ZM2 2L2 5L5 5L5 2ZM42 0L42 7L49 7L49 0ZM43 1L43 6L48 6L48 1ZM44 2L44 5L47 5L47 2ZM0 42L0 49L7 49L7 42ZM1 43L1 48L6 48L6 43ZM2 44L2 47L5 47L5 44Z" fill="#000000"/></g></g></svg>
