<?xml version="1.0" encoding="UTF-8"?>
<svg xmlns="http://www.w3.org/2000/svg" version="1.1" width="200" height="200" viewBox="0 0 200 200"><rect x="0" y="0" width="200" height="200" fill="#ffffff"/><g transform="scale(3.774)"><g transform="translate(2,2)"><path fill-rule="evenodd" d="M8 0L8 1L10 1L10 0ZM12 0L12 1L11 1L11 2L9 2L9 3L8 3L8 4L9 4L9 6L8 6L8 7L9 7L9 8L8 8L8 10L9 10L9 8L11 8L11 9L12 9L12 8L11 8L11 4L9 4L9 3L14 3L14 2L13 2L13 0ZM14 0L14 1L15 1L15 2L16 2L16 1L17 1L17 0ZM18 0L18 2L19 2L19 1L20 1L20 0ZM21 0L21 1L22 1L22 2L21 2L21 3L22 3L22 4L20 4L20 3L19 3L19 4L20 4L20 7L19 7L19 6L18 6L18 7L17 7L17 6L16 6L16 5L18 5L18 4L17 4L17 3L15 3L15 4L14 4L14 7L13 7L13 6L12 6L12 7L13 7L13 10L11 10L11 11L10 11L10 13L9 13L9 11L8 11L8 14L9 14L9 15L7 15L7 14L5 14L5 13L4 13L4 12L5 12L5 11L7 11L7 10L5 10L5 11L4 11L4 9L7 9L7 8L4 8L4 9L3 9L3 8L2 8L2 9L0 9L0 10L1 10L1 11L0 11L0 19L1 19L1 20L0 20L0 22L1 22L1 20L2 20L2 22L4 22L4 26L3 26L3 25L2 25L2 24L3 24L3 23L0 23L0 27L1 27L1 28L0 28L0 30L3 30L3 33L4 33L4 34L5 34L5 35L4 35L4 36L3 36L3 35L2 35L2 36L1 36L1 37L2 37L2 36L3 36L3 37L4 37L4 38L5 38L5 39L7 39L7 38L5 38L5 35L8 35L8 36L9 36L9 38L8 38L8 42L9 42L9 43L8 43L8 45L9 45L9 43L10 43L10 45L11 45L11 46L13 46L13 47L15 47L15 48L13 48L13 49L17 49L17 47L19 47L19 46L18 46L18 45L19 45L19 44L20 44L20 46L21 46L21 47L20 47L20 48L19 48L19 49L20 49L20 48L23 48L23 49L24 49L24 48L23 48L23 46L24 46L24 47L25 47L25 48L26 48L26 49L28 49L28 48L29 48L29 49L31 49L31 48L29 48L29 47L28 47L28 45L29 45L29 46L30 46L30 45L29 45L29 44L31 44L31 43L32 43L32 45L31 45L31 46L32 46L32 49L33 49L33 48L34 48L34 49L35 49L35 47L34 47L34 45L35 45L35 44L34 44L34 43L35 43L35 42L36 42L36 41L37 41L37 43L36 43L36 45L37 45L37 47L36 47L36 49L37 49L37 48L38 48L38 49L40 49L40 48L41 48L41 49L42 49L42 47L43 47L43 48L44 48L44 49L46 49L46 47L47 47L47 49L49 49L49 48L48 48L48 47L49 47L49 46L48 46L48 45L49 45L49 44L48 44L48 43L49 43L49 40L48 40L48 39L49 39L49 36L48 36L48 35L49 35L49 28L48 28L48 31L47 31L47 30L46 30L46 27L45 27L45 26L46 26L46 23L47 23L47 25L49 25L49 24L48 24L48 23L49 23L49 20L48 20L48 23L47 23L47 22L46 22L46 23L45 23L45 21L46 21L46 19L44 19L44 21L43 21L43 22L42 22L42 21L41 21L41 22L40 22L40 19L41 19L41 20L42 20L42 19L43 19L43 18L42 18L42 17L43 17L43 16L42 16L42 13L43 13L43 14L44 14L44 17L45 17L45 18L46 18L46 17L47 17L47 15L46 15L46 17L45 17L45 13L46 13L46 14L47 14L47 13L46 13L46 11L47 11L47 12L48 12L48 11L49 11L49 8L48 8L48 11L47 11L47 10L46 10L46 8L45 8L45 9L43 9L43 10L44 10L44 13L43 13L43 12L42 12L42 13L41 13L41 14L40 14L40 11L39 11L39 14L40 14L40 15L38 15L38 16L39 16L39 17L38 17L38 19L37 19L37 18L36 18L36 17L37 17L37 15L36 15L36 14L38 14L38 9L37 9L37 8L38 8L38 7L39 7L39 10L40 10L40 8L41 8L41 11L42 11L42 8L41 8L41 6L40 6L40 7L39 7L39 5L38 5L38 3L37 3L37 5L38 5L38 7L37 7L37 6L36 6L36 7L37 7L37 8L36 8L36 9L37 9L37 10L36 10L36 12L35 12L35 15L34 15L34 14L33 14L33 15L34 15L34 16L35 16L35 15L36 15L36 17L34 17L34 19L35 19L35 18L36 18L36 21L35 21L35 22L36 22L36 25L35 25L35 24L34 24L34 21L33 21L33 20L32 20L32 19L33 19L33 17L32 17L32 14L31 14L31 13L34 13L34 9L35 9L35 4L36 4L36 1L35 1L35 0L34 0L34 3L33 3L33 4L32 4L32 3L31 3L31 2L30 2L30 3L28 3L28 5L27 5L27 2L29 2L29 1L28 1L28 0L27 0L27 2L25 2L25 1L24 1L24 0L23 0L23 1L22 1L22 0ZM31 0L31 1L32 1L32 0ZM40 0L40 1L37 1L37 2L39 2L39 4L40 4L40 3L41 3L41 0ZM23 1L23 2L22 2L22 3L23 3L23 4L25 4L25 2L24 2L24 1ZM30 3L30 5L28 5L28 6L27 6L27 7L28 7L28 8L29 8L29 9L27 9L27 10L28 10L28 12L27 12L27 14L26 14L26 9L25 9L25 15L24 15L24 16L25 16L25 15L26 15L26 16L27 16L27 14L28 14L28 12L30 12L30 13L29 13L29 14L30 14L30 13L31 13L31 12L33 12L33 11L32 11L32 10L33 10L33 9L32 9L32 10L31 10L31 9L30 9L30 5L31 5L31 3ZM34 3L34 4L33 4L33 7L32 7L32 6L31 6L31 7L32 7L32 8L33 8L33 7L34 7L34 4L35 4L35 3ZM15 4L15 5L16 5L16 4ZM21 5L21 7L20 7L20 8L19 8L19 9L18 9L18 8L17 8L17 9L16 9L16 8L14 8L14 10L15 10L15 11L12 11L12 12L11 12L11 14L10 14L10 15L11 15L11 16L10 16L10 18L11 18L11 19L9 19L9 17L8 17L8 16L7 16L7 15L5 15L5 14L4 14L4 13L3 13L3 14L2 14L2 12L3 12L3 11L1 11L1 16L3 16L3 17L4 17L4 18L2 18L2 17L1 17L1 19L3 19L3 21L4 21L4 20L5 20L5 22L7 22L7 21L8 21L8 22L9 22L9 23L10 23L10 22L11 22L11 23L12 23L12 22L15 22L15 21L14 21L14 20L15 20L15 19L13 19L13 18L12 18L12 17L14 17L14 18L15 18L15 17L16 17L16 16L12 16L12 15L13 15L13 12L14 12L14 15L16 15L16 14L15 14L15 12L16 12L16 13L17 13L17 17L20 17L20 15L21 15L21 14L20 14L20 13L21 13L21 12L23 12L23 13L22 13L22 14L23 14L23 13L24 13L24 10L23 10L23 9L22 9L22 8L21 8L21 7L22 7L22 5ZM23 5L23 8L26 8L26 5ZM9 6L9 7L10 7L10 6ZM15 6L15 7L16 7L16 6ZM24 6L24 7L25 7L25 6ZM28 6L28 7L29 7L29 6ZM20 8L20 9L19 9L19 12L18 12L18 14L19 14L19 15L18 15L18 16L19 16L19 15L20 15L20 14L19 14L19 12L20 12L20 11L23 11L23 10L21 10L21 8ZM2 9L2 10L3 10L3 9ZM15 9L15 10L16 10L16 11L18 11L18 9L17 9L17 10L16 10L16 9ZM45 10L45 11L46 11L46 10ZM30 11L30 12L31 12L31 11ZM6 12L6 13L7 13L7 12ZM48 13L48 15L49 15L49 13ZM3 14L3 15L4 15L4 16L5 16L5 15L4 15L4 14ZM30 15L30 16L31 16L31 15ZM6 16L6 17L7 17L7 16ZM11 16L11 17L12 17L12 16ZM21 16L21 18L20 18L20 20L19 20L19 19L18 19L18 18L16 18L16 20L17 20L17 21L16 21L16 23L17 23L17 24L16 24L16 25L13 25L13 24L9 24L9 26L10 26L10 27L11 27L11 28L10 28L10 29L9 29L9 27L6 27L6 28L5 28L5 27L4 27L4 28L3 28L3 29L5 29L5 30L4 30L4 33L5 33L5 34L8 34L8 35L9 35L9 34L11 34L11 35L10 35L10 38L9 38L9 41L10 41L10 43L11 43L11 45L14 45L14 46L16 46L16 44L14 44L14 43L12 43L12 41L14 41L14 42L15 42L15 43L16 43L16 42L17 42L17 41L18 41L18 42L19 42L19 40L20 40L20 39L21 39L21 38L22 38L22 39L23 39L23 37L22 37L22 36L24 36L24 35L25 35L25 37L24 37L24 38L25 38L25 37L27 37L27 38L30 38L30 39L29 39L29 40L28 40L28 39L26 39L26 40L28 40L28 41L29 41L29 42L30 42L30 43L31 43L31 41L32 41L32 39L31 39L31 38L32 38L32 36L33 36L33 39L34 39L34 40L35 40L35 41L34 41L34 42L35 42L35 41L36 41L36 38L35 38L35 37L36 37L36 36L35 36L35 33L34 33L34 35L33 35L33 34L32 34L32 36L31 36L31 38L30 38L30 37L29 37L29 36L28 36L28 37L27 37L27 35L28 35L28 34L29 34L29 33L31 33L31 27L32 27L32 29L34 29L34 32L35 32L35 31L36 31L36 33L38 33L38 35L37 35L37 34L36 34L36 35L37 35L37 37L38 37L38 40L39 40L39 41L38 41L38 42L39 42L39 43L40 43L40 42L39 42L39 41L40 41L40 40L42 40L42 38L43 38L43 37L42 37L42 34L41 34L41 33L42 33L42 32L41 32L41 31L42 31L42 27L39 27L39 26L40 26L40 24L39 24L39 21L38 21L38 20L39 20L39 19L38 19L38 20L37 20L37 21L38 21L38 24L37 24L37 25L38 25L38 28L37 28L37 29L36 29L36 26L35 26L35 25L34 25L34 24L33 24L33 23L32 23L32 20L31 20L31 22L30 22L30 21L29 21L29 20L30 20L30 18L29 18L29 17L27 17L27 18L26 18L26 17L25 17L25 19L24 19L24 18L23 18L23 17L22 17L22 16ZM31 17L31 19L32 19L32 17ZM40 17L40 18L41 18L41 17ZM48 17L48 19L49 19L49 17ZM4 18L4 19L7 19L7 20L6 20L6 21L7 21L7 20L8 20L8 21L9 21L9 22L10 22L10 21L11 21L11 22L12 22L12 21L13 21L13 19L12 19L12 21L11 21L11 20L8 20L8 18ZM21 18L21 19L22 19L22 18ZM28 18L28 19L29 19L29 18ZM17 19L17 20L18 20L18 19ZM26 19L26 20L22 20L22 21L21 21L21 20L20 20L20 21L21 21L21 22L19 22L19 21L17 21L17 22L19 22L19 23L18 23L18 24L17 24L17 25L19 25L19 26L16 26L16 28L18 28L18 27L19 27L19 29L21 29L21 30L20 30L20 32L19 32L19 30L18 30L18 29L15 29L15 26L14 26L14 27L13 27L13 25L12 25L12 27L13 27L13 28L11 28L11 29L10 29L10 30L9 30L9 29L8 29L8 28L6 28L6 29L7 29L7 30L6 30L6 31L7 31L7 32L6 32L6 33L8 33L8 32L9 32L9 31L10 31L10 32L12 32L12 33L13 33L13 32L14 32L14 31L15 31L15 33L14 33L14 34L15 34L15 35L14 35L14 36L15 36L15 37L12 37L12 36L13 36L13 34L12 34L12 35L11 35L11 39L10 39L10 41L11 41L11 39L14 39L14 38L17 38L17 39L15 39L15 40L14 40L14 41L15 41L15 40L16 40L16 41L17 41L17 39L18 39L18 38L17 38L17 37L19 37L19 38L20 38L20 37L21 37L21 36L20 36L20 37L19 37L19 36L15 36L15 35L18 35L18 33L20 33L20 34L21 34L21 35L23 35L23 34L27 34L27 33L29 33L29 32L28 32L28 31L30 31L30 27L31 27L31 26L30 26L30 24L31 24L31 23L29 23L29 24L27 24L27 19ZM24 21L24 22L26 22L26 21ZM21 22L21 24L22 24L22 22ZM5 23L5 26L8 26L8 23ZM19 23L19 24L20 24L20 23ZM23 23L23 26L26 26L26 23ZM41 23L41 26L44 26L44 23ZM6 24L6 25L7 25L7 24ZM24 24L24 25L25 25L25 24ZM32 24L32 25L33 25L33 26L32 26L32 27L33 27L33 28L34 28L34 25L33 25L33 24ZM42 24L42 25L43 25L43 24ZM1 25L1 27L2 27L2 25ZM10 25L10 26L11 26L11 25ZM20 25L20 26L22 26L22 25ZM27 25L27 26L28 26L28 29L29 29L29 27L30 27L30 26L29 26L29 25ZM48 26L48 27L49 27L49 26ZM20 27L20 28L21 28L21 27ZM22 27L22 29L23 29L23 30L22 30L22 32L21 32L21 33L22 33L22 34L23 34L23 32L24 32L24 33L26 33L26 31L27 31L27 28L26 28L26 27L24 27L24 29L23 29L23 27ZM44 27L44 28L43 28L43 32L44 32L44 34L45 34L45 35L44 35L44 38L45 38L45 35L46 35L46 38L47 38L47 39L46 39L46 40L47 40L47 41L46 41L46 42L45 42L45 43L46 43L46 46L45 46L45 47L44 47L44 45L42 45L42 46L41 46L41 45L40 45L40 44L39 44L39 45L38 45L38 48L39 48L39 45L40 45L40 47L42 47L42 46L43 46L43 47L44 47L44 48L45 48L45 47L46 47L46 46L47 46L47 45L48 45L48 44L47 44L47 43L48 43L48 40L47 40L47 39L48 39L48 36L47 36L47 35L48 35L48 33L47 33L47 31L46 31L46 30L44 30L44 28L45 28L45 27ZM13 28L13 29L14 29L14 28ZM25 28L25 31L24 31L24 30L23 30L23 31L24 31L24 32L25 32L25 31L26 31L26 28ZM38 28L38 29L37 29L37 30L36 30L36 31L37 31L37 32L38 32L38 33L39 33L39 34L40 34L40 33L41 33L41 32L40 32L40 33L39 33L39 32L38 32L38 29L39 29L39 28ZM40 28L40 29L41 29L41 28ZM11 29L11 31L12 31L12 32L13 32L13 31L14 31L14 30L12 30L12 29ZM17 30L17 33L18 33L18 30ZM32 30L32 33L33 33L33 30ZM0 31L0 33L2 33L2 31ZM44 31L44 32L45 32L45 34L46 34L46 35L47 35L47 34L46 34L46 31ZM15 33L15 34L16 34L16 33ZM30 34L30 35L31 35L31 34ZM38 35L38 36L39 36L39 35ZM6 36L6 37L7 37L7 36ZM40 36L40 38L39 38L39 39L40 39L40 38L42 38L42 37L41 37L41 36ZM1 38L1 40L0 40L0 41L3 41L3 40L4 40L4 39L2 39L2 38ZM6 40L6 41L7 41L7 40ZM29 40L29 41L30 41L30 40ZM20 41L20 42L21 42L21 43L22 43L22 41ZM23 41L23 44L26 44L26 41ZM41 41L41 44L44 44L44 41ZM24 42L24 43L25 43L25 42ZM42 42L42 43L43 43L43 42ZM46 42L46 43L47 43L47 42ZM17 43L17 45L18 45L18 44L19 44L19 43ZM27 44L27 45L28 45L28 44ZM33 44L33 45L34 45L34 44ZM21 45L21 46L22 46L22 45ZM25 45L25 46L26 46L26 45ZM8 46L8 47L10 47L10 48L9 48L9 49L10 49L10 48L11 48L11 49L12 49L12 47L10 47L10 46ZM26 47L26 48L27 48L27 47ZM0 0L0 7L7 7L7 0ZM1 1L1 6L6 6L6 1ZM2 2L2 5L5 5L5 2ZM42 0L42 7L49 7L49 0ZM43 1L43 6L48 6L48 1ZM44 2L44 5L47 5L47 2ZM0 42L0 49L7 49L7 42ZM1 43L1 48L6 48L6 43ZM2 44L2 47L5 47L5 44Z" fill="#000000"/></g></g></svg>
