<?xml version="1.0" encoding="UTF-8"?>
<svg xmlns="http://www.w3.org/2000/svg" version="1.1" width="200" height="200" viewBox="0 0 200 200"><rect x="0" y="0" width="200" height="200" fill="#ffffff"/><g transform="scale(3.774)"><g transform="translate(2,2)"><path fill-rule="evenodd" d="M8 0L8 3L9 3L9 2L10 2L10 3L12 3L12 2L11 2L11 1L13 1L13 0L11 0L11 1L9 1L9 0ZM15 0L15 1L16 1L16 3L15 3L15 2L13 2L13 3L15 3L15 4L14 4L14 8L15 8L15 10L14 10L14 9L13 9L13 6L12 6L12 8L11 8L11 9L10 9L10 7L11 7L11 5L13 5L13 4L11 4L11 5L10 5L10 4L9 4L9 5L8 5L8 9L7 9L7 8L6 8L6 9L7 9L7 10L6 10L6 11L8 11L8 12L9 12L9 11L8 11L8 9L10 9L10 10L14 10L14 11L11 11L11 12L15 12L15 13L11 13L11 16L10 16L10 13L8 13L8 14L6 14L6 15L7 15L7 16L6 16L6 17L7 17L7 18L5 18L5 19L7 19L7 18L8 18L8 16L10 16L10 17L11 17L11 16L12 16L12 15L14 15L14 14L15 14L15 13L16 13L16 14L17 14L17 15L18 15L18 14L21 14L21 13L24 13L24 14L22 14L22 15L23 15L23 16L22 16L22 17L24 17L24 15L25 15L25 16L28 16L28 15L26 15L26 12L28 12L28 13L27 13L27 14L28 14L28 13L29 13L29 14L30 14L30 16L29 16L29 17L28 17L28 18L27 18L27 17L25 17L25 19L24 19L24 18L20 18L20 17L19 17L19 18L20 18L20 19L18 19L18 20L17 20L17 19L15 19L15 17L16 17L16 18L17 18L17 17L16 17L16 16L15 16L15 17L13 17L13 19L12 19L12 20L13 20L13 19L14 19L14 20L16 20L16 21L14 21L14 22L13 22L13 21L12 21L12 23L13 23L13 27L12 27L12 24L11 24L11 21L9 21L9 22L8 22L8 21L7 21L7 20L5 20L5 21L7 21L7 22L2 22L2 23L3 23L3 25L1 25L1 24L0 24L0 27L1 27L1 28L0 28L0 30L1 30L1 29L2 29L2 30L3 30L3 29L4 29L4 30L5 30L5 31L7 31L7 32L5 32L5 34L2 34L2 36L3 36L3 37L4 37L4 38L5 38L5 39L7 39L7 40L6 40L6 41L7 41L7 40L8 40L8 39L7 39L7 38L5 38L5 37L7 37L7 36L5 36L5 35L10 35L10 37L9 37L9 38L14 38L14 39L11 39L11 40L10 40L10 41L11 41L11 42L12 42L12 41L13 41L13 40L14 40L14 41L16 41L16 39L15 39L15 38L17 38L17 39L18 39L18 38L17 38L17 36L18 36L18 35L17 35L17 36L16 36L16 35L15 35L15 34L16 34L16 33L17 33L17 30L19 30L19 31L18 31L18 32L19 32L19 31L21 31L21 32L20 32L20 33L19 33L19 35L21 35L21 33L22 33L22 35L24 35L24 36L23 36L23 38L24 38L24 37L25 37L25 38L27 38L27 39L29 39L29 38L28 38L28 37L25 37L25 35L24 35L24 33L26 33L26 32L23 32L23 33L22 33L22 31L24 31L24 30L22 30L22 31L21 31L21 28L20 28L20 27L21 27L21 26L22 26L22 27L23 27L23 28L22 28L22 29L25 29L25 31L26 31L26 29L27 29L27 33L29 33L29 36L34 36L34 37L33 37L33 38L34 38L34 39L31 39L31 37L30 37L30 40L29 40L29 41L28 41L28 42L29 42L29 43L27 43L27 40L26 40L26 39L25 39L25 40L24 40L24 39L23 39L23 40L22 40L22 38L21 38L21 39L20 39L20 38L19 38L19 42L18 42L18 41L17 41L17 43L16 43L16 42L15 42L15 43L14 43L14 42L13 42L13 43L12 43L12 46L9 46L9 45L10 45L10 44L11 44L11 43L9 43L9 44L8 44L8 47L10 47L10 48L9 48L9 49L10 49L10 48L11 48L11 47L12 47L12 48L13 48L13 49L16 49L16 48L17 48L17 49L19 49L19 48L20 48L20 49L21 49L21 47L22 47L22 48L23 48L23 49L24 49L24 48L25 48L25 49L29 49L29 48L30 48L30 47L29 47L29 46L28 46L28 45L30 45L30 42L31 42L31 40L34 40L34 39L35 39L35 40L36 40L36 41L38 41L38 40L36 40L36 39L39 39L39 38L34 38L34 37L35 37L35 36L36 36L36 37L37 37L37 36L38 36L38 35L41 35L41 36L42 36L42 39L41 39L41 37L40 37L40 36L39 36L39 37L40 37L40 39L41 39L41 40L39 40L39 43L38 43L38 42L36 42L36 43L35 43L35 44L36 44L36 47L35 47L35 46L34 46L34 43L31 43L31 44L33 44L33 45L32 45L32 46L34 46L34 47L31 47L31 48L33 48L33 49L35 49L35 48L36 48L36 49L39 49L39 48L40 48L40 49L42 49L42 48L43 48L43 46L45 46L45 48L46 48L46 49L49 49L49 42L48 42L48 41L49 41L49 40L48 40L48 41L47 41L47 40L46 40L46 41L45 41L45 40L42 40L42 39L43 39L43 37L45 37L45 38L46 38L46 39L47 39L47 38L48 38L48 39L49 39L49 38L48 38L48 37L49 37L49 34L48 34L48 33L47 33L47 32L49 32L49 30L48 30L48 29L49 29L49 26L48 26L48 27L47 27L47 28L46 28L46 26L47 26L47 24L46 24L46 22L45 22L45 21L44 21L44 22L43 22L43 21L42 21L42 22L40 22L40 21L41 21L41 20L40 20L40 19L39 19L39 20L40 20L40 21L39 21L39 22L37 22L37 20L36 20L36 19L37 19L37 18L40 18L40 17L39 17L39 16L41 16L41 17L42 17L42 20L46 20L46 21L47 21L47 22L48 22L48 23L49 23L49 22L48 22L48 21L49 21L49 18L48 18L48 17L49 17L49 14L48 14L48 13L49 13L49 12L48 12L48 13L47 13L47 12L46 12L46 11L45 11L45 10L46 10L46 9L47 9L47 10L48 10L48 11L49 11L49 10L48 10L48 9L49 9L49 8L46 8L46 9L45 9L45 10L44 10L44 11L42 11L42 10L43 10L43 9L44 9L44 8L40 8L40 7L41 7L41 6L40 6L40 7L39 7L39 5L38 5L38 4L37 4L37 3L36 3L36 2L37 2L37 1L38 1L38 2L39 2L39 4L40 4L40 3L41 3L41 0L40 0L40 1L38 1L38 0L37 0L37 1L36 1L36 2L35 2L35 1L34 1L34 0L31 0L31 1L34 1L34 2L31 2L31 4L30 4L30 5L34 5L34 7L33 7L33 6L32 6L32 7L31 7L31 6L30 6L30 7L29 7L29 5L28 5L28 4L27 4L27 3L26 3L26 4L22 4L22 5L21 5L21 3L22 3L22 2L23 2L23 1L24 1L24 2L26 2L26 1L24 1L24 0L23 0L23 1L21 1L21 0L19 0L19 1L18 1L18 2L17 2L17 0ZM28 0L28 1L27 1L27 2L28 2L28 3L29 3L29 0ZM20 1L20 3L21 3L21 1ZM34 2L34 5L37 5L37 4L36 4L36 3L35 3L35 2ZM16 3L16 4L15 4L15 5L17 5L17 3ZM18 3L18 6L17 6L17 9L18 9L18 6L19 6L19 7L20 7L20 6L21 6L21 7L22 7L22 6L21 6L21 5L20 5L20 6L19 6L19 3ZM23 5L23 8L26 8L26 5ZM9 6L9 7L10 7L10 6ZM15 6L15 8L16 8L16 6ZM24 6L24 7L25 7L25 6ZM27 6L27 8L28 8L28 9L26 9L26 10L30 10L30 11L28 11L28 12L30 12L30 13L31 13L31 14L32 14L32 13L33 13L33 12L34 12L34 10L35 10L35 13L34 13L34 14L33 14L33 15L32 15L32 16L34 16L34 14L35 14L35 13L36 13L36 14L39 14L39 13L40 13L40 15L41 15L41 14L42 14L42 15L44 15L44 14L46 14L46 12L43 12L43 13L44 13L44 14L42 14L42 11L40 11L40 10L42 10L42 9L40 9L40 8L39 8L39 7L38 7L38 6L37 6L37 10L39 10L39 11L38 11L38 12L37 12L37 11L36 11L36 10L35 10L35 9L36 9L36 8L35 8L35 7L36 7L36 6L35 6L35 7L34 7L34 10L33 10L33 9L32 9L32 8L33 8L33 7L32 7L32 8L31 8L31 7L30 7L30 8L28 8L28 6ZM2 8L2 11L1 11L1 10L0 10L0 11L1 11L1 12L0 12L0 15L1 15L1 14L2 14L2 15L3 15L3 16L2 16L2 17L3 17L3 18L2 18L2 19L3 19L3 20L4 20L4 17L5 17L5 15L3 15L3 14L4 14L4 13L3 13L3 9L5 9L5 8ZM19 8L19 11L18 11L18 10L15 10L15 11L16 11L16 13L17 13L17 14L18 14L18 13L19 13L19 11L20 11L20 12L21 12L21 11L20 11L20 9L21 9L21 10L22 10L22 11L24 11L24 13L25 13L25 11L24 11L24 9L23 9L23 10L22 10L22 8ZM30 8L30 10L31 10L31 13L32 13L32 12L33 12L33 11L32 11L32 10L31 10L31 8ZM38 8L38 9L39 9L39 10L40 10L40 9L39 9L39 8ZM4 11L4 12L5 12L5 11ZM17 11L17 13L18 13L18 11ZM39 11L39 12L40 12L40 13L41 13L41 12L40 12L40 11ZM1 12L1 13L2 13L2 14L3 14L3 13L2 13L2 12ZM6 12L6 13L7 13L7 12ZM36 12L36 13L37 13L37 12ZM47 14L47 15L45 15L45 16L42 16L42 17L43 17L43 18L44 18L44 19L45 19L45 18L44 18L44 17L46 17L46 18L47 18L47 19L46 19L46 20L47 20L47 21L48 21L48 20L47 20L47 19L48 19L48 18L47 18L47 17L48 17L48 14ZM20 15L20 16L21 16L21 15ZM36 15L36 16L35 16L35 18L34 18L34 17L33 17L33 18L34 18L34 19L32 19L32 20L35 20L35 21L34 21L34 22L32 22L32 24L31 24L31 21L30 21L30 19L31 19L31 18L32 18L32 17L29 17L29 18L28 18L28 19L25 19L25 20L27 20L27 21L28 21L28 22L27 22L27 24L29 24L29 26L28 26L28 25L27 25L27 26L28 26L28 27L29 27L29 26L30 26L30 24L31 24L31 25L32 25L32 26L31 26L31 27L34 27L34 26L35 26L35 27L36 27L36 28L30 28L30 29L29 29L29 30L28 30L28 31L29 31L29 30L30 30L30 29L34 29L34 30L31 30L31 31L30 31L30 32L29 32L29 33L30 33L30 34L32 34L32 33L31 33L31 32L33 32L33 31L34 31L34 30L35 30L35 32L34 32L34 34L33 34L33 35L34 35L34 36L35 36L35 35L34 35L34 34L36 34L36 36L37 36L37 34L39 34L39 32L40 32L40 34L41 34L41 35L42 35L42 36L43 36L43 35L44 35L44 36L45 36L45 37L46 37L46 38L47 38L47 37L48 37L48 34L47 34L47 33L46 33L46 32L47 32L47 31L48 31L48 30L47 30L47 29L48 29L48 28L47 28L47 29L46 29L46 28L45 28L45 27L42 27L42 28L43 28L43 29L42 29L42 30L41 30L41 29L40 29L40 30L39 30L39 29L38 29L38 28L41 28L41 27L40 27L40 26L39 26L39 23L40 23L40 22L39 22L39 23L37 23L37 22L36 22L36 20L35 20L35 19L36 19L36 18L37 18L37 17L38 17L38 16L37 16L37 15ZM3 16L3 17L4 17L4 16ZM36 16L36 17L37 17L37 16ZM46 16L46 17L47 17L47 16ZM0 18L0 20L1 20L1 21L0 21L0 23L1 23L1 21L2 21L2 20L1 20L1 18ZM9 18L9 19L10 19L10 20L11 20L11 19L10 19L10 18ZM20 19L20 20L18 20L18 21L17 21L17 22L14 22L14 23L17 23L17 24L18 24L18 27L20 27L20 26L21 26L21 24L22 24L22 22L24 22L24 19L22 19L22 20L23 20L23 21L21 21L21 19ZM28 19L28 21L29 21L29 19ZM18 21L18 22L17 22L17 23L18 23L18 24L19 24L19 23L18 23L18 22L19 22L19 21ZM20 21L20 23L21 23L21 21ZM25 21L25 22L26 22L26 21ZM9 22L9 23L10 23L10 22ZM28 22L28 23L29 23L29 22ZM34 22L34 23L33 23L33 26L34 26L34 23L35 23L35 24L36 24L36 25L35 25L35 26L36 26L36 27L39 27L39 26L37 26L37 24L36 24L36 23L35 23L35 22ZM5 23L5 26L8 26L8 23ZM23 23L23 26L26 26L26 23ZM41 23L41 26L44 26L44 23ZM6 24L6 25L7 25L7 24ZM10 24L10 25L9 25L9 26L11 26L11 24ZM14 24L14 25L16 25L16 26L14 26L14 27L15 27L15 28L16 28L16 26L17 26L17 25L16 25L16 24ZM24 24L24 25L25 25L25 24ZM42 24L42 25L43 25L43 24ZM45 24L45 25L46 25L46 24ZM3 25L3 26L4 26L4 25ZM3 27L3 28L2 28L2 29L3 29L3 28L4 28L4 29L6 29L6 30L7 30L7 31L8 31L8 32L7 32L7 33L6 33L6 34L7 34L7 33L9 33L9 34L10 34L10 35L11 35L11 37L12 37L12 36L14 36L14 35L13 35L13 34L15 34L15 33L14 33L14 31L13 31L13 30L12 30L12 28L11 28L11 27L10 27L10 28L11 28L11 30L10 30L10 29L9 29L9 28L8 28L8 27ZM6 28L6 29L7 29L7 28ZM13 28L13 29L14 29L14 30L15 30L15 29L14 29L14 28ZM17 28L17 29L16 29L16 30L17 30L17 29L18 29L18 28ZM27 28L27 29L28 29L28 28ZM36 28L36 29L35 29L35 30L36 30L36 32L35 32L35 33L36 33L36 32L37 32L37 31L39 31L39 30L37 30L37 28ZM44 28L44 29L43 29L43 30L42 30L42 31L43 31L43 32L42 32L42 33L45 33L45 32L46 32L46 31L47 31L47 30L46 30L46 29L45 29L45 28ZM19 29L19 30L20 30L20 29ZM44 29L44 30L43 30L43 31L44 31L44 32L45 32L45 31L44 31L44 30L45 30L45 29ZM9 30L9 31L10 31L10 32L12 32L12 34L11 34L11 35L12 35L12 34L13 34L13 31L10 31L10 30ZM40 30L40 31L41 31L41 30ZM0 31L0 32L1 32L1 33L0 33L0 35L1 35L1 33L4 33L4 31L3 31L3 32L1 32L1 31ZM15 31L15 32L16 32L16 31ZM26 34L26 36L28 36L28 35L27 35L27 34ZM42 34L42 35L43 35L43 34ZM44 34L44 35L45 35L45 36L46 36L46 37L47 37L47 36L46 36L46 35L47 35L47 34ZM3 35L3 36L4 36L4 35ZM0 36L0 38L1 38L1 40L0 40L0 41L3 41L3 40L4 40L4 39L2 39L2 37L1 37L1 36ZM20 36L20 37L21 37L21 36ZM11 40L11 41L12 41L12 40ZM8 41L8 42L9 42L9 41ZM21 41L21 43L22 43L22 41ZM23 41L23 44L26 44L26 41ZM29 41L29 42L30 42L30 41ZM33 41L33 42L34 42L34 41ZM41 41L41 44L44 44L44 41ZM46 41L46 44L45 44L45 46L46 46L46 48L48 48L48 47L47 47L47 46L48 46L48 42L47 42L47 41ZM19 42L19 43L18 43L18 44L16 44L16 43L15 43L15 44L13 44L13 45L15 45L15 46L12 46L12 47L15 47L15 46L16 46L16 45L18 45L18 46L19 46L19 47L17 47L17 48L19 48L19 47L21 47L21 46L23 46L23 45L18 45L18 44L20 44L20 42ZM24 42L24 43L25 43L25 42ZM42 42L42 43L43 43L43 42ZM36 43L36 44L38 44L38 45L37 45L37 46L39 46L39 47L36 47L36 48L39 48L39 47L40 47L40 46L41 46L41 48L42 48L42 45L40 45L40 46L39 46L39 44L38 44L38 43ZM15 44L15 45L16 45L16 44ZM46 44L46 45L47 45L47 44ZM25 45L25 46L24 46L24 47L25 47L25 48L26 48L26 45ZM27 46L27 48L29 48L29 47L28 47L28 46ZM34 47L34 48L35 48L35 47ZM0 0L0 7L7 7L7 0ZM1 1L1 6L6 6L6 1ZM2 2L2 5L5 5L5 2ZM42 0L42 7L49 7L49 0ZM43 1L43 6L48 6L48 1ZM44 2L44 5L47 5L47 2ZM0 42L0 49L7 49L7 42ZM1 43L1 48L6 48L6 43ZM2 44L2 47L5 47L5 44Z" fill="#000000"/></g></g></svg>
