<?xml version="1.0" encoding="UTF-8"?>
<svg xmlns="http://www.w3.org/2000/svg" version="1.1" width="200" height="200" viewBox="0 0 200 200"><rect x="0" y="0" width="200" height="200" fill="#ffffff"/><g transform="scale(3.774)"><g transform="translate(2,2)"><path fill-rule="evenodd" d="M9 0L9 1L8 1L8 2L9 2L9 1L10 1L10 2L11 2L11 1L13 1L13 2L12 2L12 3L10 3L10 4L13 4L13 6L12 6L12 5L8 5L8 8L4 8L4 9L3 9L3 10L1 10L1 9L0 9L0 11L1 11L1 12L0 12L0 14L1 14L1 13L2 13L2 15L3 15L3 17L2 17L2 16L1 16L1 15L0 15L0 16L1 16L1 18L0 18L0 20L1 20L1 22L2 22L2 23L4 23L4 25L3 25L3 24L1 24L1 23L0 23L0 26L1 26L1 27L0 27L0 30L1 30L1 31L2 31L2 32L1 32L1 33L0 33L0 37L1 37L1 40L0 40L0 41L3 41L3 40L4 40L4 39L2 39L2 38L5 38L5 39L7 39L7 40L6 40L6 41L8 41L8 45L9 45L9 47L10 47L10 45L11 45L11 44L10 44L10 45L9 45L9 42L10 42L10 43L11 43L11 42L12 42L12 41L13 41L13 42L14 42L14 43L17 43L17 45L15 45L15 44L14 44L14 45L15 45L15 47L13 47L13 43L12 43L12 47L11 47L11 48L12 48L12 47L13 47L13 48L16 48L16 46L18 46L18 44L21 44L21 43L19 43L19 42L21 42L21 41L19 41L19 42L18 42L18 41L17 41L17 40L21 40L21 39L22 39L22 45L23 45L23 46L24 46L24 47L25 47L25 46L26 46L26 48L27 48L27 46L26 46L26 45L27 45L27 44L28 44L28 45L29 45L29 44L30 44L30 43L31 43L31 45L30 45L30 46L29 46L29 47L28 47L28 48L29 48L29 47L30 47L30 49L33 49L33 48L34 48L34 49L35 49L35 47L36 47L36 49L37 49L37 48L38 48L38 49L42 49L42 46L43 46L43 45L46 45L46 47L45 47L45 48L43 48L43 49L49 49L49 48L48 48L48 47L47 47L47 44L48 44L48 46L49 46L49 44L48 44L48 41L49 41L49 39L48 39L48 37L49 37L49 36L48 36L48 33L47 33L47 31L48 31L48 29L49 29L49 27L48 27L48 26L47 26L47 24L49 24L49 23L48 23L48 21L49 21L49 20L48 20L48 21L47 21L47 19L48 19L48 17L49 17L49 16L48 16L48 13L49 13L49 11L48 11L48 8L47 8L47 10L46 10L46 11L45 11L45 9L44 9L44 8L42 8L42 11L41 11L41 10L39 10L39 9L41 9L41 6L40 6L40 7L39 7L39 5L38 5L38 7L39 7L39 9L38 9L38 8L36 8L36 9L35 9L35 12L34 12L34 13L35 13L35 12L36 12L36 14L37 14L37 15L36 15L36 17L38 17L38 16L39 16L39 17L40 17L40 15L41 15L41 14L39 14L39 13L41 13L41 12L42 12L42 15L43 15L43 17L42 17L42 16L41 16L41 17L42 17L42 18L40 18L40 19L39 19L39 20L37 20L37 19L36 19L36 18L35 18L35 16L34 16L34 17L32 17L32 19L31 19L31 18L29 18L29 17L31 17L31 16L32 16L32 15L33 15L33 14L32 14L32 13L33 13L33 11L32 11L32 10L33 10L33 9L32 9L32 7L33 7L33 8L35 8L35 6L36 6L36 7L37 7L37 5L31 5L31 4L36 4L36 3L37 3L37 2L39 2L39 4L40 4L40 3L41 3L41 0L40 0L40 1L36 1L36 3L35 3L35 1L33 1L33 0L32 0L32 1L33 1L33 3L32 3L32 2L31 2L31 1L30 1L30 0L29 0L29 1L30 1L30 2L29 2L29 4L30 4L30 5L31 5L31 6L30 6L30 7L29 7L29 6L28 6L28 7L29 7L29 8L30 8L30 10L31 10L31 11L28 11L28 9L27 9L27 5L28 5L28 2L27 2L27 1L28 1L28 0L27 0L27 1L26 1L26 0L25 0L25 1L24 1L24 0L22 0L22 1L20 1L20 2L19 2L19 1L18 1L18 2L19 2L19 3L18 3L18 4L16 4L16 3L15 3L15 2L17 2L17 0L16 0L16 1L15 1L15 0L11 0L11 1L10 1L10 0ZM22 1L22 2L20 2L20 4L18 4L18 5L20 5L20 6L19 6L19 8L17 8L17 7L18 7L18 6L17 6L17 7L16 7L16 6L15 6L15 7L16 7L16 8L15 8L15 10L14 10L14 12L15 12L15 11L16 11L16 8L17 8L17 10L18 10L18 9L19 9L19 8L21 8L21 9L20 9L20 10L19 10L19 11L17 11L17 12L16 12L16 13L15 13L15 14L14 14L14 13L13 13L13 14L12 14L12 12L13 12L13 11L11 11L11 13L8 13L8 14L12 14L12 17L10 17L10 18L11 18L11 19L10 19L10 20L9 20L9 17L8 17L8 15L5 15L5 14L4 14L4 13L3 13L3 11L4 11L4 10L8 10L8 11L5 11L5 12L8 12L8 11L9 11L9 12L10 12L10 10L11 10L11 9L10 9L10 8L8 8L8 9L4 9L4 10L3 10L3 11L2 11L2 13L3 13L3 15L4 15L4 17L3 17L3 18L4 18L4 19L6 19L6 20L9 20L9 21L10 21L10 22L9 22L9 23L10 23L10 24L9 24L9 25L10 25L10 27L11 27L11 30L10 30L10 31L9 31L9 33L8 33L8 31L6 31L6 30L8 30L8 29L10 29L10 28L8 28L8 27L6 27L6 28L7 28L7 29L6 29L6 30L4 30L4 29L5 29L5 28L4 28L4 27L3 27L3 28L1 28L1 29L2 29L2 30L3 30L3 31L4 31L4 32L2 32L2 34L1 34L1 37L2 37L2 34L3 34L3 37L4 37L4 36L5 36L5 35L6 35L6 36L9 36L9 37L10 37L10 36L9 36L9 35L10 35L10 34L11 34L11 35L12 35L12 32L11 32L11 33L10 33L10 31L14 31L14 32L13 32L13 33L14 33L14 34L15 34L15 35L16 35L16 34L17 34L17 35L18 35L18 36L17 36L17 38L16 38L16 36L15 36L15 37L14 37L14 38L13 38L13 36L12 36L12 37L11 37L11 39L12 39L12 40L11 40L11 41L10 41L10 42L11 42L11 41L12 41L12 40L13 40L13 39L14 39L14 38L16 38L16 39L15 39L15 40L14 40L14 41L15 41L15 42L17 42L17 41L16 41L16 40L17 40L17 39L18 39L18 37L20 37L20 38L21 38L21 37L20 37L20 36L22 36L22 38L23 38L23 36L24 36L24 35L25 35L25 36L26 36L26 35L28 35L28 34L30 34L30 35L29 35L29 36L28 36L28 37L24 37L24 38L25 38L25 39L26 39L26 40L27 40L27 41L29 41L29 43L28 43L28 44L29 44L29 43L30 43L30 41L29 41L29 38L30 38L30 40L31 40L31 39L35 39L35 40L34 40L34 41L33 41L33 42L31 42L31 43L34 43L34 42L36 42L36 43L35 43L35 44L33 44L33 45L32 45L32 46L31 46L31 47L35 47L35 46L36 46L36 47L37 47L37 46L36 46L36 43L37 43L37 45L38 45L38 43L39 43L39 42L40 42L40 39L41 39L41 40L42 40L42 39L43 39L43 40L46 40L46 39L47 39L47 37L48 37L48 36L47 36L47 37L45 37L45 35L44 35L44 34L43 34L43 33L45 33L45 31L44 31L44 29L45 29L45 30L46 30L46 31L47 31L47 29L45 29L45 27L43 27L43 28L44 28L44 29L43 29L43 30L42 30L42 29L40 29L40 24L39 24L39 23L40 23L40 22L42 22L42 21L43 21L43 19L45 19L45 18L46 18L46 19L47 19L47 17L48 17L48 16L47 16L47 17L43 17L43 18L42 18L42 20L41 20L41 21L39 21L39 23L37 23L37 24L39 24L39 27L37 27L37 25L36 25L36 23L35 23L35 22L36 22L36 19L35 19L35 21L34 21L34 19L32 19L32 20L30 20L30 22L29 22L29 21L27 21L27 20L29 20L29 18L28 18L28 17L29 17L29 15L28 15L28 14L29 14L29 13L27 13L27 12L26 12L26 13L25 13L25 12L24 12L24 11L25 11L25 10L26 10L26 9L25 9L25 10L24 10L24 9L23 9L23 10L24 10L24 11L22 11L22 12L21 12L21 11L20 11L20 10L21 10L21 9L22 9L22 6L21 6L21 3L22 3L22 4L23 4L23 2L24 2L24 1ZM25 1L25 4L26 4L26 3L27 3L27 2L26 2L26 1ZM13 3L13 4L14 4L14 5L16 5L16 4L15 4L15 3ZM23 5L23 8L26 8L26 5ZM9 6L9 7L10 7L10 6ZM11 6L11 8L14 8L14 6L13 6L13 7L12 7L12 6ZM20 6L20 7L21 7L21 6ZM24 6L24 7L25 7L25 6ZM31 6L31 7L30 7L30 8L31 8L31 7L32 7L32 6ZM33 6L33 7L34 7L34 6ZM8 9L8 10L9 10L9 9ZM36 10L36 11L37 11L37 13L39 13L39 11L37 11L37 10ZM43 10L43 11L42 11L42 12L43 12L43 11L44 11L44 10ZM19 11L19 12L20 12L20 13L21 13L21 12L20 12L20 11ZM40 11L40 12L41 12L41 11ZM22 12L22 14L20 14L20 15L19 15L19 14L18 14L18 15L17 15L17 14L15 14L15 15L16 15L16 17L15 17L15 16L13 16L13 17L12 17L12 19L11 19L11 20L12 20L12 19L13 19L13 20L14 20L14 21L12 21L12 22L11 22L11 26L12 26L12 27L13 27L13 29L14 29L14 30L16 30L16 31L15 31L15 32L16 32L16 33L18 33L18 35L23 35L23 34L24 34L24 33L25 33L25 32L28 32L28 33L27 33L27 34L28 34L28 33L29 33L29 32L28 32L28 31L27 31L27 30L28 30L28 29L30 29L30 30L31 30L31 31L30 31L30 32L31 32L31 31L32 31L32 30L33 30L33 29L34 29L34 27L31 27L31 25L32 25L32 26L33 26L33 24L35 24L35 23L33 23L33 24L32 24L32 22L31 22L31 23L27 23L27 22L26 22L26 21L25 21L25 20L24 20L24 18L23 18L23 19L22 19L22 15L23 15L23 13L24 13L24 14L25 14L25 13L24 13L24 12ZM30 12L30 13L32 13L32 12ZM47 12L47 13L48 13L48 12ZM6 13L6 14L7 14L7 13ZM26 13L26 15L24 15L24 16L23 16L23 17L24 17L24 16L25 16L25 17L27 17L27 16L28 16L28 15L27 15L27 13ZM43 13L43 15L44 15L44 13ZM13 14L13 15L14 15L14 14ZM30 14L30 16L31 16L31 14ZM46 14L46 15L45 15L45 16L46 16L46 15L47 15L47 14ZM20 15L20 16L21 16L21 15ZM6 16L6 17L7 17L7 18L6 18L6 19L8 19L8 17L7 17L7 16ZM17 16L17 19L18 19L18 18L19 18L19 19L20 19L20 20L21 20L21 21L20 21L20 22L19 22L19 23L18 23L18 21L19 21L19 20L17 20L17 23L16 23L16 21L14 21L14 23L16 23L16 24L17 24L17 23L18 23L18 26L17 26L17 25L14 25L14 24L12 24L12 26L14 26L14 27L15 27L15 28L14 28L14 29L16 29L16 30L17 30L17 29L18 29L18 28L19 28L19 27L20 27L20 29L19 29L19 32L20 32L20 33L19 33L19 34L23 34L23 33L22 33L22 32L25 32L25 30L27 30L27 29L28 29L28 28L30 28L30 29L31 29L31 30L32 30L32 29L31 29L31 27L29 27L29 26L30 26L30 24L29 24L29 26L28 26L28 28L26 28L26 29L25 29L25 27L23 27L23 29L22 29L22 30L21 30L21 28L22 28L22 22L24 22L24 20L23 20L23 21L22 21L22 20L21 20L21 17L19 17L19 16ZM13 17L13 18L15 18L15 17ZM25 18L25 19L28 19L28 18ZM2 19L2 21L3 21L3 19ZM14 19L14 20L16 20L16 19ZM4 20L4 22L8 22L8 21L5 21L5 20ZM21 21L21 22L20 22L20 23L21 23L21 22L22 22L22 21ZM44 21L44 22L45 22L45 23L47 23L47 21ZM12 22L12 23L13 23L13 22ZM5 23L5 26L8 26L8 23ZM23 23L23 26L26 26L26 23ZM41 23L41 26L44 26L44 23ZM6 24L6 25L7 25L7 24ZM19 24L19 26L18 26L18 27L19 27L19 26L20 26L20 27L21 27L21 24ZM24 24L24 25L25 25L25 24ZM27 24L27 25L28 25L28 24ZM42 24L42 25L43 25L43 24ZM1 25L1 26L3 26L3 25ZM35 25L35 26L36 26L36 25ZM45 25L45 26L46 26L46 25ZM36 27L36 29L35 29L35 33L36 33L36 30L37 30L37 31L39 31L39 29L38 29L38 28L37 28L37 27ZM41 27L41 28L42 28L42 27ZM47 27L47 28L48 28L48 27ZM23 29L23 30L25 30L25 29ZM41 30L41 31L40 31L40 32L42 32L42 33L43 33L43 32L44 32L44 31L42 31L42 30ZM5 31L5 34L6 34L6 35L7 35L7 34L8 34L8 33L7 33L7 32L6 32L6 31ZM16 31L16 32L18 32L18 31ZM21 31L21 32L22 32L22 31ZM33 31L33 32L34 32L34 31ZM37 32L37 34L36 34L36 37L35 37L35 39L36 39L36 41L37 41L37 43L38 43L38 42L39 42L39 40L38 40L38 41L37 41L37 39L39 39L39 38L41 38L41 39L42 39L42 38L45 38L45 37L43 37L43 36L44 36L44 35L42 35L42 34L41 34L41 35L40 35L40 34L39 34L39 32ZM6 33L6 34L7 34L7 33ZM9 33L9 34L10 34L10 33ZM31 33L31 37L30 37L30 38L33 38L33 36L34 36L34 35L33 35L33 34L32 34L32 33ZM46 33L46 35L47 35L47 33ZM25 34L25 35L26 35L26 34ZM37 35L37 37L36 37L36 39L37 39L37 37L38 37L38 35ZM39 35L39 37L41 37L41 38L42 38L42 35L41 35L41 36L40 36L40 35ZM5 37L5 38L7 38L7 39L8 39L8 40L10 40L10 38L7 38L7 37ZM27 38L27 40L28 40L28 38ZM23 39L23 40L24 40L24 39ZM47 40L47 41L45 41L45 42L47 42L47 41L48 41L48 40ZM23 41L23 44L26 44L26 41ZM41 41L41 44L44 44L44 41ZM24 42L24 43L25 43L25 42ZM42 42L42 43L43 43L43 42ZM39 44L39 47L38 47L38 48L39 48L39 47L40 47L40 48L41 48L41 46L42 46L42 45L40 45L40 44ZM19 45L19 46L21 46L21 47L17 47L17 49L20 49L20 48L21 48L21 49L22 49L22 48L21 48L21 47L22 47L22 46L21 46L21 45ZM23 48L23 49L24 49L24 48ZM0 0L0 7L7 7L7 0ZM1 1L1 6L6 6L6 1ZM2 2L2 5L5 5L5 2ZM42 0L42 7L49 7L49 0ZM43 1L43 6L48 6L48 1ZM44 2L44 5L47 5L47 2ZM0 42L0 49L7 49L7 42ZM1 43L1 48L6 48L6 43ZM2 44L2 47L5 47L5 44Z" fill="#000000"/></g></g></svg>
