<?xml version="1.0" encoding="UTF-8"?>
<svg xmlns="http://www.w3.org/2000/svg" version="1.1" width="200" height="200" viewBox="0 0 200 200"><rect x="0" y="0" width="200" height="200" fill="#ffffff"/><g transform="scale(3.774)"><g transform="translate(2,2)"><path fill-rule="evenodd" d="M8 0L8 2L9 2L9 3L8 3L8 7L9 7L9 6L10 6L10 10L8 10L8 11L7 11L7 10L6 10L6 9L7 9L7 8L6 8L6 9L5 9L5 10L6 10L6 11L7 11L7 12L5 12L5 11L3 11L3 9L4 9L4 8L3 8L3 9L1 9L1 10L0 10L0 13L1 13L1 14L0 14L0 16L1 16L1 17L0 17L0 18L1 18L1 20L2 20L2 21L5 21L5 22L4 22L4 23L3 23L3 22L0 22L0 25L1 25L1 26L0 26L0 29L1 29L1 31L3 31L3 32L0 32L0 33L5 33L5 32L4 32L4 30L6 30L6 31L7 31L7 32L6 32L6 33L7 33L7 32L8 32L8 34L4 34L4 35L3 35L3 34L0 34L0 37L1 37L1 40L0 40L0 41L3 41L3 40L4 40L4 39L2 39L2 37L3 37L3 36L5 36L5 39L7 39L7 38L6 38L6 37L7 37L7 36L5 36L5 35L8 35L8 37L9 37L9 39L12 39L12 38L10 38L10 36L11 36L11 35L12 35L12 37L13 37L13 38L14 38L14 40L12 40L12 42L15 42L15 43L14 43L14 44L15 44L15 43L17 43L17 44L16 44L16 47L15 47L15 46L14 46L14 45L13 45L13 43L12 43L12 44L11 44L11 45L10 45L10 44L9 44L9 45L8 45L8 46L9 46L9 45L10 45L10 49L11 49L11 47L12 47L12 45L13 45L13 47L15 47L15 48L16 48L16 49L19 49L19 47L21 47L21 46L20 46L20 45L21 45L21 44L22 44L22 45L27 45L27 47L26 47L26 46L25 46L25 49L27 49L27 47L29 47L29 48L31 48L31 47L33 47L33 48L32 48L32 49L33 49L33 48L34 48L34 47L35 47L35 48L36 48L36 49L37 49L37 46L38 46L38 44L40 44L40 45L39 45L39 47L38 47L38 49L40 49L40 48L41 48L41 49L42 49L42 48L41 48L41 46L42 46L42 47L43 47L43 48L44 48L44 49L46 49L46 47L49 47L49 46L48 46L48 45L49 45L49 44L48 44L48 43L49 43L49 36L48 36L48 38L47 38L47 37L46 37L46 35L47 35L47 34L46 34L46 35L44 35L44 33L46 33L46 32L47 32L47 33L48 33L48 35L49 35L49 33L48 33L48 32L47 32L47 31L45 31L45 32L44 32L44 31L43 31L43 30L42 30L42 29L44 29L44 30L46 30L46 29L47 29L47 30L48 30L48 31L49 31L49 28L48 28L48 29L47 29L47 28L46 28L46 27L49 27L49 25L47 25L47 26L46 26L46 23L45 23L45 21L46 21L46 20L47 20L47 21L48 21L48 24L49 24L49 20L47 20L47 19L45 19L45 18L46 18L46 17L47 17L47 18L48 18L48 19L49 19L49 16L48 16L48 15L49 15L49 8L47 8L47 9L48 9L48 14L47 14L47 16L45 16L45 14L44 14L44 13L46 13L46 8L43 8L43 11L44 11L44 9L45 9L45 12L44 12L44 13L43 13L43 12L42 12L42 13L40 13L40 12L39 12L39 11L38 11L38 13L39 13L39 14L35 14L35 13L33 13L33 12L31 12L31 11L30 11L30 10L32 10L32 11L34 11L34 12L35 12L35 10L34 10L34 9L37 9L37 10L36 10L36 13L37 13L37 10L38 10L38 9L39 9L39 10L40 10L40 11L42 11L42 9L41 9L41 10L40 10L40 8L41 8L41 6L40 6L40 7L39 7L39 5L38 5L38 7L39 7L39 8L38 8L38 9L37 9L37 8L35 8L35 6L36 6L36 7L37 7L37 6L36 6L36 5L34 5L34 7L33 7L33 5L32 5L32 7L31 7L31 4L34 4L34 3L35 3L35 4L36 4L36 3L35 3L35 2L36 2L36 1L35 1L35 0L34 0L34 1L35 1L35 2L34 2L34 3L33 3L33 2L32 2L32 3L30 3L30 2L31 2L31 1L32 1L32 0L31 0L31 1L29 1L29 2L28 2L28 0L26 0L26 1L25 1L25 0L23 0L23 2L22 2L22 3L23 3L23 4L20 4L20 5L18 5L18 4L19 4L19 3L20 3L20 0L19 0L19 2L18 2L18 1L17 1L17 2L18 2L18 4L17 4L17 3L16 3L16 2L13 2L13 0ZM14 0L14 1L15 1L15 0ZM21 0L21 1L22 1L22 0ZM37 0L37 1L38 1L38 2L39 2L39 4L40 4L40 3L41 3L41 0L40 0L40 1L38 1L38 0ZM10 1L10 3L9 3L9 5L10 5L10 6L11 6L11 10L10 10L10 11L8 11L8 12L7 12L7 13L6 13L6 14L4 14L4 15L6 15L6 16L5 16L5 17L4 17L4 18L2 18L2 20L3 20L3 19L4 19L4 18L7 18L7 19L6 19L6 20L5 20L5 21L6 21L6 22L10 22L10 18L11 18L11 20L12 20L12 22L11 22L11 24L12 24L12 25L11 25L11 26L10 26L10 24L9 24L9 27L10 27L10 28L9 28L9 30L10 30L10 31L11 31L11 30L12 30L12 31L13 31L13 30L14 30L14 31L15 31L15 32L13 32L13 33L12 33L12 35L14 35L14 37L16 37L16 38L17 38L17 39L16 39L16 40L14 40L14 41L16 41L16 42L17 42L17 43L18 43L18 45L17 45L17 46L18 46L18 45L19 45L19 43L20 43L20 44L21 44L21 43L22 43L22 42L21 42L21 40L20 40L20 39L22 39L22 40L24 40L24 39L25 39L25 40L27 40L27 43L28 43L28 44L27 44L27 45L28 45L28 46L29 46L29 47L31 47L31 46L30 46L30 44L31 44L31 45L34 45L34 46L35 46L35 47L36 47L36 46L37 46L37 45L36 45L36 46L35 46L35 45L34 45L34 44L31 44L31 43L32 43L32 42L31 42L31 41L29 41L29 38L24 38L24 37L23 37L23 38L24 38L24 39L22 39L22 37L21 37L21 36L23 36L23 35L24 35L24 36L25 36L25 37L26 37L26 36L27 36L27 34L28 34L28 36L29 36L29 37L30 37L30 38L31 38L31 37L32 37L32 36L33 36L33 37L35 37L35 38L34 38L34 42L35 42L35 44L36 44L36 38L40 38L40 39L38 39L38 40L37 40L37 41L38 41L38 40L39 40L39 41L40 41L40 40L42 40L42 39L41 39L41 37L42 37L42 38L43 38L43 39L44 39L44 40L47 40L47 41L46 41L46 42L45 42L45 43L46 43L46 42L47 42L47 43L48 43L48 42L47 42L47 41L48 41L48 40L47 40L47 38L46 38L46 39L45 39L45 36L44 36L44 35L43 35L43 36L44 36L44 37L42 37L42 36L41 36L41 35L42 35L42 34L41 34L41 33L40 33L40 31L42 31L42 30L41 30L41 29L42 29L42 27L38 27L38 29L40 29L40 31L39 31L39 30L38 30L38 31L36 31L36 30L37 30L37 29L36 29L36 27L35 27L35 26L39 26L39 25L40 25L40 24L38 24L38 23L39 23L39 19L38 19L38 18L39 18L39 16L38 16L38 15L37 15L37 16L38 16L38 17L37 17L37 21L36 21L36 22L35 22L35 20L36 20L36 15L35 15L35 14L34 14L34 15L32 15L32 16L33 16L33 17L31 17L31 18L30 18L30 17L29 17L29 15L27 15L27 17L24 17L24 16L23 16L23 15L24 15L24 14L25 14L25 16L26 16L26 13L27 13L27 11L28 11L28 13L29 13L29 14L32 14L32 13L31 13L31 12L30 12L30 11L28 11L28 10L29 10L29 9L30 9L30 8L29 8L29 7L30 7L30 4L28 4L28 3L27 3L27 1L26 1L26 2L24 2L24 3L27 3L27 9L24 9L24 10L22 10L22 9L21 9L21 7L22 7L22 6L21 6L21 5L20 5L20 6L19 6L19 8L17 8L17 7L18 7L18 5L17 5L17 4L15 4L15 3L14 3L14 5L13 5L13 4L12 4L12 3L13 3L13 2L11 2L11 1ZM37 3L37 4L38 4L38 3ZM11 5L11 6L12 6L12 7L13 7L13 8L12 8L12 9L13 9L13 8L14 8L14 10L13 10L13 11L14 11L14 10L15 10L15 12L14 12L14 13L13 13L13 14L12 14L12 16L10 16L10 15L11 15L11 12L12 12L12 11L11 11L11 12L8 12L8 14L6 14L6 15L8 15L8 16L6 16L6 17L7 17L7 18L8 18L8 19L9 19L9 17L11 17L11 18L13 18L13 17L15 17L15 18L14 18L14 20L13 20L13 19L12 19L12 20L13 20L13 22L12 22L12 24L13 24L13 25L12 25L12 26L13 26L13 27L14 27L14 28L10 28L10 30L11 30L11 29L12 29L12 30L13 30L13 29L14 29L14 30L15 30L15 31L16 31L16 30L15 30L15 29L16 29L16 28L17 28L17 27L16 27L16 26L17 26L17 25L18 25L18 26L19 26L19 25L18 25L18 24L17 24L17 23L18 23L18 22L17 22L17 21L18 21L18 20L19 20L19 17L18 17L18 18L17 18L17 17L16 17L16 16L14 16L14 14L15 14L15 15L17 15L17 16L20 16L20 19L21 19L21 20L23 20L23 22L21 22L21 21L19 21L19 24L20 24L20 25L21 25L21 26L20 26L20 27L21 27L21 28L20 28L20 29L19 29L19 28L18 28L18 29L17 29L17 30L18 30L18 29L19 29L19 30L20 30L20 31L21 31L21 32L20 32L20 34L21 34L21 35L17 35L17 36L21 36L21 35L23 35L23 34L24 34L24 35L25 35L25 36L26 36L26 32L28 32L28 30L29 30L29 32L30 32L30 31L33 31L33 32L31 32L31 34L30 34L30 35L29 35L29 36L30 36L30 35L31 35L31 34L33 34L33 35L35 35L35 36L36 36L36 37L37 37L37 35L36 35L36 34L38 34L38 33L35 33L35 32L36 32L36 31L35 31L35 32L34 32L34 28L35 28L35 27L34 27L34 26L35 26L35 24L36 24L36 25L38 25L38 24L37 24L37 23L35 23L35 22L34 22L34 21L33 21L33 20L32 20L32 19L33 19L33 18L32 18L32 19L31 19L31 20L30 20L30 21L32 21L32 25L31 25L31 23L30 23L30 25L29 25L29 26L28 26L28 27L27 27L27 23L29 23L29 22L28 22L28 20L24 20L24 19L26 19L26 18L24 18L24 17L23 17L23 19L21 19L21 17L22 17L22 16L21 16L21 15L17 15L17 14L18 14L18 12L19 12L19 14L21 14L21 13L20 13L20 12L23 12L23 13L22 13L22 15L23 15L23 14L24 14L24 12L25 12L25 10L24 10L24 11L20 11L20 10L21 10L21 9L15 9L15 5L14 5L14 7L13 7L13 6L12 6L12 5ZM16 5L16 7L17 7L17 5ZM23 5L23 8L26 8L26 5ZM28 5L28 7L29 7L29 5ZM20 6L20 7L21 7L21 6ZM24 6L24 7L25 7L25 6ZM32 7L32 8L31 8L31 9L32 9L32 10L33 10L33 9L34 9L34 8L33 8L33 7ZM28 8L28 9L29 9L29 8ZM32 8L32 9L33 9L33 8ZM16 10L16 12L15 12L15 14L17 14L17 13L16 13L16 12L17 12L17 11L18 11L18 10ZM1 11L1 13L2 13L2 14L1 14L1 15L2 15L2 17L3 17L3 15L2 15L2 14L3 14L3 12L2 12L2 11ZM19 11L19 12L20 12L20 11ZM4 12L4 13L5 13L5 12ZM29 12L29 13L30 13L30 12ZM42 13L42 14L41 14L41 16L40 16L40 18L41 18L41 19L42 19L42 22L43 22L43 21L45 21L45 20L43 20L43 19L42 19L42 18L44 18L44 17L43 17L43 16L44 16L44 14L43 14L43 13ZM9 14L9 15L10 15L10 14ZM39 14L39 15L40 15L40 14ZM30 15L30 16L31 16L31 15ZM34 15L34 20L35 20L35 15ZM8 16L8 17L9 17L9 16ZM12 16L12 17L13 17L13 16ZM41 16L41 17L42 17L42 16ZM47 16L47 17L48 17L48 16ZM15 18L15 20L16 20L16 21L17 21L17 18ZM28 18L28 19L29 19L29 18ZM6 20L6 21L7 21L7 20ZM40 20L40 22L41 22L41 20ZM14 21L14 22L13 22L13 24L15 24L15 23L14 23L14 22L15 22L15 21ZM24 21L24 22L25 22L25 21ZM37 21L37 22L38 22L38 21ZM16 22L16 23L17 23L17 22ZM20 22L20 23L21 23L21 25L22 25L22 23L21 23L21 22ZM5 23L5 26L8 26L8 23ZM23 23L23 26L26 26L26 23ZM34 23L34 24L33 24L33 25L32 25L32 26L31 26L31 25L30 25L30 26L29 26L29 28L30 28L30 29L29 29L29 30L31 30L31 28L32 28L32 27L33 27L33 25L34 25L34 24L35 24L35 23ZM41 23L41 26L44 26L44 23ZM1 24L1 25L2 25L2 24ZM3 24L3 29L2 29L2 27L1 27L1 29L2 29L2 30L4 30L4 29L5 29L5 27L4 27L4 24ZM6 24L6 25L7 25L7 24ZM16 24L16 25L17 25L17 24ZM24 24L24 25L25 25L25 24ZM42 24L42 25L43 25L43 24ZM14 26L14 27L15 27L15 28L14 28L14 29L15 29L15 28L16 28L16 27L15 27L15 26ZM30 26L30 27L31 27L31 26ZM45 26L45 27L44 27L44 29L45 29L45 27L46 27L46 26ZM6 27L6 28L7 28L7 27ZM22 27L22 32L21 32L21 34L22 34L22 32L23 32L23 33L24 33L24 34L25 34L25 32L26 32L26 31L27 31L27 30L24 30L24 29L23 29L23 28L25 28L25 29L26 29L26 27ZM27 28L27 29L28 29L28 28ZM40 28L40 29L41 29L41 28ZM6 29L6 30L7 30L7 31L8 31L8 32L9 32L9 31L8 31L8 30L7 30L7 29ZM35 29L35 30L36 30L36 29ZM23 30L23 32L25 32L25 31L24 31L24 30ZM18 32L18 34L19 34L19 32ZM33 32L33 33L34 33L34 34L35 34L35 33L34 33L34 32ZM9 33L9 36L10 36L10 35L11 35L11 33ZM13 33L13 34L15 34L15 36L16 36L16 33ZM39 33L39 34L40 34L40 35L41 35L41 34L40 34L40 33ZM38 35L38 36L39 36L39 35ZM1 36L1 37L2 37L2 36ZM40 36L40 37L41 37L41 36ZM17 37L17 38L19 38L19 39L17 39L17 40L19 40L19 39L20 39L20 38L19 38L19 37ZM32 38L32 39L30 39L30 40L32 40L32 39L33 39L33 38ZM27 39L27 40L28 40L28 39ZM6 40L6 41L8 41L8 42L9 42L9 43L10 43L10 42L9 42L9 41L11 41L11 40ZM17 41L17 42L20 42L20 43L21 43L21 42L20 42L20 41ZM23 41L23 44L26 44L26 41ZM41 41L41 44L44 44L44 41ZM24 42L24 43L25 43L25 42ZM29 42L29 44L30 44L30 42ZM39 42L39 43L40 43L40 42ZM42 42L42 43L43 43L43 42ZM37 43L37 44L38 44L38 43ZM46 44L46 45L45 45L45 47L46 47L46 46L47 46L47 44ZM40 45L40 46L41 46L41 45ZM42 45L42 46L44 46L44 45ZM22 46L22 48L21 48L21 49L24 49L24 46ZM17 47L17 48L18 48L18 47ZM13 48L13 49L14 49L14 48ZM47 48L47 49L49 49L49 48ZM0 0L0 7L7 7L7 0ZM1 1L1 6L6 6L6 1ZM2 2L2 5L5 5L5 2ZM42 0L42 7L49 7L49 0ZM43 1L43 6L48 6L48 1ZM44 2L44 5L47 5L47 2ZM0 42L0 49L7 49L7 42ZM1 43L1 48L6 48L6 43ZM2 44L2 47L5 47L5 44Z" fill="#000000"/></g></g></svg>
