<?xml version="1.0" encoding="UTF-8"?>
<svg xmlns="http://www.w3.org/2000/svg" version="1.1" width="200" height="200" viewBox="0 0 200 200"><rect x="0" y="0" width="200" height="200" fill="#ffffff"/><g transform="scale(3.774)"><g transform="translate(2,2)"><path fill-rule="evenodd" d="M8 0L8 1L9 1L9 3L8 3L8 4L9 4L9 3L10 3L10 2L11 2L11 4L10 4L10 7L9 7L9 6L8 6L8 7L9 7L9 8L8 8L8 9L9 9L9 10L6 10L6 9L7 9L7 8L4 8L4 9L5 9L5 10L3 10L3 8L2 8L2 11L0 11L0 16L2 16L2 15L1 15L1 14L2 14L2 11L3 11L3 18L5 18L5 20L4 20L4 19L3 19L3 20L2 20L2 17L0 17L0 19L1 19L1 20L2 20L2 22L4 22L4 27L5 27L5 28L6 28L6 29L7 29L7 30L5 30L5 31L3 31L3 30L4 30L4 28L3 28L3 27L2 27L2 26L3 26L3 23L1 23L1 22L0 22L0 25L1 25L1 24L2 24L2 26L0 26L0 29L1 29L1 30L0 30L0 32L1 32L1 33L2 33L2 37L1 37L1 36L0 36L0 37L1 37L1 40L0 40L0 41L3 41L3 40L4 40L4 39L2 39L2 37L3 37L3 36L5 36L5 37L4 37L4 38L5 38L5 39L7 39L7 38L8 38L8 39L11 39L11 37L13 37L13 35L14 35L14 36L16 36L16 35L17 35L17 37L15 37L15 39L14 39L14 40L15 40L15 42L14 42L14 41L11 41L11 42L9 42L9 41L10 41L10 40L8 40L8 42L9 42L9 43L8 43L8 45L9 45L9 46L8 46L8 47L9 47L9 46L11 46L11 47L10 47L10 49L11 49L11 48L12 48L12 45L14 45L14 48L13 48L13 49L14 49L14 48L16 48L16 49L19 49L19 46L20 46L20 48L21 48L21 49L24 49L24 48L23 48L23 47L24 47L24 46L23 46L23 45L25 45L25 46L26 46L26 47L28 47L28 45L27 45L27 44L29 44L29 43L30 43L30 41L31 41L31 42L32 42L32 45L30 45L30 46L29 46L29 47L30 47L30 48L29 48L29 49L31 49L31 47L30 47L30 46L32 46L32 49L33 49L33 48L34 48L34 45L35 45L35 46L36 46L36 49L40 49L40 48L41 48L41 49L42 49L42 47L43 47L43 48L44 48L44 49L46 49L46 47L47 47L47 49L49 49L49 48L48 48L48 47L49 47L49 46L48 46L48 45L49 45L49 44L48 44L48 43L49 43L49 36L48 36L48 35L49 35L49 33L48 33L48 35L47 35L47 36L48 36L48 39L47 39L47 40L48 40L48 43L47 43L47 42L46 42L46 40L44 40L44 39L46 39L46 35L45 35L45 38L44 38L44 36L43 36L43 34L44 34L44 32L43 32L43 28L44 28L44 27L45 27L45 30L46 30L46 27L47 27L47 26L48 26L48 27L49 27L49 25L46 25L46 23L47 23L47 24L49 24L49 20L48 20L48 23L47 23L47 22L46 22L46 23L45 23L45 21L46 21L46 19L45 19L45 18L46 18L46 16L45 16L45 15L44 15L44 17L43 17L43 18L42 18L42 16L41 16L41 15L42 15L42 13L43 13L43 12L42 12L42 8L41 8L41 10L40 10L40 7L41 7L41 6L40 6L40 7L39 7L39 5L38 5L38 3L37 3L37 5L38 5L38 7L37 7L37 6L36 6L36 7L37 7L37 8L36 8L36 9L37 9L37 10L36 10L36 11L34 11L34 9L35 9L35 8L34 8L34 7L35 7L35 4L36 4L36 1L35 1L35 0L34 0L34 3L33 3L33 2L32 2L32 3L29 3L29 1L32 1L32 0L28 0L28 1L25 1L25 0L24 0L24 1L23 1L23 0L21 0L21 1L23 1L23 2L18 2L18 1L16 1L16 2L15 2L15 4L16 4L16 7L17 7L17 5L18 5L18 8L17 8L17 9L15 9L15 8L14 8L14 7L15 7L15 6L14 6L14 7L13 7L13 4L14 4L14 1L15 1L15 0L14 0L14 1L13 1L13 0ZM19 0L19 1L20 1L20 0ZM37 0L37 2L39 2L39 4L40 4L40 3L41 3L41 0L40 0L40 1L38 1L38 0ZM12 2L12 4L13 4L13 2ZM16 2L16 4L18 4L18 5L19 5L19 4L18 4L18 3L17 3L17 2ZM23 2L23 3L22 3L22 4L23 4L23 3L26 3L26 2ZM27 3L27 9L24 9L24 10L23 10L23 12L21 12L21 11L22 11L22 8L21 8L21 7L22 7L22 6L21 6L21 4L20 4L20 6L19 6L19 7L20 7L20 8L18 8L18 9L17 9L17 10L18 10L18 11L16 11L16 12L15 12L15 11L14 11L14 10L15 10L15 9L14 9L14 10L13 10L13 9L10 9L10 10L9 10L9 11L11 11L11 12L10 12L10 13L9 13L9 14L8 14L8 15L6 15L6 16L5 16L5 17L6 17L6 18L7 18L7 17L9 17L9 18L8 18L8 20L7 20L7 19L6 19L6 20L7 20L7 21L6 21L6 22L9 22L9 21L10 21L10 23L12 23L12 22L14 22L14 20L16 20L16 21L17 21L17 20L18 20L18 19L20 19L20 20L19 20L19 21L20 21L20 20L21 20L21 22L18 22L18 25L17 25L17 24L16 24L16 27L15 27L15 28L14 28L14 27L13 27L13 26L14 26L14 25L13 25L13 24L14 24L14 23L13 23L13 24L12 24L12 25L10 25L10 24L9 24L9 27L10 27L10 28L9 28L9 29L8 29L8 30L10 30L10 34L9 34L9 31L8 31L8 32L7 32L7 31L6 31L6 32L7 32L7 33L4 33L4 32L3 32L3 33L4 33L4 34L3 34L3 35L5 35L5 34L9 34L9 37L8 37L8 35L6 35L6 36L7 36L7 37L6 37L6 38L7 38L7 37L8 37L8 38L10 38L10 36L11 36L11 33L12 33L12 35L13 35L13 34L14 34L14 35L15 35L15 34L14 34L14 33L16 33L16 34L17 34L17 32L18 32L18 33L19 33L19 34L18 34L18 35L19 35L19 34L20 34L20 36L19 36L19 37L20 37L20 38L18 38L18 39L19 39L19 40L16 40L16 41L17 41L17 43L19 43L19 44L18 44L18 45L17 45L17 46L16 46L16 43L15 43L15 44L14 44L14 45L15 45L15 47L17 47L17 46L18 46L18 45L19 45L19 44L20 44L20 46L21 46L21 48L22 48L22 47L23 47L23 46L22 46L22 44L21 44L21 43L19 43L19 42L18 42L18 41L19 41L19 40L20 40L20 41L22 41L22 40L24 40L24 39L25 39L25 40L27 40L27 41L28 41L28 40L29 40L29 39L30 39L30 40L31 40L31 41L32 41L32 42L33 42L33 41L32 41L32 38L31 38L31 37L32 37L32 35L33 35L33 34L32 34L32 35L28 35L28 36L29 36L29 37L28 37L28 38L27 38L27 39L26 39L26 36L27 36L27 34L29 34L29 32L30 32L30 31L29 31L29 32L27 32L27 31L28 31L28 30L29 30L29 29L28 29L28 30L26 30L26 32L27 32L27 34L25 34L25 32L24 32L24 31L25 31L25 30L24 30L24 31L23 31L23 30L21 30L21 29L20 29L20 28L21 28L21 25L22 25L22 23L21 23L21 22L23 22L23 21L24 21L24 22L25 22L25 21L24 21L24 20L25 20L25 18L26 18L26 21L27 21L27 20L28 20L28 23L27 23L27 24L28 24L28 23L30 23L30 22L32 22L32 21L34 21L34 24L33 24L33 23L31 23L31 25L30 25L30 24L29 24L29 25L28 25L28 27L27 27L27 28L30 28L30 30L31 30L31 31L32 31L32 33L34 33L34 36L33 36L33 37L34 37L34 40L35 40L35 41L34 41L34 42L35 42L35 43L34 43L34 44L33 44L33 45L34 45L34 44L35 44L35 45L36 45L36 46L37 46L37 45L36 45L36 42L35 42L35 41L36 41L36 39L35 39L35 37L36 37L36 38L37 38L37 37L38 37L38 40L39 40L39 41L38 41L38 42L39 42L39 43L40 43L40 42L39 42L39 41L40 41L40 40L42 40L42 38L43 38L43 39L44 39L44 38L43 38L43 37L42 37L42 34L41 34L41 33L42 33L42 32L41 32L41 31L42 31L42 30L41 30L41 28L42 28L42 27L39 27L39 25L40 25L40 24L39 24L39 21L38 21L38 20L39 20L39 19L38 19L38 17L39 17L39 16L38 16L38 15L40 15L40 14L41 14L41 13L42 13L42 12L41 12L41 11L40 11L40 10L39 10L39 7L38 7L38 8L37 8L37 9L38 9L38 11L37 11L37 13L38 13L38 15L37 15L37 19L38 19L38 20L37 20L37 21L36 21L36 18L35 18L35 19L34 19L34 17L36 17L36 15L35 15L35 13L36 13L36 12L34 12L34 11L33 11L33 13L34 13L34 15L33 15L33 14L32 14L32 15L30 15L30 14L31 14L31 12L32 12L32 11L31 11L31 12L30 12L30 13L29 13L29 11L30 11L30 9L32 9L32 10L33 10L33 9L34 9L34 8L33 8L33 7L34 7L34 4L35 4L35 3L34 3L34 4L33 4L33 3L32 3L32 4L31 4L31 5L33 5L33 7L32 7L32 6L31 6L31 8L29 8L29 9L28 9L28 6L29 6L29 7L30 7L30 6L29 6L29 5L30 5L30 4L29 4L29 3ZM11 5L11 7L10 7L10 8L11 8L11 7L12 7L12 5ZM23 5L23 8L26 8L26 5ZM20 6L20 7L21 7L21 6ZM24 6L24 7L25 7L25 6ZM20 8L20 9L19 9L19 10L21 10L21 8ZM45 8L45 11L44 11L44 13L46 13L46 14L47 14L47 13L46 13L46 11L47 11L47 12L48 12L48 15L47 15L47 16L48 16L48 19L49 19L49 16L48 16L48 15L49 15L49 8L48 8L48 11L47 11L47 10L46 10L46 8ZM0 9L0 10L1 10L1 9ZM43 9L43 10L44 10L44 9ZM5 10L5 11L6 11L6 12L7 12L7 13L5 13L5 12L4 12L4 14L7 14L7 13L8 13L8 12L7 12L7 11L6 11L6 10ZM24 10L24 12L23 12L23 14L22 14L22 13L21 13L21 14L22 14L22 16L20 16L20 12L19 12L19 11L18 11L18 12L19 12L19 15L18 15L18 13L14 13L14 11L13 11L13 12L11 12L11 13L10 13L10 15L8 15L8 16L9 16L9 17L10 17L10 15L11 15L11 17L12 17L12 18L13 18L13 16L14 16L14 18L15 18L15 19L17 19L17 18L19 18L19 17L17 17L17 16L20 16L20 19L21 19L21 20L22 20L22 19L21 19L21 17L22 17L22 16L24 16L24 15L25 15L25 14L26 14L26 18L27 18L27 17L28 17L28 16L27 16L27 15L29 15L29 18L28 18L28 20L29 20L29 18L31 18L31 16L30 16L30 15L29 15L29 14L28 14L28 11L27 11L27 14L26 14L26 13L25 13L25 14L24 14L24 12L26 12L26 10ZM39 11L39 12L38 12L38 13L39 13L39 14L40 14L40 11ZM13 13L13 14L12 14L12 15L13 15L13 14L14 14L14 13ZM15 14L15 15L14 15L14 16L17 16L17 15L16 15L16 14ZM32 15L32 17L33 17L33 15ZM34 15L34 16L35 16L35 15ZM6 16L6 17L7 17L7 16ZM15 17L15 18L17 18L17 17ZM23 17L23 20L24 20L24 17ZM40 17L40 18L41 18L41 19L40 19L40 22L41 22L41 21L42 21L42 22L43 22L43 21L44 21L44 19L42 19L42 18L41 18L41 17ZM44 17L44 18L45 18L45 17ZM9 18L9 19L11 19L11 20L10 20L10 21L11 21L11 22L12 22L12 21L11 21L11 20L14 20L14 19L11 19L11 18ZM30 19L30 21L32 21L32 20L31 20L31 19ZM41 19L41 20L42 20L42 19ZM8 20L8 21L9 21L9 20ZM4 21L4 22L5 22L5 21ZM35 21L35 22L36 22L36 21ZM37 21L37 23L36 23L36 25L37 25L37 26L35 26L35 27L34 27L34 25L35 25L35 24L34 24L34 25L33 25L33 24L32 24L32 25L33 25L33 26L32 26L32 29L33 29L33 32L34 32L34 33L35 33L35 35L36 35L36 37L37 37L37 36L38 36L38 37L39 37L39 36L38 36L38 33L39 33L39 34L40 34L40 33L41 33L41 32L40 32L40 33L39 33L39 32L38 32L38 29L37 29L37 28L38 28L38 25L37 25L37 24L38 24L38 21ZM5 23L5 26L8 26L8 23ZM19 23L19 24L20 24L20 25L18 25L18 26L17 26L17 27L16 27L16 28L15 28L15 29L16 29L16 28L17 28L17 27L18 27L18 26L20 26L20 25L21 25L21 24L20 24L20 23ZM23 23L23 26L26 26L26 23ZM41 23L41 26L44 26L44 23ZM6 24L6 25L7 25L7 24ZM24 24L24 25L25 25L25 24ZM42 24L42 25L43 25L43 24ZM12 25L12 26L11 26L11 27L12 27L12 26L13 26L13 25ZM29 25L29 27L30 27L30 25ZM45 26L45 27L46 27L46 26ZM1 27L1 28L2 28L2 27ZM6 27L6 28L7 28L7 27ZM22 27L22 28L23 28L23 29L24 29L24 28L25 28L25 29L26 29L26 27ZM35 27L35 29L34 29L34 31L36 31L36 33L38 33L38 32L37 32L37 31L36 31L36 30L37 30L37 29L36 29L36 27ZM11 28L11 29L10 29L10 30L12 30L12 29L13 29L13 28ZM18 28L18 29L19 29L19 28ZM47 28L47 29L48 29L48 31L49 31L49 28ZM2 29L2 30L1 30L1 32L2 32L2 30L3 30L3 29ZM39 29L39 31L40 31L40 29ZM16 30L16 31L15 31L15 32L17 32L17 31L19 31L19 32L20 32L20 31L19 31L19 30ZM21 31L21 33L20 33L20 34L23 34L23 35L24 35L24 36L20 36L20 37L24 37L24 38L25 38L25 35L24 35L24 34L23 34L23 33L24 33L24 32L23 32L23 33L22 33L22 31ZM45 31L45 33L46 33L46 31ZM12 32L12 33L13 33L13 32ZM36 34L36 35L37 35L37 34ZM34 36L34 37L35 37L35 36ZM40 36L40 38L39 38L39 39L40 39L40 38L42 38L42 37L41 37L41 36ZM29 37L29 38L30 38L30 39L31 39L31 38L30 38L30 37ZM12 38L12 40L13 40L13 38ZM16 38L16 39L17 39L17 38ZM22 38L22 39L20 39L20 40L22 40L22 39L23 39L23 38ZM27 39L27 40L28 40L28 39ZM6 40L6 41L7 41L7 40ZM23 41L23 44L26 44L26 41ZM41 41L41 44L44 44L44 41ZM13 42L13 43L11 43L11 45L12 45L12 44L13 44L13 43L14 43L14 42ZM24 42L24 43L25 43L25 42ZM27 42L27 43L28 43L28 42ZM42 42L42 43L43 43L43 42ZM45 42L45 43L46 43L46 46L45 46L45 47L44 47L44 45L42 45L42 46L41 46L41 45L40 45L40 44L39 44L39 45L38 45L38 47L39 47L39 45L40 45L40 47L42 47L42 46L43 46L43 47L44 47L44 48L45 48L45 47L46 47L46 46L47 46L47 45L48 45L48 44L47 44L47 43L46 43L46 42ZM9 44L9 45L10 45L10 44ZM26 45L26 46L27 46L27 45ZM25 48L25 49L26 49L26 48ZM0 0L0 7L7 7L7 0ZM1 1L1 6L6 6L6 1ZM2 2L2 5L5 5L5 2ZM42 0L42 7L49 7L49 0ZM43 1L43 6L48 6L48 1ZM44 2L44 5L47 5L47 2ZM0 42L0 49L7 49L7 42ZM1 43L1 48L6 48L6 43ZM2 44L2 47L5 47L5 44Z" fill="#000000"/></g></g></svg>
