<?xml version="1.0" encoding="UTF-8"?>
<svg xmlns="http://www.w3.org/2000/svg" version="1.1" width="200" height="200" viewBox="0 0 200 200"><rect x="0" y="0" width="200" height="200" fill="#ffffff"/><g transform="scale(3.774)"><g transform="translate(2,2)"><path fill-rule="evenodd" d="M8 0L8 3L9 3L9 0ZM10 0L10 1L11 1L11 0ZM12 0L12 1L13 1L13 2L11 2L11 3L13 3L13 4L12 4L12 7L11 7L11 5L10 5L10 7L11 7L11 9L10 9L10 10L9 10L9 5L8 5L8 9L7 9L7 8L6 8L6 9L5 9L5 8L2 8L2 9L1 9L1 12L0 12L0 13L1 13L1 14L0 14L0 15L1 15L1 16L0 16L0 17L1 17L1 18L2 18L2 19L1 19L1 20L0 20L0 22L1 22L1 21L2 21L2 22L3 22L3 21L2 21L2 20L3 20L3 19L4 19L4 17L5 17L5 20L6 20L6 21L4 21L4 23L2 23L2 24L0 24L0 25L1 25L1 26L0 26L0 29L2 29L2 31L3 31L3 32L1 32L1 33L0 33L0 34L2 34L2 35L0 35L0 36L1 36L1 37L0 37L0 38L1 38L1 40L0 40L0 41L3 41L3 40L4 40L4 39L2 39L2 37L3 37L3 36L6 36L6 37L4 37L4 38L5 38L5 39L7 39L7 40L6 40L6 41L7 41L7 40L9 40L9 41L8 41L8 42L9 42L9 44L8 44L8 47L9 47L9 44L10 44L10 49L12 49L12 48L13 48L13 49L14 49L14 46L15 46L15 45L16 45L16 46L17 46L17 47L15 47L15 48L19 48L19 49L24 49L24 48L26 48L26 49L27 49L27 48L28 48L28 49L31 49L31 48L33 48L33 49L34 49L34 48L36 48L36 49L37 49L37 48L36 48L36 47L35 47L35 46L37 46L37 47L39 47L39 48L40 48L40 49L42 49L42 48L43 48L43 46L45 46L45 48L46 48L46 49L49 49L49 42L48 42L48 41L49 41L49 38L48 38L48 37L49 37L49 34L48 34L48 33L49 33L49 32L46 32L46 29L47 29L47 30L48 30L48 31L49 31L49 30L48 30L48 29L49 29L49 22L48 22L48 21L49 21L49 18L48 18L48 17L47 17L47 18L46 18L46 16L49 16L49 14L48 14L48 13L47 13L47 12L46 12L46 9L47 9L47 10L48 10L48 12L49 12L49 10L48 10L48 9L49 9L49 8L46 8L46 9L44 9L44 8L41 8L41 6L40 6L40 7L39 7L39 5L38 5L38 4L37 4L37 3L36 3L36 2L37 2L37 1L36 1L36 2L35 2L35 1L34 1L34 0L31 0L31 1L29 1L29 0L28 0L28 1L27 1L27 0L26 0L26 1L25 1L25 0L23 0L23 2L22 2L22 7L21 7L21 5L19 5L19 6L18 6L18 4L21 4L21 2L20 2L20 1L21 1L21 0L18 0L18 1L17 1L17 2L16 2L16 1L15 1L15 2L14 2L14 1L13 1L13 0ZM40 0L40 1L38 1L38 2L39 2L39 4L40 4L40 3L41 3L41 0ZM18 1L18 2L17 2L17 3L20 3L20 2L19 2L19 1ZM24 1L24 2L23 2L23 3L25 3L25 4L26 4L26 3L29 3L29 4L27 4L27 7L28 7L28 8L27 8L27 10L25 10L25 9L21 9L21 8L20 8L20 6L19 6L19 8L16 8L16 6L17 6L17 7L18 7L18 6L17 6L17 4L16 4L16 3L14 3L14 4L13 4L13 7L14 7L14 8L12 8L12 9L13 9L13 10L14 10L14 12L15 12L15 13L13 13L13 12L12 12L12 11L11 11L11 12L10 12L10 11L9 11L9 12L7 12L7 11L8 11L8 10L7 10L7 9L6 9L6 10L7 10L7 11L4 11L4 10L5 10L5 9L4 9L4 10L3 10L3 9L2 9L2 10L3 10L3 11L4 11L4 12L1 12L1 13L3 13L3 15L2 15L2 14L1 14L1 15L2 15L2 17L3 17L3 16L4 16L4 15L6 15L6 16L5 16L5 17L6 17L6 18L7 18L7 19L6 19L6 20L7 20L7 21L6 21L6 22L9 22L9 20L11 20L11 21L10 21L10 23L11 23L11 25L12 25L12 26L11 26L11 27L12 27L12 26L13 26L13 28L12 28L12 30L11 30L11 33L12 33L12 31L13 31L13 33L14 33L14 32L15 32L15 37L17 37L17 34L16 34L16 33L17 33L17 32L16 32L16 30L15 30L15 31L14 31L14 29L16 29L16 27L17 27L17 31L19 31L19 32L18 32L18 33L19 33L19 32L20 32L20 33L21 33L21 32L20 32L20 31L21 31L21 30L18 30L18 29L19 29L19 28L20 28L20 29L22 29L22 32L23 32L23 33L22 33L22 34L21 34L21 35L20 35L20 34L18 34L18 35L20 35L20 36L19 36L19 38L18 38L18 39L20 39L20 38L21 38L21 39L22 39L22 38L24 38L24 37L23 37L23 34L24 34L24 33L25 33L25 35L24 35L24 36L25 36L25 38L26 38L26 39L23 39L23 40L27 40L27 42L28 42L28 43L29 43L29 44L28 44L28 46L27 46L27 45L26 45L26 48L27 48L27 47L28 47L28 46L29 46L29 47L34 47L34 46L35 46L35 45L36 45L36 44L38 44L38 45L37 45L37 46L39 46L39 47L40 47L40 46L41 46L41 48L42 48L42 45L40 45L40 46L39 46L39 44L38 44L38 43L39 43L39 40L41 40L41 39L42 39L42 40L44 40L44 39L46 39L46 40L45 40L45 41L46 41L46 44L45 44L45 45L46 45L46 48L48 48L48 47L47 47L47 46L48 46L48 42L47 42L47 41L48 41L48 38L47 38L47 37L48 37L48 34L47 34L47 33L46 33L46 32L45 32L45 33L42 33L42 32L43 32L43 31L44 31L44 30L43 30L43 31L42 31L42 29L46 29L46 28L47 28L47 29L48 29L48 28L47 28L47 27L48 27L48 26L47 26L47 25L46 25L46 24L48 24L48 22L47 22L47 21L48 21L48 20L47 20L47 19L48 19L48 18L47 18L47 19L46 19L46 20L42 20L42 19L41 19L41 18L42 18L42 17L41 17L41 16L42 16L42 15L45 15L45 16L43 16L43 18L44 18L44 19L45 19L45 18L44 18L44 17L45 17L45 16L46 16L46 15L45 15L45 14L46 14L46 12L43 12L43 14L42 14L42 12L41 12L41 13L40 13L40 12L38 12L38 11L36 11L36 10L35 10L35 9L36 9L36 8L33 8L33 7L34 7L34 5L37 5L37 4L36 4L36 3L35 3L35 2L34 2L34 1L32 1L32 2L31 2L31 3L32 3L32 5L33 5L33 7L32 7L32 6L31 6L31 4L30 4L30 2L27 2L27 1L26 1L26 3L25 3L25 1ZM32 2L32 3L33 3L33 5L34 5L34 2ZM29 4L29 6L28 6L28 7L29 7L29 8L31 8L31 9L30 9L30 10L31 10L31 9L32 9L32 8L31 8L31 6L30 6L30 4ZM14 5L14 7L15 7L15 6L16 6L16 5ZM23 5L23 8L26 8L26 5ZM24 6L24 7L25 7L25 6ZM29 6L29 7L30 7L30 6ZM35 6L35 7L36 7L36 6ZM37 6L37 10L39 10L39 9L40 9L40 11L41 11L41 10L42 10L42 11L45 11L45 10L44 10L44 9L43 9L43 10L42 10L42 9L40 9L40 8L39 8L39 7L38 7L38 6ZM15 8L15 11L16 11L16 8ZM38 8L38 9L39 9L39 8ZM20 9L20 10L19 10L19 11L18 11L18 10L17 10L17 12L16 12L16 13L15 13L15 14L13 14L13 13L10 13L10 12L9 12L9 13L7 13L7 12L5 12L5 14L6 14L6 15L7 15L7 16L6 16L6 17L7 17L7 18L9 18L9 19L11 19L11 20L12 20L12 23L14 23L14 24L13 24L13 26L14 26L14 24L16 24L16 25L17 25L17 27L18 27L18 28L19 28L19 27L20 27L20 26L19 26L19 25L20 25L20 24L21 24L21 23L22 23L22 27L24 27L24 28L23 28L23 32L24 32L24 30L25 30L25 32L26 32L26 31L27 31L27 32L28 32L28 31L27 31L27 30L28 30L28 29L30 29L30 30L29 30L29 32L31 32L31 33L32 33L32 34L30 34L30 33L29 33L29 34L30 34L30 35L33 35L33 34L34 34L34 35L36 35L36 34L34 34L34 33L33 33L33 32L34 32L34 31L35 31L35 30L36 30L36 32L35 32L35 33L36 33L36 32L37 32L37 31L41 31L41 30L37 30L37 28L36 28L36 27L39 27L39 26L40 26L40 27L41 27L41 28L42 28L42 27L45 27L45 28L46 28L46 27L47 27L47 26L46 26L46 25L45 25L45 24L46 24L46 22L45 22L45 21L44 21L44 22L43 22L43 21L42 21L42 22L40 22L40 21L41 21L41 20L40 20L40 19L39 19L39 20L40 20L40 21L39 21L39 22L36 22L36 23L35 23L35 22L34 22L34 21L35 21L35 20L36 20L36 21L37 21L37 20L36 20L36 19L37 19L37 18L40 18L40 17L39 17L39 16L41 16L41 15L42 15L42 14L41 14L41 15L40 15L40 13L39 13L39 14L38 14L38 15L37 15L37 16L36 16L36 14L34 14L34 16L33 16L33 14L32 14L32 11L31 11L31 14L30 14L30 11L29 11L29 10L28 10L28 11L25 11L25 10L24 10L24 11L23 11L23 12L24 12L24 13L25 13L25 14L23 14L23 13L22 13L22 15L21 15L21 12L20 12L20 13L19 13L19 11L20 11L20 10L21 10L21 9ZM33 9L33 10L34 10L34 11L33 11L33 12L34 12L34 13L37 13L37 12L36 12L36 11L35 11L35 10L34 10L34 9ZM24 11L24 12L25 12L25 13L26 13L26 14L27 14L27 15L25 15L25 16L26 16L26 17L27 17L27 16L28 16L28 18L27 18L27 20L26 20L26 21L27 21L27 22L29 22L29 23L27 23L27 28L24 28L24 29L27 29L27 28L28 28L28 26L29 26L29 28L30 28L30 29L31 29L31 30L30 30L30 31L31 31L31 32L33 32L33 31L34 31L34 30L35 30L35 29L36 29L36 28L35 28L35 27L36 27L36 26L39 26L39 25L40 25L40 23L36 23L36 24L35 24L35 23L34 23L34 22L31 22L31 23L30 23L30 21L27 21L27 20L29 20L29 19L30 19L30 20L31 20L31 21L33 21L33 20L35 20L35 19L36 19L36 16L35 16L35 18L34 18L34 17L33 17L33 16L32 16L32 15L31 15L31 16L32 16L32 17L29 17L29 16L30 16L30 15L29 15L29 14L28 14L28 13L29 13L29 11L28 11L28 13L27 13L27 12L25 12L25 11ZM34 11L34 12L35 12L35 11ZM17 12L17 13L18 13L18 14L16 14L16 15L18 15L18 16L17 16L17 17L16 17L16 16L15 16L15 17L14 17L14 15L13 15L13 14L11 14L11 15L12 15L12 17L13 17L13 18L12 18L12 19L13 19L13 20L15 20L15 21L14 21L14 23L16 23L16 22L17 22L17 23L18 23L18 24L19 24L19 21L20 21L20 23L21 23L21 20L22 20L22 21L23 21L23 22L24 22L24 21L23 21L23 19L22 19L22 18L25 18L25 19L26 19L26 18L25 18L25 17L24 17L24 16L23 16L23 15L22 15L22 16L23 16L23 17L21 17L21 16L19 16L19 13L18 13L18 12ZM6 13L6 14L7 14L7 15L8 15L8 16L7 16L7 17L10 17L10 18L11 18L11 17L10 17L10 16L9 16L9 15L10 15L10 14L9 14L9 15L8 15L8 14L7 14L7 13ZM44 13L44 14L45 14L45 13ZM47 14L47 15L48 15L48 14ZM28 15L28 16L29 16L29 15ZM37 16L37 17L38 17L38 16ZM15 17L15 20L17 20L17 19L16 19L16 17ZM13 18L13 19L14 19L14 18ZM20 18L20 19L21 19L21 18ZM30 18L30 19L31 19L31 18ZM32 18L32 19L34 19L34 18ZM18 19L18 21L19 21L19 19ZM46 20L46 21L47 21L47 20ZM15 21L15 22L16 22L16 21ZM5 23L5 26L8 26L8 23ZM23 23L23 26L26 26L26 23ZM31 23L31 24L32 24L32 23ZM33 23L33 26L34 26L34 27L33 27L33 28L31 28L31 26L32 26L32 25L30 25L30 24L29 24L29 25L30 25L30 28L31 28L31 29L32 29L32 30L31 30L31 31L33 31L33 30L34 30L34 29L35 29L35 28L34 28L34 27L35 27L35 26L34 26L34 23ZM41 23L41 26L44 26L44 23ZM6 24L6 25L7 25L7 24ZM24 24L24 25L25 25L25 24ZM36 24L36 25L37 25L37 24ZM38 24L38 25L39 25L39 24ZM42 24L42 25L43 25L43 24ZM3 25L3 26L1 26L1 28L2 28L2 29L3 29L3 28L2 28L2 27L4 27L4 30L3 30L3 31L4 31L4 30L5 30L5 31L6 31L6 32L5 32L5 33L6 33L6 34L7 34L7 35L6 35L6 36L7 36L7 37L6 37L6 38L7 38L7 39L9 39L9 40L10 40L10 42L11 42L11 43L10 43L10 44L11 44L11 48L12 48L12 47L13 47L13 46L14 46L14 44L16 44L16 45L21 45L21 47L24 47L24 46L25 46L25 45L21 45L21 44L22 44L22 41L21 41L21 40L15 40L15 39L14 39L14 40L13 40L13 41L11 41L11 40L10 40L10 39L9 39L9 37L10 37L10 38L14 38L14 36L13 36L13 35L14 35L14 34L13 34L13 35L12 35L12 34L10 34L10 31L9 31L9 30L10 30L10 28L9 28L9 27L10 27L10 25L9 25L9 27L8 27L8 28L9 28L9 30L8 30L8 29L6 29L6 30L5 30L5 28L7 28L7 27L4 27L4 25ZM15 26L15 27L14 27L14 28L15 28L15 27L16 27L16 26ZM39 28L39 29L40 29L40 28ZM6 30L6 31L8 31L8 33L7 33L7 32L6 32L6 33L7 33L7 34L8 34L8 35L7 35L7 36L8 36L8 37L7 37L7 38L8 38L8 37L9 37L9 36L10 36L10 37L12 37L12 36L10 36L10 35L9 35L9 31L8 31L8 30ZM39 32L39 34L37 34L37 36L36 36L36 38L37 38L37 39L39 39L39 38L37 38L37 36L38 36L38 37L40 37L40 39L41 39L41 37L40 37L40 36L39 36L39 35L41 35L41 36L42 36L42 39L44 39L44 38L43 38L43 37L45 37L45 38L46 38L46 37L47 37L47 36L46 36L46 33L45 33L45 36L42 36L42 35L44 35L44 34L42 34L42 35L41 35L41 34L40 34L40 32ZM2 33L2 34L3 34L3 35L2 35L2 36L3 36L3 35L4 35L4 33ZM26 33L26 35L25 35L25 36L26 36L26 38L27 38L27 36L28 36L28 37L29 37L29 41L28 41L28 42L29 42L29 43L30 43L30 42L31 42L31 44L29 44L29 46L31 46L31 44L33 44L33 45L32 45L32 46L34 46L34 43L32 43L32 42L34 42L34 41L32 41L32 42L31 42L31 41L30 41L30 40L34 40L34 39L35 39L35 40L36 40L36 42L37 42L37 43L38 43L38 42L37 42L37 41L38 41L38 40L36 40L36 39L35 39L35 38L33 38L33 37L35 37L35 36L33 36L33 37L31 37L31 36L29 36L29 35L28 35L28 34L27 34L27 33ZM8 35L8 36L9 36L9 35ZM26 35L26 36L27 36L27 35ZM21 36L21 37L22 37L22 36ZM45 36L45 37L46 37L46 36ZM30 37L30 39L31 39L31 37ZM32 38L32 39L33 39L33 38ZM15 41L15 43L16 43L16 44L21 44L21 41L20 41L20 42L19 42L19 41L18 41L18 42L19 42L19 43L16 43L16 41ZM23 41L23 44L26 44L26 41ZM41 41L41 44L44 44L44 41ZM12 42L12 44L14 44L14 43L13 43L13 42ZM24 42L24 43L25 43L25 42ZM42 42L42 43L43 43L43 42ZM35 43L35 44L36 44L36 43ZM46 44L46 45L47 45L47 44ZM19 46L19 47L20 47L20 46ZM0 0L0 7L7 7L7 0ZM1 1L1 6L6 6L6 1ZM2 2L2 5L5 5L5 2ZM42 0L42 7L49 7L49 0ZM43 1L43 6L48 6L48 1ZM44 2L44 5L47 5L47 2ZM0 42L0 49L7 49L7 42ZM1 43L1 48L6 48L6 43ZM2 44L2 47L5 47L5 44Z" fill="#000000"/></g></g></svg>
