<?xml version="1.0" encoding="UTF-8"?>
<svg xmlns="http://www.w3.org/2000/svg" version="1.1" width="200" height="200" viewBox="0 0 200 200"><rect x="0" y="0" width="200" height="200" fill="#ffffff"/><g transform="scale(3.774)"><g transform="translate(2,2)"><path fill-rule="evenodd" d="M8 0L8 3L10 3L10 1L9 1L9 0ZM11 0L11 3L12 3L12 4L10 4L10 7L9 7L9 5L8 5L8 11L7 11L7 10L4 10L4 9L5 9L5 8L2 8L2 9L1 9L1 12L0 12L0 14L1 14L1 15L0 15L0 17L2 17L2 16L1 16L1 15L4 15L4 14L3 14L3 12L4 12L4 13L5 13L5 12L4 12L4 11L7 11L7 12L6 12L6 13L7 13L7 14L6 14L6 15L7 15L7 14L8 14L8 18L6 18L6 17L7 17L7 16L6 16L6 17L3 17L3 18L2 18L2 19L3 19L3 18L4 18L4 20L6 20L6 21L5 21L5 22L2 22L2 21L3 21L3 20L1 20L1 22L0 22L0 28L1 28L1 29L0 29L0 30L1 30L1 31L0 31L0 32L1 32L1 34L2 34L2 35L3 35L3 36L1 36L1 35L0 35L0 38L1 38L1 40L0 40L0 41L3 41L3 40L4 40L4 39L2 39L2 38L1 38L1 37L3 37L3 36L4 36L4 35L8 35L8 36L9 36L9 35L11 35L11 36L10 36L10 37L9 37L9 38L8 38L8 37L7 37L7 36L6 36L6 37L7 37L7 38L5 38L5 37L4 37L4 38L5 38L5 39L7 39L7 40L6 40L6 41L8 41L8 42L9 42L9 43L10 43L10 44L11 44L11 43L12 43L12 42L13 42L13 41L14 41L14 43L17 43L17 44L12 44L12 45L11 45L11 46L14 46L14 45L16 45L16 46L15 46L15 47L16 47L16 48L15 48L15 49L16 49L16 48L17 48L17 47L16 47L16 46L17 46L17 44L18 44L18 46L20 46L20 47L21 47L21 48L19 48L19 47L18 47L18 48L19 48L19 49L21 49L21 48L22 48L22 49L24 49L24 48L22 48L22 47L23 47L23 45L26 45L26 46L24 46L24 47L26 47L26 49L27 49L27 48L30 48L30 47L31 47L31 48L33 48L33 49L35 49L35 48L36 48L36 49L38 49L38 48L36 48L36 47L35 47L35 46L34 46L34 43L33 43L33 42L34 42L34 41L33 41L33 42L32 42L32 41L31 41L31 40L34 40L34 39L35 39L35 40L36 40L36 41L38 41L38 40L36 40L36 39L39 39L39 38L36 38L36 37L37 37L37 36L38 36L38 35L41 35L41 36L42 36L42 35L43 35L43 33L45 33L45 32L46 32L46 33L47 33L47 34L45 34L45 36L43 36L43 37L40 37L40 36L39 36L39 37L40 37L40 39L41 39L41 40L39 40L39 43L38 43L38 42L36 42L36 43L35 43L35 44L36 44L36 46L37 46L37 47L39 47L39 48L40 48L40 49L42 49L42 48L44 48L44 49L45 49L45 48L46 48L46 49L49 49L49 42L48 42L48 41L49 41L49 38L48 38L48 37L49 37L49 36L48 36L48 37L47 37L47 36L46 36L46 35L47 35L47 34L48 34L48 35L49 35L49 34L48 34L48 33L49 33L49 30L48 30L48 29L49 29L49 28L48 28L48 27L49 27L49 26L48 26L48 25L47 25L47 24L46 24L46 22L45 22L45 21L44 21L44 22L43 22L43 21L42 21L42 22L40 22L40 21L41 21L41 20L40 20L40 19L39 19L39 20L40 20L40 21L39 21L39 22L37 22L37 20L36 20L36 19L37 19L37 18L40 18L40 17L39 17L39 16L41 16L41 17L42 17L42 18L41 18L41 19L42 19L42 20L46 20L46 21L47 21L47 22L48 22L48 24L49 24L49 22L48 22L48 21L49 21L49 18L48 18L48 17L47 17L47 16L45 16L45 15L47 15L47 14L48 14L48 16L49 16L49 14L48 14L48 13L49 13L49 12L48 12L48 13L47 13L47 12L46 12L46 11L47 11L47 10L48 10L48 11L49 11L49 10L48 10L48 9L49 9L49 8L46 8L46 9L47 9L47 10L45 10L45 11L42 11L42 10L43 10L43 9L44 9L44 8L40 8L40 7L41 7L41 6L40 6L40 7L39 7L39 5L38 5L38 4L37 4L37 3L36 3L36 2L37 2L37 1L38 1L38 2L39 2L39 4L40 4L40 3L41 3L41 0L40 0L40 1L38 1L38 0L36 0L36 2L35 2L35 1L34 1L34 0L28 0L28 1L26 1L26 0L24 0L24 1L25 1L25 2L24 2L24 3L26 3L26 4L22 4L22 3L23 3L23 0L20 0L20 1L21 1L21 6L20 6L20 7L19 7L19 5L16 5L16 4L18 4L18 3L20 3L20 2L19 2L19 0L18 0L18 2L17 2L17 0L16 0L16 1L14 1L14 0L13 0L13 1L12 1L12 0ZM29 1L29 2L27 2L27 4L28 4L28 5L27 5L27 7L28 7L28 6L29 6L29 8L28 8L28 9L27 9L27 10L25 10L25 11L23 11L23 10L24 10L24 9L22 9L22 6L21 6L21 7L20 7L20 8L19 8L19 9L17 9L17 8L18 8L18 6L17 6L17 8L16 8L16 9L15 9L15 8L14 8L14 5L15 5L15 2L14 2L14 4L13 4L13 7L12 7L12 6L11 6L11 7L10 7L10 8L11 8L11 9L12 9L12 10L13 10L13 12L14 12L14 14L13 14L13 15L12 15L12 11L10 11L10 9L9 9L9 12L11 12L11 15L9 15L9 19L8 19L8 20L7 20L7 19L6 19L6 20L7 20L7 21L6 21L6 22L9 22L9 24L10 24L10 22L11 22L11 23L13 23L13 24L14 24L14 25L15 25L15 26L17 26L17 27L16 27L16 29L15 29L15 30L16 30L16 31L14 31L14 32L12 32L12 31L11 31L11 30L12 30L12 29L11 29L11 30L10 30L10 31L8 31L8 29L10 29L10 28L9 28L9 27L12 27L12 26L11 26L11 25L12 25L12 24L11 24L11 25L9 25L9 27L6 27L6 28L7 28L7 29L5 29L5 30L3 30L3 29L1 29L1 30L2 30L2 31L1 31L1 32L2 32L2 34L4 34L4 33L5 33L5 34L8 34L8 33L6 33L6 32L7 32L7 31L8 31L8 32L9 32L9 33L11 33L11 34L12 34L12 33L14 33L14 34L13 34L13 35L12 35L12 37L10 37L10 38L11 38L11 40L12 40L12 39L13 39L13 38L14 38L14 39L15 39L15 41L19 41L19 40L18 40L18 39L20 39L20 37L22 37L22 36L23 36L23 37L24 37L24 40L25 40L25 39L26 39L26 40L27 40L27 42L29 42L29 43L32 43L32 42L29 42L29 41L28 41L28 40L29 40L29 39L30 39L30 38L31 38L31 39L34 39L34 38L35 38L35 37L36 37L36 36L37 36L37 34L41 34L41 35L42 35L42 32L43 32L43 31L44 31L44 30L43 30L43 29L46 29L46 32L47 32L47 33L48 33L48 32L47 32L47 31L48 31L48 30L47 30L47 29L48 29L48 28L47 28L47 25L46 25L46 24L45 24L45 25L46 25L46 28L45 28L45 27L42 27L42 28L43 28L43 29L42 29L42 30L41 30L41 27L40 27L40 26L39 26L39 25L40 25L40 24L38 24L38 23L36 23L36 20L35 20L35 19L36 19L36 16L37 16L37 17L38 17L38 16L37 16L37 14L39 14L39 13L40 13L40 15L41 15L41 16L42 16L42 15L45 15L45 14L47 14L47 13L46 13L46 12L43 12L43 14L42 14L42 11L40 11L40 10L42 10L42 9L40 9L40 8L39 8L39 7L38 7L38 6L37 6L37 10L39 10L39 11L38 11L38 12L37 12L37 11L36 11L36 10L35 10L35 9L36 9L36 8L34 8L34 10L32 10L32 11L31 11L31 10L29 10L29 11L30 11L30 12L32 12L32 13L31 13L31 14L30 14L30 13L28 13L28 12L26 12L26 14L27 14L27 13L28 13L28 15L29 15L29 16L30 16L30 17L31 17L31 14L32 14L32 13L34 13L34 14L33 14L33 15L32 15L32 16L34 16L34 14L36 14L36 16L35 16L35 18L34 18L34 17L33 17L33 18L32 18L32 20L35 20L35 21L34 21L34 22L33 22L33 21L31 21L31 20L30 20L30 21L29 21L29 23L28 23L28 24L29 24L29 26L28 26L28 25L27 25L27 26L28 26L28 28L30 28L30 29L29 29L29 30L28 30L28 32L27 32L27 33L26 33L26 31L27 31L27 30L26 30L26 31L25 31L25 29L26 29L26 28L25 28L25 27L22 27L22 23L20 23L20 21L21 21L21 20L22 20L22 19L24 19L24 17L25 17L25 19L29 19L29 18L28 18L28 16L26 16L26 15L25 15L25 13L24 13L24 12L25 12L25 11L28 11L28 9L30 9L30 8L33 8L33 7L34 7L34 5L37 5L37 4L36 4L36 3L33 3L33 2L34 2L34 1L33 1L33 2L32 2L32 1ZM16 2L16 3L17 3L17 2ZM29 2L29 3L28 3L28 4L30 4L30 5L31 5L31 6L30 6L30 7L31 7L31 6L32 6L32 7L33 7L33 6L32 6L32 5L34 5L34 4L32 4L32 5L31 5L31 4L30 4L30 2ZM23 5L23 8L26 8L26 5ZM15 6L15 7L16 7L16 6ZM24 6L24 7L25 7L25 6ZM35 6L35 7L36 7L36 6ZM11 7L11 8L12 8L12 9L13 9L13 10L14 10L14 11L15 11L15 13L16 13L16 10L14 10L14 8L12 8L12 7ZM6 8L6 9L7 9L7 8ZM20 9L20 10L19 10L19 12L17 12L17 14L18 14L18 15L19 15L19 16L17 16L17 15L16 15L16 16L15 16L15 14L14 14L14 17L15 17L15 18L13 18L13 17L12 17L12 18L11 18L11 17L10 17L10 19L9 19L9 21L11 21L11 20L10 20L10 19L12 19L12 22L14 22L14 24L15 24L15 22L16 22L16 20L17 20L17 19L19 19L19 21L20 21L20 20L21 20L21 19L22 19L22 18L23 18L23 17L24 17L24 15L23 15L23 16L21 16L21 15L20 15L20 14L21 14L21 13L22 13L22 14L23 14L23 12L22 12L22 10L21 10L21 9ZM39 9L39 10L40 10L40 9ZM3 10L3 11L4 11L4 10ZM34 10L34 11L35 11L35 12L34 12L34 13L35 13L35 12L36 12L36 13L37 13L37 12L36 12L36 11L35 11L35 10ZM20 11L20 13L21 13L21 11ZM32 11L32 12L33 12L33 11ZM1 12L1 14L2 14L2 12ZM40 12L40 13L41 13L41 12ZM8 13L8 14L9 14L9 13ZM18 13L18 14L19 14L19 13ZM44 13L44 14L45 14L45 13ZM29 14L29 15L30 15L30 14ZM41 14L41 15L42 15L42 14ZM16 16L16 18L15 18L15 20L13 20L13 21L14 21L14 22L15 22L15 20L16 20L16 18L18 18L18 17L17 17L17 16ZM20 16L20 17L19 17L19 19L20 19L20 18L22 18L22 17L21 17L21 16ZM25 16L25 17L26 17L26 18L27 18L27 17L26 17L26 16ZM43 16L43 18L44 18L44 19L45 19L45 16ZM46 17L46 18L47 18L47 19L46 19L46 20L47 20L47 21L48 21L48 20L47 20L47 19L48 19L48 18L47 18L47 17ZM12 18L12 19L13 19L13 18ZM30 18L30 19L31 19L31 18ZM33 18L33 19L34 19L34 18ZM23 20L23 22L24 22L24 21L25 21L25 22L28 22L28 21L26 21L26 20ZM17 21L17 25L18 25L18 23L19 23L19 22L18 22L18 21ZM30 21L30 22L31 22L31 21ZM34 22L34 23L33 23L33 26L34 26L34 27L31 27L31 26L32 26L32 25L31 25L31 24L32 24L32 23L29 23L29 24L30 24L30 26L29 26L29 27L31 27L31 29L32 29L32 30L29 30L29 33L28 33L28 34L27 34L27 35L26 35L26 36L25 36L25 32L24 32L24 31L18 31L18 29L19 29L19 30L23 30L23 29L21 29L21 28L19 28L19 27L20 27L20 26L18 26L18 27L17 27L17 31L16 31L16 33L15 33L15 35L14 35L14 38L15 38L15 39L17 39L17 38L18 38L18 37L17 37L17 36L16 36L16 34L18 34L18 36L19 36L19 37L20 37L20 36L19 36L19 33L23 33L23 34L20 34L20 35L21 35L21 36L22 36L22 35L23 35L23 36L25 36L25 37L26 37L26 39L27 39L27 38L28 38L28 39L29 39L29 36L28 36L28 35L29 35L29 34L31 34L31 35L30 35L30 37L31 37L31 38L32 38L32 37L31 37L31 35L32 35L32 36L35 36L35 35L36 35L36 34L34 34L34 31L35 31L35 30L36 30L36 32L35 32L35 33L36 33L36 32L37 32L37 31L41 31L41 30L37 30L37 28L36 28L36 27L39 27L39 26L36 26L36 27L35 27L35 26L34 26L34 25L35 25L35 24L36 24L36 25L38 25L38 24L36 24L36 23L35 23L35 22ZM1 23L1 27L2 27L2 28L5 28L5 27L3 27L3 26L4 26L4 25L3 25L3 24L4 24L4 23ZM5 23L5 26L8 26L8 23ZM23 23L23 26L26 26L26 23ZM34 23L34 24L35 24L35 23ZM41 23L41 26L44 26L44 23ZM6 24L6 25L7 25L7 24ZM20 24L20 25L21 25L21 24ZM24 24L24 25L25 25L25 24ZM42 24L42 25L43 25L43 24ZM13 26L13 28L14 28L14 26ZM34 27L34 28L35 28L35 29L34 29L34 30L33 30L33 31L31 31L31 32L30 32L30 33L31 33L31 34L32 34L32 33L31 33L31 32L33 32L33 31L34 31L34 30L35 30L35 29L36 29L36 28L35 28L35 27ZM24 28L24 29L25 29L25 28ZM32 28L32 29L33 29L33 28ZM39 28L39 29L40 29L40 28ZM46 28L46 29L47 29L47 28ZM6 30L6 31L7 31L7 30ZM42 30L42 31L43 31L43 30ZM17 31L17 32L18 32L18 31ZM11 32L11 33L12 33L12 32ZM23 32L23 33L24 33L24 32ZM38 32L38 33L40 33L40 32ZM23 34L23 35L24 35L24 34ZM33 34L33 35L34 35L34 34ZM26 36L26 37L28 37L28 36ZM45 36L45 37L43 37L43 39L42 39L42 38L41 38L41 39L42 39L42 40L44 40L44 39L46 39L46 44L45 44L45 46L43 46L43 47L44 47L44 48L45 48L45 46L46 46L46 48L48 48L48 47L47 47L47 46L48 46L48 42L47 42L47 41L48 41L48 38L47 38L47 37L46 37L46 36ZM12 37L12 38L13 38L13 37ZM16 37L16 38L17 38L17 37ZM33 37L33 38L34 38L34 37ZM21 38L21 40L22 40L22 38ZM46 38L46 39L47 39L47 38ZM8 40L8 41L10 41L10 42L12 42L12 41L10 41L10 40ZM23 41L23 44L26 44L26 41ZM41 41L41 44L44 44L44 41ZM18 42L18 44L19 44L19 43L21 43L21 42ZM24 42L24 43L25 43L25 42ZM42 42L42 43L43 43L43 42ZM27 43L27 44L28 44L28 45L27 45L27 47L30 47L30 46L31 46L31 47L34 47L34 48L35 48L35 47L34 47L34 46L33 46L33 44L28 44L28 43ZM36 43L36 44L38 44L38 45L37 45L37 46L39 46L39 47L40 47L40 46L42 46L42 45L40 45L40 46L39 46L39 44L38 44L38 43ZM8 44L8 47L9 47L9 44ZM46 44L46 45L47 45L47 44ZM20 45L20 46L21 46L21 47L22 47L22 46L21 46L21 45ZM28 45L28 46L30 46L30 45ZM12 47L12 48L11 48L11 49L14 49L14 48L13 48L13 47ZM41 47L41 48L42 48L42 47ZM9 48L9 49L10 49L10 48ZM0 0L0 7L7 7L7 0ZM1 1L1 6L6 6L6 1ZM2 2L2 5L5 5L5 2ZM42 0L42 7L49 7L49 0ZM43 1L43 6L48 6L48 1ZM44 2L44 5L47 5L47 2ZM0 42L0 49L7 49L7 42ZM1 43L1 48L6 48L6 43ZM2 44L2 47L5 47L5 44Z" fill="#000000"/></g></g></svg>
