<?xml version="1.0" encoding="UTF-8"?>
<svg xmlns="http://www.w3.org/2000/svg" version="1.1" width="200" height="200" viewBox="0 0 200 200"><rect x="0" y="0" width="200" height="200" fill="#ffffff"/><g transform="scale(3.774)"><g transform="translate(2,2)"><path fill-rule="evenodd" d="M8 0L8 3L9 3L9 4L11 4L11 6L10 6L10 5L8 5L8 9L10 9L10 8L9 8L9 6L10 6L10 7L11 7L11 8L14 8L14 9L13 9L13 10L15 10L15 9L16 9L16 10L17 10L17 8L18 8L18 9L19 9L19 8L21 8L21 6L22 6L22 10L23 10L23 11L22 11L22 12L23 12L23 11L24 11L24 10L25 10L25 11L27 11L27 12L26 12L26 14L25 14L25 13L23 13L23 14L22 14L22 13L21 13L21 12L20 12L20 13L21 13L21 14L20 14L20 16L18 16L18 15L19 15L19 14L15 14L15 15L17 15L17 17L18 17L18 18L19 18L19 19L20 19L20 20L21 20L21 22L20 22L20 21L19 21L19 22L20 22L20 23L19 23L19 24L21 24L21 25L19 25L19 26L20 26L20 27L19 27L19 28L20 28L20 27L21 27L21 26L22 26L22 28L21 28L21 29L20 29L20 30L22 30L22 31L21 31L21 34L19 34L19 35L17 35L17 37L18 37L18 38L20 38L20 39L19 39L19 40L20 40L20 39L22 39L22 38L23 38L23 40L21 40L21 42L20 42L20 41L19 41L19 42L18 42L18 43L15 43L15 42L17 42L17 40L18 40L18 39L16 39L16 40L15 40L15 41L14 41L14 39L13 39L13 38L12 38L12 37L9 37L9 34L8 34L8 35L7 35L7 34L6 34L6 35L5 35L5 36L4 36L4 35L2 35L2 34L3 34L3 33L4 33L4 34L5 34L5 33L7 33L7 32L6 32L6 31L8 31L8 30L9 30L9 29L7 29L7 28L9 28L9 26L10 26L10 27L11 27L11 28L10 28L10 29L13 29L13 30L12 30L12 31L11 31L11 32L10 32L10 31L9 31L9 32L8 32L8 33L9 33L9 32L10 32L10 33L11 33L11 34L10 34L10 36L12 36L12 35L11 35L11 34L13 34L13 37L14 37L14 34L13 34L13 33L12 33L12 31L13 31L13 30L14 30L14 32L15 32L15 33L16 33L16 29L17 29L17 34L18 34L18 32L20 32L20 31L19 31L19 29L18 29L18 26L17 26L17 28L16 28L16 27L14 27L14 28L12 28L12 27L11 27L11 26L12 26L12 23L13 23L13 24L14 24L14 23L13 23L13 22L12 22L12 23L11 23L11 20L10 20L10 21L9 21L9 22L8 22L8 21L7 21L7 20L8 20L8 19L9 19L9 18L10 18L10 19L11 19L11 17L9 17L9 16L8 16L8 15L9 15L9 14L8 14L8 15L7 15L7 14L6 14L6 13L9 13L9 12L10 12L10 11L11 11L11 12L12 12L12 14L11 14L11 13L10 13L10 14L11 14L11 15L10 15L10 16L11 16L11 15L13 15L13 11L11 11L11 10L12 10L12 9L11 9L11 10L8 10L8 11L7 11L7 10L6 10L6 11L4 11L4 9L5 9L5 8L2 8L2 9L3 9L3 11L4 11L4 12L3 12L3 14L2 14L2 12L0 12L0 13L1 13L1 15L0 15L0 16L2 16L2 17L1 17L1 21L0 21L0 22L1 22L1 23L0 23L0 27L3 27L3 28L2 28L2 29L3 29L3 28L4 28L4 30L5 30L5 33L4 33L4 32L3 32L3 30L1 30L1 29L0 29L0 30L1 30L1 31L0 31L0 32L2 32L2 33L0 33L0 37L1 37L1 35L2 35L2 36L3 36L3 37L2 37L2 38L1 38L1 40L0 40L0 41L3 41L3 40L4 40L4 39L2 39L2 38L3 38L3 37L4 37L4 38L5 38L5 39L8 39L8 40L6 40L6 41L8 41L8 42L9 42L9 43L10 43L10 44L8 44L8 47L9 47L9 48L10 48L10 49L12 49L12 48L11 48L11 46L12 46L12 47L14 47L14 48L16 48L16 49L18 49L18 48L19 48L19 49L21 49L21 48L22 48L22 49L23 49L23 48L22 48L22 47L23 47L23 46L24 46L24 47L27 47L27 46L24 46L24 45L28 45L28 46L29 46L29 47L28 47L28 49L30 49L30 48L29 48L29 47L31 47L31 48L33 48L33 49L34 49L34 47L35 47L35 48L36 48L36 49L37 49L37 48L36 48L36 47L39 47L39 48L38 48L38 49L39 49L39 48L40 48L40 49L42 49L42 48L43 48L43 46L45 46L45 47L44 47L44 48L46 48L46 49L49 49L49 42L48 42L48 41L47 41L47 42L48 42L48 46L47 46L47 47L48 47L48 48L46 48L46 45L47 45L47 44L46 44L46 41L45 41L45 40L46 40L46 39L45 39L45 40L42 40L42 39L43 39L43 38L42 38L42 39L41 39L41 37L40 37L40 36L38 36L38 35L41 35L41 36L42 36L42 37L45 37L45 38L46 38L46 37L47 37L47 38L48 38L48 40L49 40L49 38L48 38L48 37L49 37L49 36L48 36L48 37L47 37L47 36L46 36L46 33L47 33L47 34L48 34L48 35L49 35L49 34L48 34L48 33L49 33L49 32L46 32L46 30L48 30L48 31L49 31L49 30L48 30L48 29L49 29L49 28L48 28L48 27L49 27L49 24L46 24L46 22L45 22L45 21L44 21L44 22L43 22L43 21L42 21L42 22L40 22L40 21L41 21L41 20L40 20L40 19L39 19L39 20L40 20L40 21L39 21L39 22L37 22L37 20L36 20L36 19L35 19L35 20L33 20L33 22L34 22L34 23L33 23L33 26L34 26L34 27L32 27L32 28L31 28L31 29L32 29L32 30L31 30L31 31L32 31L32 30L34 30L34 31L33 31L33 32L30 32L30 35L31 35L31 38L30 38L30 37L29 37L29 38L30 38L30 39L31 39L31 40L34 40L34 39L35 39L35 40L36 40L36 43L35 43L35 44L36 44L36 47L35 47L35 46L34 46L34 43L31 43L31 42L32 42L32 41L31 41L31 42L30 42L30 40L29 40L29 39L28 39L28 40L24 40L24 38L25 38L25 39L27 39L27 36L26 36L26 35L25 35L25 33L26 33L26 32L28 32L28 31L27 31L27 30L29 30L29 31L30 31L30 30L29 30L29 29L30 29L30 25L31 25L31 26L32 26L32 25L31 25L31 24L32 24L32 22L30 22L30 21L31 21L31 20L30 20L30 21L29 21L29 20L28 20L28 19L34 19L34 18L35 18L35 16L36 16L36 18L40 18L40 17L39 17L39 16L41 16L41 17L42 17L42 18L41 18L41 19L42 19L42 20L46 20L46 21L47 21L47 22L48 22L48 23L49 23L49 22L48 22L48 21L49 21L49 18L48 18L48 17L49 17L49 14L48 14L48 13L49 13L49 10L48 10L48 9L49 9L49 8L46 8L46 9L47 9L47 10L44 10L44 8L40 8L40 7L41 7L41 6L40 6L40 7L39 7L39 5L38 5L38 4L37 4L37 3L36 3L36 2L37 2L37 1L36 1L36 2L35 2L35 1L34 1L34 0L30 0L30 1L29 1L29 0L24 0L24 1L22 1L22 0L21 0L21 1L20 1L20 0L18 0L18 1L17 1L17 2L16 2L16 3L17 3L17 4L18 4L18 5L16 5L16 4L15 4L15 1L16 1L16 0L15 0L15 1L11 1L11 0ZM40 0L40 1L38 1L38 2L39 2L39 4L40 4L40 3L41 3L41 0ZM18 1L18 2L17 2L17 3L20 3L20 4L21 4L21 5L22 5L22 3L23 3L23 4L24 4L24 2L22 2L22 1L21 1L21 3L20 3L20 1ZM28 1L28 2L27 2L27 7L28 7L28 8L27 8L27 9L26 9L26 10L27 10L27 11L28 11L28 9L29 9L29 8L30 8L30 6L31 6L31 7L32 7L32 6L31 6L31 4L30 4L30 6L29 6L29 5L28 5L28 4L29 4L29 3L28 3L28 2L29 2L29 1ZM31 1L31 3L32 3L32 4L33 4L33 3L32 3L32 1ZM33 1L33 2L34 2L34 3L35 3L35 4L34 4L34 5L33 5L33 7L34 7L34 10L33 10L33 8L32 8L32 10L31 10L31 9L30 9L30 10L29 10L29 12L28 12L28 13L27 13L27 14L26 14L26 15L25 15L25 14L24 14L24 15L22 15L22 14L21 14L21 15L22 15L22 16L21 16L21 17L22 17L22 16L23 16L23 18L20 18L20 17L19 17L19 18L20 18L20 19L23 19L23 20L24 20L24 21L23 21L23 22L24 22L24 21L25 21L25 20L24 20L24 19L26 19L26 20L27 20L27 21L28 21L28 20L27 20L27 19L26 19L26 18L28 18L28 15L27 15L27 14L29 14L29 13L31 13L31 11L32 11L32 13L34 13L34 14L35 14L35 13L36 13L36 12L37 12L37 14L39 14L39 13L40 13L40 15L41 15L41 16L42 16L42 15L45 15L45 16L43 16L43 18L44 18L44 19L45 19L45 18L44 18L44 17L45 17L45 16L46 16L46 18L47 18L47 19L46 19L46 20L47 20L47 21L48 21L48 20L47 20L47 19L48 19L48 18L47 18L47 17L48 17L48 14L47 14L47 16L46 16L46 15L45 15L45 14L46 14L46 12L47 12L47 13L48 13L48 10L47 10L47 11L46 11L46 12L43 12L43 14L42 14L42 13L40 13L40 12L42 12L42 11L44 11L44 10L42 10L42 9L40 9L40 8L39 8L39 7L38 7L38 6L37 6L37 10L39 10L39 11L38 11L38 12L37 12L37 11L36 11L36 10L35 10L35 9L36 9L36 8L35 8L35 7L36 7L36 6L35 6L35 7L34 7L34 5L37 5L37 4L36 4L36 3L35 3L35 2L34 2L34 1ZM9 2L9 3L10 3L10 2ZM11 2L11 3L12 3L12 4L13 4L13 2ZM25 2L25 4L26 4L26 2ZM14 4L14 5L15 5L15 4ZM18 5L18 6L17 6L17 7L16 7L16 6L15 6L15 7L14 7L14 6L13 6L13 7L14 7L14 8L15 8L15 7L16 7L16 8L17 8L17 7L18 7L18 6L19 6L19 7L20 7L20 6L19 6L19 5ZM23 5L23 8L26 8L26 5ZM11 6L11 7L12 7L12 6ZM24 6L24 7L25 7L25 6ZM28 6L28 7L29 7L29 6ZM6 8L6 9L7 9L7 8ZM38 8L38 9L39 9L39 10L40 10L40 9L39 9L39 8ZM0 9L0 10L1 10L1 9ZM20 9L20 10L21 10L21 9ZM32 10L32 11L33 11L33 12L34 12L34 13L35 13L35 12L36 12L36 11L35 11L35 10L34 10L34 11L33 11L33 10ZM41 10L41 11L42 11L42 10ZM6 11L6 12L4 12L4 14L5 14L5 15L6 15L6 16L7 16L7 17L5 17L5 16L4 16L4 15L2 15L2 16L4 16L4 17L2 17L2 18L3 18L3 19L2 19L2 20L4 20L4 21L3 21L3 24L4 24L4 21L5 21L5 22L7 22L7 21L5 21L5 20L7 20L7 19L5 19L5 18L7 18L7 17L8 17L8 16L7 16L7 15L6 15L6 14L5 14L5 13L6 13L6 12L7 12L7 11ZM34 11L34 12L35 12L35 11ZM17 12L17 13L18 13L18 12ZM38 12L38 13L39 13L39 12ZM30 14L30 15L29 15L29 17L30 17L30 18L32 18L32 17L33 17L33 18L34 18L34 17L33 17L33 16L34 16L34 15L33 15L33 14L32 14L32 15L33 15L33 16L31 16L31 14ZM41 14L41 15L42 15L42 14ZM24 15L24 18L23 18L23 19L24 19L24 18L26 18L26 17L25 17L25 15ZM26 15L26 16L27 16L27 15ZM36 15L36 16L37 16L37 17L38 17L38 16L37 16L37 15ZM12 16L12 17L13 17L13 18L12 18L12 20L13 20L13 18L14 18L14 19L15 19L15 20L14 20L14 22L15 22L15 20L17 20L17 19L15 19L15 17L16 17L16 16L15 16L15 17L13 17L13 16ZM30 16L30 17L31 17L31 16ZM4 19L4 20L5 20L5 19ZM35 20L35 21L34 21L34 22L35 22L35 23L34 23L34 24L35 24L35 25L34 25L34 26L35 26L35 27L34 27L34 30L35 30L35 32L33 32L33 33L34 33L34 34L33 34L33 36L32 36L32 37L33 37L33 38L31 38L31 39L34 39L34 38L36 38L36 40L38 40L38 41L37 41L37 42L38 42L38 43L36 43L36 44L38 44L38 45L37 45L37 46L39 46L39 47L40 47L40 46L41 46L41 48L42 48L42 46L41 46L41 45L40 45L40 46L39 46L39 44L38 44L38 43L39 43L39 40L41 40L41 39L40 39L40 37L36 37L36 36L37 36L37 34L41 34L41 35L42 35L42 36L45 36L45 37L46 37L46 36L45 36L45 33L46 33L46 32L45 32L45 33L42 33L42 32L43 32L43 31L44 31L44 30L43 30L43 29L46 29L46 28L47 28L47 27L48 27L48 25L47 25L47 26L45 26L45 27L42 27L42 28L43 28L43 29L42 29L42 30L41 30L41 27L40 27L40 26L39 26L39 25L37 25L37 26L39 26L39 28L38 28L38 27L36 27L36 24L39 24L39 23L37 23L37 22L35 22L35 21L36 21L36 20ZM1 21L1 22L2 22L2 21ZM16 21L16 22L17 22L17 24L18 24L18 22L17 22L17 21ZM27 22L27 25L28 25L28 26L29 26L29 24L28 24L28 22ZM29 22L29 23L30 23L30 24L31 24L31 23L30 23L30 22ZM5 23L5 26L8 26L8 23ZM21 23L21 24L22 24L22 23ZM23 23L23 26L26 26L26 23ZM35 23L35 24L36 24L36 23ZM41 23L41 26L44 26L44 23ZM6 24L6 25L7 25L7 24ZM9 24L9 25L10 25L10 24ZM24 24L24 25L25 25L25 24ZM42 24L42 25L43 25L43 24ZM45 24L45 25L46 25L46 24ZM1 25L1 26L3 26L3 27L4 27L4 28L5 28L5 30L7 30L7 29L6 29L6 28L7 28L7 27L6 27L6 28L5 28L5 27L4 27L4 25ZM14 25L14 26L15 26L15 25ZM24 27L24 30L23 30L23 31L22 31L22 32L24 32L24 33L23 33L23 34L21 34L21 35L20 35L20 36L19 36L19 37L20 37L20 36L21 36L21 35L24 35L24 33L25 33L25 32L24 32L24 31L25 31L25 30L26 30L26 29L28 29L28 28L29 28L29 27L26 27L26 29L25 29L25 27ZM35 27L35 28L36 28L36 29L35 29L35 30L36 30L36 32L35 32L35 33L36 33L36 32L37 32L37 31L41 31L41 30L40 30L40 28L39 28L39 30L37 30L37 28L36 28L36 27ZM45 27L45 28L46 28L46 27ZM15 28L15 29L14 29L14 30L15 30L15 29L16 29L16 28ZM22 28L22 29L23 29L23 28ZM32 28L32 29L33 29L33 28ZM42 30L42 31L43 31L43 30ZM38 32L38 33L40 33L40 32ZM27 33L27 34L28 34L28 33ZM31 33L31 34L32 34L32 33ZM15 34L15 35L16 35L16 34ZM34 34L34 36L33 36L33 37L35 37L35 36L36 36L36 34ZM42 34L42 35L43 35L43 34ZM6 35L6 36L5 36L5 38L9 38L9 39L10 39L10 41L9 41L9 40L8 40L8 41L9 41L9 42L10 42L10 43L11 43L11 44L10 44L10 45L9 45L9 47L10 47L10 46L11 46L11 44L14 44L14 45L15 45L15 47L16 47L16 46L18 46L18 44L17 44L17 45L16 45L16 44L14 44L14 43L12 43L12 41L11 41L11 40L13 40L13 39L11 39L11 38L9 38L9 37L8 37L8 36L7 36L7 35ZM6 36L6 37L7 37L7 36ZM23 36L23 37L24 37L24 36ZM38 38L38 39L39 39L39 38ZM13 41L13 42L14 42L14 41ZM23 41L23 44L26 44L26 41ZM27 41L27 44L28 44L28 42L29 42L29 44L30 44L30 42L29 42L29 41ZM33 41L33 42L34 42L34 41ZM41 41L41 44L44 44L44 41ZM19 42L19 43L20 43L20 44L19 44L19 47L20 47L20 48L21 48L21 47L22 47L22 45L20 45L20 44L21 44L21 43L20 43L20 42ZM24 42L24 43L25 43L25 42ZM42 42L42 43L43 43L43 42ZM31 44L31 45L30 45L30 46L31 46L31 47L34 47L34 46L32 46L32 45L33 45L33 44ZM45 44L45 45L46 45L46 44ZM12 45L12 46L13 46L13 45ZM17 47L17 48L18 48L18 47ZM26 48L26 49L27 49L27 48ZM0 0L0 7L7 7L7 0ZM1 1L1 6L6 6L6 1ZM2 2L2 5L5 5L5 2ZM42 0L42 7L49 7L49 0ZM43 1L43 6L48 6L48 1ZM44 2L44 5L47 5L47 2ZM0 42L0 49L7 49L7 42ZM1 43L1 48L6 48L6 43ZM2 44L2 47L5 47L5 44Z" fill="#000000"/></g></g></svg>
