<?xml version="1.0" encoding="UTF-8"?>
<svg xmlns="http://www.w3.org/2000/svg" version="1.1" width="200" height="200" viewBox="0 0 200 200"><rect x="0" y="0" width="200" height="200" fill="#ffffff"/><g transform="scale(3.774)"><g transform="translate(2,2)"><path fill-rule="evenodd" d="M11 0L11 1L10 1L10 2L9 2L9 3L10 3L10 2L11 2L11 3L12 3L12 5L10 5L10 7L9 7L9 6L8 6L8 8L6 8L6 9L7 9L7 10L5 10L5 11L4 11L4 8L2 8L2 9L3 9L3 10L2 10L2 11L3 11L3 12L2 12L2 13L0 13L0 14L1 14L1 15L3 15L3 17L4 17L4 18L2 18L2 17L1 17L1 16L0 16L0 19L1 19L1 20L3 20L3 19L4 19L4 18L5 18L5 20L4 20L4 21L7 21L7 22L4 22L4 23L3 23L3 21L2 21L2 23L0 23L0 25L1 25L1 26L2 26L2 27L1 27L1 30L0 30L0 31L1 31L1 30L3 30L3 29L2 29L2 28L3 28L3 26L4 26L4 27L8 27L8 28L4 28L4 30L5 30L5 29L7 29L7 30L6 30L6 31L4 31L4 32L0 32L0 35L1 35L1 33L3 33L3 34L2 34L2 36L3 36L3 37L2 37L2 38L1 38L1 40L0 40L0 41L3 41L3 40L4 40L4 39L2 39L2 38L5 38L5 39L7 39L7 40L6 40L6 41L7 41L7 40L8 40L8 43L10 43L10 42L11 42L11 40L12 40L12 42L14 42L14 41L13 41L13 40L15 40L15 41L16 41L16 40L15 40L15 38L17 38L17 39L19 39L19 38L20 38L20 39L21 39L21 41L20 41L20 42L19 42L19 40L17 40L17 43L16 43L16 42L15 42L15 43L14 43L14 44L13 44L13 43L12 43L12 44L13 44L13 45L12 45L12 47L13 47L13 46L14 46L14 48L13 48L13 49L16 49L16 48L15 48L15 46L14 46L14 44L16 44L16 47L17 47L17 43L18 43L18 44L19 44L19 43L20 43L20 42L21 42L21 43L22 43L22 44L20 44L20 45L22 45L22 47L21 47L21 46L20 46L20 49L21 49L21 48L22 48L22 47L23 47L23 49L24 49L24 47L25 47L25 48L26 48L26 47L27 47L27 48L29 48L29 46L28 46L28 45L27 45L27 40L29 40L29 39L27 39L27 40L26 40L26 37L25 37L25 36L23 36L23 35L24 35L24 34L25 34L25 35L26 35L26 34L25 34L25 33L24 33L24 34L23 34L23 33L22 33L22 34L21 34L21 32L19 32L19 36L18 36L18 34L17 34L17 35L16 35L16 33L15 33L15 34L14 34L14 30L13 30L13 33L12 33L12 37L13 37L13 36L14 36L14 38L13 38L13 39L12 39L12 38L10 38L10 37L8 37L8 38L6 38L6 37L7 37L7 36L8 36L8 35L9 35L9 36L11 36L11 35L9 35L9 34L6 34L6 33L8 33L8 32L6 32L6 31L9 31L9 33L10 33L10 34L11 34L11 31L12 31L12 30L10 30L10 29L11 29L11 28L12 28L12 29L13 29L13 28L15 28L15 27L16 27L16 29L17 29L17 30L16 30L16 31L17 31L17 33L18 33L18 28L19 28L19 30L20 30L20 27L23 27L23 30L26 30L26 33L27 33L27 31L28 31L28 32L29 32L29 33L30 33L30 34L29 34L29 35L28 35L28 34L27 34L27 35L28 35L28 36L30 36L30 35L32 35L32 36L34 36L34 37L35 37L35 41L34 41L34 38L33 38L33 39L30 39L30 40L32 40L32 41L31 41L31 42L32 42L32 41L34 41L34 42L35 42L35 41L36 41L36 44L37 44L37 43L38 43L38 41L39 41L39 40L37 40L37 41L36 41L36 38L37 38L37 35L38 35L38 34L36 34L36 35L35 35L35 34L34 34L34 33L38 33L38 32L40 32L40 33L39 33L39 34L40 34L40 35L39 35L39 37L38 37L38 39L40 39L40 38L42 38L42 37L44 37L44 38L43 38L43 39L44 39L44 38L45 38L45 39L46 39L46 38L45 38L45 36L43 36L43 35L42 35L42 34L40 34L40 33L41 33L41 32L44 32L44 33L46 33L46 32L45 32L45 31L47 31L47 30L48 30L48 31L49 31L49 27L48 27L48 28L46 28L46 27L47 27L47 26L49 26L49 25L47 25L47 23L48 23L48 24L49 24L49 23L48 23L48 21L47 21L47 23L46 23L46 27L45 27L45 21L46 21L46 20L45 20L45 21L44 21L44 18L45 18L45 19L47 19L47 18L48 18L48 19L49 19L49 17L48 17L48 16L49 16L49 15L48 15L48 16L45 16L45 14L47 14L47 11L48 11L48 14L49 14L49 11L48 11L48 9L47 9L47 11L46 11L46 9L45 9L45 8L44 8L44 9L45 9L45 11L44 11L44 12L45 12L45 11L46 11L46 13L43 13L43 12L42 12L42 13L41 13L41 10L40 10L40 8L39 8L39 5L38 5L38 4L37 4L37 3L38 3L38 2L39 2L39 4L40 4L40 3L41 3L41 0L40 0L40 1L38 1L38 0L37 0L37 1L38 1L38 2L36 2L36 1L34 1L34 0L31 0L31 1L30 1L30 0L29 0L29 2L28 2L28 3L29 3L29 2L30 2L30 3L31 3L31 5L30 5L30 4L29 4L29 5L30 5L30 7L29 7L29 6L28 6L28 4L27 4L27 3L26 3L26 2L27 2L27 1L28 1L28 0L27 0L27 1L26 1L26 2L25 2L25 1L24 1L24 0L22 0L22 1L21 1L21 0L19 0L19 2L21 2L21 4L20 4L20 3L19 3L19 4L18 4L18 1L17 1L17 0L15 0L15 1L14 1L14 3L15 3L15 4L16 4L16 8L17 8L17 9L14 9L14 8L13 8L13 6L14 6L14 7L15 7L15 6L14 6L14 5L13 5L13 0ZM23 1L23 2L22 2L22 3L23 3L23 4L26 4L26 3L24 3L24 1ZM16 2L16 3L17 3L17 2ZM31 2L31 3L32 3L32 4L33 4L33 5L34 5L34 6L33 6L33 9L31 9L31 8L29 8L29 9L28 9L28 8L27 8L27 9L26 9L26 13L25 13L25 12L24 12L24 15L23 15L23 16L22 16L22 17L24 17L24 20L23 20L23 19L21 19L21 20L20 20L20 21L19 21L19 23L18 23L18 22L16 22L16 23L15 23L15 24L14 24L14 23L13 23L13 22L12 22L12 20L13 20L13 19L14 19L14 16L16 16L16 15L17 15L17 16L19 16L19 17L21 17L21 16L19 16L19 15L17 15L17 14L16 14L16 11L17 11L17 10L16 10L16 11L15 11L15 10L14 10L14 11L12 11L12 12L11 12L11 13L9 13L9 12L10 12L10 11L11 11L11 9L10 9L10 8L12 8L12 9L13 9L13 8L12 8L12 6L13 6L13 5L12 5L12 6L11 6L11 7L10 7L10 8L9 8L9 9L8 9L8 10L9 10L9 9L10 9L10 11L9 11L9 12L7 12L7 11L5 11L5 12L3 12L3 14L4 14L4 13L5 13L5 15L4 15L4 16L5 16L5 17L6 17L6 18L8 18L8 17L9 17L9 15L10 15L10 16L11 16L11 17L12 17L12 19L11 19L11 18L10 18L10 19L9 19L9 20L8 20L8 19L6 19L6 20L8 20L8 22L9 22L9 20L11 20L11 21L10 21L10 22L12 22L12 23L9 23L9 24L10 24L10 26L9 26L9 27L10 27L10 28L9 28L9 29L8 29L8 30L9 30L9 31L10 31L10 30L9 30L9 29L10 29L10 28L11 28L11 26L12 26L12 25L13 25L13 24L14 24L14 26L13 26L13 27L15 27L15 26L16 26L16 27L17 27L17 26L18 26L18 25L19 25L19 26L20 26L20 25L21 25L21 26L22 26L22 25L21 25L21 22L24 22L24 21L25 21L25 22L26 22L26 19L25 19L25 18L26 18L26 16L24 16L24 15L25 15L25 14L26 14L26 15L27 15L27 14L29 14L29 15L28 15L28 16L27 16L27 18L28 18L28 19L30 19L30 20L31 20L31 21L30 21L30 22L29 22L29 20L28 20L28 22L29 22L29 25L30 25L30 24L31 24L31 25L33 25L33 26L32 26L32 27L33 27L33 26L34 26L34 27L36 27L36 30L35 30L35 31L36 31L36 32L38 32L38 31L36 31L36 30L37 30L37 29L38 29L38 30L39 30L39 31L40 31L40 32L41 32L41 31L42 31L42 29L43 29L43 31L44 31L44 30L46 30L46 29L45 29L45 27L42 27L42 29L41 29L41 31L40 31L40 28L41 28L41 27L38 27L38 25L36 25L36 24L34 24L34 23L31 23L31 21L32 21L32 20L31 20L31 18L30 18L30 17L31 17L31 16L30 16L30 15L32 15L32 14L34 14L34 15L33 15L33 17L34 17L34 20L33 20L33 21L34 21L34 22L36 22L36 21L37 21L37 22L38 22L38 23L37 23L37 24L40 24L40 23L39 23L39 20L40 20L40 22L42 22L42 20L43 20L43 19L42 19L42 18L43 18L43 17L44 17L44 16L43 16L43 17L42 17L42 16L40 16L40 17L39 17L39 16L37 16L37 15L38 15L38 13L39 13L39 15L40 15L40 14L41 14L41 13L40 13L40 12L39 12L39 9L37 9L37 8L38 8L38 5L36 5L36 6L35 6L35 4L36 4L36 3L34 3L34 2ZM33 3L33 4L34 4L34 3ZM8 4L8 5L9 5L9 4ZM17 4L17 7L18 7L18 4ZM19 4L19 5L20 5L20 4ZM21 5L21 8L20 8L20 9L19 9L19 8L18 8L18 9L19 9L19 11L18 11L18 12L17 12L17 13L18 13L18 14L19 14L19 12L20 12L20 13L21 13L21 12L23 12L23 10L24 10L24 11L25 11L25 10L24 10L24 9L23 9L23 10L22 10L22 5ZM23 5L23 8L26 8L26 5ZM31 5L31 7L32 7L32 5ZM19 6L19 7L20 7L20 6ZM24 6L24 7L25 7L25 6ZM27 6L27 7L28 7L28 6ZM34 6L34 7L35 7L35 6ZM36 6L36 7L37 7L37 6ZM40 6L40 7L41 7L41 6ZM34 8L34 9L33 9L33 10L31 10L31 11L30 11L30 9L29 9L29 10L28 10L28 13L30 13L30 12L31 12L31 13L32 13L32 12L33 12L33 13L35 13L35 14L37 14L37 11L38 11L38 10L37 10L37 9L35 9L35 8ZM41 8L41 9L42 9L42 11L43 11L43 8ZM20 9L20 10L21 10L21 9ZM34 9L34 10L35 10L35 9ZM36 10L36 11L34 11L34 12L35 12L35 13L36 13L36 11L37 11L37 10ZM0 11L0 12L1 12L1 11ZM14 11L14 13L11 13L11 14L10 14L10 15L11 15L11 16L12 16L12 17L13 17L13 16L12 16L12 14L15 14L15 15L16 15L16 14L15 14L15 11ZM29 11L29 12L30 12L30 11ZM31 11L31 12L32 12L32 11ZM5 12L5 13L7 13L7 12ZM22 13L22 14L20 14L20 15L22 15L22 14L23 14L23 13ZM26 13L26 14L27 14L27 13ZM42 13L42 14L43 14L43 13ZM6 14L6 15L7 15L7 14ZM8 14L8 15L9 15L9 14ZM34 15L34 17L36 17L36 20L37 20L37 21L38 21L38 20L39 20L39 19L38 19L38 20L37 20L37 17L36 17L36 15ZM6 16L6 17L8 17L8 16ZM28 16L28 17L29 17L29 16ZM17 17L17 19L18 19L18 20L19 20L19 19L20 19L20 18L19 18L19 19L18 19L18 17ZM38 17L38 18L39 18L39 17ZM40 17L40 18L41 18L41 17ZM45 17L45 18L46 18L46 17ZM1 18L1 19L2 19L2 18ZM32 18L32 19L33 19L33 18ZM15 19L15 20L14 20L14 22L15 22L15 20L16 20L16 21L17 21L17 20L16 20L16 19ZM41 19L41 20L42 20L42 19ZM0 21L0 22L1 22L1 21ZM20 21L20 22L21 22L21 21ZM43 21L43 22L44 22L44 21ZM2 23L2 24L1 24L1 25L2 25L2 26L3 26L3 23ZM5 23L5 26L8 26L8 23ZM12 23L12 24L11 24L11 25L12 25L12 24L13 24L13 23ZM19 23L19 24L20 24L20 23ZM23 23L23 26L26 26L26 23ZM41 23L41 26L44 26L44 23ZM6 24L6 25L7 25L7 24ZM16 24L16 25L18 25L18 24ZM24 24L24 25L25 25L25 24ZM33 24L33 25L34 25L34 24ZM42 24L42 25L43 25L43 24ZM27 25L27 26L28 26L28 25ZM35 25L35 26L36 26L36 27L37 27L37 26L36 26L36 25ZM39 25L39 26L40 26L40 25ZM27 27L27 29L26 29L26 28L24 28L24 29L26 29L26 30L28 30L28 29L29 29L29 30L31 30L31 32L30 32L30 33L31 33L31 34L32 34L32 35L33 35L33 34L32 34L32 31L33 31L33 33L34 33L34 29L35 29L35 28L34 28L34 29L33 29L33 30L31 30L31 29L32 29L32 28L31 28L31 29L30 29L30 28L29 28L29 27ZM21 28L21 31L22 31L22 32L23 32L23 31L22 31L22 28ZM48 32L48 33L47 33L47 34L46 34L46 37L47 37L47 35L48 35L48 33L49 33L49 32ZM4 33L4 34L3 34L3 35L4 35L4 36L7 36L7 35L6 35L6 34L5 34L5 33ZM4 34L4 35L5 35L5 34ZM20 34L20 36L19 36L19 37L17 37L17 38L19 38L19 37L22 37L22 38L21 38L21 39L22 39L22 40L23 40L23 39L24 39L24 40L25 40L25 39L24 39L24 37L23 37L23 36L21 36L21 34ZM14 35L14 36L15 36L15 37L16 37L16 35ZM35 36L35 37L36 37L36 36ZM40 36L40 37L42 37L42 36ZM48 36L48 38L49 38L49 36ZM29 37L29 38L30 38L30 37ZM31 37L31 38L32 38L32 37ZM8 38L8 40L11 40L11 39L9 39L9 38ZM22 38L22 39L23 39L23 38ZM41 39L41 40L40 40L40 42L39 42L39 43L40 43L40 45L39 45L39 47L42 47L42 46L44 46L44 47L43 47L43 48L44 48L44 47L45 47L45 45L46 45L46 44L45 44L45 43L46 43L46 42L48 42L48 43L47 43L47 44L48 44L48 43L49 43L49 41L48 41L48 40L42 40L42 39ZM23 41L23 44L26 44L26 41ZM41 41L41 44L44 44L44 41ZM45 41L45 42L46 42L46 41ZM18 42L18 43L19 43L19 42ZM24 42L24 43L25 43L25 42ZM29 42L29 43L28 43L28 44L29 44L29 43L30 43L30 42ZM42 42L42 43L43 43L43 42ZM31 43L31 44L30 44L30 45L32 45L32 48L33 48L33 49L35 49L35 48L36 48L36 49L37 49L37 48L38 48L38 49L39 49L39 48L38 48L38 46L37 46L37 45L36 45L36 46L34 46L34 45L35 45L35 44L34 44L34 45L32 45L32 43ZM9 44L9 45L8 45L8 47L9 47L9 49L10 49L10 47L11 47L11 44ZM9 45L9 47L10 47L10 45ZM26 45L26 46L25 46L25 47L26 47L26 46L27 46L27 45ZM40 45L40 46L42 46L42 45ZM48 45L48 46L49 46L49 45ZM23 46L23 47L24 47L24 46ZM30 46L30 49L31 49L31 46ZM36 46L36 47L37 47L37 46ZM18 47L18 48L17 48L17 49L19 49L19 47ZM33 47L33 48L34 48L34 47ZM46 47L46 49L49 49L49 48L47 48L47 47ZM40 48L40 49L42 49L42 48ZM0 0L0 7L7 7L7 0ZM1 1L1 6L6 6L6 1ZM2 2L2 5L5 5L5 2ZM42 0L42 7L49 7L49 0ZM43 1L43 6L48 6L48 1ZM44 2L44 5L47 5L47 2ZM0 42L0 49L7 49L7 42ZM1 43L1 48L6 48L6 43ZM2 44L2 47L5 47L5 44Z" fill="#000000"/></g></g></svg>
