<?xml version="1.0" encoding="UTF-8"?>
<svg xmlns="http://www.w3.org/2000/svg" version="1.1" width="200" height="200" viewBox="0 0 200 200"><rect x="0" y="0" width="200" height="200" fill="#ffffff"/><g transform="scale(3.774)"><g transform="translate(2,2)"><path fill-rule="evenodd" d="M8 0L8 1L9 1L9 0ZM10 0L10 3L9 3L9 2L8 2L8 3L9 3L9 4L8 4L8 5L9 5L9 6L8 6L8 8L9 8L9 6L10 6L10 7L11 7L11 8L10 8L10 9L7 9L7 8L5 8L5 9L3 9L3 10L2 10L2 11L1 11L1 9L0 9L0 11L1 11L1 12L0 12L0 15L1 15L1 14L2 14L2 17L3 17L3 14L2 14L2 12L4 12L4 13L8 13L8 14L6 14L6 15L8 15L8 16L9 16L9 15L10 15L10 17L8 17L8 18L9 18L9 21L7 21L7 20L5 20L5 21L4 21L4 22L2 22L2 21L3 21L3 20L1 20L1 19L2 19L2 18L1 18L1 19L0 19L0 20L1 20L1 22L0 22L0 23L1 23L1 22L2 22L2 23L4 23L4 24L0 24L0 27L1 27L1 28L0 28L0 30L1 30L1 29L2 29L2 31L1 31L1 32L0 32L0 33L2 33L2 31L3 31L3 30L6 30L6 31L5 31L5 33L3 33L3 34L4 34L4 35L3 35L3 36L0 36L0 38L1 38L1 40L0 40L0 41L3 41L3 40L4 40L4 39L2 39L2 37L3 37L3 38L5 38L5 39L7 39L7 40L6 40L6 41L7 41L7 40L10 40L10 41L8 41L8 42L9 42L9 43L8 43L8 44L9 44L9 45L11 45L11 43L15 43L15 42L13 42L13 41L12 41L12 42L10 42L10 41L11 41L11 40L14 40L14 41L16 41L16 40L17 40L17 39L18 39L18 38L17 38L17 37L18 37L18 35L17 35L17 37L16 37L16 36L15 36L15 34L13 34L13 32L15 32L15 33L16 33L16 34L17 34L17 31L16 31L16 30L14 30L14 29L15 29L15 28L16 28L16 27L17 27L17 28L18 28L18 29L17 29L17 30L19 30L19 28L20 28L20 33L19 33L19 35L21 35L21 36L22 36L22 37L21 37L21 39L22 39L22 42L21 42L21 44L19 44L19 43L20 43L20 41L21 41L21 40L20 40L20 38L19 38L19 42L18 42L18 41L17 41L17 42L16 42L16 43L17 43L17 45L20 45L20 46L21 46L21 47L19 47L19 46L16 46L16 44L15 44L15 45L14 45L14 44L12 44L12 46L9 46L9 49L12 49L12 48L15 48L15 49L17 49L17 47L19 47L19 48L18 48L18 49L20 49L20 48L22 48L22 49L23 49L23 48L25 48L25 47L24 47L24 46L26 46L26 49L28 49L28 47L29 47L29 49L30 49L30 47L31 47L31 49L34 49L34 48L33 48L33 47L31 47L31 45L30 45L30 47L29 47L29 43L28 43L28 42L29 42L29 41L30 41L30 42L31 42L31 43L30 43L30 44L33 44L33 45L34 45L34 47L35 47L35 49L38 49L38 47L39 47L39 45L40 45L40 48L41 48L41 45L42 45L42 48L43 48L43 49L45 49L45 48L43 48L43 46L44 46L44 45L45 45L45 47L48 47L48 49L49 49L49 42L48 42L48 41L49 41L49 40L48 40L48 41L47 41L47 38L48 38L48 39L49 39L49 38L48 38L48 37L49 37L49 34L48 34L48 33L47 33L47 32L49 32L49 30L48 30L48 29L49 29L49 26L48 26L48 27L46 27L46 26L47 26L47 25L48 25L48 24L47 24L47 25L46 25L46 26L45 26L45 23L46 23L46 22L48 22L48 23L49 23L49 22L48 22L48 21L49 21L49 18L48 18L48 17L49 17L49 14L48 14L48 13L49 13L49 12L47 12L47 13L45 13L45 8L44 8L44 11L42 11L42 10L43 10L43 8L42 8L42 10L41 10L41 8L40 8L40 10L39 10L39 8L38 8L38 10L37 10L37 6L38 6L38 7L39 7L39 5L38 5L38 4L37 4L37 3L36 3L36 2L37 2L37 1L36 1L36 0L33 0L33 2L32 2L32 3L34 3L34 4L32 4L32 5L31 5L31 4L30 4L30 5L31 5L31 6L30 6L30 7L31 7L31 8L29 8L29 5L28 5L28 4L29 4L29 3L28 3L28 2L29 2L29 1L30 1L30 0L29 0L29 1L28 1L28 2L27 2L27 4L23 4L23 3L22 3L22 1L23 1L23 0L22 0L22 1L21 1L21 3L20 3L20 1L18 1L18 0L17 0L17 1L16 1L16 0L12 0L12 1L15 1L15 2L13 2L13 3L14 3L14 5L12 5L12 4L11 4L11 3L12 3L12 2L11 2L11 0ZM25 0L25 1L24 1L24 2L26 2L26 1L27 1L27 0ZM40 0L40 1L38 1L38 2L39 2L39 4L40 4L40 3L41 3L41 0ZM17 1L17 2L18 2L18 1ZM35 1L35 2L34 2L34 3L35 3L35 4L34 4L34 5L37 5L37 4L36 4L36 3L35 3L35 2L36 2L36 1ZM15 2L15 4L16 4L16 5L14 5L14 6L13 6L13 7L12 7L12 6L11 6L11 4L10 4L10 6L11 6L11 7L12 7L12 8L13 8L13 10L8 10L8 11L6 11L6 10L7 10L7 9L5 9L5 10L3 10L3 11L5 11L5 12L8 12L8 11L10 11L10 12L9 12L9 14L10 14L10 15L11 15L11 13L10 13L10 12L11 12L11 11L14 11L14 8L13 8L13 7L14 7L14 6L15 6L15 7L16 7L16 8L17 8L17 9L15 9L15 12L17 12L17 14L14 14L14 15L12 15L12 16L11 16L11 17L10 17L10 20L11 20L11 25L10 25L10 26L11 26L11 25L12 25L12 27L13 27L13 25L14 25L14 24L13 24L13 23L12 23L12 21L13 21L13 22L14 22L14 23L15 23L15 26L14 26L14 28L13 28L13 29L12 29L12 30L9 30L9 28L10 28L10 27L5 27L5 28L4 28L4 29L6 29L6 30L9 30L9 31L8 31L8 32L9 32L9 34L10 34L10 35L11 35L11 36L9 36L9 37L6 37L6 36L8 36L8 33L6 33L6 34L7 34L7 35L5 35L5 36L4 36L4 37L5 37L5 38L7 38L7 39L14 39L14 40L16 40L16 39L17 39L17 38L16 38L16 37L15 37L15 36L14 36L14 35L13 35L13 34L12 34L12 32L11 32L11 31L13 31L13 29L14 29L14 28L15 28L15 27L16 27L16 26L17 26L17 25L18 25L18 27L20 27L20 26L21 26L21 27L22 27L22 25L19 25L19 24L21 24L21 23L22 23L22 22L21 22L21 20L23 20L23 22L24 22L24 19L23 19L23 16L25 16L25 17L24 17L24 18L25 18L25 20L27 20L27 21L25 21L25 22L27 22L27 23L28 23L28 25L29 25L29 26L28 26L28 27L29 27L29 26L30 26L30 25L29 25L29 24L31 24L31 23L30 23L30 22L29 22L29 23L28 23L28 20L27 20L27 19L29 19L29 18L30 18L30 20L29 20L29 21L31 21L31 18L33 18L33 17L32 17L32 16L33 16L33 15L34 15L34 16L35 16L35 18L37 18L37 17L38 17L38 16L39 16L39 19L36 19L36 20L35 20L35 19L34 19L34 20L35 20L35 23L34 23L34 21L32 21L32 24L35 24L35 23L36 23L36 24L38 24L38 23L37 23L37 22L38 22L38 21L39 21L39 24L40 24L40 20L41 20L41 22L42 22L42 21L43 21L43 22L45 22L45 21L46 21L46 20L47 20L47 21L48 21L48 20L47 20L47 17L48 17L48 14L47 14L47 17L46 17L46 16L45 16L45 15L44 15L44 14L45 14L45 13L44 13L44 14L42 14L42 13L41 13L41 12L42 12L42 11L41 11L41 10L40 10L40 11L38 11L38 12L39 12L39 13L37 13L37 14L40 14L40 15L38 15L38 16L37 16L37 15L36 15L36 14L35 14L35 12L37 12L37 11L36 11L36 10L35 10L35 12L34 12L34 13L33 13L33 15L32 15L32 16L31 16L31 17L29 17L29 16L30 16L30 14L29 14L29 13L31 13L31 14L32 14L32 12L31 12L31 11L27 11L27 12L26 12L26 11L24 11L24 9L22 9L22 4L20 4L20 3L18 3L18 5L19 5L19 7L20 7L20 8L18 8L18 6L17 6L17 3L16 3L16 2ZM20 5L20 7L21 7L21 5ZM23 5L23 8L26 8L26 5ZM32 5L32 6L31 6L31 7L32 7L32 8L31 8L31 10L32 10L32 11L34 11L34 9L36 9L36 8L35 8L35 7L36 7L36 6L35 6L35 7L34 7L34 6L33 6L33 5ZM16 6L16 7L17 7L17 6ZM24 6L24 7L25 7L25 6ZM27 6L27 7L28 7L28 6ZM32 6L32 7L33 7L33 6ZM40 6L40 7L41 7L41 6ZM28 8L28 9L29 9L29 10L30 10L30 9L29 9L29 8ZM32 8L32 10L33 10L33 9L34 9L34 8ZM46 8L46 10L48 10L48 11L49 11L49 10L48 10L48 9L49 9L49 8L48 8L48 9L47 9L47 8ZM17 9L17 10L18 10L18 11L17 11L17 12L18 12L18 11L19 11L19 12L20 12L20 11L22 11L22 12L21 12L21 13L18 13L18 14L17 14L17 15L14 15L14 16L17 16L17 15L18 15L18 14L22 14L22 15L21 15L21 16L19 16L19 17L21 17L21 18L20 18L20 19L19 19L19 18L17 18L17 17L13 17L13 19L12 19L12 20L13 20L13 21L14 21L14 20L13 20L13 19L14 19L14 18L15 18L15 20L16 20L16 21L18 21L18 22L17 22L17 23L16 23L16 24L17 24L17 23L18 23L18 24L19 24L19 23L18 23L18 22L19 22L19 20L21 20L21 19L22 19L22 16L23 16L23 15L25 15L25 16L26 16L26 15L27 15L27 16L28 16L28 15L27 15L27 13L26 13L26 12L25 12L25 13L24 13L24 14L22 14L22 12L24 12L24 11L22 11L22 9L21 9L21 10L20 10L20 11L19 11L19 9ZM40 11L40 12L41 12L41 11ZM12 12L12 13L13 13L13 12ZM25 13L25 14L26 14L26 13ZM34 14L34 15L35 15L35 16L36 16L36 17L37 17L37 16L36 16L36 15L35 15L35 14ZM41 14L41 17L42 17L42 18L40 18L40 19L42 19L42 20L45 20L45 19L46 19L46 18L45 18L45 19L44 19L44 18L43 18L43 17L42 17L42 16L44 16L44 15L42 15L42 14ZM4 16L4 17L5 17L5 16ZM6 16L6 17L7 17L7 16ZM11 17L11 18L12 18L12 17ZM25 17L25 18L27 18L27 17ZM28 17L28 18L29 18L29 17ZM3 18L3 19L5 19L5 18ZM6 18L6 19L7 19L7 18ZM17 19L17 20L19 20L19 19ZM32 19L32 20L33 20L33 19ZM36 20L36 22L37 22L37 20ZM5 21L5 22L7 22L7 21ZM9 22L9 24L10 24L10 22ZM20 22L20 23L21 23L21 22ZM5 23L5 26L8 26L8 23ZM23 23L23 26L26 26L26 23ZM41 23L41 26L44 26L44 23ZM6 24L6 25L7 25L7 24ZM24 24L24 25L25 25L25 24ZM42 24L42 25L43 25L43 24ZM32 25L32 26L31 26L31 27L32 27L32 28L30 28L30 29L29 29L29 28L27 28L27 27L26 27L26 28L27 28L27 29L29 29L29 33L30 33L30 34L27 34L27 38L25 38L25 37L24 37L24 35L22 35L22 34L25 34L25 36L26 36L26 33L27 33L27 32L28 32L28 31L25 31L25 30L26 30L26 29L23 29L23 28L22 28L22 29L21 29L21 30L22 30L22 31L21 31L21 32L22 32L22 34L21 34L21 33L20 33L20 34L21 34L21 35L22 35L22 36L23 36L23 37L22 37L22 39L24 39L24 40L25 40L25 39L27 39L27 42L28 42L28 41L29 41L29 40L30 40L30 37L31 37L31 39L32 39L32 40L31 40L31 42L33 42L33 44L34 44L34 45L35 45L35 47L36 47L36 48L37 48L37 47L36 47L36 44L38 44L38 45L37 45L37 46L38 46L38 45L39 45L39 44L40 44L40 43L39 43L39 44L38 44L38 42L40 42L40 41L39 41L39 40L38 40L38 39L37 39L37 38L39 38L39 39L40 39L40 38L39 38L39 35L38 35L38 37L37 37L37 38L36 38L36 37L31 37L31 36L30 36L30 37L28 37L28 36L29 36L29 35L30 35L30 34L33 34L33 36L34 36L34 33L35 33L35 34L36 34L36 36L37 36L37 34L38 34L38 33L39 33L39 34L40 34L40 33L41 33L41 35L40 35L40 36L41 36L41 35L42 35L42 36L43 36L43 39L42 39L42 37L41 37L41 39L42 39L42 40L44 40L44 39L46 39L46 38L47 38L47 36L48 36L48 34L47 34L47 35L44 35L44 33L42 33L42 32L43 32L43 31L41 31L41 29L42 29L42 28L43 28L43 29L44 29L44 32L45 32L45 33L46 33L46 32L47 32L47 29L48 29L48 28L47 28L47 29L46 29L46 27L45 27L45 29L44 29L44 27L42 27L42 28L41 28L41 29L38 29L38 27L36 27L36 26L35 26L35 25ZM37 25L37 26L39 26L39 27L40 27L40 25ZM34 26L34 27L35 27L35 28L36 28L36 29L35 29L35 31L34 31L34 32L30 32L30 33L34 33L34 32L35 32L35 33L36 33L36 32L37 32L37 28L36 28L36 27L35 27L35 26ZM2 27L2 29L3 29L3 27ZM6 28L6 29L7 29L7 28ZM30 29L30 31L31 31L31 29ZM32 29L32 31L33 31L33 29ZM45 30L45 31L46 31L46 30ZM6 31L6 32L7 32L7 31ZM22 31L22 32L23 32L23 31ZM35 31L35 32L36 32L36 31ZM39 31L39 33L40 33L40 31ZM10 32L10 33L11 33L11 32ZM25 32L25 33L26 33L26 32ZM0 34L0 35L1 35L1 34ZM11 34L11 35L12 35L12 34ZM42 34L42 35L43 35L43 36L44 36L44 35L43 35L43 34ZM11 36L11 37L10 37L10 38L14 38L14 39L15 39L15 37L13 37L13 36ZM19 36L19 37L20 37L20 36ZM23 37L23 38L24 38L24 37ZM27 38L27 39L28 39L28 40L29 40L29 38ZM32 38L32 39L33 39L33 38ZM34 38L34 40L36 40L36 41L38 41L38 40L36 40L36 39L35 39L35 38ZM45 40L45 42L47 42L47 41L46 41L46 40ZM23 41L23 44L26 44L26 41ZM41 41L41 44L44 44L44 41ZM17 42L17 43L18 43L18 42ZM24 42L24 43L25 43L25 42ZM34 42L34 43L35 43L35 44L36 44L36 43L37 43L37 42ZM42 42L42 43L43 43L43 42ZM27 43L27 44L28 44L28 43ZM45 43L45 45L46 45L46 44L47 44L47 46L48 46L48 43ZM21 45L21 46L23 46L23 45ZM26 45L26 46L27 46L27 47L28 47L28 45ZM12 46L12 47L11 47L11 48L12 48L12 47L15 47L15 48L16 48L16 47L15 47L15 46ZM0 0L0 7L7 7L7 0ZM1 1L1 6L6 6L6 1ZM2 2L2 5L5 5L5 2ZM42 0L42 7L49 7L49 0ZM43 1L43 6L48 6L48 1ZM44 2L44 5L47 5L47 2ZM0 42L0 49L7 49L7 42ZM1 43L1 48L6 48L6 43ZM2 44L2 47L5 47L5 44Z" fill="#000000"/></g></g></svg>
