<?xml version="1.0" encoding="UTF-8"?>
<svg xmlns="http://www.w3.org/2000/svg" version="1.1" width="200" height="200" viewBox="0 0 200 200"><rect x="0" y="0" width="200" height="200" fill="#ffffff"/><g transform="scale(3.774)"><g transform="translate(2,2)"><path fill-rule="evenodd" d="M8 0L8 2L9 2L9 3L8 3L8 7L9 7L9 3L10 3L10 1L11 1L11 2L13 2L13 4L12 4L12 3L11 3L11 5L10 5L10 7L11 7L11 5L14 5L14 3L16 3L16 5L15 5L15 6L14 6L14 8L12 8L12 9L13 9L13 10L15 10L15 13L16 13L16 14L15 14L15 15L17 15L17 16L16 16L16 17L15 17L15 16L14 16L14 11L13 11L13 13L12 13L12 11L11 11L11 10L10 10L10 9L11 9L11 8L9 8L9 10L8 10L8 11L7 11L7 10L6 10L6 9L7 9L7 8L6 8L6 9L5 9L5 10L6 10L6 11L4 11L4 10L2 10L2 11L1 11L1 9L0 9L0 11L1 11L1 12L0 12L0 16L1 16L1 17L0 17L0 18L4 18L4 19L3 19L3 21L1 21L1 19L0 19L0 21L1 21L1 22L0 22L0 25L1 25L1 26L0 26L0 29L1 29L1 30L3 30L3 29L4 29L4 31L3 31L3 32L2 32L2 31L0 31L0 35L2 35L2 34L3 34L3 35L4 35L4 36L5 36L5 39L7 39L7 38L6 38L6 37L7 37L7 36L8 36L8 37L9 37L9 39L11 39L11 40L6 40L6 41L8 41L8 42L9 42L9 43L10 43L10 44L9 44L9 45L8 45L8 46L9 46L9 45L10 45L10 49L11 49L11 47L12 47L12 45L13 45L13 44L14 44L14 46L13 46L13 47L15 47L15 48L16 48L16 49L19 49L19 47L21 47L21 46L20 46L20 45L26 45L26 46L27 46L27 47L26 47L26 48L25 48L25 49L26 49L26 48L27 48L27 47L29 47L29 48L28 48L28 49L30 49L30 48L31 48L31 47L33 47L33 48L32 48L32 49L33 49L33 48L34 48L34 47L35 47L35 48L36 48L36 49L38 49L38 48L39 48L39 49L40 49L40 48L41 48L41 49L42 49L42 48L41 48L41 46L42 46L42 47L43 47L43 48L44 48L44 49L46 49L46 47L49 47L49 46L48 46L48 45L49 45L49 44L48 44L48 43L49 43L49 36L48 36L48 38L47 38L47 37L46 37L46 35L47 35L47 34L46 34L46 35L44 35L44 33L46 33L46 32L47 32L47 33L48 33L48 35L49 35L49 33L48 33L48 32L47 32L47 31L45 31L45 32L44 32L44 31L43 31L43 30L42 30L42 31L40 31L40 29L41 29L41 28L40 28L40 29L38 29L38 27L42 27L42 28L43 28L43 29L44 29L44 30L46 30L46 29L47 29L47 30L48 30L48 31L49 31L49 25L47 25L47 26L46 26L46 23L45 23L45 21L46 21L46 20L47 20L47 21L48 21L48 24L49 24L49 20L47 20L47 19L45 19L45 18L46 18L46 17L47 17L47 18L48 18L48 19L49 19L49 16L48 16L48 15L49 15L49 8L47 8L47 9L48 9L48 14L47 14L47 16L45 16L45 14L44 14L44 13L46 13L46 8L43 8L43 11L44 11L44 9L45 9L45 12L44 12L44 13L43 13L43 12L42 12L42 13L40 13L40 12L39 12L39 11L42 11L42 9L41 9L41 10L40 10L40 8L41 8L41 6L40 6L40 7L39 7L39 5L38 5L38 7L39 7L39 8L38 8L38 9L37 9L37 8L35 8L35 6L36 6L36 7L37 7L37 6L36 6L36 5L34 5L34 7L33 7L33 6L32 6L32 5L33 5L33 4L34 4L34 3L35 3L35 4L36 4L36 3L35 3L35 2L36 2L36 1L35 1L35 0L34 0L34 1L35 1L35 2L34 2L34 3L33 3L33 0L30 0L30 2L29 2L29 1L27 1L27 0L26 0L26 2L27 2L27 3L24 3L24 1L25 1L25 0L24 0L24 1L23 1L23 0L22 0L22 1L21 1L21 2L22 2L22 1L23 1L23 3L22 3L22 4L20 4L20 7L19 7L19 6L18 6L18 7L17 7L17 6L16 6L16 5L18 5L18 4L19 4L19 3L20 3L20 0L19 0L19 2L18 2L18 1L17 1L17 2L18 2L18 4L17 4L17 3L16 3L16 2L13 2L13 0ZM14 0L14 1L15 1L15 0ZM37 0L37 1L38 1L38 2L39 2L39 4L40 4L40 3L41 3L41 0L40 0L40 1L38 1L38 0ZM31 1L31 2L30 2L30 3L31 3L31 4L32 4L32 3L31 3L31 2L32 2L32 1ZM28 2L28 3L29 3L29 2ZM37 3L37 4L38 4L38 3ZM27 4L27 5L29 5L29 7L28 7L28 6L27 6L27 9L24 9L24 10L22 10L22 9L21 9L21 8L22 8L22 5L21 5L21 8L19 8L19 9L18 9L18 8L15 8L15 9L17 9L17 10L16 10L16 13L17 13L17 10L19 10L19 9L21 9L21 10L20 10L20 11L18 11L18 13L19 13L19 14L17 14L17 15L19 15L19 16L17 16L17 17L16 17L16 18L18 18L18 17L19 17L19 19L15 19L15 17L13 17L13 14L12 14L12 13L9 13L9 15L6 15L6 14L8 14L8 12L9 12L9 11L10 11L10 10L9 10L9 11L8 11L8 12L7 12L7 11L6 11L6 12L4 12L4 14L5 14L5 18L7 18L7 19L6 19L6 20L5 20L5 21L3 21L3 22L5 22L5 21L6 21L6 22L9 22L9 19L10 19L10 20L11 20L11 19L10 19L10 18L12 18L12 19L13 19L13 20L12 20L12 22L11 22L11 24L12 24L12 25L11 25L11 26L10 26L10 24L9 24L9 27L10 27L10 28L8 28L8 29L6 29L6 28L7 28L7 27L6 27L6 28L5 28L5 27L4 27L4 23L3 23L3 28L2 28L2 27L1 27L1 29L3 29L3 28L5 28L5 29L6 29L6 30L5 30L5 31L4 31L4 32L5 32L5 33L3 33L3 34L7 34L7 35L5 35L5 36L7 36L7 35L8 35L8 32L7 32L7 31L9 31L9 30L10 30L10 31L11 31L11 32L9 32L9 33L11 33L11 32L14 32L14 33L16 33L16 36L15 36L15 34L13 34L13 33L12 33L12 35L11 35L11 37L10 37L10 38L11 38L11 39L13 39L13 40L11 40L11 41L9 41L9 42L11 42L11 44L10 44L10 45L11 45L11 44L13 44L13 40L14 40L14 41L15 41L15 42L14 42L14 43L15 43L15 47L16 47L16 44L17 44L17 46L19 46L19 45L18 45L18 44L17 44L17 43L18 43L18 42L16 42L16 40L17 40L17 41L19 41L19 44L22 44L22 40L24 40L24 39L25 39L25 40L28 40L28 42L27 42L27 43L28 43L28 44L27 44L27 45L28 45L28 46L29 46L29 45L34 45L34 46L35 46L35 47L36 47L36 46L37 46L37 48L38 48L38 47L39 47L39 45L40 45L40 46L41 46L41 45L40 45L40 44L38 44L38 43L37 43L37 44L38 44L38 46L37 46L37 45L36 45L36 46L35 46L35 45L34 45L34 44L30 44L30 43L32 43L32 42L31 42L31 41L29 41L29 38L24 38L24 37L23 37L23 38L24 38L24 39L22 39L22 37L21 37L21 36L22 36L22 35L23 35L23 36L25 36L25 37L26 37L26 34L28 34L28 36L29 36L29 37L30 37L30 38L31 38L31 37L32 37L32 39L30 39L30 40L32 40L32 39L33 39L33 37L32 37L32 36L34 36L34 37L36 37L36 36L35 36L35 35L33 35L33 34L31 34L31 35L30 35L30 36L29 36L29 33L30 33L30 32L33 32L33 33L34 33L34 34L35 34L35 33L38 33L38 34L36 34L36 35L37 35L37 38L40 38L40 39L38 39L38 40L37 40L37 41L38 41L38 40L39 40L39 41L40 41L40 40L42 40L42 39L41 39L41 37L42 37L42 38L43 38L43 39L44 39L44 40L47 40L47 41L46 41L46 42L45 42L45 43L46 43L46 42L47 42L47 43L48 43L48 42L47 42L47 41L48 41L48 40L47 40L47 38L46 38L46 39L45 39L45 36L44 36L44 35L43 35L43 36L44 36L44 37L42 37L42 36L41 36L41 35L42 35L42 34L41 34L41 33L40 33L40 31L39 31L39 30L38 30L38 31L36 31L36 30L37 30L37 29L36 29L36 27L35 27L35 26L36 26L36 24L35 24L35 23L37 23L37 24L38 24L38 23L39 23L39 19L38 19L38 18L39 18L39 16L38 16L38 15L37 15L37 14L39 14L39 15L40 15L40 14L39 14L39 13L38 13L38 11L39 11L39 9L38 9L38 10L37 10L37 9L34 9L34 8L33 8L33 7L32 7L32 6L31 6L31 7L30 7L30 4ZM23 5L23 8L26 8L26 5ZM12 6L12 7L13 7L13 6ZM15 6L15 7L16 7L16 6ZM24 6L24 7L25 7L25 6ZM31 7L31 8L28 8L28 9L29 9L29 10L28 10L28 11L27 11L27 13L26 13L26 14L27 14L27 15L26 15L26 16L25 16L25 14L24 14L24 12L25 12L25 10L24 10L24 11L20 11L20 12L19 12L19 13L21 13L21 15L20 15L20 14L19 14L19 15L20 15L20 16L21 16L21 17L22 17L22 16L23 16L23 17L24 17L24 16L25 16L25 17L27 17L27 19L28 19L28 17L30 17L30 18L32 18L32 17L33 17L33 16L32 16L32 15L34 15L34 20L35 20L35 22L34 22L34 21L33 21L33 20L32 20L32 19L30 19L30 25L29 25L29 22L28 22L28 20L24 20L24 18L23 18L23 19L21 19L21 20L23 20L23 22L21 22L21 21L19 21L19 24L20 24L20 25L21 25L21 26L20 26L20 27L21 27L21 28L20 28L20 29L19 29L19 28L18 28L18 29L16 29L16 28L17 28L17 27L16 27L16 26L17 26L17 25L18 25L18 26L19 26L19 25L18 25L18 24L17 24L17 23L18 23L18 21L16 21L16 20L15 20L15 19L14 19L14 18L13 18L13 17L12 17L12 16L10 16L10 15L12 15L12 14L10 14L10 15L9 15L9 17L12 17L12 18L13 18L13 19L14 19L14 21L13 21L13 22L12 22L12 24L13 24L13 25L12 25L12 26L13 26L13 27L14 27L14 28L12 28L12 29L11 29L11 28L10 28L10 30L12 30L12 31L13 31L13 30L12 30L12 29L14 29L14 32L15 32L15 31L17 31L17 32L18 32L18 33L17 33L17 34L18 34L18 33L19 33L19 31L20 31L20 34L21 34L21 35L19 35L19 36L18 36L18 35L17 35L17 38L16 38L16 37L15 37L15 36L14 36L14 35L12 35L12 36L13 36L13 37L11 37L11 38L13 38L13 37L15 37L15 38L14 38L14 40L15 40L15 38L16 38L16 39L17 39L17 40L19 40L19 39L17 39L17 38L18 38L18 37L20 37L20 38L21 38L21 37L20 37L20 36L21 36L21 35L22 35L22 34L21 34L21 33L24 33L24 35L25 35L25 33L27 33L27 32L28 32L28 31L29 31L29 32L30 32L30 31L33 31L33 32L34 32L34 33L35 33L35 32L36 32L36 31L35 31L35 32L34 32L34 28L35 28L35 27L34 27L34 26L35 26L35 24L34 24L34 23L35 23L35 22L36 22L36 21L37 21L37 22L38 22L38 21L37 21L37 17L38 17L38 16L37 16L37 15L36 15L36 13L37 13L37 10L36 10L36 13L33 13L33 12L31 12L31 10L32 10L32 11L34 11L34 12L35 12L35 10L34 10L34 9L33 9L33 8L32 8L32 7ZM3 8L3 9L4 9L4 8ZM31 8L31 9L32 9L32 10L33 10L33 9L32 9L32 8ZM29 10L29 11L28 11L28 13L29 13L29 14L32 14L32 13L31 13L31 12L30 12L30 10ZM2 12L2 13L1 13L1 15L2 15L2 17L3 17L3 15L2 15L2 14L3 14L3 12ZM6 12L6 13L7 13L7 12ZM21 12L21 13L23 13L23 12ZM29 12L29 13L30 13L30 12ZM42 13L42 14L41 14L41 16L40 16L40 18L41 18L41 19L42 19L42 22L43 22L43 21L45 21L45 20L43 20L43 19L42 19L42 18L43 18L43 16L44 16L44 14L43 14L43 13ZM23 14L23 16L24 16L24 14ZM34 14L34 15L35 15L35 20L36 20L36 15L35 15L35 14ZM30 15L30 16L31 16L31 17L32 17L32 16L31 16L31 15ZM6 16L6 17L7 17L7 18L8 18L8 16ZM27 16L27 17L28 17L28 16ZM41 16L41 17L42 17L42 16ZM47 16L47 17L48 17L48 16ZM44 17L44 18L45 18L45 17ZM25 18L25 19L26 19L26 18ZM6 20L6 21L7 21L7 20ZM40 20L40 22L41 22L41 20ZM14 21L14 22L13 22L13 24L15 24L15 23L14 23L14 22L15 22L15 21ZM24 21L24 22L25 22L25 21ZM31 21L31 25L30 25L30 26L31 26L31 27L27 27L27 29L25 29L25 28L26 28L26 27L22 27L22 31L23 31L23 28L24 28L24 30L25 30L25 31L24 31L24 32L25 32L25 31L26 31L26 32L27 32L27 31L28 31L28 30L33 30L33 29L31 29L31 28L32 28L32 27L33 27L33 25L34 25L34 24L33 24L33 25L32 25L32 21ZM16 22L16 23L17 23L17 22ZM20 22L20 23L21 23L21 25L22 25L22 23L21 23L21 22ZM5 23L5 26L8 26L8 23ZM23 23L23 26L26 26L26 23ZM41 23L41 26L44 26L44 23ZM1 24L1 25L2 25L2 24ZM6 24L6 25L7 25L7 24ZM16 24L16 25L17 25L17 24ZM24 24L24 25L25 25L25 24ZM39 24L39 25L37 25L37 26L39 26L39 25L40 25L40 24ZM42 24L42 25L43 25L43 24ZM31 25L31 26L32 26L32 25ZM14 26L14 27L15 27L15 28L14 28L14 29L15 29L15 30L16 30L16 29L15 29L15 28L16 28L16 27L15 27L15 26ZM45 26L45 27L44 27L44 29L45 29L45 27L46 27L46 28L47 28L47 29L48 29L48 27L46 27L46 26ZM28 28L28 29L30 29L30 28ZM8 29L8 30L9 30L9 29ZM18 29L18 30L17 30L17 31L19 31L19 29ZM20 29L20 31L21 31L21 29ZM35 29L35 30L36 30L36 29ZM6 30L6 31L5 31L5 32L6 32L6 33L7 33L7 32L6 32L6 31L7 31L7 30ZM1 32L1 34L2 34L2 32ZM39 33L39 34L40 34L40 35L41 35L41 34L40 34L40 33ZM38 35L38 36L39 36L39 35ZM0 36L0 38L1 38L1 40L0 40L0 41L3 41L3 40L4 40L4 39L2 39L2 37L3 37L3 36ZM40 36L40 37L41 37L41 36ZM34 38L34 42L35 42L35 44L36 44L36 38ZM20 39L20 43L21 43L21 40L22 40L22 39ZM11 41L11 42L12 42L12 41ZM23 41L23 44L26 44L26 41ZM41 41L41 44L44 44L44 41ZM15 42L15 43L16 43L16 42ZM24 42L24 43L25 43L25 42ZM28 42L28 43L30 43L30 42ZM39 42L39 43L40 43L40 42ZM42 42L42 43L43 43L43 42ZM46 44L46 45L45 45L45 47L46 47L46 46L47 46L47 44ZM42 45L42 46L44 46L44 45ZM22 46L22 48L21 48L21 49L24 49L24 46ZM17 47L17 48L18 48L18 47ZM13 48L13 49L14 49L14 48ZM47 48L47 49L49 49L49 48ZM0 0L0 7L7 7L7 0ZM1 1L1 6L6 6L6 1ZM2 2L2 5L5 5L5 2ZM42 0L42 7L49 7L49 0ZM43 1L43 6L48 6L48 1ZM44 2L44 5L47 5L47 2ZM0 42L0 49L7 49L7 42ZM1 43L1 48L6 48L6 43ZM2 44L2 47L5 47L5 44Z" fill="#000000"/></g></g></svg>
