<?xml version="1.0" encoding="UTF-8"?>
<svg xmlns="http://www.w3.org/2000/svg" version="1.1" width="200" height="200" viewBox="0 0 200 200"><rect x="0" y="0" width="200" height="200" fill="#ffffff"/><g transform="scale(3.774)"><g transform="translate(2,2)"><path fill-rule="evenodd" d="M11 0L11 1L10 1L10 2L9 2L9 3L10 3L10 2L11 2L11 3L13 3L13 0ZM15 0L15 1L14 1L14 3L16 3L16 2L17 2L17 4L15 4L15 5L13 5L13 4L12 4L12 5L11 5L11 6L10 6L10 5L9 5L9 4L8 4L8 5L9 5L9 6L8 6L8 8L6 8L6 9L7 9L7 10L5 10L5 12L4 12L4 11L3 11L3 9L4 9L4 8L2 8L2 9L0 9L0 10L1 10L1 12L0 12L0 13L1 13L1 15L3 15L3 17L4 17L4 15L5 15L5 14L6 14L6 15L7 15L7 16L5 16L5 17L8 17L8 18L10 18L10 19L8 19L8 20L6 20L6 19L7 19L7 18L6 18L6 19L5 19L5 18L2 18L2 17L1 17L1 16L0 16L0 19L1 19L1 21L0 21L0 22L1 22L1 21L2 21L2 23L0 23L0 25L1 25L1 26L2 26L2 27L1 27L1 30L0 30L0 37L1 37L1 40L0 40L0 41L3 41L3 40L4 40L4 39L2 39L2 38L5 38L5 39L7 39L7 40L6 40L6 41L7 41L7 40L8 40L8 43L9 43L9 44L10 44L10 42L11 42L11 44L13 44L13 42L14 42L14 44L15 44L15 42L14 42L14 41L13 41L13 40L15 40L15 41L17 41L17 42L18 42L18 44L17 44L17 43L16 43L16 47L17 47L17 45L18 45L18 46L19 46L19 45L18 45L18 44L19 44L19 43L20 43L20 45L22 45L22 47L21 47L21 46L20 46L20 49L21 49L21 48L22 48L22 47L23 47L23 49L24 49L24 47L26 47L26 48L25 48L25 49L27 49L27 48L29 48L29 49L31 49L31 46L30 46L30 45L32 45L32 48L33 48L33 49L35 49L35 48L36 48L36 49L38 49L38 46L37 46L37 45L36 45L36 46L34 46L34 45L35 45L35 44L34 44L34 45L32 45L32 43L30 43L30 42L28 42L28 41L29 41L29 39L27 39L27 40L26 40L26 37L25 37L25 36L26 36L26 35L25 35L25 33L26 33L26 34L27 34L27 35L28 35L28 36L30 36L30 35L32 35L32 36L33 36L33 37L31 37L31 39L30 39L30 40L32 40L32 41L31 41L31 42L32 42L32 41L34 41L34 42L35 42L35 41L36 41L36 44L37 44L37 43L38 43L38 41L39 41L39 40L37 40L37 41L36 41L36 39L35 39L35 41L34 41L34 38L33 38L33 37L35 37L35 38L37 38L37 36L38 36L38 39L40 39L40 38L42 38L42 37L44 37L44 38L43 38L43 39L44 39L44 38L45 38L45 39L46 39L46 38L45 38L45 36L43 36L43 35L42 35L42 34L40 34L40 33L41 33L41 32L44 32L44 33L46 33L46 32L45 32L45 31L47 31L47 30L48 30L48 31L49 31L49 29L47 29L47 28L46 28L46 27L47 27L47 26L49 26L49 25L47 25L47 23L48 23L48 24L49 24L49 23L48 23L48 21L47 21L47 23L46 23L46 27L45 27L45 21L46 21L46 20L45 20L45 21L44 21L44 19L43 19L43 18L45 18L45 19L47 19L47 18L48 18L48 19L49 19L49 17L48 17L48 16L49 16L49 15L48 15L48 16L45 16L45 14L47 14L47 11L48 11L48 14L49 14L49 11L48 11L48 9L47 9L47 11L46 11L46 9L45 9L45 8L44 8L44 9L45 9L45 11L44 11L44 12L45 12L45 11L46 11L46 13L43 13L43 12L42 12L42 13L41 13L41 10L40 10L40 8L39 8L39 5L38 5L38 4L37 4L37 3L38 3L38 2L39 2L39 4L40 4L40 3L41 3L41 0L40 0L40 1L38 1L38 0L37 0L37 1L38 1L38 2L36 2L36 1L34 1L34 0L32 0L32 1L33 1L33 2L34 2L34 3L33 3L33 4L32 4L32 2L31 2L31 1L30 1L30 0L29 0L29 1L30 1L30 3L31 3L31 4L32 4L32 5L30 5L30 4L28 4L28 5L27 5L27 3L29 3L29 2L28 2L28 0L25 0L25 1L23 1L23 0L22 0L22 1L21 1L21 0L19 0L19 2L22 2L22 3L23 3L23 2L24 2L24 3L26 3L26 4L21 4L21 3L20 3L20 4L18 4L18 1L17 1L17 0ZM22 1L22 2L23 2L23 1ZM26 2L26 3L27 3L27 2ZM34 3L34 4L33 4L33 5L34 5L34 6L33 6L33 9L31 9L31 10L30 10L30 8L29 8L29 9L28 9L28 8L27 8L27 9L26 9L26 11L25 11L25 10L24 10L24 9L23 9L23 10L22 10L22 9L21 9L21 7L22 7L22 5L20 5L20 6L19 6L19 5L18 5L18 4L17 4L17 5L16 5L16 6L15 6L15 7L14 7L14 6L13 6L13 5L12 5L12 6L11 6L11 7L10 7L10 6L9 6L9 9L8 9L8 10L10 10L10 11L11 11L11 9L10 9L10 8L12 8L12 9L13 9L13 11L12 11L12 13L13 13L13 16L11 16L11 15L12 15L12 14L11 14L11 13L9 13L9 12L7 12L7 11L6 11L6 12L7 12L7 13L6 13L6 14L7 14L7 15L8 15L8 16L9 16L9 15L10 15L10 16L11 16L11 17L13 17L13 18L11 18L11 19L12 19L12 20L8 20L8 22L10 22L10 21L11 21L11 22L12 22L12 23L9 23L9 24L10 24L10 26L9 26L9 27L10 27L10 28L8 28L8 27L4 27L4 26L3 26L3 24L4 24L4 23L3 23L3 24L1 24L1 25L2 25L2 26L3 26L3 28L2 28L2 29L3 29L3 30L4 30L4 31L5 31L5 32L7 32L7 31L9 31L9 29L10 29L10 30L11 30L11 31L10 31L10 32L9 32L9 34L8 34L8 33L6 33L6 34L5 34L5 33L4 33L4 32L3 32L3 31L2 31L2 33L4 33L4 34L2 34L2 35L1 35L1 37L3 37L3 36L7 36L7 37L6 37L6 38L8 38L8 40L13 40L13 39L12 39L12 38L11 38L11 39L9 39L9 38L8 38L8 37L10 37L10 36L11 36L11 37L13 37L13 38L20 38L20 36L21 36L21 37L22 37L22 38L21 38L21 39L20 39L20 40L19 40L19 39L17 39L17 40L19 40L19 41L20 41L20 43L21 43L21 44L22 44L22 41L20 41L20 40L23 40L23 39L24 39L24 40L25 40L25 39L24 39L24 37L23 37L23 36L24 36L24 35L23 35L23 34L24 34L24 32L22 32L22 34L20 34L20 36L19 36L19 37L18 37L18 36L17 36L17 37L15 37L15 36L16 36L16 35L18 35L18 34L19 34L19 33L18 33L18 31L17 31L17 30L16 30L16 31L15 31L15 33L13 33L13 32L14 32L14 31L13 31L13 32L12 32L12 30L15 30L15 28L16 28L16 27L17 27L17 26L18 26L18 25L19 25L19 26L20 26L20 25L21 25L21 26L22 26L22 25L21 25L21 22L24 22L24 21L25 21L25 22L26 22L26 19L24 19L24 18L26 18L26 16L24 16L24 15L27 15L27 17L28 17L28 18L29 18L29 20L28 20L28 22L29 22L29 23L27 23L27 25L29 25L29 26L30 26L30 27L31 27L31 26L30 26L30 24L31 24L31 25L33 25L33 26L32 26L32 27L33 27L33 26L34 26L34 27L35 27L35 25L36 25L36 30L35 30L35 31L36 31L36 32L38 32L38 33L34 33L34 29L35 29L35 28L34 28L34 29L32 29L32 28L31 28L31 29L30 29L30 28L29 28L29 27L27 27L27 29L26 29L26 28L25 28L25 30L22 30L22 31L25 31L25 30L27 30L27 31L26 31L26 32L27 32L27 34L28 34L28 35L30 35L30 34L29 34L29 33L30 33L30 32L31 32L31 34L32 34L32 35L33 35L33 34L32 34L32 31L33 31L33 33L34 33L34 34L35 34L35 35L36 35L36 34L38 34L38 36L39 36L39 35L40 35L40 34L39 34L39 33L40 33L40 32L41 32L41 31L42 31L42 29L43 29L43 31L44 31L44 30L46 30L46 29L45 29L45 27L42 27L42 29L41 29L41 31L40 31L40 28L41 28L41 27L38 27L38 25L39 25L39 26L40 26L40 25L39 25L39 24L40 24L40 23L39 23L39 20L40 20L40 22L42 22L42 20L43 20L43 19L42 19L42 18L43 18L43 17L44 17L44 16L43 16L43 17L42 17L42 16L40 16L40 17L39 17L39 16L37 16L37 15L38 15L38 13L39 13L39 15L40 15L40 14L41 14L41 13L40 13L40 12L39 12L39 11L40 11L40 10L39 10L39 9L37 9L37 8L38 8L38 5L36 5L36 6L35 6L35 4L36 4L36 3ZM17 5L17 6L16 6L16 7L17 7L17 9L15 9L15 8L14 8L14 9L15 9L15 10L14 10L14 11L13 11L13 12L15 12L15 11L16 11L16 12L17 12L17 11L16 11L16 10L17 10L17 9L18 9L18 11L19 11L19 9L20 9L20 10L21 10L21 9L20 9L20 8L19 8L19 9L18 9L18 7L19 7L19 6L18 6L18 5ZM23 5L23 8L26 8L26 5ZM29 5L29 7L30 7L30 5ZM12 6L12 8L13 8L13 6ZM17 6L17 7L18 7L18 6ZM20 6L20 7L21 7L21 6ZM24 6L24 7L25 7L25 6ZM27 6L27 7L28 7L28 6ZM31 6L31 7L32 7L32 6ZM34 6L34 7L35 7L35 6ZM36 6L36 7L37 7L37 6ZM40 6L40 7L41 7L41 6ZM34 8L34 9L33 9L33 10L31 10L31 11L30 11L30 12L29 12L29 10L28 10L28 13L30 13L30 12L31 12L31 13L32 13L32 12L33 12L33 13L35 13L35 14L37 14L37 11L38 11L38 10L37 10L37 9L35 9L35 8ZM41 8L41 9L42 9L42 11L43 11L43 8ZM34 9L34 10L35 10L35 9ZM23 10L23 12L21 12L21 13L22 13L22 14L23 14L23 15L24 15L24 12L25 12L25 11L24 11L24 10ZM36 10L36 11L34 11L34 12L35 12L35 13L36 13L36 11L37 11L37 10ZM2 11L2 12L3 12L3 14L5 14L5 13L4 13L4 12L3 12L3 11ZM31 11L31 12L32 12L32 11ZM14 13L14 14L15 14L15 13ZM19 13L19 14L16 14L16 16L17 16L17 17L15 17L15 16L14 16L14 18L13 18L13 20L12 20L12 22L13 22L13 23L12 23L12 24L11 24L11 25L12 25L12 26L11 26L11 28L10 28L10 29L11 29L11 30L12 30L12 29L13 29L13 28L15 28L15 27L16 27L16 26L15 26L15 27L13 27L13 26L14 26L14 24L15 24L15 23L16 23L16 22L18 22L18 23L19 23L19 24L20 24L20 23L19 23L19 21L20 21L20 22L21 22L21 21L20 21L20 20L21 20L21 19L23 19L23 20L24 20L24 19L23 19L23 16L22 16L22 17L21 17L21 16L20 16L20 17L19 17L19 16L17 16L17 15L19 15L19 14L20 14L20 13ZM25 13L25 14L27 14L27 15L28 15L28 16L29 16L29 14L27 14L27 13ZM42 13L42 14L43 14L43 13ZM8 14L8 15L9 15L9 14ZM10 14L10 15L11 15L11 14ZM32 14L32 15L30 15L30 16L31 16L31 17L30 17L30 18L31 18L31 17L32 17L32 16L33 16L33 15L34 15L34 17L33 17L33 19L31 19L31 20L32 20L32 21L31 21L31 23L34 23L34 24L33 24L33 25L34 25L34 24L36 24L36 25L38 25L38 24L39 24L39 23L38 23L38 22L37 22L37 21L38 21L38 20L39 20L39 19L38 19L38 20L37 20L37 17L36 17L36 15L34 15L34 14ZM17 17L17 18L16 18L16 19L18 19L18 20L20 20L20 19L21 19L21 18L20 18L20 19L19 19L19 18L18 18L18 17ZM34 17L34 20L33 20L33 21L34 21L34 22L36 22L36 21L37 21L37 20L36 20L36 17ZM38 17L38 18L39 18L39 17ZM40 17L40 18L41 18L41 17ZM45 17L45 18L46 18L46 17ZM3 19L3 20L5 20L5 19ZM14 19L14 20L15 20L15 19ZM41 19L41 20L42 20L42 19ZM16 20L16 21L17 21L17 20ZM29 20L29 21L30 21L30 20ZM3 21L3 22L7 22L7 21ZM14 21L14 22L15 22L15 21ZM43 21L43 22L44 22L44 21ZM5 23L5 26L8 26L8 23ZM13 23L13 24L12 24L12 25L13 25L13 24L14 24L14 23ZM23 23L23 26L26 26L26 23ZM41 23L41 26L44 26L44 23ZM6 24L6 25L7 25L7 24ZM16 24L16 25L18 25L18 24ZM24 24L24 25L25 25L25 24ZM42 24L42 25L43 25L43 24ZM20 27L20 28L18 28L18 30L19 30L19 29L21 29L21 28L22 28L22 29L24 29L24 28L23 28L23 27ZM48 27L48 28L49 28L49 27ZM3 28L3 29L4 29L4 30L5 30L5 31L7 31L7 30L8 30L8 29L7 29L7 28L6 28L6 29L7 29L7 30L5 30L5 29L4 29L4 28ZM28 28L28 29L27 29L27 30L28 30L28 32L30 32L30 31L31 31L31 30L29 30L29 28ZM37 29L37 30L36 30L36 31L38 31L38 32L40 32L40 31L39 31L39 30L38 30L38 29ZM20 30L20 31L19 31L19 32L20 32L20 31L21 31L21 30ZM10 32L10 33L11 33L11 32ZM48 32L48 33L47 33L47 34L46 34L46 37L47 37L47 35L48 35L48 33L49 33L49 32ZM12 33L12 36L13 36L13 35L14 35L14 36L15 36L15 35L16 35L16 33L15 33L15 34L13 34L13 33ZM17 33L17 34L18 34L18 33ZM4 34L4 35L5 35L5 34ZM6 34L6 35L7 35L7 36L10 36L10 35L11 35L11 34L9 34L9 35L8 35L8 34ZM2 35L2 36L3 36L3 35ZM21 35L21 36L23 36L23 35ZM35 36L35 37L36 37L36 36ZM40 36L40 37L42 37L42 36ZM48 36L48 38L49 38L49 36ZM29 37L29 38L30 38L30 37ZM22 38L22 39L23 39L23 38ZM41 39L41 40L40 40L40 42L39 42L39 43L40 43L40 45L39 45L39 47L42 47L42 46L44 46L44 47L43 47L43 48L44 48L44 47L45 47L45 46L46 46L46 49L49 49L49 48L47 48L47 46L46 46L46 44L45 44L45 43L46 43L46 42L48 42L48 43L47 43L47 44L48 44L48 43L49 43L49 41L48 41L48 40L42 40L42 39ZM11 41L11 42L13 42L13 41ZM23 41L23 44L26 44L26 41ZM41 41L41 44L44 44L44 41ZM45 41L45 42L46 42L46 41ZM24 42L24 43L25 43L25 42ZM42 42L42 43L43 43L43 42ZM27 43L27 45L26 45L26 47L27 47L27 45L28 45L28 46L29 46L29 47L30 47L30 46L29 46L29 45L30 45L30 43L29 43L29 44L28 44L28 43ZM8 45L8 47L9 47L9 49L10 49L10 47L11 47L11 45L10 45L10 47L9 47L9 45ZM12 45L12 47L13 47L13 46L14 46L14 48L13 48L13 49L16 49L16 48L15 48L15 46L14 46L14 45ZM40 45L40 46L42 46L42 45ZM48 45L48 46L49 46L49 45ZM23 46L23 47L24 47L24 46ZM36 46L36 47L37 47L37 46ZM18 47L18 48L17 48L17 49L19 49L19 47ZM33 47L33 48L34 48L34 47ZM40 48L40 49L42 49L42 48ZM0 0L0 7L7 7L7 0ZM1 1L1 6L6 6L6 1ZM2 2L2 5L5 5L5 2ZM42 0L42 7L49 7L49 0ZM43 1L43 6L48 6L48 1ZM44 2L44 5L47 5L47 2ZM0 42L0 49L7 49L7 42ZM1 43L1 48L6 48L6 43ZM2 44L2 47L5 47L5 44Z" fill="#000000"/></g></g></svg>
