<?xml version="1.0" encoding="UTF-8"?>
<svg xmlns="http://www.w3.org/2000/svg" version="1.1" width="200" height="200" viewBox="0 0 200 200"><rect x="0" y="0" width="200" height="200" fill="#ffffff"/><g transform="scale(3.774)"><g transform="translate(2,2)"><path fill-rule="evenodd" d="M10 0L10 2L11 2L11 3L9 3L9 2L8 2L8 4L9 4L9 5L10 5L10 4L11 4L11 6L10 6L10 7L9 7L9 6L8 6L8 7L9 7L9 8L10 8L10 9L11 9L11 11L9 11L9 9L8 9L8 8L6 8L6 9L7 9L7 10L5 10L5 8L3 8L3 10L2 10L2 9L1 9L1 11L0 11L0 15L2 15L2 16L3 16L3 13L2 13L2 12L4 12L4 14L6 14L6 15L5 15L5 17L4 17L4 18L3 18L3 19L2 19L2 18L1 18L1 19L0 19L0 23L1 23L1 22L3 22L3 23L2 23L2 24L0 24L0 27L1 27L1 28L0 28L0 31L2 31L2 30L3 30L3 29L4 29L4 28L5 28L5 27L10 27L10 28L9 28L9 30L10 30L10 31L12 31L12 34L13 34L13 38L11 38L11 37L10 37L10 36L12 36L12 35L10 35L10 36L8 36L8 35L9 35L9 34L11 34L11 32L10 32L10 33L9 33L9 32L8 32L8 31L7 31L7 30L8 30L8 28L6 28L6 29L7 29L7 30L4 30L4 32L1 32L1 33L0 33L0 34L3 34L3 35L2 35L2 37L1 37L1 36L0 36L0 37L1 37L1 40L0 40L0 41L3 41L3 40L4 40L4 39L2 39L2 38L5 38L5 39L7 39L7 40L6 40L6 41L7 41L7 40L8 40L8 43L9 43L9 44L8 44L8 46L9 46L9 49L12 49L12 48L15 48L15 49L17 49L17 48L18 48L18 49L20 49L20 48L22 48L22 49L23 49L23 48L22 48L22 47L23 47L23 46L26 46L26 48L25 48L25 47L24 47L24 48L25 48L25 49L26 49L26 48L27 48L27 49L34 49L34 48L35 48L35 49L37 49L37 48L38 48L38 49L39 49L39 48L38 48L38 46L39 46L39 45L40 45L40 47L41 47L41 48L43 48L43 49L45 49L45 48L43 48L43 46L44 46L44 47L46 47L46 48L48 48L48 49L49 49L49 42L47 42L47 41L49 41L49 40L47 40L47 39L44 39L44 38L45 38L45 37L43 37L43 36L44 36L44 35L43 35L43 34L41 34L41 32L40 32L40 31L37 31L37 28L36 28L36 27L37 27L37 26L38 26L38 28L39 28L39 29L40 29L40 30L41 30L41 31L44 31L44 34L45 34L45 35L46 35L46 36L47 36L47 38L48 38L48 39L49 39L49 38L48 38L48 37L49 37L49 34L48 34L48 33L45 33L45 31L46 31L46 30L47 30L47 32L49 32L49 30L47 30L47 28L48 28L48 29L49 29L49 28L48 28L48 27L49 27L49 26L48 26L48 27L47 27L47 25L48 25L48 23L49 23L49 22L48 22L48 21L49 21L49 18L47 18L47 17L49 17L49 14L48 14L48 13L49 13L49 12L48 12L48 11L49 11L49 10L48 10L48 9L47 9L47 8L45 8L45 9L44 9L44 10L45 10L45 9L46 9L46 10L47 10L47 11L46 11L46 12L47 12L47 13L45 13L45 11L41 11L41 13L42 13L42 14L39 14L39 12L38 12L38 10L39 10L39 11L40 11L40 10L41 10L41 9L40 9L40 10L39 10L39 5L38 5L38 4L37 4L37 3L38 3L38 2L39 2L39 4L40 4L40 3L41 3L41 0L40 0L40 1L36 1L36 0L32 0L32 1L33 1L33 3L34 3L34 4L33 4L33 6L32 6L32 4L29 4L29 3L27 3L27 4L22 4L22 5L21 5L21 4L20 4L20 3L19 3L19 1L18 1L18 0L17 0L17 1L16 1L16 0L12 0L12 1L13 1L13 2L14 2L14 4L15 4L15 5L14 5L14 10L13 10L13 8L11 8L11 6L12 6L12 7L13 7L13 6L12 6L12 5L13 5L13 3L12 3L12 2L11 2L11 0ZM25 0L25 1L26 1L26 2L25 2L25 3L26 3L26 2L27 2L27 1L26 1L26 0ZM28 0L28 1L29 1L29 0ZM17 1L17 2L15 2L15 3L17 3L17 2L18 2L18 1ZM20 1L20 2L24 2L24 1ZM30 1L30 2L31 2L31 1ZM35 1L35 2L36 2L36 3L35 3L35 4L34 4L34 6L33 6L33 8L35 8L35 9L36 9L36 8L35 8L35 7L36 7L36 5L37 5L37 4L36 4L36 3L37 3L37 2L36 2L36 1ZM11 3L11 4L12 4L12 3ZM18 3L18 4L17 4L17 5L16 5L16 6L15 6L15 8L16 8L16 9L15 9L15 11L14 11L14 12L15 12L15 14L14 14L14 13L13 13L13 16L12 16L12 13L11 13L11 12L12 12L12 11L13 11L13 10L12 10L12 11L11 11L11 12L9 12L9 13L8 13L8 14L7 14L7 13L6 13L6 14L7 14L7 15L6 15L6 16L7 16L7 15L8 15L8 17L10 17L10 15L8 15L8 14L11 14L11 16L12 16L12 18L13 18L13 19L11 19L11 20L10 20L10 19L9 19L9 20L8 20L8 21L11 21L11 22L12 22L12 21L13 21L13 22L15 22L15 25L14 25L14 24L13 24L13 23L12 23L12 24L11 24L11 23L10 23L10 22L9 22L9 24L11 24L11 25L10 25L10 27L11 27L11 25L12 25L12 27L14 27L14 28L13 28L13 29L12 29L12 28L11 28L11 29L10 29L10 30L12 30L12 31L13 31L13 33L15 33L15 34L14 34L14 35L15 35L15 36L16 36L16 37L14 37L14 38L16 38L16 40L15 40L15 39L14 39L14 40L13 40L13 42L12 42L12 39L11 39L11 42L12 42L12 43L11 43L11 45L10 45L10 44L9 44L9 45L10 45L10 46L11 46L11 47L10 47L10 48L11 48L11 47L14 47L14 45L15 45L15 43L14 43L14 42L15 42L15 41L16 41L16 44L17 44L17 45L16 45L16 46L17 46L17 47L15 47L15 48L17 48L17 47L18 47L18 48L19 48L19 47L20 47L20 44L22 44L22 41L21 41L21 40L22 40L22 39L20 39L20 38L21 38L21 37L22 37L22 38L23 38L23 39L24 39L24 40L25 40L25 38L26 38L26 39L27 39L27 38L28 38L28 40L27 40L27 41L28 41L28 42L27 42L27 44L28 44L28 45L27 45L27 47L28 47L28 45L29 45L29 44L28 44L28 43L31 43L31 44L32 44L32 45L31 45L31 47L29 47L29 48L31 48L31 47L32 47L32 46L33 46L33 48L34 48L34 45L33 45L33 44L35 44L35 46L36 46L36 44L37 44L37 46L38 46L38 45L39 45L39 44L40 44L40 43L38 43L38 42L40 42L40 41L36 41L36 42L37 42L37 43L36 43L36 44L35 44L35 43L34 43L34 41L35 41L35 40L34 40L34 39L36 39L36 40L38 40L38 38L37 38L37 37L36 37L36 38L35 38L35 37L32 37L32 40L31 40L31 42L29 42L29 41L30 41L30 37L31 37L31 36L30 36L30 35L31 35L31 34L32 34L32 35L33 35L33 36L39 36L39 34L40 34L40 33L39 33L39 32L38 32L38 33L37 33L37 32L36 32L36 31L35 31L35 30L36 30L36 29L35 29L35 25L33 25L33 26L32 26L32 25L31 25L31 26L30 26L30 25L29 25L29 24L28 24L28 21L29 21L29 20L27 20L27 21L26 21L26 20L25 20L25 22L27 22L27 24L28 24L28 25L29 25L29 26L28 26L28 27L31 27L31 26L32 26L32 28L29 28L29 29L28 29L28 30L29 30L29 31L30 31L30 30L29 30L29 29L32 29L32 30L31 30L31 31L32 31L32 30L33 30L33 32L34 32L34 31L35 31L35 32L36 32L36 33L35 33L35 35L34 35L34 33L32 33L32 32L28 32L28 31L27 31L27 32L28 32L28 33L29 33L29 34L27 34L27 33L26 33L26 31L25 31L25 33L23 33L23 31L24 31L24 29L25 29L25 28L24 28L24 29L22 29L22 30L21 30L21 28L22 28L22 25L21 25L21 28L20 28L20 30L21 30L21 32L22 32L22 33L20 33L20 35L19 35L19 34L16 34L16 33L17 33L17 30L18 30L18 29L16 29L16 33L15 33L15 27L16 27L16 28L17 28L17 25L18 25L18 27L19 27L19 24L21 24L21 23L22 23L22 22L21 22L21 20L22 20L22 21L23 21L23 22L24 22L24 19L27 19L27 18L29 18L29 17L30 17L30 20L31 20L31 21L32 21L32 22L33 22L33 23L32 23L32 24L34 24L34 21L35 21L35 22L36 22L36 23L35 23L35 24L38 24L38 25L39 25L39 27L40 27L40 25L39 25L39 24L40 24L40 21L41 21L41 22L42 22L42 21L43 21L43 22L45 22L45 21L48 21L48 20L47 20L47 18L46 18L46 16L45 16L45 15L44 15L44 16L41 16L41 15L38 15L38 14L37 14L37 13L36 13L36 14L37 14L37 15L36 15L36 16L37 16L37 17L36 17L36 18L37 18L37 17L39 17L39 20L38 20L38 21L37 21L37 22L36 22L36 20L37 20L37 19L36 19L36 20L35 20L35 19L34 19L34 21L32 21L32 19L31 19L31 18L32 18L32 17L33 17L33 15L34 15L34 16L35 16L35 11L34 11L34 9L33 9L33 11L34 11L34 13L32 13L32 12L31 12L31 11L30 11L30 10L29 10L29 11L30 11L30 12L28 12L28 11L27 11L27 10L26 10L26 11L27 11L27 12L26 12L26 13L25 13L25 11L23 11L23 10L24 10L24 9L22 9L22 11L21 11L21 7L22 7L22 6L21 6L21 7L20 7L20 6L19 6L19 8L20 8L20 9L19 9L19 10L18 10L18 8L16 8L16 6L17 6L17 7L18 7L18 5L20 5L20 4L19 4L19 3ZM27 4L27 5L28 5L28 6L27 6L27 7L28 7L28 6L29 6L29 8L30 8L30 6L31 6L31 8L32 8L32 6L31 6L31 5L30 5L30 6L29 6L29 4ZM35 4L35 5L36 5L36 4ZM23 5L23 8L26 8L26 5ZM24 6L24 7L25 7L25 6ZM34 6L34 7L35 7L35 6ZM37 6L37 7L38 7L38 6ZM40 6L40 7L41 7L41 6ZM31 9L31 10L32 10L32 9ZM37 9L37 10L38 10L38 9ZM42 9L42 10L43 10L43 9ZM4 10L4 12L5 12L5 10ZM17 10L17 11L16 11L16 13L18 13L18 12L20 12L20 13L22 13L22 14L19 14L19 16L21 16L21 15L23 15L23 16L22 16L22 17L20 17L20 18L18 18L18 16L17 16L17 15L18 15L18 14L15 14L15 15L14 15L14 17L13 17L13 18L14 18L14 20L13 20L13 21L14 21L14 20L15 20L15 19L16 19L16 18L17 18L17 19L18 19L18 20L17 20L17 22L18 22L18 20L19 20L19 21L20 21L20 20L21 20L21 19L22 19L22 18L23 18L23 16L24 16L24 18L27 18L27 17L28 17L28 16L26 16L26 15L25 15L25 13L24 13L24 14L23 14L23 13L22 13L22 12L20 12L20 11L18 11L18 10ZM6 11L6 12L8 12L8 11ZM17 11L17 12L18 12L18 11ZM36 11L36 12L37 12L37 11ZM1 13L1 14L2 14L2 13ZM29 13L29 14L28 14L28 15L29 15L29 14L30 14L30 17L32 17L32 15L33 15L33 14L32 14L32 13ZM43 13L43 14L42 14L42 15L43 15L43 14L44 14L44 13ZM31 14L31 15L32 15L32 14ZM46 14L46 15L47 15L47 16L48 16L48 14ZM37 15L37 16L38 16L38 15ZM25 16L25 17L26 17L26 16ZM44 16L44 17L40 17L40 19L42 19L42 20L43 20L43 21L44 21L44 20L43 20L43 19L46 19L46 18L45 18L45 16ZM6 17L6 18L4 18L4 19L3 19L3 20L2 20L2 19L1 19L1 21L3 21L3 20L7 20L7 19L6 19L6 18L7 18L7 17ZM15 17L15 18L16 18L16 17ZM34 17L34 18L35 18L35 17ZM19 19L19 20L20 20L20 19ZM5 21L5 22L7 22L7 21ZM38 21L38 22L37 22L37 23L38 23L38 22L39 22L39 21ZM29 22L29 23L30 23L30 24L31 24L31 22ZM46 22L46 23L45 23L45 26L46 26L46 25L47 25L47 24L46 24L46 23L47 23L47 22ZM3 23L3 24L4 24L4 23ZM5 23L5 26L8 26L8 23ZM17 23L17 24L19 24L19 23ZM23 23L23 26L26 26L26 23ZM41 23L41 26L44 26L44 23ZM6 24L6 25L7 25L7 24ZM24 24L24 25L25 25L25 24ZM42 24L42 25L43 25L43 24ZM1 25L1 27L2 27L2 29L1 29L1 30L2 30L2 29L3 29L3 27L2 27L2 26L3 26L3 25ZM36 25L36 26L37 26L37 25ZM26 27L26 29L27 29L27 27ZM42 27L42 28L41 28L41 30L43 30L43 29L44 29L44 31L45 31L45 30L46 30L46 27L45 27L45 28L44 28L44 27ZM32 28L32 29L33 29L33 28ZM42 28L42 29L43 29L43 28ZM13 29L13 30L14 30L14 29ZM34 29L34 30L35 30L35 29ZM22 30L22 31L23 31L23 30ZM5 31L5 32L7 32L7 33L6 33L6 34L5 34L5 35L3 35L3 36L4 36L4 37L5 37L5 38L7 38L7 37L6 37L6 36L7 36L7 35L8 35L8 34L7 34L7 33L8 33L8 32L7 32L7 31ZM19 31L19 32L18 32L18 33L19 33L19 32L20 32L20 31ZM42 32L42 33L43 33L43 32ZM3 33L3 34L4 34L4 33ZM22 33L22 34L21 34L21 36L20 36L20 37L18 37L18 36L19 36L19 35L16 35L16 36L17 36L17 37L16 37L16 38L17 38L17 39L18 39L18 38L20 38L20 37L21 37L21 36L22 36L22 37L23 37L23 38L24 38L24 37L27 37L27 34L26 34L26 33L25 33L25 34L24 34L24 35L23 35L23 36L22 36L22 34L23 34L23 33ZM30 33L30 34L31 34L31 33ZM38 33L38 34L37 34L37 35L38 35L38 34L39 34L39 33ZM6 34L6 35L5 35L5 36L6 36L6 35L7 35L7 34ZM25 35L25 36L26 36L26 35ZM28 35L28 37L30 37L30 36L29 36L29 35ZM41 35L41 36L43 36L43 35ZM23 36L23 37L24 37L24 36ZM17 37L17 38L18 38L18 37ZM41 37L41 38L39 38L39 39L42 39L42 40L44 40L44 39L42 39L42 37ZM8 38L8 39L10 39L10 38ZM36 38L36 39L37 39L37 38ZM19 39L19 40L20 40L20 39ZM9 40L9 41L10 41L10 40ZM16 40L16 41L18 41L18 40ZM32 40L32 41L33 41L33 40ZM45 40L45 42L46 42L46 40ZM19 41L19 42L18 42L18 43L17 43L17 44L18 44L18 45L19 45L19 44L20 44L20 43L21 43L21 42L20 42L20 41ZM23 41L23 44L26 44L26 41ZM41 41L41 44L44 44L44 41ZM24 42L24 43L25 43L25 42ZM31 42L31 43L33 43L33 42ZM42 42L42 43L43 43L43 42ZM18 43L18 44L19 44L19 43ZM37 43L37 44L38 44L38 43ZM45 43L45 45L44 45L44 46L46 46L46 47L48 47L48 43ZM12 44L12 46L13 46L13 45L14 45L14 44ZM22 45L22 46L23 46L23 45ZM41 45L41 46L42 46L42 45ZM46 45L46 46L47 46L47 45ZM18 46L18 47L19 47L19 46ZM35 47L35 48L37 48L37 47ZM0 0L0 7L7 7L7 0ZM1 1L1 6L6 6L6 1ZM2 2L2 5L5 5L5 2ZM42 0L42 7L49 7L49 0ZM43 1L43 6L48 6L48 1ZM44 2L44 5L47 5L47 2ZM0 42L0 49L7 49L7 42ZM1 43L1 48L6 48L6 43ZM2 44L2 47L5 47L5 44Z" fill="#000000"/></g></g></svg>
