<?xml version="1.0" encoding="UTF-8"?>
<svg xmlns="http://www.w3.org/2000/svg" version="1.1" width="200" height="200" viewBox="0 0 200 200"><rect x="0" y="0" width="200" height="200" fill="#ffffff"/><g transform="scale(3.774)"><g transform="translate(2,2)"><path fill-rule="evenodd" d="M9 0L9 1L8 1L8 2L9 2L9 1L10 1L10 2L11 2L11 1L13 1L13 2L12 2L12 3L10 3L10 4L11 4L11 6L10 6L10 5L8 5L8 8L4 8L4 9L3 9L3 10L2 10L2 11L4 11L4 12L3 12L3 13L2 13L2 15L3 15L3 17L2 17L2 16L1 16L1 15L0 15L0 16L1 16L1 18L0 18L0 20L1 20L1 19L3 19L3 21L2 21L2 22L3 22L3 23L4 23L4 25L3 25L3 24L1 24L1 23L0 23L0 26L1 26L1 27L0 27L0 30L1 30L1 31L0 31L0 34L1 34L1 35L0 35L0 37L1 37L1 40L0 40L0 41L3 41L3 40L4 40L4 39L2 39L2 38L5 38L5 39L7 39L7 40L6 40L6 41L8 41L8 45L9 45L9 43L10 43L10 41L11 41L11 42L12 42L12 41L11 41L11 38L13 38L13 35L14 35L14 36L16 36L16 37L17 37L17 38L18 38L18 39L16 39L16 38L14 38L14 39L12 39L12 40L13 40L13 44L12 44L12 43L11 43L11 44L10 44L10 46L9 46L9 47L10 47L10 46L11 46L11 44L12 44L12 47L11 47L11 48L12 48L12 47L13 47L13 48L16 48L16 46L21 46L21 47L17 47L17 49L20 49L20 48L21 48L21 49L22 49L22 48L21 48L21 47L22 47L22 46L21 46L21 45L23 45L23 46L24 46L24 47L25 47L25 49L30 49L30 48L31 48L31 49L33 49L33 48L34 48L34 49L35 49L35 47L36 47L36 49L38 49L38 47L39 47L39 49L42 49L42 46L43 46L43 45L46 45L46 47L45 47L45 48L43 48L43 49L49 49L49 48L48 48L48 47L47 47L47 44L48 44L48 46L49 46L49 44L48 44L48 41L49 41L49 39L48 39L48 37L49 37L49 36L48 36L48 33L47 33L47 31L48 31L48 29L49 29L49 27L48 27L48 26L47 26L47 24L49 24L49 23L48 23L48 21L49 21L49 20L48 20L48 21L47 21L47 19L48 19L48 17L49 17L49 16L48 16L48 13L49 13L49 11L48 11L48 8L47 8L47 10L46 10L46 11L45 11L45 9L44 9L44 8L42 8L42 11L41 11L41 10L40 10L40 12L39 12L39 13L37 13L37 11L39 11L39 9L41 9L41 6L40 6L40 7L39 7L39 5L38 5L38 7L39 7L39 9L38 9L38 8L36 8L36 9L35 9L35 12L34 12L34 13L35 13L35 12L36 12L36 13L37 13L37 15L36 15L36 14L35 14L35 15L36 15L36 17L38 17L38 16L39 16L39 17L40 17L40 15L41 15L41 14L39 14L39 13L41 13L41 12L42 12L42 15L43 15L43 17L42 17L42 16L41 16L41 17L42 17L42 18L40 18L40 19L39 19L39 20L37 20L37 19L36 19L36 18L35 18L35 16L34 16L34 17L33 17L33 14L32 14L32 13L33 13L33 11L32 11L32 10L33 10L33 9L32 9L32 7L33 7L33 8L35 8L35 6L36 6L36 7L37 7L37 5L33 5L33 4L36 4L36 3L37 3L37 2L39 2L39 4L40 4L40 3L41 3L41 0L40 0L40 1L36 1L36 3L35 3L35 1L33 1L33 0L31 0L31 1L29 1L29 0L28 0L28 1L27 1L27 0L26 0L26 2L28 2L28 3L26 3L26 4L25 4L25 1L24 1L24 2L23 2L23 4L22 4L22 3L20 3L20 2L21 2L21 1L20 1L20 2L19 2L19 1L18 1L18 2L19 2L19 3L18 3L18 4L17 4L17 5L14 5L14 4L13 4L13 3L15 3L15 4L16 4L16 3L15 3L15 2L17 2L17 0L16 0L16 1L15 1L15 0L11 0L11 1L10 1L10 0ZM22 0L22 1L23 1L23 0ZM31 1L31 3L33 3L33 2L32 2L32 1ZM28 3L28 4L27 4L27 9L28 9L28 11L29 11L29 10L30 10L30 9L29 9L29 7L30 7L30 6L31 6L31 7L32 7L32 6L31 6L31 5L30 5L30 4L29 4L29 3ZM18 4L18 5L17 5L17 7L16 7L16 6L15 6L15 7L14 7L14 6L13 6L13 5L12 5L12 6L11 6L11 7L10 7L10 6L9 6L9 7L10 7L10 8L12 8L12 6L13 6L13 7L14 7L14 9L15 9L15 11L11 11L11 12L10 12L10 10L11 10L11 9L10 9L10 10L8 10L8 9L9 9L9 8L8 8L8 9L4 9L4 10L8 10L8 11L5 11L5 12L8 12L8 11L9 11L9 13L8 13L8 14L11 14L11 15L12 15L12 14L13 14L13 13L12 13L12 14L11 14L11 12L15 12L15 13L14 13L14 15L13 15L13 16L17 16L17 18L16 18L16 17L12 17L12 16L11 16L11 17L10 17L10 18L7 18L7 17L8 17L8 15L5 15L5 18L7 18L7 19L6 19L6 20L11 20L11 22L9 22L9 23L10 23L10 24L9 24L9 25L10 25L10 27L11 27L11 28L13 28L13 27L12 27L12 26L14 26L14 27L15 27L15 28L14 28L14 29L11 29L11 30L10 30L10 31L9 31L9 32L8 32L8 31L6 31L6 32L7 32L7 33L6 33L6 34L5 34L5 31L3 31L3 29L2 29L2 28L1 28L1 29L2 29L2 32L1 32L1 34L3 34L3 35L2 35L2 36L1 36L1 37L2 37L2 36L3 36L3 37L4 37L4 36L5 36L5 35L6 35L6 36L7 36L7 35L8 35L8 36L9 36L9 38L7 38L7 37L5 37L5 38L7 38L7 39L8 39L8 40L10 40L10 36L9 36L9 34L10 34L10 35L12 35L12 32L13 32L13 30L14 30L14 33L13 33L13 34L14 34L14 35L16 35L16 34L21 34L21 35L18 35L18 36L17 36L17 37L18 37L18 38L19 38L19 39L20 39L20 42L21 42L21 43L20 43L20 44L19 44L19 45L21 45L21 43L22 43L22 40L21 40L21 37L20 37L20 36L22 36L22 38L23 38L23 36L24 36L24 35L25 35L25 36L27 36L27 35L28 35L28 34L30 34L30 33L32 33L32 34L33 34L33 36L34 36L34 37L33 37L33 38L32 38L32 39L35 39L35 40L34 40L34 41L33 41L33 42L31 42L31 43L30 43L30 41L29 41L29 38L30 38L30 40L31 40L31 38L30 38L30 37L31 37L31 35L29 35L29 36L28 36L28 37L24 37L24 38L25 38L25 39L26 39L26 40L27 40L27 43L28 43L28 44L27 44L27 46L26 46L26 45L25 45L25 47L26 47L26 48L28 48L28 47L29 47L29 48L30 48L30 47L35 47L35 46L36 46L36 47L37 47L37 46L36 46L36 43L37 43L37 45L38 45L38 43L39 43L39 42L40 42L40 39L41 39L41 40L42 40L42 39L43 39L43 40L46 40L46 39L47 39L47 37L48 37L48 36L47 36L47 37L45 37L45 35L44 35L44 34L43 34L43 33L45 33L45 31L44 31L44 29L45 29L45 30L46 30L46 31L47 31L47 29L48 29L48 28L47 28L47 29L45 29L45 27L43 27L43 28L44 28L44 29L42 29L42 27L41 27L41 29L40 29L40 24L39 24L39 23L40 23L40 22L42 22L42 21L43 21L43 19L44 19L44 17L43 17L43 18L42 18L42 20L41 20L41 21L39 21L39 23L38 23L38 24L39 24L39 27L37 27L37 25L36 25L36 23L35 23L35 22L36 22L36 19L35 19L35 21L34 21L34 19L32 19L32 18L33 18L33 17L32 17L32 16L31 16L31 14L30 14L30 16L31 16L31 17L28 17L28 16L27 16L27 17L25 17L25 16L23 16L23 15L25 15L25 14L26 14L26 15L28 15L28 14L29 14L29 13L27 13L27 11L25 11L25 10L26 10L26 9L25 9L25 10L24 10L24 9L23 9L23 10L24 10L24 11L22 11L22 12L21 12L21 11L20 11L20 10L21 10L21 9L22 9L22 8L21 8L21 7L22 7L22 6L21 6L21 7L20 7L20 6L19 6L19 5L21 5L21 4ZM28 4L28 7L29 7L29 4ZM23 5L23 8L26 8L26 5ZM18 6L18 7L17 7L17 8L16 8L16 7L15 7L15 8L16 8L16 11L15 11L15 12L17 12L17 13L15 13L15 14L16 14L16 15L17 15L17 16L21 16L21 17L19 17L19 18L21 18L21 19L20 19L20 20L19 20L19 19L18 19L18 18L17 18L17 19L18 19L18 20L15 20L15 19L16 19L16 18L15 18L15 19L14 19L14 18L12 18L12 17L11 17L11 18L10 18L10 19L11 19L11 20L12 20L12 19L13 19L13 21L12 21L12 22L11 22L11 26L12 26L12 24L14 24L14 25L17 25L17 26L18 26L18 27L19 27L19 28L18 28L18 29L17 29L17 28L16 28L16 29L14 29L14 30L16 30L16 29L17 29L17 30L18 30L18 31L17 31L17 32L16 32L16 33L17 33L17 32L19 32L19 33L20 33L20 32L21 32L21 34L24 34L24 33L26 33L26 34L25 34L25 35L26 35L26 34L28 34L28 33L30 33L30 31L29 31L29 29L30 29L30 30L31 30L31 31L32 31L32 29L34 29L34 27L31 27L31 26L30 26L30 25L32 25L32 26L33 26L33 24L35 24L35 23L33 23L33 24L32 24L32 22L30 22L30 21L31 21L31 20L32 20L32 19L31 19L31 18L32 18L32 17L31 17L31 18L29 18L29 19L30 19L30 21L29 21L29 20L27 20L27 21L29 21L29 24L30 24L30 25L28 25L28 24L27 24L27 22L26 22L26 21L25 21L25 20L24 20L24 19L22 19L22 17L23 17L23 16L21 16L21 15L22 15L22 13L24 13L24 14L25 14L25 13L26 13L26 12L25 12L25 11L24 11L24 12L22 12L22 13L21 13L21 14L18 14L18 12L19 12L19 13L20 13L20 11L17 11L17 10L20 10L20 9L21 9L21 8L19 8L19 9L18 9L18 7L19 7L19 6ZM24 6L24 7L25 7L25 6ZM33 6L33 7L34 7L34 6ZM0 9L0 14L1 14L1 9ZM36 10L36 11L37 11L37 10ZM43 10L43 11L42 11L42 12L43 12L43 11L44 11L44 10ZM24 12L24 13L25 13L25 12ZM30 12L30 13L32 13L32 12ZM47 12L47 13L48 13L48 12ZM3 13L3 15L4 15L4 14L7 14L7 13ZM43 13L43 15L44 15L44 13ZM17 14L17 15L18 15L18 14ZM46 14L46 15L45 15L45 16L46 16L46 15L47 15L47 14ZM6 16L6 17L7 17L7 16ZM47 16L47 17L45 17L45 18L46 18L46 19L47 19L47 17L48 17L48 16ZM3 17L3 18L4 18L4 17ZM24 17L24 18L25 18L25 19L27 19L27 18L28 18L28 17L27 17L27 18L25 18L25 17ZM4 20L4 22L8 22L8 21L5 21L5 20ZM21 20L21 21L20 21L20 22L19 22L19 21L18 21L18 22L17 22L17 23L16 23L16 21L13 21L13 22L12 22L12 23L13 23L13 22L14 22L14 23L16 23L16 24L17 24L17 23L18 23L18 26L19 26L19 27L20 27L20 28L19 28L19 30L20 30L20 29L21 29L21 28L22 28L22 30L21 30L21 32L22 32L22 33L24 33L24 32L25 32L25 31L28 31L28 32L27 32L27 33L28 33L28 32L29 32L29 31L28 31L28 27L29 27L29 28L30 28L30 29L31 29L31 27L29 27L29 26L27 26L27 30L26 30L26 28L25 28L25 27L23 27L23 28L22 28L22 22L24 22L24 20L23 20L23 21L22 21L22 20ZM21 21L21 22L20 22L20 23L21 23L21 22L22 22L22 21ZM44 21L44 22L45 22L45 23L47 23L47 21ZM18 22L18 23L19 23L19 22ZM5 23L5 26L8 26L8 23ZM23 23L23 26L26 26L26 23ZM30 23L30 24L31 24L31 23ZM41 23L41 26L44 26L44 23ZM6 24L6 25L7 25L7 24ZM19 24L19 26L20 26L20 27L21 27L21 24ZM24 24L24 25L25 25L25 24ZM42 24L42 25L43 25L43 24ZM1 25L1 26L3 26L3 25ZM45 25L45 26L46 26L46 25ZM35 26L35 27L36 27L36 29L35 29L35 33L36 33L36 30L37 30L37 31L39 31L39 29L38 29L38 28L37 28L37 27L36 27L36 26ZM3 27L3 28L4 28L4 30L8 30L8 27L6 27L6 28L7 28L7 29L5 29L5 28L4 28L4 27ZM9 28L9 29L10 29L10 28ZM24 28L24 30L23 30L23 31L22 31L22 32L23 32L23 31L24 31L24 30L25 30L25 28ZM11 30L11 32L9 32L9 33L10 33L10 34L11 34L11 32L12 32L12 30ZM41 30L41 31L40 31L40 32L42 32L42 33L43 33L43 32L44 32L44 31L42 31L42 30ZM33 31L33 32L34 32L34 31ZM2 32L2 33L3 33L3 34L4 34L4 33L3 33L3 32ZM37 32L37 34L36 34L36 37L35 37L35 39L36 39L36 41L37 41L37 43L38 43L38 42L39 42L39 40L38 40L38 41L37 41L37 39L39 39L39 38L41 38L41 39L42 39L42 38L45 38L45 37L43 37L43 36L44 36L44 35L42 35L42 34L41 34L41 35L40 35L40 34L39 34L39 32ZM46 33L46 35L47 35L47 33ZM6 34L6 35L7 35L7 34ZM3 35L3 36L4 36L4 35ZM34 35L34 36L35 36L35 35ZM37 35L37 37L38 37L38 35ZM39 35L39 37L41 37L41 38L42 38L42 35L41 35L41 36L40 36L40 35ZM18 36L18 37L19 37L19 38L20 38L20 37L19 37L19 36ZM27 38L27 40L28 40L28 38ZM15 39L15 40L14 40L14 41L15 41L15 42L14 42L14 43L15 43L15 45L18 45L18 43L19 43L19 40L16 40L16 39ZM23 39L23 40L24 40L24 39ZM47 40L47 41L45 41L45 42L47 42L47 41L48 41L48 40ZM16 41L16 44L17 44L17 43L18 43L18 41ZM23 41L23 44L26 44L26 41ZM28 41L28 43L29 43L29 41ZM41 41L41 44L44 44L44 41ZM24 42L24 43L25 43L25 42ZM34 42L34 43L31 43L31 45L30 45L30 44L28 44L28 45L30 45L30 46L32 46L32 45L33 45L33 44L35 44L35 43L36 43L36 42ZM42 42L42 43L43 43L43 42ZM13 44L13 45L14 45L14 44ZM39 44L39 47L40 47L40 48L41 48L41 46L42 46L42 45L40 45L40 44ZM13 46L13 47L15 47L15 46ZM23 48L23 49L24 49L24 48ZM0 0L0 7L7 7L7 0ZM1 1L1 6L6 6L6 1ZM2 2L2 5L5 5L5 2ZM42 0L42 7L49 7L49 0ZM43 1L43 6L48 6L48 1ZM44 2L44 5L47 5L47 2ZM0 42L0 49L7 49L7 42ZM1 43L1 48L6 48L6 43ZM2 44L2 47L5 47L5 44Z" fill="#000000"/></g></g></svg>
