<?xml version="1.0" encoding="UTF-8"?>
<svg xmlns="http://www.w3.org/2000/svg" version="1.1" width="200" height="200" viewBox="0 0 200 200"><rect x="0" y="0" width="200" height="200" fill="#ffffff"/><g transform="scale(3.774)"><g transform="translate(2,2)"><path fill-rule="evenodd" d="M11 0L11 1L12 1L12 0ZM13 0L13 2L14 2L14 0ZM16 0L16 3L15 3L15 4L14 4L14 3L13 3L13 4L12 4L12 2L10 2L10 3L11 3L11 4L8 4L8 5L9 5L9 6L8 6L8 8L6 8L6 9L8 9L8 10L9 10L9 11L8 11L8 12L5 12L5 10L3 10L3 9L4 9L4 8L2 8L2 10L0 10L0 13L1 13L1 11L4 11L4 12L5 12L5 14L4 14L4 13L3 13L3 12L2 12L2 13L3 13L3 14L2 14L2 15L3 15L3 14L4 14L4 15L5 15L5 14L6 14L6 15L7 15L7 16L5 16L5 18L4 18L4 19L3 19L3 18L2 18L2 17L4 17L4 16L1 16L1 14L0 14L0 16L1 16L1 17L0 17L0 20L4 20L4 21L5 21L5 22L4 22L4 24L3 24L3 25L2 25L2 26L1 26L1 27L0 27L0 29L1 29L1 30L2 30L2 26L4 26L4 27L5 27L5 28L6 28L6 29L5 29L5 30L6 30L6 31L5 31L5 32L4 32L4 31L2 31L2 32L1 32L1 31L0 31L0 33L1 33L1 34L0 34L0 35L1 35L1 36L0 36L0 37L2 37L2 38L1 38L1 40L0 40L0 41L3 41L3 40L4 40L4 39L2 39L2 38L5 38L5 39L7 39L7 40L6 40L6 41L8 41L8 43L9 43L9 45L8 45L8 47L9 47L9 49L10 49L10 48L11 48L11 49L14 49L14 47L15 47L15 49L16 49L16 47L15 47L15 46L14 46L14 47L13 47L13 45L11 45L11 44L14 44L14 43L15 43L15 44L16 44L16 43L15 43L15 42L16 42L16 40L15 40L15 39L13 39L13 38L12 38L12 36L14 36L14 37L17 37L17 35L18 35L18 34L19 34L19 33L16 33L16 32L11 32L11 30L12 30L12 31L13 31L13 30L12 30L12 29L14 29L14 31L19 31L19 32L20 32L20 33L21 33L21 31L22 31L22 32L23 32L23 33L28 33L28 38L25 38L25 37L26 37L26 36L27 36L27 34L26 34L26 35L25 35L25 34L24 34L24 36L25 36L25 37L24 37L24 38L23 38L23 34L22 34L22 38L19 38L19 37L20 37L20 35L19 35L19 37L18 37L18 40L17 40L17 42L18 42L18 41L20 41L20 40L21 40L21 43L20 43L20 42L19 42L19 43L17 43L17 45L16 45L16 46L17 46L17 47L19 47L19 49L21 49L21 48L20 48L20 47L19 47L19 46L20 46L20 45L21 45L21 47L22 47L22 49L24 49L24 48L26 48L26 49L27 49L27 48L26 48L26 46L25 46L25 47L24 47L24 46L22 46L22 45L27 45L27 44L28 44L28 46L27 46L27 47L28 47L28 46L29 46L29 44L30 44L30 45L32 45L32 43L33 43L33 42L32 42L32 43L27 43L27 41L28 41L28 40L26 40L26 39L28 39L28 38L31 38L31 36L34 36L34 37L35 37L35 38L37 38L37 36L38 36L38 34L36 34L36 37L35 37L35 34L34 34L34 33L39 33L39 32L40 32L40 33L41 33L41 32L44 32L44 33L46 33L46 32L44 32L44 31L46 31L46 30L48 30L48 31L49 31L49 29L48 29L48 26L49 26L49 25L48 25L48 26L46 26L46 27L45 27L45 21L46 21L46 20L45 20L45 21L44 21L44 19L43 19L43 18L44 18L44 17L45 17L45 15L44 15L44 14L42 14L42 13L43 13L43 12L42 12L42 13L41 13L41 12L40 12L40 13L41 13L41 14L40 14L40 15L39 15L39 13L38 13L38 15L37 15L37 12L39 12L39 11L40 11L40 8L39 8L39 5L38 5L38 4L37 4L37 3L38 3L38 2L39 2L39 4L40 4L40 3L41 3L41 0L40 0L40 1L38 1L38 0L36 0L36 1L34 1L34 0L28 0L28 2L29 2L29 5L30 5L30 7L31 7L31 5L30 5L30 3L31 3L31 4L32 4L32 9L30 9L30 8L29 8L29 6L28 6L28 5L27 5L27 4L28 4L28 3L27 3L27 2L26 2L26 0L24 0L24 1L23 1L23 0L20 0L20 2L22 2L22 1L23 1L23 2L24 2L24 1L25 1L25 2L26 2L26 4L22 4L22 3L19 3L19 4L18 4L18 1L19 1L19 0L18 0L18 1L17 1L17 0ZM31 1L31 2L32 2L32 3L33 3L33 5L34 5L34 6L33 6L33 9L34 9L34 10L35 10L35 9L37 9L37 10L36 10L36 11L37 11L37 10L38 10L38 11L39 11L39 8L38 8L38 5L36 5L36 6L35 6L35 4L36 4L36 3L35 3L35 2L33 2L33 1ZM36 1L36 2L38 2L38 1ZM16 3L16 4L17 4L17 3ZM13 4L13 7L14 7L14 6L15 6L15 7L16 7L16 8L15 8L15 9L13 9L13 8L12 8L12 5L10 5L10 6L9 6L9 8L10 8L10 9L9 9L9 10L10 10L10 9L12 9L12 10L11 10L11 13L12 13L12 14L10 14L10 13L9 13L9 15L8 15L8 16L10 16L10 18L9 18L9 19L10 19L10 18L11 18L11 19L15 19L15 20L14 20L14 22L13 22L13 23L12 23L12 24L11 24L11 23L10 23L10 24L11 24L11 25L10 25L10 26L11 26L11 27L13 27L13 28L14 28L14 29L15 29L15 30L16 30L16 29L19 29L19 30L20 30L20 29L21 29L21 30L22 30L22 31L23 31L23 32L24 32L24 31L26 31L26 28L25 28L25 27L21 27L21 26L20 26L20 24L21 24L21 25L22 25L22 24L21 24L21 23L22 23L22 22L20 22L20 21L23 21L23 22L24 22L24 20L25 20L25 19L26 19L26 20L27 20L27 21L25 21L25 22L27 22L27 24L28 24L28 21L29 21L29 23L30 23L30 24L29 24L29 25L30 25L30 27L29 27L29 28L28 28L28 26L27 26L27 28L28 28L28 29L29 29L29 30L27 30L27 32L29 32L29 30L30 30L30 28L31 28L31 25L33 25L33 26L32 26L32 27L33 27L33 26L34 26L34 28L33 28L33 33L34 33L34 32L35 32L35 31L36 31L36 32L38 32L38 31L36 31L36 30L37 30L37 29L38 29L38 30L39 30L39 29L41 29L41 31L40 31L40 32L41 32L41 31L42 31L42 29L43 29L43 31L44 31L44 28L45 28L45 27L42 27L42 29L41 29L41 27L38 27L38 25L37 25L37 26L35 26L35 25L36 25L36 24L35 24L35 25L33 25L33 24L34 24L34 23L32 23L32 22L33 22L33 21L34 21L34 22L36 22L36 23L37 23L37 24L39 24L39 26L40 26L40 22L42 22L42 20L43 20L43 19L42 19L42 20L41 20L41 18L43 18L43 17L44 17L44 16L42 16L42 15L41 15L41 16L40 16L40 17L39 17L39 16L37 16L37 15L36 15L36 17L34 17L34 15L35 15L35 13L36 13L36 12L35 12L35 11L33 11L33 12L32 12L32 13L30 13L30 14L31 14L31 15L28 15L28 14L29 14L29 13L28 13L28 12L29 12L29 11L26 11L26 10L24 10L24 9L21 9L21 8L20 8L20 9L19 9L19 7L20 7L20 6L21 6L21 7L22 7L22 4L20 4L20 6L19 6L19 5L17 5L17 7L16 7L16 6L15 6L15 5L14 5L14 4ZM23 5L23 8L26 8L26 5ZM10 6L10 8L11 8L11 6ZM18 6L18 7L17 7L17 8L16 8L16 9L17 9L17 11L16 11L16 12L15 12L15 13L14 13L14 11L13 11L13 12L12 12L12 13L13 13L13 15L14 15L14 16L15 16L15 17L17 17L17 14L16 14L16 12L17 12L17 13L18 13L18 14L20 14L20 12L19 12L19 11L20 11L20 10L21 10L21 9L20 9L20 10L18 10L18 9L17 9L17 8L18 8L18 7L19 7L19 6ZM24 6L24 7L25 7L25 6ZM27 6L27 10L28 10L28 6ZM34 6L34 9L35 9L35 6ZM36 6L36 7L37 7L37 6ZM40 6L40 7L41 7L41 6ZM37 8L37 9L38 9L38 8ZM41 8L41 9L42 9L42 11L43 11L43 8ZM44 8L44 9L45 9L45 8ZM29 9L29 10L30 10L30 9ZM47 9L47 10L46 10L46 13L45 13L45 14L46 14L46 13L47 13L47 11L48 11L48 14L49 14L49 11L48 11L48 9ZM6 10L6 11L7 11L7 10ZM44 10L44 12L45 12L45 10ZM17 11L17 12L18 12L18 11ZM22 11L22 12L21 12L21 13L23 13L23 14L24 14L24 15L26 15L26 16L24 16L24 17L25 17L25 18L23 18L23 19L22 19L22 17L23 17L23 15L19 15L19 16L21 16L21 19L19 19L19 18L20 18L20 17L19 17L19 18L16 18L16 19L17 19L17 20L16 20L16 21L15 21L15 23L13 23L13 24L12 24L12 25L13 25L13 27L14 27L14 28L15 28L15 29L16 29L16 27L15 27L15 26L16 26L16 25L15 25L15 26L14 26L14 24L17 24L17 26L19 26L19 25L18 25L18 24L20 24L20 23L16 23L16 21L17 21L17 22L19 22L19 21L17 21L17 20L18 20L18 19L19 19L19 20L23 20L23 19L25 19L25 18L27 18L27 17L28 17L28 20L29 20L29 21L30 21L30 23L31 23L31 20L32 20L32 21L33 21L33 20L34 20L34 17L32 17L32 18L31 18L31 20L29 20L29 19L30 19L30 17L31 17L31 16L32 16L32 15L34 15L34 14L32 14L32 15L31 15L31 16L30 16L30 17L29 17L29 16L27 16L27 15L26 15L26 11L24 11L24 13L23 13L23 11ZM6 13L6 14L7 14L7 13ZM15 15L15 16L16 16L16 15ZM48 15L48 16L46 16L46 18L45 18L45 19L47 19L47 18L48 18L48 19L49 19L49 15ZM11 16L11 17L12 17L12 16ZM6 17L6 18L8 18L8 17ZM13 17L13 18L14 18L14 17ZM38 17L38 18L39 18L39 17ZM40 17L40 18L41 18L41 17ZM36 18L36 20L37 20L37 21L36 21L36 22L37 22L37 23L38 23L38 22L37 22L37 21L38 21L38 20L39 20L39 22L40 22L40 20L39 20L39 19L38 19L38 20L37 20L37 18ZM5 19L5 21L6 21L6 22L9 22L9 21L10 21L10 22L12 22L12 21L13 21L13 20L11 20L11 21L10 21L10 20L8 20L8 21L6 21L6 20L7 20L7 19ZM1 21L1 24L0 24L0 25L1 25L1 24L2 24L2 21ZM43 21L43 22L44 22L44 21ZM47 21L47 23L46 23L46 25L47 25L47 23L48 23L48 21ZM5 23L5 26L8 26L8 23ZM23 23L23 26L26 26L26 23ZM41 23L41 26L44 26L44 23ZM6 24L6 25L7 25L7 24ZM24 24L24 25L25 25L25 24ZM30 24L30 25L31 25L31 24ZM42 24L42 25L43 25L43 24ZM6 27L6 28L7 28L7 29L6 29L6 30L7 30L7 31L6 31L6 32L5 32L5 36L3 36L3 37L6 37L6 38L7 38L7 39L8 39L8 38L7 38L7 37L9 37L9 39L11 39L11 40L12 40L12 41L11 41L11 42L10 42L10 41L9 41L9 43L10 43L10 44L11 44L11 43L12 43L12 41L13 41L13 40L12 40L12 38L11 38L11 37L10 37L10 36L7 36L7 35L8 35L8 34L9 34L9 35L10 35L10 34L11 34L11 35L14 35L14 34L12 34L12 33L11 33L11 32L10 32L10 33L9 33L9 32L7 32L7 31L8 31L8 30L7 30L7 29L8 29L8 28L9 28L9 27ZM17 27L17 28L19 28L19 29L20 29L20 28L19 28L19 27ZM35 27L35 28L34 28L34 31L35 31L35 30L36 30L36 27ZM46 27L46 28L47 28L47 27ZM21 28L21 29L22 29L22 28ZM23 28L23 29L24 29L24 30L25 30L25 29L24 29L24 28ZM38 28L38 29L39 29L39 28ZM9 29L9 30L11 30L11 29ZM45 29L45 30L46 30L46 29ZM30 31L30 33L29 33L29 34L32 34L32 35L33 35L33 34L32 34L32 31ZM3 32L3 33L2 33L2 34L1 34L1 35L2 35L2 34L3 34L3 35L4 35L4 32ZM6 32L6 33L7 33L7 34L6 34L6 35L7 35L7 34L8 34L8 33L7 33L7 32ZM42 33L42 34L40 34L40 35L39 35L39 37L38 37L38 39L40 39L40 38L41 38L41 37L40 37L40 36L43 36L43 37L44 37L44 38L43 38L43 39L44 39L44 40L42 40L42 39L41 39L41 40L40 40L40 42L39 42L39 43L40 43L40 45L39 45L39 47L41 47L41 46L40 46L40 45L42 45L42 46L44 46L44 47L45 47L45 46L47 46L47 45L46 45L46 44L45 44L45 43L46 43L46 42L48 42L48 43L47 43L47 44L48 44L48 43L49 43L49 41L48 41L48 40L49 40L49 39L48 39L48 40L47 40L47 41L46 41L46 42L45 42L45 40L46 40L46 37L47 37L47 35L48 35L48 38L49 38L49 35L48 35L48 33L47 33L47 34L46 34L46 37L45 37L45 36L44 36L44 35L45 35L45 34L44 34L44 35L42 35L42 34L43 34L43 33ZM15 34L15 36L16 36L16 35L17 35L17 34ZM29 35L29 37L30 37L30 36L31 36L31 35ZM6 36L6 37L7 37L7 36ZM32 37L32 38L33 38L33 39L29 39L29 40L32 40L32 41L34 41L34 42L35 42L35 41L36 41L36 44L37 44L37 43L38 43L38 41L39 41L39 40L37 40L37 41L36 41L36 39L35 39L35 41L34 41L34 38L33 38L33 37ZM22 38L22 39L23 39L23 38ZM44 38L44 39L45 39L45 38ZM24 39L24 40L25 40L25 39ZM14 40L14 41L15 41L15 40ZM23 41L23 44L26 44L26 41ZM29 41L29 42L30 42L30 41ZM41 41L41 44L44 44L44 41ZM24 42L24 43L25 43L25 42ZM42 42L42 43L43 43L43 42ZM19 43L19 45L18 45L18 46L19 46L19 45L20 45L20 43ZM21 44L21 45L22 45L22 44ZM34 44L34 45L33 45L33 46L32 46L32 48L33 48L33 49L35 49L35 48L36 48L36 49L37 49L37 47L38 47L38 46L37 46L37 45L36 45L36 46L34 46L34 45L35 45L35 44ZM48 45L48 46L49 46L49 45ZM10 46L10 47L11 47L11 48L13 48L13 47L11 47L11 46ZM23 47L23 48L24 48L24 47ZM29 47L29 48L31 48L31 47ZM33 47L33 48L34 48L34 47ZM46 47L46 49L49 49L49 48L47 48L47 47ZM40 48L40 49L42 49L42 48ZM44 48L44 49L45 49L45 48ZM0 0L0 7L7 7L7 0ZM1 1L1 6L6 6L6 1ZM2 2L2 5L5 5L5 2ZM42 0L42 7L49 7L49 0ZM43 1L43 6L48 6L48 1ZM44 2L44 5L47 5L47 2ZM0 42L0 49L7 49L7 42ZM1 43L1 48L6 48L6 43ZM2 44L2 47L5 47L5 44Z" fill="#000000"/></g></g></svg>
