<?xml version="1.0" encoding="UTF-8"?>
<svg xmlns="http://www.w3.org/2000/svg" version="1.1" width="200" height="200" viewBox="0 0 200 200"><rect x="0" y="0" width="200" height="200" fill="#ffffff"/><g transform="scale(3.774)"><g transform="translate(2,2)"><path fill-rule="evenodd" d="M8 0L8 3L9 3L9 2L10 2L10 3L11 3L11 6L10 6L10 4L9 4L9 5L8 5L8 9L7 9L7 8L6 8L6 9L7 9L7 10L6 10L6 11L4 11L4 10L3 10L3 12L0 12L0 13L3 13L3 14L2 14L2 15L3 15L3 16L2 16L2 17L3 17L3 18L1 18L1 19L3 19L3 21L4 21L4 19L7 19L7 18L5 18L5 17L3 17L3 16L5 16L5 15L9 15L9 16L6 16L6 17L8 17L8 18L9 18L9 19L11 19L11 18L9 18L9 16L10 16L10 17L11 17L11 16L10 16L10 14L11 14L11 15L12 15L12 14L11 14L11 13L13 13L13 15L14 15L14 14L15 14L15 15L16 15L16 14L17 14L17 15L18 15L18 14L19 14L19 15L21 15L21 17L20 17L20 19L21 19L21 21L20 21L20 23L21 23L21 21L23 21L23 20L22 20L22 19L24 19L24 22L22 22L22 24L21 24L21 26L20 26L20 27L18 27L18 24L19 24L19 23L18 23L18 22L19 22L19 21L18 21L18 20L19 20L19 18L17 18L17 19L16 19L16 16L15 16L15 17L13 17L13 16L12 16L12 17L13 17L13 19L14 19L14 18L15 18L15 20L14 20L14 21L12 21L12 23L13 23L13 27L12 27L12 24L11 24L11 22L10 22L10 21L11 21L11 20L10 20L10 21L9 21L9 22L8 22L8 21L7 21L7 20L5 20L5 21L7 21L7 22L4 22L4 23L2 23L2 24L3 24L3 25L1 25L1 24L0 24L0 27L1 27L1 28L0 28L0 30L1 30L1 31L2 31L2 32L0 32L0 33L1 33L1 34L2 34L2 35L0 35L0 38L1 38L1 40L0 40L0 41L3 41L3 40L4 40L4 39L2 39L2 38L1 38L1 36L3 36L3 37L4 37L4 38L5 38L5 39L7 39L7 40L6 40L6 41L7 41L7 40L8 40L8 39L7 39L7 38L5 38L5 37L7 37L7 36L8 36L8 35L12 35L12 34L13 34L13 36L11 36L11 37L10 37L10 36L9 36L9 37L10 37L10 38L12 38L12 39L11 39L11 40L10 40L10 41L11 41L11 42L10 42L10 43L9 43L9 44L8 44L8 47L10 47L10 48L9 48L9 49L10 49L10 48L11 48L11 47L12 47L12 48L13 48L13 49L16 49L16 48L17 48L17 49L19 49L19 48L20 48L20 49L21 49L21 47L22 47L22 48L23 48L23 49L24 49L24 48L25 48L25 47L26 47L26 49L31 49L31 48L33 48L33 49L35 49L35 48L36 48L36 49L38 49L38 48L36 48L36 47L39 47L39 48L40 48L40 49L42 49L42 48L43 48L43 46L45 46L45 48L46 48L46 49L49 49L49 42L48 42L48 41L49 41L49 40L48 40L48 41L47 41L47 40L46 40L46 41L45 41L45 40L42 40L42 39L43 39L43 37L45 37L45 38L46 38L46 39L47 39L47 38L48 38L48 39L49 39L49 38L48 38L48 37L49 37L49 34L48 34L48 33L47 33L47 32L49 32L49 30L48 30L48 29L49 29L49 26L48 26L48 27L47 27L47 28L46 28L46 26L47 26L47 24L46 24L46 22L45 22L45 21L44 21L44 22L43 22L43 21L42 21L42 22L40 22L40 21L41 21L41 20L40 20L40 19L39 19L39 20L40 20L40 21L39 21L39 22L37 22L37 20L36 20L36 19L37 19L37 18L40 18L40 17L39 17L39 16L41 16L41 17L42 17L42 20L46 20L46 21L47 21L47 22L48 22L48 23L49 23L49 22L48 22L48 21L49 21L49 18L48 18L48 17L49 17L49 14L48 14L48 13L49 13L49 12L48 12L48 13L47 13L47 12L46 12L46 11L45 11L45 10L46 10L46 9L47 9L47 10L48 10L48 11L49 11L49 10L48 10L48 9L49 9L49 8L46 8L46 9L45 9L45 10L44 10L44 11L42 11L42 10L43 10L43 9L44 9L44 8L40 8L40 7L41 7L41 6L40 6L40 7L39 7L39 5L38 5L38 4L37 4L37 3L36 3L36 2L37 2L37 1L38 1L38 2L39 2L39 4L40 4L40 3L41 3L41 0L40 0L40 1L38 1L38 0L37 0L37 1L36 1L36 2L35 2L35 1L34 1L34 0L29 0L29 1L28 1L28 0L26 0L26 2L28 2L28 4L27 4L27 3L26 3L26 4L22 4L22 3L20 3L20 1L21 1L21 0L19 0L19 1L18 1L18 2L17 2L17 0L15 0L15 1L16 1L16 4L14 4L14 5L13 5L13 3L15 3L15 2L13 2L13 3L12 3L12 2L11 2L11 1L13 1L13 0L11 0L11 1L9 1L9 0ZM22 0L22 2L23 2L23 0ZM24 0L24 2L25 2L25 0ZM32 1L32 3L31 3L31 2L29 2L29 4L28 4L28 5L27 5L27 8L28 8L28 9L26 9L26 10L29 10L29 11L28 11L28 12L27 12L27 13L28 13L28 14L27 14L27 15L28 15L28 16L25 16L25 15L24 15L24 16L23 16L23 14L24 14L24 13L25 13L25 14L26 14L26 13L25 13L25 12L26 12L26 11L24 11L24 9L23 9L23 10L22 10L22 9L21 9L21 8L20 8L20 6L19 6L19 7L18 7L18 5L19 5L19 3L18 3L18 5L17 5L17 4L16 4L16 5L14 5L14 6L13 6L13 7L12 7L12 6L11 6L11 8L10 8L10 9L11 9L11 8L13 8L13 10L11 10L11 11L13 11L13 12L15 12L15 11L16 11L16 12L17 12L17 14L18 14L18 13L19 13L19 14L22 14L22 17L21 17L21 18L25 18L25 17L28 17L28 16L30 16L30 14L29 14L29 13L28 13L28 12L30 12L30 13L31 13L31 14L32 14L32 13L33 13L33 12L34 12L34 10L35 10L35 13L34 13L34 14L33 14L33 16L32 16L32 15L31 15L31 17L29 17L29 18L27 18L27 19L25 19L25 20L27 20L27 21L28 21L28 22L27 22L27 25L28 25L28 26L27 26L27 28L25 28L25 29L24 29L24 28L23 28L23 27L22 27L22 26L21 26L21 27L20 27L20 29L21 29L21 27L22 27L22 28L23 28L23 30L21 30L21 31L23 31L23 30L24 30L24 32L23 32L23 35L19 35L19 33L20 33L20 32L19 32L19 31L17 31L17 32L19 32L19 33L16 33L16 34L15 34L15 35L16 35L16 36L19 36L19 37L17 37L17 38L18 38L18 39L17 39L17 41L16 41L16 40L15 40L15 41L14 41L14 40L13 40L13 39L14 39L14 38L15 38L15 39L16 39L16 38L15 38L15 37L14 37L14 36L13 36L13 37L14 37L14 38L13 38L13 39L12 39L12 40L11 40L11 41L12 41L12 40L13 40L13 42L11 42L11 43L10 43L10 44L11 44L11 46L12 46L12 47L15 47L15 46L16 46L16 45L17 45L17 44L16 44L16 45L15 45L15 44L14 44L14 43L15 43L15 42L16 42L16 43L18 43L18 42L21 42L21 40L20 40L20 41L19 41L19 39L20 39L20 38L22 38L22 40L23 40L23 39L24 39L24 40L25 40L25 39L26 39L26 40L27 40L27 43L29 43L29 44L30 44L30 45L28 45L28 46L27 46L27 45L26 45L26 47L27 47L27 48L29 48L29 47L30 47L30 48L31 48L31 47L34 47L34 48L35 48L35 47L36 47L36 44L38 44L38 45L37 45L37 46L39 46L39 47L40 47L40 46L41 46L41 48L42 48L42 45L40 45L40 46L39 46L39 44L38 44L38 43L39 43L39 40L41 40L41 39L42 39L42 36L43 36L43 35L44 35L44 36L45 36L45 37L46 37L46 38L47 38L47 37L48 37L48 34L47 34L47 33L46 33L46 32L47 32L47 31L48 31L48 30L47 30L47 29L46 29L46 28L45 28L45 27L42 27L42 28L41 28L41 27L40 27L40 26L39 26L39 25L38 25L38 24L39 24L39 23L40 23L40 22L39 22L39 23L38 23L38 24L37 24L37 22L36 22L36 20L35 20L35 19L36 19L36 18L37 18L37 17L38 17L38 16L37 16L37 15L36 15L36 14L39 14L39 13L40 13L40 15L41 15L41 14L42 14L42 15L44 15L44 14L46 14L46 12L43 12L43 13L44 13L44 14L42 14L42 11L41 11L41 10L42 10L42 9L40 9L40 8L39 8L39 7L38 7L38 6L37 6L37 10L39 10L39 9L40 9L40 11L41 11L41 13L40 13L40 12L39 12L39 11L38 11L38 12L37 12L37 11L36 11L36 10L35 10L35 9L36 9L36 8L35 8L35 7L36 7L36 6L35 6L35 7L34 7L34 5L37 5L37 4L36 4L36 3L35 3L35 2L34 2L34 1ZM33 2L33 3L32 3L32 4L30 4L30 5L32 5L32 7L31 7L31 6L30 6L30 7L29 7L29 6L28 6L28 8L30 8L30 10L31 10L31 13L32 13L32 12L33 12L33 11L32 11L32 10L31 10L31 8L32 8L32 9L33 9L33 10L34 10L34 7L33 7L33 5L34 5L34 2ZM20 4L20 5L22 5L22 4ZM23 5L23 8L26 8L26 5ZM9 6L9 7L10 7L10 6ZM14 6L14 7L13 7L13 8L15 8L15 9L14 9L14 10L17 10L17 12L18 12L18 10L17 10L17 8L16 8L16 7L17 7L17 6L16 6L16 7L15 7L15 6ZM21 6L21 7L22 7L22 6ZM24 6L24 7L25 7L25 6ZM30 7L30 8L31 8L31 7ZM32 7L32 8L33 8L33 7ZM2 8L2 9L1 9L1 10L2 10L2 9L5 9L5 8ZM38 8L38 9L39 9L39 8ZM8 9L8 11L6 11L6 12L7 12L7 13L4 13L4 12L3 12L3 13L4 13L4 14L3 14L3 15L5 15L5 14L8 14L8 13L9 13L9 14L10 14L10 12L8 12L8 11L9 11L9 9ZM20 9L20 11L19 11L19 13L24 13L24 11L22 11L22 10L21 10L21 9ZM20 11L20 12L21 12L21 11ZM36 12L36 13L37 13L37 12ZM0 14L0 15L1 15L1 14ZM34 14L34 16L33 16L33 17L34 17L34 18L33 18L33 19L34 19L34 18L35 18L35 16L36 16L36 17L37 17L37 16L36 16L36 15L35 15L35 14ZM47 14L47 15L45 15L45 16L42 16L42 17L44 17L44 19L45 19L45 17L46 17L46 18L47 18L47 19L46 19L46 20L47 20L47 21L48 21L48 20L47 20L47 19L48 19L48 18L47 18L47 17L48 17L48 14ZM46 16L46 17L47 17L47 16ZM31 17L31 19L30 19L30 20L29 20L29 19L28 19L28 21L31 21L31 24L30 24L30 26L28 26L28 29L27 29L27 30L28 30L28 29L30 29L30 30L29 30L29 31L26 31L26 30L25 30L25 31L26 31L26 32L25 32L25 33L24 33L24 35L23 35L23 38L24 38L24 37L25 37L25 38L27 38L27 39L28 39L28 41L30 41L30 42L29 42L29 43L30 43L30 44L33 44L33 45L32 45L32 46L34 46L34 47L35 47L35 46L34 46L34 43L30 43L30 42L31 42L31 40L34 40L34 39L35 39L35 40L36 40L36 41L38 41L38 40L36 40L36 39L39 39L39 38L37 38L37 36L38 36L38 37L40 37L40 39L41 39L41 37L40 37L40 36L38 36L38 35L41 35L41 36L42 36L42 35L43 35L43 34L42 34L42 35L41 35L41 34L40 34L40 32L39 32L39 34L37 34L37 36L36 36L36 34L34 34L34 32L35 32L35 33L36 33L36 32L37 32L37 31L39 31L39 30L40 30L40 31L41 31L41 30L40 30L40 29L41 29L41 28L38 28L38 29L39 29L39 30L37 30L37 28L36 28L36 27L39 27L39 26L37 26L37 24L36 24L36 23L35 23L35 22L34 22L34 21L35 21L35 20L32 20L32 17ZM0 20L0 23L1 23L1 20ZM15 20L15 21L14 21L14 23L17 23L17 24L18 24L18 23L17 23L17 22L18 22L18 21L17 21L17 22L15 22L15 21L16 21L16 20ZM25 21L25 22L26 22L26 21ZM9 22L9 23L10 23L10 22ZM28 22L28 24L29 24L29 23L30 23L30 22ZM32 22L32 24L31 24L31 25L32 25L32 26L30 26L30 27L34 27L34 26L35 26L35 25L36 25L36 24L35 24L35 23L34 23L34 22ZM5 23L5 26L8 26L8 23ZM23 23L23 26L26 26L26 23ZM33 23L33 26L34 26L34 23ZM41 23L41 26L44 26L44 23ZM6 24L6 25L7 25L7 24ZM10 24L10 25L9 25L9 26L11 26L11 24ZM14 24L14 25L16 25L16 26L14 26L14 27L15 27L15 29L14 29L14 28L11 28L11 27L10 27L10 28L11 28L11 30L10 30L10 29L9 29L9 28L8 28L8 27L3 27L3 28L2 28L2 29L1 29L1 30L2 30L2 31L3 31L3 29L4 29L4 28L5 28L5 30L8 30L8 31L5 31L5 32L3 32L3 33L2 33L2 34L3 34L3 33L4 33L4 34L5 34L5 32L8 32L8 33L6 33L6 34L7 34L7 35L5 35L5 36L7 36L7 35L8 35L8 33L9 33L9 32L10 32L10 31L11 31L11 34L12 34L12 32L13 32L13 31L14 31L14 30L16 30L16 29L18 29L18 28L16 28L16 26L17 26L17 25L16 25L16 24ZM24 24L24 25L25 25L25 24ZM42 24L42 25L43 25L43 24ZM45 24L45 25L46 25L46 24ZM3 25L3 26L4 26L4 25ZM6 28L6 29L8 29L8 28ZM30 28L30 29L32 29L32 30L31 30L31 32L29 32L29 33L27 33L27 32L26 32L26 33L25 33L25 35L24 35L24 36L25 36L25 37L28 37L28 38L29 38L29 40L30 40L30 37L31 37L31 38L32 38L32 39L34 39L34 38L35 38L35 37L36 37L36 36L34 36L34 38L32 38L32 37L33 37L33 36L29 36L29 35L30 35L30 33L31 33L31 34L32 34L32 33L31 33L31 32L33 32L33 31L34 31L34 30L35 30L35 32L36 32L36 30L35 30L35 29L36 29L36 28ZM42 28L42 29L43 29L43 30L42 30L42 31L43 31L43 32L42 32L42 33L45 33L45 32L46 32L46 31L47 31L47 30L46 30L46 29L45 29L45 28L44 28L44 29L43 29L43 28ZM12 29L12 30L11 30L11 31L13 31L13 30L14 30L14 29ZM33 29L33 30L34 30L34 29ZM44 29L44 30L43 30L43 31L44 31L44 32L45 32L45 31L44 31L44 30L45 30L45 29ZM9 30L9 31L10 31L10 30ZM15 31L15 32L16 32L16 31ZM21 32L21 33L22 33L22 32ZM13 33L13 34L14 34L14 33ZM26 33L26 35L25 35L25 36L26 36L26 35L27 35L27 36L28 36L28 35L27 35L27 33ZM17 34L17 35L18 35L18 34ZM33 34L33 35L34 35L34 34ZM44 34L44 35L45 35L45 36L46 36L46 37L47 37L47 36L46 36L46 35L47 35L47 34ZM3 35L3 36L4 36L4 35ZM8 41L8 42L9 42L9 41ZM17 41L17 42L18 42L18 41ZM23 41L23 44L26 44L26 41ZM33 41L33 42L34 42L34 41ZM41 41L41 44L44 44L44 41ZM46 41L46 44L45 44L45 46L48 46L48 42L47 42L47 41ZM24 42L24 43L25 43L25 42ZM36 42L36 43L35 43L35 44L36 44L36 43L38 43L38 42ZM42 42L42 43L43 43L43 42ZM12 43L12 46L13 46L13 43ZM20 43L20 44L21 44L21 45L18 45L18 46L19 46L19 47L17 47L17 48L19 48L19 47L21 47L21 45L22 45L22 44L21 44L21 43ZM46 44L46 45L47 45L47 44ZM24 46L24 47L25 47L25 46ZM28 46L28 47L29 47L29 46ZM46 47L46 48L48 48L48 47ZM0 0L0 7L7 7L7 0ZM1 1L1 6L6 6L6 1ZM2 2L2 5L5 5L5 2ZM42 0L42 7L49 7L49 0ZM43 1L43 6L48 6L48 1ZM44 2L44 5L47 5L47 2ZM0 42L0 49L7 49L7 42ZM1 43L1 48L6 48L6 43ZM2 44L2 47L5 47L5 44Z" fill="#000000"/></g></g></svg>
