<?xml version="1.0" encoding="UTF-8"?>
<svg xmlns="http://www.w3.org/2000/svg" version="1.1" width="200" height="200" viewBox="0 0 200 200"><rect x="0" y="0" width="200" height="200" fill="#ffffff"/><g transform="scale(3.774)"><g transform="translate(2,2)"><path fill-rule="evenodd" d="M8 0L8 1L9 1L9 0ZM10 0L10 1L11 1L11 3L10 3L10 2L8 2L8 3L9 3L9 4L8 4L8 5L9 5L9 6L8 6L8 8L9 8L9 10L8 10L8 11L7 11L7 10L5 10L5 9L7 9L7 8L5 8L5 9L0 9L0 10L1 10L1 12L0 12L0 14L1 14L1 15L0 15L0 17L2 17L2 16L5 16L5 15L7 15L7 14L8 14L8 16L6 16L6 17L4 17L4 18L6 18L6 19L3 19L3 21L2 21L2 20L1 20L1 19L2 19L2 18L0 18L0 21L2 21L2 22L0 22L0 28L1 28L1 29L0 29L0 30L1 30L1 31L0 31L0 32L1 32L1 33L2 33L2 35L3 35L3 33L4 33L4 32L5 32L5 30L6 30L6 31L7 31L7 32L6 32L6 33L7 33L7 34L4 34L4 35L7 35L7 36L4 36L4 37L3 37L3 38L5 38L5 39L7 39L7 40L6 40L6 41L8 41L8 42L9 42L9 43L8 43L8 44L9 44L9 43L11 43L11 42L9 42L9 41L8 41L8 39L11 39L11 38L8 38L8 37L9 37L9 36L10 36L10 35L11 35L11 36L12 36L12 35L13 35L13 34L14 34L14 33L15 33L15 31L14 31L14 30L15 30L15 28L13 28L13 26L14 26L14 27L16 27L16 29L17 29L17 31L18 31L18 33L17 33L17 32L16 32L16 33L17 33L17 34L18 34L18 36L17 36L17 38L15 38L15 37L16 37L16 36L15 36L15 35L16 35L16 34L15 34L15 35L14 35L14 36L13 36L13 37L12 37L12 38L13 38L13 39L12 39L12 40L10 40L10 41L12 41L12 43L13 43L13 44L12 44L12 45L11 45L11 44L10 44L10 45L11 45L11 46L13 46L13 44L14 44L14 45L15 45L15 48L14 48L14 49L18 49L18 48L19 48L19 47L18 47L18 48L17 48L17 47L16 47L16 45L17 45L17 44L18 44L18 46L20 46L20 47L21 47L21 46L22 46L22 47L23 47L23 45L27 45L27 46L26 46L26 47L25 47L25 46L24 46L24 47L25 47L25 49L27 49L27 46L28 46L28 44L29 44L29 45L30 45L30 46L29 46L29 47L28 47L28 49L30 49L30 47L31 47L31 49L34 49L34 48L33 48L33 47L31 47L31 44L33 44L33 45L32 45L32 46L33 46L33 45L34 45L34 47L35 47L35 49L38 49L38 48L36 48L36 47L35 47L35 45L34 45L34 44L33 44L33 43L32 43L32 41L31 41L31 40L32 40L32 39L31 39L31 38L30 38L30 39L29 39L29 37L32 37L32 38L33 38L33 37L36 37L36 39L35 39L35 38L34 38L34 40L36 40L36 41L38 41L38 40L39 40L39 41L40 41L40 42L38 42L38 44L36 44L36 43L37 43L37 42L34 42L34 43L35 43L35 44L36 44L36 46L37 46L37 47L39 47L39 45L40 45L40 48L41 48L41 47L42 47L42 48L43 48L43 49L44 49L44 47L43 47L43 46L44 46L44 45L45 45L45 47L46 47L46 46L47 46L47 47L48 47L48 49L49 49L49 42L48 42L48 41L49 41L49 38L48 38L48 37L49 37L49 36L47 36L47 38L46 38L46 37L45 37L45 38L46 38L46 40L42 40L42 39L43 39L43 37L42 37L42 35L43 35L43 33L44 33L44 34L45 34L45 35L47 35L47 34L48 34L48 35L49 35L49 34L48 34L48 33L49 33L49 30L48 30L48 29L49 29L49 28L48 28L48 27L49 27L49 26L48 26L48 24L49 24L49 22L48 22L48 21L49 21L49 18L48 18L48 17L47 17L47 14L48 14L48 16L49 16L49 14L48 14L48 13L49 13L49 12L47 12L47 14L46 14L46 13L45 13L45 11L47 11L47 10L48 10L48 11L49 11L49 10L48 10L48 9L49 9L49 8L48 8L48 9L47 9L47 8L46 8L46 9L45 9L45 8L44 8L44 10L45 10L45 11L42 11L42 10L43 10L43 8L42 8L42 10L41 10L41 8L40 8L40 10L41 10L41 11L42 11L42 12L41 12L41 13L42 13L42 14L41 14L41 15L42 15L42 16L41 16L41 17L42 17L42 20L45 20L45 19L46 19L46 18L44 18L44 17L43 17L43 16L44 16L44 15L42 15L42 14L43 14L43 13L44 13L44 14L45 14L45 17L47 17L47 20L46 20L46 21L45 21L45 22L43 22L43 21L42 21L42 22L41 22L41 20L40 20L40 22L39 22L39 21L38 21L38 22L37 22L37 20L36 20L36 19L39 19L39 16L38 16L38 15L40 15L40 14L37 14L37 16L36 16L36 14L34 14L34 15L33 15L33 11L32 11L32 9L34 9L34 11L35 11L35 12L34 12L34 13L39 13L39 12L38 12L38 11L39 11L39 9L38 9L38 10L37 10L37 6L38 6L38 7L39 7L39 5L38 5L38 4L37 4L37 3L36 3L36 2L37 2L37 0L33 0L33 1L32 1L32 2L31 2L31 4L30 4L30 2L29 2L29 1L28 1L28 3L27 3L27 0L26 0L26 1L24 1L24 0L23 0L23 1L21 1L21 3L22 3L22 4L21 4L21 5L22 5L22 7L21 7L21 6L20 6L20 2L19 2L19 1L20 1L20 0L17 0L17 1L16 1L16 2L15 2L15 0L14 0L14 1L11 1L11 0ZM30 0L30 1L31 1L31 0ZM40 0L40 1L38 1L38 2L39 2L39 4L40 4L40 3L41 3L41 0ZM17 1L17 2L16 2L16 3L15 3L15 2L14 2L14 3L15 3L15 4L13 4L13 8L14 8L14 10L13 10L13 9L12 9L12 8L11 8L11 7L12 7L12 5L10 5L10 4L9 4L9 5L10 5L10 6L9 6L9 7L10 7L10 8L11 8L11 9L12 9L12 10L13 10L13 13L14 13L14 14L13 14L13 15L12 15L12 13L11 13L11 12L12 12L12 11L10 11L10 10L9 10L9 11L10 11L10 13L9 13L9 12L7 12L7 11L3 11L3 12L2 12L2 13L1 13L1 14L2 14L2 13L4 13L4 12L5 12L5 13L6 13L6 14L7 14L7 13L8 13L8 14L10 14L10 13L11 13L11 16L8 16L8 18L7 18L7 17L6 17L6 18L7 18L7 19L6 19L6 20L4 20L4 21L3 21L3 22L2 22L2 23L1 23L1 24L3 24L3 23L4 23L4 21L6 21L6 22L8 22L8 21L9 21L9 23L10 23L10 22L11 22L11 23L13 23L13 25L14 25L14 22L15 22L15 23L16 23L16 24L15 24L15 25L16 25L16 26L17 26L17 27L18 27L18 26L20 26L20 27L19 27L19 29L18 29L18 31L19 31L19 32L20 32L20 31L21 31L21 32L22 32L22 30L24 30L24 32L23 32L23 33L24 33L24 32L25 32L25 34L24 34L24 35L25 35L25 36L24 36L24 40L25 40L25 39L26 39L26 35L27 35L27 39L28 39L28 40L27 40L27 42L28 42L28 40L29 40L29 39L28 39L28 37L29 37L29 36L30 36L30 34L33 34L33 36L37 36L37 38L39 38L39 39L40 39L40 38L39 38L39 37L38 37L38 36L39 36L39 35L37 35L37 34L38 34L38 32L39 32L39 28L38 28L38 27L36 27L36 26L39 26L39 27L40 27L40 23L36 23L36 20L35 20L35 19L34 19L34 20L35 20L35 23L34 23L34 21L33 21L33 22L32 22L32 21L30 21L30 20L31 20L31 18L29 18L29 19L30 19L30 20L29 20L29 21L28 21L28 22L30 22L30 23L32 23L32 24L34 24L34 25L32 25L32 26L31 26L31 27L29 27L29 26L30 26L30 25L29 25L29 23L27 23L27 24L28 24L28 25L29 25L29 26L28 26L28 27L29 27L29 28L30 28L30 29L28 29L28 28L27 28L27 27L26 27L26 30L27 30L27 31L25 31L25 29L24 29L24 28L25 28L25 27L23 27L23 29L21 29L21 30L20 30L20 27L21 27L21 28L22 28L22 26L21 26L21 25L22 25L22 24L21 24L21 23L20 23L20 22L24 22L24 21L25 21L25 22L26 22L26 20L23 20L23 21L21 21L21 17L22 17L22 16L21 16L21 15L23 15L23 17L24 17L24 15L25 15L25 16L26 16L26 17L25 17L25 18L24 18L24 19L25 19L25 18L26 18L26 17L27 17L27 20L28 20L28 16L30 16L30 17L32 17L32 18L33 18L33 17L32 17L32 16L33 16L33 15L31 15L31 14L32 14L32 11L31 11L31 8L34 8L34 9L36 9L36 8L34 8L34 6L33 6L33 5L32 5L32 4L31 4L31 5L30 5L30 4L29 4L29 5L28 5L28 6L27 6L27 8L28 8L28 10L27 10L27 9L26 9L26 10L25 10L25 11L23 11L23 10L24 10L24 9L23 9L23 10L22 10L22 11L20 11L20 12L19 12L19 10L21 10L21 9L22 9L22 8L21 8L21 7L20 7L20 6L19 6L19 3L18 3L18 4L16 4L16 3L17 3L17 2L18 2L18 1ZM23 1L23 4L27 4L27 3L24 3L24 1ZM35 1L35 2L36 2L36 1ZM32 2L32 3L33 3L33 2ZM11 3L11 4L12 4L12 3ZM35 3L35 4L34 4L34 5L37 5L37 4L36 4L36 3ZM14 5L14 7L15 7L15 6L16 6L16 8L15 8L15 10L14 10L14 11L16 11L16 10L17 10L17 9L19 9L19 6L18 6L18 8L17 8L17 6L16 6L16 5ZM23 5L23 8L26 8L26 5ZM31 5L31 6L30 6L30 7L31 7L31 6L32 6L32 7L33 7L33 6L32 6L32 5ZM10 6L10 7L11 7L11 6ZM24 6L24 7L25 7L25 6ZM28 6L28 8L29 8L29 6ZM35 6L35 7L36 7L36 6ZM40 6L40 7L41 7L41 6ZM16 8L16 9L17 9L17 8ZM29 9L29 10L28 10L28 12L30 12L30 14L29 14L29 15L30 15L30 14L31 14L31 12L30 12L30 9ZM35 10L35 11L36 11L36 12L37 12L37 11L36 11L36 10ZM25 11L25 12L23 12L23 13L26 13L26 12L27 12L27 11ZM6 12L6 13L7 13L7 12ZM14 12L14 13L15 13L15 14L14 14L14 15L15 15L15 16L14 16L14 17L15 17L15 18L17 18L17 17L18 17L18 21L16 21L16 20L17 20L17 19L16 19L16 20L15 20L15 21L16 21L16 22L17 22L17 24L16 24L16 25L17 25L17 24L18 24L18 23L19 23L19 22L18 22L18 21L20 21L20 20L19 20L19 19L20 19L20 18L19 18L19 17L20 17L20 14L22 14L22 12L20 12L20 13L19 13L19 12L18 12L18 13L17 13L17 12ZM16 13L16 14L15 14L15 15L16 15L16 16L15 16L15 17L17 17L17 16L19 16L19 15L18 15L18 14L19 14L19 13L18 13L18 14L17 14L17 13ZM4 14L4 15L5 15L5 14ZM25 14L25 15L26 15L26 14ZM27 14L27 16L28 16L28 14ZM1 15L1 16L2 16L2 15ZM34 15L34 16L35 16L35 18L36 18L36 16L35 16L35 15ZM37 16L37 17L38 17L38 16ZM9 17L9 18L8 18L8 19L7 19L7 20L6 20L6 21L7 21L7 20L8 20L8 19L9 19L9 20L11 20L11 19L12 19L12 18L13 18L13 20L12 20L12 22L14 22L14 18L13 18L13 17ZM9 18L9 19L10 19L10 18ZM40 18L40 19L41 19L41 18ZM32 19L32 20L33 20L33 19ZM47 20L47 21L48 21L48 20ZM46 22L46 23L45 23L45 26L46 26L46 27L45 27L45 28L44 28L44 27L42 27L42 28L40 28L40 33L41 33L41 35L40 35L40 36L41 36L41 35L42 35L42 32L43 32L43 31L41 31L41 30L42 30L42 28L43 28L43 29L45 29L45 30L44 30L44 31L45 31L45 33L46 33L46 32L47 32L47 33L48 33L48 32L47 32L47 31L45 31L45 30L47 30L47 29L48 29L48 28L47 28L47 29L46 29L46 27L47 27L47 24L48 24L48 22ZM5 23L5 26L8 26L8 23ZM23 23L23 26L26 26L26 23ZM35 23L35 25L39 25L39 24L36 24L36 23ZM41 23L41 26L44 26L44 23ZM6 24L6 25L7 25L7 24ZM10 24L10 26L9 26L9 28L8 28L8 27L6 27L6 28L5 28L5 29L6 29L6 30L8 30L8 32L7 32L7 33L9 33L9 34L10 34L10 31L11 31L11 30L12 30L12 29L13 29L13 28L12 28L12 29L11 29L11 30L10 30L10 28L11 28L11 27L12 27L12 26L11 26L11 24ZM19 24L19 25L20 25L20 24ZM24 24L24 25L25 25L25 24ZM42 24L42 25L43 25L43 24ZM1 25L1 27L3 27L3 25ZM34 26L34 28L33 28L33 29L32 29L32 27L31 27L31 29L32 29L32 30L33 30L33 29L35 29L35 31L36 31L36 32L35 32L35 33L34 33L34 32L31 32L31 33L34 33L34 35L36 35L36 34L35 34L35 33L36 33L36 32L37 32L37 28L36 28L36 27L35 27L35 26ZM6 28L6 29L7 29L7 28ZM35 28L35 29L36 29L36 28ZM1 29L1 30L3 30L3 31L2 31L2 32L3 32L3 31L4 31L4 29ZM8 29L8 30L9 30L9 31L10 31L10 30L9 30L9 29ZM27 29L27 30L28 30L28 31L29 31L29 32L30 32L30 31L31 31L31 30L30 30L30 31L29 31L29 30L28 30L28 29ZM19 30L19 31L20 31L20 30ZM13 31L13 32L12 32L12 33L11 33L11 34L12 34L12 33L13 33L13 32L14 32L14 31ZM26 32L26 34L27 34L27 35L29 35L29 34L30 34L30 33L29 33L29 34L28 34L28 33L27 33L27 32ZM18 33L18 34L19 34L19 36L18 36L18 38L17 38L17 40L15 40L15 38L14 38L14 37L15 37L15 36L14 36L14 37L13 37L13 38L14 38L14 40L15 40L15 41L16 41L16 43L17 43L17 41L19 41L19 42L20 42L20 44L21 44L21 45L22 45L22 44L21 44L21 43L22 43L22 41L21 41L21 40L23 40L23 39L22 39L22 37L23 37L23 35L20 35L20 33ZM0 35L0 38L1 38L1 40L0 40L0 41L3 41L3 40L4 40L4 39L2 39L2 38L1 38L1 35ZM31 35L31 36L32 36L32 35ZM20 36L20 39L18 39L18 40L20 40L20 39L21 39L21 36ZM5 37L5 38L7 38L7 37ZM41 38L41 39L42 39L42 38ZM47 38L47 40L46 40L46 41L45 41L45 42L47 42L47 41L48 41L48 38ZM36 39L36 40L38 40L38 39ZM13 41L13 43L14 43L14 44L15 44L15 43L14 43L14 41ZM23 41L23 44L26 44L26 41ZM41 41L41 44L44 44L44 41ZM24 42L24 43L25 43L25 42ZM30 42L30 44L31 44L31 42ZM42 42L42 43L43 43L43 42ZM39 43L39 44L38 44L38 45L37 45L37 46L38 46L38 45L39 45L39 44L40 44L40 43ZM45 43L45 45L46 45L46 44L47 44L47 46L48 46L48 43ZM41 45L41 46L42 46L42 45ZM9 47L9 49L11 49L11 48L10 48L10 47ZM12 47L12 49L13 49L13 47ZM0 0L0 7L7 7L7 0ZM1 1L1 6L6 6L6 1ZM2 2L2 5L5 5L5 2ZM42 0L42 7L49 7L49 0ZM43 1L43 6L48 6L48 1ZM44 2L44 5L47 5L47 2ZM0 42L0 49L7 49L7 42ZM1 43L1 48L6 48L6 43ZM2 44L2 47L5 47L5 44Z" fill="#000000"/></g></g></svg>
