<?xml version="1.0" encoding="UTF-8"?>
<svg xmlns="http://www.w3.org/2000/svg" version="1.1" width="200" height="200" viewBox="0 0 200 200"><rect x="0" y="0" width="200" height="200" fill="#ffffff"/><g transform="scale(3.774)"><g transform="translate(2,2)"><path fill-rule="evenodd" d="M8 0L8 3L9 3L9 2L10 2L10 3L12 3L12 2L11 2L11 1L13 1L13 0L11 0L11 1L9 1L9 0ZM15 0L15 1L16 1L16 4L14 4L14 5L13 5L13 4L12 4L12 5L11 5L11 6L10 6L10 4L9 4L9 5L8 5L8 9L7 9L7 8L6 8L6 9L7 9L7 10L6 10L6 11L8 11L8 12L9 12L9 13L8 13L8 14L6 14L6 15L7 15L7 16L4 16L4 15L5 15L5 14L4 14L4 13L3 13L3 12L2 12L2 11L1 11L1 10L2 10L2 9L3 9L3 10L4 10L4 9L5 9L5 8L2 8L2 9L0 9L0 11L1 11L1 12L2 12L2 13L1 13L1 14L0 14L0 15L1 15L1 14L2 14L2 15L3 15L3 16L2 16L2 17L3 17L3 18L1 18L1 20L0 20L0 23L1 23L1 21L2 21L2 19L3 19L3 21L4 21L4 17L5 17L5 19L7 19L7 18L8 18L8 19L10 19L10 20L9 20L9 22L8 22L8 21L7 21L7 20L5 20L5 21L7 21L7 22L2 22L2 24L3 24L3 25L1 25L1 24L0 24L0 27L1 27L1 28L0 28L0 30L1 30L1 33L2 33L2 32L5 32L5 34L3 34L3 37L4 37L4 38L5 38L5 39L7 39L7 40L6 40L6 41L7 41L7 40L8 40L8 39L7 39L7 38L5 38L5 37L7 37L7 36L9 36L9 35L10 35L10 34L6 34L6 33L9 33L9 31L10 31L10 33L11 33L11 32L12 32L12 34L11 34L11 35L12 35L12 34L13 34L13 35L14 35L14 34L13 34L13 33L15 33L15 34L16 34L16 33L17 33L17 34L18 34L18 35L17 35L17 36L16 36L16 35L15 35L15 36L14 36L14 37L15 37L15 36L16 36L16 38L14 38L14 39L13 39L13 36L12 36L12 37L11 37L11 40L10 40L10 41L11 41L11 40L14 40L14 41L16 41L16 42L13 42L13 43L14 43L14 44L12 44L12 46L11 46L11 44L10 44L10 46L9 46L9 44L8 44L8 47L10 47L10 48L9 48L9 49L10 49L10 48L11 48L11 47L12 47L12 48L13 48L13 49L16 49L16 48L17 48L17 49L19 49L19 48L20 48L20 49L21 49L21 47L22 47L22 48L23 48L23 49L24 49L24 48L25 48L25 47L27 47L27 46L28 46L28 47L30 47L30 46L31 46L31 45L30 45L30 44L29 44L29 43L30 43L30 42L31 42L31 40L34 40L34 39L35 39L35 40L36 40L36 41L38 41L38 40L36 40L36 39L39 39L39 38L37 38L37 37L38 37L38 36L36 36L36 34L34 34L34 32L35 32L35 33L36 33L36 32L37 32L37 31L39 31L39 30L40 30L40 31L41 31L41 30L40 30L40 29L42 29L42 31L43 31L43 32L42 32L42 33L45 33L45 32L46 32L46 33L47 33L47 34L44 34L44 35L43 35L43 34L42 34L42 35L41 35L41 34L40 34L40 32L39 32L39 34L37 34L37 35L41 35L41 36L42 36L42 39L41 39L41 37L40 37L40 36L39 36L39 37L40 37L40 39L41 39L41 40L39 40L39 43L38 43L38 42L36 42L36 43L35 43L35 44L36 44L36 47L35 47L35 46L34 46L34 43L31 43L31 44L33 44L33 45L32 45L32 46L34 46L34 47L31 47L31 48L30 48L30 49L31 49L31 48L33 48L33 49L35 49L35 48L36 48L36 49L39 49L39 48L40 48L40 49L42 49L42 48L43 48L43 46L46 46L46 45L47 45L47 44L46 44L46 41L47 41L47 42L48 42L48 46L47 46L47 47L48 47L48 48L46 48L46 47L45 47L45 48L46 48L46 49L49 49L49 42L48 42L48 41L49 41L49 40L48 40L48 41L47 41L47 40L46 40L46 41L45 41L45 40L42 40L42 39L43 39L43 37L45 37L45 38L46 38L46 39L47 39L47 38L48 38L48 39L49 39L49 38L48 38L48 37L49 37L49 34L48 34L48 33L47 33L47 32L49 32L49 30L48 30L48 29L47 29L47 28L46 28L46 26L47 26L47 24L46 24L46 22L45 22L45 21L44 21L44 22L43 22L43 21L42 21L42 22L40 22L40 21L41 21L41 20L40 20L40 19L39 19L39 20L40 20L40 21L39 21L39 22L37 22L37 20L36 20L36 19L37 19L37 18L40 18L40 17L39 17L39 16L41 16L41 17L42 17L42 20L46 20L46 21L47 21L47 22L48 22L48 23L49 23L49 22L48 22L48 21L49 21L49 18L48 18L48 17L49 17L49 14L48 14L48 13L49 13L49 12L48 12L48 13L47 13L47 12L46 12L46 11L45 11L45 10L46 10L46 9L47 9L47 10L48 10L48 11L49 11L49 10L48 10L48 9L49 9L49 8L46 8L46 9L45 9L45 10L44 10L44 11L42 11L42 10L43 10L43 9L44 9L44 8L40 8L40 7L41 7L41 6L40 6L40 7L39 7L39 5L38 5L38 4L37 4L37 3L36 3L36 2L37 2L37 1L38 1L38 2L39 2L39 4L40 4L40 3L41 3L41 0L40 0L40 1L38 1L38 0L37 0L37 1L36 1L36 2L35 2L35 1L34 1L34 0L31 0L31 2L32 2L32 3L31 3L31 4L30 4L30 5L31 5L31 6L30 6L30 7L29 7L29 2L28 2L28 0L27 0L27 3L26 3L26 4L23 4L23 2L24 2L24 1L25 1L25 0L22 0L22 1L21 1L21 0L19 0L19 1L18 1L18 2L17 2L17 0ZM29 0L29 1L30 1L30 0ZM20 1L20 3L18 3L18 5L19 5L19 7L18 7L18 6L17 6L17 4L16 4L16 6L15 6L15 7L14 7L14 6L13 6L13 5L12 5L12 6L11 6L11 8L10 8L10 10L9 10L9 9L8 9L8 11L10 11L10 12L11 12L11 13L10 13L10 16L9 16L9 18L11 18L11 19L13 19L13 20L11 20L11 24L10 24L10 25L9 25L9 26L11 26L11 24L12 24L12 27L13 27L13 23L12 23L12 21L13 21L13 22L14 22L14 23L17 23L17 24L18 24L18 27L20 27L20 28L19 28L19 30L18 30L18 31L17 31L17 30L16 30L16 32L19 32L19 33L20 33L20 32L21 32L21 31L22 31L22 32L23 32L23 33L24 33L24 32L23 32L23 31L25 31L25 32L26 32L26 31L25 31L25 29L26 29L26 30L27 30L27 29L26 29L26 28L25 28L25 29L24 29L24 28L23 28L23 27L22 27L22 26L21 26L21 24L22 24L22 22L24 22L24 18L25 18L25 17L27 17L27 18L28 18L28 17L29 17L29 21L28 21L28 19L25 19L25 20L27 20L27 21L28 21L28 22L27 22L27 24L29 24L29 26L27 26L27 28L28 28L28 27L29 27L29 26L30 26L30 27L34 27L34 26L35 26L35 27L36 27L36 28L30 28L30 29L29 29L29 30L30 30L30 29L34 29L34 30L31 30L31 32L29 32L29 33L25 33L25 34L27 34L27 35L26 35L26 36L25 36L25 37L24 37L24 38L23 38L23 36L24 36L24 34L23 34L23 35L22 35L22 33L21 33L21 35L19 35L19 37L20 37L20 38L22 38L22 40L23 40L23 39L24 39L24 40L25 40L25 39L26 39L26 40L27 40L27 38L25 38L25 37L28 37L28 38L29 38L29 39L28 39L28 41L27 41L27 42L28 42L28 41L29 41L29 42L30 42L30 41L29 41L29 40L30 40L30 37L31 37L31 39L34 39L34 38L35 38L35 39L36 39L36 36L35 36L35 35L34 35L34 34L33 34L33 36L29 36L29 35L30 35L30 33L31 33L31 34L32 34L32 33L31 33L31 32L33 32L33 31L34 31L34 30L35 30L35 32L36 32L36 30L35 30L35 29L36 29L36 28L37 28L37 30L39 30L39 29L38 29L38 28L41 28L41 27L40 27L40 26L39 26L39 25L38 25L38 24L39 24L39 23L40 23L40 22L39 22L39 23L37 23L37 22L36 22L36 20L35 20L35 19L36 19L36 18L37 18L37 17L38 17L38 16L37 16L37 15L36 15L36 16L35 16L35 18L34 18L34 17L33 17L33 18L32 18L32 17L29 17L29 16L30 16L30 14L29 14L29 13L28 13L28 12L30 12L30 13L31 13L31 14L32 14L32 13L33 13L33 12L34 12L34 10L35 10L35 13L34 13L34 14L33 14L33 16L34 16L34 14L36 14L36 12L37 12L37 14L39 14L39 13L40 13L40 15L41 15L41 14L42 14L42 15L44 15L44 14L46 14L46 12L43 12L43 13L44 13L44 14L42 14L42 11L38 11L38 12L37 12L37 11L36 11L36 10L35 10L35 9L36 9L36 8L35 8L35 7L36 7L36 6L35 6L35 7L34 7L34 5L37 5L37 4L36 4L36 3L35 3L35 2L34 2L34 1L32 1L32 2L34 2L34 5L32 5L32 4L31 4L31 5L32 5L32 6L31 6L31 7L32 7L32 8L31 8L31 10L30 10L30 11L28 11L28 12L27 12L27 11L26 11L26 12L27 12L27 13L25 13L25 11L24 11L24 9L23 9L23 10L22 10L22 9L21 9L21 7L22 7L22 6L21 6L21 5L22 5L22 4L21 4L21 3L22 3L22 2L21 2L21 1ZM13 2L13 3L15 3L15 2ZM19 4L19 5L21 5L21 4ZM23 5L23 8L26 8L26 5ZM27 5L27 8L28 8L28 9L26 9L26 10L29 10L29 9L30 9L30 8L28 8L28 5ZM9 6L9 7L10 7L10 6ZM12 6L12 7L13 7L13 8L11 8L11 10L13 10L13 11L11 11L11 12L14 12L14 13L13 13L13 14L11 14L11 16L10 16L10 17L11 17L11 18L13 18L13 19L15 19L15 18L16 18L16 19L20 19L20 20L21 20L21 21L20 21L20 23L21 23L21 21L23 21L23 20L22 20L22 19L23 19L23 18L24 18L24 16L27 16L27 17L28 17L28 16L29 16L29 15L26 15L26 14L25 14L25 13L24 13L24 11L22 11L22 10L21 10L21 9L20 9L20 11L17 11L17 12L16 12L16 11L15 11L15 10L19 10L19 8L20 8L20 7L21 7L21 6L20 6L20 7L19 7L19 8L18 8L18 7L17 7L17 6L16 6L16 7L17 7L17 8L15 8L15 10L14 10L14 7L13 7L13 6ZM24 6L24 7L25 7L25 6ZM32 6L32 7L33 7L33 8L32 8L32 9L33 9L33 10L34 10L34 7L33 7L33 6ZM37 6L37 10L39 10L39 9L40 9L40 10L42 10L42 9L40 9L40 8L39 8L39 7L38 7L38 6ZM38 8L38 9L39 9L39 8ZM31 10L31 13L32 13L32 12L33 12L33 11L32 11L32 10ZM20 11L20 14L18 14L18 13L19 13L19 12L17 12L17 14L18 14L18 15L17 15L17 16L16 16L16 14L15 14L15 13L16 13L16 12L15 12L15 13L14 13L14 15L12 15L12 17L15 17L15 16L16 16L16 18L20 18L20 19L21 19L21 18L23 18L23 16L24 16L24 15L22 15L22 14L24 14L24 13L22 13L22 14L21 14L21 11ZM5 12L5 13L7 13L7 12ZM40 12L40 13L41 13L41 12ZM2 13L2 14L3 14L3 15L4 15L4 14L3 14L3 13ZM27 13L27 14L28 14L28 13ZM47 14L47 15L45 15L45 16L42 16L42 17L43 17L43 19L45 19L45 17L46 17L46 18L47 18L47 19L46 19L46 20L47 20L47 21L48 21L48 20L47 20L47 19L48 19L48 18L47 18L47 17L48 17L48 14ZM19 15L19 16L20 16L20 18L21 18L21 17L22 17L22 15ZM3 16L3 17L4 17L4 16ZM7 16L7 17L6 17L6 18L7 18L7 17L8 17L8 16ZM36 16L36 17L37 17L37 16ZM46 16L46 17L47 17L47 16ZM31 18L31 19L30 19L30 20L31 20L31 23L30 23L30 25L31 25L31 26L32 26L32 25L31 25L31 24L32 24L32 22L34 22L34 23L33 23L33 26L34 26L34 23L35 23L35 24L36 24L36 26L37 26L37 27L39 27L39 26L37 26L37 24L36 24L36 23L35 23L35 22L34 22L34 21L35 21L35 20L32 20L32 18ZM33 18L33 19L34 19L34 18ZM13 20L13 21L14 21L14 22L17 22L17 23L18 23L18 24L19 24L19 23L18 23L18 22L19 22L19 21L18 21L18 20L16 20L16 21L15 21L15 20ZM25 21L25 22L26 22L26 21ZM29 21L29 22L28 22L28 23L29 23L29 22L30 22L30 21ZM9 22L9 23L10 23L10 22ZM3 23L3 24L4 24L4 23ZM5 23L5 26L8 26L8 23ZM23 23L23 26L26 26L26 23ZM41 23L41 26L44 26L44 23ZM6 24L6 25L7 25L7 24ZM14 24L14 25L16 25L16 26L14 26L14 27L15 27L15 28L16 28L16 29L18 29L18 28L16 28L16 26L17 26L17 25L16 25L16 24ZM24 24L24 25L25 25L25 24ZM42 24L42 25L43 25L43 24ZM45 24L45 25L46 25L46 24ZM3 25L3 26L4 26L4 25ZM20 26L20 27L21 27L21 30L24 30L24 29L22 29L22 27L21 27L21 26ZM48 26L48 28L49 28L49 26ZM3 27L3 28L8 28L8 29L5 29L5 30L2 30L2 29L1 29L1 30L2 30L2 31L6 31L6 32L8 32L8 31L6 31L6 30L10 30L10 29L9 29L9 28L8 28L8 27ZM10 27L10 28L11 28L11 29L12 29L12 30L13 30L13 29L14 29L14 30L15 30L15 29L14 29L14 28L11 28L11 27ZM42 27L42 28L43 28L43 29L44 29L44 30L43 30L43 31L44 31L44 32L45 32L45 31L44 31L44 30L45 30L45 29L46 29L46 30L47 30L47 31L46 31L46 32L47 32L47 31L48 31L48 30L47 30L47 29L46 29L46 28L45 28L45 27ZM44 28L44 29L45 29L45 28ZM19 30L19 31L20 31L20 30ZM13 31L13 32L15 32L15 31ZM47 34L47 35L46 35L46 36L45 36L45 35L44 35L44 36L45 36L45 37L46 37L46 38L47 38L47 37L48 37L48 34ZM0 35L0 36L2 36L2 35ZM5 35L5 36L7 36L7 35ZM27 35L27 36L28 36L28 35ZM42 35L42 36L43 36L43 35ZM33 36L33 37L32 37L32 38L34 38L34 37L35 37L35 36ZM46 36L46 37L47 37L47 36ZM0 37L0 38L1 38L1 40L0 40L0 41L3 41L3 40L4 40L4 39L2 39L2 38L1 38L1 37ZM18 38L18 39L15 39L15 40L16 40L16 41L18 41L18 42L16 42L16 45L15 45L15 44L14 44L14 45L15 45L15 46L12 46L12 47L15 47L15 46L16 46L16 45L17 45L17 46L18 46L18 45L19 45L19 47L17 47L17 48L19 48L19 47L21 47L21 45L19 45L19 44L18 44L18 42L19 42L19 43L20 43L20 44L22 44L22 43L21 43L21 42L19 42L19 41L20 41L20 40L21 40L21 39L19 39L19 38ZM8 41L8 42L9 42L9 41ZM23 41L23 44L26 44L26 41ZM33 41L33 42L34 42L34 41ZM41 41L41 44L44 44L44 41ZM10 42L10 43L11 43L11 42ZM24 42L24 43L25 43L25 42ZM42 42L42 43L43 43L43 42ZM36 43L36 44L38 44L38 45L37 45L37 46L39 46L39 47L36 47L36 48L39 48L39 47L40 47L40 46L41 46L41 48L42 48L42 45L40 45L40 46L39 46L39 44L38 44L38 43ZM17 44L17 45L18 45L18 44ZM45 44L45 45L46 45L46 44ZM25 45L25 46L24 46L24 47L25 47L25 46L26 46L26 45ZM28 45L28 46L30 46L30 45ZM34 47L34 48L35 48L35 47ZM26 48L26 49L27 49L27 48ZM0 0L0 7L7 7L7 0ZM1 1L1 6L6 6L6 1ZM2 2L2 5L5 5L5 2ZM42 0L42 7L49 7L49 0ZM43 1L43 6L48 6L48 1ZM44 2L44 5L47 5L47 2ZM0 42L0 49L7 49L7 42ZM1 43L1 48L6 48L6 43ZM2 44L2 47L5 47L5 44Z" fill="#000000"/></g></g></svg>
