<?xml version="1.0" encoding="UTF-8"?>
<svg xmlns="http://www.w3.org/2000/svg" version="1.1" width="200" height="200" viewBox="0 0 200 200"><rect x="0" y="0" width="200" height="200" fill="#ffffff"/><g transform="scale(3.774)"><g transform="translate(2,2)"><path fill-rule="evenodd" d="M8 0L8 1L9 1L9 3L8 3L8 4L9 4L9 3L10 3L10 2L11 2L11 4L10 4L10 8L11 8L11 9L13 9L13 10L14 10L14 11L13 11L13 12L14 12L14 13L12 13L12 12L11 12L11 14L10 14L10 13L9 13L9 11L11 11L11 10L10 10L10 9L9 9L9 8L8 8L8 9L9 9L9 10L6 10L6 9L7 9L7 8L4 8L4 9L3 9L3 8L2 8L2 9L1 9L1 10L0 10L0 11L1 11L1 12L0 12L0 13L2 13L2 10L4 10L4 11L3 11L3 18L6 18L6 19L5 19L5 20L4 20L4 19L3 19L3 20L2 20L2 21L0 21L0 25L1 25L1 24L2 24L2 26L0 26L0 29L1 29L1 31L2 31L2 33L3 33L3 31L2 31L2 30L4 30L4 29L5 29L5 30L6 30L6 31L5 31L5 32L4 32L4 33L7 33L7 34L5 34L5 35L4 35L4 36L5 36L5 37L4 37L4 38L5 38L5 39L7 39L7 38L8 38L8 39L11 39L11 40L13 40L13 39L11 39L11 38L15 38L15 39L14 39L14 40L16 40L16 42L17 42L17 40L19 40L19 39L18 39L18 38L16 38L16 37L15 37L15 36L16 36L16 35L18 35L18 37L19 37L19 38L20 38L20 37L19 37L19 36L20 36L20 34L22 34L22 35L23 35L23 36L21 36L21 37L24 37L24 38L25 38L25 36L26 36L26 39L27 39L27 40L25 40L25 39L24 39L24 40L22 40L22 39L23 39L23 38L22 38L22 39L21 39L21 40L22 40L22 42L21 42L21 41L20 41L20 44L19 44L19 46L18 46L18 45L17 45L17 44L18 44L18 43L19 43L19 41L18 41L18 43L17 43L17 44L16 44L16 46L17 46L17 47L15 47L15 45L14 45L14 44L12 44L12 45L11 45L11 44L10 44L10 46L11 46L11 47L10 47L10 49L11 49L11 48L12 48L12 45L13 45L13 46L14 46L14 48L13 48L13 49L14 49L14 48L16 48L16 49L19 49L19 46L20 46L20 48L21 48L21 49L24 49L24 48L23 48L23 47L24 47L24 46L23 46L23 47L22 47L22 48L21 48L21 46L22 46L22 45L26 45L26 47L25 47L25 49L31 49L31 47L30 47L30 48L26 48L26 47L28 47L28 45L27 45L27 44L31 44L31 43L30 43L30 41L31 41L31 42L32 42L32 45L30 45L30 46L32 46L32 49L33 49L33 48L34 48L34 45L35 45L35 46L36 46L36 49L37 49L37 48L38 48L38 49L40 49L40 48L41 48L41 49L42 49L42 47L43 47L43 48L44 48L44 49L46 49L46 46L45 46L45 45L46 45L46 43L47 43L47 44L48 44L48 45L47 45L47 49L49 49L49 48L48 48L48 47L49 47L49 46L48 46L48 45L49 45L49 44L48 44L48 43L49 43L49 36L48 36L48 35L49 35L49 33L48 33L48 35L47 35L47 36L48 36L48 39L47 39L47 40L48 40L48 43L47 43L47 42L46 42L46 40L44 40L44 39L46 39L46 35L45 35L45 38L44 38L44 36L43 36L43 34L44 34L44 32L43 32L43 30L42 30L42 31L41 31L41 32L40 32L40 33L39 33L39 32L38 32L38 29L37 29L37 28L38 28L38 25L39 25L39 27L42 27L42 28L41 28L41 29L43 29L43 28L44 28L44 27L45 27L45 30L46 30L46 27L47 27L47 29L48 29L48 31L49 31L49 28L48 28L48 27L49 27L49 25L46 25L46 23L47 23L47 24L49 24L49 20L48 20L48 23L47 23L47 22L46 22L46 23L45 23L45 21L46 21L46 19L45 19L45 18L46 18L46 16L45 16L45 15L44 15L44 17L43 17L43 18L42 18L42 16L41 16L41 15L42 15L42 13L43 13L43 12L42 12L42 8L41 8L41 10L40 10L40 7L41 7L41 6L40 6L40 7L39 7L39 5L38 5L38 3L37 3L37 5L38 5L38 7L37 7L37 6L36 6L36 7L37 7L37 8L36 8L36 9L37 9L37 10L36 10L36 11L34 11L34 9L35 9L35 8L34 8L34 7L35 7L35 4L36 4L36 1L35 1L35 0L34 0L34 3L33 3L33 4L34 4L34 7L33 7L33 5L32 5L32 4L31 4L31 3L32 3L32 2L33 2L33 1L30 1L30 0L28 0L28 1L30 1L30 2L31 2L31 3L29 3L29 4L30 4L30 5L27 5L27 2L26 2L26 3L23 3L23 1L22 1L22 0L21 0L21 2L18 2L18 1L16 1L16 2L15 2L15 5L17 5L17 6L16 6L16 7L15 7L15 6L14 6L14 5L13 5L13 4L14 4L14 1L15 1L15 0L14 0L14 1L13 1L13 0ZM19 0L19 1L20 1L20 0ZM25 0L25 1L24 1L24 2L25 2L25 1L26 1L26 0ZM37 0L37 2L39 2L39 4L40 4L40 3L41 3L41 0L40 0L40 1L38 1L38 0ZM12 2L12 3L13 3L13 2ZM16 2L16 4L18 4L18 5L21 5L21 4L23 4L23 3L22 3L22 2L21 2L21 3L20 3L20 4L18 4L18 3L17 3L17 2ZM34 3L34 4L35 4L35 3ZM11 4L11 5L12 5L12 6L11 6L11 7L12 7L12 6L13 6L13 9L14 9L14 10L15 10L15 9L18 9L18 12L17 12L17 11L16 11L16 12L17 12L17 13L16 13L16 14L15 14L15 13L14 13L14 14L15 14L15 15L14 15L14 16L13 16L13 14L11 14L11 15L10 15L10 14L8 14L8 15L6 15L6 16L5 16L5 12L7 12L7 13L6 13L6 14L7 14L7 13L8 13L8 12L7 12L7 11L6 11L6 10L5 10L5 9L4 9L4 10L5 10L5 11L4 11L4 16L5 16L5 17L6 17L6 18L8 18L8 15L10 15L10 17L9 17L9 19L8 19L8 20L7 20L7 19L6 19L6 20L7 20L7 21L6 21L6 22L9 22L9 21L8 21L8 20L10 20L10 23L12 23L12 22L13 22L13 20L14 20L14 19L15 19L15 20L16 20L16 21L17 21L17 22L18 22L18 25L17 25L17 24L16 24L16 27L15 27L15 28L14 28L14 27L13 27L13 26L14 26L14 25L13 25L13 24L14 24L14 23L13 23L13 24L12 24L12 25L10 25L10 24L9 24L9 27L10 27L10 28L7 28L7 27L6 27L6 28L7 28L7 29L6 29L6 30L7 30L7 31L6 31L6 32L11 32L11 33L12 33L12 35L13 35L13 36L10 36L10 35L11 35L11 34L10 34L10 33L8 33L8 36L7 36L7 35L6 35L6 36L7 36L7 37L6 37L6 38L7 38L7 37L8 37L8 38L10 38L10 37L14 37L14 35L13 35L13 34L14 34L14 33L16 33L16 34L18 34L18 35L19 35L19 34L20 34L20 33L21 33L21 32L22 32L22 34L24 34L24 36L25 36L25 35L26 35L26 36L27 36L27 34L29 34L29 35L28 35L28 36L29 36L29 37L28 37L28 38L27 38L27 39L28 39L28 40L27 40L27 41L29 41L29 39L30 39L30 40L31 40L31 41L32 41L32 42L33 42L33 41L32 41L32 39L33 39L33 37L34 37L34 40L35 40L35 41L34 41L34 42L35 42L35 43L34 43L34 44L33 44L33 45L34 45L34 44L35 44L35 45L36 45L36 46L37 46L37 45L36 45L36 42L35 42L35 41L36 41L36 38L35 38L35 37L36 37L36 35L37 35L37 36L38 36L38 40L39 40L39 41L38 41L38 42L39 42L39 43L40 43L40 42L39 42L39 41L40 41L40 40L42 40L42 38L43 38L43 39L44 39L44 38L43 38L43 37L42 37L42 34L41 34L41 33L42 33L42 32L41 32L41 33L40 33L40 34L39 34L39 33L38 33L38 32L37 32L37 31L36 31L36 30L37 30L37 29L36 29L36 27L35 27L35 25L36 25L36 26L37 26L37 25L36 25L36 23L37 23L37 21L38 21L38 23L39 23L39 21L38 21L38 20L39 20L39 19L38 19L38 17L39 17L39 16L38 16L38 15L40 15L40 14L41 14L41 13L42 13L42 12L41 12L41 11L40 11L40 10L39 10L39 7L38 7L38 8L37 8L37 9L38 9L38 11L37 11L37 13L36 13L36 12L34 12L34 11L33 11L33 13L34 13L34 15L33 15L33 14L32 14L32 15L30 15L30 14L31 14L31 12L32 12L32 11L31 11L31 10L29 10L29 9L28 9L28 6L27 6L27 9L24 9L24 10L23 10L23 12L21 12L21 11L22 11L22 9L21 9L21 10L19 10L19 9L20 9L20 6L19 6L19 7L18 7L18 6L17 6L17 8L14 8L14 6L13 6L13 5L12 5L12 4ZM23 5L23 8L26 8L26 5ZM31 5L31 7L30 7L30 6L29 6L29 7L30 7L30 9L32 9L32 10L33 10L33 9L34 9L34 8L33 8L33 7L32 7L32 5ZM8 6L8 7L9 7L9 6ZM21 6L21 8L22 8L22 6ZM24 6L24 7L25 7L25 6ZM18 8L18 9L19 9L19 8ZM45 8L45 11L44 11L44 13L46 13L46 14L47 14L47 13L46 13L46 11L47 11L47 12L48 12L48 15L47 15L47 16L48 16L48 19L49 19L49 16L48 16L48 15L49 15L49 8L48 8L48 11L47 11L47 10L46 10L46 8ZM43 9L43 10L44 10L44 9ZM24 10L24 12L23 12L23 14L22 14L22 15L21 15L21 12L20 12L20 14L19 14L19 15L18 15L18 14L16 14L16 16L14 16L14 18L15 18L15 19L16 19L16 20L17 20L17 21L18 21L18 22L21 22L21 23L22 23L22 25L21 25L21 24L20 24L20 23L19 23L19 24L20 24L20 25L18 25L18 26L17 26L17 27L16 27L16 30L13 30L13 31L12 31L12 29L13 29L13 28L12 28L12 29L10 29L10 30L8 30L8 29L7 29L7 30L8 30L8 31L10 31L10 30L11 30L11 32L12 32L12 33L13 33L13 32L15 32L15 31L16 31L16 32L17 32L17 33L19 33L19 31L18 31L18 30L17 30L17 27L18 27L18 26L20 26L20 25L21 25L21 28L22 28L22 27L26 27L26 29L27 29L27 31L26 31L26 30L25 30L25 29L24 29L24 28L23 28L23 29L22 29L22 30L20 30L20 29L19 29L19 28L18 28L18 29L19 29L19 30L20 30L20 31L23 31L23 32L25 32L25 31L26 31L26 32L31 32L31 33L30 33L30 34L31 34L31 35L32 35L32 37L33 37L33 35L34 35L34 33L35 33L35 35L36 35L36 34L37 34L37 35L38 35L38 33L36 33L36 31L34 31L34 29L35 29L35 27L34 27L34 25L35 25L35 24L34 24L34 21L32 21L32 20L31 20L31 21L32 21L32 22L30 22L30 21L29 21L29 22L30 22L30 23L28 23L28 20L29 20L29 19L28 19L28 20L27 20L27 21L26 21L26 18L31 18L31 19L33 19L33 18L32 18L32 17L31 17L31 16L30 16L30 15L29 15L29 14L28 14L28 11L27 11L27 14L26 14L26 10ZM29 11L29 13L30 13L30 12L31 12L31 11ZM24 12L24 14L25 14L25 12ZM38 12L38 13L37 13L37 14L35 14L35 15L34 15L34 16L35 16L35 15L36 15L36 17L34 17L34 19L35 19L35 18L36 18L36 21L35 21L35 22L36 22L36 21L37 21L37 20L38 20L38 19L37 19L37 15L38 15L38 13L39 13L39 14L40 14L40 12ZM0 14L0 16L2 16L2 15L1 15L1 14ZM20 15L20 16L21 16L21 19L22 19L22 20L21 20L21 22L23 22L23 21L24 21L24 22L25 22L25 21L24 21L24 20L25 20L25 19L24 19L24 18L23 18L23 17L25 17L25 18L26 18L26 15L24 15L24 16L21 16L21 15ZM6 16L6 17L7 17L7 16ZM11 16L11 18L10 18L10 20L11 20L11 19L12 19L12 20L13 20L13 18L12 18L12 16ZM16 16L16 17L19 17L19 16ZM28 16L28 17L29 17L29 16ZM0 17L0 19L1 19L1 18L2 18L2 17ZM40 17L40 18L41 18L41 19L40 19L40 22L41 22L41 21L42 21L42 22L43 22L43 21L44 21L44 18L43 18L43 19L42 19L42 18L41 18L41 17ZM17 19L17 20L18 20L18 21L20 21L20 19ZM23 19L23 20L24 20L24 19ZM41 19L41 20L42 20L42 19ZM3 20L3 21L2 21L2 22L1 22L1 23L2 23L2 22L3 22L3 23L4 23L4 22L5 22L5 21L4 21L4 20ZM11 21L11 22L12 22L12 21ZM14 21L14 22L15 22L15 21ZM5 23L5 26L8 26L8 23ZM23 23L23 26L26 26L26 23ZM30 23L30 24L29 24L29 26L30 26L30 24L31 24L31 27L27 27L27 29L28 29L28 30L29 30L29 28L30 28L30 30L31 30L31 31L32 31L32 33L34 33L34 32L33 32L33 31L32 31L32 30L33 30L33 29L32 29L32 26L33 26L33 25L34 25L34 24L33 24L33 23ZM41 23L41 26L44 26L44 23ZM3 24L3 26L2 26L2 27L1 27L1 28L2 28L2 29L3 29L3 28L5 28L5 27L4 27L4 24ZM6 24L6 25L7 25L7 24ZM24 24L24 25L25 25L25 24ZM32 24L32 25L33 25L33 24ZM39 24L39 25L40 25L40 24ZM42 24L42 25L43 25L43 24ZM12 25L12 26L11 26L11 27L12 27L12 26L13 26L13 25ZM27 25L27 26L28 26L28 25ZM45 26L45 27L46 27L46 26ZM47 26L47 27L48 27L48 26ZM2 27L2 28L3 28L3 27ZM23 29L23 31L25 31L25 30L24 30L24 29ZM31 29L31 30L32 30L32 29ZM39 29L39 31L40 31L40 29ZM17 31L17 32L18 32L18 31ZM45 31L45 33L46 33L46 31ZM0 32L0 34L1 34L1 35L0 35L0 37L1 37L1 35L2 35L2 37L3 37L3 35L2 35L2 34L1 34L1 32ZM25 33L25 34L27 34L27 33ZM9 34L9 35L10 35L10 34ZM32 34L32 35L33 35L33 34ZM8 36L8 37L10 37L10 36ZM34 36L34 37L35 37L35 36ZM40 36L40 38L39 38L39 39L40 39L40 38L42 38L42 37L41 37L41 36ZM29 37L29 38L30 38L30 39L31 39L31 38L30 38L30 37ZM1 38L1 40L0 40L0 41L3 41L3 40L4 40L4 39L2 39L2 38ZM6 40L6 41L7 41L7 40ZM8 40L8 42L9 42L9 43L8 43L8 45L9 45L9 43L11 43L11 42L9 42L9 41L10 41L10 40ZM12 41L12 42L13 42L13 43L15 43L15 42L14 42L14 41ZM23 41L23 44L26 44L26 41ZM41 41L41 44L44 44L44 41ZM24 42L24 43L25 43L25 42ZM42 42L42 43L43 43L43 42ZM45 42L45 43L46 43L46 42ZM20 44L20 46L21 46L21 45L22 45L22 44ZM39 44L39 45L38 45L38 48L39 48L39 45L40 45L40 47L42 47L42 46L43 46L43 47L44 47L44 48L45 48L45 47L44 47L44 45L42 45L42 46L41 46L41 45L40 45L40 44ZM8 46L8 47L9 47L9 46ZM0 0L0 7L7 7L7 0ZM1 1L1 6L6 6L6 1ZM2 2L2 5L5 5L5 2ZM42 0L42 7L49 7L49 0ZM43 1L43 6L48 6L48 1ZM44 2L44 5L47 5L47 2ZM0 42L0 49L7 49L7 42ZM1 43L1 48L6 48L6 43ZM2 44L2 47L5 47L5 44Z" fill="#000000"/></g></g></svg>
