<?xml version="1.0" encoding="UTF-8"?>
<svg xmlns="http://www.w3.org/2000/svg" version="1.1" width="200" height="200" viewBox="0 0 200 200"><rect x="0" y="0" width="200" height="200" fill="#ffffff"/><g transform="scale(3.774)"><g transform="translate(2,2)"><path fill-rule="evenodd" d="M10 0L10 2L11 2L11 3L9 3L9 2L8 2L8 4L9 4L9 5L10 5L10 4L11 4L11 3L12 3L12 4L13 4L13 3L12 3L12 2L11 2L11 0ZM12 0L12 1L13 1L13 2L14 2L14 4L15 4L15 5L14 5L14 7L15 7L15 8L14 8L14 9L16 9L16 8L18 8L18 11L16 11L16 12L13 12L13 11L14 11L14 10L13 10L13 5L11 5L11 6L10 6L10 7L9 7L9 6L8 6L8 7L9 7L9 9L8 9L8 8L6 8L6 9L7 9L7 10L5 10L5 8L3 8L3 9L4 9L4 10L2 10L2 12L3 12L3 11L4 11L4 10L5 10L5 11L8 11L8 12L4 12L4 14L5 14L5 13L7 13L7 14L6 14L6 15L4 15L4 17L5 17L5 18L3 18L3 19L1 19L1 18L0 18L0 20L1 20L1 22L0 22L0 23L1 23L1 22L2 22L2 24L0 24L0 27L1 27L1 28L0 28L0 32L1 32L1 33L0 33L0 35L1 35L1 36L0 36L0 37L1 37L1 40L0 40L0 41L3 41L3 40L4 40L4 39L2 39L2 38L5 38L5 39L7 39L7 40L6 40L6 41L7 41L7 40L8 40L8 43L10 43L10 42L11 42L11 44L12 44L12 46L13 46L13 45L14 45L14 44L12 44L12 43L13 43L13 42L12 42L12 41L13 41L13 40L14 40L14 39L15 39L15 40L17 40L17 41L18 41L18 40L17 40L17 39L18 39L18 37L19 37L19 40L21 40L21 39L22 39L22 43L20 43L20 47L19 47L19 46L18 46L18 45L19 45L19 43L18 43L18 42L16 42L16 41L15 41L15 42L16 42L16 43L18 43L18 45L17 45L17 44L15 44L15 46L14 46L14 47L11 47L11 45L9 45L9 44L8 44L8 46L9 46L9 49L12 49L12 48L15 48L15 49L17 49L17 48L18 48L18 49L20 49L20 48L22 48L22 49L23 49L23 48L22 48L22 47L23 47L23 46L25 46L25 47L24 47L24 48L25 48L25 47L26 47L26 45L28 45L28 47L27 47L27 48L29 48L29 47L31 47L31 49L34 49L34 48L35 48L35 49L39 49L39 48L35 48L35 47L38 47L38 46L39 46L39 45L40 45L40 47L41 47L41 48L43 48L43 49L45 49L45 48L43 48L43 46L44 46L44 47L45 47L45 46L44 46L44 45L45 45L45 43L48 43L48 47L46 47L46 48L48 48L48 49L49 49L49 42L47 42L47 41L49 41L49 40L47 40L47 39L44 39L44 38L45 38L45 37L43 37L43 36L44 36L44 35L43 35L43 34L41 34L41 32L40 32L40 31L37 31L37 28L36 28L36 27L37 27L37 26L38 26L38 28L39 28L39 29L40 29L40 30L41 30L41 31L44 31L44 34L45 34L45 35L46 35L46 36L47 36L47 38L48 38L48 39L49 39L49 38L48 38L48 37L49 37L49 34L48 34L48 33L45 33L45 31L46 31L46 30L47 30L47 32L49 32L49 30L47 30L47 29L49 29L49 28L47 28L47 25L48 25L48 23L49 23L49 22L48 22L48 21L49 21L49 18L47 18L47 17L49 17L49 14L48 14L48 13L49 13L49 12L48 12L48 11L49 11L49 10L48 10L48 9L47 9L47 8L45 8L45 9L44 9L44 10L45 10L45 9L46 9L46 10L47 10L47 11L46 11L46 12L47 12L47 13L45 13L45 11L41 11L41 9L40 9L40 10L39 10L39 5L38 5L38 4L37 4L37 3L38 3L38 2L39 2L39 4L40 4L40 3L41 3L41 0L40 0L40 1L36 1L36 0L31 0L31 1L30 1L30 0L29 0L29 1L28 1L28 0L26 0L26 2L25 2L25 1L23 1L23 0L21 0L21 1L20 1L20 2L22 2L22 1L23 1L23 2L25 2L25 3L26 3L26 2L31 2L31 3L34 3L34 4L32 4L32 8L31 8L31 6L30 6L30 5L31 5L31 4L28 4L28 3L27 3L27 4L22 4L22 5L21 5L21 4L20 4L20 3L19 3L19 1L18 1L18 0L17 0L17 1L16 1L16 0ZM17 1L17 2L15 2L15 4L17 4L17 5L16 5L16 6L15 6L15 7L16 7L16 6L17 6L17 7L18 7L18 6L17 6L17 5L19 5L19 7L20 7L20 6L21 6L21 8L20 8L20 9L19 9L19 11L18 11L18 12L17 12L17 13L18 13L18 15L16 15L16 14L15 14L15 13L14 13L14 14L13 14L13 13L12 13L12 11L13 11L13 10L12 10L12 11L11 11L11 8L12 8L12 6L11 6L11 8L10 8L10 9L9 9L9 11L11 11L11 13L8 13L8 14L7 14L7 15L6 15L6 16L7 16L7 17L6 17L6 18L7 18L7 19L3 19L3 20L2 20L2 21L3 21L3 24L4 24L4 21L3 21L3 20L7 20L7 19L9 19L9 20L8 20L8 21L9 21L9 24L11 24L11 25L10 25L10 27L5 27L5 28L10 28L10 27L11 27L11 25L12 25L12 27L14 27L14 28L11 28L11 29L10 29L10 30L9 30L9 29L8 29L8 30L7 30L7 29L4 29L4 28L3 28L3 27L2 27L2 26L3 26L3 25L1 25L1 27L2 27L2 28L3 28L3 29L4 29L4 32L7 32L7 33L6 33L6 34L5 34L5 35L4 35L4 33L3 33L3 32L2 32L2 29L1 29L1 32L2 32L2 33L1 33L1 34L2 34L2 33L3 33L3 36L4 36L4 37L5 37L5 38L7 38L7 37L6 37L6 36L10 36L10 37L9 37L9 38L8 38L8 39L10 39L10 37L12 37L12 36L13 36L13 38L16 38L16 39L17 39L17 36L16 36L16 35L17 35L17 34L16 34L16 33L17 33L17 32L18 32L18 35L19 35L19 37L20 37L20 39L21 39L21 37L22 37L22 38L23 38L23 39L24 39L24 40L25 40L25 38L26 38L26 39L27 39L27 38L28 38L28 39L29 39L29 40L27 40L27 41L28 41L28 43L27 43L27 44L28 44L28 45L29 45L29 44L28 44L28 43L31 43L31 44L30 44L30 45L31 45L31 47L32 47L32 46L33 46L33 48L34 48L34 45L33 45L33 44L35 44L35 46L36 46L36 44L37 44L37 46L38 46L38 45L39 45L39 44L40 44L40 43L38 43L38 42L40 42L40 41L36 41L36 42L37 42L37 43L36 43L36 44L35 44L35 43L34 43L34 41L35 41L35 40L34 40L34 39L36 39L36 40L38 40L38 38L37 38L37 39L36 39L36 37L35 37L35 36L37 36L37 37L38 37L38 36L39 36L39 34L40 34L40 33L39 33L39 32L38 32L38 33L37 33L37 32L36 32L36 31L35 31L35 30L36 30L36 29L35 29L35 27L36 27L36 26L37 26L37 25L39 25L39 27L40 27L40 25L39 25L39 24L40 24L40 21L41 21L41 22L42 22L42 21L43 21L43 22L45 22L45 21L48 21L48 20L47 20L47 18L46 18L46 16L45 16L45 15L44 15L44 16L41 16L41 15L38 15L38 14L37 14L37 13L36 13L36 14L35 14L35 11L34 11L34 9L33 9L33 11L34 11L34 13L32 13L32 12L31 12L31 11L30 11L30 12L28 12L28 11L27 11L27 10L26 10L26 11L23 11L23 10L24 10L24 9L22 9L22 11L21 11L21 8L22 8L22 6L21 6L21 5L19 5L19 3L18 3L18 4L17 4L17 2L18 2L18 1ZM31 1L31 2L32 2L32 1ZM35 1L35 2L36 2L36 3L35 3L35 4L34 4L34 6L33 6L33 8L35 8L35 9L36 9L36 8L35 8L35 7L36 7L36 5L37 5L37 4L36 4L36 3L37 3L37 2L36 2L36 1ZM35 4L35 5L36 5L36 4ZM23 5L23 8L26 8L26 5ZM24 6L24 7L25 7L25 6ZM27 6L27 7L28 7L28 6ZM29 6L29 10L30 10L30 9L31 9L31 10L32 10L32 9L31 9L31 8L30 8L30 6ZM34 6L34 7L35 7L35 6ZM37 6L37 7L38 7L38 6ZM40 6L40 7L41 7L41 6ZM0 9L0 10L1 10L1 9ZM37 9L37 10L38 10L38 12L39 12L39 14L42 14L42 15L43 15L43 14L44 14L44 13L43 13L43 14L42 14L42 13L41 13L41 12L39 12L39 10L38 10L38 9ZM42 9L42 10L43 10L43 9ZM19 11L19 13L20 13L20 11ZM26 11L26 12L25 12L25 13L24 13L24 14L23 14L23 13L22 13L22 12L21 12L21 13L22 13L22 14L23 14L23 15L25 15L25 16L26 16L26 17L25 17L25 18L27 18L27 19L24 19L24 18L23 18L23 17L21 17L21 19L22 19L22 18L23 18L23 19L24 19L24 22L23 22L23 21L22 21L22 20L21 20L21 22L22 22L22 23L21 23L21 24L19 24L19 23L17 23L17 24L19 24L19 27L18 27L18 25L17 25L17 29L16 29L16 27L15 27L15 31L14 31L14 32L12 32L12 30L10 30L10 33L11 33L11 32L12 32L12 34L13 34L13 35L14 35L14 36L15 36L15 37L16 37L16 36L15 36L15 33L16 33L16 32L17 32L17 31L16 31L16 30L17 30L17 29L18 29L18 31L19 31L19 35L20 35L20 33L21 33L21 34L22 34L22 35L21 35L21 36L20 36L20 37L21 37L21 36L22 36L22 37L23 37L23 38L24 38L24 37L27 37L27 36L25 36L25 35L27 35L27 34L29 34L29 35L28 35L28 37L30 37L30 41L29 41L29 42L31 42L31 43L33 43L33 42L31 42L31 40L32 40L32 41L33 41L33 40L32 40L32 39L31 39L31 37L34 37L34 36L35 36L35 33L36 33L36 32L35 32L35 31L34 31L34 32L33 32L33 30L31 30L31 29L29 29L29 28L32 28L32 29L33 29L33 28L32 28L32 26L33 26L33 25L37 25L37 24L38 24L38 22L39 22L39 21L38 21L38 20L39 20L39 17L37 17L37 16L38 16L38 15L37 15L37 14L36 14L36 15L35 15L35 16L34 16L34 15L33 15L33 14L32 14L32 13L29 13L29 14L28 14L28 15L27 15L27 14L25 14L25 13L27 13L27 11ZM36 11L36 12L37 12L37 11ZM0 12L0 15L2 15L2 16L3 16L3 13L2 13L2 14L1 14L1 12ZM11 13L11 14L8 14L8 15L7 15L7 16L8 16L8 15L10 15L10 17L9 17L9 19L10 19L10 20L11 20L11 19L10 19L10 18L11 18L11 17L12 17L12 16L11 16L11 15L12 15L12 13ZM20 14L20 15L19 15L19 19L18 19L18 20L17 20L17 18L18 18L18 16L17 16L17 18L16 18L16 19L15 19L15 17L16 17L16 15L14 15L14 17L13 17L13 18L12 18L12 20L17 20L17 22L19 22L19 21L20 21L20 15L21 15L21 16L22 16L22 15L21 15L21 14ZM29 14L29 15L28 15L28 16L29 16L29 17L30 17L30 22L29 22L29 23L28 23L28 21L29 21L29 20L27 20L27 21L26 21L26 20L25 20L25 22L27 22L27 23L28 23L28 24L27 24L27 25L28 25L28 24L29 24L29 23L30 23L30 22L31 22L31 21L32 21L32 22L33 22L33 23L32 23L32 24L34 24L34 21L35 21L35 22L36 22L36 23L35 23L35 24L37 24L37 22L38 22L38 21L37 21L37 22L36 22L36 20L37 20L37 19L36 19L36 20L35 20L35 19L34 19L34 21L32 21L32 19L33 19L33 15L32 15L32 14L31 14L31 16L32 16L32 17L30 17L30 14ZM46 14L46 15L47 15L47 16L48 16L48 14ZM26 15L26 16L27 16L27 15ZM36 15L36 16L37 16L37 15ZM44 16L44 17L45 17L45 16ZM7 17L7 18L8 18L8 17ZM27 17L27 18L28 18L28 19L29 19L29 18L28 18L28 17ZM34 17L34 18L35 18L35 17ZM36 17L36 18L37 18L37 17ZM40 17L40 19L42 19L42 20L43 20L43 21L44 21L44 20L43 20L43 19L46 19L46 18L43 18L43 17ZM13 18L13 19L14 19L14 18ZM31 18L31 19L32 19L32 18ZM18 20L18 21L19 21L19 20ZM5 21L5 22L7 22L7 21ZM10 21L10 23L11 23L11 24L12 24L12 23L13 23L13 24L14 24L14 25L15 25L15 21L14 21L14 22L13 22L13 21L12 21L12 22L11 22L11 21ZM46 22L46 23L45 23L45 26L46 26L46 25L47 25L47 24L46 24L46 23L47 23L47 22ZM5 23L5 26L8 26L8 23ZM23 23L23 26L26 26L26 23ZM41 23L41 26L44 26L44 23ZM6 24L6 25L7 25L7 24ZM24 24L24 25L25 25L25 24ZM42 24L42 25L43 25L43 24ZM21 25L21 28L22 28L22 30L19 30L19 31L23 31L23 28L22 28L22 25ZM30 25L30 26L27 26L27 27L26 27L26 29L25 29L25 30L28 30L28 31L27 31L27 32L26 32L26 33L27 33L27 32L28 32L28 33L30 33L30 35L29 35L29 36L30 36L30 37L31 37L31 36L30 36L30 35L31 35L31 34L32 34L32 35L34 35L34 33L32 33L32 32L31 32L31 33L30 33L30 32L28 32L28 31L30 31L30 30L29 30L29 29L27 29L27 28L28 28L28 27L31 27L31 26L32 26L32 25ZM48 26L48 27L49 27L49 26ZM42 27L42 28L43 28L43 29L41 29L41 30L43 30L43 29L44 29L44 31L45 31L45 30L46 30L46 27L45 27L45 28L44 28L44 27ZM13 29L13 30L14 30L14 29ZM34 29L34 30L35 30L35 29ZM6 30L6 31L7 31L7 32L8 32L8 31L7 31L7 30ZM14 32L14 33L13 33L13 34L14 34L14 33L15 33L15 32ZM21 32L21 33L22 33L22 34L23 34L23 35L22 35L22 36L23 36L23 37L24 37L24 36L23 36L23 35L25 35L25 34L23 34L23 33L25 33L25 32L23 32L23 33L22 33L22 32ZM42 32L42 33L43 33L43 32ZM7 33L7 34L6 34L6 35L5 35L5 36L6 36L6 35L10 35L10 36L12 36L12 35L11 35L11 34L8 34L8 33ZM38 33L38 34L37 34L37 35L38 35L38 34L39 34L39 33ZM41 35L41 36L43 36L43 35ZM1 36L1 37L2 37L2 36ZM41 37L41 38L39 38L39 39L42 39L42 40L44 40L44 39L42 39L42 37ZM12 39L12 40L11 40L11 41L12 41L12 40L13 40L13 39ZM9 40L9 41L10 41L10 40ZM45 40L45 42L46 42L46 40ZM19 41L19 42L21 42L21 41ZM23 41L23 44L26 44L26 41ZM41 41L41 44L44 44L44 41ZM24 42L24 43L25 43L25 42ZM42 42L42 43L43 43L43 42ZM37 43L37 44L38 44L38 43ZM21 44L21 45L22 45L22 46L23 46L23 45L22 45L22 44ZM31 44L31 45L32 45L32 44ZM16 45L16 46L17 46L17 47L15 47L15 48L17 48L17 47L18 47L18 48L19 48L19 47L18 47L18 46L17 46L17 45ZM41 45L41 46L42 46L42 45ZM46 45L46 46L47 46L47 45ZM10 47L10 48L11 48L11 47ZM0 0L0 7L7 7L7 0ZM1 1L1 6L6 6L6 1ZM2 2L2 5L5 5L5 2ZM42 0L42 7L49 7L49 0ZM43 1L43 6L48 6L48 1ZM44 2L44 5L47 5L47 2ZM0 42L0 49L7 49L7 42ZM1 43L1 48L6 48L6 43ZM2 44L2 47L5 47L5 44Z" fill="#000000"/></g></g></svg>
