<?xml version="1.0" encoding="UTF-8"?>
<svg xmlns="http://www.w3.org/2000/svg" version="1.1" width="200" height="200" viewBox="0 0 200 200"><rect x="0" y="0" width="200" height="200" fill="#ffffff"/><g transform="scale(3.774)"><g transform="translate(2,2)"><path fill-rule="evenodd" d="M10 0L10 2L11 2L11 3L9 3L9 2L8 2L8 4L9 4L9 5L10 5L10 7L9 7L9 6L8 6L8 7L9 7L9 8L10 8L10 9L11 9L11 10L9 10L9 9L8 9L8 8L6 8L6 9L7 9L7 10L5 10L5 8L3 8L3 9L2 9L2 10L3 10L3 11L4 11L4 12L5 12L5 11L8 11L8 12L6 12L6 13L4 13L4 14L6 14L6 15L7 15L7 14L8 14L8 15L10 15L10 17L9 17L9 18L6 18L6 17L8 17L8 16L5 16L5 18L6 18L6 19L7 19L7 20L3 20L3 19L4 19L4 18L3 18L3 19L2 19L2 18L0 18L0 20L1 20L1 21L0 21L0 23L1 23L1 21L2 21L2 20L3 20L3 21L4 21L4 24L3 24L3 22L2 22L2 24L0 24L0 27L1 27L1 28L0 28L0 34L3 34L3 36L2 36L2 35L0 35L0 38L1 38L1 40L0 40L0 41L3 41L3 40L4 40L4 39L2 39L2 38L5 38L5 39L7 39L7 40L6 40L6 41L7 41L7 40L8 40L8 43L9 43L9 44L8 44L8 46L9 46L9 49L12 49L12 48L15 48L15 49L17 49L17 48L18 48L18 49L20 49L20 48L22 48L22 49L23 49L23 48L22 48L22 47L23 47L23 46L26 46L26 45L28 45L28 47L26 47L26 48L27 48L27 49L28 49L28 48L29 48L29 47L30 47L30 45L32 45L32 44L31 44L31 43L33 43L33 42L31 42L31 40L32 40L32 41L33 41L33 40L32 40L32 38L33 38L33 35L32 35L32 34L31 34L31 35L30 35L30 36L29 36L29 35L28 35L28 37L30 37L30 41L29 41L29 39L28 39L28 38L27 38L27 39L26 39L26 38L25 38L25 40L24 40L24 39L23 39L23 38L24 38L24 37L27 37L27 36L26 36L26 35L25 35L25 34L21 34L21 36L18 36L18 35L16 35L16 36L15 36L15 35L14 35L14 34L13 34L13 33L14 33L14 29L13 29L13 28L14 28L14 27L12 27L12 25L11 25L11 24L12 24L12 23L13 23L13 24L14 24L14 25L15 25L15 22L13 22L13 21L15 21L15 20L16 20L16 19L17 19L17 18L18 18L18 16L17 16L17 15L18 15L18 14L20 14L20 16L19 16L19 18L21 18L21 19L22 19L22 18L23 18L23 17L24 17L24 18L27 18L27 17L28 17L28 18L29 18L29 19L24 19L24 22L23 22L23 21L22 21L22 20L21 20L21 22L22 22L22 23L21 23L21 24L19 24L19 23L17 23L17 24L19 24L19 27L18 27L18 25L17 25L17 28L16 28L16 27L15 27L15 30L16 30L16 31L15 31L15 33L16 33L16 34L19 34L19 35L20 35L20 33L21 33L21 31L22 31L22 32L24 32L24 33L25 33L25 32L24 32L24 31L22 31L22 30L20 30L20 28L21 28L21 29L23 29L23 30L24 30L24 29L25 29L25 28L26 28L26 29L27 29L27 31L26 31L26 32L27 32L27 34L29 34L29 33L28 33L28 32L29 32L29 31L28 31L28 29L27 29L27 28L28 28L28 27L27 27L27 24L28 24L28 25L30 25L30 26L29 26L29 28L32 28L32 29L33 29L33 28L32 28L32 26L33 26L33 25L35 25L35 29L34 29L34 30L35 30L35 31L34 31L34 32L33 32L33 31L32 31L32 30L31 30L31 29L29 29L29 30L30 30L30 33L31 33L31 32L32 32L32 33L34 33L34 37L35 37L35 38L36 38L36 39L34 39L34 40L35 40L35 41L34 41L34 43L35 43L35 44L33 44L33 45L34 45L34 48L33 48L33 46L32 46L32 47L31 47L31 48L30 48L30 49L34 49L34 48L35 48L35 49L39 49L39 47L38 47L38 46L39 46L39 45L40 45L40 47L41 47L41 48L43 48L43 49L45 49L45 48L43 48L43 46L44 46L44 47L45 47L45 46L46 46L46 48L48 48L48 49L49 49L49 42L47 42L47 41L49 41L49 40L47 40L47 39L44 39L44 38L45 38L45 37L43 37L43 36L44 36L44 35L43 35L43 34L41 34L41 32L40 32L40 31L37 31L37 28L36 28L36 27L37 27L37 26L38 26L38 28L39 28L39 29L40 29L40 30L41 30L41 31L44 31L44 34L45 34L45 35L46 35L46 36L47 36L47 38L48 38L48 39L49 39L49 38L48 38L48 37L49 37L49 34L48 34L48 33L45 33L45 31L46 31L46 30L47 30L47 32L49 32L49 30L47 30L47 28L48 28L48 29L49 29L49 26L48 26L48 27L47 27L47 25L48 25L48 23L49 23L49 22L48 22L48 21L49 21L49 18L47 18L47 17L49 17L49 14L48 14L48 13L49 13L49 12L48 12L48 11L49 11L49 10L48 10L48 9L47 9L47 8L45 8L45 9L44 9L44 10L45 10L45 9L46 9L46 10L47 10L47 11L46 11L46 12L47 12L47 13L45 13L45 11L40 11L40 12L41 12L41 13L42 13L42 14L39 14L39 12L38 12L38 10L39 10L39 5L38 5L38 4L37 4L37 3L38 3L38 2L39 2L39 4L40 4L40 3L41 3L41 0L40 0L40 1L36 1L36 0L33 0L33 1L32 1L32 3L31 3L31 4L23 4L23 2L22 2L22 0L21 0L21 1L20 1L20 2L22 2L22 8L21 8L21 4L20 4L20 3L19 3L19 1L18 1L18 0L17 0L17 1L16 1L16 0L12 0L12 1L13 1L13 2L14 2L14 4L16 4L16 5L17 5L17 4L18 4L18 3L19 3L19 6L18 6L18 7L17 7L17 6L16 6L16 7L17 7L17 8L18 8L18 7L19 7L19 6L20 6L20 8L19 8L19 9L17 9L17 10L19 10L19 9L20 9L20 8L21 8L21 11L22 11L22 9L24 9L24 10L23 10L23 11L25 11L25 12L26 12L26 13L24 13L24 14L23 14L23 13L22 13L22 12L21 12L21 13L18 13L18 12L17 12L17 11L16 11L16 12L15 12L15 13L16 13L16 14L15 14L15 15L14 15L14 17L13 17L13 16L12 16L12 17L11 17L11 15L12 15L12 14L11 14L11 13L9 13L9 11L12 11L12 13L13 13L13 11L12 11L12 10L14 10L14 11L15 11L15 10L14 10L14 8L15 8L15 9L16 9L16 8L15 8L15 5L14 5L14 7L13 7L13 6L12 6L12 5L13 5L13 4L12 4L12 2L11 2L11 0ZM24 0L24 1L25 1L25 3L26 3L26 0ZM27 0L27 1L28 1L28 3L29 3L29 2L31 2L31 0L30 0L30 1L29 1L29 0ZM17 1L17 2L15 2L15 3L17 3L17 2L18 2L18 1ZM35 1L35 2L36 2L36 3L35 3L35 4L34 4L34 3L32 3L32 4L31 4L31 5L30 5L30 6L29 6L29 5L27 5L27 7L28 7L28 6L29 6L29 8L30 8L30 6L31 6L31 8L32 8L32 5L33 5L33 4L34 4L34 6L33 6L33 8L35 8L35 9L36 9L36 8L35 8L35 7L36 7L36 5L37 5L37 4L36 4L36 3L37 3L37 2L36 2L36 1ZM10 4L10 5L12 5L12 4ZM35 4L35 5L36 5L36 4ZM23 5L23 8L26 8L26 5ZM11 6L11 7L10 7L10 8L13 8L13 7L12 7L12 6ZM24 6L24 7L25 7L25 6ZM34 6L34 7L35 7L35 6ZM37 6L37 7L38 7L38 6ZM40 6L40 7L41 7L41 6ZM29 9L29 11L30 11L30 12L28 12L28 11L27 11L27 10L26 10L26 11L27 11L27 13L26 13L26 14L25 14L25 15L26 15L26 16L25 16L25 17L26 17L26 16L27 16L27 15L28 15L28 14L29 14L29 17L30 17L30 19L29 19L29 20L27 20L27 21L26 21L26 20L25 20L25 22L27 22L27 23L28 23L28 24L29 24L29 23L30 23L30 24L31 24L31 22L29 22L29 23L28 23L28 21L30 21L30 19L31 19L31 21L32 21L32 22L33 22L33 23L32 23L32 24L34 24L34 21L35 21L35 22L36 22L36 23L35 23L35 24L37 24L37 25L38 25L38 24L40 24L40 21L41 21L41 22L42 22L42 21L43 21L43 22L45 22L45 21L48 21L48 20L47 20L47 18L46 18L46 16L45 16L45 15L44 15L44 16L41 16L41 15L38 15L38 14L37 14L37 13L36 13L36 14L37 14L37 15L36 15L36 16L37 16L37 17L36 17L36 18L37 18L37 17L39 17L39 20L38 20L38 21L37 21L37 22L36 22L36 20L37 20L37 19L36 19L36 20L35 20L35 19L34 19L34 21L32 21L32 19L33 19L33 16L32 16L32 18L31 18L31 17L30 17L30 14L29 14L29 13L32 13L32 14L31 14L31 15L32 15L32 14L33 14L33 15L34 15L34 16L35 16L35 11L34 11L34 9L33 9L33 11L34 11L34 13L32 13L32 12L31 12L31 10L32 10L32 9ZM37 9L37 10L38 10L38 9ZM40 9L40 10L41 10L41 9ZM42 9L42 10L43 10L43 9ZM4 10L4 11L5 11L5 10ZM19 11L19 12L20 12L20 11ZM36 11L36 12L37 12L37 11ZM0 12L0 13L1 13L1 14L0 14L0 15L2 15L2 16L3 16L3 13L1 13L1 12ZM16 12L16 13L17 13L17 14L18 14L18 13L17 13L17 12ZM6 13L6 14L7 14L7 13ZM8 13L8 14L9 14L9 13ZM43 13L43 14L42 14L42 15L43 15L43 14L44 14L44 13ZM21 14L21 15L23 15L23 16L22 16L22 17L23 17L23 16L24 16L24 15L23 15L23 14ZM46 14L46 15L47 15L47 16L48 16L48 14ZM37 15L37 16L38 16L38 15ZM20 16L20 17L21 17L21 16ZM44 16L44 17L40 17L40 19L42 19L42 20L43 20L43 21L44 21L44 20L43 20L43 19L46 19L46 18L45 18L45 16ZM15 17L15 18L12 18L12 20L8 20L8 21L11 21L11 22L12 22L12 21L13 21L13 19L14 19L14 20L15 20L15 18L16 18L16 17ZM34 17L34 18L35 18L35 17ZM10 18L10 19L11 19L11 18ZM1 19L1 20L2 20L2 19ZM19 19L19 21L20 21L20 19ZM5 21L5 22L7 22L7 21ZM17 21L17 22L18 22L18 21ZM38 21L38 22L37 22L37 23L38 23L38 22L39 22L39 21ZM9 22L9 24L11 24L11 23L10 23L10 22ZM46 22L46 23L45 23L45 26L46 26L46 25L47 25L47 24L46 24L46 23L47 23L47 22ZM5 23L5 26L8 26L8 23ZM23 23L23 26L26 26L26 23ZM41 23L41 26L44 26L44 23ZM6 24L6 25L7 25L7 24ZM24 24L24 25L25 25L25 24ZM42 24L42 25L43 25L43 24ZM1 25L1 27L2 27L2 28L3 28L3 29L1 29L1 30L4 30L4 31L1 31L1 33L2 33L2 32L4 32L4 31L5 31L5 32L7 32L7 33L6 33L6 34L5 34L5 35L4 35L4 37L5 37L5 38L7 38L7 37L6 37L6 36L9 36L9 35L6 35L6 34L7 34L7 33L8 33L8 34L11 34L11 35L12 35L12 36L11 36L11 37L12 37L12 36L13 36L13 34L12 34L12 32L13 32L13 31L11 31L11 30L12 30L12 28L11 28L11 29L10 29L10 31L11 31L11 32L10 32L10 33L8 33L8 32L7 32L7 31L8 31L8 30L9 30L9 29L6 29L6 30L5 30L5 29L4 29L4 28L3 28L3 27L2 27L2 26L3 26L3 25ZM10 25L10 27L5 27L5 28L10 28L10 27L11 27L11 25ZM21 25L21 28L22 28L22 25ZM31 25L31 26L30 26L30 27L31 27L31 26L32 26L32 25ZM39 25L39 27L40 27L40 25ZM26 27L26 28L27 28L27 27ZM42 27L42 28L41 28L41 30L43 30L43 29L44 29L44 31L45 31L45 30L46 30L46 27L45 27L45 28L44 28L44 27ZM42 28L42 29L43 29L43 28ZM16 29L16 30L17 30L17 31L16 31L16 33L19 33L19 32L20 32L20 30L18 30L18 29ZM35 29L35 30L36 30L36 29ZM6 30L6 31L7 31L7 30ZM17 31L17 32L18 32L18 31ZM27 31L27 32L28 32L28 31ZM35 31L35 32L36 32L36 33L35 33L35 36L37 36L37 37L36 37L36 38L37 38L37 39L36 39L36 40L38 40L38 38L37 38L37 37L39 37L39 34L40 34L40 33L39 33L39 32L38 32L38 33L37 33L37 32L36 32L36 31ZM42 32L42 33L43 33L43 32ZM3 33L3 34L4 34L4 33ZM38 33L38 34L37 34L37 36L38 36L38 34L39 34L39 33ZM5 35L5 36L6 36L6 35ZM41 35L41 36L43 36L43 35ZM14 36L14 37L13 37L13 38L14 38L14 37L15 37L15 39L14 39L14 40L13 40L13 39L12 39L12 38L11 38L11 39L12 39L12 41L13 41L13 42L14 42L14 43L11 43L11 44L10 44L10 46L11 46L11 47L10 47L10 48L11 48L11 47L14 47L14 46L15 46L15 45L14 45L14 43L16 43L16 44L17 44L17 45L16 45L16 46L17 46L17 47L15 47L15 48L17 48L17 47L18 47L18 48L19 48L19 47L20 47L20 44L21 44L21 43L22 43L22 41L21 41L21 42L20 42L20 44L19 44L19 37L18 37L18 36L16 36L16 37L15 37L15 36ZM21 36L21 37L22 37L22 38L23 38L23 37L24 37L24 36L23 36L23 37L22 37L22 36ZM30 36L30 37L31 37L31 38L32 38L32 37L31 37L31 36ZM16 37L16 38L17 38L17 39L18 39L18 38L17 38L17 37ZM41 37L41 38L39 38L39 39L42 39L42 40L44 40L44 39L42 39L42 37ZM8 38L8 39L10 39L10 38ZM20 39L20 40L22 40L22 39ZM27 39L27 40L28 40L28 39ZM9 40L9 41L10 41L10 40ZM17 40L17 41L18 41L18 40ZM45 40L45 42L46 42L46 40ZM15 41L15 42L16 42L16 43L17 43L17 42L16 42L16 41ZM23 41L23 44L26 44L26 41ZM27 41L27 44L28 44L28 45L29 45L29 44L30 44L30 43L31 43L31 42L28 42L28 41ZM36 41L36 42L37 42L37 43L36 43L36 44L35 44L35 46L36 46L36 44L37 44L37 46L38 46L38 45L39 45L39 44L40 44L40 43L38 43L38 42L40 42L40 41ZM41 41L41 44L44 44L44 41ZM24 42L24 43L25 43L25 42ZM42 42L42 43L43 43L43 42ZM28 43L28 44L29 44L29 43ZM37 43L37 44L38 44L38 43ZM45 43L45 45L44 45L44 46L45 46L45 45L47 45L47 47L48 47L48 43ZM12 44L12 46L13 46L13 44ZM17 45L17 46L18 46L18 47L19 47L19 45ZM41 45L41 46L42 46L42 45ZM24 47L24 48L25 48L25 47ZM35 47L35 48L38 48L38 47ZM0 0L0 7L7 7L7 0ZM1 1L1 6L6 6L6 1ZM2 2L2 5L5 5L5 2ZM42 0L42 7L49 7L49 0ZM43 1L43 6L48 6L48 1ZM44 2L44 5L47 5L47 2ZM0 42L0 49L7 49L7 42ZM1 43L1 48L6 48L6 43ZM2 44L2 47L5 47L5 44Z" fill="#000000"/></g></g></svg>
