<?xml version="1.0" encoding="UTF-8"?>
<svg xmlns="http://www.w3.org/2000/svg" version="1.1" width="200" height="200" viewBox="0 0 200 200"><rect x="0" y="0" width="200" height="200" fill="#ffffff"/><g transform="scale(3.774)"><g transform="translate(2,2)"><path fill-rule="evenodd" d="M8 0L8 3L9 3L9 2L10 2L10 3L12 3L12 2L11 2L11 1L13 1L13 0L11 0L11 1L9 1L9 0ZM15 0L15 1L16 1L16 3L17 3L17 5L18 5L18 3L20 3L20 4L21 4L21 3L22 3L22 2L24 2L24 1L25 1L25 2L26 2L26 1L28 1L28 0L24 0L24 1L23 1L23 0L19 0L19 1L18 1L18 2L17 2L17 0ZM29 0L29 2L27 2L27 3L26 3L26 4L22 4L22 5L19 5L19 6L18 6L18 8L15 8L15 10L17 10L17 11L18 11L18 12L20 12L20 11L21 11L21 13L17 13L17 15L16 15L16 13L15 13L15 15L16 15L16 18L15 18L15 17L13 17L13 18L15 18L15 19L14 19L14 20L13 20L13 19L12 19L12 18L11 18L11 19L10 19L10 18L9 18L9 17L7 17L7 16L6 16L6 17L7 17L7 18L6 18L6 19L7 19L7 18L8 18L8 19L9 19L9 20L13 20L13 21L12 21L12 23L13 23L13 27L12 27L12 24L11 24L11 21L10 21L10 23L9 23L9 22L8 22L8 21L7 21L7 20L5 20L5 21L7 21L7 22L4 22L4 19L5 19L5 17L3 17L3 16L4 16L4 15L5 15L5 14L4 14L4 13L7 13L7 12L5 12L5 11L4 11L4 9L5 9L5 8L2 8L2 10L0 10L0 15L1 15L1 14L2 14L2 15L3 15L3 16L2 16L2 17L3 17L3 18L0 18L0 20L1 20L1 21L0 21L0 23L1 23L1 22L3 22L3 25L1 25L1 24L0 24L0 27L1 27L1 28L0 28L0 31L1 31L1 29L2 29L2 32L1 32L1 36L0 36L0 38L1 38L1 40L0 40L0 41L3 41L3 40L4 40L4 39L2 39L2 37L1 37L1 36L3 36L3 37L4 37L4 38L5 38L5 39L7 39L7 40L6 40L6 41L7 41L7 40L8 40L8 39L7 39L7 38L5 38L5 37L7 37L7 36L5 36L5 35L8 35L8 36L9 36L9 35L8 35L8 34L10 34L10 38L11 38L11 35L12 35L12 34L13 34L13 36L15 36L15 37L14 37L14 39L13 39L13 40L10 40L10 41L13 41L13 40L14 40L14 41L15 41L15 40L17 40L17 39L18 39L18 38L19 38L19 36L18 36L18 34L19 34L19 35L22 35L22 33L24 33L24 32L23 32L23 30L24 30L24 28L26 28L26 30L27 30L27 31L26 31L26 35L27 35L27 36L28 36L28 35L27 35L27 33L29 33L29 36L33 36L33 37L32 37L32 38L34 38L34 39L31 39L31 37L30 37L30 40L29 40L29 38L28 38L28 37L25 37L25 36L23 36L23 38L24 38L24 37L25 37L25 38L27 38L27 39L28 39L28 40L26 40L26 39L25 39L25 40L24 40L24 39L23 39L23 40L22 40L22 38L20 38L20 39L19 39L19 42L18 42L18 41L17 41L17 42L15 42L15 43L16 43L16 44L14 44L14 43L13 43L13 42L12 42L12 43L10 43L10 44L8 44L8 47L10 47L10 48L9 48L9 49L10 49L10 48L11 48L11 47L12 47L12 48L13 48L13 49L16 49L16 48L17 48L17 49L19 49L19 48L20 48L20 49L21 49L21 47L22 47L22 48L23 48L23 49L24 49L24 48L25 48L25 49L26 49L26 48L27 48L27 47L26 47L26 48L25 48L25 47L24 47L24 46L26 46L26 45L27 45L27 46L28 46L28 47L29 47L29 49L31 49L31 48L33 48L33 49L35 49L35 48L36 48L36 49L39 49L39 48L40 48L40 49L42 49L42 48L43 48L43 46L47 46L47 47L48 47L48 48L46 48L46 47L45 47L45 48L46 48L46 49L49 49L49 42L48 42L48 41L49 41L49 40L48 40L48 41L47 41L47 40L46 40L46 41L45 41L45 40L42 40L42 39L43 39L43 37L45 37L45 38L46 38L46 39L47 39L47 38L48 38L48 39L49 39L49 38L48 38L48 37L49 37L49 34L48 34L48 33L47 33L47 32L49 32L49 30L48 30L48 29L49 29L49 26L48 26L48 28L46 28L46 26L47 26L47 24L46 24L46 23L47 23L47 22L48 22L48 23L49 23L49 22L48 22L48 21L49 21L49 18L48 18L48 17L49 17L49 14L48 14L48 13L49 13L49 12L48 12L48 13L47 13L47 12L46 12L46 11L45 11L45 10L46 10L46 9L47 9L47 10L48 10L48 11L49 11L49 10L48 10L48 9L49 9L49 8L46 8L46 9L45 9L45 10L44 10L44 11L42 11L42 10L43 10L43 9L44 9L44 8L40 8L40 7L41 7L41 6L40 6L40 7L39 7L39 5L38 5L38 4L37 4L37 3L36 3L36 2L37 2L37 1L38 1L38 2L39 2L39 4L40 4L40 3L41 3L41 0L40 0L40 1L38 1L38 0L37 0L37 1L36 1L36 2L35 2L35 1L34 1L34 0L32 0L32 2L31 2L31 3L33 3L33 4L32 4L32 5L31 5L31 4L30 4L30 5L31 5L31 6L30 6L30 7L31 7L31 8L29 8L29 6L28 6L28 8L27 8L27 4L28 4L28 5L29 5L29 4L28 4L28 3L29 3L29 2L30 2L30 0ZM20 1L20 3L21 3L21 1ZM33 1L33 2L34 2L34 5L33 5L33 7L32 7L32 6L31 6L31 7L32 7L32 8L31 8L31 10L32 10L32 11L33 11L33 12L32 12L32 13L31 13L31 11L30 11L30 9L29 9L29 8L28 8L28 9L26 9L26 10L29 10L29 11L28 11L28 12L27 12L27 13L26 13L26 12L25 12L25 11L24 11L24 9L23 9L23 10L22 10L22 6L21 6L21 7L20 7L20 6L19 6L19 10L18 10L18 11L20 11L20 9L21 9L21 10L22 10L22 11L24 11L24 13L22 13L22 14L20 14L20 15L19 15L19 14L18 14L18 15L17 15L17 18L18 18L18 20L19 20L19 22L18 22L18 23L17 23L17 22L15 22L15 21L16 21L16 20L15 20L15 21L13 21L13 22L14 22L14 23L17 23L17 24L18 24L18 27L20 27L20 29L21 29L21 27L22 27L22 30L23 30L23 27L22 27L22 26L21 26L21 24L22 24L22 22L24 22L24 19L25 19L25 20L27 20L27 21L28 21L28 22L27 22L27 23L28 23L28 22L30 22L30 19L32 19L32 20L35 20L35 21L34 21L34 22L32 22L32 24L31 24L31 25L30 25L30 23L29 23L29 24L27 24L27 29L28 29L28 28L29 28L29 26L28 26L28 25L30 25L30 26L31 26L31 27L34 27L34 26L36 26L36 24L37 24L37 26L39 26L39 27L36 27L36 28L30 28L30 29L29 29L29 30L30 30L30 29L34 29L34 30L32 30L32 31L29 31L29 33L30 33L30 32L33 32L33 31L34 31L34 30L35 30L35 32L34 32L34 34L33 34L33 35L34 35L34 38L35 38L35 39L34 39L34 40L31 40L31 42L30 42L30 41L29 41L29 40L28 40L28 42L27 42L27 43L28 43L28 42L30 42L30 43L29 43L29 44L30 44L30 45L31 45L31 46L29 46L29 45L28 45L28 46L29 46L29 47L30 47L30 48L31 48L31 47L34 47L34 48L35 48L35 47L36 47L36 48L37 48L37 47L36 47L36 44L38 44L38 45L37 45L37 46L39 46L39 47L38 47L38 48L39 48L39 47L40 47L40 46L41 46L41 48L42 48L42 45L40 45L40 46L39 46L39 44L38 44L38 43L39 43L39 40L41 40L41 39L42 39L42 36L43 36L43 35L44 35L44 36L45 36L45 37L46 37L46 38L47 38L47 37L48 37L48 34L47 34L47 33L46 33L46 32L47 32L47 31L48 31L48 30L47 30L47 29L46 29L46 28L45 28L45 27L42 27L42 28L43 28L43 29L44 29L44 30L43 30L43 31L42 31L42 29L40 29L40 30L39 30L39 29L38 29L38 28L41 28L41 27L40 27L40 26L39 26L39 25L38 25L38 24L39 24L39 23L40 23L40 22L42 22L42 21L43 21L43 22L44 22L44 21L46 21L46 22L45 22L45 23L46 23L46 22L47 22L47 21L48 21L48 20L47 20L47 19L48 19L48 18L47 18L47 17L48 17L48 14L47 14L47 15L45 15L45 16L42 16L42 17L41 17L41 16L39 16L39 17L40 17L40 18L37 18L37 17L38 17L38 16L37 16L37 15L36 15L36 16L35 16L35 18L34 18L34 17L33 17L33 16L34 16L34 14L36 14L36 12L39 12L39 13L37 13L37 14L39 14L39 13L40 13L40 15L41 15L41 14L42 14L42 15L44 15L44 14L46 14L46 12L43 12L43 13L44 13L44 14L42 14L42 11L41 11L41 10L42 10L42 9L40 9L40 8L39 8L39 7L38 7L38 6L37 6L37 10L39 10L39 9L40 9L40 12L39 12L39 11L36 11L36 10L35 10L35 9L36 9L36 8L35 8L35 7L36 7L36 6L35 6L35 7L34 7L34 5L37 5L37 4L36 4L36 3L35 3L35 2L34 2L34 1ZM13 2L13 3L15 3L15 2ZM9 4L9 5L8 5L8 9L7 9L7 8L6 8L6 9L7 9L7 10L6 10L6 11L8 11L8 12L9 12L9 13L8 13L8 14L6 14L6 15L9 15L9 16L10 16L10 17L12 17L12 16L13 16L13 15L14 15L14 14L13 14L13 15L11 15L11 16L10 16L10 13L12 13L12 12L13 12L13 11L11 11L11 12L9 12L9 11L8 11L8 9L9 9L9 10L13 10L13 9L14 9L14 8L13 8L13 6L14 6L14 7L15 7L15 4L14 4L14 5L13 5L13 6L12 6L12 7L11 7L11 5L10 5L10 4ZM23 5L23 8L26 8L26 5ZM9 6L9 9L11 9L11 8L10 8L10 6ZM16 6L16 7L17 7L17 6ZM24 6L24 7L25 7L25 6ZM33 7L33 8L32 8L32 9L33 9L33 10L34 10L34 12L33 12L33 13L32 13L32 14L31 14L31 13L30 13L30 12L28 12L28 13L27 13L27 14L25 14L25 13L24 13L24 14L23 14L23 15L21 15L21 16L19 16L19 18L20 18L20 20L21 20L21 21L20 21L20 23L21 23L21 21L23 21L23 20L22 20L22 19L23 19L23 18L24 18L24 17L25 17L25 19L28 19L28 21L29 21L29 17L32 17L32 16L33 16L33 14L34 14L34 13L35 13L35 10L34 10L34 7ZM38 8L38 9L39 9L39 8ZM1 11L1 12L3 12L3 13L2 13L2 14L3 14L3 15L4 15L4 14L3 14L3 13L4 13L4 11ZM14 11L14 12L16 12L16 11ZM40 12L40 13L41 13L41 12ZM28 13L28 14L27 14L27 15L29 15L29 16L25 16L25 17L29 17L29 16L30 16L30 14L29 14L29 13ZM21 16L21 18L23 18L23 17L24 17L24 16ZM36 16L36 17L37 17L37 16ZM46 16L46 17L44 17L44 18L45 18L45 19L43 19L43 17L42 17L42 20L46 20L46 21L47 21L47 20L46 20L46 19L47 19L47 18L46 18L46 17L47 17L47 16ZM33 18L33 19L34 19L34 18ZM36 18L36 19L35 19L35 20L36 20L36 22L37 22L37 23L39 23L39 22L40 22L40 21L41 21L41 20L40 20L40 19L39 19L39 20L40 20L40 21L39 21L39 22L37 22L37 20L36 20L36 19L37 19L37 18ZM2 19L2 21L3 21L3 19ZM25 21L25 22L26 22L26 21ZM34 22L34 23L33 23L33 26L34 26L34 23L35 23L35 24L36 24L36 23L35 23L35 22ZM5 23L5 26L8 26L8 23ZM18 23L18 24L19 24L19 23ZM23 23L23 26L26 26L26 23ZM41 23L41 26L44 26L44 23ZM6 24L6 25L7 25L7 24ZM10 24L10 25L9 25L9 26L11 26L11 24ZM14 24L14 25L16 25L16 26L14 26L14 27L15 27L15 29L14 29L14 28L13 28L13 29L14 29L14 31L12 31L12 29L11 29L11 31L10 31L10 29L8 29L8 27L3 27L3 29L5 29L5 31L3 31L3 33L2 33L2 34L3 34L3 35L4 35L4 34L5 34L5 32L7 32L7 33L6 33L6 34L8 34L8 33L11 33L11 34L12 34L12 32L13 32L13 34L14 34L14 35L16 35L16 36L17 36L17 37L16 37L16 38L15 38L15 39L17 39L17 37L18 37L18 36L17 36L17 34L18 34L18 33L16 33L16 34L14 34L14 31L15 31L15 32L17 32L17 31L18 31L18 32L19 32L19 33L20 33L20 32L21 32L21 33L22 33L22 31L19 31L19 30L17 30L17 29L18 29L18 28L17 28L17 29L16 29L16 26L17 26L17 25L16 25L16 24ZM24 24L24 25L25 25L25 24ZM42 24L42 25L43 25L43 24ZM45 24L45 25L46 25L46 24ZM3 25L3 26L4 26L4 25ZM31 25L31 26L32 26L32 25ZM20 26L20 27L21 27L21 26ZM10 27L10 28L11 28L11 27ZM6 28L6 29L7 29L7 28ZM36 28L36 29L35 29L35 30L36 30L36 32L35 32L35 33L36 33L36 32L37 32L37 31L39 31L39 30L37 30L37 28ZM44 28L44 29L45 29L45 30L44 30L44 31L43 31L43 32L42 32L42 33L45 33L45 32L46 32L46 31L47 31L47 30L46 30L46 29L45 29L45 28ZM15 29L15 30L16 30L16 29ZM6 30L6 31L7 31L7 32L8 32L8 31L7 31L7 30ZM40 30L40 31L41 31L41 30ZM44 31L44 32L45 32L45 31ZM39 32L39 34L37 34L37 35L38 35L38 36L36 36L36 34L34 34L34 35L35 35L35 36L36 36L36 37L38 37L38 36L39 36L39 37L40 37L40 39L41 39L41 37L40 37L40 36L39 36L39 35L41 35L41 36L42 36L42 35L43 35L43 34L42 34L42 35L41 35L41 34L40 34L40 32ZM31 33L31 34L30 34L30 35L31 35L31 34L32 34L32 33ZM44 34L44 35L45 35L45 36L46 36L46 37L47 37L47 36L46 36L46 35L47 35L47 34ZM20 36L20 37L21 37L21 36ZM36 38L36 39L35 39L35 40L36 40L36 41L38 41L38 40L36 40L36 39L39 39L39 38ZM20 39L20 40L21 40L21 39ZM8 41L8 42L9 42L9 41ZM23 41L23 44L26 44L26 41ZM33 41L33 42L34 42L34 41ZM41 41L41 44L44 44L44 41ZM46 41L46 44L45 44L45 45L46 45L46 44L47 44L47 46L48 46L48 42L47 42L47 41ZM17 42L17 44L16 44L16 45L13 45L13 46L12 46L12 44L13 44L13 43L12 43L12 44L10 44L10 45L9 45L9 46L12 46L12 47L15 47L15 46L16 46L16 45L18 45L18 46L19 46L19 47L17 47L17 48L19 48L19 47L21 47L21 45L19 45L19 44L21 44L21 42L20 42L20 43L18 43L18 42ZM24 42L24 43L25 43L25 42ZM36 42L36 43L35 43L35 44L36 44L36 43L38 43L38 42ZM42 42L42 43L43 43L43 42ZM31 43L31 44L33 44L33 45L32 45L32 46L34 46L34 47L35 47L35 46L34 46L34 43ZM0 0L0 7L7 7L7 0ZM1 1L1 6L6 6L6 1ZM2 2L2 5L5 5L5 2ZM42 0L42 7L49 7L49 0ZM43 1L43 6L48 6L48 1ZM44 2L44 5L47 5L47 2ZM0 42L0 49L7 49L7 42ZM1 43L1 48L6 48L6 43ZM2 44L2 47L5 47L5 44Z" fill="#000000"/></g></g></svg>
