<?xml version="1.0" encoding="UTF-8"?>
<svg xmlns="http://www.w3.org/2000/svg" version="1.1" width="200" height="200" viewBox="0 0 200 200"><rect x="0" y="0" width="200" height="200" fill="#ffffff"/><g transform="scale(3.774)"><g transform="translate(2,2)"><path fill-rule="evenodd" d="M10 0L10 2L11 2L11 3L9 3L9 2L8 2L8 4L9 4L9 5L10 5L10 7L9 7L9 6L8 6L8 7L9 7L9 8L10 8L10 7L11 7L11 10L9 10L9 9L8 9L8 8L6 8L6 9L7 9L7 10L5 10L5 8L3 8L3 9L0 9L0 13L1 13L1 14L0 14L0 15L2 15L2 16L3 16L3 13L1 13L1 11L2 11L2 10L3 10L3 9L4 9L4 10L5 10L5 11L4 11L4 14L5 14L5 16L4 16L4 17L5 17L5 18L3 18L3 19L2 19L2 22L3 22L3 21L4 21L4 23L2 23L2 24L0 24L0 27L1 27L1 28L0 28L0 32L3 32L3 33L2 33L2 34L3 34L3 36L2 36L2 35L1 35L1 34L0 34L0 37L1 37L1 36L2 36L2 38L1 38L1 40L0 40L0 41L3 41L3 40L4 40L4 39L2 39L2 38L5 38L5 39L7 39L7 40L6 40L6 41L7 41L7 40L8 40L8 43L10 43L10 44L8 44L8 46L9 46L9 49L12 49L12 48L15 48L15 49L17 49L17 48L18 48L18 49L20 49L20 48L22 48L22 49L23 49L23 48L22 48L22 47L23 47L23 46L25 46L25 47L24 47L24 48L25 48L25 47L27 47L27 49L29 49L29 46L30 46L30 45L32 45L32 44L30 44L30 43L29 43L29 42L31 42L31 43L33 43L33 42L31 42L31 40L32 40L32 41L33 41L33 40L32 40L32 39L31 39L31 38L33 38L33 36L34 36L34 37L35 37L35 39L34 39L34 40L35 40L35 41L34 41L34 43L35 43L35 44L33 44L33 45L34 45L34 48L33 48L33 46L32 46L32 47L31 47L31 49L34 49L34 48L35 48L35 49L38 49L38 46L39 46L39 45L40 45L40 47L41 47L41 48L43 48L43 49L45 49L45 48L43 48L43 46L44 46L44 47L46 47L46 48L48 48L48 49L49 49L49 42L47 42L47 41L49 41L49 40L47 40L47 39L44 39L44 38L45 38L45 37L43 37L43 36L44 36L44 35L43 35L43 34L41 34L41 32L40 32L40 31L37 31L37 28L36 28L36 27L37 27L37 26L38 26L38 28L39 28L39 29L40 29L40 30L41 30L41 31L44 31L44 34L45 34L45 35L46 35L46 36L47 36L47 38L48 38L48 39L49 39L49 38L48 38L48 37L49 37L49 34L48 34L48 33L45 33L45 31L46 31L46 30L47 30L47 32L49 32L49 30L47 30L47 29L49 29L49 28L48 28L48 27L49 27L49 26L48 26L48 27L47 27L47 25L48 25L48 23L49 23L49 22L48 22L48 21L49 21L49 18L47 18L47 17L49 17L49 14L48 14L48 13L49 13L49 12L48 12L48 11L49 11L49 10L48 10L48 9L47 9L47 8L45 8L45 9L44 9L44 10L45 10L45 9L46 9L46 10L47 10L47 11L46 11L46 12L47 12L47 13L45 13L45 11L39 11L39 12L38 12L38 10L39 10L39 5L38 5L38 4L37 4L37 3L38 3L38 2L39 2L39 4L40 4L40 3L41 3L41 0L40 0L40 1L36 1L36 0L32 0L32 1L31 1L31 0L29 0L29 2L28 2L28 3L29 3L29 2L30 2L30 1L31 1L31 2L32 2L32 3L31 3L31 4L22 4L22 2L25 2L25 3L26 3L26 1L28 1L28 0L25 0L25 1L23 1L23 0L22 0L22 1L20 1L20 2L21 2L21 4L22 4L22 5L20 5L20 4L19 4L19 6L18 6L18 7L19 7L19 6L20 6L20 7L21 7L21 8L22 8L22 9L21 9L21 11L22 11L22 9L24 9L24 10L23 10L23 11L25 11L25 12L26 12L26 10L27 10L27 11L28 11L28 12L30 12L30 11L31 11L31 12L32 12L32 13L29 13L29 14L28 14L28 15L29 15L29 14L30 14L30 17L28 17L28 16L26 16L26 15L27 15L27 13L24 13L24 14L23 14L23 15L24 15L24 16L26 16L26 17L25 17L25 18L28 18L28 19L24 19L24 22L23 22L23 21L22 21L22 20L21 20L21 22L22 22L22 23L21 23L21 24L19 24L19 23L17 23L17 24L19 24L19 27L18 27L18 25L17 25L17 29L15 29L15 30L14 30L14 29L13 29L13 28L14 28L14 27L12 27L12 25L11 25L11 24L12 24L12 23L13 23L13 24L14 24L14 25L15 25L15 22L13 22L13 21L12 21L12 22L11 22L11 19L10 19L10 18L12 18L12 20L14 20L14 21L15 21L15 20L17 20L17 18L18 18L18 16L17 16L17 15L18 15L18 14L16 14L16 13L14 13L14 14L16 14L16 15L14 15L14 17L13 17L13 15L11 15L11 14L12 14L12 13L11 13L11 12L10 12L10 13L9 13L9 11L12 11L12 12L13 12L13 11L14 11L14 12L15 12L15 11L14 11L14 9L13 9L13 8L12 8L12 7L13 7L13 3L12 3L12 2L11 2L11 0ZM12 0L12 1L13 1L13 2L14 2L14 4L15 4L15 2L17 2L17 3L16 3L16 7L17 7L17 4L18 4L18 3L19 3L19 1L18 1L18 0L17 0L17 1L16 1L16 0ZM17 1L17 2L18 2L18 1ZM32 1L32 2L33 2L33 1ZM35 1L35 2L36 2L36 3L35 3L35 4L34 4L34 3L33 3L33 4L32 4L32 5L30 5L30 6L29 6L29 5L27 5L27 7L28 7L28 6L29 6L29 7L30 7L30 10L32 10L32 9L31 9L31 8L32 8L32 5L33 5L33 4L34 4L34 6L33 6L33 8L35 8L35 9L36 9L36 8L35 8L35 7L36 7L36 5L37 5L37 4L36 4L36 3L37 3L37 2L36 2L36 1ZM11 3L11 4L10 4L10 5L12 5L12 3ZM35 4L35 5L36 5L36 4ZM14 5L14 8L15 8L15 9L16 9L16 8L15 8L15 5ZM23 5L23 8L26 8L26 5ZM11 6L11 7L12 7L12 6ZM21 6L21 7L22 7L22 6ZM24 6L24 7L25 7L25 6ZM30 6L30 7L31 7L31 6ZM34 6L34 7L35 7L35 6ZM37 6L37 7L38 7L38 6ZM40 6L40 7L41 7L41 6ZM19 8L19 9L18 9L18 12L20 12L20 13L19 13L19 14L22 14L22 12L20 12L20 11L19 11L19 9L20 9L20 8ZM33 9L33 11L34 11L34 13L32 13L32 14L31 14L31 16L32 16L32 17L30 17L30 19L29 19L29 20L27 20L27 21L26 21L26 20L25 20L25 22L27 22L27 27L26 27L26 28L22 28L22 25L21 25L21 28L19 28L19 29L21 29L21 33L20 33L20 35L19 35L19 32L18 32L18 35L17 35L17 34L16 34L16 33L17 33L17 32L16 32L16 31L17 31L17 30L18 30L18 29L17 29L17 30L16 30L16 31L14 31L14 30L13 30L13 29L12 29L12 30L11 30L11 29L10 29L10 30L11 30L11 31L12 31L12 30L13 30L13 31L14 31L14 32L13 32L13 34L12 34L12 32L9 32L9 28L10 28L10 27L11 27L11 25L10 25L10 27L5 27L5 28L7 28L7 29L5 29L5 30L4 30L4 31L3 31L3 29L4 29L4 28L3 28L3 27L2 27L2 26L3 26L3 25L1 25L1 27L2 27L2 29L1 29L1 31L3 31L3 32L4 32L4 31L6 31L6 32L9 32L9 33L10 33L10 34L8 34L8 33L6 33L6 34L5 34L5 35L4 35L4 37L5 37L5 38L7 38L7 37L6 37L6 36L7 36L7 35L8 35L8 36L9 36L9 38L8 38L8 39L10 39L10 36L11 36L11 35L12 35L12 37L11 37L11 38L12 38L12 39L11 39L11 40L13 40L13 42L12 42L12 41L11 41L11 42L10 42L10 43L11 43L11 44L10 44L10 46L11 46L11 47L10 47L10 48L11 48L11 47L14 47L14 46L12 46L12 44L13 44L13 42L14 42L14 45L15 45L15 42L16 42L16 41L17 41L17 45L16 45L16 46L17 46L17 47L15 47L15 48L17 48L17 47L18 47L18 48L19 48L19 47L20 47L20 43L18 43L18 42L19 42L19 38L18 38L18 35L19 35L19 37L20 37L20 40L21 40L21 41L22 41L22 40L21 40L21 37L22 37L22 38L23 38L23 39L24 39L24 40L25 40L25 38L26 38L26 39L27 39L27 38L28 38L28 40L29 40L29 41L30 41L30 37L31 37L31 36L30 36L30 34L32 34L32 35L34 35L34 33L32 33L32 32L28 32L28 31L30 31L30 30L29 30L29 29L31 29L31 31L32 31L32 28L33 28L33 32L34 32L34 31L35 31L35 32L36 32L36 33L35 33L35 36L37 36L37 34L38 34L38 37L39 37L39 34L40 34L40 33L39 33L39 32L38 32L38 33L37 33L37 32L36 32L36 31L35 31L35 30L36 30L36 29L35 29L35 27L36 27L36 26L37 26L37 25L36 25L36 26L35 26L35 25L33 25L33 26L32 26L32 25L31 25L31 26L32 26L32 28L29 28L29 27L30 27L30 25L28 25L28 24L29 24L29 23L30 23L30 24L31 24L31 22L29 22L29 23L28 23L28 21L29 21L29 20L30 20L30 21L32 21L32 22L33 22L33 23L32 23L32 24L34 24L34 21L35 21L35 22L36 22L36 23L35 23L35 24L37 24L37 22L38 22L38 24L40 24L40 21L41 21L41 22L42 22L42 21L43 21L43 22L45 22L45 21L48 21L48 20L47 20L47 18L46 18L46 16L45 16L45 15L44 15L44 16L41 16L41 15L38 15L38 14L37 14L37 13L35 13L35 11L34 11L34 9ZM37 9L37 10L38 10L38 9ZM40 9L40 10L41 10L41 9ZM42 9L42 10L43 10L43 9ZM12 10L12 11L13 11L13 10ZM5 11L5 12L8 12L8 11ZM16 11L16 12L17 12L17 11ZM36 11L36 12L37 12L37 11ZM39 12L39 14L42 14L42 15L43 15L43 14L44 14L44 13L43 13L43 14L42 14L42 13L41 13L41 12ZM5 13L5 14L7 14L7 15L6 15L6 16L7 16L7 17L6 17L6 18L5 18L5 19L3 19L3 20L7 20L7 19L6 19L6 18L7 18L7 17L10 17L10 15L9 15L9 16L7 16L7 15L8 15L8 14L9 14L9 13L8 13L8 14L7 14L7 13ZM25 14L25 15L26 15L26 14ZM32 14L32 16L33 16L33 17L32 17L32 18L31 18L31 19L30 19L30 20L31 20L31 19L32 19L32 21L34 21L34 19L35 19L35 20L36 20L36 22L37 22L37 21L38 21L38 22L39 22L39 21L38 21L38 20L39 20L39 17L37 17L37 16L38 16L38 15L37 15L37 14L35 14L35 16L34 16L34 15L33 15L33 14ZM46 14L46 15L47 15L47 16L48 16L48 14ZM19 15L19 17L20 17L20 18L19 18L19 19L18 19L18 20L19 20L19 21L17 21L17 22L19 22L19 21L20 21L20 18L21 18L21 19L22 19L22 18L23 18L23 17L22 17L22 15L21 15L21 17L20 17L20 15ZM36 15L36 16L37 16L37 15ZM44 16L44 17L40 17L40 19L42 19L42 20L43 20L43 21L44 21L44 20L43 20L43 18L44 18L44 19L46 19L46 18L45 18L45 16ZM15 17L15 19L14 19L14 20L15 20L15 19L16 19L16 17ZM34 17L34 18L35 18L35 17ZM36 17L36 18L37 18L37 17ZM0 18L0 19L1 19L1 18ZM8 18L8 19L9 19L9 18ZM36 19L36 20L37 20L37 19ZM8 20L8 21L9 21L9 24L11 24L11 23L10 23L10 21L9 21L9 20ZM5 21L5 22L7 22L7 21ZM0 22L0 23L1 23L1 22ZM46 22L46 23L45 23L45 26L46 26L46 25L47 25L47 24L46 24L46 23L47 23L47 22ZM5 23L5 26L8 26L8 23ZM23 23L23 26L26 26L26 23ZM41 23L41 26L44 26L44 23ZM6 24L6 25L7 25L7 24ZM24 24L24 25L25 25L25 24ZM42 24L42 25L43 25L43 24ZM39 25L39 27L40 27L40 25ZM28 26L28 27L29 27L29 26ZM15 27L15 28L16 28L16 27ZM42 27L42 28L41 28L41 29L42 29L42 30L43 30L43 29L44 29L44 31L45 31L45 30L46 30L46 27L45 27L45 28L44 28L44 27ZM21 28L21 29L22 29L22 30L23 30L23 29L22 29L22 28ZM42 28L42 29L43 29L43 28ZM7 29L7 30L6 30L6 31L8 31L8 29ZM24 29L24 32L25 32L25 29ZM27 29L27 31L26 31L26 33L25 33L25 35L23 35L23 36L22 36L22 35L21 35L21 36L22 36L22 37L23 37L23 38L24 38L24 37L27 37L27 36L26 36L26 35L27 35L27 34L29 34L29 33L28 33L28 32L27 32L27 31L28 31L28 29ZM34 29L34 30L35 30L35 29ZM19 30L19 31L20 31L20 30ZM22 31L22 33L21 33L21 34L23 34L23 31ZM14 32L14 33L16 33L16 32ZM42 32L42 33L43 33L43 32ZM3 33L3 34L4 34L4 33ZM38 33L38 34L39 34L39 33ZM6 34L6 35L5 35L5 36L6 36L6 35L7 35L7 34ZM10 34L10 35L11 35L11 34ZM13 34L13 35L14 35L14 37L13 37L13 40L14 40L14 39L15 39L15 41L16 41L16 40L17 40L17 41L18 41L18 40L17 40L17 39L18 39L18 38L17 38L17 37L16 37L16 36L17 36L17 35L16 35L16 36L15 36L15 35L14 35L14 34ZM28 35L28 37L30 37L30 36L29 36L29 35ZM41 35L41 36L43 36L43 35ZM23 36L23 37L24 37L24 36ZM15 37L15 38L16 38L16 37ZM36 37L36 38L37 38L37 39L36 39L36 40L38 40L38 38L37 38L37 37ZM41 37L41 38L39 38L39 39L42 39L42 40L44 40L44 39L42 39L42 37ZM9 40L9 41L10 41L10 40ZM45 40L45 42L46 42L46 40ZM23 41L23 44L26 44L26 41ZM36 41L36 42L37 42L37 43L36 43L36 44L35 44L35 46L36 46L36 44L37 44L37 46L38 46L38 45L39 45L39 44L40 44L40 43L38 43L38 42L40 42L40 41ZM41 41L41 44L44 44L44 41ZM11 42L11 43L12 43L12 42ZM24 42L24 43L25 43L25 42ZM27 42L27 44L28 44L28 45L27 45L27 47L28 47L28 45L30 45L30 44L28 44L28 42ZM42 42L42 43L43 43L43 42ZM21 43L21 44L22 44L22 43ZM37 43L37 44L38 44L38 43ZM45 43L45 45L44 45L44 46L45 46L45 45L47 45L47 47L48 47L48 43ZM18 44L18 45L17 45L17 46L18 46L18 47L19 47L19 44ZM21 45L21 46L23 46L23 45ZM41 45L41 46L42 46L42 45ZM35 47L35 48L37 48L37 47ZM0 0L0 7L7 7L7 0ZM1 1L1 6L6 6L6 1ZM2 2L2 5L5 5L5 2ZM42 0L42 7L49 7L49 0ZM43 1L43 6L48 6L48 1ZM44 2L44 5L47 5L47 2ZM0 42L0 49L7 49L7 42ZM1 43L1 48L6 48L6 43ZM2 44L2 47L5 47L5 44Z" fill="#000000"/></g></g></svg>
