<?xml version="1.0" encoding="UTF-8"?>
<svg xmlns="http://www.w3.org/2000/svg" version="1.1" width="200" height="200" viewBox="0 0 200 200"><rect x="0" y="0" width="200" height="200" fill="#ffffff"/><g transform="scale(3.774)"><g transform="translate(2,2)"><path fill-rule="evenodd" d="M10 0L10 2L11 2L11 3L9 3L9 2L8 2L8 4L9 4L9 5L10 5L10 4L11 4L11 5L12 5L12 4L13 4L13 3L12 3L12 2L11 2L11 0ZM12 0L12 1L13 1L13 2L14 2L14 4L15 4L15 5L14 5L14 8L10 8L10 9L11 9L11 10L9 10L9 9L8 9L8 8L6 8L6 9L7 9L7 10L5 10L5 8L3 8L3 9L2 9L2 10L0 10L0 13L1 13L1 14L0 14L0 15L2 15L2 16L3 16L3 13L1 13L1 11L2 11L2 12L4 12L4 13L5 13L5 12L6 12L6 13L7 13L7 14L6 14L6 15L5 15L5 16L4 16L4 17L5 17L5 18L3 18L3 19L1 19L1 18L0 18L0 19L1 19L1 21L0 21L0 23L1 23L1 21L2 21L2 20L3 20L3 19L5 19L5 18L6 18L6 19L7 19L7 20L4 20L4 21L3 21L3 22L2 22L2 24L0 24L0 27L1 27L1 28L0 28L0 31L1 31L1 34L0 34L0 37L1 37L1 36L2 36L2 38L1 38L1 40L0 40L0 41L3 41L3 40L4 40L4 39L2 39L2 38L5 38L5 39L7 39L7 40L6 40L6 41L7 41L7 40L8 40L8 43L10 43L10 44L11 44L11 43L13 43L13 40L14 40L14 39L15 39L15 43L14 43L14 44L15 44L15 46L14 46L14 47L11 47L11 46L10 46L10 45L9 45L9 44L8 44L8 46L9 46L9 49L12 49L12 48L15 48L15 49L17 49L17 48L18 48L18 49L20 49L20 48L22 48L22 49L23 49L23 48L22 48L22 47L23 47L23 46L25 46L25 45L26 45L26 46L27 46L27 45L28 45L28 47L24 47L24 48L27 48L27 49L29 49L29 45L28 45L28 44L29 44L29 42L31 42L31 43L33 43L33 42L31 42L31 40L32 40L32 41L33 41L33 40L32 40L32 39L31 39L31 38L32 38L32 37L35 37L35 38L38 38L38 40L36 40L36 39L34 39L34 40L35 40L35 41L34 41L34 43L35 43L35 44L33 44L33 45L34 45L34 48L33 48L33 46L32 46L32 47L31 47L31 49L34 49L34 48L35 48L35 49L39 49L39 48L38 48L38 46L39 46L39 45L40 45L40 47L41 47L41 48L43 48L43 49L45 49L45 48L43 48L43 46L44 46L44 47L45 47L45 46L44 46L44 45L45 45L45 43L48 43L48 47L46 47L46 48L48 48L48 49L49 49L49 42L47 42L47 41L49 41L49 40L47 40L47 39L44 39L44 38L45 38L45 37L43 37L43 36L44 36L44 35L43 35L43 34L41 34L41 32L40 32L40 31L37 31L37 28L36 28L36 27L37 27L37 26L38 26L38 28L39 28L39 29L40 29L40 30L41 30L41 31L44 31L44 34L45 34L45 35L46 35L46 36L47 36L47 38L48 38L48 39L49 39L49 38L48 38L48 37L49 37L49 34L48 34L48 33L45 33L45 31L46 31L46 30L47 30L47 32L49 32L49 30L47 30L47 29L49 29L49 28L48 28L48 27L49 27L49 26L48 26L48 27L47 27L47 25L48 25L48 23L49 23L49 22L48 22L48 21L49 21L49 18L47 18L47 17L49 17L49 14L48 14L48 13L49 13L49 12L48 12L48 11L49 11L49 10L48 10L48 9L47 9L47 8L45 8L45 9L44 9L44 10L45 10L45 9L46 9L46 10L47 10L47 11L46 11L46 12L47 12L47 13L45 13L45 11L41 11L41 13L42 13L42 14L39 14L39 13L37 13L37 12L36 12L36 11L38 11L38 10L39 10L39 11L40 11L40 10L41 10L41 9L40 9L40 10L39 10L39 5L38 5L38 4L37 4L37 3L38 3L38 2L39 2L39 4L40 4L40 3L41 3L41 0L40 0L40 1L36 1L36 0L32 0L32 1L31 1L31 0L29 0L29 2L30 2L30 1L31 1L31 4L22 4L22 2L24 2L24 1L25 1L25 3L26 3L26 1L28 1L28 0L23 0L23 1L22 1L22 0L21 0L21 1L20 1L20 2L21 2L21 4L22 4L22 5L21 5L21 6L20 6L20 7L19 7L19 5L18 5L18 7L17 7L17 6L16 6L16 7L15 7L15 5L17 5L17 4L18 4L18 3L19 3L19 4L20 4L20 3L19 3L19 1L18 1L18 0L17 0L17 1L16 1L16 0ZM17 1L17 2L15 2L15 4L17 4L17 2L18 2L18 1ZM32 1L32 2L33 2L33 1ZM35 1L35 2L36 2L36 3L35 3L35 4L34 4L34 3L32 3L32 5L30 5L30 6L29 6L29 5L27 5L27 7L28 7L28 6L29 6L29 8L30 8L30 6L31 6L31 8L32 8L32 5L33 5L33 4L34 4L34 6L33 6L33 8L35 8L35 9L36 9L36 8L35 8L35 7L36 7L36 5L37 5L37 4L36 4L36 3L37 3L37 2L36 2L36 1ZM27 2L27 3L28 3L28 2ZM35 4L35 5L36 5L36 4ZM23 5L23 8L26 8L26 5ZM8 6L8 7L9 7L9 6ZM10 6L10 7L11 7L11 6ZM12 6L12 7L13 7L13 6ZM21 6L21 7L22 7L22 6ZM24 6L24 7L25 7L25 6ZM34 6L34 7L35 7L35 6ZM37 6L37 7L38 7L38 6ZM40 6L40 7L41 7L41 6ZM16 7L16 9L15 9L15 8L14 8L14 9L13 9L13 10L12 10L12 11L9 11L9 13L8 13L8 14L7 14L7 15L6 15L6 16L8 16L8 17L6 17L6 18L7 18L7 19L9 19L9 17L10 17L10 15L8 15L8 14L9 14L9 13L10 13L10 12L11 12L11 13L12 13L12 14L11 14L11 15L13 15L13 17L14 17L14 15L16 15L16 14L18 14L18 15L17 15L17 16L18 16L18 18L17 18L17 17L16 17L16 16L15 16L15 18L13 18L13 19L12 19L12 17L11 17L11 19L10 19L10 20L8 20L8 21L10 21L10 20L11 20L11 22L12 22L12 21L13 21L13 22L15 22L15 25L14 25L14 24L13 24L13 23L12 23L12 24L11 24L11 23L10 23L10 22L9 22L9 24L11 24L11 25L10 25L10 27L5 27L5 28L3 28L3 27L2 27L2 26L3 26L3 25L1 25L1 27L2 27L2 29L1 29L1 30L2 30L2 31L3 31L3 32L2 32L2 33L4 33L4 32L5 32L5 31L6 31L6 32L7 32L7 33L6 33L6 34L5 34L5 35L4 35L4 34L3 34L3 35L4 35L4 37L5 37L5 38L7 38L7 37L6 37L6 36L7 36L7 35L6 35L6 34L7 34L7 33L8 33L8 32L9 32L9 38L8 38L8 39L10 39L10 36L11 36L11 35L12 35L12 37L11 37L11 38L12 38L12 39L11 39L11 40L13 40L13 37L14 37L14 35L15 35L15 36L16 36L16 37L15 37L15 38L16 38L16 37L17 37L17 38L18 38L18 39L17 39L17 40L16 40L16 41L17 41L17 42L16 42L16 43L15 43L15 44L17 44L17 45L16 45L16 46L17 46L17 47L15 47L15 48L17 48L17 47L18 47L18 48L19 48L19 47L20 47L20 43L21 43L21 44L22 44L22 42L21 42L21 41L22 41L22 40L21 40L21 37L22 37L22 38L23 38L23 39L24 39L24 40L25 40L25 38L26 38L26 39L27 39L27 42L28 42L28 39L29 39L29 41L30 41L30 37L31 37L31 36L30 36L30 35L31 35L31 34L32 34L32 35L33 35L33 36L37 36L37 37L38 37L38 35L39 35L39 34L40 34L40 33L39 33L39 32L38 32L38 33L37 33L37 32L36 32L36 31L35 31L35 30L36 30L36 29L35 29L35 27L36 27L36 26L37 26L37 25L36 25L36 26L35 26L35 25L33 25L33 26L32 26L32 25L31 25L31 26L32 26L32 28L29 28L29 27L30 27L30 25L28 25L28 24L29 24L29 23L30 23L30 24L31 24L31 22L30 22L30 21L32 21L32 22L33 22L33 23L32 23L32 24L34 24L34 21L35 21L35 22L36 22L36 23L35 23L35 24L37 24L37 22L38 22L38 25L39 25L39 27L40 27L40 25L39 25L39 24L40 24L40 21L41 21L41 22L42 22L42 21L43 21L43 22L45 22L45 26L46 26L46 25L47 25L47 24L46 24L46 21L48 21L48 20L47 20L47 18L46 18L46 16L45 16L45 15L44 15L44 16L41 16L41 15L38 15L38 14L37 14L37 15L36 15L36 14L35 14L35 11L34 11L34 9L33 9L33 11L34 11L34 13L32 13L32 12L31 12L31 10L32 10L32 9L31 9L31 10L30 10L30 9L29 9L29 10L30 10L30 12L28 12L28 11L27 11L27 10L26 10L26 11L23 11L23 10L24 10L24 9L22 9L22 8L20 8L20 9L19 9L19 8L17 8L17 7ZM3 9L3 10L2 10L2 11L3 11L3 10L4 10L4 11L5 11L5 10L4 10L4 9ZM14 9L14 10L13 10L13 11L12 11L12 12L13 12L13 11L14 11L14 12L15 12L15 11L14 11L14 10L15 10L15 9ZM17 9L17 10L18 10L18 12L20 12L20 13L19 13L19 14L21 14L21 16L23 16L23 17L21 17L21 18L20 18L20 20L19 20L19 21L18 21L18 22L19 22L19 21L20 21L20 20L21 20L21 22L22 22L22 23L21 23L21 24L19 24L19 23L17 23L17 24L19 24L19 27L18 27L18 25L17 25L17 28L16 28L16 27L15 27L15 28L16 28L16 30L17 30L17 29L18 29L18 31L16 31L16 32L14 32L14 33L13 33L13 32L12 32L12 30L10 30L10 29L12 29L12 28L14 28L14 27L12 27L12 25L11 25L11 27L10 27L10 28L9 28L9 30L10 30L10 31L9 31L9 32L10 32L10 31L11 31L11 32L12 32L12 34L13 34L13 35L14 35L14 33L16 33L16 34L17 34L17 35L16 35L16 36L17 36L17 35L18 35L18 38L19 38L19 42L17 42L17 44L18 44L18 43L20 43L20 37L19 37L19 35L20 35L20 33L21 33L21 34L25 34L25 36L24 36L24 37L23 37L23 36L22 36L22 35L21 35L21 36L22 36L22 37L23 37L23 38L24 38L24 37L27 37L27 36L26 36L26 35L27 35L27 34L29 34L29 35L28 35L28 37L30 37L30 36L29 36L29 35L30 35L30 34L29 34L29 33L28 33L28 32L29 32L29 31L28 31L28 32L26 32L26 33L23 33L23 32L22 32L22 33L21 33L21 31L20 31L20 32L19 32L19 29L20 29L20 30L21 30L21 25L22 25L22 31L23 31L23 28L25 28L25 29L24 29L24 32L25 32L25 31L27 31L27 30L26 30L26 27L27 27L27 29L28 29L28 30L30 30L30 32L32 32L32 33L34 33L34 35L35 35L35 33L36 33L36 32L35 32L35 31L34 31L34 32L33 32L33 30L32 30L32 31L31 31L31 29L29 29L29 28L28 28L28 27L29 27L29 26L28 26L28 27L27 27L27 22L25 22L25 20L26 20L26 21L27 21L27 20L30 20L30 17L33 17L33 18L32 18L32 21L34 21L34 19L35 19L35 20L36 20L36 22L37 22L37 21L38 21L38 22L39 22L39 21L38 21L38 20L39 20L39 17L37 17L37 16L38 16L38 15L37 15L37 16L36 16L36 15L35 15L35 16L34 16L34 15L33 15L33 14L32 14L32 13L29 13L29 14L28 14L28 16L26 16L26 15L27 15L27 12L25 12L25 13L24 13L24 14L23 14L23 13L22 13L22 12L20 12L20 11L19 11L19 9ZM21 9L21 11L22 11L22 9ZM37 9L37 10L38 10L38 9ZM42 9L42 10L43 10L43 9ZM6 11L6 12L8 12L8 11ZM16 11L16 12L17 12L17 11ZM14 13L14 14L16 14L16 13ZM25 13L25 15L26 15L26 13ZM43 13L43 14L42 14L42 15L43 15L43 14L44 14L44 13ZM22 14L22 15L23 15L23 14ZM29 14L29 16L28 16L28 17L30 17L30 14ZM31 14L31 15L32 15L32 16L33 16L33 15L32 15L32 14ZM46 14L46 15L47 15L47 16L48 16L48 14ZM19 15L19 17L20 17L20 15ZM24 16L24 17L26 17L26 16ZM44 16L44 17L40 17L40 19L42 19L42 20L43 20L43 21L44 21L44 20L43 20L43 19L44 19L44 17L45 17L45 16ZM34 17L34 18L35 18L35 17ZM36 17L36 18L37 18L37 17ZM15 18L15 20L14 20L14 21L15 21L15 20L16 20L16 18ZM18 18L18 19L17 19L17 20L18 20L18 19L19 19L19 18ZM22 18L22 19L21 19L21 20L22 20L22 21L23 21L23 22L24 22L24 19L23 19L23 18ZM25 18L25 19L27 19L27 18ZM45 18L45 19L46 19L46 18ZM36 19L36 20L37 20L37 19ZM5 21L5 22L7 22L7 21ZM28 21L28 23L29 23L29 21ZM3 22L3 24L4 24L4 22ZM5 23L5 26L8 26L8 23ZM23 23L23 26L26 26L26 23ZM41 23L41 26L44 26L44 23ZM6 24L6 25L7 25L7 24ZM24 24L24 25L25 25L25 24ZM42 24L42 25L43 25L43 24ZM42 27L42 28L43 28L43 29L44 29L44 31L45 31L45 30L46 30L46 27L45 27L45 28L44 28L44 27ZM5 28L5 29L3 29L3 31L4 31L4 30L6 30L6 31L8 31L8 29L7 29L7 28ZM32 28L32 29L33 29L33 28ZM6 29L6 30L7 30L7 29ZM13 29L13 31L15 31L15 30L14 30L14 29ZM34 29L34 30L35 30L35 29ZM41 29L41 30L42 30L42 29ZM16 32L16 33L17 33L17 34L18 34L18 35L19 35L19 34L18 34L18 33L19 33L19 32ZM42 32L42 33L43 33L43 32ZM10 33L10 35L11 35L11 33ZM38 33L38 34L37 34L37 35L38 35L38 34L39 34L39 33ZM1 34L1 35L2 35L2 34ZM5 35L5 36L6 36L6 35ZM41 35L41 36L43 36L43 35ZM41 37L41 38L39 38L39 39L42 39L42 40L44 40L44 39L42 39L42 37ZM27 38L27 39L28 39L28 38ZM9 40L9 41L10 41L10 40ZM17 40L17 41L18 41L18 40ZM45 40L45 42L46 42L46 40ZM23 41L23 44L26 44L26 41ZM36 41L36 42L37 42L37 43L36 43L36 44L35 44L35 46L36 46L36 44L37 44L37 46L38 46L38 45L39 45L39 44L40 44L40 43L38 43L38 42L40 42L40 41ZM41 41L41 44L44 44L44 41ZM10 42L10 43L11 43L11 42ZM24 42L24 43L25 43L25 42ZM42 42L42 43L43 43L43 42ZM27 43L27 44L28 44L28 43ZM37 43L37 44L38 44L38 43ZM12 44L12 46L13 46L13 44ZM30 44L30 46L31 46L31 45L32 45L32 44ZM21 45L21 46L22 46L22 45ZM41 45L41 46L42 46L42 45ZM18 46L18 47L19 47L19 46ZM10 47L10 48L11 48L11 47ZM35 47L35 48L37 48L37 47ZM0 0L0 7L7 7L7 0ZM1 1L1 6L6 6L6 1ZM2 2L2 5L5 5L5 2ZM42 0L42 7L49 7L49 0ZM43 1L43 6L48 6L48 1ZM44 2L44 5L47 5L47 2ZM0 42L0 49L7 49L7 42ZM1 43L1 48L6 48L6 43ZM2 44L2 47L5 47L5 44Z" fill="#000000"/></g></g></svg>
