<?xml version="1.0" encoding="UTF-8"?>
<svg xmlns="http://www.w3.org/2000/svg" version="1.1" width="200" height="200" viewBox="0 0 200 200"><rect x="0" y="0" width="200" height="200" fill="#ffffff"/><g transform="scale(3.774)"><g transform="translate(2,2)"><path fill-rule="evenodd" d="M8 0L8 1L9 1L9 3L8 3L8 4L9 4L9 3L10 3L10 2L11 2L11 4L10 4L10 5L9 5L9 6L8 6L8 7L9 7L9 8L8 8L8 9L9 9L9 10L6 10L6 9L7 9L7 8L4 8L4 9L5 9L5 10L2 10L2 11L5 11L5 12L3 12L3 18L4 18L4 17L5 17L5 18L6 18L6 19L5 19L5 20L4 20L4 19L3 19L3 20L4 20L4 21L2 21L2 20L1 20L1 21L2 21L2 23L1 23L1 22L0 22L0 25L1 25L1 24L2 24L2 26L0 26L0 29L1 29L1 30L0 30L0 33L1 33L1 32L2 32L2 34L1 34L1 36L0 36L0 38L1 38L1 40L0 40L0 41L3 41L3 40L4 40L4 39L2 39L2 38L1 38L1 37L3 37L3 35L2 35L2 34L4 34L4 33L7 33L7 32L5 32L5 30L6 30L6 31L7 31L7 30L6 30L6 29L7 29L7 28L8 28L8 29L9 29L9 28L10 28L10 27L9 27L9 24L10 24L10 25L12 25L12 26L11 26L11 27L12 27L12 26L13 26L13 27L14 27L14 28L15 28L15 27L16 27L16 29L15 29L15 31L14 31L14 30L13 30L13 31L14 31L14 33L15 33L15 34L13 34L13 35L12 35L12 33L13 33L13 32L12 32L12 33L11 33L11 29L13 29L13 28L11 28L11 29L10 29L10 30L9 30L9 31L8 31L8 32L9 32L9 34L5 34L5 35L4 35L4 36L5 36L5 37L4 37L4 38L5 38L5 39L7 39L7 38L8 38L8 39L12 39L12 38L11 38L11 36L12 36L12 37L13 37L13 35L14 35L14 36L16 36L16 35L18 35L18 34L19 34L19 37L18 37L18 36L17 36L17 37L18 37L18 38L16 38L16 37L15 37L15 38L16 38L16 41L15 41L15 42L14 42L14 41L12 41L12 40L11 40L11 41L12 41L12 42L10 42L10 43L13 43L13 42L14 42L14 45L13 45L13 44L12 44L12 45L11 45L11 44L10 44L10 45L9 45L9 43L8 43L8 45L9 45L9 46L8 46L8 47L9 47L9 46L11 46L11 47L10 47L10 49L11 49L11 48L12 48L12 45L13 45L13 46L14 46L14 48L13 48L13 49L14 49L14 48L16 48L16 49L19 49L19 46L20 46L20 48L21 48L21 49L24 49L24 48L23 48L23 47L24 47L24 46L23 46L23 47L22 47L22 48L21 48L21 46L20 46L20 44L19 44L19 43L18 43L18 45L19 45L19 46L17 46L17 44L16 44L16 41L17 41L17 40L19 40L19 39L20 39L20 38L21 38L21 37L24 37L24 38L25 38L25 36L24 36L24 33L25 33L25 32L26 32L26 34L25 34L25 35L26 35L26 39L27 39L27 38L28 38L28 37L29 37L29 38L30 38L30 39L29 39L29 40L25 40L25 39L24 39L24 40L22 40L22 41L21 41L21 40L20 40L20 43L22 43L22 45L27 45L27 46L25 46L25 49L26 49L26 48L27 48L27 49L28 49L28 48L27 48L27 47L28 47L28 45L27 45L27 44L29 44L29 45L30 45L30 46L29 46L29 47L30 47L30 49L31 49L31 47L30 47L30 46L32 46L32 49L33 49L33 48L34 48L34 45L35 45L35 46L36 46L36 49L37 49L37 47L38 47L38 45L39 45L39 49L40 49L40 48L41 48L41 49L42 49L42 47L43 47L43 48L44 48L44 49L46 49L46 47L45 47L45 46L46 46L46 43L47 43L47 44L48 44L48 45L47 45L47 49L49 49L49 48L48 48L48 47L49 47L49 46L48 46L48 45L49 45L49 44L48 44L48 43L49 43L49 36L48 36L48 35L49 35L49 33L48 33L48 35L47 35L47 36L48 36L48 39L47 39L47 40L48 40L48 43L47 43L47 42L46 42L46 40L44 40L44 39L46 39L46 35L45 35L45 38L44 38L44 36L43 36L43 34L44 34L44 32L43 32L43 28L44 28L44 27L45 27L45 30L46 30L46 27L47 27L47 29L48 29L48 31L49 31L49 25L46 25L46 23L47 23L47 24L49 24L49 20L48 20L48 23L47 23L47 22L46 22L46 23L45 23L45 21L46 21L46 19L45 19L45 18L46 18L46 16L45 16L45 15L44 15L44 17L45 17L45 18L42 18L42 16L41 16L41 15L42 15L42 13L43 13L43 12L42 12L42 8L41 8L41 12L42 12L42 13L41 13L41 14L40 14L40 7L41 7L41 6L40 6L40 7L39 7L39 5L38 5L38 3L37 3L37 5L38 5L38 7L37 7L37 6L36 6L36 7L37 7L37 8L36 8L36 9L37 9L37 10L36 10L36 11L34 11L34 9L35 9L35 8L34 8L34 7L35 7L35 4L36 4L36 1L35 1L35 0L34 0L34 3L33 3L33 2L32 2L32 1L33 1L33 0L32 0L32 1L31 1L31 0L27 0L27 1L26 1L26 0L25 0L25 2L26 2L26 3L22 3L22 4L21 4L21 5L19 5L19 6L18 6L18 7L17 7L17 6L16 6L16 4L15 4L15 5L13 5L13 6L12 6L12 5L11 5L11 4L12 4L12 2L13 2L13 4L14 4L14 1L15 1L15 0L14 0L14 1L13 1L13 0ZM19 0L19 1L20 1L20 0ZM22 0L22 2L23 2L23 0ZM37 0L37 2L39 2L39 4L40 4L40 3L41 3L41 0L40 0L40 1L38 1L38 0ZM16 1L16 2L15 2L15 3L16 3L16 2L17 2L17 3L18 3L18 4L17 4L17 5L18 5L18 4L19 4L19 3L21 3L21 2L18 2L18 1ZM27 1L27 4L29 4L29 5L30 5L30 4L29 4L29 3L31 3L31 4L32 4L32 2L28 2L28 1ZM34 3L34 4L33 4L33 5L32 5L32 6L31 6L31 7L30 7L30 6L29 6L29 8L30 8L30 9L28 9L28 5L27 5L27 9L24 9L24 10L23 10L23 12L21 12L21 11L22 11L22 9L21 9L21 10L18 10L18 8L19 8L19 9L20 9L20 8L21 8L21 7L22 7L22 5L21 5L21 7L20 7L20 6L19 6L19 7L18 7L18 8L16 8L16 6L15 6L15 9L14 9L14 10L15 10L15 9L17 9L17 11L16 11L16 12L14 12L14 11L13 11L13 9L11 9L11 10L9 10L9 11L11 11L11 12L9 12L9 14L8 14L8 15L4 15L4 16L5 16L5 17L6 17L6 18L8 18L8 20L7 20L7 19L6 19L6 20L7 20L7 21L6 21L6 22L9 22L9 21L10 21L10 20L9 20L9 18L10 18L10 19L13 19L13 18L14 18L14 20L11 20L11 21L12 21L12 22L10 22L10 23L12 23L12 22L13 22L13 21L14 21L14 22L15 22L15 21L14 21L14 20L16 20L16 21L17 21L17 22L18 22L18 25L17 25L17 24L16 24L16 27L17 27L17 29L16 29L16 32L15 32L15 33L16 33L16 34L17 34L17 32L18 32L18 33L19 33L19 34L20 34L20 37L21 37L21 36L22 36L22 35L23 35L23 34L20 34L20 33L24 33L24 32L25 32L25 31L24 31L24 30L25 30L25 29L24 29L24 30L22 30L22 29L23 29L23 28L26 28L26 29L27 29L27 30L29 30L29 29L27 29L27 28L26 28L26 27L21 27L21 25L22 25L22 23L21 23L21 22L23 22L23 21L24 21L24 22L25 22L25 21L24 21L24 20L25 20L25 19L24 19L24 17L25 17L25 18L26 18L26 21L27 21L27 20L28 20L28 23L27 23L27 25L28 25L28 26L27 26L27 27L28 27L28 26L29 26L29 28L30 28L30 30L31 30L31 29L32 29L32 26L33 26L33 25L34 25L34 27L35 27L35 29L34 29L34 31L36 31L36 33L38 33L38 36L37 36L37 37L36 37L36 35L37 35L37 34L36 34L36 35L35 35L35 33L34 33L34 32L33 32L33 31L32 31L32 33L34 33L34 40L35 40L35 41L34 41L34 42L35 42L35 43L34 43L34 44L33 44L33 45L34 45L34 44L35 44L35 45L36 45L36 46L37 46L37 45L36 45L36 42L35 42L35 41L36 41L36 39L35 39L35 38L37 38L37 37L38 37L38 40L39 40L39 41L38 41L38 42L39 42L39 43L40 43L40 42L39 42L39 41L40 41L40 40L42 40L42 38L43 38L43 39L44 39L44 38L43 38L43 37L42 37L42 34L41 34L41 33L42 33L42 32L41 32L41 31L42 31L42 30L41 30L41 29L42 29L42 27L39 27L39 25L40 25L40 24L39 24L39 21L38 21L38 20L39 20L39 19L38 19L38 17L39 17L39 16L38 16L38 15L40 15L40 14L39 14L39 13L38 13L38 12L39 12L39 7L38 7L38 8L37 8L37 9L38 9L38 11L37 11L37 13L38 13L38 15L37 15L37 19L38 19L38 20L37 20L37 21L36 21L36 18L35 18L35 19L34 19L34 17L36 17L36 14L35 14L35 13L36 13L36 12L34 12L34 11L33 11L33 13L34 13L34 15L33 15L33 14L32 14L32 15L30 15L30 14L31 14L31 12L32 12L32 11L31 11L31 10L30 10L30 9L32 9L32 10L33 10L33 9L34 9L34 8L33 8L33 7L34 7L34 4L35 4L35 3ZM23 5L23 8L26 8L26 5ZM9 6L9 7L10 7L10 8L9 8L9 9L10 9L10 8L11 8L11 7L12 7L12 6L11 6L11 7L10 7L10 6ZM13 6L13 7L14 7L14 6ZM24 6L24 7L25 7L25 6ZM32 6L32 7L33 7L33 6ZM19 7L19 8L20 8L20 7ZM2 8L2 9L3 9L3 8ZM45 8L45 11L44 11L44 13L46 13L46 14L47 14L47 13L46 13L46 11L47 11L47 12L48 12L48 15L47 15L47 16L48 16L48 19L49 19L49 16L48 16L48 15L49 15L49 8L48 8L48 11L47 11L47 10L46 10L46 8ZM43 9L43 10L44 10L44 9ZM0 10L0 16L2 16L2 15L1 15L1 14L2 14L2 13L1 13L1 10ZM5 10L5 11L6 11L6 12L5 12L5 13L4 13L4 14L7 14L7 13L8 13L8 12L7 12L7 11L6 11L6 10ZM24 10L24 12L23 12L23 13L22 13L22 14L23 14L23 17L24 17L24 16L25 16L25 15L26 15L26 18L27 18L27 17L28 17L28 16L27 16L27 15L29 15L29 18L31 18L31 16L30 16L30 15L29 15L29 14L28 14L28 11L26 11L26 10ZM29 10L29 13L30 13L30 12L31 12L31 11L30 11L30 10ZM17 11L17 12L19 12L19 11ZM6 12L6 13L7 13L7 12ZM13 12L13 14L12 14L12 13L10 13L10 15L8 15L8 16L6 16L6 17L8 17L8 18L9 18L9 17L10 17L10 15L12 15L12 16L14 16L14 18L15 18L15 19L16 19L16 20L17 20L17 18L18 18L18 20L20 20L20 21L18 21L18 22L21 22L21 20L22 20L22 19L20 19L20 16L19 16L19 15L18 15L18 14L20 14L20 15L21 15L21 14L20 14L20 13L18 13L18 14L17 14L17 13L14 13L14 12ZM24 12L24 14L25 14L25 13L27 13L27 12ZM15 14L15 15L14 15L14 16L16 16L16 14ZM34 15L34 16L35 16L35 15ZM8 16L8 17L9 17L9 16ZM17 16L17 17L19 17L19 16ZM21 16L21 17L22 17L22 16ZM32 16L32 17L33 17L33 16ZM0 17L0 18L2 18L2 17ZM11 17L11 18L13 18L13 17ZM15 17L15 18L16 18L16 17ZM40 17L40 18L41 18L41 19L40 19L40 22L41 22L41 21L42 21L42 22L43 22L43 21L44 21L44 19L42 19L42 18L41 18L41 17ZM32 18L32 19L33 19L33 18ZM23 19L23 20L24 20L24 19ZM28 19L28 20L29 20L29 22L30 22L30 23L29 23L29 24L30 24L30 27L31 27L31 24L30 24L30 23L33 23L33 24L32 24L32 25L33 25L33 24L34 24L34 25L35 25L35 27L36 27L36 29L37 29L37 30L36 30L36 31L37 31L37 32L38 32L38 33L39 33L39 34L40 34L40 33L41 33L41 32L40 32L40 33L39 33L39 32L38 32L38 29L37 29L37 28L38 28L38 25L39 25L39 24L38 24L38 21L37 21L37 23L36 23L36 25L35 25L35 24L34 24L34 21L32 21L32 20L31 20L31 19L30 19L30 20L29 20L29 19ZM41 19L41 20L42 20L42 19ZM8 20L8 21L9 21L9 20ZM4 21L4 22L5 22L5 21ZM30 21L30 22L32 22L32 21ZM35 21L35 22L36 22L36 21ZM3 23L3 26L2 26L2 27L1 27L1 28L2 28L2 27L3 27L3 29L2 29L2 30L3 30L3 29L4 29L4 30L5 30L5 29L6 29L6 28L7 28L7 27L6 27L6 28L5 28L5 27L4 27L4 23ZM5 23L5 26L8 26L8 23ZM13 23L13 24L12 24L12 25L13 25L13 26L14 26L14 25L13 25L13 24L14 24L14 23ZM19 23L19 24L20 24L20 25L18 25L18 26L17 26L17 27L18 27L18 26L20 26L20 25L21 25L21 24L20 24L20 23ZM23 23L23 26L26 26L26 23ZM41 23L41 26L44 26L44 23ZM6 24L6 25L7 25L7 24ZM24 24L24 25L25 25L25 24ZM42 24L42 25L43 25L43 24ZM45 26L45 27L46 27L46 26ZM47 26L47 27L48 27L48 26ZM18 28L18 29L19 29L19 30L20 30L20 31L18 31L18 32L21 32L21 29L22 29L22 28ZM39 29L39 31L40 31L40 29ZM3 31L3 33L4 33L4 31ZM22 31L22 32L24 32L24 31ZM26 31L26 32L27 32L27 34L29 34L29 35L28 35L28 36L29 36L29 37L30 37L30 38L31 38L31 39L30 39L30 40L31 40L31 41L30 41L30 43L29 43L29 41L27 41L27 42L28 42L28 43L29 43L29 44L30 44L30 45L32 45L32 42L33 42L33 41L32 41L32 38L33 38L33 37L32 37L32 35L33 35L33 34L32 34L32 35L30 35L30 34L29 34L29 32L31 32L31 31L29 31L29 32L27 32L27 31ZM45 31L45 33L46 33L46 31ZM9 34L9 35L8 35L8 36L7 36L7 35L6 35L6 36L7 36L7 37L6 37L6 38L7 38L7 37L8 37L8 38L10 38L10 37L8 37L8 36L9 36L9 35L10 35L10 34ZM40 36L40 38L39 38L39 39L40 39L40 38L42 38L42 37L41 37L41 36ZM18 38L18 39L19 39L19 38ZM22 38L22 39L23 39L23 38ZM14 39L14 40L15 40L15 39ZM6 40L6 41L7 41L7 40ZM8 40L8 42L9 42L9 41L10 41L10 40ZM18 41L18 42L19 42L19 41ZM23 41L23 44L26 44L26 41ZM31 41L31 42L32 42L32 41ZM41 41L41 44L44 44L44 41ZM24 42L24 43L25 43L25 42ZM42 42L42 43L43 43L43 42ZM45 42L45 43L46 43L46 42ZM15 44L15 45L14 45L14 46L15 46L15 47L17 47L17 46L16 46L16 44ZM39 44L39 45L40 45L40 47L42 47L42 46L43 46L43 47L44 47L44 48L45 48L45 47L44 47L44 45L42 45L42 46L41 46L41 45L40 45L40 44ZM0 0L0 7L7 7L7 0ZM1 1L1 6L6 6L6 1ZM2 2L2 5L5 5L5 2ZM42 0L42 7L49 7L49 0ZM43 1L43 6L48 6L48 1ZM44 2L44 5L47 5L47 2ZM0 42L0 49L7 49L7 42ZM1 43L1 48L6 48L6 43ZM2 44L2 47L5 47L5 44Z" fill="#000000"/></g></g></svg>
