<?xml version="1.0" encoding="UTF-8"?>
<svg xmlns="http://www.w3.org/2000/svg" version="1.1" width="200" height="200" viewBox="0 0 200 200"><rect x="0" y="0" width="200" height="200" fill="#ffffff"/><g transform="scale(3.774)"><g transform="translate(2,2)"><path fill-rule="evenodd" d="M8 0L8 2L9 2L9 3L8 3L8 7L9 7L9 9L11 9L11 6L12 6L12 7L13 7L13 8L12 8L12 9L14 9L14 11L15 11L15 12L16 12L16 10L17 10L17 9L18 9L18 8L21 8L21 9L19 9L19 11L18 11L18 12L19 12L19 11L20 11L20 12L23 12L23 14L24 14L24 15L25 15L25 14L24 14L24 12L25 12L25 10L24 10L24 9L27 9L27 6L28 6L28 7L29 7L29 8L28 8L28 9L29 9L29 10L28 10L28 11L26 11L26 13L27 13L27 14L26 14L26 16L22 16L22 17L23 17L23 19L21 19L21 18L19 18L19 17L21 17L21 16L19 16L19 15L17 15L17 14L16 14L16 13L14 13L14 12L13 12L13 13L14 13L14 14L12 14L12 13L11 13L11 14L10 14L10 15L9 15L9 12L12 12L12 11L11 11L11 10L10 10L10 11L9 11L9 10L8 10L8 11L7 11L7 10L6 10L6 9L7 9L7 8L6 8L6 9L5 9L5 10L6 10L6 11L7 11L7 12L6 12L6 13L5 13L5 12L4 12L4 11L2 11L2 10L4 10L4 8L3 8L3 9L0 9L0 16L1 16L1 17L0 17L0 20L2 20L2 21L5 21L5 22L3 22L3 23L2 23L2 22L0 22L0 25L1 25L1 26L0 26L0 29L1 29L1 30L2 30L2 32L1 32L1 31L0 31L0 32L1 32L1 33L2 33L2 35L1 35L1 36L0 36L0 38L1 38L1 40L0 40L0 41L3 41L3 40L4 40L4 39L2 39L2 37L3 37L3 33L5 33L5 32L6 32L6 33L8 33L8 34L11 34L11 35L9 35L9 36L8 36L8 35L7 35L7 34L4 34L4 36L5 36L5 39L7 39L7 38L6 38L6 37L7 37L7 36L8 36L8 37L11 37L11 35L12 35L12 37L13 37L13 38L14 38L14 40L13 40L13 41L11 41L11 40L6 40L6 41L8 41L8 42L9 42L9 41L11 41L11 43L12 43L12 42L14 42L14 45L15 45L15 44L16 44L16 47L15 47L15 46L13 46L13 47L15 47L15 48L16 48L16 49L19 49L19 47L21 47L21 46L20 46L20 45L21 45L21 44L22 44L22 45L27 45L27 46L26 46L26 47L25 47L25 49L28 49L28 48L27 48L27 47L29 47L29 48L30 48L30 49L31 49L31 47L33 47L33 48L32 48L32 49L33 49L33 48L34 48L34 47L35 47L35 48L36 48L36 49L37 49L37 46L38 46L38 44L40 44L40 45L39 45L39 47L38 47L38 49L40 49L40 48L41 48L41 49L42 49L42 48L41 48L41 46L42 46L42 47L43 47L43 48L44 48L44 49L46 49L46 47L49 47L49 46L48 46L48 45L49 45L49 44L48 44L48 43L49 43L49 36L48 36L48 38L47 38L47 37L46 37L46 35L47 35L47 34L46 34L46 35L44 35L44 33L46 33L46 32L47 32L47 33L48 33L48 35L49 35L49 33L48 33L48 32L47 32L47 31L45 31L45 32L44 32L44 31L43 31L43 29L44 29L44 30L46 30L46 29L47 29L47 30L48 30L48 31L49 31L49 25L47 25L47 26L46 26L46 23L45 23L45 21L46 21L46 20L47 20L47 21L48 21L48 24L49 24L49 20L47 20L47 19L45 19L45 18L46 18L46 17L47 17L47 18L48 18L48 19L49 19L49 16L48 16L48 15L49 15L49 8L47 8L47 9L48 9L48 14L47 14L47 16L45 16L45 14L44 14L44 13L46 13L46 8L43 8L43 11L44 11L44 9L45 9L45 12L44 12L44 13L43 13L43 12L42 12L42 13L40 13L40 12L39 12L39 11L40 11L40 8L41 8L41 6L40 6L40 7L39 7L39 5L38 5L38 7L39 7L39 8L38 8L38 9L37 9L37 8L35 8L35 6L36 6L36 7L37 7L37 6L36 6L36 5L34 5L34 7L33 7L33 6L32 6L32 7L31 7L31 3L30 3L30 2L31 2L31 0L27 0L27 1L26 1L26 0L25 0L25 1L26 1L26 2L27 2L27 1L29 1L29 2L28 2L28 3L24 3L24 2L23 2L23 3L22 3L22 4L21 4L21 3L20 3L20 0L19 0L19 2L18 2L18 1L17 1L17 2L18 2L18 4L17 4L17 3L16 3L16 2L13 2L13 0ZM14 0L14 1L15 1L15 0ZM23 0L23 1L24 1L24 0ZM32 0L32 1L33 1L33 0ZM34 0L34 1L35 1L35 2L34 2L34 3L33 3L33 2L32 2L32 4L34 4L34 3L35 3L35 4L36 4L36 3L35 3L35 2L36 2L36 1L35 1L35 0ZM37 0L37 1L38 1L38 2L39 2L39 4L40 4L40 3L41 3L41 0L40 0L40 1L38 1L38 0ZM10 1L10 3L9 3L9 5L10 5L10 6L9 6L9 7L10 7L10 6L11 6L11 5L13 5L13 2L11 2L11 1ZM11 3L11 4L12 4L12 3ZM14 3L14 6L13 6L13 7L14 7L14 6L15 6L15 8L14 8L14 9L17 9L17 8L18 8L18 6L19 6L19 7L20 7L20 6L21 6L21 7L22 7L22 5L21 5L21 4L20 4L20 3L19 3L19 4L18 4L18 5L17 5L17 7L16 7L16 5L15 5L15 4L16 4L16 3ZM28 3L28 4L27 4L27 5L29 5L29 7L30 7L30 8L29 8L29 9L32 9L32 10L30 10L30 11L28 11L28 13L29 13L29 14L32 14L32 13L31 13L31 12L33 12L33 13L35 13L35 14L34 14L34 15L33 15L33 17L32 17L32 20L33 20L33 21L34 21L34 22L35 22L35 23L34 23L34 24L33 24L33 25L32 25L32 21L31 21L31 20L30 20L30 19L31 19L31 18L30 18L30 17L24 17L24 20L28 20L28 22L29 22L29 23L27 23L27 25L29 25L29 26L30 26L30 24L31 24L31 25L32 25L32 26L31 26L31 27L29 27L29 28L30 28L30 29L29 29L29 30L31 30L31 28L32 28L32 27L33 27L33 25L34 25L34 24L35 24L35 25L36 25L36 24L35 24L35 23L39 23L39 19L38 19L38 18L39 18L39 16L38 16L38 15L37 15L37 16L38 16L38 17L37 17L37 21L36 21L36 22L35 22L35 20L36 20L36 15L35 15L35 14L36 14L36 10L37 10L37 14L39 14L39 15L40 15L40 14L39 14L39 13L38 13L38 11L39 11L39 9L38 9L38 10L37 10L37 9L34 9L34 8L33 8L33 7L32 7L32 8L31 8L31 7L30 7L30 4L29 4L29 3ZM37 3L37 4L38 4L38 3ZM19 4L19 6L20 6L20 4ZM23 5L23 8L26 8L26 5ZM24 6L24 7L25 7L25 6ZM32 8L32 9L33 9L33 10L32 10L32 11L34 11L34 12L35 12L35 10L34 10L34 9L33 9L33 8ZM21 9L21 10L20 10L20 11L24 11L24 10L22 10L22 9ZM41 9L41 11L42 11L42 9ZM1 11L1 15L2 15L2 17L3 17L3 15L2 15L2 14L3 14L3 12L2 12L2 11ZM8 11L8 12L7 12L7 13L6 13L6 14L5 14L5 15L4 15L4 18L2 18L2 20L3 20L3 19L6 19L6 20L5 20L5 21L6 21L6 22L10 22L10 21L11 21L11 20L10 20L10 19L11 19L11 18L12 18L12 22L11 22L11 24L12 24L12 25L11 25L11 26L10 26L10 24L9 24L9 27L10 27L10 28L9 28L9 30L8 30L8 29L5 29L5 31L3 31L3 32L5 32L5 31L6 31L6 32L7 32L7 31L10 31L10 32L8 32L8 33L11 33L11 32L13 32L13 33L12 33L12 35L13 35L13 37L14 37L14 38L15 38L15 40L14 40L14 41L15 41L15 43L16 43L16 44L17 44L17 46L18 46L18 45L19 45L19 43L20 43L20 44L21 44L21 43L20 43L20 42L17 42L17 41L20 41L20 40L21 40L21 42L22 42L22 40L24 40L24 39L25 39L25 40L27 40L27 39L28 39L28 41L27 41L27 43L28 43L28 44L27 44L27 45L28 45L28 46L30 46L30 47L31 47L31 45L34 45L34 46L35 46L35 47L36 47L36 46L37 46L37 45L36 45L36 46L35 46L35 45L34 45L34 44L31 44L31 45L29 45L29 44L30 44L30 43L32 43L32 42L31 42L31 41L29 41L29 38L24 38L24 37L23 37L23 38L24 38L24 39L22 39L22 37L21 37L21 36L22 36L22 34L20 34L20 32L18 32L18 31L17 31L17 29L18 29L18 30L19 30L19 31L21 31L21 33L23 33L23 34L24 34L24 35L23 35L23 36L24 36L24 35L25 35L25 37L26 37L26 36L27 36L27 35L26 35L26 33L27 33L27 34L28 34L28 36L29 36L29 37L30 37L30 38L31 38L31 39L30 39L30 40L32 40L32 39L33 39L33 37L32 37L32 36L35 36L35 37L36 37L36 36L35 36L35 35L33 35L33 34L31 34L31 35L30 35L30 36L29 36L29 34L30 34L30 33L31 33L31 32L33 32L33 33L34 33L34 34L35 34L35 33L38 33L38 34L36 34L36 35L39 35L39 36L37 36L37 38L40 38L40 39L38 39L38 40L37 40L37 41L38 41L38 40L39 40L39 41L40 41L40 40L42 40L42 39L41 39L41 37L42 37L42 38L43 38L43 39L44 39L44 40L47 40L47 41L46 41L46 42L45 42L45 43L46 43L46 42L47 42L47 43L48 43L48 42L47 42L47 41L48 41L48 40L47 40L47 38L46 38L46 39L45 39L45 36L44 36L44 35L43 35L43 36L44 36L44 37L42 37L42 36L41 36L41 35L42 35L42 34L41 34L41 33L40 33L40 31L42 31L42 30L41 30L41 29L42 29L42 27L38 27L38 29L40 29L40 31L39 31L39 30L38 30L38 31L36 31L36 30L37 30L37 29L36 29L36 26L34 26L34 27L35 27L35 28L34 28L34 32L33 32L33 31L30 31L30 32L29 32L29 31L28 31L28 30L27 30L27 29L28 29L28 28L26 28L26 27L20 27L20 26L21 26L21 25L22 25L22 23L21 23L21 22L23 22L23 20L21 20L21 19L20 19L20 20L19 20L19 19L18 19L18 17L19 17L19 16L17 16L17 17L16 17L16 18L15 18L15 17L13 17L13 16L12 16L12 14L11 14L11 15L10 15L10 16L11 16L11 17L8 17L8 18L7 18L7 17L6 17L6 16L7 16L7 15L6 15L6 14L8 14L8 12L9 12L9 11ZM30 11L30 12L29 12L29 13L30 13L30 12L31 12L31 11ZM18 13L18 14L19 14L19 13ZM42 13L42 14L41 14L41 16L40 16L40 18L41 18L41 19L42 19L42 22L43 22L43 21L45 21L45 20L43 20L43 19L44 19L44 18L45 18L45 17L44 17L44 18L43 18L43 16L44 16L44 14L43 14L43 13ZM14 14L14 16L16 16L16 14ZM8 15L8 16L9 16L9 15ZM28 15L28 16L29 16L29 15ZM30 15L30 16L31 16L31 15ZM34 15L34 20L35 20L35 15ZM41 16L41 17L42 17L42 16ZM47 16L47 17L48 17L48 16ZM12 17L12 18L13 18L13 17ZM6 18L6 19L7 19L7 18ZM8 18L8 19L9 19L9 18ZM16 18L16 19L17 19L17 21L16 21L16 20L14 20L14 19L13 19L13 20L14 20L14 21L13 21L13 22L12 22L12 24L13 24L13 25L12 25L12 26L13 26L13 27L14 27L14 28L12 28L12 29L11 29L11 28L10 28L10 30L11 30L11 31L14 31L14 30L16 30L16 29L17 29L17 27L16 27L16 26L17 26L17 25L18 25L18 26L19 26L19 25L18 25L18 24L17 24L17 23L18 23L18 22L19 22L19 24L20 24L20 25L21 25L21 23L20 23L20 22L21 22L21 21L18 21L18 19L17 19L17 18ZM25 18L25 19L26 19L26 18ZM27 18L27 19L28 19L28 18ZM42 18L42 19L43 19L43 18ZM6 20L6 21L7 21L7 20ZM9 20L9 21L10 21L10 20ZM29 20L29 22L30 22L30 23L31 23L31 22L30 22L30 20ZM40 20L40 22L41 22L41 20ZM14 21L14 22L13 22L13 24L15 24L15 23L14 23L14 22L15 22L15 21ZM24 21L24 22L25 22L25 21ZM37 21L37 22L38 22L38 21ZM16 22L16 23L17 23L17 22ZM5 23L5 26L8 26L8 23ZM23 23L23 26L26 26L26 23ZM41 23L41 26L44 26L44 23ZM1 24L1 25L2 25L2 24ZM3 24L3 29L4 29L4 28L5 28L5 27L4 27L4 24ZM6 24L6 25L7 25L7 24ZM16 24L16 25L17 25L17 24ZM24 24L24 25L25 25L25 24ZM39 24L39 25L37 25L37 26L39 26L39 25L40 25L40 24ZM42 24L42 25L43 25L43 24ZM14 26L14 27L15 27L15 28L14 28L14 29L13 29L13 30L14 30L14 29L15 29L15 28L16 28L16 27L15 27L15 26ZM27 26L27 27L28 27L28 26ZM45 26L45 27L44 27L44 29L45 29L45 27L46 27L46 28L47 28L47 27L46 27L46 26ZM1 27L1 29L2 29L2 27ZM6 27L6 28L7 28L7 27ZM18 28L18 29L20 29L20 30L21 30L21 31L23 31L23 33L24 33L24 34L25 34L25 32L26 32L26 31L25 31L25 30L26 30L26 29L25 29L25 28L23 28L23 29L25 29L25 30L24 30L24 31L23 31L23 30L21 30L21 29L20 29L20 28ZM40 28L40 29L41 29L41 28ZM35 29L35 30L36 30L36 29ZM6 30L6 31L7 31L7 30ZM16 31L16 32L17 32L17 37L15 37L15 38L16 38L16 40L15 40L15 41L16 41L16 40L19 40L19 39L21 39L21 40L22 40L22 39L21 39L21 37L20 37L20 36L21 36L21 35L19 35L19 37L18 37L18 32L17 32L17 31ZM24 31L24 32L25 32L25 31ZM27 31L27 32L28 32L28 31ZM35 31L35 32L34 32L34 33L35 33L35 32L36 32L36 31ZM14 32L14 33L15 33L15 34L14 34L14 35L15 35L15 36L16 36L16 33L15 33L15 32ZM39 33L39 34L40 34L40 35L41 35L41 34L40 34L40 33ZM5 35L5 36L7 36L7 35ZM40 36L40 37L41 37L41 36ZM17 37L17 39L19 39L19 38L20 38L20 37L19 37L19 38L18 38L18 37ZM31 37L31 38L32 38L32 37ZM9 38L9 39L11 39L11 38ZM34 38L34 42L35 42L35 44L36 44L36 39L35 39L35 38ZM23 41L23 44L26 44L26 41ZM41 41L41 44L44 44L44 41ZM24 42L24 43L25 43L25 42ZM28 42L28 43L30 43L30 42ZM39 42L39 43L40 43L40 42ZM42 42L42 43L43 43L43 42ZM17 43L17 44L18 44L18 43ZM37 43L37 44L38 44L38 43ZM9 44L9 45L8 45L8 46L10 46L10 49L11 49L11 47L12 47L12 45L13 45L13 44L11 44L11 45L10 45L10 44ZM46 44L46 46L45 46L45 47L46 47L46 46L47 46L47 44ZM40 45L40 46L41 46L41 45ZM42 45L42 46L44 46L44 45ZM22 46L22 48L21 48L21 49L24 49L24 46ZM17 47L17 48L18 48L18 47ZM13 48L13 49L14 49L14 48ZM47 48L47 49L49 49L49 48ZM0 0L0 7L7 7L7 0ZM1 1L1 6L6 6L6 1ZM2 2L2 5L5 5L5 2ZM42 0L42 7L49 7L49 0ZM43 1L43 6L48 6L48 1ZM44 2L44 5L47 5L47 2ZM0 42L0 49L7 49L7 42ZM1 43L1 48L6 48L6 43ZM2 44L2 47L5 47L5 44Z" fill="#000000"/></g></g></svg>
