<?xml version="1.0" encoding="UTF-8"?>
<svg xmlns="http://www.w3.org/2000/svg" version="1.1" width="200" height="200" viewBox="0 0 200 200"><rect x="0" y="0" width="200" height="200" fill="#ffffff"/><g transform="scale(3.774)"><g transform="translate(2,2)"><path fill-rule="evenodd" d="M10 0L10 1L11 1L11 2L8 2L8 4L10 4L10 9L9 9L9 10L10 10L10 11L7 11L7 10L6 10L6 11L5 11L5 8L3 8L3 9L2 9L2 10L1 10L1 9L0 9L0 10L1 10L1 12L0 12L0 14L2 14L2 16L1 16L1 15L0 15L0 17L3 17L3 16L5 16L5 17L7 17L7 16L11 16L11 15L10 15L10 14L11 14L11 13L12 13L12 15L15 15L15 21L14 21L14 18L12 18L12 17L13 17L13 16L12 16L12 17L11 17L11 18L12 18L12 19L13 19L13 20L12 20L12 22L10 22L10 23L9 23L9 21L11 21L11 19L8 19L8 20L6 20L6 19L7 19L7 18L6 18L6 19L2 19L2 18L0 18L0 20L2 20L2 21L3 21L3 20L4 20L4 22L3 22L3 23L4 23L4 24L1 24L1 23L2 23L2 22L0 22L0 28L1 28L1 29L0 29L0 30L1 30L1 31L0 31L0 34L1 34L1 33L2 33L2 36L4 36L4 37L1 37L1 35L0 35L0 38L1 38L1 40L0 40L0 41L3 41L3 40L4 40L4 39L2 39L2 38L5 38L5 39L7 39L7 40L6 40L6 41L8 41L8 43L9 43L9 40L8 40L8 39L10 39L10 38L9 38L9 36L11 36L11 34L10 34L10 33L12 33L12 35L13 35L13 33L12 33L12 32L11 32L11 31L12 31L12 30L16 30L16 31L18 31L18 32L17 32L17 35L16 35L16 34L15 34L15 32L14 32L14 36L13 36L13 37L12 37L12 38L14 38L14 36L15 36L15 37L16 37L16 36L17 36L17 38L18 38L18 36L19 36L19 34L18 34L18 33L19 33L19 31L20 31L20 34L21 34L21 35L22 35L22 36L23 36L23 37L22 37L22 38L23 38L23 40L22 40L22 39L21 39L21 38L20 38L20 37L21 37L21 36L20 36L20 37L19 37L19 39L18 39L18 40L17 40L17 39L16 39L16 38L15 38L15 41L14 41L14 39L12 39L12 40L10 40L10 45L9 45L9 44L8 44L8 46L10 46L10 45L11 45L11 47L9 47L9 49L11 49L11 48L12 48L12 49L13 49L13 47L12 47L12 46L13 46L13 45L14 45L14 47L15 47L15 48L14 48L14 49L18 49L18 48L19 48L19 47L18 47L18 46L22 46L22 48L24 48L24 47L26 47L26 48L25 48L25 49L26 49L26 48L27 48L27 47L26 47L26 46L28 46L28 45L29 45L29 46L30 46L30 45L29 45L29 44L31 44L31 45L32 45L32 47L31 47L31 49L34 49L34 48L35 48L35 49L39 49L39 47L38 47L38 46L39 46L39 45L40 45L40 47L41 47L41 48L43 48L43 49L44 49L44 47L46 47L46 48L48 48L48 49L49 49L49 42L47 42L47 41L49 41L49 38L48 38L48 37L49 37L49 36L48 36L48 35L49 35L49 34L48 34L48 33L49 33L49 30L47 30L47 29L49 29L49 28L48 28L48 27L49 27L49 26L48 26L48 24L49 24L49 22L48 22L48 21L49 21L49 18L47 18L47 17L48 17L48 16L49 16L49 14L48 14L48 13L49 13L49 12L48 12L48 11L49 11L49 10L48 10L48 9L47 9L47 8L45 8L45 9L44 9L44 11L39 11L39 12L35 12L35 11L38 11L38 10L39 10L39 9L38 9L38 8L39 8L39 5L38 5L38 4L37 4L37 3L38 3L38 2L39 2L39 4L40 4L40 3L41 3L41 0L40 0L40 1L37 1L37 0L33 0L33 3L31 3L31 4L30 4L30 2L29 2L29 1L28 1L28 2L29 2L29 4L28 4L28 3L27 3L27 2L26 2L26 3L27 3L27 4L23 4L23 3L22 3L22 1L23 1L23 2L24 2L24 3L25 3L25 0L21 0L21 1L20 1L20 0L17 0L17 1L16 1L16 2L15 2L15 3L13 3L13 1L11 1L11 0ZM14 0L14 1L15 1L15 0ZM26 0L26 1L27 1L27 0ZM30 0L30 1L31 1L31 2L32 2L32 1L31 1L31 0ZM17 1L17 2L18 2L18 1ZM35 1L35 2L34 2L34 3L35 3L35 4L34 4L34 6L33 6L33 5L30 5L30 6L29 6L29 9L28 9L28 10L27 10L27 9L26 9L26 10L25 10L25 11L24 11L24 9L23 9L23 10L22 10L22 11L21 11L21 9L22 9L22 8L21 8L21 7L22 7L22 5L21 5L21 4L22 4L22 3L21 3L21 2L19 2L19 3L18 3L18 5L19 5L19 7L20 7L20 9L18 9L18 6L17 6L17 5L16 5L16 4L15 4L15 5L14 5L14 4L13 4L13 3L11 3L11 7L12 7L12 5L13 5L13 7L14 7L14 9L12 9L12 8L11 8L11 9L12 9L12 10L11 10L11 11L12 11L12 10L13 10L13 14L14 14L14 12L16 12L16 11L17 11L17 10L16 10L16 11L15 11L15 10L14 10L14 9L15 9L15 8L17 8L17 9L18 9L18 12L17 12L17 13L16 13L16 14L15 14L15 15L16 15L16 16L17 16L17 17L18 17L18 16L19 16L19 18L17 18L17 19L16 19L16 20L17 20L17 21L18 21L18 22L16 22L16 21L15 21L15 22L12 22L12 23L10 23L10 26L9 26L9 30L8 30L8 27L6 27L6 28L4 28L4 29L3 29L3 28L2 28L2 29L1 29L1 30L3 30L3 31L4 31L4 32L2 32L2 31L1 31L1 32L2 32L2 33L3 33L3 35L4 35L4 34L5 34L5 35L6 35L6 36L8 36L8 35L9 35L9 33L10 33L10 32L8 32L8 31L9 31L9 30L10 30L10 31L11 31L11 30L12 30L12 29L13 29L13 28L14 28L14 29L16 29L16 27L18 27L18 26L19 26L19 28L20 28L20 30L21 30L21 32L22 32L22 33L23 33L23 34L24 34L24 33L25 33L25 36L24 36L24 40L25 40L25 37L26 37L26 38L27 38L27 39L30 39L30 38L31 38L31 37L29 37L29 36L28 36L28 35L27 35L27 37L26 37L26 33L25 33L25 32L27 32L27 33L28 33L28 34L29 34L29 35L30 35L30 34L29 34L29 33L28 33L28 32L30 32L30 33L31 33L31 34L32 34L32 35L31 35L31 36L32 36L32 35L33 35L33 39L32 39L32 40L31 40L31 41L32 41L32 43L31 43L31 42L30 42L30 40L29 40L29 42L28 42L28 43L29 43L29 42L30 42L30 43L31 43L31 44L32 44L32 45L33 45L33 48L34 48L34 45L33 45L33 44L35 44L35 46L36 46L36 47L35 47L35 48L38 48L38 47L37 47L37 46L38 46L38 45L39 45L39 44L40 44L40 43L38 43L38 42L40 42L40 41L36 41L36 42L37 42L37 43L36 43L36 44L35 44L35 43L34 43L34 41L35 41L35 40L34 40L34 39L36 39L36 40L38 40L38 38L37 38L37 37L36 37L36 38L35 38L35 36L34 36L34 33L32 33L32 32L31 32L31 31L33 31L33 32L36 32L36 33L35 33L35 35L36 35L36 36L37 36L37 34L38 34L38 37L39 37L39 34L38 34L38 33L37 33L37 32L36 32L36 31L35 31L35 30L36 30L36 29L35 29L35 30L34 30L34 29L33 29L33 30L32 30L32 29L31 29L31 27L29 27L29 29L28 29L28 28L27 28L27 27L26 27L26 30L25 30L25 29L24 29L24 33L23 33L23 32L22 32L22 31L23 31L23 30L21 30L21 28L22 28L22 29L23 29L23 28L25 28L25 27L23 27L23 28L22 28L22 26L19 26L19 24L20 24L20 25L22 25L22 24L21 24L21 22L24 22L24 21L25 21L25 22L26 22L26 21L25 21L25 20L28 20L28 22L29 22L29 24L28 24L28 23L27 23L27 24L28 24L28 25L29 25L29 26L30 26L30 25L29 25L29 24L30 24L30 23L32 23L32 24L34 24L34 25L33 25L33 26L32 26L32 25L31 25L31 26L32 26L32 28L34 28L34 27L36 27L36 28L37 28L37 31L39 31L39 29L38 29L38 26L37 26L37 25L39 25L39 27L40 27L40 23L39 23L39 22L40 22L40 21L41 21L41 22L42 22L42 21L43 21L43 22L45 22L45 21L48 21L48 20L47 20L47 18L46 18L46 17L45 17L45 18L46 18L46 19L44 19L44 16L45 16L45 13L46 13L46 15L47 15L47 16L48 16L48 14L47 14L47 12L46 12L46 11L45 11L45 13L44 13L44 16L43 16L43 20L42 20L42 18L41 18L41 19L40 19L40 17L42 17L42 15L43 15L43 14L42 14L42 13L41 13L41 12L39 12L39 14L42 14L42 15L38 15L38 14L37 14L37 13L34 13L34 12L33 12L33 13L32 13L32 11L28 11L28 10L29 10L29 9L30 9L30 6L31 6L31 7L32 7L32 6L33 6L33 8L34 8L34 6L35 6L35 7L36 7L36 5L37 5L37 4L36 4L36 3L37 3L37 2L36 2L36 1ZM35 2L35 3L36 3L36 2ZM20 3L20 4L19 4L19 5L20 5L20 7L21 7L21 5L20 5L20 4L21 4L21 3ZM35 4L35 5L36 5L36 4ZM15 5L15 6L14 6L14 7L15 7L15 6L16 6L16 7L17 7L17 6L16 6L16 5ZM23 5L23 8L26 8L26 5ZM8 6L8 7L9 7L9 6ZM24 6L24 7L25 7L25 6ZM27 6L27 8L28 8L28 6ZM37 6L37 7L38 7L38 6ZM40 6L40 7L41 7L41 6ZM6 8L6 9L8 9L8 8ZM31 8L31 9L32 9L32 10L33 10L33 11L34 11L34 9L32 9L32 8ZM35 8L35 9L36 9L36 8ZM3 9L3 10L2 10L2 14L3 14L3 13L4 13L4 15L5 15L5 16L7 16L7 15L6 15L6 14L8 14L8 13L9 13L9 14L10 14L10 13L11 13L11 12L10 12L10 13L9 13L9 12L7 12L7 11L6 11L6 12L7 12L7 13L4 13L4 12L5 12L5 11L4 11L4 9ZM37 9L37 10L38 10L38 9ZM40 9L40 10L41 10L41 9ZM42 9L42 10L43 10L43 9ZM19 10L19 12L18 12L18 13L17 13L17 14L16 14L16 15L17 15L17 14L18 14L18 15L19 15L19 16L20 16L20 17L21 17L21 21L22 21L22 20L25 20L25 19L28 19L28 20L29 20L29 21L30 21L30 22L31 22L31 21L30 21L30 19L28 19L28 18L29 18L29 17L28 17L28 18L27 18L27 16L29 16L29 15L30 15L30 14L32 14L32 15L31 15L31 17L30 17L30 18L31 18L31 17L32 17L32 23L33 23L33 21L34 21L34 24L35 24L35 25L37 25L37 24L35 24L35 23L38 23L38 22L39 22L39 21L38 21L38 20L39 20L39 17L37 17L37 16L38 16L38 15L37 15L37 16L36 16L36 14L35 14L35 16L34 16L34 15L33 15L33 14L32 14L32 13L31 13L31 12L30 12L30 14L27 14L27 10L26 10L26 13L25 13L25 12L24 12L24 11L22 11L22 12L20 12L20 10ZM3 11L3 12L4 12L4 11ZM19 12L19 13L18 13L18 14L19 14L19 15L20 15L20 16L21 16L21 17L22 17L22 18L23 18L23 17L22 17L22 16L23 16L23 15L25 15L25 16L24 16L24 17L25 17L25 18L26 18L26 17L25 17L25 16L27 16L27 14L25 14L25 13L23 13L23 12L22 12L22 13L23 13L23 15L22 15L22 16L21 16L21 13L20 13L20 12ZM32 15L32 17L33 17L33 15ZM9 17L9 18L10 18L10 17ZM34 17L34 18L35 18L35 17ZM19 18L19 19L20 19L20 18ZM34 19L34 21L35 21L35 22L36 22L36 20L37 20L37 19L36 19L36 20L35 20L35 19ZM5 20L5 21L6 21L6 22L8 22L8 21L9 21L9 20L8 20L8 21L6 21L6 20ZM18 20L18 21L19 21L19 20ZM43 20L43 21L44 21L44 20ZM37 21L37 22L38 22L38 21ZM18 22L18 23L19 23L19 22ZM46 22L46 23L45 23L45 26L47 26L47 24L46 24L46 23L47 23L47 22ZM5 23L5 26L8 26L8 23ZM12 23L12 24L11 24L11 26L10 26L10 27L11 27L11 28L10 28L10 29L12 29L12 28L13 28L13 27L16 27L16 25L17 25L17 23L14 23L14 25L15 25L15 26L13 26L13 23ZM23 23L23 26L26 26L26 23ZM41 23L41 26L44 26L44 23ZM6 24L6 25L7 25L7 24ZM15 24L15 25L16 25L16 24ZM24 24L24 25L25 25L25 24ZM42 24L42 25L43 25L43 24ZM2 26L2 27L3 27L3 26ZM11 26L11 27L12 27L12 26ZM36 26L36 27L37 27L37 26ZM20 27L20 28L21 28L21 27ZM42 27L42 28L43 28L43 29L41 29L41 28L40 28L40 29L41 29L41 30L40 30L40 32L41 32L41 34L42 34L42 32L43 32L43 35L41 35L41 36L42 36L42 37L46 37L46 38L44 38L44 39L42 39L42 38L39 38L39 39L42 39L42 40L46 40L46 41L45 41L45 42L46 42L46 41L47 41L47 40L48 40L48 38L47 38L47 36L46 36L46 35L44 35L44 32L45 32L45 33L48 33L48 32L47 32L47 31L45 31L45 30L46 30L46 27L45 27L45 30L44 30L44 31L41 31L41 30L43 30L43 29L44 29L44 27ZM6 28L6 29L7 29L7 28ZM17 28L17 30L18 30L18 31L19 31L19 29L18 29L18 28ZM4 29L4 31L8 31L8 30L5 30L5 29ZM27 29L27 30L28 30L28 31L29 31L29 30L30 30L30 31L31 31L31 30L30 30L30 29L29 29L29 30L28 30L28 29ZM4 32L4 33L5 33L5 32ZM6 32L6 33L7 33L7 34L6 34L6 35L7 35L7 34L8 34L8 33L7 33L7 32ZM15 35L15 36L16 36L16 35ZM5 37L5 38L7 38L7 39L8 39L8 37ZM28 37L28 38L29 38L29 37ZM36 38L36 39L37 39L37 38ZM20 39L20 40L21 40L21 42L22 42L22 40L21 40L21 39ZM46 39L46 40L47 40L47 39ZM12 40L12 41L11 41L11 45L12 45L12 42L13 42L13 44L14 44L14 45L15 45L15 44L14 44L14 43L16 43L16 42L14 42L14 41L13 41L13 40ZM18 40L18 41L17 41L17 42L18 42L18 41L19 41L19 40ZM27 40L27 41L28 41L28 40ZM32 40L32 41L33 41L33 40ZM23 41L23 44L26 44L26 41ZM41 41L41 44L44 44L44 41ZM19 42L19 43L20 43L20 42ZM24 42L24 43L25 43L25 42ZM42 42L42 43L43 43L43 42ZM17 43L17 44L16 44L16 48L17 48L17 46L18 46L18 45L20 45L20 44L18 44L18 43ZM37 43L37 44L36 44L36 46L37 46L37 44L38 44L38 43ZM45 43L45 45L44 45L44 46L43 46L43 47L44 47L44 46L46 46L46 47L48 47L48 43ZM21 44L21 45L22 45L22 46L26 46L26 45L22 45L22 44ZM41 45L41 47L42 47L42 45ZM46 45L46 46L47 46L47 45ZM28 48L28 49L30 49L30 48ZM0 0L0 7L7 7L7 0ZM1 1L1 6L6 6L6 1ZM2 2L2 5L5 5L5 2ZM42 0L42 7L49 7L49 0ZM43 1L43 6L48 6L48 1ZM44 2L44 5L47 5L47 2ZM0 42L0 49L7 49L7 42ZM1 43L1 48L6 48L6 43ZM2 44L2 47L5 47L5 44Z" fill="#000000"/></g></g></svg>
