<?xml version="1.0" encoding="UTF-8"?>
<svg xmlns="http://www.w3.org/2000/svg" version="1.1" width="200" height="200" viewBox="0 0 200 200"><rect x="0" y="0" width="200" height="200" fill="#ffffff"/><g transform="scale(3.774)"><g transform="translate(2,2)"><path fill-rule="evenodd" d="M8 0L8 1L9 1L9 3L8 3L8 4L9 4L9 3L10 3L10 2L11 2L11 4L10 4L10 5L9 5L9 6L8 6L8 7L9 7L9 6L10 6L10 8L11 8L11 9L9 9L9 8L8 8L8 9L9 9L9 10L6 10L6 9L7 9L7 8L4 8L4 9L5 9L5 10L3 10L3 8L2 8L2 9L0 9L0 16L2 16L2 15L1 15L1 14L2 14L2 13L1 13L1 10L2 10L2 11L3 11L3 18L4 18L4 17L5 17L5 18L6 18L6 19L5 19L5 20L4 20L4 19L3 19L3 20L4 20L4 21L5 21L5 22L4 22L4 27L5 27L5 28L4 28L4 29L3 29L3 27L2 27L2 26L3 26L3 24L2 24L2 23L1 23L1 22L3 22L3 21L2 21L2 19L1 19L1 18L2 18L2 17L0 17L0 25L1 25L1 24L2 24L2 26L0 26L0 29L1 29L1 30L0 30L0 31L2 31L2 32L3 32L3 31L4 31L4 33L0 33L0 34L1 34L1 36L0 36L0 38L1 38L1 40L0 40L0 41L3 41L3 40L4 40L4 39L2 39L2 38L1 38L1 37L3 37L3 36L2 36L2 34L3 34L3 35L4 35L4 36L5 36L5 37L4 37L4 38L5 38L5 39L7 39L7 38L8 38L8 39L12 39L12 38L11 38L11 36L12 36L12 37L13 37L13 35L14 35L14 36L16 36L16 35L18 35L18 34L16 34L16 33L15 33L15 34L13 34L13 35L12 35L12 33L14 33L14 32L18 32L18 31L19 31L19 32L20 32L20 31L21 31L21 30L22 30L22 31L23 31L23 32L24 32L24 33L20 33L20 34L19 34L19 37L18 37L18 36L17 36L17 37L18 37L18 38L16 38L16 37L15 37L15 38L16 38L16 40L15 40L15 39L14 39L14 40L15 40L15 42L16 42L16 43L14 43L14 44L13 44L13 42L14 42L14 41L13 41L13 40L11 40L11 41L13 41L13 42L12 42L12 43L11 43L11 42L10 42L10 43L8 43L8 45L9 45L9 46L8 46L8 47L9 47L9 46L10 46L10 45L11 45L11 47L10 47L10 49L11 49L11 48L12 48L12 45L14 45L14 44L16 44L16 46L17 46L17 47L15 47L15 46L14 46L14 48L13 48L13 49L14 49L14 48L16 48L16 49L19 49L19 46L20 46L20 48L21 48L21 49L24 49L24 48L23 48L23 47L24 47L24 46L23 46L23 45L25 45L25 47L26 47L26 48L25 48L25 49L26 49L26 48L27 48L27 49L28 49L28 48L27 48L27 47L28 47L28 45L27 45L27 44L30 44L30 41L31 41L31 42L32 42L32 45L31 45L31 46L32 46L32 49L33 49L33 48L34 48L34 45L35 45L35 46L36 46L36 49L40 49L40 48L41 48L41 49L42 49L42 47L43 47L43 48L44 48L44 49L46 49L46 47L47 47L47 49L49 49L49 48L48 48L48 47L49 47L49 46L48 46L48 45L49 45L49 44L48 44L48 43L49 43L49 36L48 36L48 35L49 35L49 33L48 33L48 35L47 35L47 36L48 36L48 39L47 39L47 40L48 40L48 43L47 43L47 42L46 42L46 40L44 40L44 39L46 39L46 35L45 35L45 38L44 38L44 36L43 36L43 34L44 34L44 32L43 32L43 30L42 30L42 31L41 31L41 32L40 32L40 33L39 33L39 32L38 32L38 29L37 29L37 28L38 28L38 25L39 25L39 27L42 27L42 28L41 28L41 29L43 29L43 28L44 28L44 27L45 27L45 30L46 30L46 27L47 27L47 29L48 29L48 31L49 31L49 25L46 25L46 23L47 23L47 24L49 24L49 20L48 20L48 23L47 23L47 22L46 22L46 23L45 23L45 21L46 21L46 19L45 19L45 18L46 18L46 16L45 16L45 15L44 15L44 17L43 17L43 18L42 18L42 16L41 16L41 15L42 15L42 13L43 13L43 12L42 12L42 8L41 8L41 10L40 10L40 7L41 7L41 6L40 6L40 7L39 7L39 5L38 5L38 3L37 3L37 5L38 5L38 7L37 7L37 6L36 6L36 7L37 7L37 8L36 8L36 9L37 9L37 10L36 10L36 11L34 11L34 9L35 9L35 8L34 8L34 7L35 7L35 4L36 4L36 1L35 1L35 0L34 0L34 3L32 3L32 4L34 4L34 7L33 7L33 5L32 5L32 7L33 7L33 8L34 8L34 9L33 9L33 10L32 10L32 9L29 9L29 6L30 6L30 8L31 8L31 3L28 3L28 2L32 2L32 1L33 1L33 0L32 0L32 1L31 1L31 0L27 0L27 1L26 1L26 0L24 0L24 1L25 1L25 2L26 2L26 3L22 3L22 4L20 4L20 3L21 3L21 2L23 2L23 0L22 0L22 1L21 1L21 2L18 2L18 1L16 1L16 2L15 2L15 3L16 3L16 4L15 4L15 6L14 6L14 5L13 5L13 6L12 6L12 7L11 7L11 4L12 4L12 2L13 2L13 4L14 4L14 1L15 1L15 0L14 0L14 1L13 1L13 0ZM19 0L19 1L20 1L20 0ZM37 0L37 2L39 2L39 4L40 4L40 3L41 3L41 0L40 0L40 1L38 1L38 0ZM27 1L27 2L28 2L28 1ZM16 2L16 3L17 3L17 4L16 4L16 5L17 5L17 7L16 7L16 6L15 6L15 7L16 7L16 8L14 8L14 9L11 9L11 10L9 10L9 11L11 11L11 12L9 12L9 14L8 14L8 15L10 15L10 17L9 17L9 16L7 16L7 15L4 15L4 16L5 16L5 17L6 17L6 18L7 18L7 19L6 19L6 20L7 20L7 21L6 21L6 22L10 22L10 23L12 23L12 22L15 22L15 19L14 19L14 16L15 16L15 17L16 17L16 18L17 18L17 19L18 19L18 18L17 18L17 17L20 17L20 18L21 18L21 19L19 19L19 20L16 20L16 21L17 21L17 22L18 22L18 25L17 25L17 24L16 24L16 27L15 27L15 28L14 28L14 27L13 27L13 26L14 26L14 25L13 25L13 24L14 24L14 23L13 23L13 24L12 24L12 25L10 25L10 24L9 24L9 27L10 27L10 28L9 28L9 29L8 29L8 28L7 28L7 27L6 27L6 28L7 28L7 29L6 29L6 30L7 30L7 31L5 31L5 30L4 30L4 31L5 31L5 32L8 32L8 33L9 33L9 34L8 34L8 35L6 35L6 36L7 36L7 37L6 37L6 38L7 38L7 37L8 37L8 38L10 38L10 37L8 37L8 35L10 35L10 34L11 34L11 33L12 33L12 30L10 30L10 29L11 29L11 28L12 28L12 29L13 29L13 30L14 30L14 31L16 31L16 30L15 30L15 29L16 29L16 27L17 27L17 31L18 31L18 30L19 30L19 29L20 29L20 30L21 30L21 29L22 29L22 28L25 28L25 29L24 29L24 30L23 30L23 31L24 31L24 32L25 32L25 33L24 33L24 34L20 34L20 37L21 37L21 38L20 38L20 39L19 39L19 38L18 38L18 39L19 39L19 40L17 40L17 41L16 41L16 42L17 42L17 43L16 43L16 44L17 44L17 43L18 43L18 41L22 41L22 40L24 40L24 39L25 39L25 40L27 40L27 41L29 41L29 40L28 40L28 39L30 39L30 40L31 40L31 41L32 41L32 42L33 42L33 41L32 41L32 39L30 39L30 38L31 38L31 37L32 37L32 38L33 38L33 37L32 37L32 35L33 35L33 34L32 34L32 35L31 35L31 34L29 34L29 32L27 32L27 34L29 34L29 35L28 35L28 36L29 36L29 37L28 37L28 38L27 38L27 39L26 39L26 35L24 35L24 34L26 34L26 30L27 30L27 31L29 31L29 29L27 29L27 28L30 28L30 30L31 30L31 31L32 31L32 33L34 33L34 35L35 35L35 37L34 37L34 40L35 40L35 41L34 41L34 42L35 42L35 43L34 43L34 44L33 44L33 45L34 45L34 44L35 44L35 45L36 45L36 46L37 46L37 45L36 45L36 42L35 42L35 41L36 41L36 39L35 39L35 37L36 37L36 35L37 35L37 37L38 37L38 40L39 40L39 41L38 41L38 42L39 42L39 43L40 43L40 42L39 42L39 41L40 41L40 40L42 40L42 38L43 38L43 39L44 39L44 38L43 38L43 37L42 37L42 34L41 34L41 33L42 33L42 32L41 32L41 33L40 33L40 34L39 34L39 33L38 33L38 32L37 32L37 31L36 31L36 30L37 30L37 29L36 29L36 27L35 27L35 25L36 25L36 23L37 23L37 25L38 25L38 24L39 24L39 25L40 25L40 24L39 24L39 21L38 21L38 20L39 20L39 19L38 19L38 17L39 17L39 16L38 16L38 15L40 15L40 14L41 14L41 13L42 13L42 12L40 12L40 14L39 14L39 13L38 13L38 12L39 12L39 7L38 7L38 8L37 8L37 9L38 9L38 11L37 11L37 13L36 13L36 12L34 12L34 11L33 11L33 13L34 13L34 15L33 15L33 14L32 14L32 15L30 15L30 14L31 14L31 12L32 12L32 11L31 11L31 12L30 12L30 13L29 13L29 9L28 9L28 6L27 6L27 9L24 9L24 10L23 10L23 12L21 12L21 11L22 11L22 9L21 9L21 10L18 10L18 9L20 9L20 8L18 8L18 9L17 9L17 7L18 7L18 5L19 5L19 7L20 7L20 6L21 6L21 7L22 7L22 5L20 5L20 4L18 4L18 3L17 3L17 2ZM34 3L34 4L35 4L35 3ZM17 4L17 5L18 5L18 4ZM27 4L27 5L30 5L30 4ZM23 5L23 8L26 8L26 5ZM13 6L13 7L12 7L12 8L13 8L13 7L14 7L14 6ZM24 6L24 7L25 7L25 6ZM45 8L45 11L44 11L44 13L46 13L46 14L47 14L47 13L46 13L46 11L47 11L47 12L48 12L48 15L47 15L47 16L48 16L48 19L49 19L49 16L48 16L48 15L49 15L49 8L48 8L48 11L47 11L47 10L46 10L46 8ZM14 9L14 10L13 10L13 11L14 11L14 12L13 12L13 14L12 14L12 13L10 13L10 15L12 15L12 16L11 16L11 17L13 17L13 16L14 16L14 15L15 15L15 14L16 14L16 17L17 17L17 16L19 16L19 15L18 15L18 14L20 14L20 15L22 15L22 16L20 16L20 17L22 17L22 16L24 16L24 17L25 17L25 15L26 15L26 18L24 18L24 19L23 19L23 20L24 20L24 21L23 21L23 22L21 22L21 20L22 20L22 19L21 19L21 20L20 20L20 21L19 21L19 22L21 22L21 23L22 23L22 25L21 25L21 24L20 24L20 23L19 23L19 24L20 24L20 25L18 25L18 26L17 26L17 27L18 27L18 26L20 26L20 25L21 25L21 28L22 28L22 27L26 27L26 28L27 28L27 26L28 26L28 27L29 27L29 26L28 26L28 25L27 25L27 23L28 23L28 20L29 20L29 22L30 22L30 23L29 23L29 24L30 24L30 27L31 27L31 24L30 24L30 23L33 23L33 24L32 24L32 25L33 25L33 26L32 26L32 29L33 29L33 32L34 32L34 33L35 33L35 35L36 35L36 34L37 34L37 35L38 35L38 33L36 33L36 31L34 31L34 29L35 29L35 27L34 27L34 25L35 25L35 24L34 24L34 21L32 21L32 20L31 20L31 19L32 19L32 18L33 18L33 16L30 16L30 15L29 15L29 14L28 14L28 11L27 11L27 12L26 12L26 10L24 10L24 12L23 12L23 14L22 14L22 13L21 13L21 14L20 14L20 13L18 13L18 14L17 14L17 13L14 13L14 12L16 12L16 11L17 11L17 12L19 12L19 11L17 11L17 9ZM43 9L43 10L44 10L44 9ZM5 10L5 12L7 12L7 13L5 13L5 14L7 14L7 13L8 13L8 12L7 12L7 11L6 11L6 10ZM24 12L24 14L26 14L26 15L27 15L27 13L26 13L26 12ZM37 13L37 14L35 14L35 15L34 15L34 16L35 16L35 15L36 15L36 17L34 17L34 19L35 19L35 18L36 18L36 21L35 21L35 22L36 22L36 21L37 21L37 23L38 23L38 21L37 21L37 20L38 20L38 19L37 19L37 15L38 15L38 13ZM28 15L28 16L29 16L29 15ZM6 16L6 17L7 17L7 18L8 18L8 17L7 17L7 16ZM28 17L28 18L29 18L29 20L30 20L30 19L31 19L31 18L32 18L32 17L31 17L31 18L29 18L29 17ZM40 17L40 18L41 18L41 19L40 19L40 22L41 22L41 21L42 21L42 22L43 22L43 21L44 21L44 19L42 19L42 18L41 18L41 17ZM9 18L9 19L10 19L10 20L8 20L8 19L7 19L7 20L8 20L8 21L11 21L11 22L12 22L12 21L11 21L11 20L13 20L13 19L12 19L12 18L11 18L11 19L10 19L10 18ZM26 18L26 21L27 21L27 20L28 20L28 19L27 19L27 18ZM24 19L24 20L25 20L25 19ZM41 19L41 20L42 20L42 19ZM24 21L24 22L25 22L25 21ZM30 21L30 22L32 22L32 21ZM5 23L5 26L8 26L8 23ZM23 23L23 26L26 26L26 23ZM41 23L41 26L44 26L44 23ZM6 24L6 25L7 25L7 24ZM24 24L24 25L25 25L25 24ZM33 24L33 25L34 25L34 24ZM42 24L42 25L43 25L43 24ZM12 25L12 26L11 26L11 27L12 27L12 26L13 26L13 25ZM45 26L45 27L46 27L46 26ZM47 26L47 27L48 27L48 26ZM1 27L1 28L2 28L2 27ZM18 28L18 29L19 29L19 28ZM2 29L2 30L3 30L3 29ZM25 29L25 30L24 30L24 31L25 31L25 30L26 30L26 29ZM39 29L39 31L40 31L40 29ZM9 30L9 31L8 31L8 32L9 32L9 33L10 33L10 30ZM45 31L45 33L46 33L46 31ZM30 32L30 33L31 33L31 32ZM4 33L4 35L5 35L5 34L7 34L7 33ZM22 35L22 36L21 36L21 37L24 37L24 38L25 38L25 36L23 36L23 35ZM38 36L38 37L39 37L39 36ZM40 36L40 38L39 38L39 39L40 39L40 38L42 38L42 37L41 37L41 36ZM29 37L29 38L30 38L30 37ZM22 38L22 39L23 39L23 38ZM6 40L6 41L7 41L7 40ZM8 40L8 42L9 42L9 41L10 41L10 40ZM23 41L23 44L26 44L26 41ZM41 41L41 44L44 44L44 41ZM20 42L20 46L21 46L21 48L22 48L22 47L23 47L23 46L22 46L22 42ZM24 42L24 43L25 43L25 42ZM27 42L27 43L29 43L29 42ZM42 42L42 43L43 43L43 42ZM45 42L45 43L46 43L46 45L45 45L45 47L44 47L44 45L42 45L42 46L41 46L41 45L40 45L40 44L39 44L39 45L38 45L38 47L39 47L39 45L40 45L40 47L42 47L42 46L43 46L43 47L44 47L44 48L45 48L45 47L46 47L46 46L47 46L47 45L48 45L48 44L47 44L47 43L46 43L46 42ZM11 44L11 45L12 45L12 44ZM18 44L18 45L17 45L17 46L19 46L19 44ZM26 45L26 47L27 47L27 45ZM29 45L29 47L30 47L30 49L31 49L31 47L30 47L30 45ZM0 0L0 7L7 7L7 0ZM1 1L1 6L6 6L6 1ZM2 2L2 5L5 5L5 2ZM42 0L42 7L49 7L49 0ZM43 1L43 6L48 6L48 1ZM44 2L44 5L47 5L47 2ZM0 42L0 49L7 49L7 42ZM1 43L1 48L6 48L6 43ZM2 44L2 47L5 47L5 44Z" fill="#000000"/></g></g></svg>
