<?xml version="1.0" encoding="UTF-8"?>
<svg xmlns="http://www.w3.org/2000/svg" version="1.1" width="200" height="200" viewBox="0 0 200 200"><rect x="0" y="0" width="200" height="200" fill="#ffffff"/><g transform="scale(3.774)"><g transform="translate(2,2)"><path fill-rule="evenodd" d="M11 0L11 1L10 1L10 2L9 2L9 3L10 3L10 2L11 2L11 5L10 5L10 7L11 7L11 6L12 6L12 8L9 8L9 6L8 6L8 8L6 8L6 9L7 9L7 10L5 10L5 11L7 11L7 12L5 12L5 13L4 13L4 14L3 14L3 12L4 12L4 8L2 8L2 10L1 10L1 12L0 12L0 14L1 14L1 15L3 15L3 17L7 17L7 18L5 18L5 20L4 20L4 21L7 21L7 22L4 22L4 24L3 24L3 26L2 26L2 25L1 25L1 24L2 24L2 23L0 23L0 25L1 25L1 26L2 26L2 27L1 27L1 30L0 30L0 31L1 31L1 30L2 30L2 32L0 32L0 33L1 33L1 34L2 34L2 32L3 32L3 31L7 31L7 32L4 32L4 33L3 33L3 35L2 35L2 36L0 36L0 38L1 38L1 40L0 40L0 41L3 41L3 40L4 40L4 39L2 39L2 38L5 38L5 39L7 39L7 40L6 40L6 41L7 41L7 40L8 40L8 43L9 43L9 42L11 42L11 41L12 41L12 44L13 44L13 45L12 45L12 47L13 47L13 45L14 45L14 48L13 48L13 49L16 49L16 48L15 48L15 45L14 45L14 44L15 44L15 42L16 42L16 43L17 43L17 42L18 42L18 44L16 44L16 47L17 47L17 46L19 46L19 44L20 44L20 45L21 45L21 46L20 46L20 49L21 49L21 48L22 48L22 47L23 47L23 49L24 49L24 47L25 47L25 49L28 49L28 48L29 48L29 49L30 49L30 48L31 48L31 45L32 45L32 48L33 48L33 49L35 49L35 48L36 48L36 49L39 49L39 48L37 48L37 47L38 47L38 46L37 46L37 45L36 45L36 46L34 46L34 45L35 45L35 44L34 44L34 45L32 45L32 43L31 43L31 44L30 44L30 47L29 47L29 46L28 46L28 45L27 45L27 41L29 41L29 40L28 40L28 39L27 39L27 40L26 40L26 37L25 37L25 35L28 35L28 36L30 36L30 34L31 34L31 35L32 35L32 36L33 36L33 37L32 37L32 38L31 38L31 39L30 39L30 40L32 40L32 41L31 41L31 42L32 42L32 41L34 41L34 42L35 42L35 41L36 41L36 44L37 44L37 43L38 43L38 41L39 41L39 40L37 40L37 41L36 41L36 38L37 38L37 35L38 35L38 34L36 34L36 35L35 35L35 34L34 34L34 33L38 33L38 32L40 32L40 33L39 33L39 34L40 34L40 35L39 35L39 36L38 36L38 39L40 39L40 38L42 38L42 37L44 37L44 38L43 38L43 39L44 39L44 38L45 38L45 39L46 39L46 38L45 38L45 36L43 36L43 35L42 35L42 34L40 34L40 33L41 33L41 32L44 32L44 33L46 33L46 32L45 32L45 31L47 31L47 30L48 30L48 31L49 31L49 29L48 29L48 27L47 27L47 26L49 26L49 25L47 25L47 23L48 23L48 24L49 24L49 23L48 23L48 21L47 21L47 23L46 23L46 27L45 27L45 21L46 21L46 20L45 20L45 21L44 21L44 18L45 18L45 19L47 19L47 18L48 18L48 19L49 19L49 17L48 17L48 16L49 16L49 15L48 15L48 16L45 16L45 14L47 14L47 11L48 11L48 14L49 14L49 11L48 11L48 9L47 9L47 11L46 11L46 9L45 9L45 8L44 8L44 9L45 9L45 11L44 11L44 12L45 12L45 11L46 11L46 13L43 13L43 12L42 12L42 13L41 13L41 11L39 11L39 12L40 12L40 13L41 13L41 14L40 14L40 15L39 15L39 13L38 13L38 15L37 15L37 16L39 16L39 17L38 17L38 18L39 18L39 17L40 17L40 18L41 18L41 17L40 17L40 16L42 16L42 17L43 17L43 18L42 18L42 19L41 19L41 20L42 20L42 22L40 22L40 20L39 20L39 19L38 19L38 20L37 20L37 17L36 17L36 15L34 15L34 14L32 14L32 15L30 15L30 16L33 16L33 15L34 15L34 17L33 17L33 18L32 18L32 17L30 17L30 18L32 18L32 19L29 19L29 18L28 18L28 17L27 17L27 15L28 15L28 16L29 16L29 14L27 14L27 11L26 11L26 9L27 9L27 8L28 8L28 9L29 9L29 10L28 10L28 13L30 13L30 12L31 12L31 13L32 13L32 12L33 12L33 13L35 13L35 14L36 14L36 13L37 13L37 11L38 11L38 10L37 10L37 9L39 9L39 10L40 10L40 8L39 8L39 5L38 5L38 4L37 4L37 3L38 3L38 2L39 2L39 4L40 4L40 3L41 3L41 0L40 0L40 1L38 1L38 0L37 0L37 1L38 1L38 2L36 2L36 1L34 1L34 0L33 0L33 2L34 2L34 3L32 3L32 2L31 2L31 1L32 1L32 0L30 0L30 3L32 3L32 7L31 7L31 5L30 5L30 4L29 4L29 2L27 2L27 3L26 3L26 2L25 2L25 0L24 0L24 3L26 3L26 4L23 4L23 3L22 3L22 4L21 4L21 6L20 6L20 7L19 7L19 6L18 6L18 5L19 5L19 4L20 4L20 3L19 3L19 4L18 4L18 1L17 1L17 0L15 0L15 1L14 1L14 3L16 3L16 2L17 2L17 4L18 4L18 5L16 5L16 4L15 4L15 5L13 5L13 0ZM19 0L19 2L22 2L22 1L23 1L23 0L22 0L22 1L21 1L21 0ZM27 0L27 1L29 1L29 0ZM34 3L34 4L33 4L33 5L34 5L34 6L33 6L33 9L31 9L31 10L33 10L33 9L34 9L34 10L35 10L35 9L37 9L37 8L38 8L38 5L36 5L36 6L35 6L35 4L36 4L36 3ZM8 4L8 5L9 5L9 4ZM27 4L27 5L28 5L28 4ZM12 5L12 6L13 6L13 7L14 7L14 8L12 8L12 9L14 9L14 8L15 8L15 9L18 9L18 8L19 8L19 7L18 7L18 6L17 6L17 8L15 8L15 7L16 7L16 5L15 5L15 7L14 7L14 6L13 6L13 5ZM23 5L23 8L26 8L26 5ZM29 5L29 8L30 8L30 5ZM21 6L21 7L20 7L20 9L19 9L19 10L16 10L16 11L15 11L15 10L14 10L14 11L15 11L15 13L16 13L16 14L17 14L17 13L16 13L16 11L18 11L18 13L19 13L19 15L15 15L15 14L13 14L13 18L12 18L12 17L11 17L11 19L10 19L10 18L7 18L7 19L6 19L6 20L8 20L8 22L9 22L9 20L8 20L8 19L10 19L10 20L11 20L11 21L10 21L10 22L12 22L12 23L9 23L9 24L10 24L10 26L9 26L9 27L10 27L10 28L8 28L8 27L4 27L4 26L3 26L3 28L2 28L2 30L3 30L3 28L4 28L4 30L7 30L7 31L8 31L8 32L7 32L7 33L6 33L6 34L5 34L5 33L4 33L4 34L5 34L5 35L3 35L3 36L2 36L2 37L3 37L3 36L7 36L7 37L6 37L6 38L8 38L8 40L13 40L13 41L14 41L14 42L13 42L13 43L14 43L14 42L15 42L15 41L16 41L16 40L19 40L19 41L22 41L22 40L23 40L23 39L24 39L24 40L25 40L25 39L24 39L24 37L23 37L23 36L24 36L24 35L25 35L25 34L24 34L24 32L25 32L25 33L26 33L26 34L28 34L28 35L29 35L29 34L30 34L30 32L31 32L31 34L32 34L32 35L33 35L33 34L32 34L32 31L33 31L33 33L34 33L34 29L35 29L35 28L34 28L34 29L33 29L33 30L32 30L32 28L31 28L31 29L30 29L30 28L29 28L29 27L31 27L31 25L33 25L33 26L32 26L32 27L33 27L33 26L34 26L34 27L36 27L36 30L35 30L35 31L36 31L36 32L38 32L38 31L36 31L36 30L37 30L37 29L38 29L38 30L39 30L39 31L40 31L40 32L41 32L41 31L42 31L42 30L43 30L43 31L44 31L44 30L46 30L46 29L45 29L45 27L42 27L42 29L41 29L41 31L40 31L40 28L41 28L41 27L38 27L38 25L39 25L39 26L40 26L40 25L39 25L39 24L40 24L40 23L39 23L39 20L38 20L38 21L37 21L37 20L36 20L36 17L34 17L34 20L33 20L33 21L34 21L34 22L36 22L36 21L37 21L37 22L38 22L38 23L39 23L39 24L37 24L37 26L36 26L36 24L34 24L34 23L31 23L31 21L32 21L32 20L31 20L31 21L30 21L30 23L27 23L27 26L29 26L29 27L28 27L28 28L29 28L29 29L27 29L27 28L25 28L25 29L24 29L24 28L23 28L23 27L20 27L20 28L21 28L21 32L23 32L23 33L21 33L21 34L20 34L20 36L21 36L21 37L18 37L18 38L20 38L20 39L22 39L22 40L19 40L19 39L16 39L16 37L15 37L15 36L16 36L16 35L17 35L17 32L18 32L18 33L19 33L19 32L20 32L20 29L19 29L19 28L18 28L18 31L17 31L17 29L15 29L15 28L16 28L16 27L17 27L17 26L18 26L18 25L19 25L19 26L20 26L20 25L21 25L21 26L22 26L22 25L21 25L21 22L24 22L24 21L25 21L25 22L26 22L26 19L25 19L25 18L26 18L26 16L25 16L25 12L26 12L26 11L25 11L25 10L24 10L24 9L23 9L23 10L22 10L22 9L21 9L21 7L22 7L22 6ZM24 6L24 7L25 7L25 6ZM27 6L27 7L28 7L28 6ZM34 6L34 7L35 7L35 6ZM36 6L36 7L37 7L37 6ZM40 6L40 7L41 7L41 6ZM34 8L34 9L35 9L35 8ZM41 8L41 9L42 9L42 11L43 11L43 8ZM8 9L8 10L9 10L9 12L7 12L7 13L6 13L6 14L7 14L7 15L6 15L6 16L7 16L7 15L8 15L8 16L9 16L9 15L10 15L10 16L11 16L11 15L12 15L12 13L13 13L13 11L12 11L12 13L11 13L11 11L10 11L10 10L11 10L11 9L10 9L10 10L9 10L9 9ZM20 9L20 10L21 10L21 9ZM2 10L2 11L3 11L3 10ZM23 10L23 12L21 12L21 13L20 13L20 12L19 12L19 13L20 13L20 14L21 14L21 15L19 15L19 16L17 16L17 17L15 17L15 16L14 16L14 18L16 18L16 19L15 19L15 20L13 20L13 19L11 19L11 20L12 20L12 22L13 22L13 23L12 23L12 24L11 24L11 25L12 25L12 26L11 26L11 28L10 28L10 29L9 29L9 30L8 30L8 31L9 31L9 32L8 32L8 34L6 34L6 35L8 35L8 34L9 34L9 35L11 35L11 34L10 34L10 33L9 33L9 32L11 32L11 30L12 30L12 29L13 29L13 28L15 28L15 27L16 27L16 26L15 26L15 27L13 27L13 26L14 26L14 24L15 24L15 23L16 23L16 22L18 22L18 23L19 23L19 24L20 24L20 23L19 23L19 21L20 21L20 22L21 22L21 21L20 21L20 19L23 19L23 20L24 20L24 18L25 18L25 16L24 16L24 12L25 12L25 11L24 11L24 10ZM29 10L29 12L30 12L30 10ZM36 10L36 11L34 11L34 12L35 12L35 13L36 13L36 11L37 11L37 10ZM31 11L31 12L32 12L32 11ZM1 13L1 14L2 14L2 13ZM9 13L9 14L8 14L8 15L9 15L9 14L10 14L10 15L11 15L11 13ZM21 13L21 14L22 14L22 15L23 15L23 14L22 14L22 13ZM42 13L42 14L43 14L43 13ZM4 14L4 15L5 15L5 14ZM26 14L26 15L27 15L27 14ZM0 16L0 20L1 20L1 18L2 18L2 21L0 21L0 22L3 22L3 19L4 19L4 18L2 18L2 17L1 17L1 16ZM19 16L19 18L18 18L18 17L17 17L17 19L18 19L18 21L19 21L19 18L20 18L20 16ZM21 16L21 17L22 17L22 16ZM23 16L23 18L24 18L24 16ZM43 16L43 17L44 17L44 16ZM45 17L45 18L46 18L46 17ZM27 18L27 19L28 19L28 18ZM42 19L42 20L43 20L43 19ZM16 20L16 21L17 21L17 20ZM28 20L28 22L29 22L29 20ZM14 21L14 22L15 22L15 21ZM43 21L43 22L44 22L44 21ZM5 23L5 26L8 26L8 23ZM13 23L13 24L12 24L12 25L13 25L13 24L14 24L14 23ZM23 23L23 26L26 26L26 23ZM30 23L30 25L29 25L29 26L30 26L30 25L31 25L31 23ZM41 23L41 26L44 26L44 23ZM6 24L6 25L7 25L7 24ZM16 24L16 25L18 25L18 24ZM24 24L24 25L25 25L25 24ZM33 24L33 25L34 25L34 24ZM42 24L42 25L43 25L43 24ZM46 27L46 28L47 28L47 27ZM6 28L6 29L7 29L7 28ZM11 28L11 29L10 29L10 30L9 30L9 31L10 31L10 30L11 30L11 29L12 29L12 28ZM22 28L22 29L23 29L23 30L22 30L22 31L23 31L23 32L24 32L24 31L25 31L25 32L26 32L26 33L27 33L27 31L28 31L28 32L29 32L29 31L32 31L32 30L27 30L27 29L25 29L25 30L24 30L24 29L23 29L23 28ZM14 30L14 31L16 31L16 30ZM25 30L25 31L26 31L26 30ZM48 32L48 33L47 33L47 34L46 34L46 37L47 37L47 35L48 35L48 33L49 33L49 32ZM12 33L12 36L13 36L13 37L10 37L10 38L9 38L9 37L8 37L8 38L9 38L9 39L13 39L13 40L15 40L15 37L14 37L14 36L15 36L15 35L16 35L16 33L15 33L15 35L14 35L14 33ZM21 34L21 36L22 36L22 34ZM23 34L23 35L24 35L24 34ZM18 35L18 36L19 36L19 35ZM34 36L34 37L33 37L33 38L34 38L34 41L35 41L35 37L36 37L36 36ZM40 36L40 37L42 37L42 36ZM48 36L48 38L49 38L49 36ZM13 37L13 38L14 38L14 37ZM21 37L21 38L22 38L22 39L23 39L23 38L22 38L22 37ZM29 37L29 38L30 38L30 37ZM41 39L41 40L40 40L40 42L39 42L39 43L40 43L40 45L39 45L39 47L42 47L42 46L44 46L44 47L43 47L43 48L44 48L44 47L45 47L45 45L46 45L46 44L45 44L45 43L46 43L46 42L48 42L48 43L47 43L47 44L48 44L48 43L49 43L49 41L48 41L48 40L42 40L42 39ZM23 41L23 44L26 44L26 41ZM41 41L41 44L44 44L44 41ZM45 41L45 42L46 42L46 41ZM19 42L19 43L20 43L20 44L21 44L21 42ZM24 42L24 43L25 43L25 42ZM28 42L28 44L29 44L29 43L30 43L30 42ZM42 42L42 43L43 43L43 42ZM10 44L10 47L9 47L9 45L8 45L8 47L9 47L9 49L10 49L10 47L11 47L11 44ZM22 45L22 46L21 46L21 47L22 47L22 46L23 46L23 47L24 47L24 46L23 46L23 45ZM25 45L25 46L27 46L27 45ZM40 45L40 46L42 46L42 45ZM48 45L48 46L49 46L49 45ZM36 46L36 47L37 47L37 46ZM46 46L46 49L49 49L49 48L47 48L47 46ZM18 47L18 48L17 48L17 49L19 49L19 47ZM26 47L26 48L27 48L27 47ZM33 47L33 48L34 48L34 47ZM40 48L40 49L42 49L42 48ZM0 0L0 7L7 7L7 0ZM1 1L1 6L6 6L6 1ZM2 2L2 5L5 5L5 2ZM42 0L42 7L49 7L49 0ZM43 1L43 6L48 6L48 1ZM44 2L44 5L47 5L47 2ZM0 42L0 49L7 49L7 42ZM1 43L1 48L6 48L6 43ZM2 44L2 47L5 47L5 44Z" fill="#000000"/></g></g></svg>
