<?xml version="1.0" encoding="UTF-8"?>
<svg xmlns="http://www.w3.org/2000/svg" version="1.1" width="200" height="200" viewBox="0 0 200 200"><rect x="0" y="0" width="200" height="200" fill="#ffffff"/><g transform="scale(3.774)"><g transform="translate(2,2)"><path fill-rule="evenodd" d="M8 0L8 1L9 1L9 3L8 3L8 4L9 4L9 3L10 3L10 2L11 2L11 3L12 3L12 2L13 2L13 4L10 4L10 5L9 5L9 6L8 6L8 7L9 7L9 6L10 6L10 8L8 8L8 9L10 9L10 8L11 8L11 9L14 9L14 7L15 7L15 8L16 8L16 7L17 7L17 9L15 9L15 12L14 12L14 10L13 10L13 12L10 12L10 13L9 13L9 11L11 11L11 10L6 10L6 9L7 9L7 8L4 8L4 9L5 9L5 10L4 10L4 12L3 12L3 8L2 8L2 11L0 11L0 13L2 13L2 12L3 12L3 18L4 18L4 19L3 19L3 20L4 20L4 21L5 21L5 22L4 22L4 27L5 27L5 28L3 28L3 27L2 27L2 26L3 26L3 21L2 21L2 20L1 20L1 19L0 19L0 25L1 25L1 24L2 24L2 26L0 26L0 29L1 29L1 30L0 30L0 38L1 38L1 40L0 40L0 41L3 41L3 40L4 40L4 39L2 39L2 37L3 37L3 35L4 35L4 36L5 36L5 37L4 37L4 38L5 38L5 39L7 39L7 38L8 38L8 39L12 39L12 40L11 40L11 41L12 41L12 42L11 42L11 43L10 43L10 42L9 42L9 41L10 41L10 40L8 40L8 42L9 42L9 43L8 43L8 45L9 45L9 46L8 46L8 47L9 47L9 46L11 46L11 47L10 47L10 49L11 49L11 48L12 48L12 45L13 45L13 43L14 43L14 48L13 48L13 49L14 49L14 48L16 48L16 49L19 49L19 46L20 46L20 48L21 48L21 49L24 49L24 48L23 48L23 47L24 47L24 46L23 46L23 47L22 47L22 48L21 48L21 46L22 46L22 45L26 45L26 46L27 46L27 47L26 47L26 48L25 48L25 49L28 49L28 48L27 48L27 47L28 47L28 45L27 45L27 44L29 44L29 46L30 46L30 45L31 45L31 46L32 46L32 49L33 49L33 48L34 48L34 45L35 45L35 46L36 46L36 49L38 49L38 45L39 45L39 49L40 49L40 48L41 48L41 49L42 49L42 47L43 47L43 48L44 48L44 49L46 49L46 47L47 47L47 49L49 49L49 48L48 48L48 47L49 47L49 46L48 46L48 45L49 45L49 44L48 44L48 43L49 43L49 36L48 36L48 35L49 35L49 33L48 33L48 35L47 35L47 36L48 36L48 39L47 39L47 40L48 40L48 43L47 43L47 42L46 42L46 40L44 40L44 39L46 39L46 35L45 35L45 38L44 38L44 36L43 36L43 34L44 34L44 32L43 32L43 30L42 30L42 29L41 29L41 30L42 30L42 31L41 31L41 32L40 32L40 33L39 33L39 32L38 32L38 29L37 29L37 28L38 28L38 25L39 25L39 27L42 27L42 28L44 28L44 27L45 27L45 30L46 30L46 27L47 27L47 28L48 28L48 31L49 31L49 25L46 25L46 19L45 19L45 18L46 18L46 16L45 16L45 15L44 15L44 17L43 17L43 18L42 18L42 16L41 16L41 15L42 15L42 13L43 13L43 12L42 12L42 8L41 8L41 10L40 10L40 7L41 7L41 6L40 6L40 7L39 7L39 5L38 5L38 3L37 3L37 5L38 5L38 7L37 7L37 6L36 6L36 7L37 7L37 8L36 8L36 9L37 9L37 10L36 10L36 11L34 11L34 9L35 9L35 8L34 8L34 7L35 7L35 4L36 4L36 1L35 1L35 0L34 0L34 3L33 3L33 2L31 2L31 3L28 3L28 4L27 4L27 2L26 2L26 3L22 3L22 2L24 2L24 1L27 1L27 0L21 0L21 1L22 1L22 2L18 2L18 1L16 1L16 2L15 2L15 3L16 3L16 7L15 7L15 6L14 6L14 7L13 7L13 4L14 4L14 1L15 1L15 0L14 0L14 1L13 1L13 0ZM19 0L19 1L20 1L20 0ZM32 0L32 1L33 1L33 0ZM37 0L37 2L39 2L39 4L40 4L40 3L41 3L41 0L40 0L40 1L38 1L38 0ZM28 1L28 2L29 2L29 1ZM16 2L16 3L17 3L17 4L18 4L18 6L17 6L17 7L18 7L18 8L19 8L19 9L18 9L18 10L19 10L19 12L18 12L18 13L17 13L17 14L18 14L18 15L19 15L19 16L17 16L17 17L16 17L16 15L14 15L14 16L11 16L11 15L10 15L10 14L12 14L12 15L13 15L13 14L12 14L12 13L10 13L10 14L8 14L8 15L10 15L10 17L9 17L9 18L11 18L11 19L10 19L10 20L11 20L11 21L8 21L8 20L9 20L9 19L8 19L8 17L6 17L6 16L7 16L7 15L5 15L5 13L6 13L6 14L7 14L7 13L8 13L8 12L7 12L7 11L6 11L6 10L5 10L5 13L4 13L4 17L6 17L6 18L5 18L5 19L4 19L4 20L5 20L5 19L6 19L6 20L7 20L7 21L6 21L6 22L10 22L10 23L12 23L12 22L14 22L14 20L15 20L15 19L16 19L16 21L17 21L17 22L18 22L18 25L17 25L17 24L16 24L16 27L15 27L15 28L14 28L14 27L13 27L13 26L14 26L14 25L13 25L13 24L14 24L14 23L13 23L13 24L12 24L12 25L10 25L10 24L9 24L9 27L10 27L10 28L9 28L9 29L6 29L6 30L4 30L4 29L3 29L3 31L2 31L2 32L1 32L1 33L3 33L3 32L7 32L7 31L6 31L6 30L8 30L8 31L9 31L9 30L10 30L10 31L11 31L11 32L10 32L10 33L9 33L9 35L10 35L10 36L9 36L9 37L8 37L8 35L6 35L6 36L7 36L7 37L6 37L6 38L7 38L7 37L8 37L8 38L9 38L9 37L11 37L11 38L13 38L13 41L14 41L14 42L15 42L15 47L17 47L17 46L18 46L18 45L17 45L17 46L16 46L16 43L17 43L17 42L18 42L18 41L19 41L19 40L21 40L21 41L20 41L20 43L19 43L19 44L20 44L20 46L21 46L21 45L22 45L22 44L20 44L20 43L22 43L22 42L21 42L21 41L22 41L22 40L24 40L24 39L25 39L25 40L27 40L27 39L30 39L30 40L31 40L31 41L30 41L30 44L31 44L31 45L32 45L32 42L33 42L33 41L32 41L32 38L33 38L33 37L32 37L32 35L33 35L33 34L32 34L32 35L30 35L30 34L31 34L31 32L30 32L30 31L29 31L29 30L28 30L28 29L29 29L29 28L30 28L30 30L31 30L31 31L32 31L32 33L34 33L34 36L35 36L35 37L34 37L34 40L35 40L35 41L34 41L34 42L35 42L35 43L34 43L34 44L33 44L33 45L34 45L34 44L35 44L35 45L36 45L36 46L37 46L37 45L36 45L36 42L35 42L35 41L36 41L36 38L35 38L35 37L36 37L36 35L37 35L37 34L36 34L36 35L35 35L35 33L34 33L34 32L33 32L33 31L32 31L32 26L33 26L33 25L34 25L34 27L35 27L35 29L34 29L34 31L36 31L36 33L38 33L38 35L39 35L39 37L38 37L38 40L39 40L39 41L38 41L38 42L39 42L39 43L40 43L40 42L39 42L39 41L40 41L40 40L42 40L42 38L43 38L43 39L44 39L44 38L43 38L43 37L42 37L42 34L41 34L41 33L42 33L42 32L41 32L41 33L40 33L40 34L39 34L39 33L38 33L38 32L37 32L37 31L36 31L36 30L37 30L37 29L36 29L36 26L35 26L35 25L36 25L36 23L37 23L37 21L38 21L38 24L39 24L39 25L40 25L40 24L39 24L39 21L38 21L38 20L39 20L39 19L38 19L38 17L39 17L39 16L38 16L38 15L40 15L40 14L41 14L41 13L42 13L42 12L41 12L41 11L40 11L40 14L39 14L39 7L38 7L38 8L37 8L37 9L38 9L38 15L37 15L37 13L36 13L36 12L34 12L34 11L33 11L33 13L34 13L34 15L33 15L33 14L32 14L32 15L33 15L33 17L31 17L31 18L28 18L28 17L29 17L29 16L28 16L28 15L27 15L27 13L26 13L26 12L27 12L27 11L28 11L28 14L29 14L29 15L30 15L30 16L31 16L31 15L30 15L30 14L31 14L31 12L32 12L32 11L31 11L31 10L30 10L30 9L32 9L32 10L33 10L33 9L34 9L34 8L33 8L33 7L34 7L34 4L35 4L35 3L34 3L34 4L33 4L33 5L32 5L32 6L31 6L31 8L29 8L29 9L28 9L28 6L29 6L29 7L30 7L30 6L29 6L29 5L30 5L30 4L29 4L29 5L28 5L28 6L27 6L27 9L24 9L24 10L23 10L23 12L21 12L21 11L22 11L22 8L21 8L21 7L22 7L22 5L20 5L20 4L21 4L21 3L19 3L19 4L18 4L18 3L17 3L17 2ZM11 5L11 7L12 7L12 8L13 8L13 7L12 7L12 5ZM19 5L19 6L18 6L18 7L19 7L19 6L20 6L20 7L21 7L21 6L20 6L20 5ZM23 5L23 8L26 8L26 5ZM24 6L24 7L25 7L25 6ZM32 6L32 7L33 7L33 6ZM20 8L20 9L19 9L19 10L21 10L21 8ZM45 8L45 11L44 11L44 13L46 13L46 14L47 14L47 13L46 13L46 11L47 11L47 12L48 12L48 15L47 15L47 16L48 16L48 19L49 19L49 16L48 16L48 15L49 15L49 8L48 8L48 11L47 11L47 10L46 10L46 8ZM43 9L43 10L44 10L44 9ZM24 10L24 12L23 12L23 13L22 13L22 14L21 14L21 13L20 13L20 14L19 14L19 13L18 13L18 14L19 14L19 15L20 15L20 16L19 16L19 17L17 17L17 20L18 20L18 21L19 21L19 22L21 22L21 23L22 23L22 25L21 25L21 24L20 24L20 23L19 23L19 24L20 24L20 25L18 25L18 26L17 26L17 27L16 27L16 28L17 28L17 27L18 27L18 26L20 26L20 25L21 25L21 28L18 28L18 29L20 29L20 30L22 30L22 32L21 32L21 31L20 31L20 32L21 32L21 33L20 33L20 34L19 34L19 31L18 31L18 30L16 30L16 29L15 29L15 30L14 30L14 31L13 31L13 29L12 29L12 28L11 28L11 29L10 29L10 30L11 30L11 31L13 31L13 32L12 32L12 33L11 33L11 37L14 37L14 38L16 38L16 37L14 37L14 36L16 36L16 35L17 35L17 36L18 36L18 38L17 38L17 40L15 40L15 39L14 39L14 40L15 40L15 42L17 42L17 40L19 40L19 39L18 39L18 38L20 38L20 39L21 39L21 37L24 37L24 38L25 38L25 36L26 36L26 39L27 39L27 38L28 38L28 37L29 37L29 38L30 38L30 39L31 39L31 38L30 38L30 37L29 37L29 36L28 36L28 35L29 35L29 34L30 34L30 33L29 33L29 34L24 34L24 35L25 35L25 36L23 36L23 35L22 35L22 34L23 34L23 33L25 33L25 32L23 32L23 30L24 30L24 31L25 31L25 30L26 30L26 28L27 28L27 27L28 27L28 28L29 28L29 27L28 27L28 26L29 26L29 24L30 24L30 26L31 26L31 24L30 24L30 23L28 23L28 20L31 20L31 21L29 21L29 22L31 22L31 23L33 23L33 24L32 24L32 25L33 25L33 24L34 24L34 25L35 25L35 24L34 24L34 21L32 21L32 20L31 20L31 19L28 19L28 18L27 18L27 17L28 17L28 16L27 16L27 15L26 15L26 14L24 14L24 12L25 12L25 11L26 11L26 10ZM16 11L16 12L15 12L15 14L16 14L16 12L17 12L17 11ZM29 11L29 13L30 13L30 12L31 12L31 11ZM6 12L6 13L7 13L7 12ZM13 12L13 13L14 13L14 12ZM35 13L35 14L36 14L36 13ZM0 14L0 16L2 16L2 15L1 15L1 14ZM20 14L20 15L21 15L21 14ZM22 14L22 16L21 16L21 17L19 17L19 19L18 19L18 20L19 20L19 21L20 21L20 20L21 20L21 22L23 22L23 21L24 21L24 22L25 22L25 21L24 21L24 20L25 20L25 18L26 18L26 21L27 21L27 20L28 20L28 19L27 19L27 18L26 18L26 15L25 15L25 16L23 16L23 14ZM34 15L34 16L35 16L35 15ZM36 15L36 17L34 17L34 19L35 19L35 18L36 18L36 21L35 21L35 22L36 22L36 21L37 21L37 20L38 20L38 19L37 19L37 15ZM14 16L14 18L12 18L12 17L11 17L11 18L12 18L12 19L13 19L13 20L14 20L14 19L15 19L15 16ZM22 16L22 17L23 17L23 18L25 18L25 17L23 17L23 16ZM0 17L0 18L2 18L2 17ZM40 17L40 18L41 18L41 19L40 19L40 22L41 22L41 21L42 21L42 22L43 22L43 21L44 21L44 18L43 18L43 19L42 19L42 18L41 18L41 17ZM6 18L6 19L7 19L7 20L8 20L8 19L7 19L7 18ZM20 18L20 19L21 19L21 20L22 20L22 19L21 19L21 18ZM32 18L32 19L33 19L33 18ZM23 19L23 20L24 20L24 19ZM41 19L41 20L42 20L42 19ZM48 20L48 23L47 23L47 24L49 24L49 20ZM1 21L1 23L2 23L2 21ZM11 21L11 22L12 22L12 21ZM31 21L31 22L32 22L32 21ZM5 23L5 26L8 26L8 23ZM23 23L23 26L26 26L26 23ZM27 23L27 24L28 24L28 23ZM41 23L41 26L44 26L44 23ZM6 24L6 25L7 25L7 24ZM24 24L24 25L25 25L25 24ZM42 24L42 25L43 25L43 24ZM12 25L12 26L11 26L11 27L12 27L12 26L13 26L13 25ZM27 25L27 26L28 26L28 25ZM45 26L45 27L46 27L46 26ZM47 26L47 27L48 27L48 26ZM1 27L1 28L2 28L2 27ZM6 27L6 28L7 28L7 27ZM22 27L22 28L23 28L23 29L24 29L24 30L25 30L25 29L24 29L24 28L26 28L26 27ZM11 29L11 30L12 30L12 29ZM39 29L39 31L40 31L40 29ZM15 30L15 31L16 31L16 30ZM26 31L26 33L27 33L27 32L29 32L29 31ZM45 31L45 33L46 33L46 31ZM15 32L15 33L12 33L12 35L13 35L13 34L15 34L15 33L16 33L16 34L17 34L17 35L18 35L18 36L19 36L19 34L17 34L17 33L18 33L18 32ZM4 33L4 35L5 35L5 34L8 34L8 33ZM21 33L21 34L20 34L20 36L22 36L22 35L21 35L21 34L22 34L22 33ZM2 34L2 35L1 35L1 36L2 36L2 35L3 35L3 34ZM26 35L26 36L27 36L27 35ZM40 36L40 38L39 38L39 39L40 39L40 38L42 38L42 37L41 37L41 36ZM22 38L22 39L23 39L23 38ZM6 40L6 41L7 41L7 40ZM23 41L23 44L26 44L26 41ZM27 41L27 42L28 42L28 43L29 43L29 42L28 42L28 41ZM31 41L31 42L32 42L32 41ZM41 41L41 44L44 44L44 41ZM12 42L12 43L13 43L13 42ZM24 42L24 43L25 43L25 42ZM42 42L42 43L43 43L43 42ZM45 42L45 43L46 43L46 45L48 45L48 44L47 44L47 43L46 43L46 42ZM9 43L9 45L10 45L10 43ZM11 44L11 45L12 45L12 44ZM39 44L39 45L40 45L40 47L42 47L42 46L43 46L43 47L44 47L44 48L45 48L45 47L44 47L44 45L42 45L42 46L41 46L41 45L40 45L40 44ZM30 47L30 48L29 48L29 49L30 49L30 48L31 48L31 47ZM0 0L0 7L7 7L7 0ZM1 1L1 6L6 6L6 1ZM2 2L2 5L5 5L5 2ZM42 0L42 7L49 7L49 0ZM43 1L43 6L48 6L48 1ZM44 2L44 5L47 5L47 2ZM0 42L0 49L7 49L7 42ZM1 43L1 48L6 48L6 43ZM2 44L2 47L5 47L5 44Z" fill="#000000"/></g></g></svg>
