<?xml version="1.0" encoding="UTF-8"?>
<svg xmlns="http://www.w3.org/2000/svg" version="1.1" width="200" height="200" viewBox="0 0 200 200"><rect x="0" y="0" width="200" height="200" fill="#ffffff"/><g transform="scale(3.774)"><g transform="translate(2,2)"><path fill-rule="evenodd" d="M8 0L8 1L9 1L9 3L8 3L8 4L9 4L9 3L10 3L10 2L11 2L11 4L10 4L10 5L9 5L9 6L8 6L8 7L9 7L9 8L8 8L8 9L9 9L9 10L6 10L6 9L7 9L7 8L4 8L4 9L3 9L3 8L2 8L2 9L1 9L1 10L2 10L2 9L3 9L3 10L4 10L4 12L3 12L3 18L4 18L4 19L3 19L3 21L1 21L1 19L0 19L0 21L1 21L1 22L0 22L0 25L1 25L1 24L2 24L2 26L0 26L0 29L1 29L1 32L0 32L0 38L1 38L1 40L0 40L0 41L3 41L3 40L4 40L4 39L2 39L2 37L3 37L3 36L5 36L5 37L4 37L4 38L5 38L5 39L7 39L7 38L8 38L8 39L12 39L12 42L11 42L11 43L15 43L15 42L16 42L16 46L17 46L17 47L15 47L15 45L14 45L14 44L12 44L12 45L11 45L11 47L10 47L10 49L11 49L11 48L12 48L12 45L13 45L13 46L14 46L14 48L13 48L13 49L14 49L14 48L16 48L16 49L19 49L19 46L20 46L20 48L21 48L21 49L24 49L24 48L23 48L23 47L24 47L24 46L23 46L23 47L22 47L22 48L21 48L21 46L20 46L20 44L21 44L21 45L25 45L25 46L26 46L26 45L27 45L27 47L25 47L25 48L26 48L26 49L28 49L28 48L27 48L27 47L28 47L28 45L27 45L27 44L30 44L30 41L31 41L31 42L32 42L32 45L29 45L29 47L30 47L30 48L29 48L29 49L30 49L30 48L31 48L31 46L32 46L32 49L33 49L33 48L34 48L34 45L35 45L35 46L36 46L36 49L37 49L37 48L38 48L38 49L40 49L40 48L41 48L41 49L42 49L42 47L43 47L43 48L44 48L44 49L46 49L46 46L45 46L45 45L46 45L46 43L47 43L47 44L48 44L48 45L47 45L47 49L49 49L49 48L48 48L48 47L49 47L49 46L48 46L48 45L49 45L49 44L48 44L48 43L49 43L49 36L48 36L48 35L49 35L49 33L48 33L48 35L47 35L47 36L48 36L48 39L47 39L47 40L48 40L48 43L47 43L47 42L46 42L46 40L44 40L44 39L46 39L46 35L45 35L45 38L44 38L44 36L43 36L43 34L44 34L44 32L43 32L43 30L42 30L42 31L41 31L41 32L40 32L40 33L39 33L39 32L38 32L38 29L37 29L37 28L38 28L38 25L37 25L37 23L38 23L38 21L39 21L39 24L40 24L40 25L39 25L39 27L42 27L42 29L43 29L43 28L44 28L44 27L45 27L45 30L46 30L46 27L47 27L47 28L48 28L48 31L49 31L49 25L46 25L46 23L47 23L47 24L49 24L49 20L48 20L48 23L47 23L47 22L46 22L46 23L45 23L45 21L46 21L46 19L45 19L45 18L46 18L46 16L45 16L45 15L44 15L44 17L45 17L45 18L44 18L44 21L43 21L43 22L42 22L42 21L41 21L41 22L40 22L40 19L41 19L41 20L42 20L42 19L43 19L43 18L42 18L42 16L41 16L41 15L42 15L42 13L43 13L43 12L42 12L42 8L41 8L41 10L40 10L40 7L41 7L41 6L40 6L40 7L39 7L39 5L38 5L38 3L37 3L37 5L38 5L38 7L37 7L37 6L36 6L36 7L37 7L37 8L36 8L36 9L37 9L37 10L36 10L36 11L34 11L34 9L35 9L35 8L34 8L34 7L35 7L35 4L36 4L36 1L35 1L35 0L34 0L34 3L33 3L33 4L34 4L34 7L33 7L33 5L32 5L32 4L31 4L31 3L29 3L29 4L28 4L28 2L29 2L29 1L28 1L28 2L26 2L26 3L22 3L22 1L23 1L23 2L25 2L25 1L27 1L27 0L24 0L24 1L23 1L23 0L22 0L22 1L21 1L21 2L18 2L18 1L16 1L16 2L15 2L15 3L16 3L16 2L17 2L17 3L18 3L18 4L16 4L16 5L15 5L15 6L14 6L14 7L15 7L15 6L16 6L16 7L17 7L17 9L14 9L14 8L12 8L12 7L13 7L13 6L12 6L12 7L11 7L11 4L12 4L12 5L13 5L13 4L14 4L14 1L15 1L15 0L14 0L14 1L13 1L13 0ZM19 0L19 1L20 1L20 0ZM32 0L32 1L33 1L33 0ZM37 0L37 2L39 2L39 4L40 4L40 3L41 3L41 0L40 0L40 1L38 1L38 0ZM12 2L12 4L13 4L13 2ZM19 3L19 4L18 4L18 5L16 5L16 6L17 6L17 7L18 7L18 5L19 5L19 4L21 4L21 3ZM34 3L34 4L35 4L35 3ZM27 4L27 9L24 9L24 10L23 10L23 12L21 12L21 11L22 11L22 8L21 8L21 7L22 7L22 5L20 5L20 6L19 6L19 8L18 8L18 9L17 9L17 10L18 10L18 9L20 9L20 8L21 8L21 10L19 10L19 12L18 12L18 13L17 13L17 14L18 14L18 15L19 15L19 16L17 16L17 17L20 17L20 18L17 18L17 19L18 19L18 20L16 20L16 15L14 15L14 16L12 16L12 17L11 17L11 15L10 15L10 14L12 14L12 15L13 15L13 14L12 14L12 13L10 13L10 12L13 12L13 13L14 13L14 12L15 12L15 14L16 14L16 12L17 12L17 11L16 11L16 12L15 12L15 10L14 10L14 12L13 12L13 9L11 9L11 7L10 7L10 6L9 6L9 7L10 7L10 8L9 8L9 9L10 9L10 10L11 10L11 11L9 11L9 13L10 13L10 14L8 14L8 15L10 15L10 17L8 17L8 16L7 16L7 15L5 15L5 14L7 14L7 13L8 13L8 12L7 12L7 11L6 11L6 10L5 10L5 9L4 9L4 10L5 10L5 14L4 14L4 17L6 17L6 18L5 18L5 19L4 19L4 20L5 20L5 19L6 19L6 20L7 20L7 21L6 21L6 22L9 22L9 21L10 21L10 23L12 23L12 22L13 22L13 21L14 21L14 20L16 20L16 21L17 21L17 22L18 22L18 25L17 25L17 24L16 24L16 27L15 27L15 28L14 28L14 27L13 27L13 26L14 26L14 25L13 25L13 24L14 24L14 23L13 23L13 24L12 24L12 25L10 25L10 24L9 24L9 27L10 27L10 28L9 28L9 29L5 29L5 27L4 27L4 23L3 23L3 22L1 22L1 23L3 23L3 26L2 26L2 27L1 27L1 28L2 28L2 27L3 27L3 28L4 28L4 29L3 29L3 31L2 31L2 32L4 32L4 31L5 31L5 32L7 32L7 31L6 31L6 30L8 30L8 31L9 31L9 33L8 33L8 34L9 34L9 35L10 35L10 36L9 36L9 37L8 37L8 35L6 35L6 36L7 36L7 37L6 37L6 38L7 38L7 37L8 37L8 38L9 38L9 37L11 37L11 38L13 38L13 41L14 41L14 42L15 42L15 41L16 41L16 42L17 42L17 43L18 43L18 41L20 41L20 40L21 40L21 39L22 39L22 40L24 40L24 39L25 39L25 40L29 40L29 39L30 39L30 40L31 40L31 41L32 41L32 42L33 42L33 41L32 41L32 39L30 39L30 38L31 38L31 37L32 37L32 35L33 35L33 34L32 34L32 35L31 35L31 34L30 34L30 33L29 33L29 32L27 32L27 33L26 33L26 32L25 32L25 31L27 31L27 30L26 30L26 29L28 29L28 31L29 31L29 28L30 28L30 30L31 30L31 31L30 31L30 32L31 32L31 31L32 31L32 33L34 33L34 35L35 35L35 37L34 37L34 40L35 40L35 41L34 41L34 42L35 42L35 43L34 43L34 44L33 44L33 45L34 45L34 44L35 44L35 45L36 45L36 46L37 46L37 45L36 45L36 42L35 42L35 41L36 41L36 38L37 38L37 37L36 37L36 35L37 35L37 36L38 36L38 40L39 40L39 41L38 41L38 42L39 42L39 43L40 43L40 42L39 42L39 41L40 41L40 40L42 40L42 38L43 38L43 39L44 39L44 38L43 38L43 37L42 37L42 34L41 34L41 33L42 33L42 32L41 32L41 33L40 33L40 34L39 34L39 33L38 33L38 32L37 32L37 31L36 31L36 30L37 30L37 29L36 29L36 26L35 26L35 25L36 25L36 23L37 23L37 21L38 21L38 20L39 20L39 19L38 19L38 17L39 17L39 16L38 16L38 15L40 15L40 14L41 14L41 13L42 13L42 12L40 12L40 14L39 14L39 13L38 13L38 12L39 12L39 7L38 7L38 8L37 8L37 9L38 9L38 11L37 11L37 13L36 13L36 12L34 12L34 11L33 11L33 13L34 13L34 15L33 15L33 14L32 14L32 16L31 16L31 15L30 15L30 14L31 14L31 12L32 12L32 11L31 11L31 10L30 10L30 9L32 9L32 10L33 10L33 9L34 9L34 8L33 8L33 7L32 7L32 5L31 5L31 8L30 8L30 6L29 6L29 5L30 5L30 4L29 4L29 5L28 5L28 4ZM23 5L23 8L26 8L26 5ZM20 6L20 7L21 7L21 6ZM24 6L24 7L25 7L25 6ZM28 6L28 9L29 9L29 6ZM45 8L45 11L44 11L44 13L46 13L46 14L47 14L47 13L46 13L46 11L47 11L47 12L48 12L48 15L47 15L47 16L48 16L48 19L49 19L49 16L48 16L48 15L49 15L49 8L48 8L48 11L47 11L47 10L46 10L46 8ZM43 9L43 10L44 10L44 9ZM24 10L24 12L23 12L23 13L20 13L20 14L19 14L19 13L18 13L18 14L19 14L19 15L20 15L20 16L21 16L21 17L25 17L25 16L24 16L24 15L25 15L25 14L24 14L24 12L25 12L25 13L26 13L26 12L27 12L27 15L26 15L26 18L25 18L25 20L24 20L24 18L23 18L23 20L24 20L24 21L23 21L23 22L21 22L21 20L22 20L22 19L19 19L19 20L18 20L18 22L21 22L21 23L22 23L22 25L21 25L21 24L20 24L20 23L19 23L19 24L20 24L20 25L18 25L18 26L17 26L17 27L16 27L16 30L14 30L14 31L16 31L16 32L18 32L18 33L19 33L19 32L21 32L21 33L20 33L20 34L19 34L19 36L18 36L18 35L17 35L17 34L16 34L16 33L15 33L15 34L13 34L13 35L12 35L12 33L14 33L14 32L13 32L13 31L12 31L12 33L11 33L11 32L10 32L10 33L11 33L11 37L14 37L14 38L16 38L16 37L14 37L14 36L16 36L16 35L17 35L17 36L18 36L18 38L17 38L17 40L16 40L16 41L17 41L17 40L19 40L19 39L18 39L18 38L20 38L20 39L21 39L21 37L24 37L24 38L25 38L25 36L26 36L26 39L27 39L27 38L28 38L28 37L29 37L29 38L30 38L30 37L29 37L29 36L28 36L28 35L30 35L30 34L25 34L25 33L24 33L24 34L23 34L23 32L21 32L21 29L22 29L22 30L24 30L24 31L25 31L25 30L24 30L24 29L26 29L26 28L28 28L28 26L29 26L29 24L30 24L30 26L31 26L31 24L30 24L30 23L33 23L33 24L32 24L32 25L33 25L33 26L32 26L32 29L31 29L31 30L32 30L32 29L33 29L33 32L34 32L34 33L35 33L35 35L36 35L36 34L37 34L37 35L38 35L38 33L36 33L36 31L34 31L34 29L35 29L35 27L34 27L34 25L35 25L35 24L34 24L34 21L32 21L32 20L31 20L31 19L32 19L32 17L33 17L33 16L32 16L32 17L31 17L31 16L30 16L30 15L29 15L29 14L28 14L28 11L26 11L26 10ZM29 10L29 13L30 13L30 12L31 12L31 11L30 11L30 10ZM0 11L0 13L2 13L2 11ZM25 11L25 12L26 12L26 11ZM6 12L6 13L7 13L7 12ZM37 13L37 14L36 14L36 17L34 17L34 19L35 19L35 18L36 18L36 21L35 21L35 22L36 22L36 21L37 21L37 20L38 20L38 19L37 19L37 15L38 15L38 13ZM0 14L0 16L2 16L2 15L1 15L1 14ZM20 14L20 15L21 15L21 16L23 16L23 15L21 15L21 14ZM34 15L34 16L35 16L35 15ZM6 16L6 17L7 17L7 16ZM14 16L14 19L13 19L13 20L14 20L14 19L15 19L15 16ZM28 16L28 17L27 17L27 18L26 18L26 21L27 21L27 20L28 20L28 23L27 23L27 24L28 24L28 23L30 23L30 22L29 22L29 21L31 21L31 22L32 22L32 21L31 21L31 20L30 20L30 19L31 19L31 18L29 18L29 16ZM0 17L0 18L2 18L2 17ZM12 17L12 18L9 18L9 19L11 19L11 20L10 20L10 21L11 21L11 22L12 22L12 21L11 21L11 20L12 20L12 18L13 18L13 17ZM40 17L40 18L41 18L41 19L42 19L42 18L41 18L41 17ZM6 18L6 19L7 19L7 20L8 20L8 21L9 21L9 20L8 20L8 19L7 19L7 18ZM28 18L28 20L29 20L29 18ZM19 20L19 21L20 21L20 20ZM4 21L4 22L5 22L5 21ZM24 21L24 22L25 22L25 21ZM5 23L5 26L8 26L8 23ZM23 23L23 26L26 26L26 23ZM41 23L41 26L44 26L44 23ZM6 24L6 25L7 25L7 24ZM24 24L24 25L25 25L25 24ZM33 24L33 25L34 25L34 24ZM42 24L42 25L43 25L43 24ZM12 25L12 26L11 26L11 27L12 27L12 26L13 26L13 25ZM20 25L20 26L18 26L18 27L17 27L17 31L18 31L18 32L19 32L19 31L18 31L18 30L20 30L20 29L18 29L18 28L23 28L23 29L24 29L24 28L26 28L26 27L21 27L21 25ZM27 25L27 26L28 26L28 25ZM45 26L45 27L46 27L46 26ZM47 26L47 27L48 27L48 26ZM6 27L6 28L7 28L7 27ZM12 28L12 29L13 29L13 28ZM10 29L10 31L11 31L11 29ZM39 29L39 31L40 31L40 29ZM45 31L45 33L46 33L46 31ZM1 33L1 34L2 34L2 35L1 35L1 36L3 36L3 33ZM4 33L4 35L5 35L5 34L7 34L7 33ZM21 33L21 34L20 34L20 36L22 36L22 35L23 35L23 34L22 34L22 33ZM21 34L21 35L22 35L22 34ZM24 34L24 36L25 36L25 34ZM26 35L26 36L27 36L27 35ZM40 36L40 38L39 38L39 39L40 39L40 38L42 38L42 37L41 37L41 36ZM22 38L22 39L23 39L23 38ZM14 39L14 40L15 40L15 39ZM6 40L6 41L7 41L7 40ZM8 40L8 42L9 42L9 43L8 43L8 45L9 45L9 46L8 46L8 47L9 47L9 46L10 46L10 44L9 44L9 43L10 43L10 42L9 42L9 41L10 41L10 40ZM21 41L21 42L20 42L20 43L19 43L19 44L20 44L20 43L21 43L21 42L22 42L22 41ZM23 41L23 44L26 44L26 41ZM41 41L41 44L44 44L44 41ZM24 42L24 43L25 43L25 42ZM42 42L42 43L43 43L43 42ZM45 42L45 43L46 43L46 42ZM17 44L17 45L18 45L18 46L19 46L19 45L18 45L18 44ZM39 44L39 45L38 45L38 47L39 47L39 45L40 45L40 47L42 47L42 46L43 46L43 47L44 47L44 48L45 48L45 47L44 47L44 45L42 45L42 46L41 46L41 45L40 45L40 44ZM0 0L0 7L7 7L7 0ZM1 1L1 6L6 6L6 1ZM2 2L2 5L5 5L5 2ZM42 0L42 7L49 7L49 0ZM43 1L43 6L48 6L48 1ZM44 2L44 5L47 5L47 2ZM0 42L0 49L7 49L7 42ZM1 43L1 48L6 48L6 43ZM2 44L2 47L5 47L5 44Z" fill="#000000"/></g></g></svg>
