<?xml version="1.0" encoding="UTF-8"?>
<svg xmlns="http://www.w3.org/2000/svg" version="1.1" width="200" height="200" viewBox="0 0 200 200"><rect x="0" y="0" width="200" height="200" fill="#ffffff"/><g transform="scale(3.774)"><g transform="translate(2,2)"><path fill-rule="evenodd" d="M11 0L11 1L14 1L14 3L13 3L13 2L10 2L10 1L9 1L9 2L8 2L8 4L11 4L11 5L12 5L12 7L11 7L11 6L10 6L10 5L9 5L9 6L8 6L8 7L9 7L9 11L7 11L7 10L8 10L8 8L6 8L6 9L5 9L5 8L3 8L3 9L2 9L2 10L1 10L1 9L0 9L0 10L1 10L1 12L0 12L0 13L3 13L3 14L0 14L0 15L1 15L1 16L0 16L0 17L1 17L1 18L3 18L3 20L4 20L4 21L5 21L5 22L4 22L4 23L3 23L3 21L2 21L2 23L3 23L3 26L4 26L4 28L1 28L1 27L2 27L2 26L0 26L0 29L2 29L2 30L3 30L3 29L5 29L5 27L7 27L7 28L6 28L6 29L8 29L8 31L7 31L7 30L5 30L5 31L4 31L4 32L3 32L3 31L2 31L2 32L1 32L1 31L0 31L0 34L1 34L1 33L2 33L2 34L3 34L3 35L0 35L0 36L4 36L4 37L2 37L2 38L1 38L1 37L0 37L0 38L1 38L1 40L0 40L0 41L3 41L3 40L4 40L4 39L2 39L2 38L5 38L5 39L7 39L7 40L6 40L6 41L7 41L7 40L8 40L8 43L10 43L10 42L12 42L12 44L13 44L13 47L12 47L12 46L11 46L11 44L8 44L8 46L10 46L10 47L9 47L9 48L10 48L10 47L11 47L11 48L14 48L14 49L15 49L15 48L14 48L14 47L15 47L15 46L16 46L16 45L17 45L17 46L18 46L18 48L16 48L16 49L18 49L18 48L21 48L21 49L22 49L22 48L21 48L21 47L19 47L19 46L20 46L20 44L19 44L19 46L18 46L18 45L17 45L17 43L15 43L15 42L19 42L19 41L18 41L18 40L20 40L20 39L21 39L21 38L22 38L22 37L23 37L23 36L24 36L24 38L23 38L23 39L25 39L25 38L26 38L26 35L25 35L25 34L24 34L24 33L26 33L26 32L27 32L27 31L28 31L28 30L26 30L26 29L28 29L28 28L29 28L29 27L28 27L28 28L26 28L26 27L27 27L27 26L28 26L28 25L29 25L29 24L30 24L30 22L29 22L29 21L30 21L30 20L31 20L31 22L32 22L32 23L31 23L31 25L30 25L30 28L31 28L31 29L29 29L29 30L31 30L31 29L32 29L32 30L33 30L33 29L34 29L34 30L35 30L35 31L36 31L36 32L34 32L34 35L33 35L33 36L30 36L30 35L32 35L32 34L31 34L31 33L29 33L29 32L32 32L32 33L33 33L33 31L29 31L29 32L28 32L28 33L27 33L27 35L28 35L28 34L30 34L30 35L29 35L29 36L30 36L30 37L29 37L29 38L28 38L28 37L27 37L27 38L28 38L28 39L29 39L29 40L27 40L27 39L26 39L26 40L22 40L22 41L21 41L21 42L22 42L22 44L21 44L21 46L22 46L22 45L28 45L28 47L30 47L30 49L39 49L39 48L33 48L33 46L32 46L32 47L31 47L31 46L30 46L30 45L32 45L32 44L31 44L31 43L28 43L28 42L27 42L27 41L29 41L29 40L32 40L32 43L33 43L33 40L32 40L32 39L30 39L30 37L33 37L33 39L34 39L34 40L35 40L35 41L34 41L34 43L35 43L35 44L33 44L33 45L34 45L34 47L36 47L36 46L37 46L37 47L38 47L38 46L39 46L39 45L40 45L40 47L41 47L41 48L43 48L43 49L45 49L45 48L43 48L43 46L44 46L44 47L45 47L45 46L44 46L44 45L45 45L45 43L48 43L48 47L46 47L46 48L48 48L48 49L49 49L49 42L47 42L47 41L49 41L49 38L48 38L48 37L49 37L49 34L48 34L48 33L49 33L49 32L47 32L47 33L46 33L46 34L45 34L45 32L44 32L44 34L41 34L41 32L40 32L40 30L41 30L41 31L44 31L44 30L45 30L45 31L49 31L49 30L47 30L47 29L49 29L49 22L48 22L48 21L49 21L49 18L47 18L47 17L48 17L48 16L49 16L49 14L48 14L48 12L49 12L49 10L48 10L48 9L47 9L47 8L45 8L45 9L46 9L46 10L44 10L44 11L39 11L39 12L43 12L43 13L42 13L42 14L39 14L39 13L37 13L37 12L38 12L38 10L39 10L39 5L38 5L38 4L37 4L37 3L38 3L38 2L39 2L39 4L40 4L40 3L41 3L41 0L40 0L40 1L38 1L38 0L37 0L37 1L36 1L36 0L33 0L33 1L32 1L32 2L31 2L31 1L30 1L30 0L29 0L29 1L28 1L28 2L27 2L27 1L26 1L26 0L24 0L24 1L26 1L26 2L27 2L27 4L25 4L25 3L23 3L23 4L22 4L22 3L21 3L21 1L20 1L20 2L19 2L19 3L17 3L17 4L19 4L19 3L21 3L21 4L22 4L22 5L18 5L18 8L15 8L15 6L14 6L14 5L16 5L16 7L17 7L17 5L16 5L16 4L15 4L15 3L16 3L16 2L15 2L15 0ZM16 0L16 1L17 1L17 2L18 2L18 1L19 1L19 0ZM22 1L22 2L23 2L23 1ZM35 1L35 2L36 2L36 3L35 3L35 4L34 4L34 3L33 3L33 2L32 2L32 3L33 3L33 4L34 4L34 6L33 6L33 5L32 5L32 6L31 6L31 4L30 4L30 2L29 2L29 5L28 5L28 4L27 4L27 5L28 5L28 6L27 6L27 9L26 9L26 10L25 10L25 9L23 9L23 10L21 10L21 8L22 8L22 6L21 6L21 7L20 7L20 6L19 6L19 7L20 7L20 9L17 9L17 10L16 10L16 9L15 9L15 10L16 10L16 11L17 11L17 12L15 12L15 11L14 11L14 12L12 12L12 13L15 13L15 14L16 14L16 13L17 13L17 12L18 12L18 11L19 11L19 12L20 12L20 13L18 13L18 14L17 14L17 15L14 15L14 14L10 14L10 13L6 13L6 12L7 12L7 11L6 11L6 10L7 10L7 9L6 9L6 10L5 10L5 11L4 11L4 9L3 9L3 10L2 10L2 11L4 11L4 12L3 12L3 13L4 13L4 14L3 14L3 15L4 15L4 16L5 16L5 15L6 15L6 16L7 16L7 15L6 15L6 14L9 14L9 15L8 15L8 17L5 17L5 19L4 19L4 20L5 20L5 21L6 21L6 22L8 22L8 21L9 21L9 22L10 22L10 23L9 23L9 24L10 24L10 25L11 25L11 22L12 22L12 20L13 20L13 21L15 21L15 25L16 25L16 26L17 26L17 25L18 25L18 24L19 24L19 25L20 25L20 24L19 24L19 22L18 22L18 20L20 20L20 21L21 21L21 22L24 22L24 21L21 21L21 20L20 20L20 19L19 19L19 18L20 18L20 17L22 17L22 16L26 16L26 14L27 14L27 16L28 16L28 17L27 17L27 18L26 18L26 19L25 19L25 21L26 21L26 22L27 22L27 19L28 19L28 21L29 21L29 19L28 19L28 17L30 17L30 18L31 18L31 19L32 19L32 18L33 18L33 15L34 15L34 16L35 16L35 14L36 14L36 16L37 16L37 17L39 17L39 20L38 20L38 21L36 21L36 20L37 20L37 19L36 19L36 20L35 20L35 19L34 19L34 21L33 21L33 20L32 20L32 22L33 22L33 23L32 23L32 24L34 24L34 21L35 21L35 22L38 22L38 23L35 23L35 24L38 24L38 25L39 25L39 24L40 24L40 21L41 21L41 22L42 22L42 21L43 21L43 22L45 22L45 26L46 26L46 27L45 27L45 30L46 30L46 27L48 27L48 26L47 26L47 25L48 25L48 24L46 24L46 21L48 21L48 20L47 20L47 18L46 18L46 17L47 17L47 15L48 15L48 14L46 14L46 17L44 17L44 16L45 16L45 13L47 13L47 12L46 12L46 11L47 11L47 10L46 10L46 11L45 11L45 13L44 13L44 16L43 16L43 17L44 17L44 19L43 19L43 20L42 20L42 18L41 18L41 19L40 19L40 17L42 17L42 15L43 15L43 14L42 14L42 15L38 15L38 16L37 16L37 13L36 13L36 12L37 12L37 11L35 11L35 12L34 12L34 6L35 6L35 7L36 7L36 5L37 5L37 4L36 4L36 3L37 3L37 2L36 2L36 1ZM9 2L9 3L10 3L10 2ZM11 3L11 4L13 4L13 5L14 5L14 4L13 4L13 3ZM35 4L35 5L36 5L36 4ZM23 5L23 8L26 8L26 5ZM9 6L9 7L10 7L10 8L11 8L11 7L10 7L10 6ZM13 6L13 7L12 7L12 9L13 9L13 10L14 10L14 9L13 9L13 7L14 7L14 6ZM24 6L24 7L25 7L25 6ZM28 6L28 7L29 7L29 8L28 8L28 9L27 9L27 10L26 10L26 11L27 11L27 10L28 10L28 12L23 12L23 11L25 11L25 10L23 10L23 11L21 11L21 10L19 10L19 11L21 11L21 12L22 12L22 13L25 13L25 14L23 14L23 15L25 15L25 14L26 14L26 13L27 13L27 14L28 14L28 16L29 16L29 15L30 15L30 17L31 17L31 16L32 16L32 15L33 15L33 14L34 14L34 13L33 13L33 12L32 12L32 11L33 11L33 9L32 9L32 11L31 11L31 12L32 12L32 15L31 15L31 14L30 14L30 13L29 13L29 11L30 11L30 10L31 10L31 9L30 9L30 8L33 8L33 6L32 6L32 7L31 7L31 6L30 6L30 7L29 7L29 6ZM37 6L37 7L38 7L38 6ZM40 6L40 8L41 8L41 6ZM35 8L35 9L36 9L36 8ZM37 9L37 10L38 10L38 9ZM40 9L40 10L41 10L41 9ZM42 9L42 10L43 10L43 9ZM11 10L11 11L10 11L10 12L11 12L11 11L12 11L12 10ZM4 12L4 13L5 13L5 12ZM4 14L4 15L5 15L5 14ZM20 14L20 15L19 15L19 17L20 17L20 15L22 15L22 14ZM11 15L11 16L10 16L10 18L11 18L11 17L12 17L12 19L15 19L15 18L13 18L13 16L12 16L12 15ZM17 15L17 18L16 18L16 19L17 19L17 20L16 20L16 23L18 23L18 22L17 22L17 20L18 20L18 19L17 19L17 18L18 18L18 15ZM15 16L15 17L16 17L16 16ZM3 17L3 18L4 18L4 17ZM23 17L23 18L21 18L21 19L22 19L22 20L23 20L23 18L24 18L24 17ZM34 17L34 18L35 18L35 17ZM6 18L6 19L5 19L5 20L6 20L6 21L8 21L8 20L9 20L9 21L10 21L10 22L11 22L11 21L10 21L10 19L9 19L9 18ZM45 18L45 19L46 19L46 18ZM6 19L6 20L7 20L7 19ZM0 20L0 22L1 22L1 20ZM43 20L43 21L44 21L44 20ZM38 21L38 22L39 22L39 21ZM5 23L5 26L8 26L8 23ZM12 23L12 26L9 26L9 28L8 28L8 29L10 29L10 30L14 30L14 31L10 31L10 33L9 33L9 35L8 35L8 33L6 33L6 32L7 32L7 31L6 31L6 32L4 32L4 34L5 34L5 35L4 35L4 36L8 36L8 37L6 37L6 38L8 38L8 40L9 40L9 38L10 38L10 41L9 41L9 42L10 42L10 41L13 41L13 42L15 42L15 41L16 41L16 40L17 40L17 38L16 38L16 36L14 36L14 38L13 38L13 35L17 35L17 37L18 37L18 35L20 35L20 36L21 36L21 35L23 35L23 34L22 34L22 33L23 33L23 32L22 32L22 31L21 31L21 32L20 32L20 30L23 30L23 31L24 31L24 32L25 32L25 31L26 31L26 30L24 30L24 29L25 29L25 28L24 28L24 27L23 27L23 29L22 29L22 26L19 26L19 28L18 28L18 27L16 27L16 29L15 29L15 30L14 30L14 28L15 28L15 26L14 26L14 23ZM23 23L23 26L26 26L26 23ZM41 23L41 26L44 26L44 23ZM0 24L0 25L1 25L1 24ZM6 24L6 25L7 25L7 24ZM21 24L21 25L22 25L22 24ZM24 24L24 25L25 25L25 24ZM27 24L27 25L28 25L28 24ZM42 24L42 25L43 25L43 24ZM31 25L31 26L32 26L32 27L31 27L31 28L32 28L32 29L33 29L33 28L34 28L34 27L36 27L36 28L37 28L37 31L39 31L39 29L38 29L38 26L37 26L37 25L33 25L33 26L32 26L32 25ZM12 26L12 27L11 27L11 28L10 28L10 29L12 29L12 28L13 28L13 27L14 27L14 26ZM36 26L36 27L37 27L37 26ZM39 26L39 27L40 27L40 26ZM20 27L20 28L19 28L19 29L18 29L18 28L17 28L17 29L16 29L16 30L15 30L15 32L14 32L14 34L16 34L16 33L17 33L17 32L18 32L18 31L19 31L19 30L20 30L20 28L21 28L21 27ZM32 27L32 28L33 28L33 27ZM42 27L42 28L40 28L40 29L41 29L41 30L43 30L43 29L44 29L44 27ZM42 28L42 29L43 29L43 28ZM35 29L35 30L36 30L36 29ZM16 30L16 32L15 32L15 33L16 33L16 32L17 32L17 30ZM8 31L8 32L9 32L9 31ZM2 32L2 33L3 33L3 32ZM12 32L12 33L11 33L11 35L10 35L10 36L12 36L12 35L13 35L13 32ZM21 32L21 33L22 33L22 32ZM36 32L36 33L35 33L35 35L36 35L36 36L37 36L37 34L38 34L38 35L39 35L39 34L40 34L40 33L39 33L39 32L38 32L38 33L37 33L37 32ZM42 32L42 33L43 33L43 32ZM5 33L5 34L6 34L6 35L7 35L7 34L6 34L6 33ZM18 33L18 34L20 34L20 33ZM38 33L38 34L39 34L39 33ZM46 34L46 35L41 35L41 36L43 36L43 37L45 37L45 38L43 38L43 39L42 39L42 37L41 37L41 38L39 38L39 39L42 39L42 40L45 40L45 42L46 42L46 41L47 41L47 40L48 40L48 38L47 38L47 36L46 36L46 35L47 35L47 34ZM24 35L24 36L25 36L25 35ZM34 36L34 39L35 39L35 36ZM38 36L38 37L39 37L39 36ZM8 37L8 38L9 38L9 37ZM11 38L11 40L14 40L14 41L15 41L15 39L16 39L16 38L14 38L14 39L13 39L13 38ZM18 38L18 39L19 39L19 38ZM37 38L37 39L36 39L36 40L38 40L38 38ZM46 38L46 40L47 40L47 38ZM23 41L23 44L26 44L26 41ZM30 41L30 42L31 42L31 41ZM37 41L37 42L36 42L36 44L35 44L35 45L36 45L36 44L37 44L37 46L38 46L38 45L39 45L39 44L40 44L40 43L38 43L38 42L40 42L40 41ZM41 41L41 44L44 44L44 41ZM24 42L24 43L25 43L25 42ZM42 42L42 43L43 43L43 42ZM27 43L27 44L28 44L28 43ZM37 43L37 44L38 44L38 43ZM41 45L41 47L42 47L42 46L43 46L43 45ZM23 46L23 47L24 47L24 48L26 48L26 49L27 49L27 47L26 47L26 46ZM0 0L0 7L7 7L7 0ZM1 1L1 6L6 6L6 1ZM2 2L2 5L5 5L5 2ZM42 0L42 7L49 7L49 0ZM43 1L43 6L48 6L48 1ZM44 2L44 5L47 5L47 2ZM0 42L0 49L7 49L7 42ZM1 43L1 48L6 48L6 43ZM2 44L2 47L5 47L5 44Z" fill="#000000"/></g></g></svg>
