<?xml version="1.0" encoding="UTF-8"?>
<svg xmlns="http://www.w3.org/2000/svg" version="1.1" width="200" height="200" viewBox="0 0 200 200"><rect x="0" y="0" width="200" height="200" fill="#ffffff"/><g transform="scale(3.774)"><g transform="translate(2,2)"><path fill-rule="evenodd" d="M8 0L8 2L9 2L9 3L8 3L8 7L9 7L9 10L8 10L8 11L7 11L7 10L6 10L6 9L7 9L7 8L6 8L6 9L5 9L5 10L6 10L6 11L5 11L5 12L6 12L6 13L4 13L4 8L3 8L3 10L2 10L2 9L0 9L0 10L1 10L1 11L0 11L0 13L1 13L1 14L0 14L0 16L1 16L1 17L0 17L0 18L4 18L4 19L3 19L3 20L4 20L4 21L2 21L2 20L0 20L0 25L1 25L1 26L0 26L0 29L1 29L1 30L0 30L0 33L1 33L1 32L2 32L2 31L3 31L3 30L2 30L2 29L4 29L4 30L5 30L5 31L4 31L4 32L3 32L3 33L2 33L2 35L3 35L3 34L4 34L4 36L5 36L5 39L7 39L7 38L6 38L6 37L7 37L7 36L8 36L8 37L9 37L9 39L11 39L11 38L10 38L10 37L9 37L9 36L10 36L10 35L12 35L12 36L11 36L11 37L13 37L13 38L12 38L12 40L13 40L13 42L15 42L15 43L16 43L16 42L17 42L17 44L16 44L16 47L15 47L15 45L14 45L14 46L13 46L13 47L15 47L15 48L16 48L16 49L19 49L19 47L21 47L21 46L20 46L20 45L21 45L21 44L22 44L22 48L21 48L21 49L24 49L24 46L23 46L23 45L25 45L25 46L26 46L26 48L27 48L27 49L28 49L28 48L27 48L27 47L29 47L29 49L30 49L30 48L31 48L31 47L33 47L33 48L32 48L32 49L33 49L33 48L34 48L34 47L35 47L35 48L36 48L36 49L38 49L38 48L39 48L39 49L40 49L40 48L41 48L41 49L42 49L42 48L41 48L41 46L42 46L42 47L43 47L43 48L44 48L44 49L46 49L46 46L47 46L47 47L49 47L49 46L48 46L48 45L49 45L49 44L48 44L48 43L49 43L49 36L48 36L48 38L47 38L47 37L46 37L46 35L47 35L47 34L46 34L46 35L44 35L44 33L46 33L46 32L47 32L47 33L48 33L48 35L49 35L49 33L48 33L48 32L47 32L47 31L45 31L45 32L44 32L44 31L43 31L43 30L42 30L42 29L44 29L44 30L46 30L46 29L47 29L47 30L48 30L48 31L49 31L49 25L47 25L47 26L46 26L46 23L47 23L47 22L46 22L46 20L47 20L47 21L48 21L48 24L49 24L49 20L47 20L47 19L45 19L45 18L46 18L46 17L47 17L47 18L48 18L48 19L49 19L49 16L48 16L48 15L49 15L49 8L47 8L47 9L48 9L48 14L47 14L47 16L45 16L45 14L44 14L44 13L46 13L46 8L43 8L43 11L44 11L44 9L45 9L45 12L44 12L44 13L43 13L43 12L42 12L42 13L40 13L40 8L41 8L41 6L40 6L40 7L39 7L39 5L38 5L38 7L39 7L39 8L38 8L38 9L37 9L37 8L35 8L35 6L36 6L36 7L37 7L37 6L36 6L36 5L34 5L34 7L33 7L33 6L32 6L32 4L31 4L31 3L30 3L30 2L29 2L29 3L28 3L28 2L27 2L27 3L24 3L24 2L23 2L23 1L24 1L24 0L22 0L22 1L21 1L21 4L20 4L20 0L19 0L19 2L18 2L18 1L17 1L17 2L18 2L18 4L15 4L15 5L14 5L14 3L16 3L16 2L13 2L13 0ZM14 0L14 1L15 1L15 0ZM25 0L25 2L26 2L26 1L27 1L27 0ZM32 0L32 1L31 1L31 2L32 2L32 3L33 3L33 4L34 4L34 3L35 3L35 4L36 4L36 3L35 3L35 2L36 2L36 1L35 1L35 0L34 0L34 1L35 1L35 2L34 2L34 3L33 3L33 2L32 2L32 1L33 1L33 0ZM37 0L37 1L38 1L38 2L39 2L39 4L40 4L40 3L41 3L41 0L40 0L40 1L38 1L38 0ZM10 1L10 3L9 3L9 7L10 7L10 11L8 11L8 12L7 12L7 11L6 11L6 12L7 12L7 13L6 13L6 14L5 14L5 15L4 15L4 16L5 16L5 19L6 19L6 20L5 20L5 21L4 21L4 22L5 22L5 21L6 21L6 22L9 22L9 20L10 20L10 22L11 22L11 24L12 24L12 25L11 25L11 26L10 26L10 24L9 24L9 27L10 27L10 28L9 28L9 30L8 30L8 28L7 28L7 27L6 27L6 28L5 28L5 27L4 27L4 23L3 23L3 22L2 22L2 21L1 21L1 22L2 22L2 24L1 24L1 25L2 25L2 24L3 24L3 28L5 28L5 30L8 30L8 31L5 31L5 33L4 33L4 34L9 34L9 35L10 35L10 34L11 34L11 32L12 32L12 31L13 31L13 33L12 33L12 35L14 35L14 37L17 37L17 38L15 38L15 40L14 40L14 38L13 38L13 40L14 40L14 41L15 41L15 40L16 40L16 41L19 41L19 40L21 40L21 41L22 41L22 40L24 40L24 39L25 39L25 40L27 40L27 39L29 39L29 38L24 38L24 37L23 37L23 38L24 38L24 39L22 39L22 37L21 37L21 38L20 38L20 37L19 37L19 38L18 38L18 36L19 36L19 35L21 35L21 36L22 36L22 35L21 35L21 34L22 34L22 33L21 33L21 34L20 34L20 31L19 31L19 33L18 33L18 32L17 32L17 31L16 31L16 30L15 30L15 31L16 31L16 32L15 32L15 33L16 33L16 36L15 36L15 35L14 35L14 31L13 31L13 30L14 30L14 29L15 29L15 28L16 28L16 27L17 27L17 29L18 29L18 30L20 30L20 29L18 29L18 28L23 28L23 29L21 29L21 32L22 32L22 30L23 30L23 32L25 32L25 34L24 34L24 33L23 33L23 34L24 34L24 35L23 35L23 36L24 36L24 35L26 35L26 34L28 34L28 36L29 36L29 37L30 37L30 38L31 38L31 39L30 39L30 40L32 40L32 39L33 39L33 37L32 37L32 36L33 36L33 34L31 34L31 35L30 35L30 34L29 34L29 31L28 31L28 30L27 30L27 28L28 28L28 29L29 29L29 30L33 30L33 29L31 29L31 28L32 28L32 27L33 27L33 25L34 25L34 24L35 24L35 25L36 25L36 24L35 24L35 23L39 23L39 19L38 19L38 18L39 18L39 16L38 16L38 15L37 15L37 16L38 16L38 17L37 17L37 21L36 21L36 22L35 22L35 20L36 20L36 15L35 15L35 14L39 14L39 15L40 15L40 14L39 14L39 12L38 12L38 13L36 13L36 10L37 10L37 11L39 11L39 9L38 9L38 10L37 10L37 9L34 9L34 8L33 8L33 7L32 7L32 6L31 6L31 7L30 7L30 4L28 4L28 3L27 3L27 4L28 4L28 5L27 5L27 9L24 9L24 10L22 10L22 8L19 8L19 9L21 9L21 10L20 10L20 11L19 11L19 12L18 12L18 11L17 11L17 10L18 10L18 8L15 8L15 7L16 7L16 6L17 6L17 7L18 7L18 6L19 6L19 7L20 7L20 6L21 6L21 7L22 7L22 5L20 5L20 4L18 4L18 6L17 6L17 5L16 5L16 6L15 6L15 7L14 7L14 6L13 6L13 5L12 5L12 6L11 6L11 3L13 3L13 2L11 2L11 1ZM22 2L22 3L23 3L23 2ZM37 3L37 4L38 4L38 3ZM23 5L23 8L26 8L26 5ZM10 6L10 7L11 7L11 6ZM12 6L12 7L13 7L13 6ZM24 6L24 7L25 7L25 6ZM28 6L28 7L29 7L29 6ZM31 7L31 8L30 8L30 9L31 9L31 10L32 10L32 11L34 11L34 12L35 12L35 10L34 10L34 9L33 9L33 8L32 8L32 7ZM12 8L12 9L13 9L13 8ZM28 8L28 9L29 9L29 8ZM31 8L31 9L32 9L32 10L33 10L33 9L32 9L32 8ZM14 9L14 10L15 10L15 11L13 11L13 12L12 12L12 11L11 11L11 12L10 12L10 13L9 13L9 12L8 12L8 14L6 14L6 15L7 15L7 16L6 16L6 17L7 17L7 16L8 16L8 18L9 18L9 17L11 17L11 18L10 18L10 19L12 19L12 16L13 16L13 17L15 17L15 16L14 16L14 14L15 14L15 15L16 15L16 16L19 16L19 15L20 15L20 17L18 17L18 19L17 19L17 18L14 18L14 19L16 19L16 20L15 20L15 22L14 22L14 23L15 23L15 24L13 24L13 22L12 22L12 20L11 20L11 22L12 22L12 24L13 24L13 25L12 25L12 26L13 26L13 27L14 27L14 28L13 28L13 29L12 29L12 28L10 28L10 31L11 31L11 30L13 30L13 29L14 29L14 28L15 28L15 27L16 27L16 26L17 26L17 25L18 25L18 26L19 26L19 25L18 25L18 24L17 24L17 23L18 23L18 22L17 22L17 21L16 21L16 20L20 20L20 19L21 19L21 20L23 20L23 22L21 22L21 21L19 21L19 24L20 24L20 25L21 25L21 26L20 26L20 27L26 27L26 28L24 28L24 29L26 29L26 28L27 28L27 27L28 27L28 28L29 28L29 29L30 29L30 28L29 28L29 27L30 27L30 26L32 26L32 25L33 25L33 24L34 24L34 23L35 23L35 22L34 22L34 21L33 21L33 20L32 20L32 18L33 18L33 16L32 16L32 15L34 15L34 20L35 20L35 15L34 15L34 14L35 14L35 13L33 13L33 12L31 12L31 11L30 11L30 10L28 10L28 11L26 11L26 12L25 12L25 10L24 10L24 11L20 11L20 12L23 12L23 13L22 13L22 14L24 14L24 16L25 16L25 17L27 17L27 18L28 18L28 17L27 17L27 15L28 15L28 16L29 16L29 17L30 17L30 18L31 18L31 19L29 19L29 22L28 22L28 20L24 20L24 17L23 17L23 15L21 15L21 13L18 13L18 12L16 12L16 10L17 10L17 9ZM41 9L41 11L42 11L42 9ZM2 11L2 14L1 14L1 15L2 15L2 17L3 17L3 15L2 15L2 14L3 14L3 11ZM28 11L28 13L29 13L29 14L32 14L32 13L31 13L31 12L30 12L30 11ZM13 12L13 14L12 14L12 13L11 13L11 15L10 15L10 14L9 14L9 15L8 15L8 16L9 16L9 15L10 15L10 16L11 16L11 15L13 15L13 14L14 14L14 12ZM15 12L15 14L17 14L17 15L19 15L19 14L18 14L18 13L16 13L16 12ZM24 12L24 14L27 14L27 12L26 12L26 13L25 13L25 12ZM29 12L29 13L30 13L30 12ZM42 13L42 14L41 14L41 16L40 16L40 18L41 18L41 19L42 19L42 22L43 22L43 21L45 21L45 20L43 20L43 19L44 19L44 18L45 18L45 17L43 17L43 16L44 16L44 14L43 14L43 13ZM25 15L25 16L26 16L26 15ZM30 15L30 16L31 16L31 15ZM41 16L41 17L42 17L42 16ZM47 16L47 17L48 17L48 16ZM21 17L21 19L23 19L23 17ZM31 17L31 18L32 18L32 17ZM6 18L6 19L7 19L7 18ZM19 18L19 19L20 19L20 18ZM25 18L25 19L26 19L26 18ZM42 18L42 19L43 19L43 18ZM6 20L6 21L7 21L7 20ZM40 20L40 22L41 22L41 20ZM24 21L24 22L25 22L25 21ZM31 21L31 23L29 23L29 25L27 25L27 26L28 26L28 27L29 27L29 26L30 26L30 24L31 24L31 25L32 25L32 21ZM37 21L37 22L38 22L38 21ZM16 22L16 23L17 23L17 22ZM20 22L20 23L21 23L21 25L22 25L22 23L21 23L21 22ZM5 23L5 26L8 26L8 23ZM23 23L23 26L26 26L26 23ZM27 23L27 24L28 24L28 23ZM41 23L41 26L44 26L44 23ZM6 24L6 25L7 25L7 24ZM16 24L16 25L17 25L17 24ZM24 24L24 25L25 25L25 24ZM39 24L39 25L37 25L37 26L39 26L39 25L40 25L40 24ZM42 24L42 25L43 25L43 24ZM14 26L14 27L15 27L15 26ZM34 26L34 27L35 27L35 28L34 28L34 32L33 32L33 31L31 31L31 32L33 32L33 33L34 33L34 34L35 34L35 33L38 33L38 34L36 34L36 35L38 35L38 36L39 36L39 37L37 37L37 38L40 38L40 39L38 39L38 40L37 40L37 41L38 41L38 40L39 40L39 41L40 41L40 40L42 40L42 39L41 39L41 37L42 37L42 38L43 38L43 39L44 39L44 40L47 40L47 41L46 41L46 42L45 42L45 43L46 43L46 42L47 42L47 43L48 43L48 42L47 42L47 41L48 41L48 40L47 40L47 38L46 38L46 39L45 39L45 36L44 36L44 35L43 35L43 36L44 36L44 37L42 37L42 36L41 36L41 35L42 35L42 34L41 34L41 33L40 33L40 31L42 31L42 30L41 30L41 29L42 29L42 27L38 27L38 29L40 29L40 31L39 31L39 30L38 30L38 31L36 31L36 30L37 30L37 29L36 29L36 27L35 27L35 26ZM45 26L45 27L44 27L44 29L45 29L45 27L46 27L46 28L47 28L47 29L48 29L48 28L47 28L47 27L46 27L46 26ZM1 27L1 29L2 29L2 27ZM6 28L6 29L7 29L7 28ZM40 28L40 29L41 29L41 28ZM35 29L35 30L36 30L36 29ZM1 30L1 31L2 31L2 30ZM24 30L24 31L26 31L26 32L28 32L28 31L27 31L27 30ZM8 31L8 32L9 32L9 31ZM35 31L35 32L34 32L34 33L35 33L35 32L36 32L36 31ZM6 32L6 33L7 33L7 32ZM17 33L17 34L18 34L18 33ZM39 33L39 34L40 34L40 35L41 35L41 34L40 34L40 33ZM0 34L0 38L1 38L1 40L0 40L0 41L3 41L3 40L4 40L4 39L2 39L2 38L1 38L1 37L3 37L3 36L1 36L1 34ZM5 35L5 36L7 36L7 35ZM29 35L29 36L30 36L30 35ZM34 35L34 36L35 36L35 38L34 38L34 42L35 42L35 44L36 44L36 39L35 39L35 38L36 38L36 36L35 36L35 35ZM25 36L25 37L26 37L26 36ZM40 36L40 37L41 37L41 36ZM31 37L31 38L32 38L32 37ZM17 39L17 40L19 40L19 39ZM6 40L6 41L8 41L8 42L9 42L9 41L11 41L11 42L10 42L10 43L9 43L9 44L10 44L10 45L11 45L11 46L10 46L10 49L11 49L11 47L12 47L12 45L13 45L13 43L12 43L12 44L11 44L11 42L12 42L12 41L11 41L11 40ZM23 41L23 44L26 44L26 41ZM29 41L29 42L30 42L30 43L28 43L28 42L27 42L27 43L28 43L28 44L27 44L27 45L26 45L26 46L27 46L27 45L28 45L28 46L30 46L30 47L31 47L31 45L34 45L34 46L35 46L35 47L36 47L36 46L37 46L37 48L38 48L38 47L39 47L39 45L40 45L40 46L41 46L41 45L40 45L40 44L38 44L38 43L37 43L37 44L38 44L38 46L37 46L37 45L36 45L36 46L35 46L35 45L34 45L34 44L31 44L31 43L32 43L32 42L31 42L31 41ZM41 41L41 44L44 44L44 41ZM19 42L19 43L20 43L20 44L21 44L21 43L22 43L22 42ZM24 42L24 43L25 43L25 42ZM39 42L39 43L40 43L40 42ZM42 42L42 43L43 43L43 42ZM17 44L17 46L19 46L19 44ZM29 44L29 45L30 45L30 44ZM46 44L46 45L47 45L47 44ZM8 45L8 46L9 46L9 45ZM42 45L42 46L44 46L44 45ZM17 47L17 48L18 48L18 47ZM13 48L13 49L14 49L14 48ZM47 48L47 49L49 49L49 48ZM0 0L0 7L7 7L7 0ZM1 1L1 6L6 6L6 1ZM2 2L2 5L5 5L5 2ZM42 0L42 7L49 7L49 0ZM43 1L43 6L48 6L48 1ZM44 2L44 5L47 5L47 2ZM0 42L0 49L7 49L7 42ZM1 43L1 48L6 48L6 43ZM2 44L2 47L5 47L5 44Z" fill="#000000"/></g></g></svg>
