<?xml version="1.0" encoding="UTF-8"?>
<svg xmlns="http://www.w3.org/2000/svg" version="1.1" width="200" height="200" viewBox="0 0 200 200"><rect x="0" y="0" width="200" height="200" fill="#ffffff"/><g transform="scale(3.774)"><g transform="translate(2,2)"><path fill-rule="evenodd" d="M8 0L8 3L9 3L9 2L10 2L10 3L11 3L11 5L13 5L13 6L12 6L12 8L11 8L11 10L9 10L9 11L8 11L8 9L9 9L9 5L10 5L10 4L9 4L9 5L8 5L8 9L7 9L7 8L6 8L6 9L7 9L7 10L6 10L6 11L5 11L5 12L4 12L4 13L3 13L3 10L4 10L4 9L5 9L5 8L2 8L2 9L0 9L0 10L2 10L2 12L0 12L0 13L3 13L3 14L2 14L2 15L3 15L3 16L2 16L2 17L3 17L3 18L0 18L0 20L1 20L1 21L0 21L0 23L1 23L1 21L2 21L2 19L3 19L3 20L4 20L4 19L10 19L10 18L5 18L5 17L3 17L3 16L5 16L5 14L4 14L4 13L5 13L5 12L6 12L6 13L7 13L7 12L6 12L6 11L8 11L8 12L10 12L10 14L9 14L9 13L8 13L8 14L6 14L6 15L8 15L8 16L6 16L6 17L8 17L8 16L10 16L10 17L12 17L12 18L11 18L11 20L9 20L9 21L10 21L10 23L9 23L9 22L8 22L8 21L7 21L7 20L5 20L5 21L7 21L7 22L2 22L2 23L4 23L4 24L3 24L3 25L1 25L1 24L0 24L0 27L1 27L1 28L0 28L0 30L1 30L1 31L0 31L0 34L1 34L1 32L2 32L2 35L0 35L0 38L1 38L1 40L0 40L0 41L3 41L3 40L4 40L4 39L2 39L2 38L1 38L1 36L3 36L3 37L4 37L4 38L5 38L5 39L7 39L7 40L6 40L6 41L7 41L7 40L8 40L8 39L7 39L7 38L5 38L5 37L7 37L7 36L5 36L5 35L7 35L7 34L8 34L8 35L12 35L12 34L13 34L13 36L11 36L11 37L10 37L10 36L9 36L9 37L10 37L10 38L12 38L12 39L11 39L11 40L10 40L10 41L11 41L11 42L13 42L13 40L14 40L14 41L15 41L15 40L17 40L17 39L18 39L18 38L17 38L17 37L19 37L19 36L16 36L16 35L15 35L15 34L16 34L16 33L18 33L18 34L17 34L17 35L18 35L18 34L19 34L19 35L23 35L23 38L24 38L24 37L25 37L25 38L27 38L27 40L26 40L26 39L25 39L25 40L24 40L24 39L23 39L23 40L22 40L22 38L20 38L20 39L19 39L19 40L20 40L20 43L16 43L16 42L18 42L18 41L16 41L16 42L15 42L15 43L13 43L13 44L12 44L12 46L11 46L11 45L10 45L10 42L9 42L9 41L8 41L8 42L9 42L9 44L8 44L8 47L10 47L10 48L9 48L9 49L10 49L10 48L11 48L11 47L12 47L12 48L13 48L13 49L16 49L16 48L17 48L17 49L19 49L19 48L20 48L20 49L21 49L21 47L22 47L22 48L23 48L23 49L24 49L24 48L26 48L26 47L24 47L24 46L25 46L25 45L27 45L27 46L28 46L28 47L29 47L29 48L27 48L27 49L31 49L31 48L33 48L33 49L35 49L35 48L36 48L36 49L38 49L38 48L40 48L40 49L42 49L42 48L43 48L43 46L45 46L45 48L46 48L46 49L49 49L49 42L48 42L48 41L49 41L49 40L48 40L48 41L47 41L47 40L46 40L46 41L45 41L45 40L42 40L42 39L43 39L43 37L45 37L45 38L46 38L46 39L47 39L47 38L48 38L48 39L49 39L49 38L48 38L48 37L49 37L49 34L48 34L48 33L47 33L47 32L49 32L49 30L48 30L48 29L49 29L49 26L48 26L48 27L47 27L47 28L46 28L46 26L47 26L47 24L46 24L46 22L45 22L45 21L44 21L44 22L43 22L43 21L42 21L42 22L40 22L40 21L41 21L41 20L40 20L40 19L39 19L39 20L40 20L40 21L39 21L39 22L37 22L37 20L36 20L36 19L37 19L37 18L40 18L40 17L39 17L39 16L41 16L41 17L42 17L42 20L46 20L46 21L47 21L47 22L48 22L48 23L49 23L49 22L48 22L48 21L49 21L49 18L48 18L48 17L49 17L49 14L48 14L48 13L49 13L49 12L48 12L48 13L47 13L47 12L46 12L46 11L45 11L45 10L46 10L46 9L47 9L47 10L48 10L48 11L49 11L49 10L48 10L48 9L49 9L49 8L46 8L46 9L45 9L45 10L44 10L44 11L42 11L42 10L43 10L43 9L44 9L44 8L40 8L40 7L41 7L41 6L40 6L40 7L39 7L39 5L38 5L38 4L37 4L37 3L36 3L36 2L37 2L37 1L38 1L38 2L39 2L39 4L40 4L40 3L41 3L41 0L40 0L40 1L38 1L38 0L37 0L37 1L36 1L36 2L35 2L35 1L34 1L34 0L29 0L29 1L28 1L28 0L26 0L26 2L27 2L27 3L26 3L26 4L22 4L22 3L20 3L20 1L21 1L21 2L22 2L22 1L23 1L23 2L25 2L25 0L19 0L19 1L18 1L18 2L17 2L17 0L15 0L15 1L16 1L16 3L15 3L15 2L13 2L13 3L12 3L12 2L11 2L11 1L13 1L13 0L11 0L11 1L9 1L9 0ZM32 1L32 2L28 2L28 3L27 3L27 4L28 4L28 3L29 3L29 5L27 5L27 8L28 8L28 9L26 9L26 10L29 10L29 11L28 11L28 12L27 12L27 11L26 11L26 15L27 15L27 16L24 16L24 17L21 17L21 15L19 15L19 14L21 14L21 13L19 13L19 11L20 11L20 12L21 12L21 11L20 11L20 9L21 9L21 10L22 10L22 11L24 11L24 13L22 13L22 14L24 14L24 13L25 13L25 11L24 11L24 9L23 9L23 10L22 10L22 9L21 9L21 8L18 8L18 5L19 5L19 3L18 3L18 5L17 5L17 3L16 3L16 5L15 5L15 8L16 8L16 5L17 5L17 8L18 8L18 9L17 9L17 10L15 10L15 9L13 9L13 10L11 10L11 11L13 11L13 12L15 12L15 11L16 11L16 12L17 12L17 14L16 14L16 15L15 15L15 14L14 14L14 15L13 15L13 13L11 13L11 14L10 14L10 16L12 16L12 17L15 17L15 18L16 18L16 19L15 19L15 21L14 21L14 20L13 20L13 18L12 18L12 20L11 20L11 24L10 24L10 25L9 25L9 26L11 26L11 24L12 24L12 27L13 27L13 23L12 23L12 21L14 21L14 23L17 23L17 24L18 24L18 27L20 27L20 28L19 28L19 30L18 30L18 31L19 31L19 33L20 33L20 32L21 32L21 33L22 33L22 32L21 32L21 30L24 30L24 33L25 33L25 34L24 34L24 35L26 35L26 36L25 36L25 37L28 37L28 38L29 38L29 40L30 40L30 37L33 37L33 36L35 36L35 37L34 37L34 38L31 38L31 39L34 39L34 40L31 40L31 42L30 42L30 41L28 41L28 42L30 42L30 43L29 43L29 44L30 44L30 45L28 45L28 46L30 46L30 45L31 45L31 47L30 47L30 48L31 48L31 47L34 47L34 48L35 48L35 47L36 47L36 48L38 48L38 47L36 47L36 44L38 44L38 45L37 45L37 46L39 46L39 47L40 47L40 46L41 46L41 48L42 48L42 45L40 45L40 46L39 46L39 44L38 44L38 43L39 43L39 40L41 40L41 39L42 39L42 36L43 36L43 35L44 35L44 36L45 36L45 37L46 37L46 38L47 38L47 37L48 37L48 34L47 34L47 33L46 33L46 32L47 32L47 31L48 31L48 30L47 30L47 29L46 29L46 28L45 28L45 27L42 27L42 28L41 28L41 27L40 27L40 26L39 26L39 25L37 25L37 26L39 26L39 27L36 27L36 28L30 28L30 29L29 29L29 30L28 30L28 28L25 28L25 29L24 29L24 28L23 28L23 27L22 27L22 26L21 26L21 24L22 24L22 22L24 22L24 19L25 19L25 20L27 20L27 21L28 21L28 22L27 22L27 25L28 25L28 26L27 26L27 27L28 27L28 26L30 26L30 27L34 27L34 26L35 26L35 25L36 25L36 24L39 24L39 23L40 23L40 22L39 22L39 23L37 23L37 22L36 22L36 20L35 20L35 19L36 19L36 18L37 18L37 17L38 17L38 16L37 16L37 14L39 14L39 13L40 13L40 15L41 15L41 14L42 14L42 15L44 15L44 14L46 14L46 12L43 12L43 13L44 13L44 14L42 14L42 11L38 11L38 12L37 12L37 11L36 11L36 10L35 10L35 9L36 9L36 8L35 8L35 7L36 7L36 6L35 6L35 7L34 7L34 5L37 5L37 4L36 4L36 3L35 3L35 2L34 2L34 1ZM33 2L33 4L32 4L32 3L31 3L31 4L30 4L30 5L31 5L31 4L32 4L32 7L31 7L31 6L30 6L30 9L29 9L29 10L30 10L30 11L31 11L31 13L30 13L30 12L28 12L28 13L27 13L27 14L28 14L28 13L29 13L29 14L30 14L30 16L29 16L29 15L28 15L28 16L27 16L27 17L24 17L24 18L21 18L21 17L20 17L20 16L19 16L19 20L18 20L18 18L17 18L17 19L16 19L16 21L15 21L15 22L17 22L17 23L18 23L18 24L19 24L19 23L18 23L18 22L17 22L17 20L18 20L18 21L19 21L19 20L20 20L20 18L21 18L21 21L20 21L20 23L21 23L21 21L23 21L23 20L22 20L22 19L24 19L24 18L25 18L25 19L27 19L27 18L28 18L28 21L29 21L29 18L28 18L28 16L29 16L29 17L31 17L31 16L32 16L32 18L31 18L31 19L30 19L30 21L31 21L31 24L30 24L30 26L32 26L32 25L31 25L31 24L32 24L32 22L34 22L34 23L33 23L33 26L34 26L34 23L35 23L35 24L36 24L36 23L35 23L35 22L34 22L34 21L35 21L35 20L32 20L32 18L33 18L33 19L34 19L34 18L35 18L35 16L36 16L36 17L37 17L37 16L36 16L36 15L35 15L35 14L34 14L34 13L35 13L35 10L34 10L34 7L33 7L33 5L34 5L34 2ZM13 3L13 5L14 5L14 4L15 4L15 3ZM21 4L21 5L20 5L20 6L19 6L19 7L20 7L20 6L21 6L21 7L22 7L22 6L21 6L21 5L22 5L22 4ZM23 5L23 8L26 8L26 5ZM10 6L10 7L11 7L11 6ZM13 6L13 7L14 7L14 6ZM24 6L24 7L25 7L25 6ZM28 6L28 8L29 8L29 6ZM37 6L37 10L39 10L39 9L40 9L40 10L42 10L42 9L40 9L40 8L39 8L39 7L38 7L38 6ZM32 7L32 8L31 8L31 10L32 10L32 11L33 11L33 12L32 12L32 13L31 13L31 14L32 14L32 13L33 13L33 12L34 12L34 10L33 10L33 9L32 9L32 8L33 8L33 7ZM38 8L38 9L39 9L39 8ZM2 9L2 10L3 10L3 9ZM17 10L17 12L18 12L18 10ZM36 12L36 14L37 14L37 12ZM40 12L40 13L41 13L41 12ZM18 13L18 14L17 14L17 15L18 15L18 14L19 14L19 13ZM0 14L0 15L1 15L1 14ZM3 14L3 15L4 15L4 14ZM11 14L11 15L12 15L12 14ZM33 14L33 16L34 16L34 14ZM47 14L47 15L45 15L45 16L42 16L42 17L43 17L43 19L45 19L45 18L44 18L44 17L46 17L46 18L47 18L47 19L46 19L46 20L47 20L47 21L48 21L48 20L47 20L47 19L48 19L48 18L47 18L47 17L48 17L48 14ZM22 15L22 16L23 16L23 15ZM46 16L46 17L47 17L47 16ZM33 17L33 18L34 18L34 17ZM25 21L25 22L26 22L26 21ZM28 22L28 24L29 24L29 22ZM5 23L5 26L8 26L8 23ZM23 23L23 26L26 26L26 23ZM41 23L41 26L44 26L44 23ZM6 24L6 25L7 25L7 24ZM14 24L14 25L16 25L16 26L14 26L14 27L15 27L15 29L14 29L14 28L13 28L13 29L12 29L12 28L11 28L11 27L10 27L10 28L11 28L11 30L13 30L13 29L14 29L14 31L12 31L12 32L11 32L11 31L10 31L10 29L9 29L9 28L8 28L8 27L3 27L3 28L2 28L2 29L1 29L1 30L2 30L2 31L3 31L3 29L4 29L4 30L5 30L5 29L6 29L6 30L8 30L8 31L4 31L4 34L3 34L3 35L4 35L4 34L5 34L5 32L7 32L7 33L6 33L6 34L7 34L7 33L8 33L8 32L9 32L9 31L10 31L10 33L9 33L9 34L12 34L12 32L13 32L13 33L14 33L14 34L15 34L15 32L16 32L16 31L15 31L15 29L16 29L16 30L17 30L17 29L18 29L18 28L17 28L17 29L16 29L16 26L17 26L17 25L16 25L16 24ZM24 24L24 25L25 25L25 24ZM42 24L42 25L43 25L43 24ZM45 24L45 25L46 25L46 24ZM3 25L3 26L4 26L4 25ZM20 26L20 27L21 27L21 28L20 28L20 29L22 29L22 27L21 27L21 26ZM6 28L6 29L8 29L8 28ZM36 28L36 29L35 29L35 30L34 30L34 29L33 29L33 30L32 30L32 29L30 29L30 30L29 30L29 31L28 31L28 30L26 30L26 29L25 29L25 33L26 33L26 35L27 35L27 36L28 36L28 35L27 35L27 33L29 33L29 32L31 32L31 33L30 33L30 34L31 34L31 35L29 35L29 36L33 36L33 34L34 34L34 35L35 35L35 36L36 36L36 37L37 37L37 36L38 36L38 37L40 37L40 39L41 39L41 37L40 37L40 36L38 36L38 35L41 35L41 36L42 36L42 35L43 35L43 34L42 34L42 35L41 35L41 34L40 34L40 32L39 32L39 34L37 34L37 36L36 36L36 34L34 34L34 32L35 32L35 33L36 33L36 32L37 32L37 31L39 31L39 30L40 30L40 31L41 31L41 30L40 30L40 29L41 29L41 28L38 28L38 29L39 29L39 30L37 30L37 28ZM44 28L44 29L42 29L42 31L43 31L43 32L42 32L42 33L45 33L45 32L46 32L46 31L47 31L47 30L46 30L46 29L45 29L45 28ZM44 29L44 30L43 30L43 31L44 31L44 32L45 32L45 31L44 31L44 30L45 30L45 29ZM19 30L19 31L20 31L20 30ZM31 30L31 32L33 32L33 31L34 31L34 30L33 30L33 31L32 31L32 30ZM35 30L35 32L36 32L36 30ZM26 32L26 33L27 33L27 32ZM31 33L31 34L32 34L32 33ZM44 34L44 35L45 35L45 36L46 36L46 37L47 37L47 36L46 36L46 35L47 35L47 34ZM13 36L13 37L14 37L14 38L13 38L13 39L12 39L12 40L13 40L13 39L14 39L14 38L15 38L15 39L16 39L16 38L15 38L15 37L14 37L14 36ZM34 38L34 39L35 39L35 40L36 40L36 41L38 41L38 40L36 40L36 39L39 39L39 38L36 38L36 39L35 39L35 38ZM21 40L21 41L22 41L22 40ZM23 41L23 44L26 44L26 41ZM33 41L33 42L34 42L34 41ZM41 41L41 44L44 44L44 41ZM46 41L46 44L45 44L45 46L48 46L48 42L47 42L47 41ZM21 42L21 43L20 43L20 44L21 44L21 43L22 43L22 42ZM24 42L24 43L25 43L25 42ZM36 42L36 43L35 43L35 44L36 44L36 43L38 43L38 42ZM42 42L42 43L43 43L43 42ZM15 43L15 44L16 44L16 45L14 45L14 44L13 44L13 45L14 45L14 46L12 46L12 47L15 47L15 46L16 46L16 45L17 45L17 46L19 46L19 47L17 47L17 48L19 48L19 47L21 47L21 45L19 45L19 44L18 44L18 45L17 45L17 44L16 44L16 43ZM31 43L31 44L33 44L33 45L32 45L32 46L34 46L34 47L35 47L35 46L34 46L34 43ZM46 44L46 45L47 45L47 44ZM9 45L9 46L10 46L10 45ZM22 45L22 46L23 46L23 45ZM46 47L46 48L48 48L48 47ZM0 0L0 7L7 7L7 0ZM1 1L1 6L6 6L6 1ZM2 2L2 5L5 5L5 2ZM42 0L42 7L49 7L49 0ZM43 1L43 6L48 6L48 1ZM44 2L44 5L47 5L47 2ZM0 42L0 49L7 49L7 42ZM1 43L1 48L6 48L6 43ZM2 44L2 47L5 47L5 44Z" fill="#000000"/></g></g></svg>
