<?xml version="1.0" encoding="UTF-8"?>
<svg xmlns="http://www.w3.org/2000/svg" version="1.1" width="200" height="200" viewBox="0 0 200 200"><rect x="0" y="0" width="200" height="200" fill="#ffffff"/><g transform="scale(3.774)"><g transform="translate(2,2)"><path fill-rule="evenodd" d="M8 0L8 1L9 1L9 3L8 3L8 4L9 4L9 3L10 3L10 2L11 2L11 4L10 4L10 7L9 7L9 6L8 6L8 7L9 7L9 8L8 8L8 9L9 9L9 8L10 8L10 10L6 10L6 9L7 9L7 8L4 8L4 9L5 9L5 10L4 10L4 12L3 12L3 10L2 10L2 9L3 9L3 8L2 8L2 9L1 9L1 10L0 10L0 12L1 12L1 10L2 10L2 12L3 12L3 18L4 18L4 19L3 19L3 20L1 20L1 18L2 18L2 17L0 17L0 20L1 20L1 21L2 21L2 23L1 23L1 22L0 22L0 25L1 25L1 24L2 24L2 26L0 26L0 29L1 29L1 30L0 30L0 33L1 33L1 34L3 34L3 33L2 33L2 32L4 32L4 33L7 33L7 34L5 34L5 35L4 35L4 36L5 36L5 37L4 37L4 38L5 38L5 39L7 39L7 38L8 38L8 39L13 39L13 38L14 38L14 37L13 37L13 36L14 36L14 35L15 35L15 37L16 37L16 38L17 38L17 40L19 40L19 41L18 41L18 42L17 42L17 41L16 41L16 42L15 42L15 44L16 44L16 46L17 46L17 47L15 47L15 45L13 45L13 44L14 44L14 43L13 43L13 42L14 42L14 41L13 41L13 42L10 42L10 44L9 44L9 43L8 43L8 45L9 45L9 46L8 46L8 47L9 47L9 46L10 46L10 44L12 44L12 45L11 45L11 47L10 47L10 49L11 49L11 48L12 48L12 45L13 45L13 46L14 46L14 48L13 48L13 49L14 49L14 48L16 48L16 49L19 49L19 46L20 46L20 48L21 48L21 49L24 49L24 48L23 48L23 47L24 47L24 46L23 46L23 45L27 45L27 46L25 46L25 48L26 48L26 49L29 49L29 48L30 48L30 49L31 49L31 47L29 47L29 48L27 48L27 47L28 47L28 45L27 45L27 44L29 44L29 46L32 46L32 49L33 49L33 48L34 48L34 45L35 45L35 46L36 46L36 49L37 49L37 48L38 48L38 45L39 45L39 49L40 49L40 48L41 48L41 49L42 49L42 47L43 47L43 48L44 48L44 49L46 49L46 47L47 47L47 49L49 49L49 48L48 48L48 47L49 47L49 46L48 46L48 45L49 45L49 44L48 44L48 43L49 43L49 36L48 36L48 35L49 35L49 33L48 33L48 35L47 35L47 36L48 36L48 39L47 39L47 40L48 40L48 43L47 43L47 42L46 42L46 40L44 40L44 39L46 39L46 35L45 35L45 38L44 38L44 36L43 36L43 34L44 34L44 32L43 32L43 28L44 28L44 27L45 27L45 30L46 30L46 27L47 27L47 28L48 28L48 27L49 27L49 25L46 25L46 23L47 23L47 24L49 24L49 20L48 20L48 23L47 23L47 22L46 22L46 23L45 23L45 21L46 21L46 19L45 19L45 18L46 18L46 16L45 16L45 15L44 15L44 17L43 17L43 18L42 18L42 16L41 16L41 15L42 15L42 13L43 13L43 12L42 12L42 8L41 8L41 12L42 12L42 13L41 13L41 14L40 14L40 11L39 11L39 12L38 12L38 13L37 13L37 11L38 11L38 9L37 9L37 8L38 8L38 7L39 7L39 10L40 10L40 7L41 7L41 6L40 6L40 7L39 7L39 5L38 5L38 3L37 3L37 5L38 5L38 7L37 7L37 6L36 6L36 7L37 7L37 8L36 8L36 9L37 9L37 10L36 10L36 11L34 11L34 9L35 9L35 8L34 8L34 7L35 7L35 4L36 4L36 1L35 1L35 0L34 0L34 3L33 3L33 2L31 2L31 1L32 1L32 0L31 0L31 1L30 1L30 0L28 0L28 1L27 1L27 0L26 0L26 1L25 1L25 0L21 0L21 1L22 1L22 2L18 2L18 1L16 1L16 2L15 2L15 5L16 5L16 7L17 7L17 8L18 8L18 9L15 9L15 6L14 6L14 5L13 5L13 4L14 4L14 1L15 1L15 0L14 0L14 1L13 1L13 0ZM19 0L19 1L20 1L20 0ZM37 0L37 2L39 2L39 4L40 4L40 3L41 3L41 0L40 0L40 1L38 1L38 0ZM26 1L26 2L22 2L22 3L26 3L26 2L27 2L27 3L28 3L28 4L29 4L29 5L27 5L27 9L24 9L24 10L23 10L23 12L21 12L21 11L22 11L22 8L21 8L21 7L22 7L22 6L21 6L21 7L20 7L20 6L19 6L19 5L20 5L20 4L21 4L21 3L20 3L20 4L18 4L18 3L17 3L17 2L16 2L16 4L18 4L18 6L17 6L17 7L18 7L18 6L19 6L19 9L18 9L18 10L17 10L17 11L16 11L16 13L18 13L18 15L19 15L19 16L17 16L17 17L20 17L20 18L16 18L16 17L15 17L15 18L14 18L14 16L16 16L16 15L17 15L17 14L16 14L16 15L14 15L14 16L13 16L13 17L12 17L12 18L11 18L11 16L12 16L12 15L10 15L10 14L11 14L11 13L13 13L13 14L15 14L15 12L14 12L14 11L15 11L15 9L14 9L14 8L13 8L13 9L11 9L11 11L10 11L10 12L9 12L9 13L10 13L10 14L8 14L8 15L6 15L6 14L7 14L7 13L8 13L8 12L7 12L7 11L6 11L6 10L5 10L5 11L6 11L6 12L7 12L7 13L5 13L5 12L4 12L4 14L5 14L5 15L4 15L4 18L8 18L8 17L9 17L9 18L11 18L11 19L10 19L10 20L9 20L9 19L8 19L8 20L7 20L7 19L6 19L6 20L7 20L7 21L6 21L6 22L10 22L10 23L12 23L12 22L13 22L13 20L14 20L14 21L15 21L15 20L14 20L14 19L15 19L15 18L16 18L16 19L19 19L19 20L16 20L16 21L20 21L20 20L21 20L21 22L18 22L18 25L17 25L17 24L16 24L16 27L15 27L15 28L14 28L14 27L13 27L13 26L14 26L14 25L13 25L13 24L14 24L14 23L13 23L13 24L12 24L12 25L10 25L10 24L9 24L9 27L10 27L10 28L9 28L9 29L8 29L8 31L9 31L9 32L7 32L7 31L6 31L6 30L7 30L7 29L5 29L5 27L4 27L4 23L3 23L3 26L2 26L2 27L1 27L1 28L2 28L2 29L5 29L5 30L4 30L4 32L5 32L5 31L6 31L6 32L7 32L7 33L8 33L8 34L7 34L7 35L6 35L6 36L7 36L7 37L6 37L6 38L7 38L7 37L8 37L8 38L13 38L13 37L12 37L12 36L11 36L11 35L10 35L10 34L9 34L9 32L11 32L11 33L12 33L12 35L13 35L13 34L15 34L15 33L16 33L16 34L17 34L17 35L16 35L16 37L17 37L17 38L18 38L18 39L19 39L19 38L20 38L20 40L21 40L21 39L22 39L22 40L24 40L24 39L25 39L25 40L27 40L27 39L30 39L30 40L31 40L31 41L30 41L30 43L29 43L29 44L30 44L30 45L32 45L32 42L33 42L33 41L32 41L32 39L30 39L30 38L31 38L31 37L32 37L32 35L33 35L33 34L32 34L32 35L31 35L31 33L30 33L30 32L26 32L26 35L25 35L25 33L23 33L23 32L25 32L25 31L26 31L26 30L27 30L27 31L28 31L28 30L29 30L29 29L27 29L27 28L26 28L26 27L22 27L22 28L21 28L21 25L22 25L22 23L21 23L21 22L23 22L23 21L24 21L24 22L25 22L25 21L24 21L24 20L25 20L25 18L26 18L26 21L27 21L27 20L28 20L28 23L27 23L27 25L30 25L30 24L31 24L31 26L30 26L30 27L29 27L29 28L30 28L30 30L31 30L31 31L32 31L32 33L34 33L34 36L33 36L33 37L34 37L34 40L35 40L35 41L34 41L34 42L35 42L35 43L34 43L34 44L33 44L33 45L34 45L34 44L35 44L35 45L36 45L36 46L37 46L37 45L36 45L36 42L35 42L35 41L36 41L36 39L35 39L35 37L36 37L36 38L37 38L37 37L38 37L38 40L39 40L39 41L38 41L38 42L39 42L39 43L40 43L40 42L39 42L39 41L40 41L40 40L42 40L42 38L43 38L43 39L44 39L44 38L43 38L43 37L42 37L42 34L41 34L41 33L42 33L42 32L41 32L41 31L42 31L42 27L39 27L39 25L40 25L40 24L39 24L39 21L38 21L38 20L39 20L39 19L38 19L38 17L39 17L39 16L38 16L38 15L40 15L40 14L39 14L39 13L38 13L38 15L37 15L37 19L38 19L38 20L37 20L37 21L36 21L36 18L35 18L35 19L34 19L34 17L36 17L36 12L34 12L34 11L33 11L33 13L34 13L34 15L33 15L33 14L32 14L32 15L30 15L30 14L31 14L31 12L32 12L32 11L31 11L31 12L30 12L30 13L29 13L29 10L31 10L31 9L32 9L32 10L33 10L33 9L34 9L34 8L33 8L33 7L34 7L34 4L35 4L35 3L34 3L34 4L33 4L33 3L31 3L31 2L29 2L29 1L28 1L28 2L27 2L27 1ZM12 2L12 3L13 3L13 2ZM28 2L28 3L29 3L29 4L30 4L30 5L29 5L29 6L28 6L28 9L29 9L29 6L30 6L30 7L31 7L31 3L29 3L29 2ZM11 5L11 7L12 7L12 6L13 6L13 7L14 7L14 6L13 6L13 5ZM23 5L23 8L26 8L26 5ZM32 5L32 7L33 7L33 5ZM24 6L24 7L25 7L25 6ZM20 8L20 9L19 9L19 10L21 10L21 8ZM30 8L30 9L31 9L31 8ZM45 8L45 11L44 11L44 13L46 13L46 14L47 14L47 13L46 13L46 11L47 11L47 12L48 12L48 15L47 15L47 16L48 16L48 19L49 19L49 16L48 16L48 15L49 15L49 8L48 8L48 11L47 11L47 10L46 10L46 8ZM13 9L13 11L14 11L14 9ZM43 9L43 10L44 10L44 9ZM24 10L24 12L23 12L23 15L21 15L21 14L22 14L22 13L21 13L21 12L19 12L19 13L21 13L21 14L20 14L20 17L23 17L23 18L24 18L24 17L25 17L25 14L26 14L26 18L27 18L27 19L28 19L28 20L29 20L29 24L30 24L30 23L33 23L33 24L32 24L32 25L33 25L33 26L32 26L32 29L31 29L31 30L32 30L32 31L33 31L33 32L34 32L34 33L35 33L35 35L36 35L36 37L37 37L37 36L38 36L38 37L39 37L39 36L38 36L38 33L39 33L39 34L40 34L40 33L41 33L41 32L40 32L40 33L39 33L39 32L38 32L38 29L37 29L37 28L38 28L38 25L37 25L37 23L38 23L38 21L37 21L37 23L36 23L36 25L35 25L35 24L34 24L34 21L32 21L32 20L31 20L31 19L28 19L28 18L27 18L27 15L28 15L28 16L29 16L29 18L32 18L32 19L33 19L33 18L32 18L32 16L33 16L33 15L32 15L32 16L30 16L30 15L29 15L29 14L28 14L28 11L26 11L26 10ZM24 12L24 14L25 14L25 13L27 13L27 12ZM0 13L0 16L2 16L2 15L1 15L1 13ZM5 15L5 17L7 17L7 16L6 16L6 15ZM8 15L8 16L9 16L9 17L10 17L10 15ZM34 15L34 16L35 16L35 15ZM23 16L23 17L24 17L24 16ZM40 17L40 18L41 18L41 19L40 19L40 22L41 22L41 21L42 21L42 22L43 22L43 21L44 21L44 19L42 19L42 18L41 18L41 17ZM44 17L44 18L45 18L45 17ZM12 18L12 19L11 19L11 20L10 20L10 21L11 21L11 22L12 22L12 21L11 21L11 20L13 20L13 18ZM4 19L4 20L5 20L5 19ZM21 19L21 20L22 20L22 19ZM23 19L23 20L24 20L24 19ZM41 19L41 20L42 20L42 19ZM8 20L8 21L9 21L9 20ZM30 20L30 21L31 21L31 22L32 22L32 21L31 21L31 20ZM4 21L4 22L5 22L5 21ZM35 21L35 22L36 22L36 21ZM5 23L5 26L8 26L8 23ZM19 23L19 24L20 24L20 25L18 25L18 26L17 26L17 27L16 27L16 29L15 29L15 30L17 30L17 31L15 31L15 32L17 32L17 31L18 31L18 30L17 30L17 27L18 27L18 26L20 26L20 25L21 25L21 24L20 24L20 23ZM23 23L23 26L26 26L26 23ZM41 23L41 26L44 26L44 23ZM6 24L6 25L7 25L7 24ZM24 24L24 25L25 25L25 24ZM33 24L33 25L34 25L34 27L35 27L35 29L34 29L34 31L36 31L36 33L38 33L38 32L37 32L37 31L36 31L36 30L37 30L37 29L36 29L36 27L37 27L37 25L36 25L36 26L35 26L35 25L34 25L34 24ZM42 24L42 25L43 25L43 24ZM12 25L12 26L11 26L11 27L12 27L12 26L13 26L13 25ZM45 26L45 27L46 27L46 26ZM47 26L47 27L48 27L48 26ZM2 27L2 28L3 28L3 27ZM6 27L6 28L7 28L7 27ZM11 28L11 29L10 29L10 30L9 30L9 31L10 31L10 30L11 30L11 29L12 29L12 30L13 30L13 31L14 31L14 30L13 30L13 28ZM18 28L18 29L21 29L21 28ZM24 28L24 30L25 30L25 28ZM39 29L39 31L40 31L40 29ZM48 29L48 31L49 31L49 29ZM19 30L19 31L21 31L21 32L22 32L22 31L23 31L23 30L22 30L22 31L21 31L21 30ZM1 31L1 32L2 32L2 31ZM11 31L11 32L12 32L12 33L13 33L13 32L12 32L12 31ZM45 31L45 33L46 33L46 31ZM18 32L18 33L19 33L19 32ZM20 33L20 34L18 34L18 35L19 35L19 36L17 36L17 37L19 37L19 36L20 36L20 37L24 37L24 38L25 38L25 36L20 36L20 34L21 34L21 35L22 35L22 34L23 34L23 35L24 35L24 34L23 34L23 33L22 33L22 34L21 34L21 33ZM8 34L8 37L11 37L11 36L9 36L9 34ZM27 34L27 36L26 36L26 39L27 39L27 38L28 38L28 37L29 37L29 38L30 38L30 37L29 37L29 36L28 36L28 35L30 35L30 34ZM36 34L36 35L37 35L37 34ZM2 36L2 37L1 37L1 40L0 40L0 41L3 41L3 40L4 40L4 39L2 39L2 37L3 37L3 36ZM40 36L40 38L39 38L39 39L40 39L40 38L42 38L42 37L41 37L41 36ZM22 38L22 39L23 39L23 38ZM14 39L14 40L15 40L15 39ZM6 40L6 41L7 41L7 40ZM8 40L8 42L9 42L9 41L10 41L10 40ZM11 40L11 41L12 41L12 40ZM28 40L28 41L27 41L27 43L28 43L28 42L29 42L29 40ZM19 41L19 42L18 42L18 43L17 43L17 42L16 42L16 43L17 43L17 46L18 46L18 44L20 44L20 46L21 46L21 48L22 48L22 47L23 47L23 46L22 46L22 45L21 45L21 44L20 44L20 43L22 43L22 42L21 42L21 41ZM23 41L23 44L26 44L26 41ZM31 41L31 42L32 42L32 41ZM41 41L41 44L44 44L44 41ZM24 42L24 43L25 43L25 42ZM42 42L42 43L43 43L43 42ZM45 42L45 43L46 43L46 46L45 46L45 47L44 47L44 45L42 45L42 46L41 46L41 45L40 45L40 44L39 44L39 45L40 45L40 47L42 47L42 46L43 46L43 47L44 47L44 48L45 48L45 47L46 47L46 46L47 46L47 45L48 45L48 44L47 44L47 43L46 43L46 42ZM30 43L30 44L31 44L31 43ZM0 0L0 7L7 7L7 0ZM1 1L1 6L6 6L6 1ZM2 2L2 5L5 5L5 2ZM42 0L42 7L49 7L49 0ZM43 1L43 6L48 6L48 1ZM44 2L44 5L47 5L47 2ZM0 42L0 49L7 49L7 42ZM1 43L1 48L6 48L6 43ZM2 44L2 47L5 47L5 44Z" fill="#000000"/></g></g></svg>
