<?xml version="1.0" encoding="UTF-8"?>
<svg xmlns="http://www.w3.org/2000/svg" version="1.1" width="200" height="200" viewBox="0 0 200 200"><rect x="0" y="0" width="200" height="200" fill="#ffffff"/><g transform="scale(3.774)"><g transform="translate(2,2)"><path fill-rule="evenodd" d="M8 0L8 3L9 3L9 2L10 2L10 3L11 3L11 4L13 4L13 3L15 3L15 2L13 2L13 3L12 3L12 2L11 2L11 1L13 1L13 0L11 0L11 1L9 1L9 0ZM15 0L15 1L16 1L16 4L14 4L14 5L13 5L13 6L12 6L12 5L11 5L11 6L10 6L10 4L9 4L9 5L8 5L8 9L7 9L7 8L6 8L6 9L7 9L7 10L6 10L6 11L8 11L8 12L9 12L9 13L8 13L8 14L4 14L4 13L3 13L3 12L5 12L5 13L7 13L7 12L5 12L5 11L3 11L3 10L2 10L2 11L1 11L1 9L0 9L0 11L1 11L1 12L2 12L2 13L1 13L1 14L0 14L0 15L1 15L1 14L2 14L2 15L3 15L3 16L2 16L2 17L3 17L3 18L2 18L2 19L1 19L1 18L0 18L0 19L1 19L1 20L2 20L2 19L3 19L3 21L2 21L2 22L3 22L3 25L1 25L1 24L0 24L0 27L1 27L1 28L0 28L0 30L1 30L1 29L2 29L2 30L4 30L4 29L5 29L5 31L8 31L8 33L7 33L7 32L5 32L5 34L4 34L4 31L0 31L0 32L1 32L1 33L3 33L3 34L2 34L2 35L0 35L0 36L3 36L3 37L4 37L4 38L5 38L5 39L7 39L7 40L6 40L6 41L7 41L7 40L8 40L8 39L7 39L7 38L5 38L5 37L7 37L7 36L5 36L5 35L8 35L8 34L9 34L9 35L10 35L10 34L11 34L11 35L12 35L12 34L13 34L13 35L14 35L14 34L16 34L16 33L17 33L17 34L18 34L18 35L17 35L17 36L16 36L16 35L15 35L15 36L14 36L14 37L15 37L15 36L16 36L16 38L14 38L14 39L13 39L13 36L12 36L12 37L11 37L11 40L10 40L10 41L11 41L11 42L9 42L9 41L8 41L8 42L9 42L9 44L8 44L8 47L10 47L10 48L9 48L9 49L10 49L10 48L11 48L11 47L12 47L12 48L13 48L13 49L16 49L16 48L17 48L17 49L19 49L19 48L20 48L20 49L21 49L21 47L22 47L22 48L23 48L23 49L24 49L24 48L26 48L26 47L27 47L27 46L28 46L28 47L29 47L29 46L30 46L30 45L29 45L29 43L30 43L30 42L31 42L31 40L34 40L34 39L35 39L35 40L36 40L36 41L38 41L38 40L36 40L36 39L39 39L39 38L36 38L36 37L40 37L40 39L41 39L41 40L39 40L39 43L38 43L38 42L36 42L36 43L35 43L35 44L36 44L36 47L35 47L35 46L34 46L34 43L31 43L31 44L33 44L33 45L32 45L32 46L34 46L34 47L31 47L31 48L30 48L30 49L31 49L31 48L33 48L33 49L35 49L35 48L36 48L36 49L38 49L38 47L39 47L39 48L40 48L40 49L42 49L42 48L43 48L43 46L45 46L45 44L46 44L46 45L47 45L47 44L46 44L46 41L47 41L47 42L48 42L48 46L46 46L46 47L45 47L45 48L46 48L46 49L49 49L49 42L48 42L48 41L49 41L49 40L48 40L48 41L47 41L47 40L46 40L46 41L45 41L45 40L42 40L42 39L43 39L43 37L45 37L45 38L46 38L46 39L47 39L47 38L48 38L48 39L49 39L49 38L48 38L48 37L49 37L49 34L48 34L48 33L47 33L47 32L49 32L49 30L48 30L48 29L47 29L47 28L46 28L46 26L47 26L47 24L46 24L46 22L45 22L45 21L44 21L44 22L43 22L43 21L42 21L42 22L40 22L40 21L41 21L41 20L40 20L40 19L39 19L39 20L40 20L40 21L39 21L39 22L37 22L37 20L36 20L36 19L37 19L37 18L40 18L40 17L39 17L39 16L41 16L41 17L42 17L42 20L46 20L46 21L47 21L47 22L48 22L48 23L49 23L49 22L48 22L48 21L49 21L49 18L48 18L48 17L49 17L49 14L48 14L48 13L49 13L49 12L48 12L48 13L47 13L47 12L46 12L46 11L45 11L45 10L46 10L46 9L47 9L47 10L48 10L48 11L49 11L49 10L48 10L48 9L49 9L49 8L46 8L46 9L45 9L45 10L44 10L44 11L42 11L42 10L43 10L43 9L44 9L44 8L40 8L40 7L41 7L41 6L40 6L40 7L39 7L39 5L38 5L38 4L37 4L37 3L36 3L36 2L37 2L37 1L38 1L38 2L39 2L39 4L40 4L40 3L41 3L41 0L40 0L40 1L38 1L38 0L37 0L37 1L36 1L36 2L35 2L35 1L34 1L34 0L31 0L31 4L30 4L30 5L32 5L32 3L33 3L33 5L34 5L34 7L33 7L33 6L32 6L32 7L31 7L31 6L30 6L30 8L29 8L29 6L28 6L28 4L29 4L29 3L28 3L28 0L27 0L27 3L26 3L26 4L23 4L23 2L24 2L24 0L23 0L23 1L22 1L22 0L19 0L19 1L18 1L18 2L17 2L17 0ZM29 0L29 1L30 1L30 0ZM20 1L20 3L22 3L22 2L21 2L21 1ZM32 1L32 2L34 2L34 5L37 5L37 4L36 4L36 3L35 3L35 2L34 2L34 1ZM18 3L18 5L17 5L17 4L16 4L16 5L14 5L14 6L13 6L13 8L15 8L15 7L16 7L16 5L17 5L17 10L15 10L15 11L16 11L16 12L15 12L15 13L14 13L14 12L11 12L11 11L13 11L13 10L11 10L11 9L10 9L10 6L9 6L9 9L8 9L8 11L10 11L10 12L11 12L11 13L10 13L10 16L9 16L9 18L10 18L10 19L8 19L8 18L7 18L7 17L8 17L8 16L7 16L7 15L4 15L4 14L3 14L3 13L2 13L2 14L3 14L3 15L4 15L4 16L3 16L3 17L4 17L4 22L7 22L7 21L8 21L8 22L9 22L9 23L10 23L10 19L11 19L11 17L12 17L12 16L13 16L13 17L15 17L15 19L14 19L14 18L12 18L12 19L13 19L13 20L11 20L11 24L10 24L10 25L9 25L9 26L11 26L11 24L12 24L12 27L13 27L13 23L12 23L12 21L13 21L13 22L14 22L14 23L17 23L17 24L18 24L18 27L20 27L20 29L19 29L19 30L20 30L20 32L19 32L19 31L18 31L18 30L17 30L17 29L18 29L18 28L17 28L17 29L14 29L14 28L12 28L12 29L11 29L11 30L12 30L12 31L11 31L11 34L12 34L12 32L14 32L14 33L15 33L15 30L17 30L17 31L18 31L18 34L19 34L19 33L20 33L20 32L21 32L21 31L25 31L25 32L26 32L26 31L29 31L29 30L30 30L30 29L32 29L32 31L30 31L30 35L31 35L31 34L32 34L32 33L31 33L31 32L33 32L33 31L34 31L34 30L35 30L35 32L34 32L34 34L33 34L33 35L34 35L34 36L29 36L29 33L24 33L24 34L27 34L27 35L26 35L26 36L25 36L25 37L24 37L24 38L23 38L23 35L22 35L22 33L21 33L21 35L19 35L19 37L20 37L20 38L22 38L22 39L19 39L19 38L18 38L18 39L15 39L15 41L14 41L14 40L12 40L12 42L13 42L13 43L11 43L11 46L12 46L12 47L15 47L15 46L16 46L16 45L17 45L17 46L18 46L18 45L17 45L17 41L18 41L18 42L19 42L19 44L22 44L22 43L21 43L21 42L20 42L20 41L19 41L19 40L21 40L21 41L22 41L22 40L23 40L23 39L24 39L24 40L25 40L25 39L26 39L26 40L28 40L28 41L29 41L29 42L27 42L27 43L29 43L29 42L30 42L30 41L29 41L29 40L30 40L30 37L34 37L34 38L31 38L31 39L34 39L34 38L35 38L35 39L36 39L36 38L35 38L35 37L36 37L36 36L37 36L37 34L39 34L39 32L40 32L40 34L41 34L41 35L38 35L38 36L40 36L40 37L41 37L41 39L42 39L42 36L43 36L43 35L44 35L44 36L45 36L45 37L46 37L46 38L47 38L47 37L48 37L48 34L47 34L47 33L46 33L46 32L47 32L47 31L48 31L48 30L47 30L47 29L46 29L46 28L45 28L45 27L42 27L42 28L41 28L41 27L40 27L40 26L39 26L39 25L37 25L37 26L36 26L36 24L39 24L39 23L40 23L40 22L39 22L39 23L37 23L37 22L36 22L36 20L35 20L35 19L36 19L36 18L37 18L37 17L38 17L38 16L37 16L37 14L39 14L39 13L40 13L40 15L41 15L41 14L42 14L42 15L44 15L44 14L46 14L46 12L43 12L43 13L44 13L44 14L42 14L42 11L40 11L40 10L42 10L42 9L40 9L40 8L39 8L39 7L38 7L38 6L37 6L37 10L39 10L39 11L38 11L38 12L37 12L37 11L36 11L36 10L35 10L35 9L36 9L36 8L35 8L35 7L36 7L36 6L35 6L35 7L34 7L34 10L33 10L33 9L32 9L32 8L33 8L33 7L32 7L32 8L30 8L30 9L31 9L31 10L29 10L29 8L28 8L28 6L27 6L27 8L28 8L28 9L26 9L26 10L29 10L29 11L28 11L28 12L27 12L27 11L24 11L24 9L23 9L23 10L22 10L22 9L21 9L21 7L22 7L22 6L21 6L21 5L22 5L22 4L19 4L19 3ZM27 3L27 4L28 4L28 3ZM23 5L23 8L26 8L26 5ZM11 6L11 8L12 8L12 6ZM14 6L14 7L15 7L15 6ZM18 6L18 8L19 8L19 6ZM20 6L20 7L21 7L21 6ZM24 6L24 7L25 7L25 6ZM2 8L2 9L5 9L5 8ZM38 8L38 9L39 9L39 10L40 10L40 9L39 9L39 8ZM18 9L18 10L19 10L19 9ZM20 9L20 11L17 11L17 12L16 12L16 13L15 13L15 14L16 14L16 17L17 17L17 15L18 15L18 14L20 14L20 11L21 11L21 13L22 13L22 14L21 14L21 15L19 15L19 18L20 18L20 16L21 16L21 15L22 15L22 14L23 14L23 17L24 17L24 18L21 18L21 21L20 21L20 23L21 23L21 21L23 21L23 20L22 20L22 19L24 19L24 22L22 22L22 24L21 24L21 26L20 26L20 27L21 27L21 28L22 28L22 30L24 30L24 29L26 29L26 28L27 28L27 26L29 26L29 27L28 27L28 29L27 29L27 30L29 30L29 29L30 29L30 28L36 28L36 29L35 29L35 30L36 30L36 32L35 32L35 33L36 33L36 32L37 32L37 31L39 31L39 30L40 30L40 31L41 31L41 30L42 30L42 31L43 31L43 32L42 32L42 33L45 33L45 32L46 32L46 31L47 31L47 30L46 30L46 29L45 29L45 28L44 28L44 29L41 29L41 28L38 28L38 29L39 29L39 30L37 30L37 28L36 28L36 27L35 27L35 26L34 26L34 23L35 23L35 24L36 24L36 23L35 23L35 22L34 22L34 21L35 21L35 20L32 20L32 19L31 19L31 20L30 20L30 21L31 21L31 23L30 23L30 25L31 25L31 26L32 26L32 25L31 25L31 24L32 24L32 22L34 22L34 23L33 23L33 26L34 26L34 27L30 27L30 26L29 26L29 24L27 24L27 22L28 22L28 23L29 23L29 22L28 22L28 21L29 21L29 18L28 18L28 17L24 17L24 15L25 15L25 16L27 16L27 14L28 14L28 13L29 13L29 14L30 14L30 16L29 16L29 15L28 15L28 16L29 16L29 17L31 17L31 15L33 15L33 14L34 14L34 16L32 16L32 17L34 17L34 18L33 18L33 19L34 19L34 18L35 18L35 16L36 16L36 17L37 17L37 16L36 16L36 15L35 15L35 14L37 14L37 12L36 12L36 13L35 13L35 10L34 10L34 12L33 12L33 11L32 11L32 10L31 10L31 13L30 13L30 12L28 12L28 13L27 13L27 14L26 14L26 15L25 15L25 13L24 13L24 11L22 11L22 10L21 10L21 9ZM39 11L39 12L40 12L40 13L41 13L41 12L40 12L40 11ZM17 12L17 14L18 14L18 13L19 13L19 12ZM32 12L32 13L31 13L31 14L32 14L32 13L33 13L33 12ZM13 13L13 14L11 14L11 16L10 16L10 17L11 17L11 16L12 16L12 15L14 15L14 13ZM23 13L23 14L24 14L24 13ZM34 13L34 14L35 14L35 13ZM47 14L47 15L45 15L45 16L42 16L42 17L46 17L46 18L47 18L47 19L46 19L46 20L47 20L47 21L48 21L48 20L47 20L47 19L48 19L48 18L47 18L47 17L48 17L48 14ZM4 16L4 17L5 17L5 19L7 19L7 18L6 18L6 17L7 17L7 16ZM46 16L46 17L47 17L47 16ZM16 18L16 19L15 19L15 20L14 20L14 21L15 21L15 22L17 22L17 23L18 23L18 24L19 24L19 23L18 23L18 22L19 22L19 20L20 20L20 19L18 19L18 20L17 20L17 18ZM27 18L27 19L25 19L25 20L27 20L27 21L28 21L28 18ZM43 18L43 19L45 19L45 18ZM5 20L5 21L7 21L7 20ZM15 20L15 21L16 21L16 20ZM0 21L0 23L1 23L1 21ZM25 21L25 22L26 22L26 21ZM5 23L5 26L8 26L8 23ZM23 23L23 26L26 26L26 23ZM41 23L41 26L44 26L44 23ZM6 24L6 25L7 25L7 24ZM14 24L14 25L16 25L16 26L14 26L14 27L15 27L15 28L16 28L16 26L17 26L17 25L16 25L16 24ZM24 24L24 25L25 25L25 24ZM42 24L42 25L43 25L43 24ZM45 24L45 25L46 25L46 24ZM3 25L3 26L4 26L4 25ZM21 26L21 27L22 27L22 28L23 28L23 29L24 29L24 28L23 28L23 27L22 27L22 26ZM37 26L37 27L39 27L39 26ZM48 26L48 28L49 28L49 26ZM3 27L3 28L8 28L8 29L6 29L6 30L10 30L10 29L9 29L9 28L8 28L8 27ZM10 27L10 28L11 28L11 27ZM12 29L12 30L14 30L14 29ZM20 29L20 30L21 30L21 29ZM33 29L33 30L34 30L34 29ZM40 29L40 30L41 30L41 29ZM44 29L44 30L43 30L43 31L44 31L44 32L45 32L45 31L44 31L44 30L45 30L45 29ZM6 33L6 34L7 34L7 33ZM3 34L3 35L4 35L4 34ZM34 34L34 35L35 35L35 36L34 36L34 37L35 37L35 36L36 36L36 34ZM42 34L42 35L41 35L41 36L42 36L42 35L43 35L43 34ZM44 34L44 35L45 35L45 36L46 36L46 37L47 37L47 36L46 36L46 35L47 35L47 34ZM27 35L27 36L28 36L28 35ZM0 37L0 38L1 38L1 40L0 40L0 41L3 41L3 40L4 40L4 39L2 39L2 38L1 38L1 37ZM25 37L25 38L27 38L27 39L29 39L29 38L28 38L28 37ZM16 40L16 41L17 41L17 40ZM23 41L23 44L26 44L26 41ZM33 41L33 42L34 42L34 41ZM41 41L41 44L44 44L44 41ZM24 42L24 43L25 43L25 42ZM42 42L42 43L43 43L43 42ZM15 43L15 44L12 44L12 46L13 46L13 45L14 45L14 46L15 46L15 45L16 45L16 43ZM36 43L36 44L38 44L38 45L37 45L37 46L39 46L39 47L40 47L40 46L41 46L41 48L42 48L42 45L40 45L40 46L39 46L39 44L38 44L38 43ZM9 44L9 46L10 46L10 44ZM19 45L19 47L17 47L17 48L19 48L19 47L21 47L21 46L22 46L22 45ZM28 45L28 46L29 46L29 45ZM24 46L24 47L25 47L25 46ZM34 47L34 48L35 48L35 47ZM36 47L36 48L37 48L37 47ZM46 47L46 48L48 48L48 47ZM0 0L0 7L7 7L7 0ZM1 1L1 6L6 6L6 1ZM2 2L2 5L5 5L5 2ZM42 0L42 7L49 7L49 0ZM43 1L43 6L48 6L48 1ZM44 2L44 5L47 5L47 2ZM0 42L0 49L7 49L7 42ZM1 43L1 48L6 48L6 43ZM2 44L2 47L5 47L5 44Z" fill="#000000"/></g></g></svg>
