<?xml version="1.0" encoding="UTF-8"?>
<svg xmlns="http://www.w3.org/2000/svg" version="1.1" width="200" height="200" viewBox="0 0 200 200"><rect x="0" y="0" width="200" height="200" fill="#ffffff"/><g transform="scale(3.774)"><g transform="translate(2,2)"><path fill-rule="evenodd" d="M9 0L9 1L10 1L10 2L9 2L9 4L8 4L8 5L9 5L9 6L8 6L8 8L6 8L6 9L9 9L9 10L10 10L10 12L12 12L12 13L9 13L9 11L8 11L8 12L6 12L6 13L5 13L5 14L4 14L4 16L6 16L6 17L7 17L7 16L6 16L6 15L10 15L10 16L9 16L9 17L8 17L8 19L7 19L7 18L5 18L5 17L3 17L3 18L1 18L1 16L2 16L2 15L3 15L3 13L4 13L4 12L5 12L5 11L7 11L7 10L5 10L5 11L4 11L4 10L2 10L2 9L4 9L4 8L2 8L2 9L0 9L0 18L1 18L1 19L2 19L2 20L0 20L0 23L2 23L2 24L0 24L0 25L2 25L2 27L3 27L3 30L2 30L2 29L1 29L1 28L0 28L0 29L1 29L1 30L2 30L2 31L0 31L0 32L2 32L2 31L3 31L3 33L0 33L0 34L1 34L1 36L0 36L0 38L1 38L1 40L0 40L0 41L3 41L3 40L4 40L4 39L2 39L2 38L1 38L1 36L3 36L3 38L5 38L5 39L7 39L7 38L6 38L6 37L7 37L7 36L6 36L6 35L8 35L8 40L6 40L6 41L8 41L8 43L9 43L9 42L10 42L10 43L11 43L11 44L10 44L10 45L11 45L11 46L9 46L9 45L8 45L8 47L12 47L12 48L10 48L10 49L12 49L12 48L15 48L15 47L17 47L17 46L15 46L15 45L16 45L16 43L18 43L18 46L19 46L19 45L21 45L21 46L20 46L20 47L22 47L22 49L23 49L23 47L24 47L24 48L25 48L25 49L27 49L27 48L28 48L28 49L30 49L30 48L31 48L31 45L32 45L32 48L33 48L33 49L34 49L34 48L36 48L36 49L37 49L37 48L38 48L38 49L39 49L39 48L38 48L38 46L37 46L37 45L36 45L36 46L34 46L34 45L35 45L35 44L34 44L34 45L32 45L32 43L31 43L31 40L32 40L32 41L34 41L34 42L35 42L35 41L36 41L36 39L40 39L40 38L43 38L43 39L44 39L44 38L45 38L45 40L42 40L42 39L41 39L41 40L40 40L40 42L39 42L39 43L40 43L40 45L39 45L39 47L42 47L42 46L44 46L44 47L43 47L43 48L45 48L45 47L46 47L46 49L49 49L49 48L47 48L47 46L46 46L46 44L45 44L45 43L46 43L46 42L48 42L48 43L47 43L47 44L48 44L48 43L49 43L49 39L48 39L48 40L47 40L47 41L46 41L46 39L47 39L47 38L45 38L45 36L44 36L44 35L45 35L45 34L46 34L46 32L44 32L44 31L46 31L46 30L45 30L45 29L47 29L47 30L48 30L48 31L47 31L47 35L46 35L46 37L47 37L47 35L48 35L48 38L49 38L49 35L48 35L48 32L49 32L49 29L47 29L47 28L48 28L48 27L47 27L47 26L48 26L48 25L49 25L49 23L48 23L48 21L47 21L47 23L46 23L46 26L45 26L45 21L46 21L46 20L45 20L45 21L44 21L44 19L43 19L43 18L45 18L45 19L47 19L47 18L48 18L48 19L49 19L49 17L48 17L48 16L49 16L49 15L48 15L48 16L47 16L47 15L46 15L46 16L47 16L47 17L46 17L46 18L45 18L45 15L44 15L44 14L47 14L47 11L48 11L48 9L47 9L47 10L46 10L46 13L44 13L44 14L42 14L42 13L43 13L43 12L41 12L41 10L40 10L40 8L39 8L39 5L38 5L38 4L37 4L37 3L38 3L38 2L39 2L39 4L40 4L40 3L41 3L41 0L40 0L40 1L38 1L38 2L36 2L36 1L34 1L34 0L30 0L30 1L33 1L33 2L34 2L34 3L32 3L32 4L31 4L31 3L30 3L30 2L28 2L28 3L27 3L27 2L26 2L26 1L29 1L29 0L25 0L25 1L23 1L23 2L22 2L22 0L21 0L21 2L19 2L19 1L20 1L20 0L18 0L18 3L17 3L17 5L16 5L16 7L17 7L17 6L18 6L18 7L19 7L19 6L20 6L20 8L19 8L19 9L20 9L20 11L19 11L19 10L17 10L17 9L16 9L16 10L14 10L14 11L13 11L13 10L12 10L12 9L15 9L15 8L14 8L14 7L15 7L15 3L16 3L16 0L15 0L15 2L14 2L14 1L13 1L13 2L12 2L12 3L13 3L13 4L12 4L12 5L10 5L10 4L11 4L11 3L10 3L10 2L11 2L11 0ZM13 2L13 3L14 3L14 2ZM23 2L23 4L24 4L24 3L25 3L25 4L26 4L26 3L25 3L25 2ZM20 3L20 4L18 4L18 5L20 5L20 6L21 6L21 7L22 7L22 5L21 5L21 4L22 4L22 3ZM28 3L28 4L29 4L29 5L30 5L30 4L29 4L29 3ZM35 3L35 4L33 4L33 5L31 5L31 7L32 7L32 8L30 8L30 9L29 9L29 11L27 11L27 10L28 10L28 9L26 9L26 11L25 11L25 12L24 12L24 10L22 10L22 9L21 9L21 8L20 8L20 9L21 9L21 10L22 10L22 12L21 12L21 11L20 11L20 12L18 12L18 11L17 11L17 10L16 10L16 11L17 11L17 12L15 12L15 11L14 11L14 12L13 12L13 11L12 11L12 12L13 12L13 13L12 13L12 15L11 15L11 16L10 16L10 17L9 17L9 18L11 18L11 17L12 17L12 16L13 16L13 18L14 18L14 16L15 16L15 18L16 18L16 19L19 19L19 20L18 20L18 21L17 21L17 22L16 22L16 21L15 21L15 22L16 22L16 23L18 23L18 21L19 21L19 20L20 20L20 22L19 22L19 24L15 24L15 23L14 23L14 20L13 20L13 21L12 21L12 19L9 19L9 20L8 20L8 22L9 22L9 26L10 26L10 27L9 27L9 28L11 28L11 29L13 29L13 30L12 30L12 31L13 31L13 32L14 32L14 34L15 34L15 35L13 35L13 36L11 36L11 35L10 35L10 36L9 36L9 38L10 38L10 37L11 37L11 38L12 38L12 39L10 39L10 40L9 40L9 41L11 41L11 42L12 42L12 47L13 47L13 46L14 46L14 47L15 47L15 46L14 46L14 45L15 45L15 44L14 44L14 45L13 45L13 43L15 43L15 42L13 42L13 38L14 38L14 40L15 40L15 41L17 41L17 42L18 42L18 43L19 43L19 42L18 42L18 41L17 41L17 40L16 40L16 39L15 39L15 38L14 38L14 37L16 37L16 38L17 38L17 39L18 39L18 40L19 40L19 39L18 39L18 38L19 38L19 37L20 37L20 38L21 38L21 39L20 39L20 40L21 40L21 39L22 39L22 40L23 40L23 39L22 39L22 37L20 37L20 36L23 36L23 38L25 38L25 39L24 39L24 40L27 40L27 41L28 41L28 43L29 43L29 44L27 44L27 46L28 46L28 48L30 48L30 47L29 47L29 46L28 46L28 45L29 45L29 44L31 44L31 43L30 43L30 42L29 42L29 41L30 41L30 40L31 40L31 38L30 38L30 37L31 37L31 36L32 36L32 39L33 39L33 36L32 36L32 35L33 35L33 34L32 34L32 31L33 31L33 32L34 32L34 29L35 29L35 27L36 27L36 30L35 30L35 31L36 31L36 32L38 32L38 31L36 31L36 30L37 30L37 29L38 29L38 30L40 30L40 29L41 29L41 31L40 31L40 32L39 32L39 33L34 33L34 34L35 34L35 35L34 35L34 36L35 36L35 37L34 37L34 41L35 41L35 37L36 37L36 36L35 36L35 35L36 35L36 34L38 34L38 35L37 35L37 38L38 38L38 37L39 37L39 35L40 35L40 34L42 34L42 35L44 35L44 34L45 34L45 33L44 33L44 32L41 32L41 31L42 31L42 30L43 30L43 31L44 31L44 28L45 28L45 27L42 27L42 28L41 28L41 27L39 27L39 29L38 29L38 25L39 25L39 26L40 26L40 25L39 25L39 20L40 20L40 22L42 22L42 20L43 20L43 19L42 19L42 20L41 20L41 18L43 18L43 17L44 17L44 16L42 16L42 15L41 15L41 16L40 16L40 17L39 17L39 16L37 16L37 15L38 15L38 12L39 12L39 15L40 15L40 14L41 14L41 13L40 13L40 12L39 12L39 11L40 11L40 10L39 10L39 9L37 9L37 8L38 8L38 5L36 5L36 6L35 6L35 4L36 4L36 3ZM12 5L12 6L11 6L11 9L10 9L10 10L11 10L11 9L12 9L12 6L13 6L13 7L14 7L14 6L13 6L13 5ZM23 5L23 8L26 8L26 5ZM33 5L33 6L32 6L32 7L33 7L33 6L34 6L34 7L35 7L35 6L34 6L34 5ZM9 6L9 8L10 8L10 6ZM24 6L24 7L25 7L25 6ZM27 6L27 8L29 8L29 7L30 7L30 6L29 6L29 7L28 7L28 6ZM36 6L36 7L37 7L37 6ZM40 6L40 7L41 7L41 6ZM34 8L34 9L33 9L33 11L34 11L34 12L36 12L36 13L35 13L35 15L34 15L34 17L33 17L33 15L31 15L31 14L32 14L32 12L31 12L31 11L30 11L30 12L31 12L31 14L29 14L29 15L27 15L27 14L28 14L28 12L27 12L27 13L26 13L26 12L25 12L25 13L26 13L26 14L23 14L23 13L22 13L22 14L21 14L21 12L20 12L20 14L19 14L19 13L18 13L18 12L17 12L17 16L16 16L16 18L17 18L17 16L18 16L18 14L19 14L19 15L20 15L20 16L21 16L21 15L22 15L22 17L23 17L23 19L22 19L22 20L23 20L23 21L21 21L21 22L22 22L22 23L20 23L20 24L21 24L21 25L22 25L22 26L20 26L20 25L17 25L17 26L16 26L16 25L15 25L15 27L14 27L14 26L13 26L13 25L12 25L12 24L13 24L13 23L12 23L12 22L10 22L10 21L9 21L9 22L10 22L10 23L11 23L11 24L10 24L10 26L11 26L11 25L12 25L12 27L11 27L11 28L12 28L12 27L14 27L14 28L13 28L13 29L14 29L14 28L16 28L16 27L17 27L17 28L18 28L18 29L15 29L15 30L13 30L13 31L15 31L15 30L18 30L18 31L16 31L16 33L17 33L17 32L18 32L18 33L20 33L20 32L21 32L21 31L20 31L20 32L19 32L19 30L21 30L21 29L22 29L22 30L25 30L25 29L27 29L27 31L26 31L26 32L27 32L27 34L26 34L26 35L27 35L27 36L24 36L24 37L25 37L25 38L26 38L26 39L27 39L27 40L28 40L28 39L29 39L29 38L28 38L28 37L27 37L27 36L29 36L29 35L30 35L30 36L31 36L31 35L32 35L32 34L30 34L30 33L31 33L31 31L32 31L32 30L33 30L33 28L34 28L34 26L33 26L33 25L35 25L35 26L36 26L36 25L38 25L38 22L37 22L37 21L38 21L38 20L39 20L39 19L38 19L38 20L37 20L37 19L36 19L36 20L37 20L37 21L35 21L35 22L34 22L34 21L33 21L33 22L31 22L31 23L30 23L30 22L29 22L29 21L30 21L30 20L31 20L31 21L32 21L32 20L34 20L34 17L36 17L36 14L37 14L37 12L38 12L38 10L37 10L37 9L35 9L35 8ZM41 8L41 9L42 9L42 11L43 11L43 10L44 10L44 9L45 9L45 8L44 8L44 9L43 9L43 8ZM31 9L31 10L32 10L32 9ZM34 9L34 10L35 10L35 9ZM1 10L1 11L2 11L2 13L3 13L3 12L4 12L4 11L2 11L2 10ZM36 10L36 11L37 11L37 10ZM44 11L44 12L45 12L45 11ZM48 12L48 14L49 14L49 12ZM6 13L6 14L5 14L5 15L6 15L6 14L8 14L8 13ZM14 13L14 14L13 14L13 15L14 15L14 14L16 14L16 13ZM1 14L1 15L2 15L2 14ZM24 15L24 16L23 16L23 17L24 17L24 16L25 16L25 18L24 18L24 20L25 20L25 21L26 21L26 20L25 20L25 19L26 19L26 18L27 18L27 20L28 20L28 21L29 21L29 19L28 19L28 17L29 17L29 16L30 16L30 17L32 17L32 18L31 18L31 20L32 20L32 18L33 18L33 17L32 17L32 16L31 16L31 15L29 15L29 16L27 16L27 17L26 17L26 15ZM19 17L19 18L20 18L20 20L21 20L21 17ZM38 17L38 18L39 18L39 17ZM40 17L40 18L41 18L41 17ZM3 18L3 19L5 19L5 18ZM6 19L6 20L7 20L7 19ZM2 20L2 21L3 21L3 20ZM5 21L5 22L7 22L7 21ZM23 21L23 22L24 22L24 21ZM43 21L43 22L44 22L44 21ZM2 22L2 23L3 23L3 24L4 24L4 22ZM5 23L5 26L8 26L8 23ZM23 23L23 26L26 26L26 23ZM28 23L28 24L27 24L27 27L26 27L26 28L27 28L27 27L28 27L28 30L30 30L30 31L31 31L31 30L30 30L30 28L32 28L32 27L33 27L33 26L32 26L32 27L30 27L30 28L29 28L29 26L30 26L30 25L29 25L29 23ZM31 23L31 25L33 25L33 24L34 24L34 23ZM41 23L41 26L44 26L44 23ZM47 23L47 24L48 24L48 23ZM6 24L6 25L7 25L7 24ZM24 24L24 25L25 25L25 24ZM35 24L35 25L36 25L36 24ZM42 24L42 25L43 25L43 24ZM4 27L4 30L3 30L3 31L4 31L4 32L5 32L5 31L6 31L6 32L8 32L8 31L9 31L9 30L8 30L8 28L7 28L7 27L6 27L6 28L7 28L7 29L5 29L5 27ZM18 27L18 28L19 28L19 27ZM20 27L20 29L21 29L21 28L22 28L22 29L24 29L24 28L25 28L25 27L24 27L24 28L22 28L22 27ZM46 27L46 28L47 28L47 27ZM18 29L18 30L19 30L19 29ZM4 30L4 31L5 31L5 30ZM6 30L6 31L8 31L8 30ZM10 31L10 32L9 32L9 33L5 33L5 34L4 34L4 33L3 33L3 35L5 35L5 34L8 34L8 35L9 35L9 34L11 34L11 33L10 33L10 32L11 32L11 31ZM22 31L22 32L24 32L24 31ZM27 31L27 32L29 32L29 33L28 33L28 35L29 35L29 33L30 33L30 32L29 32L29 31ZM40 32L40 33L41 33L41 32ZM21 33L21 35L22 35L22 34L23 34L23 35L24 35L24 34L25 34L25 33ZM17 34L17 35L15 35L15 36L17 36L17 38L18 38L18 37L19 37L19 36L18 36L18 35L20 35L20 34ZM5 36L5 37L6 37L6 36ZM13 36L13 37L12 37L12 38L13 38L13 37L14 37L14 36ZM40 36L40 37L42 37L42 36ZM26 37L26 38L27 38L27 37ZM43 37L43 38L44 38L44 37ZM37 40L37 42L36 42L36 44L37 44L37 43L38 43L38 41L39 41L39 40ZM21 41L21 42L20 42L20 43L21 43L21 44L22 44L22 41ZM23 41L23 44L26 44L26 41ZM41 41L41 44L44 44L44 41ZM45 41L45 42L46 42L46 41ZM24 42L24 43L25 43L25 42ZM42 42L42 43L43 43L43 42ZM24 45L24 47L26 47L26 48L27 48L27 47L26 47L26 45ZM40 45L40 46L41 46L41 45ZM48 45L48 46L49 46L49 45ZM36 46L36 47L37 47L37 46ZM33 47L33 48L34 48L34 47ZM16 48L16 49L18 49L18 48ZM19 48L19 49L21 49L21 48ZM40 48L40 49L42 49L42 48ZM0 0L0 7L7 7L7 0ZM1 1L1 6L6 6L6 1ZM2 2L2 5L5 5L5 2ZM42 0L42 7L49 7L49 0ZM43 1L43 6L48 6L48 1ZM44 2L44 5L47 5L47 2ZM0 42L0 49L7 49L7 42ZM1 43L1 48L6 48L6 43ZM2 44L2 47L5 47L5 44Z" fill="#000000"/></g></g></svg>
