<?xml version="1.0" encoding="UTF-8"?>
<svg xmlns="http://www.w3.org/2000/svg" version="1.1" width="200" height="200" viewBox="0 0 200 200"><rect x="0" y="0" width="200" height="200" fill="#ffffff"/><g transform="scale(3.774)"><g transform="translate(2,2)"><path fill-rule="evenodd" d="M8 0L8 1L9 1L9 3L8 3L8 4L9 4L9 3L10 3L10 2L11 2L11 4L10 4L10 5L9 5L9 6L8 6L8 7L9 7L9 6L10 6L10 7L11 7L11 5L12 5L12 4L14 4L14 1L15 1L15 0L14 0L14 1L13 1L13 0ZM19 0L19 1L20 1L20 0ZM21 0L21 2L18 2L18 1L16 1L16 2L15 2L15 3L16 3L16 2L17 2L17 3L18 3L18 4L16 4L16 7L17 7L17 8L19 8L19 5L18 5L18 4L21 4L21 6L20 6L20 7L21 7L21 8L20 8L20 9L14 9L14 10L15 10L15 11L14 11L14 14L10 14L10 13L11 13L11 12L9 12L9 11L11 11L11 10L10 10L10 9L13 9L13 8L10 8L10 9L9 9L9 8L8 8L8 9L9 9L9 10L6 10L6 9L7 9L7 8L4 8L4 9L5 9L5 10L3 10L3 8L2 8L2 9L1 9L1 10L0 10L0 13L1 13L1 10L2 10L2 12L3 12L3 18L4 18L4 19L3 19L3 21L5 21L5 22L4 22L4 23L1 23L1 22L2 22L2 21L1 21L1 20L2 20L2 19L0 19L0 25L1 25L1 24L2 24L2 26L0 26L0 29L1 29L1 30L0 30L0 31L3 31L3 33L2 33L2 32L0 32L0 33L1 33L1 34L0 34L0 37L1 37L1 36L2 36L2 37L3 37L3 36L2 36L2 35L3 35L3 34L4 34L4 33L8 33L8 34L5 34L5 35L4 35L4 36L5 36L5 37L4 37L4 38L5 38L5 39L7 39L7 38L8 38L8 39L11 39L11 37L10 37L10 36L12 36L12 37L14 37L14 38L15 38L15 39L14 39L14 40L16 40L16 39L17 39L17 40L19 40L19 39L20 39L20 40L21 40L21 38L20 38L20 37L14 37L14 36L16 36L16 35L17 35L17 34L16 34L16 33L15 33L15 32L12 32L12 29L13 29L13 28L11 28L11 29L10 29L10 30L11 30L11 32L10 32L10 31L9 31L9 30L8 30L8 29L9 29L9 28L10 28L10 27L9 27L9 24L10 24L10 25L12 25L12 26L11 26L11 27L12 27L12 26L13 26L13 27L14 27L14 28L15 28L15 27L16 27L16 29L17 29L17 27L18 27L18 26L20 26L20 25L21 25L21 27L26 27L26 29L25 29L25 28L21 28L21 29L22 29L22 30L23 30L23 31L20 31L20 30L18 30L18 31L20 31L20 32L22 32L22 34L21 34L21 33L20 33L20 34L19 34L19 35L18 35L18 36L20 36L20 34L21 34L21 35L22 35L22 34L24 34L24 35L23 35L23 36L21 36L21 37L24 37L24 38L25 38L25 36L26 36L26 39L27 39L27 38L28 38L28 37L29 37L29 38L30 38L30 39L28 39L28 40L29 40L29 41L27 41L27 40L25 40L25 39L24 39L24 40L22 40L22 45L26 45L26 46L25 46L25 47L26 47L26 49L27 49L27 47L28 47L28 45L27 45L27 44L29 44L29 45L30 45L30 46L32 46L32 49L33 49L33 48L34 48L34 45L35 45L35 46L36 46L36 49L37 49L37 47L38 47L38 45L39 45L39 48L38 48L38 49L40 49L40 48L41 48L41 49L42 49L42 47L43 47L43 48L44 48L44 49L46 49L46 47L47 47L47 49L49 49L49 48L48 48L48 47L49 47L49 46L48 46L48 45L49 45L49 44L48 44L48 43L49 43L49 36L48 36L48 35L49 35L49 33L48 33L48 35L47 35L47 36L48 36L48 39L47 39L47 40L48 40L48 43L47 43L47 42L46 42L46 40L44 40L44 39L46 39L46 35L45 35L45 38L44 38L44 36L43 36L43 34L44 34L44 32L43 32L43 30L42 30L42 29L43 29L43 28L44 28L44 27L45 27L45 30L46 30L46 27L47 27L47 26L48 26L48 27L49 27L49 25L46 25L46 23L47 23L47 24L49 24L49 20L48 20L48 23L47 23L47 22L46 22L46 23L45 23L45 21L46 21L46 19L45 19L45 18L46 18L46 16L45 16L45 15L44 15L44 17L43 17L43 18L42 18L42 16L41 16L41 15L42 15L42 13L43 13L43 12L42 12L42 8L41 8L41 10L40 10L40 7L41 7L41 6L40 6L40 7L39 7L39 5L38 5L38 3L37 3L37 5L38 5L38 7L37 7L37 6L36 6L36 7L37 7L37 8L36 8L36 9L37 9L37 10L36 10L36 11L34 11L34 9L35 9L35 8L34 8L34 7L35 7L35 4L36 4L36 1L35 1L35 0L34 0L34 3L33 3L33 2L32 2L32 0L31 0L31 1L28 1L28 0L26 0L26 1L27 1L27 2L26 2L26 3L23 3L23 0ZM37 0L37 2L39 2L39 4L40 4L40 3L41 3L41 0L40 0L40 1L38 1L38 0ZM24 1L24 2L25 2L25 1ZM12 2L12 3L13 3L13 2ZM21 2L21 4L23 4L23 3L22 3L22 2ZM29 2L29 3L27 3L27 4L29 4L29 5L28 5L28 6L27 6L27 9L24 9L24 10L23 10L23 12L21 12L21 11L22 11L22 9L21 9L21 10L19 10L19 12L18 12L18 10L17 10L17 11L16 11L16 12L15 12L15 14L16 14L16 12L18 12L18 15L20 15L20 13L22 13L22 14L21 14L21 15L23 15L23 12L24 12L24 14L25 14L25 12L26 12L26 14L27 14L27 11L28 11L28 14L29 14L29 15L28 15L28 16L29 16L29 15L30 15L30 16L33 16L33 19L31 19L31 18L29 18L29 17L28 17L28 19L27 19L27 18L26 18L26 15L25 15L25 18L24 18L24 17L23 17L23 16L21 16L21 18L20 18L20 16L17 16L17 15L14 15L14 16L12 16L12 15L10 15L10 14L8 14L8 15L6 15L6 16L4 16L4 18L5 18L5 17L6 17L6 18L10 18L10 19L12 19L12 18L11 18L11 16L12 16L12 17L13 17L13 18L14 18L14 19L15 19L15 20L16 20L16 21L17 21L17 22L18 22L18 25L17 25L17 24L16 24L16 27L17 27L17 26L18 26L18 25L20 25L20 24L21 24L21 25L22 25L22 23L21 23L21 22L23 22L23 21L24 21L24 22L25 22L25 21L24 21L24 20L25 20L25 18L26 18L26 21L27 21L27 20L28 20L28 23L27 23L27 27L28 27L28 25L30 25L30 26L31 26L31 27L29 27L29 28L28 28L28 29L29 29L29 28L30 28L30 30L31 30L31 29L32 29L32 30L33 30L33 29L32 29L32 26L33 26L33 25L34 25L34 27L35 27L35 29L34 29L34 31L36 31L36 33L38 33L38 36L37 36L37 37L36 37L36 35L37 35L37 34L36 34L36 35L35 35L35 33L34 33L34 32L33 32L33 31L32 31L32 33L34 33L34 36L33 36L33 37L32 37L32 35L33 35L33 34L32 34L32 35L31 35L31 34L30 34L30 35L28 35L28 36L29 36L29 37L30 37L30 38L31 38L31 39L30 39L30 40L31 40L31 41L30 41L30 43L29 43L29 44L31 44L31 45L32 45L32 42L33 42L33 41L32 41L32 39L33 39L33 37L34 37L34 40L35 40L35 41L34 41L34 42L35 42L35 43L34 43L34 44L33 44L33 45L34 45L34 44L35 44L35 45L36 45L36 46L37 46L37 45L36 45L36 42L35 42L35 41L36 41L36 38L37 38L37 37L38 37L38 40L39 40L39 41L38 41L38 42L39 42L39 43L40 43L40 42L39 42L39 41L40 41L40 40L42 40L42 38L43 38L43 39L44 39L44 38L43 38L43 37L42 37L42 34L41 34L41 33L42 33L42 32L41 32L41 31L42 31L42 30L41 30L41 29L42 29L42 27L39 27L39 25L40 25L40 24L39 24L39 25L38 25L38 28L37 28L37 29L36 29L36 26L37 26L37 25L36 25L36 23L37 23L37 21L38 21L38 23L39 23L39 21L38 21L38 20L39 20L39 19L38 19L38 17L39 17L39 16L38 16L38 15L40 15L40 14L41 14L41 13L42 13L42 12L41 12L41 11L40 11L40 10L39 10L39 7L38 7L38 8L37 8L37 9L38 9L38 11L37 11L37 13L36 13L36 12L34 12L34 11L33 11L33 13L34 13L34 15L33 15L33 14L32 14L32 15L30 15L30 14L31 14L31 12L32 12L32 11L31 11L31 12L30 12L30 13L29 13L29 11L30 11L30 10L29 10L29 9L32 9L32 10L33 10L33 9L34 9L34 8L33 8L33 7L34 7L34 4L35 4L35 3L34 3L34 4L33 4L33 3L31 3L31 2ZM29 3L29 4L30 4L30 5L29 5L29 6L28 6L28 9L29 9L29 8L31 8L31 5L32 5L32 7L33 7L33 5L32 5L32 4L31 4L31 3ZM13 5L13 6L12 6L12 7L13 7L13 6L14 6L14 8L15 8L15 5ZM23 5L23 8L26 8L26 5ZM17 6L17 7L18 7L18 6ZM21 6L21 7L22 7L22 6ZM24 6L24 7L25 7L25 6ZM29 6L29 7L30 7L30 6ZM45 8L45 11L44 11L44 13L46 13L46 14L47 14L47 13L46 13L46 11L47 11L47 12L48 12L48 15L47 15L47 16L48 16L48 19L49 19L49 16L48 16L48 15L49 15L49 8L48 8L48 11L47 11L47 10L46 10L46 8ZM43 9L43 10L44 10L44 9ZM5 10L5 11L4 11L4 15L5 15L5 14L7 14L7 13L8 13L8 12L7 12L7 11L6 11L6 10ZM24 10L24 12L25 12L25 11L26 11L26 10ZM5 11L5 13L7 13L7 12L6 12L6 11ZM39 11L39 12L38 12L38 13L37 13L37 14L36 14L36 13L35 13L35 14L36 14L36 17L34 17L34 19L35 19L35 18L36 18L36 21L35 21L35 22L36 22L36 21L37 21L37 20L38 20L38 19L37 19L37 15L38 15L38 13L39 13L39 14L40 14L40 11ZM19 12L19 13L20 13L20 12ZM0 14L0 16L2 16L2 15L1 15L1 14ZM9 15L9 17L10 17L10 15ZM34 15L34 16L35 16L35 15ZM6 16L6 17L8 17L8 16ZM14 16L14 18L16 18L16 19L17 19L17 21L19 21L19 22L21 22L21 20L22 20L22 19L20 19L20 21L19 21L19 17L17 17L17 16ZM0 17L0 18L2 18L2 17ZM16 17L16 18L17 18L17 19L18 19L18 18L17 18L17 17ZM40 17L40 18L41 18L41 19L40 19L40 22L41 22L41 21L42 21L42 22L43 22L43 21L44 21L44 18L45 18L45 17L44 17L44 18L43 18L43 19L42 19L42 18L41 18L41 17ZM23 18L23 20L24 20L24 18ZM4 19L4 20L5 20L5 19ZM6 19L6 20L7 20L7 21L6 21L6 22L9 22L9 21L10 21L10 23L12 23L12 22L13 22L13 21L14 21L14 22L15 22L15 21L14 21L14 20L11 20L11 21L10 21L10 20L9 20L9 19L8 19L8 20L7 20L7 19ZM28 19L28 20L29 20L29 22L30 22L30 23L29 23L29 24L30 24L30 25L31 25L31 23L33 23L33 24L32 24L32 25L33 25L33 24L34 24L34 25L35 25L35 24L34 24L34 21L32 21L32 20L30 20L30 19ZM41 19L41 20L42 20L42 19ZM8 20L8 21L9 21L9 20ZM11 21L11 22L12 22L12 21ZM30 21L30 22L32 22L32 21ZM5 23L5 26L8 26L8 23ZM13 23L13 24L12 24L12 25L13 25L13 26L14 26L14 25L13 25L13 24L14 24L14 23ZM19 23L19 24L20 24L20 23ZM23 23L23 26L26 26L26 23ZM41 23L41 26L44 26L44 23ZM3 24L3 26L2 26L2 27L1 27L1 28L2 28L2 27L3 27L3 30L4 30L4 28L5 28L5 31L4 31L4 32L5 32L5 31L6 31L6 32L8 32L8 33L10 33L10 32L9 32L9 31L8 31L8 30L7 30L7 29L8 29L8 28L7 28L7 27L6 27L6 28L5 28L5 27L4 27L4 24ZM6 24L6 25L7 25L7 24ZM24 24L24 25L25 25L25 24ZM42 24L42 25L43 25L43 24ZM45 26L45 27L46 27L46 26ZM6 28L6 29L7 29L7 28ZM18 28L18 29L19 29L19 28ZM48 28L48 31L49 31L49 28ZM37 29L37 30L36 30L36 31L37 31L37 32L38 32L38 33L39 33L39 34L40 34L40 33L41 33L41 32L40 32L40 33L39 33L39 32L38 32L38 29ZM39 29L39 31L40 31L40 29ZM6 30L6 31L7 31L7 30ZM14 30L14 31L16 31L16 32L17 32L17 31L16 31L16 30ZM24 30L24 31L25 31L25 30ZM27 30L27 31L26 31L26 32L27 32L27 33L26 33L26 34L25 34L25 35L24 35L24 36L25 36L25 35L27 35L27 34L29 34L29 32L30 32L30 31L29 31L29 30ZM27 31L27 32L29 32L29 31ZM45 31L45 33L46 33L46 31ZM11 32L11 33L12 33L12 35L13 35L13 33L12 33L12 32ZM18 32L18 33L19 33L19 32ZM23 32L23 33L24 33L24 32ZM1 34L1 35L2 35L2 34ZM9 34L9 36L10 36L10 34ZM14 34L14 35L15 35L15 34ZM6 35L6 36L7 36L7 37L6 37L6 38L7 38L7 37L8 37L8 38L9 38L9 37L8 37L8 36L7 36L7 35ZM34 36L34 37L35 37L35 38L36 38L36 37L35 37L35 36ZM38 36L38 37L39 37L39 36ZM40 36L40 38L39 38L39 39L40 39L40 38L42 38L42 37L41 37L41 36ZM1 38L1 40L0 40L0 41L3 41L3 40L4 40L4 39L2 39L2 38ZM18 38L18 39L19 39L19 38ZM22 38L22 39L23 39L23 38ZM6 40L6 41L7 41L7 40ZM8 40L8 42L9 42L9 41L10 41L10 40ZM12 40L12 41L13 41L13 44L12 44L12 45L11 45L11 43L10 43L10 44L9 44L9 43L8 43L8 45L9 45L9 46L8 46L8 47L9 47L9 46L11 46L11 47L10 47L10 49L11 49L11 48L12 48L12 45L13 45L13 46L14 46L14 48L13 48L13 49L14 49L14 48L16 48L16 49L19 49L19 46L20 46L20 48L21 48L21 49L24 49L24 48L23 48L23 47L24 47L24 46L23 46L23 47L22 47L22 48L21 48L21 46L20 46L20 44L21 44L21 42L19 42L19 41L18 41L18 42L17 42L17 43L15 43L15 44L14 44L14 41L13 41L13 40ZM15 41L15 42L16 42L16 41ZM23 41L23 44L26 44L26 41ZM31 41L31 42L32 42L32 41ZM41 41L41 44L44 44L44 41ZM24 42L24 43L25 43L25 42ZM42 42L42 43L43 43L43 42ZM45 42L45 43L46 43L46 46L45 46L45 47L44 47L44 45L42 45L42 46L41 46L41 45L40 45L40 44L39 44L39 45L40 45L40 47L42 47L42 46L43 46L43 47L44 47L44 48L45 48L45 47L46 47L46 46L47 46L47 45L48 45L48 44L47 44L47 43L46 43L46 42ZM13 44L13 45L14 45L14 46L15 46L15 47L17 47L17 46L16 46L16 44L15 44L15 45L14 45L14 44ZM17 44L17 45L18 45L18 44ZM30 47L30 48L31 48L31 47ZM0 0L0 7L7 7L7 0ZM1 1L1 6L6 6L6 1ZM2 2L2 5L5 5L5 2ZM42 0L42 7L49 7L49 0ZM43 1L43 6L48 6L48 1ZM44 2L44 5L47 5L47 2ZM0 42L0 49L7 49L7 42ZM1 43L1 48L6 48L6 43ZM2 44L2 47L5 47L5 44Z" fill="#000000"/></g></g></svg>
