<?xml version="1.0" encoding="UTF-8"?>
<svg xmlns="http://www.w3.org/2000/svg" version="1.1" width="200" height="200" viewBox="0 0 200 200"><rect x="0" y="0" width="200" height="200" fill="#ffffff"/><g transform="scale(3.774)"><g transform="translate(2,2)"><path fill-rule="evenodd" d="M11 0L11 1L10 1L10 2L9 2L9 3L10 3L10 2L11 2L11 3L13 3L13 0ZM15 0L15 1L14 1L14 3L16 3L16 2L17 2L17 4L18 4L18 5L17 5L17 6L16 6L16 7L17 7L17 8L18 8L18 9L15 9L15 10L14 10L14 9L12 9L12 8L15 8L15 6L14 6L14 5L13 5L13 6L12 6L12 4L11 4L11 5L9 5L9 4L8 4L8 5L9 5L9 6L8 6L8 8L6 8L6 9L7 9L7 10L5 10L5 11L3 11L3 10L4 10L4 8L2 8L2 9L3 9L3 10L2 10L2 11L3 11L3 12L2 12L2 14L1 14L1 11L0 11L0 14L1 14L1 15L3 15L3 17L4 17L4 18L2 18L2 17L1 17L1 16L0 16L0 18L1 18L1 19L0 19L0 21L1 21L1 22L2 22L2 23L0 23L0 25L1 25L1 26L2 26L2 27L1 27L1 30L0 30L0 31L1 31L1 33L5 33L5 34L4 34L4 35L5 35L5 34L6 34L6 35L8 35L8 36L9 36L9 35L8 35L8 34L9 34L9 33L11 33L11 32L12 32L12 31L13 31L13 32L14 32L14 33L15 33L15 34L13 34L13 33L12 33L12 37L13 37L13 38L11 38L11 37L8 37L8 38L6 38L6 37L7 37L7 36L3 36L3 37L2 37L2 35L3 35L3 34L0 34L0 35L1 35L1 36L0 36L0 38L1 38L1 40L0 40L0 41L3 41L3 40L4 40L4 39L2 39L2 38L5 38L5 39L7 39L7 40L6 40L6 41L7 41L7 40L8 40L8 43L10 43L10 44L9 44L9 45L8 45L8 47L9 47L9 49L10 49L10 47L11 47L11 45L10 45L10 44L12 44L12 43L13 43L13 44L14 44L14 45L15 45L15 44L16 44L16 47L17 47L17 46L19 46L19 45L18 45L18 44L19 44L19 43L20 43L20 45L21 45L21 46L20 46L20 49L21 49L21 48L22 48L22 47L23 47L23 49L24 49L24 47L25 47L25 48L26 48L26 47L27 47L27 48L28 48L28 49L29 49L29 48L30 48L30 49L31 49L31 47L30 47L30 44L31 44L31 45L32 45L32 48L33 48L33 49L35 49L35 48L36 48L36 49L38 49L38 48L39 48L39 47L42 47L42 46L44 46L44 47L43 47L43 48L44 48L44 47L45 47L45 46L46 46L46 49L49 49L49 48L47 48L47 46L46 46L46 44L45 44L45 43L46 43L46 42L48 42L48 43L47 43L47 44L48 44L48 43L49 43L49 41L48 41L48 40L42 40L42 39L41 39L41 40L40 40L40 42L39 42L39 43L40 43L40 45L39 45L39 47L38 47L38 46L37 46L37 45L36 45L36 46L34 46L34 45L35 45L35 44L34 44L34 45L32 45L32 43L30 43L30 42L29 42L29 41L28 41L28 42L27 42L27 40L26 40L26 37L25 37L25 36L24 36L24 35L26 35L26 36L27 36L27 35L28 35L28 36L30 36L30 35L28 35L28 34L27 34L27 33L26 33L26 32L27 32L27 31L26 31L26 30L27 30L27 29L28 29L28 32L30 32L30 33L29 33L29 34L31 34L31 35L32 35L32 36L36 36L36 37L35 37L35 41L34 41L34 38L33 38L33 39L32 39L32 37L31 37L31 39L30 39L30 40L32 40L32 41L31 41L31 42L32 42L32 41L34 41L34 42L35 42L35 41L36 41L36 44L37 44L37 43L38 43L38 41L39 41L39 40L37 40L37 41L36 41L36 37L37 37L37 36L38 36L38 39L40 39L40 38L42 38L42 37L44 37L44 38L43 38L43 39L44 39L44 38L45 38L45 39L46 39L46 38L45 38L45 36L43 36L43 35L42 35L42 34L40 34L40 33L41 33L41 32L44 32L44 33L46 33L46 32L45 32L45 31L47 31L47 30L48 30L48 31L49 31L49 29L47 29L47 28L46 28L46 27L47 27L47 26L49 26L49 25L47 25L47 23L48 23L48 24L49 24L49 23L48 23L48 21L47 21L47 23L46 23L46 27L45 27L45 21L46 21L46 20L45 20L45 21L44 21L44 17L46 17L46 18L45 18L45 19L47 19L47 18L48 18L48 19L49 19L49 17L48 17L48 16L49 16L49 15L48 15L48 16L45 16L45 14L47 14L47 11L48 11L48 14L49 14L49 11L48 11L48 9L47 9L47 11L46 11L46 9L45 9L45 8L44 8L44 9L45 9L45 11L44 11L44 12L45 12L45 11L46 11L46 13L43 13L43 12L42 12L42 13L41 13L41 11L40 11L40 8L39 8L39 5L38 5L38 4L37 4L37 3L38 3L38 2L39 2L39 4L40 4L40 3L41 3L41 0L40 0L40 1L38 1L38 0L37 0L37 1L38 1L38 2L36 2L36 1L34 1L34 0L33 0L33 1L32 1L32 4L31 4L31 5L30 5L30 4L29 4L29 3L28 3L28 2L30 2L30 3L31 3L31 0L29 0L29 1L27 1L27 0L25 0L25 1L23 1L23 0L19 0L19 2L22 2L22 1L23 1L23 2L24 2L24 3L26 3L26 4L23 4L23 3L22 3L22 4L21 4L21 3L20 3L20 4L18 4L18 1L17 1L17 0ZM25 1L25 2L26 2L26 3L27 3L27 1ZM33 2L33 3L34 3L34 4L33 4L33 5L32 5L32 6L31 6L31 7L30 7L30 5L29 5L29 4L28 4L28 5L27 5L27 7L28 7L28 5L29 5L29 8L31 8L31 7L32 7L32 6L33 6L33 9L30 9L30 10L33 10L33 9L34 9L34 10L35 10L35 9L37 9L37 10L36 10L36 11L34 11L34 12L35 12L35 13L33 13L33 12L32 12L32 11L31 11L31 12L30 12L30 11L29 11L29 12L30 12L30 13L28 13L28 10L29 10L29 9L28 9L28 8L27 8L27 9L26 9L26 12L24 12L24 15L23 15L23 13L21 13L21 14L20 14L20 12L23 12L23 10L24 10L24 11L25 11L25 10L24 10L24 9L23 9L23 10L22 10L22 9L21 9L21 8L22 8L22 6L21 6L21 8L20 8L20 5L21 5L21 4L20 4L20 5L18 5L18 6L17 6L17 7L18 7L18 8L20 8L20 9L18 9L18 10L19 10L19 12L18 12L18 11L17 11L17 10L16 10L16 11L15 11L15 12L16 12L16 11L17 11L17 14L18 14L18 13L19 13L19 14L20 14L20 16L19 16L19 15L17 15L17 16L19 16L19 18L18 18L18 17L16 17L16 18L15 18L15 20L16 20L16 21L17 21L17 22L16 22L16 23L15 23L15 24L14 24L14 23L13 23L13 22L14 22L14 21L13 21L13 22L12 22L12 19L13 19L13 20L14 20L14 19L13 19L13 18L14 18L14 16L16 16L16 13L13 13L13 12L14 12L14 11L12 11L12 12L11 12L11 11L10 11L10 10L9 10L9 9L8 9L8 10L9 10L9 12L7 12L7 11L5 11L5 12L3 12L3 14L5 14L5 15L4 15L4 17L5 17L5 19L3 19L3 20L5 20L5 19L6 19L6 20L8 20L8 22L9 22L9 21L10 21L10 22L12 22L12 23L9 23L9 24L10 24L10 26L9 26L9 27L10 27L10 28L9 28L9 29L8 29L8 27L4 27L4 26L3 26L3 23L2 23L2 24L1 24L1 25L2 25L2 26L3 26L3 29L2 29L2 30L1 30L1 31L2 31L2 32L3 32L3 31L5 31L5 32L7 32L7 33L6 33L6 34L8 34L8 32L11 32L11 31L12 31L12 30L13 30L13 31L14 31L14 30L15 30L15 28L16 28L16 27L17 27L17 26L18 26L18 25L19 25L19 26L20 26L20 25L21 25L21 26L22 26L22 25L21 25L21 22L24 22L24 21L25 21L25 22L26 22L26 19L25 19L25 18L26 18L26 16L25 16L25 15L26 15L26 14L29 14L29 17L28 17L28 16L27 16L27 19L28 19L28 18L29 18L29 20L28 20L28 22L31 22L31 21L32 21L32 20L31 20L31 18L30 18L30 17L31 17L31 16L30 16L30 15L32 15L32 14L34 14L34 15L33 15L33 16L32 16L32 17L34 17L34 20L33 20L33 21L34 21L34 22L36 22L36 21L37 21L37 22L38 22L38 24L40 24L40 23L39 23L39 20L40 20L40 22L42 22L42 20L43 20L43 19L42 19L42 18L43 18L43 17L44 17L44 16L43 16L43 17L42 17L42 16L40 16L40 17L39 17L39 16L37 16L37 15L38 15L38 13L39 13L39 15L40 15L40 14L41 14L41 13L40 13L40 12L39 12L39 9L37 9L37 8L38 8L38 5L36 5L36 6L35 6L35 4L36 4L36 3L34 3L34 2ZM15 4L15 5L16 5L16 4ZM23 5L23 8L26 8L26 5ZM33 5L33 6L34 6L34 7L35 7L35 6L34 6L34 5ZM9 6L9 7L10 7L10 9L11 9L11 8L12 8L12 6L11 6L11 7L10 7L10 6ZM13 6L13 7L14 7L14 6ZM18 6L18 7L19 7L19 6ZM24 6L24 7L25 7L25 6ZM36 6L36 7L37 7L37 6ZM40 6L40 7L41 7L41 6ZM34 8L34 9L35 9L35 8ZM41 8L41 9L42 9L42 11L43 11L43 8ZM20 9L20 10L21 10L21 9ZM37 10L37 11L36 11L36 13L37 13L37 11L38 11L38 10ZM5 12L5 14L6 14L6 15L5 15L5 17L8 17L8 18L6 18L6 19L8 19L8 20L10 20L10 21L11 21L11 19L10 19L10 18L12 18L12 13L11 13L11 12L9 12L9 14L8 14L8 16L6 16L6 15L7 15L7 14L6 14L6 13L7 13L7 12ZM31 12L31 13L32 13L32 12ZM25 13L25 14L26 14L26 13ZM42 13L42 14L43 14L43 13ZM9 14L9 15L10 15L10 16L11 16L11 15L10 15L10 14ZM35 14L35 15L34 15L34 17L36 17L36 20L37 20L37 21L38 21L38 20L39 20L39 19L38 19L38 20L37 20L37 17L36 17L36 14ZM21 15L21 16L20 16L20 19L23 19L23 20L24 20L24 19L23 19L23 18L25 18L25 17L24 17L24 16L23 16L23 15ZM8 16L8 17L9 17L9 16ZM21 16L21 17L23 17L23 16ZM38 17L38 18L39 18L39 17ZM40 17L40 18L41 18L41 17ZM32 18L32 19L33 19L33 18ZM16 19L16 20L17 20L17 19ZM41 19L41 20L42 20L42 19ZM1 20L1 21L2 21L2 22L7 22L7 21L2 21L2 20ZM19 20L19 21L20 21L20 22L21 22L21 21L20 21L20 20ZM43 21L43 22L44 22L44 21ZM18 22L18 23L19 23L19 24L20 24L20 23L19 23L19 22ZM5 23L5 26L8 26L8 23ZM12 23L12 24L11 24L11 25L12 25L12 26L11 26L11 28L10 28L10 29L9 29L9 30L8 30L8 31L7 31L7 30L6 30L6 29L7 29L7 28L6 28L6 29L5 29L5 28L4 28L4 29L5 29L5 30L6 30L6 31L7 31L7 32L8 32L8 31L10 31L10 29L13 29L13 28L15 28L15 27L16 27L16 26L15 26L15 27L13 27L13 26L14 26L14 24L13 24L13 23ZM23 23L23 26L26 26L26 23ZM29 23L29 25L27 25L27 28L29 28L29 30L31 30L31 34L32 34L32 35L33 35L33 34L32 34L32 30L33 30L33 33L34 33L34 34L35 34L35 35L36 35L36 34L38 34L38 36L39 36L39 35L40 35L40 34L39 34L39 33L40 33L40 32L41 32L41 31L42 31L42 30L43 30L43 31L44 31L44 30L46 30L46 29L45 29L45 27L42 27L42 28L41 28L41 27L38 27L38 25L37 25L37 26L36 26L36 30L35 30L35 31L36 31L36 32L38 32L38 33L34 33L34 29L35 29L35 28L34 28L34 29L32 29L32 28L31 28L31 29L30 29L30 28L29 28L29 27L31 27L31 26L30 26L30 24L31 24L31 25L33 25L33 26L32 26L32 27L33 27L33 26L34 26L34 27L35 27L35 25L36 25L36 24L34 24L34 23ZM41 23L41 26L44 26L44 23ZM6 24L6 25L7 25L7 24ZM12 24L12 25L13 25L13 24ZM16 24L16 25L18 25L18 24ZM24 24L24 25L25 25L25 24ZM33 24L33 25L34 25L34 24ZM42 24L42 25L43 25L43 24ZM39 25L39 26L40 26L40 25ZM28 26L28 27L29 27L29 26ZM20 27L20 28L18 28L18 30L20 30L20 32L21 32L21 33L23 33L23 31L24 31L24 33L25 33L25 31L24 31L24 30L26 30L26 28L23 28L23 27ZM20 28L20 29L21 29L21 30L22 30L22 31L21 31L21 32L22 32L22 31L23 31L23 28ZM40 28L40 31L39 31L39 30L38 30L38 29L37 29L37 30L36 30L36 31L38 31L38 32L40 32L40 31L41 31L41 30L42 30L42 29L41 29L41 28ZM16 30L16 31L17 31L17 30ZM18 31L18 34L17 34L17 32L15 32L15 33L16 33L16 35L15 35L15 36L16 36L16 35L18 35L18 37L15 37L15 40L13 40L13 41L14 41L14 43L15 43L15 42L16 42L16 43L17 43L17 41L15 41L15 40L16 40L16 38L18 38L18 37L19 37L19 39L17 39L17 40L19 40L19 39L20 39L20 41L19 41L19 42L20 42L20 43L21 43L21 44L22 44L22 42L21 42L21 41L22 41L22 40L23 40L23 39L24 39L24 40L25 40L25 39L24 39L24 37L23 37L23 35L24 35L24 34L23 34L23 35L22 35L22 34L20 34L20 36L21 36L21 37L19 37L19 35L18 35L18 34L19 34L19 31ZM48 32L48 33L47 33L47 34L46 34L46 37L47 37L47 35L48 35L48 33L49 33L49 32ZM13 35L13 37L14 37L14 35ZM21 35L21 36L22 36L22 35ZM40 36L40 37L42 37L42 36ZM48 36L48 38L49 38L49 36ZM21 37L21 38L20 38L20 39L21 39L21 38L22 38L22 39L23 39L23 38L22 38L22 37ZM29 37L29 38L30 38L30 37ZM8 38L8 40L11 40L11 42L10 42L10 43L12 43L12 40L11 40L11 39L9 39L9 38ZM28 39L28 40L29 40L29 39ZM23 41L23 44L26 44L26 41ZM41 41L41 44L44 44L44 41ZM45 41L45 42L46 42L46 41ZM24 42L24 43L25 43L25 42ZM28 42L28 43L27 43L27 45L28 45L28 46L29 46L29 44L30 44L30 43L29 43L29 42ZM42 42L42 43L43 43L43 42ZM28 43L28 44L29 44L29 43ZM9 45L9 47L10 47L10 45ZM12 45L12 47L13 47L13 45ZM25 45L25 46L26 46L26 45ZM40 45L40 46L42 46L42 45ZM48 45L48 46L49 46L49 45ZM14 46L14 48L13 48L13 49L16 49L16 48L15 48L15 46ZM21 46L21 47L22 47L22 46ZM23 46L23 47L24 47L24 46ZM36 46L36 47L37 47L37 46ZM18 47L18 48L17 48L17 49L19 49L19 47ZM33 47L33 48L34 48L34 47ZM40 48L40 49L42 49L42 48ZM0 0L0 7L7 7L7 0ZM1 1L1 6L6 6L6 1ZM2 2L2 5L5 5L5 2ZM42 0L42 7L49 7L49 0ZM43 1L43 6L48 6L48 1ZM44 2L44 5L47 5L47 2ZM0 42L0 49L7 49L7 42ZM1 43L1 48L6 48L6 43ZM2 44L2 47L5 47L5 44Z" fill="#000000"/></g></g></svg>
