<?xml version="1.0" encoding="UTF-8"?>
<svg xmlns="http://www.w3.org/2000/svg" version="1.1" width="200" height="200" viewBox="0 0 200 200"><rect x="0" y="0" width="200" height="200" fill="#ffffff"/><g transform="scale(3.774)"><g transform="translate(2,2)"><path fill-rule="evenodd" d="M8 0L8 2L10 2L10 3L11 3L11 4L9 4L9 3L8 3L8 7L9 7L9 8L11 8L11 9L12 9L12 10L9 10L9 9L7 9L7 8L6 8L6 9L5 9L5 10L4 10L4 11L3 11L3 13L2 13L2 14L1 14L1 16L0 16L0 19L1 19L1 20L0 20L0 21L1 21L1 22L0 22L0 23L1 23L1 24L0 24L0 25L1 25L1 24L2 24L2 25L3 25L3 24L4 24L4 27L7 27L7 28L6 28L6 29L7 29L7 30L6 30L6 31L7 31L7 32L5 32L5 28L4 28L4 29L1 29L1 30L0 30L0 31L1 31L1 32L0 32L0 33L1 33L1 36L0 36L0 37L2 37L2 36L3 36L3 37L5 37L5 39L8 39L8 42L9 42L9 43L10 43L10 41L13 41L13 43L12 43L12 42L11 42L11 43L12 43L12 44L9 44L9 45L8 45L8 46L9 46L9 47L10 47L10 45L13 45L13 48L10 48L10 49L15 49L15 46L14 46L14 44L15 44L15 43L14 43L14 41L13 41L13 40L12 40L12 36L14 36L14 35L15 35L15 36L16 36L16 35L15 35L15 34L17 34L17 33L18 33L18 35L19 35L19 37L18 37L18 38L17 38L17 37L14 37L14 38L13 38L13 39L14 39L14 40L15 40L15 39L14 39L14 38L17 38L17 40L18 40L18 38L19 38L19 37L20 37L20 41L19 41L19 42L18 42L18 41L17 41L17 42L16 42L16 43L17 43L17 42L18 42L18 44L19 44L19 45L21 45L21 47L20 47L20 46L19 46L19 49L20 49L20 48L21 48L21 49L22 49L22 47L23 47L23 46L24 46L24 48L23 48L23 49L24 49L24 48L25 48L25 49L29 49L29 48L31 48L31 47L33 47L33 48L32 48L32 49L33 49L33 48L34 48L34 47L35 47L35 48L36 48L36 49L38 49L38 48L39 48L39 49L40 49L40 48L41 48L41 49L42 49L42 48L41 48L41 47L44 47L44 48L45 48L45 49L46 49L46 47L45 47L45 46L46 46L46 44L47 44L47 47L49 47L49 46L48 46L48 45L49 45L49 44L48 44L48 43L49 43L49 40L48 40L48 39L49 39L49 32L47 32L47 30L48 30L48 31L49 31L49 25L48 25L48 29L47 29L47 28L46 28L46 27L47 27L47 25L46 25L46 23L45 23L45 21L46 21L46 20L47 20L47 21L48 21L48 23L49 23L49 20L47 20L47 19L45 19L45 18L46 18L46 17L47 17L47 18L48 18L48 19L49 19L49 17L47 17L47 16L48 16L48 15L49 15L49 8L47 8L47 9L48 9L48 14L47 14L47 13L46 13L46 11L47 11L47 10L46 10L46 11L45 11L45 10L44 10L44 9L46 9L46 8L43 8L43 11L45 11L45 12L44 12L44 14L45 14L45 13L46 13L46 14L47 14L47 16L46 16L46 17L45 17L45 15L44 15L44 16L42 16L42 15L41 15L41 14L42 14L42 13L43 13L43 12L42 12L42 13L40 13L40 12L39 12L39 11L37 11L37 10L38 10L38 9L37 9L37 8L34 8L34 7L35 7L35 6L36 6L36 7L37 7L37 6L36 6L36 5L34 5L34 7L33 7L33 6L32 6L32 7L33 7L33 8L30 8L30 7L31 7L31 4L32 4L32 3L33 3L33 1L32 1L32 0L29 0L29 2L31 2L31 3L30 3L30 7L29 7L29 6L28 6L28 7L27 7L27 5L28 5L28 4L29 4L29 3L28 3L28 4L27 4L27 2L28 2L28 0L24 0L24 1L25 1L25 2L23 2L23 0L22 0L22 2L23 2L23 4L22 4L22 3L21 3L21 4L19 4L19 3L20 3L20 2L18 2L18 1L19 1L19 0L18 0L18 1L17 1L17 2L16 2L16 0L13 0L13 2L12 2L12 3L11 3L11 1L12 1L12 0ZM34 0L34 1L35 1L35 2L36 2L36 1L38 1L38 2L39 2L39 4L40 4L40 3L41 3L41 0L40 0L40 1L38 1L38 0L36 0L36 1L35 1L35 0ZM31 1L31 2L32 2L32 1ZM14 2L14 3L13 3L13 4L15 4L15 3L16 3L16 4L17 4L17 5L15 5L15 7L14 7L14 6L13 6L13 5L12 5L12 6L11 6L11 5L9 5L9 7L10 7L10 6L11 6L11 7L12 7L12 8L13 8L13 10L14 10L14 11L16 11L16 12L15 12L15 13L14 13L14 14L13 14L13 13L12 13L12 12L13 12L13 11L9 11L9 10L8 10L8 11L6 11L6 12L5 12L5 11L4 11L4 13L3 13L3 15L2 15L2 16L1 16L1 17L2 17L2 16L4 16L4 17L6 17L6 18L7 18L7 17L8 17L8 20L7 20L7 19L5 19L5 18L4 18L4 19L3 19L3 18L2 18L2 20L1 20L1 21L3 21L3 22L1 22L1 23L2 23L2 24L3 24L3 22L7 22L7 21L8 21L8 22L9 22L9 21L10 21L10 22L11 22L11 23L12 23L12 24L10 24L10 23L9 23L9 26L10 26L10 25L11 25L11 26L13 26L13 27L11 27L11 28L13 28L13 32L12 32L12 30L10 30L10 31L9 31L9 29L8 29L8 30L7 30L7 31L8 31L8 32L7 32L7 33L6 33L6 34L7 34L7 35L4 35L4 33L3 33L3 32L4 32L4 31L2 31L2 33L3 33L3 34L2 34L2 35L3 35L3 36L5 36L5 37L6 37L6 38L7 38L7 37L8 37L8 38L9 38L9 39L11 39L11 38L9 38L9 37L8 37L8 36L10 36L10 37L11 37L11 35L10 35L10 34L9 34L9 32L10 32L10 33L12 33L12 34L14 34L14 33L15 33L15 32L14 32L14 30L17 30L17 32L16 32L16 33L17 33L17 32L18 32L18 33L19 33L19 32L20 32L20 31L21 31L21 30L22 30L22 32L21 32L21 33L20 33L20 35L22 35L22 39L23 39L23 40L24 40L24 39L25 39L25 40L27 40L27 39L26 39L26 37L25 37L25 34L24 34L24 33L23 33L23 32L24 32L24 31L26 31L26 32L25 32L25 33L26 33L26 34L27 34L27 35L26 35L26 36L27 36L27 35L28 35L28 39L29 39L29 40L32 40L32 39L33 39L33 38L32 38L32 39L29 39L29 37L30 37L30 36L31 36L31 37L32 37L32 36L34 36L34 37L35 37L35 38L34 38L34 42L35 42L35 44L36 44L36 39L35 39L35 38L36 38L36 35L37 35L37 38L40 38L40 39L38 39L38 40L37 40L37 41L38 41L38 40L39 40L39 41L40 41L40 40L42 40L42 39L41 39L41 38L43 38L43 39L45 39L45 38L46 38L46 40L45 40L45 41L46 41L46 42L45 42L45 43L46 43L46 42L47 42L47 43L48 43L48 42L47 42L47 41L48 41L48 40L47 40L47 38L48 38L48 33L47 33L47 32L46 32L46 33L44 33L44 34L45 34L45 35L46 35L46 37L45 37L45 36L44 36L44 37L43 37L43 36L41 36L41 35L42 35L42 34L43 34L43 33L42 33L42 34L41 34L41 33L40 33L40 31L42 31L42 30L41 30L41 29L42 29L42 27L38 27L38 28L39 28L39 30L38 30L38 31L36 31L36 30L37 30L37 29L36 29L36 27L35 27L35 26L34 26L34 28L33 28L33 29L32 29L32 27L33 27L33 25L36 25L36 24L35 24L35 23L36 23L36 22L37 22L37 24L38 24L38 25L37 25L37 26L39 26L39 24L38 24L38 23L40 23L40 22L41 22L41 20L40 20L40 22L39 22L39 19L38 19L38 18L39 18L39 16L38 16L38 15L37 15L37 14L39 14L39 15L40 15L40 14L39 14L39 13L38 13L38 12L37 12L37 14L34 14L34 15L33 15L33 16L30 16L30 19L31 19L31 18L32 18L32 20L33 20L33 21L32 21L32 22L33 22L33 21L34 21L34 22L35 22L35 23L34 23L34 24L33 24L33 25L32 25L32 23L31 23L31 21L30 21L30 20L29 20L29 18L28 18L28 20L27 20L27 21L26 21L26 20L25 20L25 19L26 19L26 18L27 18L27 17L29 17L29 15L31 15L31 14L32 14L32 13L30 13L30 14L29 14L29 15L28 15L28 14L27 14L27 11L26 11L26 12L25 12L25 13L26 13L26 14L24 14L24 15L23 15L23 13L24 13L24 11L23 11L23 9L21 9L21 8L22 8L22 6L21 6L21 5L22 5L22 4L21 4L21 5L20 5L20 6L19 6L19 7L18 7L18 5L19 5L19 4L18 4L18 2L17 2L17 3L16 3L16 2ZM35 3L35 4L36 4L36 3ZM37 3L37 4L38 4L38 3ZM23 5L23 8L26 8L26 5ZM38 5L38 7L39 7L39 10L40 10L40 8L41 8L41 6L40 6L40 7L39 7L39 5ZM12 6L12 7L13 7L13 8L14 8L14 7L13 7L13 6ZM16 6L16 7L17 7L17 8L16 8L16 9L18 9L18 10L21 10L21 9L19 9L19 8L20 8L20 7L21 7L21 6L20 6L20 7L19 7L19 8L18 8L18 7L17 7L17 6ZM24 6L24 7L25 7L25 6ZM28 7L28 8L27 8L27 10L28 10L28 8L29 8L29 11L32 11L32 12L33 12L33 13L34 13L34 12L35 12L35 13L36 13L36 12L35 12L35 11L36 11L36 10L37 10L37 9L34 9L34 8L33 8L33 9L34 9L34 10L35 10L35 11L32 11L32 9L30 9L30 8L29 8L29 7ZM3 8L3 9L1 9L1 10L3 10L3 9L4 9L4 8ZM6 9L6 10L7 10L7 9ZM14 9L14 10L15 10L15 9ZM24 9L24 10L26 10L26 9ZM41 9L41 11L42 11L42 9ZM0 11L0 13L1 13L1 11ZM18 11L18 12L16 12L16 14L14 14L14 15L13 15L13 14L12 14L12 13L11 13L11 17L10 17L10 16L9 16L9 14L10 14L10 13L9 13L9 14L8 14L8 12L6 12L6 13L7 13L7 14L6 14L6 15L5 15L5 13L4 13L4 15L5 15L5 16L6 16L6 17L7 17L7 16L8 16L8 17L10 17L10 18L9 18L9 20L10 20L10 19L11 19L11 22L12 22L12 21L14 21L14 22L13 22L13 24L12 24L12 25L13 25L13 26L14 26L14 27L13 27L13 28L16 28L16 29L17 29L17 30L18 30L18 31L19 31L19 30L21 30L21 29L22 29L22 30L23 30L23 28L24 28L24 30L26 30L26 31L27 31L27 32L26 32L26 33L28 33L28 35L29 35L29 34L30 34L30 35L31 35L31 36L32 36L32 35L31 35L31 34L33 34L33 35L36 35L36 34L38 34L38 33L39 33L39 32L38 32L38 33L35 33L35 32L36 32L36 31L34 31L34 29L35 29L35 30L36 30L36 29L35 29L35 28L34 28L34 29L33 29L33 32L31 32L31 34L30 34L30 33L29 33L29 32L30 32L30 31L32 31L32 29L30 29L30 28L31 28L31 26L32 26L32 25L31 25L31 24L30 24L30 22L29 22L29 21L28 21L28 23L27 23L27 22L26 22L26 21L25 21L25 22L24 22L24 20L23 20L23 21L20 21L20 20L21 20L21 17L19 17L19 15L20 15L20 16L21 16L21 15L22 15L22 16L23 16L23 17L22 17L22 19L24 19L24 18L23 18L23 17L24 17L24 16L26 16L26 17L25 17L25 18L26 18L26 17L27 17L27 16L28 16L28 15L27 15L27 14L26 14L26 15L24 15L24 16L23 16L23 15L22 15L22 14L21 14L21 12L22 12L22 11L20 11L20 12L19 12L19 11ZM28 12L28 13L29 13L29 12ZM17 13L17 14L18 14L18 13ZM7 14L7 15L6 15L6 16L7 16L7 15L8 15L8 14ZM20 14L20 15L21 15L21 14ZM15 15L15 16L14 16L14 17L15 17L15 21L16 21L16 23L15 23L15 22L14 22L14 24L17 24L17 22L19 22L19 20L17 20L17 21L16 21L16 18L17 18L17 19L20 19L20 18L19 18L19 17L15 17L15 16L16 16L16 15ZM34 15L34 20L35 20L35 22L36 22L36 21L37 21L37 22L38 22L38 21L37 21L37 18L36 18L36 20L35 20L35 15ZM36 15L36 17L38 17L38 16L37 16L37 15ZM40 16L40 18L43 18L43 17L41 17L41 16ZM12 17L12 18L13 18L13 19L12 19L12 20L13 20L13 19L14 19L14 18L13 18L13 17ZM32 17L32 18L33 18L33 17ZM44 17L44 18L45 18L45 17ZM42 19L42 22L43 22L43 21L45 21L45 20L43 20L43 19ZM4 20L4 21L7 21L7 20ZM20 22L20 23L21 23L21 24L18 24L18 25L19 25L19 26L20 26L20 29L21 29L21 28L23 28L23 27L21 27L21 26L22 26L22 25L21 25L21 24L22 24L22 22ZM5 23L5 26L8 26L8 23ZM23 23L23 26L26 26L26 23ZM28 23L28 24L27 24L27 27L28 27L28 26L29 26L29 27L30 27L30 26L31 26L31 25L30 25L30 24L29 24L29 23ZM41 23L41 26L44 26L44 23ZM6 24L6 25L7 25L7 24ZM24 24L24 25L25 25L25 24ZM42 24L42 25L43 25L43 24ZM15 25L15 27L16 27L16 28L19 28L19 27L17 27L17 26L16 26L16 25ZM29 25L29 26L30 26L30 25ZM0 26L0 27L1 27L1 26ZM45 26L45 27L44 27L44 28L45 28L45 27L46 27L46 26ZM8 27L8 28L9 28L9 27ZM25 27L25 29L26 29L26 30L27 30L27 31L28 31L28 30L27 30L27 29L29 29L29 30L30 30L30 29L29 29L29 28L26 28L26 27ZM43 29L43 31L46 31L46 30L47 30L47 29L46 29L46 30L45 30L45 29ZM10 31L10 32L11 32L11 31ZM13 32L13 33L14 33L14 32ZM33 32L33 33L34 33L34 34L35 34L35 33L34 33L34 32ZM7 33L7 34L8 34L8 35L9 35L9 34L8 34L8 33ZM22 34L22 35L24 35L24 34ZM40 34L40 35L41 35L41 34ZM46 34L46 35L47 35L47 34ZM38 35L38 36L39 36L39 35ZM6 36L6 37L7 37L7 36ZM40 36L40 37L41 37L41 36ZM24 37L24 38L25 38L25 37ZM46 37L46 38L47 38L47 37ZM1 38L1 40L0 40L0 41L3 41L3 40L4 40L4 39L2 39L2 38ZM6 40L6 41L7 41L7 40ZM21 40L21 41L20 41L20 43L19 43L19 44L22 44L22 40ZM23 41L23 44L26 44L26 41ZM28 41L28 42L27 42L27 45L25 45L25 46L28 46L28 47L31 47L31 46L28 46L28 44L29 44L29 43L33 43L33 42L32 42L32 41L30 41L30 42L29 42L29 41ZM41 41L41 44L44 44L44 41ZM24 42L24 43L25 43L25 42ZM28 42L28 43L29 43L29 42ZM39 42L39 43L40 43L40 42ZM42 42L42 43L43 43L43 42ZM13 43L13 44L14 44L14 43ZM37 43L37 44L38 44L38 46L37 46L37 45L36 45L36 46L35 46L35 45L34 45L34 44L30 44L30 45L32 45L32 46L33 46L33 45L34 45L34 46L35 46L35 47L37 47L37 48L38 48L38 47L39 47L39 45L40 45L40 46L41 46L41 45L40 45L40 44L38 44L38 43ZM16 45L16 46L17 46L17 45ZM42 45L42 46L44 46L44 45ZM16 47L16 49L17 49L17 47ZM47 48L47 49L49 49L49 48ZM0 0L0 7L7 7L7 0ZM1 1L1 6L6 6L6 1ZM2 2L2 5L5 5L5 2ZM42 0L42 7L49 7L49 0ZM43 1L43 6L48 6L48 1ZM44 2L44 5L47 5L47 2ZM0 42L0 49L7 49L7 42ZM1 43L1 48L6 48L6 43ZM2 44L2 47L5 47L5 44Z" fill="#000000"/></g></g></svg>
