<?xml version="1.0" encoding="UTF-8"?>
<svg xmlns="http://www.w3.org/2000/svg" version="1.1" width="200" height="200" viewBox="0 0 200 200"><rect x="0" y="0" width="200" height="200" fill="#ffffff"/><g transform="scale(3.774)"><g transform="translate(2,2)"><path fill-rule="evenodd" d="M9 0L9 1L8 1L8 2L9 2L9 3L10 3L10 4L9 4L9 5L8 5L8 8L4 8L4 9L2 9L2 10L0 10L0 15L4 15L4 16L2 16L2 17L1 17L1 16L0 16L0 17L1 17L1 18L0 18L0 19L3 19L3 17L4 17L4 18L6 18L6 19L7 19L7 20L6 20L6 21L5 21L5 22L3 22L3 21L4 21L4 20L3 20L3 21L2 21L2 20L1 20L1 21L2 21L2 22L1 22L1 23L2 23L2 24L0 24L0 26L3 26L3 27L4 27L4 31L5 31L5 30L6 30L6 31L7 31L7 32L6 32L6 33L7 33L7 32L8 32L8 34L6 34L6 35L4 35L4 34L5 34L5 33L4 33L4 34L3 34L3 35L2 35L2 36L3 36L3 37L1 37L1 36L0 36L0 38L1 38L1 40L0 40L0 41L3 41L3 40L4 40L4 39L2 39L2 38L5 38L5 39L7 39L7 40L6 40L6 41L7 41L7 40L8 40L8 45L10 45L10 48L11 48L11 49L13 49L13 48L12 48L12 47L13 47L13 45L14 45L14 46L15 46L15 47L17 47L17 48L18 48L18 47L19 47L19 44L18 44L18 43L19 43L19 42L20 42L20 41L17 41L17 42L16 42L16 40L18 40L18 39L19 39L19 40L22 40L22 41L21 41L21 42L22 42L22 43L20 43L20 44L22 44L22 46L23 46L23 47L21 47L21 45L20 45L20 47L21 47L21 49L24 49L24 48L25 48L25 49L26 49L26 48L25 48L25 47L24 47L24 46L23 46L23 45L25 45L25 46L26 46L26 45L27 45L27 46L28 46L28 47L27 47L27 49L28 49L28 47L30 47L30 48L31 48L31 49L33 49L33 48L34 48L34 49L35 49L35 47L36 47L36 49L42 49L42 47L41 47L41 48L40 48L40 47L39 47L39 44L40 44L40 45L42 45L42 46L43 46L43 45L46 45L46 47L45 47L45 49L49 49L49 48L48 48L48 47L47 47L47 44L48 44L48 46L49 46L49 44L48 44L48 41L49 41L49 40L48 40L48 37L49 37L49 35L48 35L48 33L49 33L49 32L48 32L48 33L47 33L47 31L48 31L48 29L49 29L49 27L48 27L48 29L47 29L47 26L48 26L48 25L47 25L47 24L48 24L48 21L49 21L49 20L48 20L48 21L47 21L47 19L48 19L48 17L47 17L47 16L48 16L48 13L49 13L49 11L48 11L48 8L47 8L47 11L46 11L46 9L44 9L44 8L42 8L42 11L41 11L41 10L40 10L40 11L39 11L39 9L41 9L41 6L40 6L40 7L39 7L39 5L38 5L38 7L39 7L39 8L36 8L36 9L35 9L35 11L32 11L32 10L31 10L31 9L30 9L30 8L31 8L31 6L32 6L32 7L33 7L33 8L34 8L34 7L35 7L35 6L36 6L36 7L37 7L37 5L32 5L32 4L33 4L33 3L34 3L34 4L36 4L36 3L37 3L37 2L39 2L39 4L40 4L40 3L41 3L41 0L40 0L40 1L37 1L37 0L36 0L36 3L34 3L34 2L35 2L35 1L33 1L33 3L32 3L32 1L31 1L31 0L26 0L26 1L28 1L28 2L25 2L25 3L24 3L24 1L25 1L25 0L22 0L22 2L21 2L21 1L20 1L20 0L18 0L18 2L19 2L19 3L18 3L18 4L20 4L20 2L21 2L21 4L22 4L22 8L21 8L21 5L20 5L20 8L19 8L19 9L18 9L18 10L16 10L16 9L14 9L14 8L13 8L13 6L12 6L12 5L11 5L11 2L13 2L13 5L15 5L15 4L16 4L16 7L15 7L15 6L14 6L14 7L15 7L15 8L16 8L16 7L17 7L17 8L18 8L18 7L19 7L19 5L18 5L18 7L17 7L17 0L14 0L14 1L16 1L16 2L15 2L15 4L14 4L14 2L13 2L13 1L12 1L12 0L11 0L11 2L9 2L9 1L10 1L10 0ZM29 1L29 7L28 7L28 6L27 6L27 7L28 7L28 8L27 8L27 9L25 9L25 10L24 10L24 9L22 9L22 10L23 10L23 11L28 11L28 12L30 12L30 11L29 11L29 10L27 10L27 9L29 9L29 8L30 8L30 6L31 6L31 5L30 5L30 2L31 2L31 1ZM22 2L22 3L23 3L23 2ZM25 3L25 4L26 4L26 3ZM27 3L27 4L28 4L28 3ZM31 3L31 4L32 4L32 3ZM23 5L23 8L26 8L26 5ZM9 6L9 8L8 8L8 10L7 10L7 9L4 9L4 13L5 13L5 12L7 12L7 13L6 13L6 14L4 14L4 15L6 15L6 16L4 16L4 17L6 17L6 18L8 18L8 20L9 20L9 21L10 21L10 22L9 22L9 25L10 25L10 26L9 26L9 27L5 27L5 28L9 28L9 27L10 27L10 28L13 28L13 29L11 29L11 30L12 30L12 31L13 31L13 32L12 32L12 33L10 33L10 32L11 32L11 31L10 31L10 29L8 29L8 30L7 30L7 29L6 29L6 30L7 30L7 31L8 31L8 32L9 32L9 34L8 34L8 36L10 36L10 35L11 35L11 36L12 36L12 37L9 37L9 38L10 38L10 40L11 40L11 38L12 38L12 37L13 37L13 36L14 36L14 39L15 39L15 40L13 40L13 39L12 39L12 41L9 41L9 42L10 42L10 43L9 43L9 44L10 44L10 45L12 45L12 44L13 44L13 43L14 43L14 42L15 42L15 40L16 40L16 39L17 39L17 37L18 37L18 38L19 38L19 39L20 39L20 38L21 38L21 39L22 39L22 40L24 40L24 38L25 38L25 39L26 39L26 40L28 40L28 41L27 41L27 45L29 45L29 46L30 46L30 47L35 47L35 46L36 46L36 43L37 43L37 45L38 45L38 43L39 43L39 42L40 42L40 39L41 39L41 40L42 40L42 39L43 39L43 40L44 40L44 39L47 39L47 37L48 37L48 36L47 36L47 37L46 37L46 38L42 38L42 39L41 39L41 38L39 38L39 39L37 39L37 37L36 37L36 36L35 36L35 37L34 37L34 35L36 35L36 34L37 34L37 32L38 32L38 33L40 33L40 35L37 35L37 36L38 36L38 37L45 37L45 34L42 34L42 32L40 32L40 31L41 31L41 28L42 28L42 27L41 27L41 28L40 28L40 22L42 22L42 21L43 21L43 19L45 19L45 18L46 18L46 19L47 19L47 17L46 17L46 15L47 15L47 13L48 13L48 12L47 12L47 13L46 13L46 15L45 15L45 13L44 13L44 14L43 14L43 15L42 15L42 12L43 12L43 11L45 11L45 10L43 10L43 11L42 11L42 12L41 12L41 13L39 13L39 14L41 14L41 15L40 15L40 17L39 17L39 16L38 16L38 17L37 17L37 18L36 18L36 14L37 14L37 13L38 13L38 11L37 11L37 10L36 10L36 11L35 11L35 12L34 12L34 13L32 13L32 11L31 11L31 13L32 13L32 14L33 14L33 16L32 16L32 15L31 15L31 16L30 16L30 17L31 17L31 18L32 18L32 20L31 20L31 19L30 19L30 18L29 18L29 17L28 17L28 18L27 18L27 17L26 17L26 14L25 14L25 13L27 13L27 14L29 14L29 15L30 15L30 13L27 13L27 12L25 12L25 13L24 13L24 12L23 12L23 13L22 13L22 12L21 12L21 11L20 11L20 12L19 12L19 13L18 13L18 15L19 15L19 14L20 14L20 15L21 15L21 16L19 16L19 17L20 17L20 18L18 18L18 17L17 17L17 18L13 18L13 17L12 17L12 16L10 16L10 15L11 15L11 14L12 14L12 15L13 15L13 16L14 16L14 17L15 17L15 16L17 16L17 15L16 15L16 14L17 14L17 12L15 12L15 11L14 11L14 9L12 9L12 8L11 8L11 9L12 9L12 10L9 10L9 8L10 8L10 6ZM11 6L11 7L12 7L12 6ZM24 6L24 7L25 7L25 6ZM33 6L33 7L34 7L34 6ZM20 9L20 10L21 10L21 9ZM6 10L6 11L7 11L7 12L9 12L9 10L8 10L8 11L7 11L7 10ZM10 11L10 14L9 14L9 13L8 13L8 15L7 15L7 14L6 14L6 15L7 15L7 16L6 16L6 17L9 17L9 19L10 19L10 18L11 18L11 19L12 19L12 18L11 18L11 17L10 17L10 16L8 16L8 15L10 15L10 14L11 14L11 12L12 12L12 14L13 14L13 12L12 12L12 11ZM36 11L36 13L37 13L37 11ZM2 12L2 14L3 14L3 12ZM14 12L14 16L15 16L15 14L16 14L16 13L15 13L15 12ZM20 12L20 13L21 13L21 15L24 15L24 18L23 18L23 16L22 16L22 17L21 17L21 19L19 19L19 20L20 20L20 21L19 21L19 22L20 22L20 23L22 23L22 24L21 24L21 25L20 25L20 24L19 24L19 23L18 23L18 24L17 24L17 22L18 22L18 20L17 20L17 19L18 19L18 18L17 18L17 19L15 19L15 20L17 20L17 22L16 22L16 24L15 24L15 22L14 22L14 20L12 20L12 22L11 22L11 23L13 23L13 22L14 22L14 25L15 25L15 26L14 26L14 28L15 28L15 30L13 30L13 31L15 31L15 33L16 33L16 34L15 34L15 35L14 35L14 36L16 36L16 37L17 37L17 36L18 36L18 32L19 32L19 31L18 31L18 29L20 29L20 30L21 30L21 31L20 31L20 32L22 32L22 33L19 33L19 34L20 34L20 35L21 35L21 36L20 36L20 37L19 37L19 38L20 38L20 37L22 37L22 38L24 38L24 37L23 37L23 36L25 36L25 34L27 34L27 35L26 35L26 37L25 37L25 38L26 38L26 39L27 39L27 38L26 38L26 37L28 37L28 38L29 38L29 39L30 39L30 38L29 38L29 36L30 36L30 37L31 37L31 38L32 38L32 39L31 39L31 40L29 40L29 42L28 42L28 43L30 43L30 44L29 44L29 45L30 45L30 44L31 44L31 46L33 46L33 44L35 44L35 43L36 43L36 42L34 42L34 43L33 43L33 41L34 41L34 40L35 40L35 39L33 39L33 34L32 34L32 33L30 33L30 35L28 35L28 34L29 34L29 33L28 33L28 32L30 32L30 31L29 31L29 29L30 29L30 28L32 28L32 29L31 29L31 31L33 31L33 32L35 32L35 33L36 33L36 30L37 30L37 31L40 31L40 29L39 29L39 28L37 28L37 27L39 27L39 25L38 25L38 23L39 23L39 21L41 21L41 20L42 20L42 19L41 19L41 18L40 18L40 19L39 19L39 20L37 20L37 19L36 19L36 18L35 18L35 16L34 16L34 17L32 17L32 16L31 16L31 17L32 17L32 18L33 18L33 19L34 19L34 21L35 21L35 19L36 19L36 22L35 22L35 23L33 23L33 24L32 24L32 23L31 23L31 22L33 22L33 21L31 21L31 22L29 22L29 20L30 20L30 19L29 19L29 18L28 18L28 19L25 19L25 18L26 18L26 17L25 17L25 14L22 14L22 13L21 13L21 12ZM41 15L41 17L42 17L42 18L44 18L44 17L45 17L45 15L43 15L43 16L42 16L42 15ZM21 19L21 21L20 21L20 22L22 22L22 20L23 20L23 22L24 22L24 21L25 21L25 19ZM28 19L28 20L26 20L26 21L28 21L28 20L29 20L29 19ZM10 20L10 21L11 21L11 20ZM6 21L6 22L7 22L7 21ZM44 21L44 22L45 22L45 23L47 23L47 21ZM28 22L28 23L29 23L29 27L28 27L28 28L29 28L29 27L35 27L35 29L34 29L34 28L33 28L33 29L32 29L32 30L33 30L33 31L35 31L35 29L36 29L36 27L37 27L37 25L36 25L36 23L37 23L37 22L36 22L36 23L35 23L35 25L34 25L34 24L33 24L33 26L32 26L32 25L31 25L31 26L30 26L30 24L31 24L31 23L29 23L29 22ZM3 23L3 25L4 25L4 23ZM5 23L5 26L8 26L8 23ZM23 23L23 26L26 26L26 23ZM41 23L41 26L44 26L44 23ZM6 24L6 25L7 25L7 24ZM10 24L10 25L11 25L11 26L10 26L10 27L12 27L12 26L13 26L13 24L12 24L12 25L11 25L11 24ZM16 24L16 27L17 27L17 28L21 28L21 29L22 29L22 31L23 31L23 33L22 33L22 35L23 35L23 33L24 33L24 31L23 31L23 30L25 30L25 32L26 32L26 33L27 33L27 28L25 28L25 29L24 29L24 28L23 28L23 29L22 29L22 26L20 26L20 27L19 27L19 24L18 24L18 25L17 25L17 24ZM24 24L24 25L25 25L25 24ZM27 24L27 25L28 25L28 24ZM42 24L42 25L43 25L43 24ZM45 25L45 26L47 26L47 25ZM17 26L17 27L18 27L18 26ZM35 26L35 27L36 27L36 26ZM1 27L1 28L2 28L2 27ZM43 27L43 28L45 28L45 27ZM0 29L0 30L1 30L1 31L2 31L2 30L3 30L3 29ZM16 29L16 30L15 30L15 31L16 31L16 32L17 32L17 31L16 31L16 30L17 30L17 29ZM25 29L25 30L26 30L26 29ZM42 29L42 31L44 31L44 30L47 30L47 29ZM8 30L8 31L9 31L9 30ZM0 32L0 35L1 35L1 32ZM2 32L2 33L3 33L3 32ZM13 32L13 33L12 33L12 34L13 34L13 33L14 33L14 32ZM43 32L43 33L45 33L45 32ZM46 33L46 35L47 35L47 33ZM9 34L9 35L10 35L10 34ZM41 34L41 35L40 35L40 36L41 36L41 35L42 35L42 36L43 36L43 35L42 35L42 34ZM6 35L6 36L4 36L4 37L5 37L5 38L8 38L8 37L6 37L6 36L7 36L7 35ZM12 35L12 36L13 36L13 35ZM30 35L30 36L32 36L32 35ZM35 37L35 38L36 38L36 37ZM15 38L15 39L16 39L16 38ZM36 39L36 41L37 41L37 43L38 43L38 42L39 42L39 40L38 40L38 41L37 41L37 39ZM45 40L45 42L47 42L47 41L48 41L48 40ZM13 41L13 42L12 42L12 43L10 43L10 44L12 44L12 43L13 43L13 42L14 42L14 41ZM23 41L23 44L26 44L26 41ZM31 41L31 43L32 43L32 41ZM41 41L41 44L44 44L44 41ZM17 42L17 43L15 43L15 44L14 44L14 45L16 45L16 44L17 44L17 45L18 45L18 44L17 44L17 43L18 43L18 42ZM24 42L24 43L25 43L25 42ZM42 42L42 43L43 43L43 42ZM37 47L37 48L38 48L38 47ZM43 47L43 49L44 49L44 47ZM14 48L14 49L15 49L15 48ZM0 0L0 7L7 7L7 0ZM1 1L1 6L6 6L6 1ZM2 2L2 5L5 5L5 2ZM42 0L42 7L49 7L49 0ZM43 1L43 6L48 6L48 1ZM44 2L44 5L47 5L47 2ZM0 42L0 49L7 49L7 42ZM1 43L1 48L6 48L6 43ZM2 44L2 47L5 47L5 44Z" fill="#000000"/></g></g></svg>
