<?xml version="1.0" encoding="UTF-8"?>
<svg xmlns="http://www.w3.org/2000/svg" version="1.1" width="200" height="200" viewBox="0 0 200 200"><rect x="0" y="0" width="200" height="200" fill="#ffffff"/><g transform="scale(3.774)"><g transform="translate(2,2)"><path fill-rule="evenodd" d="M10 0L10 2L11 2L11 5L10 5L10 3L9 3L9 5L8 5L8 8L4 8L4 9L0 9L0 13L1 13L1 10L3 10L3 11L2 11L2 14L0 14L0 15L1 15L1 17L2 17L2 18L1 18L1 19L0 19L0 20L1 20L1 19L3 19L3 18L4 18L4 19L5 19L5 21L4 21L4 20L3 20L3 22L2 22L2 21L0 21L0 23L1 23L1 24L0 24L0 26L1 26L1 27L0 27L0 28L1 28L1 29L0 29L0 30L2 30L2 31L0 31L0 33L1 33L1 35L2 35L2 36L0 36L0 37L1 37L1 40L0 40L0 41L3 41L3 40L4 40L4 39L2 39L2 37L3 37L3 38L5 38L5 39L8 39L8 45L9 45L9 46L11 46L11 48L10 48L10 47L9 47L9 49L12 49L12 48L13 48L13 49L18 49L18 47L17 47L17 48L16 48L16 47L15 47L15 46L16 46L16 45L17 45L17 46L18 46L18 45L19 45L19 46L21 46L21 45L22 45L22 46L23 46L23 47L21 47L21 49L23 49L23 48L27 48L27 49L30 49L30 48L31 48L31 49L33 49L33 48L35 48L35 47L36 47L36 49L38 49L38 48L37 48L37 47L39 47L39 49L42 49L42 46L43 46L43 45L45 45L45 47L44 47L44 48L43 48L43 49L49 49L49 48L48 48L48 47L46 47L46 45L47 45L47 44L48 44L48 46L49 46L49 44L48 44L48 41L47 41L47 42L45 42L45 41L46 41L46 40L48 40L48 37L49 37L49 35L48 35L48 33L49 33L49 31L48 31L48 29L49 29L49 27L48 27L48 26L49 26L49 23L48 23L48 21L49 21L49 20L48 20L48 21L47 21L47 19L48 19L48 17L49 17L49 16L48 16L48 13L49 13L49 12L48 12L48 8L47 8L47 11L46 11L46 9L44 9L44 8L42 8L42 11L40 11L40 10L39 10L39 9L41 9L41 6L40 6L40 7L39 7L39 5L38 5L38 7L39 7L39 9L38 9L38 8L36 8L36 9L35 9L35 11L33 11L33 8L35 8L35 6L36 6L36 7L37 7L37 5L33 5L33 6L32 6L32 7L31 7L31 6L30 6L30 4L29 4L29 3L28 3L28 2L26 2L26 4L24 4L24 1L25 1L25 0L23 0L23 2L22 2L22 3L23 3L23 4L21 4L21 2L20 2L20 1L22 1L22 0L20 0L20 1L19 1L19 0L18 0L18 1L17 1L17 3L16 3L16 5L15 5L15 2L16 2L16 1L15 1L15 0L13 0L13 1L11 1L11 0ZM28 0L28 1L29 1L29 2L32 2L32 3L31 3L31 5L32 5L32 3L33 3L33 4L34 4L34 3L35 3L35 4L36 4L36 3L37 3L37 2L39 2L39 4L40 4L40 3L41 3L41 0L40 0L40 1L38 1L38 0L37 0L37 1L36 1L36 3L35 3L35 1L33 1L33 2L32 2L32 1L31 1L31 0L30 0L30 1L29 1L29 0ZM8 1L8 2L9 2L9 1ZM13 1L13 2L15 2L15 1ZM18 1L18 2L19 2L19 3L17 3L17 5L16 5L16 6L15 6L15 8L14 8L14 4L13 4L13 3L12 3L12 4L13 4L13 7L12 7L12 5L11 5L11 7L10 7L10 5L9 5L9 8L8 8L8 9L9 9L9 8L10 8L10 9L12 9L12 10L13 10L13 11L11 11L11 10L10 10L10 11L11 11L11 12L10 12L10 13L11 13L11 15L10 15L10 14L9 14L9 16L8 16L8 14L7 14L7 13L9 13L9 12L7 12L7 11L8 11L8 10L7 10L7 9L4 9L4 10L7 10L7 11L6 11L6 12L5 12L5 11L4 11L4 12L3 12L3 14L5 14L5 13L6 13L6 14L7 14L7 15L2 15L2 17L4 17L4 18L5 18L5 19L6 19L6 20L7 20L7 19L8 19L8 20L9 20L9 19L8 19L8 18L7 18L7 17L5 17L5 16L8 16L8 17L9 17L9 18L10 18L10 21L11 21L11 22L10 22L10 24L12 24L12 26L13 26L13 28L12 28L12 27L11 27L11 26L10 26L10 25L9 25L9 28L10 28L10 27L11 27L11 28L12 28L12 29L10 29L10 30L9 30L9 29L6 29L6 28L7 28L7 27L5 27L5 28L4 28L4 29L5 29L5 30L3 30L3 32L4 32L4 33L5 33L5 34L7 34L7 33L8 33L8 34L9 34L9 35L8 35L8 37L9 37L9 39L10 39L10 37L12 37L12 38L11 38L11 39L14 39L14 40L13 40L13 41L14 41L14 42L12 42L12 43L14 43L14 44L13 44L13 45L12 45L12 47L13 47L13 48L14 48L14 47L13 47L13 46L14 46L14 45L15 45L15 44L17 44L17 45L18 45L18 43L16 43L16 42L15 42L15 41L17 41L17 42L19 42L19 43L20 43L20 45L21 45L21 43L20 43L20 42L19 42L19 41L20 41L20 40L21 40L21 41L22 41L22 39L20 39L20 38L22 38L22 36L23 36L23 37L24 37L24 36L23 36L23 35L22 35L22 32L21 32L21 35L20 35L20 37L19 37L19 39L20 39L20 40L18 40L18 39L16 39L16 38L18 38L18 37L17 37L17 36L19 36L19 35L17 35L17 36L16 36L16 35L15 35L15 33L16 33L16 34L19 34L19 32L20 32L20 30L21 30L21 31L23 31L23 30L22 30L22 28L24 28L24 30L25 30L25 31L24 31L24 32L25 32L25 33L23 33L23 34L25 34L25 35L26 35L26 36L25 36L25 38L27 38L27 39L25 39L25 40L28 40L28 41L29 41L29 40L28 40L28 38L29 38L29 37L30 37L30 39L35 39L35 40L34 40L34 41L33 41L33 42L32 42L32 41L31 41L31 40L30 40L30 43L27 43L27 45L28 45L28 44L30 44L30 47L35 47L35 46L36 46L36 47L37 47L37 46L36 46L36 43L37 43L37 45L38 45L38 43L39 43L39 42L40 42L40 39L41 39L41 40L42 40L42 39L43 39L43 40L45 40L45 39L46 39L46 38L47 38L47 37L48 37L48 36L47 36L47 37L45 37L45 34L47 34L47 33L45 33L45 32L43 32L43 33L42 33L42 32L40 32L40 31L41 31L41 28L42 28L42 27L41 27L41 28L40 28L40 25L39 25L39 24L40 24L40 23L37 23L37 25L39 25L39 30L40 30L40 31L37 31L37 30L36 30L36 33L35 33L35 29L36 29L36 27L37 27L37 28L38 28L38 27L37 27L37 26L36 26L36 23L35 23L35 21L36 21L36 19L35 19L35 21L34 21L34 19L33 19L33 17L34 17L34 16L35 16L35 18L36 18L36 15L37 15L37 13L36 13L36 11L37 11L37 10L36 10L36 11L35 11L35 13L32 13L32 12L33 12L33 11L32 11L32 8L31 8L31 9L29 9L29 8L28 8L28 9L29 9L29 10L27 10L27 11L26 11L26 12L23 12L23 11L24 11L24 10L23 10L23 11L22 11L22 10L21 10L21 9L20 9L20 10L19 10L19 8L22 8L22 5L20 5L20 6L19 6L19 7L18 7L18 6L17 6L17 5L18 5L18 4L19 4L19 3L20 3L20 2L19 2L19 1ZM28 4L28 6L27 6L27 7L28 7L28 6L29 6L29 7L30 7L30 6L29 6L29 4ZM23 5L23 8L26 8L26 5ZM16 6L16 7L17 7L17 6ZM20 6L20 7L21 7L21 6ZM24 6L24 7L25 7L25 6ZM33 6L33 7L34 7L34 6ZM11 7L11 8L12 8L12 7ZM16 8L16 9L15 9L15 10L16 10L16 12L12 12L12 14L15 14L15 15L16 15L16 16L13 16L13 15L11 15L11 17L10 17L10 16L9 16L9 17L10 17L10 18L11 18L11 19L12 19L12 20L14 20L14 21L13 21L13 22L14 22L14 21L15 21L15 22L16 22L16 24L14 24L14 23L12 23L12 22L11 22L11 23L12 23L12 24L13 24L13 26L14 26L14 25L15 25L15 26L16 26L16 27L14 27L14 28L15 28L15 29L14 29L14 31L15 31L15 30L16 30L16 32L17 32L17 31L19 31L19 29L21 29L21 28L20 28L20 27L21 27L21 26L20 26L20 27L19 27L19 26L18 26L18 28L17 28L17 26L16 26L16 24L17 24L17 21L16 21L16 19L17 19L17 20L18 20L18 21L20 21L20 23L19 23L19 22L18 22L18 24L19 24L19 25L21 25L21 23L22 23L22 27L24 27L24 28L26 28L26 29L27 29L27 28L28 28L28 26L27 26L27 25L28 25L28 24L27 24L27 22L25 22L25 21L24 21L24 19L25 19L25 20L26 20L26 19L27 19L27 21L28 21L28 22L29 22L29 23L30 23L30 24L29 24L29 26L30 26L30 28L29 28L29 29L30 29L30 28L31 28L31 26L30 26L30 25L32 25L32 26L33 26L33 24L34 24L34 25L35 25L35 23L33 23L33 24L32 24L32 22L33 22L33 20L31 20L31 19L32 19L32 18L31 18L31 19L28 19L28 17L29 17L29 18L30 18L30 17L32 17L32 16L31 16L31 15L32 15L32 14L31 14L31 13L29 13L29 14L30 14L30 15L29 15L29 16L28 16L28 13L27 13L27 15L26 15L26 16L25 16L25 14L26 14L26 13L23 13L23 14L24 14L24 15L23 15L23 17L22 17L22 16L21 16L21 13L22 13L22 12L21 12L21 13L20 13L20 12L19 12L19 10L17 10L17 8ZM13 9L13 10L14 10L14 9ZM25 9L25 10L26 10L26 9ZM43 9L43 11L42 11L42 12L43 12L43 11L44 11L44 9ZM29 10L29 12L32 12L32 11L30 11L30 10ZM27 11L27 12L28 12L28 11ZM38 11L38 13L39 13L39 14L41 14L41 15L40 15L40 17L39 17L39 16L38 16L38 17L37 17L37 20L39 20L39 19L40 19L40 18L41 18L41 19L42 19L42 20L41 20L41 21L39 21L39 22L42 22L42 21L43 21L43 18L42 18L42 17L41 17L41 15L42 15L42 16L43 16L43 15L45 15L45 17L44 17L44 19L45 19L45 18L46 18L46 19L47 19L47 17L48 17L48 16L47 16L47 14L46 14L46 15L45 15L45 14L43 14L43 15L42 15L42 13L39 13L39 12L40 12L40 11ZM4 12L4 13L5 13L5 12ZM6 12L6 13L7 13L7 12ZM16 12L16 15L17 15L17 16L16 16L16 18L15 18L15 17L11 17L11 18L12 18L12 19L13 19L13 18L14 18L14 19L16 19L16 18L18 18L18 19L19 19L19 20L21 20L21 22L22 22L22 20L23 20L23 19L22 19L22 17L20 17L20 18L18 18L18 17L17 17L17 16L18 16L18 15L19 15L19 16L20 16L20 14L19 14L19 12L18 12L18 13L17 13L17 12ZM47 12L47 13L48 13L48 12ZM33 14L33 15L34 15L34 14ZM27 16L27 17L28 17L28 16ZM29 16L29 17L30 17L30 16ZM25 17L25 19L26 19L26 17ZM6 18L6 19L7 19L7 18ZM20 18L20 19L21 19L21 20L22 20L22 19L21 19L21 18ZM30 20L30 21L29 21L29 22L30 22L30 23L31 23L31 20ZM5 21L5 22L8 22L8 21ZM23 21L23 22L24 22L24 21ZM44 21L44 22L45 22L45 21ZM46 21L46 22L47 22L47 21ZM3 23L3 24L1 24L1 25L4 25L4 23ZM5 23L5 26L8 26L8 23ZM23 23L23 26L26 26L26 23ZM41 23L41 26L44 26L44 23ZM6 24L6 25L7 25L7 24ZM24 24L24 25L25 25L25 24ZM42 24L42 25L43 25L43 24ZM45 25L45 27L43 27L43 28L45 28L45 27L46 27L46 25ZM47 25L47 26L48 26L48 25ZM3 26L3 27L1 27L1 28L2 28L2 29L3 29L3 27L4 27L4 26ZM35 26L35 27L32 27L32 29L31 29L31 30L30 30L30 31L28 31L28 30L27 30L27 31L26 31L26 33L25 33L25 34L27 34L27 33L28 33L28 32L30 32L30 31L32 31L32 29L33 29L33 28L35 28L35 27L36 27L36 26ZM26 27L26 28L27 28L27 27ZM47 27L47 28L48 28L48 27ZM16 28L16 29L17 29L17 28ZM18 28L18 29L19 29L19 28ZM43 29L43 30L42 30L42 31L44 31L44 30L46 30L46 29ZM6 30L6 31L5 31L5 33L7 33L7 32L6 32L6 31L8 31L8 30ZM11 30L11 31L13 31L13 30ZM9 31L9 33L10 33L10 34L11 34L11 35L12 35L12 36L14 36L14 37L13 37L13 38L16 38L16 36L14 36L14 34L13 34L13 33L14 33L14 32L13 32L13 33L12 33L12 32L11 32L11 33L10 33L10 31ZM33 31L33 33L34 33L34 31ZM37 32L37 34L36 34L36 37L37 37L37 38L36 38L36 42L34 42L34 43L30 43L30 44L31 44L31 46L32 46L32 45L33 45L33 44L35 44L35 43L36 43L36 42L37 42L37 43L38 43L38 42L39 42L39 40L38 40L38 41L37 41L37 38L38 38L38 39L39 39L39 38L41 38L41 39L42 39L42 38L41 38L41 37L39 37L39 36L38 36L38 35L40 35L40 36L41 36L41 35L42 35L42 37L43 37L43 38L45 38L45 37L43 37L43 35L42 35L42 34L41 34L41 35L40 35L40 33L38 33L38 32ZM2 33L2 35L3 35L3 37L4 37L4 35L3 35L3 33ZM30 33L30 34L28 34L28 36L27 36L27 38L28 38L28 36L32 36L32 37L33 37L33 38L34 38L34 37L35 37L35 36L34 36L34 37L33 37L33 34L32 34L32 33ZM43 33L43 34L45 34L45 33ZM5 35L5 38L7 38L7 37L6 37L6 36L7 36L7 35ZM21 35L21 36L22 36L22 35ZM9 36L9 37L10 37L10 36ZM37 36L37 37L38 37L38 36ZM23 38L23 40L24 40L24 38ZM6 40L6 41L7 41L7 40ZM9 40L9 41L10 41L10 43L9 43L9 45L10 45L10 43L11 43L11 41L12 41L12 40ZM14 40L14 41L15 41L15 40ZM23 41L23 44L26 44L26 41ZM41 41L41 44L44 44L44 41ZM14 42L14 43L15 43L15 42ZM24 42L24 43L25 43L25 42ZM42 42L42 43L43 43L43 42ZM39 44L39 47L40 47L40 48L41 48L41 45L40 45L40 44ZM24 45L24 47L25 47L25 46L26 46L26 45ZM27 46L27 48L29 48L29 47L28 47L28 46ZM19 47L19 48L20 48L20 47ZM0 0L0 7L7 7L7 0ZM1 1L1 6L6 6L6 1ZM2 2L2 5L5 5L5 2ZM42 0L42 7L49 7L49 0ZM43 1L43 6L48 6L48 1ZM44 2L44 5L47 5L47 2ZM0 42L0 49L7 49L7 42ZM1 43L1 48L6 48L6 43ZM2 44L2 47L5 47L5 44Z" fill="#000000"/></g></g></svg>
