<?xml version="1.0" encoding="UTF-8"?>
<svg xmlns="http://www.w3.org/2000/svg" version="1.1" width="200" height="200" viewBox="0 0 200 200"><rect x="0" y="0" width="200" height="200" fill="#ffffff"/><g transform="scale(3.774)"><g transform="translate(2,2)"><path fill-rule="evenodd" d="M11 0L11 1L12 1L12 0ZM13 0L13 2L14 2L14 0ZM16 0L16 3L15 3L15 4L14 4L14 3L12 3L12 2L10 2L10 3L11 3L11 4L8 4L8 5L10 5L10 8L11 8L11 6L12 6L12 7L13 7L13 8L14 8L14 9L15 9L15 6L16 6L16 9L17 9L17 11L16 11L16 12L15 12L15 13L14 13L14 11L13 11L13 12L12 12L12 13L11 13L11 10L12 10L12 9L9 9L9 6L8 6L8 8L6 8L6 9L8 9L8 10L9 10L9 11L8 11L8 12L5 12L5 13L3 13L3 12L4 12L4 11L5 11L5 10L4 10L4 11L2 11L2 10L3 10L3 9L4 9L4 8L2 8L2 9L1 9L1 10L0 10L0 13L1 13L1 11L2 11L2 13L3 13L3 14L2 14L2 15L3 15L3 14L5 14L5 15L9 15L9 13L10 13L10 14L12 14L12 13L13 13L13 15L14 15L14 16L15 16L15 18L14 18L14 17L12 17L12 16L11 16L11 17L12 17L12 18L10 18L10 16L8 16L8 17L7 17L7 16L5 16L5 18L4 18L4 19L3 19L3 18L2 18L2 17L4 17L4 16L1 16L1 14L0 14L0 16L1 16L1 17L0 17L0 18L2 18L2 22L1 22L1 19L0 19L0 22L1 22L1 24L0 24L0 25L1 25L1 24L3 24L3 25L2 25L2 26L1 26L1 27L0 27L0 29L1 29L1 31L2 31L2 32L3 32L3 33L1 33L1 32L0 32L0 33L1 33L1 34L0 34L0 35L1 35L1 36L0 36L0 37L2 37L2 38L1 38L1 40L0 40L0 41L3 41L3 40L4 40L4 39L2 39L2 38L5 38L5 39L7 39L7 40L6 40L6 41L8 41L8 43L10 43L10 44L9 44L9 45L8 45L8 47L9 47L9 49L10 49L10 48L11 48L11 49L14 49L14 47L15 47L15 49L16 49L16 47L15 47L15 46L14 46L14 45L15 45L15 44L16 44L16 42L18 42L18 44L19 44L19 42L20 42L20 43L21 43L21 44L20 44L20 45L16 45L16 46L17 46L17 47L19 47L19 49L21 49L21 48L20 48L20 47L19 47L19 46L20 46L20 45L21 45L21 47L22 47L22 49L24 49L24 48L25 48L25 49L27 49L27 48L26 48L26 47L24 47L24 46L22 46L22 45L25 45L25 46L27 46L27 47L28 47L28 46L29 46L29 45L32 45L32 43L33 43L33 42L32 42L32 43L31 43L31 44L29 44L29 42L30 42L30 41L27 41L27 40L26 40L26 39L28 39L28 38L31 38L31 39L29 39L29 40L32 40L32 41L34 41L34 42L35 42L35 41L36 41L36 44L37 44L37 43L38 43L38 41L39 41L39 40L37 40L37 41L36 41L36 39L37 39L37 38L36 38L36 39L35 39L35 41L34 41L34 38L33 38L33 37L34 37L34 36L33 36L33 35L35 35L35 34L34 34L34 33L39 33L39 32L40 32L40 33L41 33L41 32L44 32L44 33L46 33L46 32L44 32L44 31L46 31L46 30L48 30L48 31L49 31L49 29L48 29L48 26L49 26L49 25L48 25L48 26L46 26L46 27L45 27L45 21L46 21L46 20L45 20L45 21L44 21L44 19L43 19L43 18L44 18L44 17L45 17L45 15L44 15L44 14L42 14L42 13L43 13L43 12L42 12L42 13L41 13L41 10L40 10L40 8L39 8L39 5L38 5L38 4L37 4L37 3L38 3L38 2L39 2L39 4L40 4L40 3L41 3L41 0L40 0L40 1L38 1L38 0L36 0L36 1L34 1L34 0L28 0L28 2L29 2L29 5L30 5L30 7L31 7L31 6L32 6L32 9L30 9L30 8L29 8L29 6L28 6L28 10L27 10L27 5L28 5L28 3L27 3L27 2L26 2L26 0L25 0L25 2L26 2L26 4L22 4L22 3L19 3L19 4L18 4L18 1L19 1L19 0L18 0L18 1L17 1L17 0ZM20 0L20 2L21 2L21 1L23 1L23 2L24 2L24 1L23 1L23 0ZM31 1L31 3L30 3L30 5L32 5L32 4L33 4L33 5L34 5L34 6L33 6L33 9L34 9L34 10L35 10L35 9L37 9L37 10L36 10L36 11L37 11L37 15L36 15L36 17L34 17L34 15L35 15L35 13L36 13L36 12L35 12L35 13L34 13L34 11L33 11L33 12L32 12L32 13L30 13L30 14L31 14L31 15L28 15L28 14L29 14L29 13L28 13L28 12L29 12L29 11L30 11L30 9L29 9L29 11L26 11L26 10L24 10L24 9L21 9L21 7L22 7L22 4L21 4L21 7L20 7L20 6L19 6L19 7L20 7L20 9L19 9L19 8L18 8L18 10L20 10L20 11L19 11L19 12L20 12L20 14L18 14L18 13L17 13L17 12L18 12L18 11L17 11L17 12L16 12L16 14L17 14L17 18L19 18L19 19L15 19L15 20L14 20L14 18L13 18L13 20L12 20L12 19L10 19L10 20L11 20L11 21L10 21L10 22L12 22L12 21L13 21L13 23L12 23L12 24L11 24L11 23L10 23L10 24L11 24L11 25L10 25L10 26L11 26L11 27L13 27L13 28L12 28L12 30L11 30L11 29L9 29L9 32L10 32L10 33L8 33L8 34L7 34L7 33L6 33L6 32L7 32L7 31L8 31L8 30L7 30L7 29L8 29L8 28L9 28L9 27L6 27L6 28L7 28L7 29L4 29L4 28L5 28L5 27L4 27L4 26L2 26L2 31L4 31L4 32L5 32L5 36L3 36L3 35L4 35L4 34L3 34L3 35L2 35L2 34L1 34L1 35L2 35L2 36L3 36L3 37L6 37L6 38L7 38L7 39L8 39L8 38L7 38L7 37L9 37L9 39L11 39L11 41L12 41L12 42L11 42L11 43L12 43L12 44L11 44L11 45L9 45L9 46L10 46L10 47L11 47L11 48L13 48L13 47L14 47L14 46L13 46L13 47L11 47L11 45L14 45L14 44L13 44L13 43L12 43L12 42L13 42L13 41L12 41L12 38L13 38L13 39L15 39L15 40L14 40L14 41L15 41L15 42L14 42L14 43L15 43L15 42L16 42L16 41L17 41L17 40L18 40L18 37L19 37L19 38L22 38L22 39L21 39L21 40L20 40L20 42L22 42L22 39L23 39L23 38L24 38L24 37L25 37L25 38L28 38L28 33L25 33L25 34L24 34L24 33L23 33L23 32L24 32L24 31L25 31L25 32L29 32L29 33L30 33L30 34L29 34L29 37L30 37L30 36L31 36L31 38L32 38L32 37L33 37L33 36L31 36L31 35L30 35L30 34L32 34L32 35L33 35L33 34L32 34L32 31L29 31L29 30L30 30L30 28L31 28L31 25L33 25L33 26L32 26L32 27L33 27L33 26L34 26L34 28L33 28L33 33L34 33L34 32L35 32L35 31L36 31L36 32L38 32L38 31L36 31L36 30L37 30L37 29L38 29L38 30L39 30L39 29L41 29L41 27L38 27L38 25L39 25L39 26L40 26L40 22L42 22L42 20L43 20L43 19L42 19L42 20L41 20L41 18L43 18L43 17L44 17L44 16L42 16L42 15L41 15L41 16L40 16L40 17L39 17L39 16L37 16L37 15L38 15L38 13L39 13L39 15L40 15L40 14L41 14L41 13L40 13L40 11L39 11L39 8L38 8L38 5L36 5L36 6L35 6L35 4L36 4L36 3L35 3L35 2L33 2L33 1ZM36 1L36 2L38 2L38 1ZM16 3L16 4L17 4L17 3ZM13 4L13 5L12 5L12 6L13 6L13 7L14 7L14 6L15 6L15 5L14 5L14 4ZM19 4L19 5L20 5L20 4ZM16 5L16 6L17 6L17 7L18 7L18 6L17 6L17 5ZM23 5L23 8L26 8L26 5ZM24 6L24 7L25 7L25 6ZM34 6L34 9L35 9L35 6ZM36 6L36 7L37 7L37 6ZM40 6L40 7L41 7L41 6ZM37 8L37 9L38 9L38 8ZM41 8L41 9L42 9L42 11L43 11L43 8ZM44 8L44 9L45 9L45 8ZM20 9L20 10L21 10L21 9ZM47 9L47 10L46 10L46 13L45 13L45 14L46 14L46 13L47 13L47 11L48 11L48 14L49 14L49 11L48 11L48 9ZM6 10L6 11L7 11L7 10ZM37 10L37 11L38 11L38 10ZM44 10L44 12L45 12L45 10ZM22 11L22 12L21 12L21 13L23 13L23 14L21 14L21 15L19 15L19 16L21 16L21 15L23 15L23 14L24 14L24 15L25 15L25 11L24 11L24 13L23 13L23 11ZM26 12L26 16L23 16L23 17L25 17L25 18L27 18L27 17L29 17L29 19L28 19L28 20L29 20L29 21L28 21L28 24L27 24L27 22L25 22L25 21L27 21L27 20L26 20L26 19L25 19L25 20L24 20L24 22L23 22L23 21L20 21L20 22L22 22L22 23L21 23L21 24L20 24L20 23L16 23L16 21L17 21L17 22L19 22L19 21L17 21L17 20L16 20L16 21L15 21L15 23L13 23L13 24L12 24L12 25L13 25L13 27L14 27L14 28L13 28L13 29L14 29L14 30L12 30L12 31L10 31L10 32L11 32L11 33L10 33L10 35L9 35L9 34L8 34L8 36L10 36L10 37L11 37L11 38L12 38L12 36L14 36L14 37L17 37L17 35L18 35L18 33L19 33L19 32L17 32L17 33L16 33L16 32L15 32L15 34L14 34L14 35L11 35L11 33L12 33L12 34L13 34L13 33L14 33L14 31L15 31L15 29L14 29L14 28L16 28L16 29L17 29L17 30L16 30L16 31L17 31L17 30L18 30L18 31L19 31L19 29L17 29L17 28L19 28L19 27L17 27L17 28L16 28L16 27L15 27L15 26L16 26L16 25L15 25L15 26L14 26L14 24L17 24L17 26L19 26L19 25L18 25L18 24L20 24L20 26L21 26L21 29L20 29L20 30L21 30L21 31L22 31L22 32L23 32L23 29L24 29L24 30L26 30L26 29L24 29L24 28L23 28L23 29L22 29L22 27L25 27L25 28L27 28L27 29L29 29L29 27L30 27L30 25L31 25L31 24L30 24L30 23L31 23L31 22L30 22L30 20L32 20L32 21L33 21L33 22L32 22L32 23L34 23L34 24L33 24L33 25L35 25L35 26L37 26L37 24L39 24L39 23L38 23L38 22L37 22L37 21L38 21L38 20L39 20L39 22L40 22L40 20L39 20L39 19L38 19L38 20L37 20L37 18L36 18L36 20L37 20L37 21L36 21L36 22L34 22L34 21L33 21L33 20L34 20L34 17L33 17L33 19L32 19L32 18L31 18L31 19L30 19L30 17L31 17L31 16L30 16L30 17L29 17L29 16L27 16L27 12ZM5 13L5 14L7 14L7 13ZM32 14L32 16L33 16L33 15L34 15L34 14ZM15 15L15 16L16 16L16 15ZM48 15L48 16L46 16L46 18L45 18L45 19L47 19L47 18L48 18L48 19L49 19L49 15ZM6 17L6 18L7 18L7 19L5 19L5 21L4 21L4 20L3 20L3 23L4 23L4 22L5 22L5 21L6 21L6 22L9 22L9 20L8 20L8 21L6 21L6 20L7 20L7 19L9 19L9 17L8 17L8 18L7 18L7 17ZM21 17L21 19L19 19L19 20L23 20L23 19L22 19L22 17ZM38 17L38 18L39 18L39 17ZM40 17L40 18L41 18L41 17ZM29 19L29 20L30 20L30 19ZM43 21L43 22L44 22L44 21ZM47 21L47 23L46 23L46 25L47 25L47 23L48 23L48 21ZM36 22L36 23L37 23L37 22ZM5 23L5 26L8 26L8 23ZM23 23L23 26L26 26L26 23ZM41 23L41 26L44 26L44 23ZM6 24L6 25L7 25L7 24ZM21 24L21 25L22 25L22 24ZM24 24L24 25L25 25L25 24ZM29 24L29 25L30 25L30 24ZM35 24L35 25L36 25L36 24ZM42 24L42 25L43 25L43 24ZM27 26L27 27L28 27L28 26ZM35 27L35 28L34 28L34 31L35 31L35 30L36 30L36 27ZM42 27L42 28L43 28L43 29L42 29L42 30L41 30L41 31L40 31L40 32L41 32L41 31L42 31L42 30L43 30L43 31L44 31L44 28L45 28L45 27ZM46 27L46 28L47 28L47 27ZM38 28L38 29L39 29L39 28ZM21 29L21 30L22 30L22 29ZM45 29L45 30L46 30L46 29ZM6 30L6 31L7 31L7 30ZM20 32L20 33L21 33L21 32ZM30 32L30 33L31 33L31 32ZM42 33L42 34L40 34L40 35L39 35L39 37L38 37L38 39L40 39L40 38L41 38L41 37L40 37L40 36L43 36L43 37L44 37L44 38L43 38L43 39L44 39L44 40L42 40L42 39L41 39L41 40L40 40L40 42L39 42L39 43L40 43L40 45L39 45L39 47L38 47L38 46L37 46L37 45L36 45L36 46L34 46L34 45L35 45L35 44L34 44L34 45L33 45L33 46L32 46L32 48L33 48L33 49L35 49L35 48L36 48L36 49L37 49L37 48L39 48L39 47L41 47L41 46L40 46L40 45L42 45L42 46L44 46L44 47L45 47L45 45L46 45L46 44L45 44L45 43L46 43L46 42L48 42L48 43L47 43L47 44L48 44L48 43L49 43L49 41L48 41L48 40L49 40L49 39L48 39L48 40L47 40L47 41L46 41L46 42L45 42L45 40L46 40L46 37L47 37L47 35L48 35L48 38L49 38L49 35L48 35L48 33L47 33L47 34L46 34L46 37L45 37L45 36L44 36L44 35L45 35L45 34L44 34L44 35L42 35L42 34L43 34L43 33ZM6 34L6 35L7 35L7 34ZM15 34L15 36L16 36L16 35L17 35L17 34ZM22 34L22 38L23 38L23 35L24 35L24 36L25 36L25 37L26 37L26 36L27 36L27 34L26 34L26 35L24 35L24 34ZM36 34L36 37L37 37L37 36L38 36L38 34ZM19 35L19 37L20 37L20 35ZM6 36L6 37L7 37L7 36ZM44 38L44 39L45 39L45 38ZM24 39L24 40L25 40L25 39ZM9 41L9 42L10 42L10 41ZM18 41L18 42L19 42L19 41ZM23 41L23 44L26 44L26 41ZM41 41L41 44L44 44L44 41ZM24 42L24 43L25 43L25 42ZM42 42L42 43L43 43L43 42ZM21 44L21 45L22 45L22 44ZM27 44L27 46L28 46L28 44ZM48 45L48 46L49 46L49 45ZM30 46L30 47L29 47L29 48L31 48L31 46ZM23 47L23 48L24 48L24 47ZM33 47L33 48L34 48L34 47ZM46 47L46 49L49 49L49 48L47 48L47 47ZM40 48L40 49L42 49L42 48ZM44 48L44 49L45 49L45 48ZM0 0L0 7L7 7L7 0ZM1 1L1 6L6 6L6 1ZM2 2L2 5L5 5L5 2ZM42 0L42 7L49 7L49 0ZM43 1L43 6L48 6L48 1ZM44 2L44 5L47 5L47 2ZM0 42L0 49L7 49L7 42ZM1 43L1 48L6 48L6 43ZM2 44L2 47L5 47L5 44Z" fill="#000000"/></g></g></svg>
