<?xml version="1.0" encoding="UTF-8"?>
<svg xmlns="http://www.w3.org/2000/svg" version="1.1" width="200" height="200" viewBox="0 0 200 200"><rect x="0" y="0" width="200" height="200" fill="#ffffff"/><g transform="scale(3.774)"><g transform="translate(2,2)"><path fill-rule="evenodd" d="M10 0L10 2L11 2L11 3L9 3L9 2L8 2L8 4L9 4L9 5L10 5L10 7L9 7L9 6L8 6L8 7L9 7L9 9L8 9L8 8L6 8L6 9L7 9L7 10L5 10L5 8L3 8L3 9L0 9L0 10L1 10L1 11L0 11L0 15L2 15L2 16L3 16L3 13L2 13L2 11L3 11L3 12L4 12L4 15L5 15L5 17L4 17L4 18L3 18L3 19L2 19L2 18L0 18L0 19L2 19L2 20L1 20L1 21L0 21L0 23L1 23L1 21L2 21L2 22L4 22L4 23L2 23L2 24L0 24L0 27L1 27L1 28L0 28L0 30L1 30L1 29L2 29L2 30L3 30L3 29L4 29L4 35L2 35L2 37L1 37L1 36L0 36L0 37L1 37L1 40L0 40L0 41L3 41L3 40L4 40L4 39L2 39L2 38L5 38L5 39L7 39L7 40L6 40L6 41L7 41L7 40L8 40L8 43L10 43L10 44L8 44L8 46L9 46L9 49L12 49L12 48L15 48L15 49L17 49L17 48L18 48L18 49L20 49L20 48L22 48L22 49L23 49L23 48L22 48L22 47L23 47L23 46L25 46L25 45L26 45L26 46L27 46L27 45L28 45L28 47L27 47L27 48L26 48L26 47L24 47L24 48L26 48L26 49L34 49L34 48L35 48L35 49L37 49L37 48L35 48L35 47L38 47L38 46L39 46L39 45L40 45L40 47L41 47L41 48L43 48L43 49L45 49L45 48L43 48L43 46L44 46L44 47L45 47L45 46L44 46L44 45L45 45L45 43L48 43L48 47L46 47L46 48L48 48L48 49L49 49L49 42L47 42L47 41L49 41L49 40L47 40L47 39L44 39L44 38L45 38L45 37L43 37L43 36L44 36L44 35L43 35L43 34L41 34L41 32L40 32L40 31L37 31L37 28L36 28L36 27L37 27L37 26L38 26L38 28L39 28L39 29L40 29L40 30L41 30L41 31L44 31L44 34L45 34L45 35L46 35L46 36L47 36L47 38L48 38L48 39L49 39L49 38L48 38L48 37L49 37L49 34L48 34L48 33L45 33L45 31L46 31L46 30L47 30L47 32L49 32L49 30L47 30L47 28L48 28L48 29L49 29L49 28L48 28L48 27L49 27L49 26L48 26L48 27L47 27L47 25L48 25L48 23L49 23L49 22L48 22L48 21L49 21L49 18L47 18L47 17L49 17L49 14L48 14L48 13L49 13L49 12L48 12L48 11L49 11L49 10L48 10L48 9L47 9L47 8L45 8L45 9L44 9L44 10L45 10L45 9L46 9L46 10L47 10L47 11L46 11L46 12L47 12L47 13L45 13L45 11L41 11L41 9L40 9L40 11L39 11L39 12L41 12L41 13L42 13L42 14L39 14L39 13L37 13L37 12L36 12L36 11L38 11L38 10L39 10L39 5L38 5L38 4L37 4L37 3L38 3L38 2L39 2L39 4L40 4L40 3L41 3L41 0L40 0L40 1L36 1L36 0L32 0L32 1L33 1L33 3L34 3L34 4L33 4L33 5L32 5L32 8L31 8L31 9L32 9L32 10L31 10L31 12L32 12L32 13L29 13L29 14L28 14L28 16L26 16L26 15L27 15L27 11L28 11L28 12L30 12L30 11L29 11L29 6L30 6L30 7L31 7L31 6L30 6L30 5L31 5L31 4L32 4L32 2L31 2L31 1L30 1L30 2L31 2L31 4L29 4L29 5L27 5L27 4L22 4L22 5L20 5L20 4L21 4L21 3L19 3L19 1L18 1L18 0L17 0L17 1L16 1L16 0L12 0L12 1L13 1L13 2L14 2L14 4L15 4L15 5L16 5L16 3L15 3L15 2L17 2L17 4L18 4L18 3L19 3L19 5L20 5L20 7L19 7L19 6L18 6L18 7L17 7L17 6L16 6L16 7L17 7L17 8L18 8L18 7L19 7L19 9L17 9L17 11L16 11L16 13L18 13L18 12L20 12L20 13L21 13L21 14L19 14L19 19L20 19L20 18L21 18L21 19L22 19L22 18L23 18L23 17L24 17L24 18L27 18L27 19L24 19L24 22L23 22L23 21L22 21L22 20L21 20L21 22L22 22L22 23L21 23L21 24L19 24L19 23L17 23L17 24L19 24L19 27L18 27L18 25L17 25L17 28L16 28L16 27L15 27L15 28L16 28L16 29L18 29L18 31L16 31L16 30L15 30L15 31L12 31L12 34L13 34L13 38L11 38L11 37L10 37L10 36L12 36L12 35L10 35L10 36L9 36L9 35L8 35L8 33L7 33L7 32L8 32L8 31L7 31L7 30L8 30L8 28L6 28L6 29L5 29L5 27L10 27L10 28L9 28L9 30L10 30L10 29L11 29L11 28L12 28L12 30L14 30L14 29L13 29L13 28L14 28L14 27L12 27L12 25L11 25L11 24L12 24L12 23L13 23L13 24L14 24L14 25L15 25L15 20L14 20L14 19L15 19L15 17L16 17L16 20L17 20L17 18L18 18L18 16L17 16L17 15L18 15L18 14L15 14L15 12L14 12L14 11L15 11L15 9L16 9L16 8L14 8L14 7L15 7L15 6L14 6L14 5L12 5L12 7L11 7L11 5L10 5L10 4L12 4L12 2L11 2L11 0ZM22 0L22 2L24 2L24 1L23 1L23 0ZM25 0L25 1L26 1L26 2L25 2L25 3L26 3L26 2L27 2L27 3L28 3L28 2L27 2L27 1L26 1L26 0ZM28 0L28 1L29 1L29 0ZM17 1L17 2L18 2L18 1ZM20 1L20 2L21 2L21 1ZM35 1L35 2L36 2L36 3L35 3L35 4L34 4L34 6L33 6L33 8L35 8L35 9L36 9L36 8L35 8L35 7L36 7L36 5L37 5L37 4L36 4L36 3L37 3L37 2L36 2L36 1ZM35 4L35 5L36 5L36 4ZM23 5L23 8L26 8L26 5ZM13 6L13 7L14 7L14 6ZM21 6L21 7L20 7L20 9L19 9L19 10L18 10L18 11L17 11L17 12L18 12L18 11L20 11L20 12L22 12L22 13L23 13L23 14L24 14L24 13L25 13L25 11L23 11L23 10L24 10L24 9L22 9L22 11L21 11L21 7L22 7L22 6ZM24 6L24 7L25 7L25 6ZM27 6L27 7L28 7L28 6ZM34 6L34 7L35 7L35 6ZM37 6L37 7L38 7L38 6ZM40 6L40 7L41 7L41 6ZM10 7L10 8L11 8L11 7ZM13 8L13 9L14 9L14 8ZM3 9L3 10L4 10L4 11L5 11L5 12L8 12L8 11L5 11L5 10L4 10L4 9ZM9 9L9 11L11 11L11 12L9 12L9 13L8 13L8 14L7 14L7 13L6 13L6 14L7 14L7 15L6 15L6 16L7 16L7 17L6 17L6 18L4 18L4 19L3 19L3 21L4 21L4 20L7 20L7 19L9 19L9 18L8 18L8 16L9 16L9 17L10 17L10 15L8 15L8 14L11 14L11 16L12 16L12 19L14 19L14 18L13 18L13 17L14 17L14 15L15 15L15 14L14 14L14 13L13 13L13 16L12 16L12 13L11 13L11 12L12 12L12 11L13 11L13 10L12 10L12 11L11 11L11 10L10 10L10 9ZM33 9L33 11L34 11L34 13L32 13L32 14L31 14L31 15L32 15L32 16L33 16L33 15L34 15L34 16L35 16L35 15L36 15L36 16L37 16L37 17L36 17L36 18L37 18L37 17L39 17L39 20L38 20L38 21L37 21L37 22L36 22L36 20L37 20L37 19L36 19L36 20L35 20L35 19L34 19L34 21L32 21L32 19L31 19L31 17L30 17L30 14L29 14L29 17L28 17L28 19L29 19L29 17L30 17L30 21L29 21L29 20L27 20L27 21L26 21L26 20L25 20L25 22L27 22L27 24L28 24L28 25L29 25L29 26L28 26L28 27L31 27L31 26L32 26L32 28L29 28L29 29L27 29L27 27L26 27L26 28L24 28L24 29L23 29L23 30L22 30L22 29L21 29L21 28L19 28L19 29L20 29L20 30L19 30L19 31L18 31L18 32L16 32L16 31L15 31L15 32L16 32L16 33L15 33L15 34L14 34L14 35L15 35L15 36L16 36L16 37L14 37L14 38L16 38L16 40L15 40L15 39L14 39L14 40L12 40L12 39L11 39L11 42L10 42L10 43L11 43L11 44L10 44L10 46L11 46L11 47L10 47L10 48L11 48L11 47L14 47L14 44L17 44L17 45L16 45L16 46L17 46L17 47L15 47L15 48L17 48L17 47L18 47L18 48L19 48L19 47L20 47L20 44L19 44L19 43L20 43L20 42L19 42L19 41L20 41L20 40L22 40L22 39L20 39L20 38L21 38L21 37L22 37L22 38L23 38L23 39L24 39L24 40L25 40L25 38L26 38L26 39L27 39L27 38L28 38L28 40L29 40L29 41L28 41L28 42L27 42L27 44L28 44L28 45L29 45L29 48L31 48L31 47L32 47L32 46L33 46L33 48L34 48L34 45L33 45L33 44L35 44L35 46L36 46L36 44L37 44L37 46L38 46L38 45L39 45L39 44L40 44L40 43L38 43L38 42L40 42L40 41L36 41L36 42L37 42L37 43L36 43L36 44L35 44L35 43L34 43L34 41L35 41L35 40L34 40L34 39L36 39L36 40L38 40L38 38L35 38L35 36L37 36L37 37L38 37L38 35L39 35L39 34L40 34L40 33L39 33L39 32L38 32L38 33L37 33L37 32L36 32L36 31L35 31L35 30L36 30L36 29L35 29L35 25L33 25L33 26L32 26L32 25L31 25L31 26L30 26L30 25L29 25L29 24L28 24L28 21L29 21L29 23L30 23L30 24L31 24L31 21L32 21L32 22L33 22L33 23L32 23L32 24L34 24L34 21L35 21L35 22L36 22L36 23L35 23L35 24L37 24L37 22L38 22L38 24L40 24L40 21L41 21L41 22L42 22L42 21L43 21L43 22L45 22L45 26L46 26L46 25L47 25L47 24L46 24L46 21L48 21L48 20L47 20L47 18L46 18L46 16L45 16L45 15L44 15L44 16L41 16L41 15L38 15L38 14L37 14L37 15L36 15L36 14L35 14L35 11L34 11L34 9ZM37 9L37 10L38 10L38 9ZM42 9L42 10L43 10L43 9ZM26 10L26 11L27 11L27 10ZM1 13L1 14L2 14L2 13ZM43 13L43 14L42 14L42 15L43 15L43 14L44 14L44 13ZM21 14L21 17L22 17L22 14ZM25 14L25 15L24 15L24 16L25 16L25 17L26 17L26 16L25 16L25 15L26 15L26 14ZM32 14L32 15L33 15L33 14ZM46 14L46 15L47 15L47 16L48 16L48 14ZM37 15L37 16L38 16L38 15ZM44 16L44 17L40 17L40 19L42 19L42 20L43 20L43 21L44 21L44 20L43 20L43 19L44 19L44 17L45 17L45 16ZM34 17L34 18L35 18L35 17ZM6 18L6 19L7 19L7 18ZM45 18L45 19L46 19L46 18ZM8 20L8 21L9 21L9 20ZM10 20L10 21L11 21L11 22L12 22L12 21L13 21L13 22L14 22L14 20ZM19 20L19 21L17 21L17 22L19 22L19 21L20 21L20 20ZM5 21L5 22L7 22L7 21ZM38 21L38 22L39 22L39 21ZM9 22L9 24L11 24L11 23L10 23L10 22ZM5 23L5 26L8 26L8 23ZM23 23L23 26L26 26L26 23ZM41 23L41 26L44 26L44 23ZM6 24L6 25L7 25L7 24ZM24 24L24 25L25 25L25 24ZM42 24L42 25L43 25L43 24ZM1 25L1 27L2 27L2 29L3 29L3 27L2 27L2 26L3 26L3 25ZM10 25L10 27L11 27L11 25ZM21 25L21 27L22 27L22 25ZM36 25L36 26L37 26L37 25ZM39 25L39 27L40 27L40 25ZM42 27L42 28L43 28L43 29L44 29L44 31L45 31L45 30L46 30L46 27L45 27L45 28L44 28L44 27ZM32 28L32 29L29 29L29 30L30 30L30 32L29 32L29 31L28 31L28 30L26 30L26 29L24 29L24 31L22 31L22 32L21 32L21 31L20 31L20 32L18 32L18 33L16 33L16 34L18 34L18 33L19 33L19 35L16 35L16 36L17 36L17 37L16 37L16 38L17 38L17 39L18 39L18 38L20 38L20 37L21 37L21 36L22 36L22 37L23 37L23 38L24 38L24 37L27 37L27 34L29 34L29 35L28 35L28 37L30 37L30 41L29 41L29 42L28 42L28 44L29 44L29 45L30 45L30 46L31 46L31 45L32 45L32 44L30 44L30 43L29 43L29 42L31 42L31 43L33 43L33 42L31 42L31 40L32 40L32 41L33 41L33 40L32 40L32 39L31 39L31 38L33 38L33 36L35 36L35 33L36 33L36 32L35 32L35 31L34 31L34 32L33 32L33 30L32 30L32 29L33 29L33 28ZM6 29L6 30L5 30L5 32L7 32L7 31L6 31L6 30L7 30L7 29ZM34 29L34 30L35 30L35 29ZM41 29L41 30L42 30L42 29ZM0 31L0 32L1 32L1 31ZM25 31L25 32L24 32L24 33L26 33L26 34L27 34L27 33L26 33L26 31ZM27 31L27 32L28 32L28 33L29 33L29 34L32 34L32 35L34 35L34 33L32 33L32 32L30 32L30 33L29 33L29 32L28 32L28 31ZM2 32L2 33L3 33L3 32ZM10 32L10 34L11 34L11 32ZM22 32L22 33L20 33L20 35L19 35L19 36L18 36L18 37L17 37L17 38L18 38L18 37L20 37L20 36L21 36L21 34L22 34L22 36L23 36L23 37L24 37L24 34L22 34L22 33L23 33L23 32ZM42 32L42 33L43 33L43 32ZM6 33L6 34L5 34L5 35L4 35L4 37L5 37L5 38L7 38L7 37L6 37L6 36L8 36L8 35L6 35L6 34L7 34L7 33ZM38 33L38 34L37 34L37 35L38 35L38 34L39 34L39 33ZM5 35L5 36L6 36L6 35ZM25 35L25 36L26 36L26 35ZM29 35L29 36L30 36L30 37L31 37L31 36L30 36L30 35ZM41 35L41 36L43 36L43 35ZM41 37L41 38L39 38L39 39L42 39L42 40L44 40L44 39L42 39L42 37ZM8 38L8 39L10 39L10 38ZM19 39L19 40L20 40L20 39ZM9 40L9 41L10 41L10 40ZM17 40L17 41L18 41L18 40ZM45 40L45 42L46 42L46 40ZM12 41L12 42L11 42L11 43L16 43L16 41L15 41L15 42L13 42L13 41ZM21 41L21 42L22 42L22 41ZM23 41L23 44L26 44L26 41ZM41 41L41 44L44 44L44 41ZM24 42L24 43L25 43L25 42ZM42 42L42 43L43 43L43 42ZM17 43L17 44L18 44L18 43ZM37 43L37 44L38 44L38 43ZM12 44L12 46L13 46L13 44ZM21 44L21 46L22 46L22 44ZM41 45L41 46L42 46L42 45ZM18 46L18 47L19 47L19 46ZM38 48L38 49L39 49L39 48ZM0 0L0 7L7 7L7 0ZM1 1L1 6L6 6L6 1ZM2 2L2 5L5 5L5 2ZM42 0L42 7L49 7L49 0ZM43 1L43 6L48 6L48 1ZM44 2L44 5L47 5L47 2ZM0 42L0 49L7 49L7 42ZM1 43L1 48L6 48L6 43ZM2 44L2 47L5 47L5 44Z" fill="#000000"/></g></g></svg>
