<?xml version="1.0" encoding="UTF-8"?>
<svg xmlns="http://www.w3.org/2000/svg" version="1.1" width="200" height="200" viewBox="0 0 200 200"><rect x="0" y="0" width="200" height="200" fill="#ffffff"/><g transform="scale(3.774)"><g transform="translate(2,2)"><path fill-rule="evenodd" d="M8 0L8 1L9 1L9 2L10 2L10 3L11 3L11 5L12 5L12 7L13 7L13 6L14 6L14 9L13 9L13 8L12 8L12 10L11 10L11 12L12 12L12 13L9 13L9 14L12 14L12 15L11 15L11 16L8 16L8 15L7 15L7 14L4 14L4 15L5 15L5 16L2 16L2 14L3 14L3 13L4 13L4 12L5 12L5 13L8 13L8 12L9 12L9 11L10 11L10 9L9 9L9 8L11 8L11 6L10 6L10 4L9 4L9 3L8 3L8 4L9 4L9 6L8 6L8 7L9 7L9 8L8 8L8 9L7 9L7 8L4 8L4 9L3 9L3 8L2 8L2 9L0 9L0 10L1 10L1 11L0 11L0 13L1 13L1 16L0 16L0 23L1 23L1 24L0 24L0 25L1 25L1 26L0 26L0 27L1 27L1 26L2 26L2 27L3 27L3 26L2 26L2 25L3 25L3 22L4 22L4 27L7 27L7 28L4 28L4 29L3 29L3 30L2 30L2 28L1 28L1 30L0 30L0 33L1 33L1 34L2 34L2 35L1 35L1 36L0 36L0 37L1 37L1 40L0 40L0 41L3 41L3 40L4 40L4 39L2 39L2 35L3 35L3 37L4 37L4 38L5 38L5 39L8 39L8 40L6 40L6 41L8 41L8 42L10 42L10 40L11 40L11 43L12 43L12 45L13 45L13 43L14 43L14 45L15 45L15 44L16 44L16 42L15 42L15 41L16 41L16 40L15 40L15 38L16 38L16 37L13 37L13 39L14 39L14 40L13 40L13 41L12 41L12 39L8 39L8 38L6 38L6 37L7 37L7 36L8 36L8 37L9 37L9 38L10 38L10 36L8 36L8 35L7 35L7 34L11 34L11 35L12 35L12 36L11 36L11 38L12 38L12 36L16 36L16 35L17 35L17 36L18 36L18 35L19 35L19 37L18 37L18 38L21 38L21 39L20 39L20 40L19 40L19 42L18 42L18 43L17 43L17 44L19 44L19 45L18 45L18 46L19 46L19 45L20 45L20 44L19 44L19 43L20 43L20 42L22 42L22 43L21 43L21 44L22 44L22 45L21 45L21 49L22 49L22 45L23 45L23 46L24 46L24 47L23 47L23 49L24 49L24 48L25 48L25 49L26 49L26 48L25 48L25 47L26 47L26 45L27 45L27 43L28 43L28 46L27 46L27 49L29 49L29 41L31 41L31 40L29 40L29 39L28 39L28 38L30 38L30 39L31 39L31 36L32 36L32 37L33 37L33 39L32 39L32 41L33 41L33 43L32 43L32 45L31 45L31 46L30 46L30 48L31 48L31 46L32 46L32 49L33 49L33 48L34 48L34 45L35 45L35 46L36 46L36 45L37 45L37 47L36 47L36 49L40 49L40 48L41 48L41 49L42 49L42 47L43 47L43 46L42 46L42 45L44 45L44 47L45 47L45 49L46 49L46 47L47 47L47 49L49 49L49 48L48 48L48 47L49 47L49 46L48 46L48 45L49 45L49 44L48 44L48 43L49 43L49 40L48 40L48 39L49 39L49 32L48 32L48 35L47 35L47 36L48 36L48 39L47 39L47 40L46 40L46 38L44 38L44 35L45 35L45 37L46 37L46 35L45 35L45 34L44 34L44 32L45 32L45 33L46 33L46 31L47 31L47 30L46 30L46 27L48 27L48 31L49 31L49 25L48 25L48 26L46 26L46 23L47 23L47 24L48 24L48 23L49 23L49 20L48 20L48 23L47 23L47 22L46 22L46 23L45 23L45 21L46 21L46 19L45 19L45 18L46 18L46 17L45 17L45 13L46 13L46 11L45 11L45 10L44 10L44 9L43 9L43 10L44 10L44 13L43 13L43 12L42 12L42 8L41 8L41 10L40 10L40 7L41 7L41 6L40 6L40 7L39 7L39 5L38 5L38 3L37 3L37 5L38 5L38 7L37 7L37 6L36 6L36 7L37 7L37 8L36 8L36 9L37 9L37 10L36 10L36 13L35 13L35 12L33 12L33 11L34 11L34 9L35 9L35 4L36 4L36 1L37 1L37 2L39 2L39 4L40 4L40 3L41 3L41 0L40 0L40 1L38 1L38 0L36 0L36 1L35 1L35 0L34 0L34 2L35 2L35 4L34 4L34 7L33 7L33 6L32 6L32 7L31 7L31 5L33 5L33 4L31 4L31 3L32 3L32 2L33 2L33 1L32 1L32 0L29 0L29 1L28 1L28 0L25 0L25 1L23 1L23 2L24 2L24 3L23 3L23 4L22 4L22 3L21 3L21 2L22 2L22 1L21 1L21 2L20 2L20 1L19 1L19 0L18 0L18 1L16 1L16 0L13 0L13 1L14 1L14 2L10 2L10 1L12 1L12 0ZM18 1L18 2L19 2L19 1ZM25 1L25 2L26 2L26 3L27 3L27 2L26 2L26 1ZM15 2L15 3L12 3L12 4L13 4L13 5L14 5L14 4L15 4L15 5L16 5L16 6L15 6L15 10L13 10L13 11L12 11L12 12L13 12L13 11L14 11L14 12L15 12L15 13L12 13L12 14L13 14L13 15L15 15L15 16L13 16L13 17L12 17L12 16L11 16L11 17L12 17L12 18L13 18L13 19L10 19L10 17L9 17L9 18L8 18L8 19L5 19L5 18L7 18L7 17L6 17L6 16L7 16L7 15L6 15L6 16L5 16L5 18L4 18L4 19L3 19L3 17L2 17L2 19L1 19L1 22L2 22L2 21L3 21L3 20L4 20L4 19L5 19L5 21L4 21L4 22L7 22L7 21L8 21L8 22L10 22L10 23L9 23L9 26L11 26L11 28L10 28L10 29L11 29L11 31L12 31L12 28L13 28L13 27L16 27L16 28L19 28L19 31L17 31L17 30L18 30L18 29L15 29L15 28L14 28L14 29L13 29L13 30L14 30L14 31L13 31L13 32L12 32L12 34L13 34L13 35L14 35L14 34L15 34L15 35L16 35L16 34L15 34L15 32L14 32L14 31L15 31L15 30L16 30L16 33L17 33L17 32L20 32L20 34L19 34L19 33L18 33L18 34L17 34L17 35L18 35L18 34L19 34L19 35L20 35L20 36L21 36L21 35L22 35L22 37L23 37L23 38L22 38L22 39L21 39L21 41L22 41L22 39L23 39L23 40L24 40L24 39L25 39L25 40L27 40L27 41L28 41L28 39L27 39L27 38L24 38L24 37L25 37L25 36L24 36L24 35L26 35L26 34L27 34L27 35L28 35L28 37L30 37L30 36L31 36L31 35L30 35L30 34L28 34L28 33L27 33L27 32L26 32L26 31L25 31L25 30L23 30L23 32L20 32L20 28L23 28L23 29L24 29L24 28L23 28L23 27L20 27L20 28L19 28L19 27L18 27L18 26L17 26L17 25L15 25L15 26L14 26L14 25L12 25L12 24L13 24L13 23L15 23L15 24L18 24L18 25L20 25L20 26L22 26L22 25L21 25L21 24L22 24L22 22L19 22L19 20L20 20L20 18L19 18L19 17L18 17L18 18L17 18L17 16L16 16L16 15L15 15L15 14L17 14L17 15L18 15L18 13L16 13L16 12L17 12L17 11L19 11L19 12L21 12L21 16L20 16L20 15L19 15L19 16L20 16L20 17L21 17L21 21L24 21L24 22L25 22L25 21L26 21L26 22L27 22L27 23L28 23L28 24L27 24L27 28L26 28L26 27L25 27L25 28L26 28L26 30L28 30L28 32L29 32L29 33L31 33L31 32L29 32L29 29L27 29L27 28L29 28L29 27L28 27L28 25L30 25L30 26L31 26L31 28L30 28L30 29L31 29L31 28L32 28L32 26L33 26L33 25L34 25L34 28L33 28L33 29L34 29L34 32L33 32L33 30L32 30L32 33L34 33L34 35L33 35L33 34L32 34L32 35L33 35L33 37L34 37L34 40L35 40L35 41L34 41L34 42L35 42L35 43L34 43L34 44L33 44L33 45L32 45L32 46L33 46L33 45L34 45L34 44L35 44L35 45L36 45L36 42L35 42L35 41L36 41L36 36L35 36L35 33L34 33L34 32L35 32L35 31L36 31L36 33L38 33L38 35L37 35L37 34L36 34L36 35L37 35L37 36L39 36L39 37L38 37L38 40L39 40L39 41L38 41L38 42L39 42L39 43L40 43L40 42L39 42L39 41L40 41L40 40L42 40L42 38L43 38L43 39L44 39L44 38L43 38L43 36L42 36L42 34L43 34L43 35L44 35L44 34L43 34L43 33L42 33L42 32L41 32L41 31L42 31L42 27L39 27L39 25L38 25L38 24L39 24L39 23L40 23L40 22L41 22L41 21L42 21L42 22L43 22L43 21L44 21L44 19L42 19L42 20L41 20L41 19L40 19L40 22L39 22L39 21L38 21L38 20L39 20L39 19L38 19L38 17L39 17L39 16L38 16L38 15L40 15L40 14L41 14L41 13L42 13L42 16L43 16L43 17L42 17L42 18L45 18L45 17L44 17L44 14L43 14L43 13L42 13L42 12L41 12L41 11L39 11L39 9L38 9L38 8L39 8L39 7L38 7L38 8L37 8L37 9L38 9L38 11L37 11L37 13L38 13L38 15L37 15L37 14L36 14L36 15L35 15L35 13L34 13L34 15L33 15L33 14L32 14L32 15L33 15L33 16L30 16L30 17L29 17L29 15L28 15L28 14L29 14L29 12L30 12L30 11L31 11L31 10L32 10L32 9L34 9L34 8L33 8L33 7L32 7L32 9L30 9L30 8L31 8L31 7L30 7L30 6L29 6L29 5L30 5L30 3L31 3L31 2L30 2L30 3L28 3L28 4L29 4L29 5L27 5L27 7L28 7L28 6L29 6L29 9L30 9L30 11L29 11L29 10L28 10L28 8L27 8L27 10L28 10L28 11L29 11L29 12L28 12L28 14L26 14L26 13L27 13L27 12L26 12L26 13L25 13L25 14L23 14L23 15L27 15L27 18L28 18L28 19L29 19L29 18L30 18L30 19L31 19L31 20L32 20L32 22L31 22L31 23L29 23L29 22L28 22L28 21L30 21L30 20L26 20L26 18L25 18L25 16L23 16L23 18L24 18L24 19L23 19L23 20L22 20L22 17L21 17L21 16L22 16L22 13L24 13L24 12L23 12L23 11L22 11L22 10L23 10L23 9L21 9L21 10L20 10L20 11L19 11L19 10L17 10L17 9L16 9L16 6L17 6L17 8L18 8L18 9L20 9L20 8L22 8L22 6L21 6L21 7L20 7L20 6L19 6L19 4L18 4L18 3L17 3L17 4L16 4L16 2ZM20 4L20 5L22 5L22 4ZM17 5L17 6L18 6L18 7L19 7L19 8L20 8L20 7L19 7L19 6L18 6L18 5ZM23 5L23 8L26 8L26 5ZM9 6L9 7L10 7L10 6ZM24 6L24 7L25 7L25 6ZM45 8L45 9L46 9L46 8ZM48 8L48 11L47 11L47 12L48 12L48 15L47 15L47 16L48 16L48 15L49 15L49 8ZM4 9L4 11L5 11L5 12L8 12L8 11L9 11L9 10L7 10L7 9L6 9L6 10L7 10L7 11L5 11L5 9ZM24 9L24 10L25 10L25 11L26 11L26 9ZM2 10L2 11L1 11L1 13L3 13L3 12L2 12L2 11L3 11L3 10ZM16 10L16 11L15 11L15 12L16 12L16 11L17 11L17 10ZM21 11L21 12L22 12L22 11ZM38 12L38 13L39 13L39 14L40 14L40 12ZM19 13L19 14L20 14L20 13ZM30 13L30 15L31 15L31 13ZM34 15L34 16L35 16L35 15ZM36 15L36 17L34 17L34 19L35 19L35 18L36 18L36 21L35 21L35 22L36 22L36 25L35 25L35 26L36 26L36 29L37 29L37 30L36 30L36 31L37 31L37 32L38 32L38 29L39 29L39 28L38 28L38 25L37 25L37 23L38 23L38 21L37 21L37 20L38 20L38 19L37 19L37 18L36 18L36 17L37 17L37 15ZM15 16L15 17L16 17L16 16ZM13 17L13 18L14 18L14 20L12 20L12 21L11 21L11 20L10 20L10 19L9 19L9 20L8 20L8 21L11 21L11 22L12 22L12 21L14 21L14 22L15 22L15 23L18 23L18 24L20 24L20 23L19 23L19 22L16 22L16 21L18 21L18 20L19 20L19 18L18 18L18 20L16 20L16 21L14 21L14 20L15 20L15 18L14 18L14 17ZM31 17L31 19L33 19L33 17ZM40 17L40 18L41 18L41 17ZM48 17L48 19L49 19L49 17ZM16 18L16 19L17 19L17 18ZM6 20L6 21L7 21L7 20ZM33 21L33 22L32 22L32 23L33 23L33 24L32 24L32 25L33 25L33 24L34 24L34 21ZM36 21L36 22L37 22L37 21ZM5 23L5 26L8 26L8 23ZM10 23L10 24L11 24L11 23ZM23 23L23 26L26 26L26 23ZM41 23L41 26L44 26L44 23ZM1 24L1 25L2 25L2 24ZM6 24L6 25L7 25L7 24ZM24 24L24 25L25 25L25 24ZM30 24L30 25L31 25L31 24ZM42 24L42 25L43 25L43 24ZM12 26L12 27L13 27L13 26ZM45 26L45 27L44 27L44 28L43 28L43 32L44 32L44 31L46 31L46 30L44 30L44 28L45 28L45 27L46 27L46 26ZM8 27L8 28L7 28L7 29L5 29L5 31L1 31L1 32L3 32L3 33L2 33L2 34L3 34L3 33L4 33L4 32L5 32L5 33L6 33L6 34L7 34L7 33L6 33L6 32L8 32L8 33L9 33L9 32L10 32L10 33L11 33L11 32L10 32L10 30L7 30L7 29L8 29L8 28L9 28L9 27ZM37 28L37 29L38 29L38 28ZM40 28L40 29L41 29L41 28ZM14 29L14 30L15 30L15 29ZM21 29L21 30L22 30L22 29ZM6 30L6 31L5 31L5 32L6 32L6 31L7 31L7 30ZM24 31L24 32L23 32L23 34L26 34L26 33L24 33L24 32L25 32L25 31ZM13 32L13 33L14 33L14 32ZM40 32L40 33L41 33L41 34L42 34L42 33L41 33L41 32ZM4 34L4 36L5 36L5 37L6 37L6 36L7 36L7 35L6 35L6 36L5 36L5 34ZM29 35L29 36L30 36L30 35ZM34 36L34 37L35 37L35 36ZM40 36L40 38L39 38L39 39L40 39L40 38L41 38L41 36ZM23 38L23 39L24 39L24 38ZM17 39L17 40L18 40L18 39ZM14 40L14 41L15 41L15 40ZM45 40L45 41L46 41L46 42L45 42L45 43L46 43L46 45L45 45L45 47L46 47L46 46L47 46L47 45L48 45L48 44L47 44L47 43L48 43L48 40L47 40L47 41L46 41L46 40ZM23 41L23 44L26 44L26 41ZM41 41L41 44L44 44L44 41ZM24 42L24 43L25 43L25 42ZM42 42L42 43L43 43L43 42ZM46 42L46 43L47 43L47 42ZM8 43L8 45L10 45L10 43ZM30 43L30 44L31 44L31 43ZM39 44L39 45L38 45L38 47L39 47L39 45L40 45L40 47L41 47L41 45L40 45L40 44ZM16 45L16 49L17 49L17 48L18 48L18 47L17 47L17 45ZM8 46L8 47L11 47L11 48L10 48L10 49L15 49L15 48L14 48L14 47L15 47L15 46L14 46L14 47L13 47L13 48L12 48L12 47L11 47L11 46ZM19 47L19 49L20 49L20 47ZM0 0L0 7L7 7L7 0ZM1 1L1 6L6 6L6 1ZM2 2L2 5L5 5L5 2ZM42 0L42 7L49 7L49 0ZM43 1L43 6L48 6L48 1ZM44 2L44 5L47 5L47 2ZM0 42L0 49L7 49L7 42ZM1 43L1 48L6 48L6 43ZM2 44L2 47L5 47L5 44Z" fill="#000000"/></g></g></svg>
