<svg xmlns="http://www.w3.org/2000/svg" xmlns:xlink="http://www.w3.org/1999/xlink" width="500" zoomAndPan="magnify" viewBox="0 0 375 374.999991" height="500" preserveAspectRatio="xMidYMid meet" version="1.0"><defs><clipPath id="id1"><path d="M 111.066406 113.25 L 250 113.25 L 250 263.25 L 111.066406 263.25 Z M 111.066406 113.25 " clip-rule="nonzero"/></clipPath><clipPath id="id2"><path d="M 136.472656 163.308594 L 155.96875 163.308594 L 155.96875 193.414062 L 136.472656 193.414062 Z M 136.472656 163.308594 " clip-rule="nonzero"/></clipPath><clipPath id="id3"><path d="M 137 160 L 155.972656 160 L 155.972656 163 L 137 163 Z M 137 160 " clip-rule="nonzero"/></clipPath><clipPath id="id4"><path d="M 140 113.25 L 152 113.25 L 152 137 L 140 137 Z M 140 113.25 " clip-rule="nonzero"/></clipPath></defs><rect x="-37.5" width="450" fill="#ffffff" y="-37.499999" height="449.999989" fill-opacity="1"/><rect x="-37.5" width="450" fill="#ffffff" y="-37.499999" height="449.999989" fill-opacity="1"/><rect x="-37.5" width="450" fill="#ffffff" y="-37.499999" height="449.999989" fill-opacity="1"/><rect x="-37.5" width="450" fill="#ffffff" y="-37.499999" height="449.999989" fill-opacity="1"/><g clip-path="url(#id1)"><path fill="#000000" d="M 248.0625 228.917969 C 244.542969 219.433594 235.507812 210.648438 223.898438 205.417969 C 221.65625 204.40625 219.390625 203.570312 217.132812 202.886719 C 231.929688 195.515625 241.65625 178.738281 241.65625 160.007812 C 241.65625 134.226562 223.339844 113.25 200.824219 113.25 C 178.308594 113.25 159.992188 134.226562 159.992188 160.007812 C 159.992188 174.753906 165.917969 188.304688 176.007812 197.125 C 171.648438 196.652344 167.113281 196.410156 162.511719 196.410156 C 133.851562 196.410156 111.402344 205.4375 111.402344 216.964844 L 111.402344 227.21875 C 111.402344 238.746094 133.851562 247.773438 162.515625 247.773438 C 168.503906 247.773438 174.351562 247.363281 179.910156 246.566406 C 184.3125 251.339844 190.097656 255.492188 196.726562 258.480469 C 203.902344 261.710938 211.265625 263.273438 218.019531 263.273438 C 228.339844 263.273438 237.226562 259.617188 241.824219 252.691406 C 244.421875 250.734375 246.5 248.296875 247.859375 245.390625 C 250.164062 240.464844 250.234375 234.769531 248.0625 228.917969 Z M 162.375 160.007812 C 162.375 135.539062 179.621094 115.632812 200.824219 115.632812 C 222.023438 115.632812 239.273438 135.539062 239.273438 160.007812 C 239.273438 178.917969 228.914062 195.707031 213.464844 201.914062 C 207.234375 200.5 201.148438 200.308594 195.742188 201.261719 C 191.210938 199.726562 186.066406 198.527344 180.546875 197.707031 C 169.164062 189.535156 162.375 175.464844 162.375 160.007812 Z M 162.515625 198.789062 C 172.886719 198.789062 182.90625 200.054688 191.234375 202.371094 C 189.628906 202.886719 188.117188 203.523438 186.703125 204.269531 C 179.851562 202.144531 171.289062 200.964844 162.515625 200.964844 C 140.441406 200.964844 123.148438 207.992188 123.148438 216.964844 C 123.148438 225.9375 140.441406 232.964844 162.515625 232.964844 C 165.652344 232.964844 168.765625 232.8125 171.792969 232.519531 C 171.988281 233.253906 172.214844 233.984375 172.480469 234.722656 C 169.214844 234.984375 165.878906 235.140625 162.515625 235.140625 C 136.101562 235.140625 113.785156 226.816406 113.785156 216.964844 C 113.785156 207.113281 136.101562 198.789062 162.515625 198.789062 Z M 178.863281 211.117188 C 176.167969 213.140625 174.113281 215.625 172.765625 218.507812 C 171.101562 222.066406 170.621094 226.03125 171.292969 230.160156 C 168.421875 230.425781 165.484375 230.585938 162.511719 230.585938 C 142.464844 230.585938 125.53125 224.347656 125.53125 216.964844 C 125.53125 209.585938 142.464844 203.347656 162.511719 203.347656 C 170.203125 203.347656 177.710938 204.265625 183.96875 205.953125 C 181.941406 207.394531 180.210938 209.117188 178.863281 211.117188 Z M 162.515625 245.394531 C 136.101562 245.394531 113.785156 237.070312 113.785156 227.21875 L 113.785156 223.292969 C 120.277344 231.628906 139.367188 237.519531 162.515625 237.519531 C 166.203125 237.519531 169.867188 237.351562 173.433594 237.042969 C 174.601562 239.585938 176.164062 242.054688 178.054688 244.40625 C 173.058594 245.046875 167.851562 245.394531 162.515625 245.394531 Z M 197.707031 256.308594 C 186.664062 251.332031 178.101562 243.050781 174.800781 234.148438 C 172.855469 228.910156 172.898438 223.851562 174.925781 219.515625 C 175.273438 218.769531 175.691406 218.0625 176.148438 217.378906 C 175.234375 221.355469 175.59375 225.679688 177.230469 230.097656 C 180.753906 239.582031 189.785156 248.367188 201.394531 253.597656 C 208.523438 256.808594 215.84375 258.34375 222.5625 258.34375 C 226.902344 258.34375 230.992188 257.703125 234.613281 256.460938 C 225.855469 262.175781 211.238281 262.402344 197.707031 256.308594 Z M 245.699219 244.378906 C 244.476562 246.996094 242.601562 249.195312 240.238281 250.953125 C 240.226562 250.957031 240.222656 250.964844 240.210938 250.972656 C 231.648438 257.3125 216.644531 257.855469 202.375 251.425781 C 191.332031 246.453125 182.769531 238.167969 179.46875 229.269531 C 177.523438 224.03125 177.566406 218.96875 179.59375 214.636719 C 183.125 207.089844 192.015625 203.019531 202.632812 203.019531 C 209.035156 203.019531 216.0625 204.5 222.917969 207.585938 C 233.957031 212.5625 242.523438 220.84375 245.824219 229.746094 C 247.769531 234.984375 247.726562 240.046875 245.699219 244.378906 Z M 245.699219 244.378906 " fill-opacity="1" fill-rule="nonzero"/></g><path fill="#000000" d="M 231.644531 232.984375 C 229.535156 234.015625 227.296875 234.75 224.992188 235.160156 C 222.0625 235.683594 219.078125 235.683594 216.125 235.160156 C 215.472656 235.039062 214.855469 235.476562 214.742188 236.125 C 214.628906 236.769531 215.058594 237.390625 215.707031 237.503906 C 217.324219 237.789062 218.945312 237.933594 220.566406 237.933594 C 222.1875 237.933594 223.808594 237.789062 225.410156 237.503906 C 227.933594 237.054688 230.382812 236.253906 232.691406 235.125 C 233.28125 234.835938 233.527344 234.121094 233.238281 233.53125 C 232.949219 232.941406 232.234375 232.695312 231.644531 232.984375 Z M 231.644531 232.984375 " fill-opacity="1" fill-rule="nonzero"/><path fill="#000000" d="M 229.167969 238.679688 C 227.734375 239.382812 226.210938 239.882812 224.640625 240.160156 C 222.644531 240.519531 220.613281 240.519531 218.597656 240.160156 C 217.945312 240.042969 217.332031 240.480469 217.214844 241.128906 C 217.101562 241.773438 217.535156 242.394531 218.183594 242.507812 C 219.328125 242.707031 220.476562 242.808594 221.628906 242.808594 C 222.777344 242.808594 223.921875 242.707031 225.058594 242.507812 C 226.847656 242.1875 228.585938 241.617188 230.21875 240.816406 C 230.808594 240.527344 231.054688 239.816406 230.765625 239.226562 C 230.472656 238.632812 229.761719 238.390625 229.167969 238.679688 Z M 229.167969 238.679688 " fill-opacity="1" fill-rule="nonzero"/><path fill="#000000" d="M 200.035156 232.890625 C 197.800781 232.160156 195.691406 231.125 193.765625 229.8125 C 191.316406 228.152344 189.210938 226.082031 187.5 223.667969 C 187.121094 223.132812 186.378906 223.003906 185.839844 223.382812 C 185.300781 223.761719 185.175781 224.503906 185.554688 225.042969 C 187.429688 227.691406 189.742188 229.960938 192.425781 231.785156 C 194.535156 233.21875 196.847656 234.351562 199.292969 235.152344 C 199.414062 235.195312 199.539062 235.214844 199.664062 235.214844 C 200.164062 235.214844 200.632812 234.894531 200.796875 234.394531 C 201 233.769531 200.660156 233.09375 200.035156 232.890625 Z M 200.035156 232.890625 " fill-opacity="1" fill-rule="nonzero"/><path fill="#000000" d="M 194.179688 235.199219 C 192.664062 234.703125 191.226562 234 189.910156 233.105469 C 188.246094 231.976562 186.8125 230.566406 185.648438 228.921875 C 185.269531 228.382812 184.523438 228.257812 183.984375 228.636719 C 183.449219 229.015625 183.320312 229.757812 183.699219 230.296875 C 185.03125 232.175781 186.667969 233.785156 188.570312 235.078125 C 190.070312 236.09375 191.707031 236.898438 193.4375 237.464844 C 193.5625 237.503906 193.6875 237.523438 193.808594 237.523438 C 194.308594 237.523438 194.777344 237.203125 194.941406 236.703125 C 195.144531 236.078125 194.804688 235.40625 194.179688 235.199219 Z M 194.179688 235.199219 " fill-opacity="1" fill-rule="nonzero"/><path fill="#000000" d="M 177.035156 187.601562 C 180.128906 191.097656 183.808594 193.914062 187.886719 195.847656 C 187.941406 195.875 187.988281 195.902344 188.042969 195.921875 C 191.992188 197.765625 196.304688 198.792969 200.824219 198.792969 C 219.511719 198.792969 234.71875 181.394531 234.71875 160.007812 C 234.71875 152.6875 232.933594 145.832031 229.839844 139.984375 C 229.832031 139.964844 229.820312 139.949219 229.8125 139.929688 C 227.773438 136.089844 225.164062 132.6875 222.125 129.871094 C 222.109375 129.851562 222.105469 129.828125 222.089844 129.808594 C 222.039062 129.753906 221.972656 129.726562 221.917969 129.683594 C 219.171875 127.179688 216.085938 125.148438 212.746094 123.710938 C 212.703125 123.6875 212.664062 123.667969 212.617188 123.648438 C 208.941406 122.085938 204.96875 121.226562 200.824219 121.226562 C 182.132812 121.226562 166.929688 138.621094 166.929688 160.007812 C 166.929688 165.882812 168.082031 171.453125 170.132812 176.445312 C 170.148438 176.5 170.167969 176.546875 170.191406 176.597656 C 171.875 180.644531 174.148438 184.3125 176.890625 187.445312 C 176.914062 187.476562 176.921875 187.511719 176.945312 187.539062 C 176.972656 187.566406 177.007812 187.578125 177.035156 187.601562 Z M 179.523438 186.804688 L 228.347656 142.316406 C 230.027344 145.785156 231.222656 149.601562 231.84375 153.644531 L 188.242188 193.375 C 185.019531 191.746094 182.078125 189.519531 179.523438 186.804688 Z M 200.824219 196.410156 C 197.25 196.410156 193.820312 195.710938 190.613281 194.4375 L 232.191406 156.554688 C 232.285156 157.691406 232.335938 158.84375 232.335938 160.007812 C 232.335938 180.078125 218.199219 196.410156 200.824219 196.410156 Z M 227.207031 140.132812 L 177.953125 185.011719 C 175.867188 182.464844 174.09375 179.574219 172.707031 176.414062 L 221.179688 132.25 C 223.5 134.527344 225.53125 137.179688 227.207031 140.132812 Z M 169.628906 165.144531 L 212.40625 126.164062 C 214.914062 127.3125 217.265625 128.820312 219.410156 130.636719 L 171.757812 174.058594 C 170.734375 171.25 170.011719 168.257812 169.628906 165.144531 Z M 200.824219 123.605469 C 204 123.605469 207.066406 124.15625 209.960938 125.171875 L 169.371094 162.15625 C 169.335938 161.445312 169.3125 160.730469 169.3125 160.007812 C 169.3125 139.9375 183.449219 123.605469 200.824219 123.605469 Z M 200.824219 123.605469 " fill-opacity="1" fill-rule="nonzero"/><path fill="#2e2d2d" d="M 154.082031 159.453125 C 154.082031 159.726562 153.796875 159.949219 153.441406 159.949219 L 139 159.949219 C 138.644531 159.949219 138.359375 159.726562 138.359375 159.453125 L 138.359375 138.113281 C 138.359375 137.839844 138.644531 137.617188 139 137.617188 L 153.441406 137.617188 C 153.796875 137.617188 154.082031 137.839844 154.082031 138.113281 L 154.082031 159.453125 " fill-opacity="1" fill-rule="evenodd"/><g clip-path="url(#id2)"><path fill="#2e2d2d" d="M 155.96875 192.746094 C 155.96875 193.117188 155.613281 193.414062 155.175781 193.414062 L 137.265625 193.414062 C 136.828125 193.414062 136.472656 193.117188 136.472656 192.746094 L 136.472656 164.039062 C 136.472656 163.671875 136.828125 163.371094 137.265625 163.371094 L 155.175781 163.371094 C 155.613281 163.371094 155.96875 163.671875 155.96875 164.039062 L 155.96875 192.746094 " fill-opacity="1" fill-rule="evenodd"/></g><g clip-path="url(#id3)"><path fill="#2e2d2d" d="M 155.382812 161.238281 C 155.382812 160.878906 155.046875 160.589844 154.632812 160.589844 L 137.808594 160.589844 C 137.394531 160.589844 137.0625 160.878906 137.0625 161.238281 L 137.0625 162.621094 L 155.382812 162.621094 L 155.382812 161.238281 " fill-opacity="1" fill-rule="nonzero"/></g><g clip-path="url(#id4)"><path fill="#2e2d2d" d="M 140.488281 136.628906 C 140.488281 136.628906 140.476562 124.984375 140.488281 123.195312 C 140.523438 118.585938 147.941406 113.335938 148.679688 113.335938 C 149.8125 113.570312 151.957031 118.4375 151.957031 124.4375 L 151.957031 136.628906 L 140.488281 136.628906 " fill-opacity="1" fill-rule="nonzero"/></g></svg>