<svg xmlns="http://www.w3.org/2000/svg" xmlns:xlink="http://www.w3.org/1999/xlink" width="500" zoomAndPan="magnify" viewBox="0 0 375 374.999991" height="500" preserveAspectRatio="xMidYMid meet" version="1.0"><defs><clipPath id="id1"><path d="M 120.253906 172.015625 L 157.753906 172.015625 L 157.753906 182 L 120.253906 182 Z M 120.253906 172.015625 " clip-rule="nonzero"/></clipPath><clipPath id="id2"><path d="M 120.253906 183 L 157.753906 183 L 157.753906 195 L 120.253906 195 Z M 120.253906 183 " clip-rule="nonzero"/></clipPath><clipPath id="id3"><path d="M 120.253906 195 L 157.753906 195 L 157.753906 207 L 120.253906 207 Z M 120.253906 195 " clip-rule="nonzero"/></clipPath><clipPath id="id4"><path d="M 120.253906 208 L 157.753906 208 L 157.753906 217.765625 L 120.253906 217.765625 Z M 120.253906 208 " clip-rule="nonzero"/></clipPath><clipPath id="id5"><path d="M 217.015625 172.894531 L 254.515625 172.894531 L 254.515625 183 L 217.015625 183 Z M 217.015625 172.894531 " clip-rule="nonzero"/></clipPath><clipPath id="id6"><path d="M 217.015625 184 L 254.515625 184 L 254.515625 196 L 217.015625 196 Z M 217.015625 184 " clip-rule="nonzero"/></clipPath><clipPath id="id7"><path d="M 217.015625 196 L 254.515625 196 L 254.515625 208 L 217.015625 208 Z M 217.015625 196 " clip-rule="nonzero"/></clipPath><clipPath id="id8"><path d="M 217.015625 209 L 254.515625 209 L 254.515625 218.644531 L 217.015625 218.644531 Z M 217.015625 209 " clip-rule="nonzero"/></clipPath><clipPath id="id9"><path d="M 148 133.101562 L 225.917969 133.101562 L 225.917969 240 L 148 240 Z M 148 133.101562 " clip-rule="nonzero"/></clipPath></defs><rect x="-37.5" width="450" fill="#ffffff" y="-37.499999" height="449.999989" fill-opacity="1"/><rect x="-37.5" width="450" fill="#ffffff" y="-37.499999" height="449.999989" fill-opacity="1"/><rect x="-37.5" width="450" fill="#ffffff" y="-37.499999" height="449.999989" fill-opacity="1"/><g clip-path="url(#id1)"><path fill="#000000" d="M 161.464844 181.640625 C 161.328125 181.640625 161.191406 181.628906 161.054688 181.601562 C 156.25 180.660156 152.921875 177.886719 151.179688 176.058594 C 148.328125 178.089844 143.371094 181.300781 140.492188 181.324219 C 140.480469 181.324219 140.472656 181.324219 140.460938 181.324219 C 137.574219 181.324219 132.515625 177.808594 129.769531 175.726562 C 127.128906 177.800781 122.308594 181.253906 119.445312 181.253906 C 119.433594 181.253906 119.425781 181.253906 119.417969 181.253906 C 116.585938 181.230469 111.746094 177.765625 109.082031 175.671875 C 106.308594 177.886719 101.183594 181.628906 98.191406 181.640625 C 98.1875 181.640625 98.183594 181.640625 98.179688 181.640625 C 95.242188 181.640625 89.792969 177.828125 86.933594 175.664062 C 84 177.722656 78.367188 181.316406 75.140625 181.164062 C 72.515625 181.03125 68.160156 177.835938 65.628906 175.789062 C 63.179688 178.074219 58.855469 181.636719 55.785156 181.480469 C 54.613281 181.421875 53.707031 180.414062 53.765625 179.234375 C 53.824219 178.054688 54.824219 177.144531 56 177.203125 C 57.164062 177.261719 60.96875 174.503906 64.003906 171.414062 C 64.789062 170.617188 66.054688 170.5625 66.90625 171.292969 C 70.296875 174.21875 74.246094 176.832031 75.355469 176.886719 C 76.910156 176.972656 81.96875 174.050781 85.71875 171.273438 C 86.488281 170.703125 87.546875 170.722656 88.296875 171.316406 C 92.347656 174.527344 96.960938 177.351562 98.175781 177.359375 C 99.417969 177.355469 103.867188 174.515625 107.703125 171.28125 C 108.488281 170.617188 109.636719 170.609375 110.429688 171.269531 C 114.070312 174.300781 118.289062 176.964844 119.449219 176.976562 C 119.453125 176.976562 119.453125 176.976562 119.457031 176.976562 C 120.621094 176.976562 124.789062 174.351562 128.382812 171.351562 C 129.160156 170.703125 130.28125 170.691406 131.070312 171.324219 C 134.878906 174.375 139.257812 177.042969 140.449219 177.042969 C 140.453125 177.042969 140.453125 177.042969 140.457031 177.042969 C 141.910156 177.03125 146.6875 174.140625 150.238281 171.449219 C 150.699219 171.097656 151.289062 170.949219 151.859375 171.042969 C 152.433594 171.136719 152.945312 171.460938 153.273438 171.945312 C 153.300781 171.980469 156.378906 176.324219 161.867188 177.402344 C 163.023438 177.628906 163.777344 178.75 163.550781 179.910156 C 163.351562 180.933594 162.460938 181.640625 161.464844 181.640625 Z M 161.464844 181.640625 " fill-opacity="1" fill-rule="nonzero"/></g><g clip-path="url(#id2)"><path fill="#000000" d="M 161.464844 194.195312 C 161.328125 194.195312 161.191406 194.183594 161.054688 194.15625 C 156.25 193.214844 152.921875 190.441406 151.179688 188.613281 C 148.328125 190.644531 143.371094 193.855469 140.492188 193.878906 C 140.480469 193.878906 140.472656 193.878906 140.460938 193.878906 C 137.574219 193.878906 132.515625 190.363281 129.769531 188.28125 C 127.128906 190.355469 122.308594 193.808594 119.445312 193.808594 C 119.433594 193.808594 119.425781 193.808594 119.417969 193.808594 C 116.585938 193.785156 111.746094 190.320312 109.082031 188.226562 C 106.308594 190.441406 101.183594 194.183594 98.191406 194.195312 C 95.273438 194.222656 89.796875 190.386719 86.933594 188.21875 C 84 190.277344 78.367188 193.878906 75.140625 193.71875 C 72.515625 193.585938 68.160156 190.390625 65.628906 188.34375 C 63.179688 190.628906 58.855469 194.195312 55.785156 194.035156 C 54.613281 193.976562 53.707031 192.96875 53.765625 191.789062 C 53.824219 190.609375 54.824219 189.695312 56 189.757812 C 57.164062 189.828125 60.96875 187.058594 64.003906 183.96875 C 64.789062 183.171875 66.054688 183.117188 66.90625 183.847656 C 70.296875 186.773438 74.246094 189.386719 75.355469 189.445312 C 76.910156 189.527344 81.96875 186.605469 85.71875 183.828125 C 86.488281 183.257812 87.546875 183.277344 88.296875 183.871094 C 92.347656 187.082031 96.960938 189.90625 98.175781 189.914062 C 99.417969 189.910156 103.867188 187.070312 107.703125 183.835938 C 108.488281 183.171875 109.636719 183.164062 110.429688 183.824219 C 114.070312 186.855469 118.289062 189.519531 119.449219 189.53125 C 119.453125 189.53125 119.453125 189.53125 119.457031 189.53125 C 120.621094 189.53125 124.789062 186.90625 128.382812 183.90625 C 129.160156 183.257812 130.28125 183.246094 131.070312 183.878906 C 134.878906 186.929688 139.257812 189.597656 140.449219 189.597656 C 140.453125 189.597656 140.453125 189.597656 140.457031 189.597656 C 141.910156 189.585938 146.6875 186.695312 150.238281 184.003906 C 150.699219 183.652344 151.289062 183.507812 151.859375 183.597656 C 152.433594 183.691406 152.945312 184.019531 153.273438 184.5 C 153.300781 184.535156 156.378906 188.878906 161.867188 189.957031 C 163.023438 190.183594 163.777344 191.304688 163.550781 192.464844 C 163.351562 193.488281 162.460938 194.195312 161.464844 194.195312 Z M 161.464844 194.195312 " fill-opacity="1" fill-rule="nonzero"/></g><g clip-path="url(#id3)"><path fill="#000000" d="M 161.464844 206.75 C 161.328125 206.75 161.191406 206.738281 161.054688 206.710938 C 156.25 205.769531 152.921875 202.996094 151.179688 201.167969 C 148.328125 203.199219 143.371094 206.410156 140.492188 206.433594 C 140.480469 206.433594 140.472656 206.433594 140.460938 206.433594 C 137.574219 206.433594 132.515625 202.921875 129.769531 200.835938 C 127.128906 202.910156 122.308594 206.363281 119.445312 206.363281 C 119.433594 206.363281 119.425781 206.363281 119.417969 206.363281 C 116.585938 206.339844 111.746094 202.875 109.082031 200.78125 C 106.308594 202.996094 101.183594 206.738281 98.191406 206.75 C 98.1875 206.75 98.183594 206.75 98.179688 206.75 C 95.242188 206.75 89.792969 202.9375 86.933594 200.773438 C 84 202.832031 78.367188 206.433594 75.140625 206.273438 C 72.515625 206.140625 68.160156 202.945312 65.628906 200.898438 C 63.179688 203.183594 58.855469 206.75 55.785156 206.589844 C 54.613281 206.53125 53.707031 205.527344 53.765625 204.34375 C 53.824219 203.164062 54.824219 202.253906 56 202.316406 C 57.164062 202.378906 60.96875 199.613281 64.003906 196.523438 C 64.789062 195.726562 66.054688 195.671875 66.90625 196.402344 C 70.296875 199.328125 74.246094 201.941406 75.355469 202 C 76.910156 202.082031 81.96875 199.160156 85.71875 196.382812 C 86.488281 195.8125 87.546875 195.832031 88.296875 196.425781 C 92.347656 199.636719 96.960938 202.460938 98.175781 202.472656 C 99.417969 202.464844 103.867188 199.625 107.703125 196.390625 C 108.488281 195.726562 109.636719 195.722656 110.429688 196.378906 C 114.070312 199.410156 118.289062 202.074219 119.449219 202.085938 C 119.453125 202.085938 119.453125 202.085938 119.457031 202.085938 C 120.621094 202.085938 124.789062 199.460938 128.382812 196.460938 C 129.160156 195.8125 130.28125 195.800781 131.070312 196.433594 C 134.878906 199.484375 139.257812 202.152344 140.449219 202.152344 C 140.453125 202.152344 140.453125 202.152344 140.457031 202.152344 C 141.910156 202.140625 146.6875 199.25 150.238281 196.558594 C 150.699219 196.207031 151.289062 196.058594 151.859375 196.152344 C 152.433594 196.246094 152.945312 196.574219 153.273438 197.054688 C 153.300781 197.089844 156.378906 201.433594 161.867188 202.511719 C 163.023438 202.738281 163.777344 203.859375 163.550781 205.019531 C 163.351562 206.042969 162.460938 206.75 161.464844 206.75 Z M 161.464844 206.75 " fill-opacity="1" fill-rule="nonzero"/></g><g clip-path="url(#id4)"><path fill="#000000" d="M 161.464844 219.304688 C 161.328125 219.304688 161.191406 219.292969 161.054688 219.265625 C 156.25 218.324219 152.921875 215.550781 151.179688 213.722656 C 148.328125 215.753906 143.371094 218.964844 140.492188 218.988281 C 140.480469 218.988281 140.472656 218.988281 140.460938 218.988281 C 137.574219 218.988281 132.515625 215.476562 129.769531 213.390625 C 127.128906 215.464844 122.308594 218.917969 119.445312 218.917969 C 119.433594 218.917969 119.425781 218.917969 119.417969 218.917969 C 116.585938 218.894531 111.746094 215.429688 109.082031 213.335938 C 106.308594 215.550781 101.183594 219.292969 98.191406 219.304688 C 98.1875 219.304688 98.183594 219.304688 98.179688 219.304688 C 95.242188 219.304688 89.792969 215.492188 86.933594 213.328125 C 84 215.386719 78.367188 218.984375 75.140625 218.828125 C 72.515625 218.695312 68.160156 215.5 65.628906 213.453125 C 63.179688 215.738281 58.855469 219.308594 55.785156 219.144531 C 54.613281 219.085938 53.707031 218.082031 53.765625 216.898438 C 53.824219 215.71875 54.824219 214.804688 56 214.871094 C 57.164062 214.925781 60.96875 212.167969 64.003906 209.078125 C 64.789062 208.28125 66.054688 208.226562 66.90625 208.957031 C 70.296875 211.882812 74.246094 214.496094 75.355469 214.554688 C 76.910156 214.636719 81.96875 211.714844 85.71875 208.941406 C 86.488281 208.367188 87.546875 208.386719 88.296875 208.984375 C 92.347656 212.191406 96.960938 215.015625 98.175781 215.027344 C 99.417969 215.019531 103.867188 212.179688 107.703125 208.945312 C 108.488281 208.28125 109.636719 208.277344 110.429688 208.933594 C 114.070312 211.964844 118.289062 214.628906 119.449219 214.640625 C 119.453125 214.640625 119.453125 214.640625 119.457031 214.640625 C 120.621094 214.640625 124.789062 212.015625 128.382812 209.015625 C 129.160156 208.367188 130.28125 208.359375 131.070312 208.988281 C 134.878906 212.039062 139.257812 214.707031 140.449219 214.707031 C 140.453125 214.707031 140.453125 214.707031 140.457031 214.707031 C 141.910156 214.699219 146.6875 211.804688 150.238281 209.113281 C 150.699219 208.761719 151.289062 208.617188 151.859375 208.710938 C 152.433594 208.804688 152.945312 209.128906 153.273438 209.609375 C 153.300781 209.644531 156.378906 213.988281 161.867188 215.066406 C 163.023438 215.292969 163.777344 216.417969 163.550781 217.578125 C 163.351562 218.597656 162.460938 219.304688 161.464844 219.304688 Z M 161.464844 219.304688 " fill-opacity="1" fill-rule="nonzero"/></g><g clip-path="url(#id5)"><path fill="#000000" d="M 213.53125 182.519531 C 213.667969 182.519531 213.804688 182.507812 213.941406 182.480469 C 218.746094 181.539062 222.074219 178.765625 223.816406 176.9375 C 226.667969 178.96875 231.625 182.179688 234.503906 182.203125 C 234.515625 182.203125 234.523438 182.203125 234.53125 182.203125 C 237.421875 182.203125 242.480469 178.691406 245.226562 176.605469 C 247.863281 178.679688 252.6875 182.132812 255.550781 182.132812 C 255.5625 182.132812 255.570312 182.132812 255.578125 182.132812 C 258.410156 182.109375 263.25 178.644531 265.914062 176.550781 C 268.6875 178.765625 273.8125 182.507812 276.804688 182.519531 C 276.808594 182.519531 276.8125 182.519531 276.816406 182.519531 C 279.75 182.519531 285.203125 178.707031 288.0625 176.542969 C 290.996094 178.601562 296.625 182.199219 299.855469 182.042969 C 302.480469 181.910156 306.835938 178.714844 309.367188 176.667969 C 311.8125 178.953125 316.140625 182.515625 319.210938 182.359375 C 320.382812 182.300781 321.289062 181.296875 321.230469 180.113281 C 321.171875 178.933594 320.171875 178.023438 318.996094 178.085938 C 317.832031 178.140625 314.027344 175.382812 310.992188 172.292969 C 310.207031 171.496094 308.941406 171.441406 308.089844 172.171875 C 304.695312 175.097656 300.75 177.710938 299.640625 177.769531 C 298.085938 177.855469 293.027344 174.929688 289.277344 172.152344 C 288.507812 171.582031 287.449219 171.601562 286.699219 172.195312 C 282.648438 175.40625 278.03125 178.230469 276.820312 178.242188 C 275.578125 178.234375 271.125 175.394531 267.292969 172.160156 C 266.503906 171.496094 265.359375 171.492188 264.566406 172.148438 C 260.921875 175.179688 256.707031 177.84375 255.542969 177.855469 C 255.542969 177.855469 255.542969 177.855469 255.539062 177.855469 C 254.375 177.855469 250.207031 175.230469 246.613281 172.230469 C 245.835938 171.582031 244.714844 171.570312 243.925781 172.203125 C 240.117188 175.253906 235.738281 177.921875 234.546875 177.921875 C 234.542969 177.921875 234.539062 177.921875 234.539062 177.921875 C 233.082031 177.910156 228.308594 175.019531 224.757812 172.328125 C 224.296875 171.976562 223.707031 171.828125 223.136719 171.921875 C 222.5625 172.015625 222.050781 172.34375 221.722656 172.824219 C 221.695312 172.859375 218.613281 177.203125 213.125 178.28125 C 211.972656 178.507812 211.21875 179.628906 211.445312 180.789062 C 211.644531 181.8125 212.535156 182.519531 213.53125 182.519531 Z M 213.53125 182.519531 " fill-opacity="1" fill-rule="nonzero"/></g><g clip-path="url(#id6)"><path fill="#000000" d="M 213.53125 195.074219 C 213.667969 195.074219 213.804688 195.0625 213.941406 195.035156 C 218.746094 194.09375 222.074219 191.320312 223.816406 189.492188 C 226.667969 191.523438 231.625 194.734375 234.503906 194.757812 C 234.515625 194.757812 234.523438 194.757812 234.53125 194.757812 C 237.421875 194.757812 242.480469 191.246094 245.226562 189.160156 C 247.863281 191.234375 252.6875 194.6875 255.550781 194.6875 C 255.5625 194.6875 255.570312 194.6875 255.578125 194.6875 C 258.410156 194.664062 263.25 191.199219 265.914062 189.105469 C 268.6875 191.320312 273.8125 195.0625 276.804688 195.074219 C 279.722656 195.101562 285.199219 191.265625 288.0625 189.097656 C 290.996094 191.15625 296.625 194.757812 299.855469 194.597656 C 302.480469 194.464844 306.835938 191.269531 309.367188 189.222656 C 311.8125 191.507812 316.140625 195.074219 319.210938 194.914062 C 320.382812 194.855469 321.289062 193.851562 321.230469 192.667969 C 321.171875 191.488281 320.171875 190.574219 318.996094 190.640625 C 317.832031 190.707031 314.027344 187.9375 310.992188 184.847656 C 310.207031 184.050781 308.941406 183.996094 308.089844 184.726562 C 304.695312 187.652344 300.75 190.265625 299.640625 190.324219 C 298.085938 190.40625 293.027344 187.484375 289.277344 184.710938 C 288.507812 184.136719 287.449219 184.15625 286.699219 184.75 C 282.648438 187.960938 278.03125 190.785156 276.820312 190.796875 C 275.578125 190.789062 271.125 187.949219 267.292969 184.714844 C 266.503906 184.050781 265.359375 184.046875 264.566406 184.703125 C 260.921875 187.734375 256.707031 190.398438 255.542969 190.410156 C 255.542969 190.410156 255.542969 190.410156 255.539062 190.410156 C 254.375 190.410156 250.207031 187.785156 246.613281 184.785156 C 245.835938 184.136719 244.714844 184.128906 243.925781 184.757812 C 240.117188 187.808594 235.738281 190.476562 234.546875 190.476562 C 234.542969 190.476562 234.539062 190.476562 234.539062 190.476562 C 233.082031 190.46875 228.308594 187.574219 224.757812 184.882812 C 224.296875 184.53125 223.707031 184.386719 223.136719 184.480469 C 222.5625 184.574219 222.050781 184.898438 221.722656 185.378906 C 221.695312 185.414062 218.613281 189.757812 213.125 190.835938 C 211.972656 191.0625 211.21875 192.183594 211.445312 193.347656 C 211.644531 194.367188 212.535156 195.074219 213.53125 195.074219 Z M 213.53125 195.074219 " fill-opacity="1" fill-rule="nonzero"/></g><g clip-path="url(#id7)"><path fill="#000000" d="M 213.53125 207.628906 C 213.667969 207.628906 213.804688 207.617188 213.941406 207.589844 C 218.746094 206.648438 222.074219 203.875 223.816406 202.046875 C 226.667969 204.078125 231.625 207.289062 234.503906 207.3125 C 234.515625 207.3125 234.523438 207.3125 234.53125 207.3125 C 237.421875 207.3125 242.480469 203.800781 245.226562 201.714844 C 247.863281 203.789062 252.6875 207.242188 255.550781 207.242188 C 255.5625 207.242188 255.570312 207.242188 255.578125 207.242188 C 258.410156 207.21875 263.25 203.753906 265.914062 201.660156 C 268.6875 203.875 273.8125 207.617188 276.804688 207.628906 C 276.808594 207.628906 276.8125 207.628906 276.816406 207.628906 C 279.75 207.628906 285.203125 203.816406 288.0625 201.652344 C 290.996094 203.710938 296.625 207.316406 299.855469 207.152344 C 302.480469 207.019531 306.835938 203.824219 309.367188 201.777344 C 311.8125 204.0625 316.140625 207.628906 319.210938 207.46875 C 320.382812 207.410156 321.289062 206.40625 321.230469 205.226562 C 321.171875 204.042969 320.171875 203.132812 318.996094 203.195312 C 317.832031 203.257812 314.027344 200.492188 310.992188 197.402344 C 310.207031 196.605469 308.941406 196.550781 308.089844 197.28125 C 304.695312 200.207031 300.75 202.820312 299.640625 202.878906 C 298.085938 202.960938 293.027344 200.039062 289.277344 197.265625 C 288.507812 196.691406 287.449219 196.710938 286.699219 197.308594 C 282.648438 200.515625 278.03125 203.339844 276.820312 203.351562 C 275.578125 203.34375 271.125 200.503906 267.292969 197.269531 C 266.503906 196.605469 265.359375 196.601562 264.566406 197.257812 C 260.921875 200.289062 256.707031 202.953125 255.542969 202.964844 C 255.542969 202.964844 255.542969 202.964844 255.539062 202.964844 C 254.375 202.964844 250.207031 200.339844 246.613281 197.339844 C 245.835938 196.691406 244.714844 196.683594 243.925781 197.3125 C 240.117188 200.363281 235.738281 203.03125 234.546875 203.03125 C 234.542969 203.03125 234.539062 203.03125 234.539062 203.03125 C 233.082031 203.019531 228.308594 200.128906 224.757812 197.4375 C 224.296875 197.085938 223.707031 196.941406 223.136719 197.035156 C 222.5625 197.128906 222.050781 197.453125 221.722656 197.933594 C 221.695312 197.96875 218.613281 202.3125 213.125 203.390625 C 211.972656 203.617188 211.21875 204.742188 211.445312 205.898438 C 211.644531 206.921875 212.535156 207.628906 213.53125 207.628906 Z M 213.53125 207.628906 " fill-opacity="1" fill-rule="nonzero"/></g><g clip-path="url(#id8)"><path fill="#000000" d="M 213.53125 220.183594 C 213.667969 220.183594 213.804688 220.171875 213.941406 220.144531 C 218.746094 219.203125 222.074219 216.429688 223.816406 214.601562 C 226.667969 216.632812 231.625 219.84375 234.503906 219.867188 C 234.515625 219.867188 234.523438 219.867188 234.53125 219.867188 C 237.421875 219.867188 242.480469 216.355469 245.226562 214.269531 C 247.863281 216.34375 252.6875 219.796875 255.550781 219.800781 C 255.5625 219.800781 255.570312 219.800781 255.578125 219.800781 C 258.410156 219.777344 263.25 216.308594 265.914062 214.214844 C 268.6875 216.429688 273.8125 220.171875 276.804688 220.183594 C 276.808594 220.183594 276.8125 220.183594 276.816406 220.183594 C 279.75 220.183594 285.203125 216.371094 288.0625 214.207031 C 290.996094 216.265625 296.625 219.863281 299.855469 219.707031 C 302.480469 219.574219 306.835938 216.378906 309.367188 214.335938 C 311.8125 216.617188 316.140625 220.1875 319.210938 220.023438 C 320.382812 219.964844 321.289062 218.960938 321.230469 217.78125 C 321.171875 216.597656 320.171875 215.683594 318.996094 215.75 C 317.832031 215.808594 314.027344 213.046875 310.992188 209.957031 C 310.207031 209.160156 308.941406 209.105469 308.089844 209.839844 C 304.695312 212.761719 300.75 215.375 299.640625 215.433594 C 298.085938 215.515625 293.027344 212.59375 289.277344 209.820312 C 288.507812 209.246094 287.449219 209.265625 286.699219 209.863281 C 282.648438 213.070312 278.03125 215.894531 276.820312 215.90625 C 275.578125 215.898438 271.125 213.058594 267.292969 209.824219 C 266.503906 209.160156 265.359375 209.15625 264.566406 209.816406 C 260.921875 212.84375 256.707031 215.511719 255.542969 215.519531 C 255.542969 215.519531 255.542969 215.519531 255.539062 215.519531 C 254.375 215.519531 250.207031 212.894531 246.613281 209.894531 C 245.835938 209.25 244.714844 209.238281 243.925781 209.867188 C 240.117188 212.917969 235.738281 215.589844 234.546875 215.589844 C 234.542969 215.589844 234.539062 215.589844 234.539062 215.589844 C 233.082031 215.578125 228.308594 212.6875 224.757812 209.992188 C 224.296875 209.640625 223.707031 209.496094 223.136719 209.589844 C 222.5625 209.683594 222.050781 210.007812 221.722656 210.488281 C 221.695312 210.523438 218.613281 214.867188 213.125 215.945312 C 211.972656 216.171875 211.21875 217.296875 211.445312 218.457031 C 211.644531 219.476562 212.535156 220.183594 213.53125 220.183594 Z M 213.53125 220.183594 " fill-opacity="1" fill-rule="nonzero"/></g><g clip-path="url(#id9)"><path fill="#000000" d="M 225.398438 204.414062 C 225.707031 221.152344 211.71875 236.417969 193.558594 239.113281 C 175.15625 241.851562 157.621094 232.816406 151.082031 217.273438 C 147.425781 208.582031 147.945312 199.878906 150.835938 191.148438 C 154.652344 179.636719 160.6875 169.074219 167.449219 158.832031 C 173.117188 150.242188 179.429688 142.0625 186.003906 134.039062 C 186.761719 133.113281 187.152344 133.320312 187.773438 134.050781 C 191.339844 138.273438 194.742188 142.609375 198.019531 147.027344 C 206.203125 158.046875 213.734375 169.398438 219.347656 181.738281 C 222.109375 187.808594 224.324219 194.039062 225.109375 200.621094 C 225.261719 201.878906 225.308594 203.152344 225.398438 204.414062 Z M 169.355469 175.988281 C 168.964844 176.453125 168.820312 176.574219 168.742188 176.722656 C 165.339844 183.042969 162.175781 189.433594 160.347656 196.335938 C 158.226562 204.347656 158.367188 211.578125 163.128906 218.53125 C 164.921875 221.15625 167.792969 223.359375 171.804688 223.929688 C 174.539062 224.4375 177.296875 223.136719 178.660156 221.195312 C 180.152344 219.074219 179.472656 217.101562 178.078125 215.210938 C 177.09375 213.867188 176.054688 212.554688 175.078125 211.203125 C 170.398438 204.695312 167.792969 197.585938 167.625 189.757812 C 167.523438 185.226562 168.332031 180.792969 169.355469 175.988281 Z M 169.355469 175.988281 " fill-opacity="1" fill-rule="evenodd"/></g></svg>