<svg xmlns="http://www.w3.org/2000/svg" xmlns:xlink="http://www.w3.org/1999/xlink" width="500" zoomAndPan="magnify" viewBox="0 0 375 374.999991" height="500" preserveAspectRatio="xMidYMid meet" version="1.0"><defs><clipPath id="id1"><path d="M 174.441406 232.1875 L 187.191406 232.1875 L 187.191406 251.6875 L 174.441406 251.6875 Z M 174.441406 232.1875 " clip-rule="nonzero"/></clipPath><clipPath id="id2"><path d="M 166.742188 219 L 179.492188 219 L 179.492188 238.5 L 166.742188 238.5 Z M 166.742188 219 " clip-rule="nonzero"/></clipPath><clipPath id="id3"><path d="M 156.167969 229.480469 L 169.667969 229.480469 L 169.667969 249.730469 L 156.167969 249.730469 Z M 156.167969 229.480469 " clip-rule="nonzero"/></clipPath><clipPath id="id4"><path d="M 112.5 135.023438 L 262.5 135.023438 L 262.5 261 L 112.5 261 Z M 112.5 135.023438 " clip-rule="nonzero"/></clipPath><clipPath id="id5"><path d="M 132 203 L 147 203 L 147 212.761719 L 132 212.761719 Z M 132 203 " clip-rule="nonzero"/></clipPath></defs><rect x="-37.5" width="450" fill="#ffffff" y="-37.499999" height="449.999989" fill-opacity="1"/><rect x="-37.5" width="450" fill="#ffffff" y="-37.499999" height="449.999989" fill-opacity="1"/><rect x="-37.5" width="450" fill="#ffffff" y="-37.499999" height="449.999989" fill-opacity="1"/><g clip-path="url(#id1)"><path fill="#000000" d="M 179.167969 232.464844 C 181.195312 232.1875 183.335938 232.363281 185.203125 233.265625 C 186.171875 233.742188 187.132812 234.597656 187.183594 235.773438 C 187.160156 239.777344 187.1875 243.78125 187.171875 247.785156 C 187.191406 248.589844 186.910156 249.414062 186.324219 249.964844 C 185.773438 250.53125 184.980469 250.703125 184.257812 250.925781 C 181.589844 251.683594 178.691406 251.511719 176.121094 250.46875 C 175.113281 250.019531 174.496094 248.902344 174.542969 247.792969 C 174.519531 243.902344 174.550781 240.007812 174.519531 236.121094 C 174.441406 235.355469 174.789062 234.601562 175.324219 234.085938 C 176.371094 233.097656 177.792969 232.683594 179.167969 232.464844 Z M 179.15625 233.128906 C 178.132812 233.296875 177.097656 233.589844 176.226562 234.183594 C 175.777344 234.496094 175.347656 234.914062 175.207031 235.46875 C 175.089844 236.367188 175.8125 237.054688 176.511719 237.449219 C 178.207031 238.40625 180.214844 238.554688 182.109375 238.394531 C 183.390625 238.207031 184.71875 237.898438 185.753906 237.058594 C 186.222656 236.683594 186.597656 236.085938 186.496094 235.453125 C 186.226562 234.578125 185.394531 234.0625 184.621094 233.710938 C 182.902344 232.988281 180.984375 232.863281 179.15625 233.128906 Z M 175.199219 237.363281 C 175.617188 238.160156 176.378906 238.691406 177.183594 239.015625 C 179.039062 239.761719 181.113281 239.84375 183.058594 239.460938 C 184.371094 239.171875 185.808594 238.640625 186.503906 237.375 C 184.945312 238.734375 182.835938 239.136719 180.84375 239.179688 C 178.855469 239.132812 176.742188 238.738281 175.199219 237.363281 Z M 181.003906 245.046875 C 178.980469 245.039062 176.769531 244.671875 175.222656 243.222656 C 175.738281 244.140625 176.6875 244.667969 177.640625 244.988281 C 179.546875 245.609375 181.625 245.640625 183.5625 245.140625 C 184.691406 244.835938 185.878906 244.300781 186.472656 243.214844 C 185.023438 244.613281 182.925781 244.992188 181.003906 245.046875 Z M 176.410156 249.882812 C 178.882812 250.863281 181.667969 251.011719 184.21875 250.257812 C 184.792969 250.070312 185.429688 249.945312 185.878906 249.496094 C 186.171875 249.226562 186.332031 248.847656 186.484375 248.488281 C 184.964844 249.894531 182.824219 250.277344 180.839844 250.308594 C 178.863281 250.273438 176.726562 249.890625 175.21875 248.480469 C 175.449219 249.0625 175.8125 249.640625 176.410156 249.882812 Z M 176.410156 249.882812 " fill-opacity="1" fill-rule="nonzero"/></g><g clip-path="url(#id2)"><path fill="#000000" d="M 171.46875 219.28125 C 173.496094 219.003906 175.640625 219.179688 177.507812 220.082031 C 178.472656 220.558594 179.433594 221.414062 179.488281 222.585938 C 179.464844 226.589844 179.488281 230.59375 179.476562 234.597656 C 179.492188 235.402344 179.210938 236.222656 178.628906 236.777344 C 178.074219 237.34375 177.285156 237.515625 176.5625 237.738281 C 173.894531 238.496094 170.992188 238.324219 168.421875 237.28125 C 167.417969 236.832031 166.796875 235.714844 166.84375 234.601562 C 166.824219 230.714844 166.855469 226.824219 166.820312 222.933594 C 166.742188 222.167969 167.09375 221.417969 167.628906 220.898438 C 168.671875 219.914062 170.097656 219.5 171.46875 219.28125 Z M 171.460938 219.945312 C 170.433594 220.113281 169.402344 220.40625 168.527344 221 C 168.078125 221.308594 167.648438 221.726562 167.511719 222.285156 C 167.394531 223.179688 168.113281 223.871094 168.8125 224.261719 C 170.507812 225.21875 172.515625 225.367188 174.410156 225.210938 C 175.691406 225.023438 177.019531 224.710938 178.054688 223.871094 C 178.527344 223.496094 178.898438 222.902344 178.800781 222.269531 C 178.527344 221.390625 177.699219 220.878906 176.921875 220.527344 C 175.203125 219.804688 173.285156 219.679688 171.460938 219.945312 Z M 167.5 224.175781 C 167.921875 224.972656 168.679688 225.503906 169.484375 225.828125 C 171.34375 226.574219 173.414062 226.65625 175.363281 226.277344 C 176.675781 225.984375 178.113281 225.457031 178.804688 224.1875 C 177.246094 225.550781 175.136719 225.953125 173.144531 225.992188 C 171.160156 225.945312 169.046875 225.550781 167.5 224.175781 Z M 173.304688 231.855469 C 171.28125 231.851562 169.070312 231.484375 167.523438 230.035156 C 168.042969 230.953125 168.988281 231.480469 169.941406 231.800781 C 171.847656 232.421875 173.929688 232.453125 175.863281 231.953125 C 176.992188 231.648438 178.179688 231.113281 178.773438 230.027344 C 177.324219 231.425781 175.230469 231.804688 173.304688 231.855469 Z M 168.710938 236.691406 C 171.183594 237.671875 173.96875 237.824219 176.519531 237.066406 C 177.09375 236.878906 177.734375 236.757812 178.179688 236.304688 C 178.472656 236.035156 178.632812 235.660156 178.789062 235.296875 C 177.265625 236.703125 175.125 237.089844 173.140625 237.117188 C 171.164062 237.085938 169.027344 236.703125 167.519531 235.289062 C 167.753906 235.875 168.113281 236.449219 168.710938 236.691406 Z M 168.710938 236.691406 " fill-opacity="1" fill-rule="nonzero"/></g><g clip-path="url(#id3)"><path fill="#000000" d="M 161.171875 229.773438 C 163.320312 229.488281 165.585938 229.671875 167.566406 230.609375 C 168.589844 231.101562 169.605469 231.988281 169.660156 233.207031 C 169.636719 237.363281 169.664062 241.523438 169.648438 245.679688 C 169.667969 246.515625 169.371094 247.371094 168.75 247.941406 C 168.167969 248.53125 167.332031 248.710938 166.566406 248.941406 C 163.742188 249.730469 160.667969 249.550781 157.945312 248.46875 C 156.882812 248 156.226562 246.839844 156.277344 245.6875 C 156.253906 241.648438 156.285156 237.605469 156.25 233.570312 C 156.167969 232.777344 156.539062 231.992188 157.105469 231.457031 C 158.210938 230.433594 159.71875 230.003906 161.171875 229.773438 Z M 161.164062 230.464844 C 160.078125 230.640625 158.984375 230.945312 158.058594 231.558594 C 157.582031 231.882812 157.128906 232.316406 156.980469 232.894531 C 156.855469 233.824219 157.621094 234.542969 158.359375 234.949219 C 160.15625 235.941406 162.28125 236.09375 164.289062 235.933594 C 165.644531 235.738281 167.050781 235.414062 168.148438 234.542969 C 168.644531 234.152344 169.039062 233.535156 168.933594 232.878906 C 168.644531 231.96875 167.769531 231.433594 166.945312 231.070312 C 165.128906 230.320312 163.097656 230.1875 161.164062 230.464844 Z M 156.972656 234.859375 C 157.414062 235.6875 158.21875 236.238281 159.070312 236.574219 C 161.039062 237.347656 163.234375 237.433594 165.296875 237.039062 C 166.683594 236.738281 168.207031 236.1875 168.941406 234.871094 C 167.292969 236.285156 165.054688 236.703125 162.945312 236.742188 C 160.84375 236.695312 158.605469 236.289062 156.972656 234.859375 Z M 163.117188 242.835938 C 160.972656 242.832031 158.632812 242.449219 156.996094 240.941406 C 157.542969 241.894531 158.546875 242.441406 159.554688 242.777344 C 161.574219 243.421875 163.777344 243.453125 165.828125 242.933594 C 167.019531 242.617188 168.277344 242.0625 168.90625 240.933594 C 167.371094 242.390625 165.15625 242.78125 163.117188 242.835938 Z M 158.253906 247.855469 C 160.871094 248.875 163.820312 249.03125 166.519531 248.246094 C 167.128906 248.050781 167.804688 247.925781 168.277344 247.457031 C 168.589844 247.175781 168.757812 246.785156 168.921875 246.410156 C 167.3125 247.867188 165.042969 248.269531 162.945312 248.296875 C 160.851562 248.265625 158.589844 247.867188 156.992188 246.402344 C 157.238281 247.007812 157.621094 247.605469 158.253906 247.855469 Z M 158.253906 247.855469 " fill-opacity="1" fill-rule="nonzero"/></g><g clip-path="url(#id4)"><path fill="#000000" d="M 261.308594 207.777344 C 261.96875 207.777344 262.5 207.246094 262.5 206.589844 C 262.5 205.929688 261.96875 205.398438 261.308594 205.398438 L 258.023438 205.398438 L 258.023438 194.101562 L 261.308594 194.101562 C 261.96875 194.101562 262.5 193.570312 262.5 192.914062 C 262.5 192.257812 261.96875 191.726562 261.308594 191.726562 L 258.023438 191.726562 L 258.023438 189.136719 C 258.023438 186.4375 256.96875 183.898438 255.054688 181.988281 C 254.296875 181.230469 253.402344 180.597656 252.441406 180.113281 L 252.441406 149.921875 C 252.441406 148.019531 251.601562 146.230469 250.070312 144.882812 C 248.585938 143.59375 246.621094 142.878906 244.535156 142.878906 L 198.328125 142.878906 L 197.636719 136.128906 C 197.574219 135.523438 197.0625 135.0625 196.453125 135.0625 L 180.785156 135.0625 C 180.175781 135.0625 179.664062 135.523438 179.601562 136.128906 L 172.722656 203.453125 L 148.355469 203.453125 C 144 203.453125 140.453125 206.613281 140.453125 210.496094 L 140.453125 230.796875 L 137.25 230.796875 L 137.25 227.105469 C 137.25 226.445312 136.71875 225.914062 136.058594 225.914062 L 124.941406 225.914062 L 124.941406 221.246094 C 124.941406 220.589844 124.410156 220.058594 123.75 220.058594 L 115.929688 220.058594 C 115.269531 220.058594 114.738281 220.589844 114.738281 221.246094 L 114.738281 230.796875 L 113.691406 230.796875 C 113.03125 230.796875 112.5 231.328125 112.5 231.984375 L 112.5 259.796875 C 112.5 260.453125 113.03125 260.984375 113.691406 260.984375 L 261.308594 260.984375 C 261.96875 260.984375 262.5 260.453125 262.5 259.796875 L 262.5 251.527344 C 262.5 250.871094 261.96875 250.339844 261.308594 250.339844 L 258.023438 250.339844 L 258.023438 235.132812 L 261.308594 235.132812 C 261.96875 235.132812 262.5 234.601562 262.5 233.945312 C 262.5 233.289062 261.96875 232.757812 261.308594 232.757812 L 258.023438 232.757812 L 258.023438 221.460938 L 261.308594 221.460938 C 261.96875 221.460938 262.5 220.929688 262.5 220.273438 C 262.5 219.617188 261.96875 219.085938 261.308594 219.085938 L 258.023438 219.085938 L 258.023438 207.777344 Z M 255.644531 205.398438 L 240.132812 205.398438 L 240.132812 194.101562 L 255.644531 194.101562 Z M 233.429688 250.339844 L 233.429688 235.132812 L 237.75 235.132812 L 237.75 250.339844 Z M 215.535156 250.339844 L 215.535156 235.132812 L 231.058594 235.132812 L 231.058594 250.339844 Z M 209.300781 250.339844 L 208.71875 244.699219 C 208.71875 244.699219 208.71875 244.695312 208.71875 244.695312 L 208.710938 244.585938 C 208.710938 244.585938 208.707031 244.585938 208.707031 244.582031 C 208.707031 244.578125 208.710938 244.574219 208.710938 244.566406 L 204.625 204.519531 C 204.625 204.515625 204.625 204.511719 204.625 204.507812 L 201.53125 174.226562 C 201.53125 174.226562 201.527344 174.226562 201.527344 174.222656 C 201.527344 174.21875 201.53125 174.21875 201.53125 174.214844 L 199.164062 151.113281 L 218.738281 151.113281 L 218.738281 180.136719 C 215.332031 181.839844 213.15625 185.277344 213.15625 189.136719 L 213.15625 191.726562 L 209.867188 191.726562 C 209.210938 191.726562 208.679688 192.257812 208.679688 192.914062 C 208.679688 193.570312 209.210938 194.101562 209.867188 194.101562 L 213.15625 194.101562 L 213.15625 205.398438 L 209.867188 205.398438 C 209.210938 205.398438 208.679688 205.929688 208.679688 206.589844 C 208.679688 207.246094 209.210938 207.777344 209.867188 207.777344 L 213.15625 207.777344 L 213.15625 219.085938 L 209.867188 219.085938 C 209.210938 219.085938 208.679688 219.617188 208.679688 220.273438 C 208.679688 220.929688 209.210938 221.460938 209.867188 221.460938 L 213.15625 221.460938 L 213.15625 232.757812 L 209.867188 232.757812 C 209.210938 232.757812 208.679688 233.289062 208.679688 233.949219 C 208.679688 234.605469 209.210938 235.136719 209.867188 235.136719 L 213.15625 235.136719 L 213.15625 250.339844 Z M 192.046875 250.339844 L 192.046875 245.886719 L 204.617188 245.886719 L 200.050781 250.339844 Z M 177.1875 250.339844 L 172.621094 245.886719 L 185.191406 245.886719 L 185.191406 250.339844 Z M 156.261719 250.339844 L 156.261719 231.984375 C 156.261719 231.328125 155.730469 230.796875 155.070312 230.796875 L 151.785156 230.796875 L 151.785156 216.851562 C 151.785156 214.539062 154.011719 212.660156 156.75 212.660156 L 171.789062 212.660156 L 168.53125 244.566406 C 168.53125 244.570312 168.53125 244.574219 168.53125 244.582031 C 168.53125 244.585938 168.53125 244.585938 168.53125 244.585938 L 168.519531 244.695312 L 167.9375 250.339844 Z M 114.882812 233.175781 L 153.882812 233.175781 L 153.882812 250.339844 L 114.882812 250.339844 Z M 237.75 191.726562 L 233.429688 191.726562 L 233.429688 189.136719 C 233.429688 186.4375 232.375 183.898438 230.460938 181.988281 C 229.683594 181.214844 228.796875 180.585938 227.832031 180.109375 L 227.832031 151.113281 L 238.382812 151.113281 C 241.117188 151.113281 243.34375 152.992188 243.34375 155.304688 L 243.34375 180.132812 C 239.929688 181.835938 237.75 185.273438 237.75 189.136719 Z M 215.535156 219.085938 L 215.535156 207.777344 L 231.050781 207.777344 L 231.054688 219.085938 Z M 231.054688 221.460938 L 231.054688 232.757812 L 215.535156 232.757812 L 215.535156 221.460938 Z M 215.535156 205.398438 L 215.535156 194.101562 L 231.046875 194.101562 L 231.050781 205.398438 Z M 215.535156 191.726562 L 215.535156 189.136719 C 215.535156 185.96875 217.4375 183.15625 220.382812 181.96875 C 222.195312 181.21875 224.363281 181.214844 226.203125 181.972656 C 227.167969 182.359375 228.035156 182.929688 228.777344 183.667969 C 230.242188 185.128906 231.046875 187.070312 231.046875 189.136719 L 231.046875 191.726562 Z M 185.191406 212.660156 L 185.191406 221.484375 L 176.050781 212.660156 Z M 185.191406 151.113281 L 185.191406 154.855469 L 181.980469 151.113281 Z M 185.191406 173.160156 L 179.480469 173.160156 L 185.191406 166.503906 Z M 185.191406 175.535156 L 185.191406 182.015625 L 179.515625 175.535156 Z M 185.191406 203.453125 L 176.421875 203.453125 L 185.191406 193.441406 Z M 185.191406 224.792969 L 185.191406 228.097656 L 171.230469 241.570312 L 174.042969 214.027344 Z M 185.191406 231.402344 L 185.191406 243.507812 L 172.644531 243.507812 Z M 192.046875 212.660156 L 201.1875 212.660156 L 192.046875 221.484375 Z M 192.046875 203.453125 L 192.046875 193.445312 L 200.828125 203.453125 Z M 192.046875 175.535156 L 197.71875 175.535156 L 192.046875 182.003906 Z M 192.046875 173.160156 L 192.046875 166.5 L 197.769531 173.160156 Z M 192.046875 151.113281 L 195.261719 151.113281 L 192.046875 154.859375 Z M 192.046875 231.402344 L 204.589844 243.507812 L 192.046875 243.507812 Z M 192.046875 228.097656 L 192.046875 224.792969 L 203.199219 214.023438 L 206.007812 241.570312 Z M 192.046875 189.835938 L 192.046875 185.613281 L 199.4375 177.1875 L 201.875 201.039062 Z M 192.046875 162.847656 L 192.046875 158.511719 L 196.941406 152.800781 L 198.773438 170.679688 Z M 180.292969 152.796875 L 185.1875 158.511719 L 185.1875 162.847656 L 178.464844 170.6875 Z M 177.800781 177.1875 L 185.191406 185.625 L 185.191406 189.832031 L 175.363281 201.050781 Z M 170.644531 247.28125 L 173.78125 250.339844 L 170.332031 250.339844 Z M 206.589844 247.28125 L 206.90625 250.339844 L 203.457031 250.339844 Z M 233.429688 232.757812 L 233.429688 221.460938 L 237.75 221.460938 L 237.75 232.757812 Z M 233.429688 219.085938 L 233.429688 207.777344 L 237.75 207.777344 L 237.75 219.085938 Z M 233.429688 205.398438 L 233.429688 194.101562 L 237.75 194.101562 L 237.75 205.398438 Z M 255.644531 189.136719 L 255.644531 191.726562 L 240.132812 191.726562 L 240.132812 189.136719 C 240.132812 185.964844 242.035156 183.152344 244.980469 181.972656 C 246.855469 181.21875 248.929688 181.21875 250.804688 181.972656 C 251.757812 182.355469 252.644531 182.941406 253.371094 183.671875 C 254.835938 185.128906 255.644531 187.070312 255.644531 189.136719 Z M 195.933594 142.878906 L 192.046875 142.878906 L 192.046875 137.4375 L 195.375 137.4375 Z M 185.191406 137.4375 L 185.191406 142.878906 L 181.304688 142.878906 L 181.863281 137.4375 Z M 134.867188 228.292969 L 134.867188 230.796875 L 124.941406 230.796875 L 124.941406 228.292969 Z M 117.117188 222.433594 L 122.558594 222.433594 L 122.558594 230.796875 L 117.117188 230.796875 Z M 260.117188 258.609375 L 114.882812 258.609375 L 114.882812 252.714844 L 260.117188 252.714844 Z M 255.65625 250.339844 L 240.132812 250.339844 L 240.132812 235.132812 L 255.652344 235.132812 Z M 255.652344 232.757812 L 240.132812 232.757812 L 240.132812 221.460938 L 255.648438 221.460938 Z M 255.648438 219.085938 L 240.132812 219.085938 L 240.132812 207.777344 L 255.644531 207.777344 Z M 255.648438 219.085938 " fill-opacity="1" fill-rule="nonzero"/></g><path fill="#000000" d="M 136.058594 237.640625 L 120.40625 237.640625 C 119.746094 237.640625 119.214844 238.171875 119.214844 238.828125 L 119.214844 246.644531 C 119.214844 247.300781 119.746094 247.832031 120.40625 247.832031 L 136.058594 247.832031 C 136.71875 247.832031 137.25 247.300781 137.25 246.644531 L 137.25 238.828125 C 137.25 238.171875 136.71875 237.640625 136.058594 237.640625 Z M 134.867188 245.457031 L 121.59375 245.457031 L 121.59375 240.015625 L 134.867188 240.015625 Z M 134.867188 245.457031 " fill-opacity="1" fill-rule="nonzero"/><path stroke-linecap="round" transform="matrix(0.0269517, 0, 0, -0.0271267, 77.058544, 238.430171)" fill="none" stroke-linejoin="round" d="M 1755.168852 2177.87818 C 1641.249672 2138.566101 1580.956569 2014.581852 1620.234047 1900.821624 C 1659.511525 1787.061396 1783.576179 1726.725275 1897.350424 1766.037354 " stroke="#231f1f" stroke-width="80" stroke-opacity="1" stroke-miterlimit="10"/><path stroke-linecap="round" transform="matrix(0.0269517, 0, 0, -0.0271267, 77.058544, 238.430171)" fill="none" stroke-linejoin="round" d="M 1932.424778 1597.845017 C 1911.554088 1701.957226 1810.389218 1769.493361 1706.325641 1748.757319 C 1602.262064 1727.877278 1534.722194 1626.645075 1555.447948 1522.532866 C 1576.173702 1418.564658 1677.338572 1350.884522 1781.547085 1371.764564 " stroke="#231f1f" stroke-width="80" stroke-opacity="1" stroke-miterlimit="10"/><path stroke-linecap="round" transform="matrix(0.0269517, 0, 0, -0.0271267, 77.058544, 238.430171)" fill="none" stroke-linejoin="round" d="M 1797.634908 1405.748632 C 1751.400533 1323.812468 1780.387602 1219.98826 1862.276071 1173.764167 C 1944.309476 1127.684075 2048.083182 1156.628133 2094.317557 1238.564297 " stroke="#231f1f" stroke-width="80" stroke-opacity="1" stroke-miterlimit="10"/><path stroke-linecap="round" transform="matrix(0.0269517, 0, 0, -0.0271267, 77.058544, 238.430171)" fill="none" stroke-linejoin="round" d="M 2801.74697 2437.798701 C 2865.228651 2515.846857 2886.534147 2624.567075 2848.416151 2725.511277 C 2791.456561 2876.42358 2622.896756 2952.455732 2472.163998 2895.431618 " stroke="#231f1f" stroke-width="80" stroke-opacity="1" stroke-miterlimit="10"/><path stroke-linecap="round" transform="matrix(0.0269517, 0, 0, -0.0271267, 77.058544, 238.430171)" fill="none" stroke-linejoin="round" d="M 2443.4668 2879.735586 C 2462.308395 2950.295728 2455.641369 3028.055884 2419.117662 3097.896024 C 2341.432318 3245.64032 2158.813785 3302.664434 2010.979734 3225.192279 C 1892.712493 3163.128154 1832.564326 3033.959895 1852.855274 2908.967645 " stroke="#231f1f" stroke-width="80" stroke-opacity="1" stroke-miterlimit="10"/><path stroke-linecap="round" transform="matrix(0.0269517, 0, 0, -0.0271267, 77.058544, 238.430171)" fill="none" stroke-linejoin="round" d="M 1963.006135 2720.327267 C 1931.41023 2878.439584 1777.63383 2980.967789 1619.50937 2949.431726 C 1461.38491 2917.895663 1358.770686 2764.103355 1390.366591 2605.991038 C 1421.962496 2447.878721 1575.738896 2345.206515 1733.863356 2376.742578 " stroke="#231f1f" stroke-width="80" stroke-opacity="1" stroke-miterlimit="10"/><path stroke-linecap="round" transform="matrix(0.0269517, 0, 0, -0.0271267, 77.058544, 238.430171)" fill="none" stroke-linejoin="round" d="M 1773.865511 2447.158719 C 1694.585878 2306.758438 1744.298701 2128.630081 1884.741049 2049.429922 " stroke="#231f1f" stroke-width="80" stroke-opacity="1" stroke-miterlimit="10"/><path stroke-linecap="round" transform="matrix(0.0269517, 0, 0, -0.0271267, 77.058544, 238.430171)" fill="none" stroke-linejoin="round" d="M 2282.443633 2152.96613 C 2359.694171 2011.269846 2536.950097 1958.997741 2678.551928 2036.181896 C 2820.153759 2113.36605 2872.330483 2290.630406 2795.369815 2432.32669 " stroke="#231f1f" stroke-width="80" stroke-opacity="1" stroke-miterlimit="10"/><path stroke-linecap="round" transform="matrix(0.0269517, 0, 0, -0.0271267, 77.058544, 238.430171)" fill="none" stroke-linejoin="round" d="M 2542.022834 1966.053755 C 2615.93986 1862.085547 2591.445786 1718.085258 2487.67208 1644.35711 L 2460.714106 1625.205072 C 2408.827253 1588.340998 2346.939861 1575.956973 2288.530918 1585.748993 " stroke="#231f1f" stroke-width="80" stroke-opacity="1" stroke-miterlimit="10"/><g clip-path="url(#id5)"><path stroke-linecap="round" transform="matrix(0.0269517, 0, 0, -0.0271267, 77.058544, 238.430171)" fill="none" stroke-linejoin="round" d="M 2097.506134 1239.716299 C 2147.943634 1251.668323 2202.149453 1245.908312 2248.238892 1223.444267 C 2325.634366 1185.860191 2340.852577 1089.379998 2398.681779 1031.923883 C 2418.827792 1011.907843 2443.031994 998.227815 2471.439322 994.051807 C 2494.049235 990.7398 2519.702791 991.891802 2542.167769 996.643812 " stroke="#231f1f" stroke-width="80" stroke-opacity="1" stroke-miterlimit="10"/></g><path stroke-linecap="round" transform="matrix(0.0269517, 0, 0, -0.0271267, 77.058544, 238.430171)" fill="none" stroke-linejoin="round" d="M 2288.530918 1582.436986 C 2331.431779 1575.812973 2371.86874 1554.35693 2400.565938 1522.532866 C 2448.829408 1468.964759 2430.132749 1389.332599 2457.090723 1326.548473 C 2466.366585 1304.660429 2481.005054 1286.372393 2501.730808 1274.132368 C 2518.108502 1264.484349 2538.544386 1257.428335 2557.385981 1253.972328 " stroke="#231f1f" stroke-width="80" stroke-opacity="1" stroke-miterlimit="10"/></svg>