<svg xmlns="http://www.w3.org/2000/svg" xmlns:xlink="http://www.w3.org/1999/xlink" width="500" zoomAndPan="magnify" viewBox="0 0 375 374.999991" height="500" preserveAspectRatio="xMidYMid meet" version="1.0"><defs><clipPath id="id1"><path d="M 142 147 L 226.898438 147 L 226.898438 204 L 142 204 Z M 142 147 " clip-rule="nonzero"/></clipPath><clipPath id="id2"><path d="M 104.683594 140.277344 L 212 140.277344 L 212 235 L 104.683594 235 Z M 104.683594 140.277344 " clip-rule="nonzero"/></clipPath><clipPath id="id3"><path d="M 215 153.957031 L 264 153.957031 L 264 203.453125 L 215 203.453125 Z M 215 153.957031 " clip-rule="nonzero"/></clipPath><clipPath id="id4"><path d="M 209.207031 166 L 270 166 L 270 183 L 209.207031 183 Z M 209.207031 166 " clip-rule="nonzero"/></clipPath></defs><rect x="-37.5" width="450" fill="#ffffff" y="-37.499999" height="449.999989" fill-opacity="1"/><rect x="-37.5" width="450" fill="#ffffff" y="-37.499999" height="449.999989" fill-opacity="1"/><rect x="-37.5" width="450" fill="#ffffff" y="-37.499999" height="449.999989" fill-opacity="1"/><g clip-path="url(#id1)"><path fill="#000000" d="M 225.09375 189.800781 C 224.121094 189.800781 223.425781 190.636719 223.425781 191.472656 L 223.425781 198.027344 L 181.015625 152.84375 C 180.320312 152.144531 179.207031 152.144531 178.511719 152.703125 L 164.191406 165.8125 L 145.421875 147.683594 C 144.585938 147.125 143.613281 147.265625 143.058594 148.101562 C 142.640625 148.660156 142.640625 149.636719 143.058594 150.191406 L 162.941406 169.4375 C 163.636719 170.136719 164.609375 170.136719 165.304688 169.4375 L 179.488281 156.46875 L 220.644531 200.539062 L 214.941406 200.539062 C 213.96875 200.539062 213.273438 201.375 213.273438 202.214844 C 213.273438 203.050781 214.109375 203.886719 214.941406 203.886719 L 224.816406 203.886719 C 225.789062 203.886719 226.484375 203.050781 226.484375 202.214844 L 226.484375 191.472656 C 226.898438 190.636719 226.066406 189.800781 225.09375 189.800781 Z M 225.09375 189.800781 " fill-opacity="1" fill-rule="nonzero"/></g><g clip-path="url(#id2)"><path fill="#000000" d="M 209.519531 193.984375 C 208.546875 193.984375 207.851562 194.820312 207.851562 195.65625 L 207.851562 204.863281 L 200.34375 204.863281 L 200.34375 193.984375 C 200.34375 193.007812 199.507812 192.3125 198.675781 192.3125 L 188.523438 192.3125 C 187.550781 192.3125 186.855469 193.148438 186.855469 193.984375 L 186.855469 204.863281 L 179.347656 204.863281 L 179.347656 179.480469 C 179.347656 178.503906 178.652344 177.808594 177.679688 177.808594 L 167.667969 177.808594 C 166.695312 177.808594 166 178.503906 166 179.480469 L 166 204.863281 L 158.492188 204.863281 L 158.492188 185.335938 C 158.492188 184.363281 157.65625 183.664062 156.824219 183.664062 L 146.8125 183.664062 C 145.839844 183.664062 145.144531 184.5 145.144531 185.335938 L 145.144531 204.863281 L 137.636719 204.863281 L 137.636719 153.820312 C 137.636719 152.84375 136.800781 152.144531 135.964844 152.144531 L 125.957031 152.144531 C 124.980469 152.144531 124.285156 152.980469 124.285156 153.820312 L 124.285156 204.863281 L 108.992188 204.863281 L 108.992188 197.472656 L 117.890625 197.472656 C 118.863281 197.472656 119.558594 196.632812 119.558594 195.796875 C 119.558594 194.960938 118.726562 194.125 117.890625 194.125 L 108.296875 194.125 L 108.296875 187.152344 L 117.195312 187.152344 C 118.167969 187.152344 118.863281 186.3125 118.863281 185.476562 C 118.863281 184.640625 118.03125 183.804688 117.195312 183.804688 L 108.296875 183.804688 L 108.296875 176.832031 L 117.195312 176.832031 C 118.167969 176.832031 118.863281 175.992188 118.863281 175.15625 C 118.863281 174.320312 118.03125 173.484375 117.195312 173.484375 L 108.296875 173.484375 L 108.296875 166.511719 L 117.195312 166.511719 C 118.167969 166.511719 118.863281 165.671875 118.863281 164.835938 C 118.863281 164 118.03125 163.164062 117.195312 163.164062 L 108.296875 163.164062 L 108.296875 156.191406 L 117.195312 156.191406 C 118.167969 156.191406 118.863281 155.351562 118.863281 154.515625 C 118.863281 153.679688 118.03125 152.84375 117.195312 152.84375 L 108.296875 152.84375 L 108.296875 145.03125 C 108.296875 144.335938 108.851562 143.917969 109.410156 143.917969 L 206.601562 143.917969 C 207.296875 143.917969 207.710938 144.476562 207.710938 145.03125 L 207.710938 177.109375 C 207.710938 178.085938 208.546875 178.78125 209.382812 178.78125 C 210.214844 178.78125 211.050781 177.945312 211.050781 177.109375 L 211.050781 145.03125 C 211.050781 142.523438 208.964844 140.429688 206.460938 140.429688 L 109.410156 140.429688 C 106.90625 140.429688 104.820312 142.523438 104.820312 145.03125 L 104.683594 215.601562 C 104.820312 218.390625 107.046875 220.902344 109.964844 221.039062 L 144.449219 221.039062 C 144.449219 223.550781 144.449219 226.199219 144.308594 228.710938 C 143.890625 230.105469 142.917969 231.082031 141.527344 231.5 L 136.105469 231.5 C 135.132812 231.5 134.4375 232.335938 134.4375 233.175781 C 134.4375 234.011719 135.269531 234.847656 136.105469 234.847656 L 179.902344 234.847656 C 180.878906 234.847656 181.574219 234.011719 181.574219 233.175781 C 181.574219 232.335938 180.738281 231.5 179.902344 231.5 L 174.480469 231.5 C 173.089844 231.222656 171.976562 230.105469 171.699219 228.710938 C 171.5625 227.734375 171.5625 223.550781 171.5625 221.039062 L 206.460938 221.039062 C 209.9375 220.902344 211.328125 218.53125 211.328125 215.742188 L 211.1875 195.65625 C 211.1875 194.683594 210.492188 193.984375 209.519531 193.984375 Z M 207.851562 215.878906 C 207.851562 216.855469 207.433594 217.695312 206.320312 217.695312 L 109.964844 217.695312 C 109.132812 217.695312 108.15625 216.578125 108.15625 215.742188 L 108.15625 208.488281 L 207.851562 208.488281 Z M 207.851562 215.878906 " fill-opacity="1" fill-rule="nonzero"/></g><path fill="#000000" d="M 157.933594 214.765625 C 158.910156 214.765625 159.605469 213.929688 159.605469 212.953125 C 159.605469 211.976562 158.769531 211.277344 157.796875 211.277344 C 156.824219 211.277344 156.128906 211.976562 156.128906 212.953125 C 156.265625 213.929688 156.960938 214.765625 157.933594 214.765625 Z M 157.933594 214.765625 " fill-opacity="1" fill-rule="nonzero"/><g clip-path="url(#id3)"><path fill="#000000" d="M 239.773438 203.453125 L 239.242188 203.035156 C 238.273438 202.28125 215.609375 184.351562 215.609375 170.34375 C 215.609375 161.304688 222.191406 153.957031 230.28125 153.957031 C 233.828125 153.980469 237.230469 155.382812 239.773438 157.863281 C 242.3125 155.382812 245.714844 153.980469 249.265625 153.957031 C 257.351562 153.957031 263.933594 161.304688 263.933594 170.34375 C 263.933594 184.351562 241.269531 202.28125 240.304688 203.035156 Z M 230.28125 155.6875 C 223.144531 155.6875 217.335938 162.261719 217.335938 170.34375 C 217.335938 182.378906 236.320312 198.429688 239.773438 201.246094 C 243.222656 198.429688 262.207031 182.378906 262.207031 170.34375 C 262.207031 162.261719 256.402344 155.6875 249.265625 155.6875 C 245.882812 155.722656 242.671875 157.171875 240.402344 159.679688 L 239.773438 160.351562 L 239.144531 159.683594 C 236.875 157.171875 233.660156 155.722656 230.28125 155.6875 Z M 230.28125 155.6875 " fill-opacity="1" fill-rule="nonzero"/></g><g clip-path="url(#id4)"><path fill="#000000" d="M 229.535156 182.046875 C 229.191406 182.046875 228.882812 181.839844 228.742188 181.527344 L 223.542969 169.601562 L 220.515625 177.269531 C 220.382812 177.601562 220.066406 177.816406 219.710938 177.816406 L 210.433594 177.816406 C 209.28125 177.816406 209.28125 176.089844 210.433594 176.089844 L 219.125 176.089844 L 222.703125 167.03125 C 222.832031 166.707031 223.140625 166.496094 223.488281 166.488281 C 223.839844 166.476562 224.160156 166.683594 224.296875 167.007812 L 229.710938 179.425781 L 233.957031 173.386719 C 234.097656 173.183594 234.316406 173.054688 234.5625 173.023438 C 234.804688 172.996094 235.046875 173.074219 235.234375 173.234375 L 237.691406 175.414062 L 240.546875 172.855469 C 240.878906 172.558594 241.378906 172.5625 241.703125 172.859375 L 245.25 176.089844 L 269.113281 176.089844 C 270.261719 176.089844 270.261719 177.820312 269.113281 177.820312 L 244.917969 177.820312 C 244.703125 177.820312 244.496094 177.738281 244.335938 177.59375 L 241.121094 174.660156 L 238.273438 177.214844 C 237.945312 177.507812 237.453125 177.507812 237.125 177.214844 L 234.816406 175.167969 L 230.242188 181.675781 C 230.082031 181.90625 229.816406 182.042969 229.535156 182.046875 Z M 229.535156 182.046875 " fill-opacity="1" fill-rule="nonzero"/></g></svg>