<svg xmlns="http://www.w3.org/2000/svg" xmlns:xlink="http://www.w3.org/1999/xlink" width="500" zoomAndPan="magnify" viewBox="0 0 375 374.999991" height="500" preserveAspectRatio="xMidYMid meet" version="1.0"><defs><clipPath id="id1"><path d="M 126.222656 184.425781 L 248.777344 184.425781 L 248.777344 264.703125 L 126.222656 264.703125 Z M 126.222656 184.425781 " clip-rule="nonzero"/></clipPath><clipPath id="id2"><path d="M 138.507812 134.105469 L 248.8125 134.105469 L 248.8125 234.601562 L 138.507812 234.601562 Z M 138.507812 134.105469 " clip-rule="nonzero"/></clipPath></defs><rect x="-37.5" width="450" fill="#ffffff" y="-37.499999" height="449.999989" fill-opacity="1"/><rect x="-37.5" width="450" fill="#ffffff" y="-37.499999" height="449.999989" fill-opacity="1"/><rect x="-37.5" width="450" fill="#ffffff" y="-37.499999" height="449.999989" fill-opacity="1"/><g clip-path="url(#id1)"><path fill="#000000" d="M 169.019531 188.15625 C 145.15625 196.46875 127.621094 218.652344 126.5625 245.363281 C 126.296875 252.070312 127.089844 258.574219 128.792969 264.714844 L 128.992188 264.648438 C 127.3125 258.597656 126.546875 252.179688 126.847656 245.558594 C 126.910156 244.117188 127.027344 242.6875 127.191406 241.277344 C 132.082031 242.058594 137.058594 242.5625 142.105469 242.78125 C 142.566406 248.382812 143.617188 253.882812 145.167969 259.167969 L 145.3125 259.121094 C 143.769531 253.855469 142.742188 248.375 142.316406 242.789062 C 146.453125 242.960938 150.640625 242.941406 154.863281 242.710938 C 157.6875 242.554688 160.480469 242.3125 163.25 241.980469 C 164.0625 245.386719 165 248.765625 166.042969 252.09375 L 166.128906 252.066406 C 165.082031 248.746094 164.152344 245.367188 163.347656 241.96875 C 172.054688 240.925781 180.476562 239.03125 188.53125 236.367188 L 192.773438 248.382812 L 188.730469 236.300781 C 196.589844 233.6875 204.101562 230.351562 211.1875 226.367188 C 212.515625 229.335938 213.765625 232.398438 214.917969 235.535156 L 215 235.507812 C 213.84375 232.367188 212.59375 229.296875 211.273438 226.320312 C 216.976562 223.105469 222.40625 219.476562 227.519531 215.472656 C 230.160156 219.671875 232.441406 224.203125 234.300781 228.96875 L 234.457031 228.914062 C 232.589844 224.128906 230.308594 219.574219 227.679688 215.34375 C 231.140625 212.621094 234.457031 209.730469 237.617188 206.679688 C 242.167969 211.832031 245.859375 217.734375 248.480469 224.164062 L 248.683594 224.09375 C 239.605469 201.804688 218.101562 185.699219 192.425781 184.6875 C 185.964844 184.433594 179.691406 185.152344 173.75 186.714844 C 173.238281 186.832031 172.738281 186.964844 172.234375 187.109375 C 171.847656 187.199219 171.46875 187.316406 171.097656 187.449219 C 171.066406 187.460938 171.039062 187.476562 171.007812 187.484375 C 170.746094 187.570312 170.480469 187.65625 170.214844 187.75 C 170.164062 187.765625 170.113281 187.789062 170.0625 187.808594 C 169.714844 187.921875 169.363281 188.035156 169.019531 188.15625 Z M 171.128906 188.542969 C 171.277344 188.496094 171.429688 188.449219 171.582031 188.402344 L 174.144531 195.644531 C 170.367188 196.855469 166.558594 197.792969 162.746094 198.46875 C 164.644531 193.414062 167.496094 189.984375 171.128906 188.542969 Z M 172.589844 188.097656 C 172.683594 188.070312 172.777344 188.046875 172.871094 188.023438 C 175.496094 187.46875 178.464844 187.859375 181.734375 189.316406 C 182.894531 189.832031 184.058594 190.472656 185.226562 191.21875 C 182.09375 192.726562 178.839844 194.066406 175.46875 195.207031 C 175.320312 195.257812 175.167969 195.304688 175.019531 195.351562 L 172.59375 188.097656 Z M 166.78125 190.296875 C 164.832031 192.285156 163.25 195.078125 162.089844 198.582031 C 159.667969 198.988281 157.242188 199.292969 154.820312 199.492188 C 158.261719 195.59375 162.292969 192.476562 166.78125 190.296875 Z M 177.375 187.058594 C 180.84375 186.570312 184.484375 186.570312 188.246094 187.109375 C 189.402344 187.273438 190.554688 187.492188 191.699219 187.753906 C 189.796875 188.878906 187.839844 189.941406 185.832031 190.925781 C 184.371094 189.90625 182.910156 189.0625 181.460938 188.402344 C 180.042969 187.757812 178.675781 187.3125 177.375 187.058594 Z M 160.523438 192.96875 C 158.023438 194.851562 155.722656 197.066406 153.652344 199.585938 C 152.503906 199.664062 151.359375 199.71875 150.214844 199.75 C 153.414062 197.175781 156.863281 194.898438 160.523438 192.96875 Z M 184.679688 185.835938 C 187.296875 185.605469 189.957031 185.523438 192.652344 185.613281 C 193.421875 185.640625 194.183594 185.683594 194.945312 185.738281 C 194.199219 186.222656 193.445312 186.703125 192.683594 187.167969 C 191.136719 186.753906 189.570312 186.425781 187.992188 186.191406 C 186.878906 186.023438 185.769531 185.910156 184.679688 185.835938 Z M 149.214844 200.574219 C 150.46875 200.554688 151.726562 200.507812 152.984375 200.429688 C 150.628906 203.449219 148.59375 206.875 146.933594 210.640625 C 144.601562 210.554688 142.285156 210.382812 139.988281 210.128906 C 142.71875 206.632812 145.816406 203.429688 149.214844 200.574219 Z M 196.261719 185.84375 C 201.515625 186.316406 206.5625 187.421875 211.335938 189.078125 C 209.640625 190.46875 207.890625 191.804688 206.09375 193.082031 C 202.160156 190.621094 198.019531 188.714844 193.746094 187.464844 C 194.59375 186.9375 195.433594 186.398438 196.261719 185.84375 Z M 154.074219 200.367188 C 154.074219 200.363281 154.078125 200.367188 154.078125 200.363281 C 156.652344 200.175781 159.234375 199.871094 161.816406 199.445312 C 160.878906 202.554688 160.253906 206.171875 159.972656 210.238281 C 155.816406 210.648438 151.679688 210.785156 147.585938 210.660156 C 149.371094 206.835938 151.550781 203.382812 154.074219 200.367188 Z M 192.828125 188.027344 C 197.25 189.167969 201.539062 191 205.605469 193.425781 C 202.300781 195.738281 198.828125 197.847656 195.207031 199.742188 C 192.375 196.402344 189.476562 193.597656 186.574219 191.460938 C 188.71875 190.398438 190.804688 189.25 192.828125 188.027344 Z M 162.4375 199.339844 C 166.4375 198.65625 170.433594 197.679688 174.40625 196.402344 L 178.046875 206.703125 C 175.105469 207.578125 172.101562 208.320312 169.027344 208.917969 C 166.113281 209.484375 163.203125 209.910156 160.304688 210.207031 C 160.652344 206.078125 161.382812 202.433594 162.4375 199.339844 Z M 186.003906 191.734375 C 189 193.78125 192 196.546875 194.921875 199.894531 C 189.8125 202.550781 184.410156 204.765625 178.746094 206.492188 L 175.269531 196.117188 C 175.417969 196.066406 175.566406 196.023438 175.710938 195.972656 C 179.277344 194.761719 182.710938 193.339844 186.007812 191.734375 Z M 139.675781 210.53125 C 142.019531 210.777344 144.386719 210.9375 146.765625 211.011719 C 144.835938 215.472656 143.4375 220.40625 142.628906 225.714844 C 138.894531 225.515625 135.191406 225.125 131.527344 224.554688 C 133.632812 219.511719 136.386719 214.808594 139.675781 210.53125 Z M 211.71875 189.210938 C 216.304688 190.835938 220.632812 192.972656 224.640625 195.550781 C 222.265625 197.808594 219.78125 199.96875 217.199219 202.019531 C 213.832031 198.632812 210.199219 195.679688 206.359375 193.25 C 208.195312 191.960938 209.984375 190.617188 211.71875 189.210938 Z M 147.410156 211.027344 C 151.554688 211.132812 155.742188 210.976562 159.953125 210.542969 C 159.667969 214.957031 159.785156 219.886719 160.34375 225.246094 C 154.519531 225.871094 148.722656 226.023438 142.992188 225.738281 C 143.871094 220.410156 145.375 215.476562 147.410156 211.027344 Z M 205.878906 193.585938 C 209.796875 195.953125 213.5 198.871094 216.925781 202.234375 C 212.699219 205.570312 208.207031 208.617188 203.464844 211.328125 C 200.882812 207.09375 198.164062 203.257812 195.375 199.941406 C 199.03125 198.035156 202.535156 195.910156 205.878906 193.585938 Z M 160.28125 210.503906 C 163.09375 210.207031 165.917969 209.789062 168.746094 209.238281 C 171.945312 208.613281 175.070312 207.835938 178.128906 206.925781 L 182.894531 220.421875 C 180.398438 221.234375 177.859375 221.960938 175.269531 222.605469 C 170.355469 223.824219 165.421875 224.6875 160.515625 225.222656 C 159.996094 219.839844 159.929688 214.90625 160.28125 210.503906 Z M 195.09375 200.085938 C 197.929688 203.359375 200.695312 207.179688 203.316406 211.410156 C 197.074219 214.964844 190.40625 217.949219 183.359375 220.273438 L 178.820312 206.714844 C 184.511719 204.972656 189.953125 202.746094 195.09375 200.085938 Z M 131.308594 225.109375 C 135.015625 225.660156 138.769531 226.03125 142.554688 226.207031 C 141.917969 230.621094 141.695312 235.285156 141.929688 240.15625 C 141.96875 240.898438 142.015625 241.640625 142.074219 242.382812 C 137.058594 242.136719 132.105469 241.597656 127.242188 240.78125 C 127.914062 235.304688 129.304688 230.046875 131.308594 225.109375 Z M 224.988281 195.773438 C 229.503906 198.71875 233.597656 202.226562 237.175781 206.191406 C 234.0625 209.246094 230.792969 212.140625 227.378906 214.867188 C 224.457031 210.230469 221.117188 205.988281 217.453125 202.261719 C 220.066406 200.207031 222.582031 198.039062 224.988281 195.773438 Z M 142.914062 226.21875 C 148.679688 226.46875 154.515625 226.273438 160.378906 225.609375 C 160.652344 228.15625 161.023438 230.796875 161.5 233.523438 C 161.972656 236.246094 162.535156 238.964844 163.175781 241.671875 C 160.570312 241.976562 157.941406 242.195312 155.289062 242.339844 C 150.914062 242.578125 146.578125 242.589844 142.289062 242.386719 C 142.242188 241.714844 142.195312 241.042969 142.164062 240.367188 C 141.945312 235.421875 142.210938 230.6875 142.914062 226.21875 Z M 217.179688 202.484375 C 220.890625 206.167969 224.273438 210.378906 227.21875 214.996094 C 222.148438 219.03125 216.761719 222.691406 211.09375 225.929688 C 208.796875 220.804688 206.28125 215.972656 203.605469 211.5625 C 208.382812 208.847656 212.914062 205.816406 217.179688 202.484375 Z M 160.546875 225.589844 C 165.339844 225.039062 170.152344 224.179688 174.960938 222.988281 C 177.683594 222.3125 180.355469 221.535156 182.980469 220.679688 L 188.417969 236.070312 C 180.382812 238.742188 171.972656 240.636719 163.269531 241.660156 C 162.65625 239.035156 162.117188 236.398438 161.664062 233.757812 C 161.183594 230.9375 160.8125 228.210938 160.546875 225.589844 Z M 203.460938 211.644531 C 206.160156 216.03125 208.703125 220.855469 211.011719 225.980469 C 203.957031 230.003906 196.46875 233.375 188.625 236 L 183.445312 220.527344 C 190.503906 218.1875 197.191406 215.195312 203.460938 211.644531 Z M 203.460938 211.644531 " fill-opacity="1" fill-rule="nonzero"/></g><g clip-path="url(#id2)"><path fill="#000000" d="M 248.554688 173.179688 C 248.4375 172.976562 248.25 172.832031 248.027344 172.769531 L 244.527344 171.800781 L 244.660156 171.316406 C 244.789062 170.855469 244.515625 170.375 244.050781 170.246094 L 240.550781 169.277344 L 240.921875 167.949219 C 240.980469 167.726562 240.953125 167.488281 240.839844 167.285156 C 240.726562 167.085938 240.535156 166.9375 240.3125 166.875 L 205.382812 157.210938 L 205.6875 156.121094 C 205.816406 155.660156 205.542969 155.179688 205.078125 155.050781 L 155.730469 141.394531 L 156.722656 137.828125 C 156.785156 137.605469 156.753906 137.367188 156.640625 137.164062 C 156.527344 136.964844 156.335938 136.816406 156.113281 136.753906 L 146.960938 134.222656 C 146.496094 134.097656 146.015625 134.367188 145.886719 134.828125 L 138.773438 160.445312 C 138.644531 160.910156 138.917969 161.390625 139.382812 161.519531 L 148.535156 164.050781 C 148.613281 164.070312 148.691406 164.082031 148.769531 164.082031 C 148.917969 164.082031 149.066406 164.042969 149.199219 163.96875 C 149.398438 163.855469 149.546875 163.667969 149.609375 163.445312 L 150.601562 159.875 L 154.644531 160.996094 C 154.644531 160.996094 154.648438 160.996094 154.648438 160.996094 L 190.519531 170.921875 L 190.519531 185.410156 L 183.371094 185.410156 C 182.886719 185.410156 182.496094 185.800781 182.496094 186.28125 L 182.496094 191.285156 C 182.496094 191.765625 182.886719 192.15625 183.371094 192.15625 L 186.691406 192.15625 C 186.839844 193.65625 187.359375 195.046875 188.164062 196.230469 L 170.460938 225.863281 C 169.207031 227.960938 169.84375 230.632812 171.902344 231.945312 C 172.636719 232.410156 173.464844 232.652344 174.308594 232.652344 C 174.675781 232.652344 175.042969 232.605469 175.410156 232.515625 C 176.621094 232.210938 177.625 231.449219 178.238281 230.363281 L 191.515625 206.835938 L 191.515625 229.183594 C 191.515625 233.1875 193.667969 234.605469 195.511719 234.605469 C 197.355469 234.605469 199.507812 233.183594 199.507812 229.183594 L 199.507812 206.855469 L 212.777344 230.367188 C 213.390625 231.449219 214.394531 232.214844 215.605469 232.515625 C 215.972656 232.605469 216.339844 232.652344 216.707031 232.652344 C 217.550781 232.652344 218.378906 232.414062 219.113281 231.945312 C 221.171875 230.632812 221.808594 227.960938 220.554688 225.863281 L 202.855469 196.242188 C 203.664062 195.054688 204.1875 193.660156 204.335938 192.15625 L 207.644531 192.15625 C 208.128906 192.15625 208.515625 191.769531 208.515625 191.285156 L 208.515625 186.285156 C 208.515625 185.800781 208.128906 185.414062 207.644531 185.414062 L 205.714844 185.414062 L 205.714844 173.050781 L 236.25 181.5 C 236.332031 181.523438 236.410156 181.53125 236.488281 181.53125 C 236.867188 181.53125 237.21875 181.28125 237.328125 180.894531 L 237.695312 179.566406 L 241.195312 180.535156 C 241.273438 180.554688 241.351562 180.566406 241.429688 180.566406 C 241.8125 180.566406 242.164062 180.3125 242.269531 179.929688 L 242.402344 179.445312 L 245.90625 180.414062 C 245.984375 180.4375 246.0625 180.445312 246.140625 180.445312 C 246.519531 180.445312 246.871094 180.195312 246.980469 179.808594 L 248.636719 173.839844 C 248.695312 173.617188 248.667969 173.378906 248.554688 173.179688 Z M 208.816406 159.96875 L 205.6875 171.238281 L 201.789062 170.15625 L 204.917969 158.890625 Z M 203.472656 157.578125 C 203.46875 157.582031 203.46875 157.582031 203.46875 157.585938 L 199.875 170.53125 C 199.875 170.53125 199.875 170.535156 199.875 170.535156 L 199.574219 171.621094 L 155.953125 159.550781 L 160.152344 144.425781 L 203.773438 156.496094 Z M 148.160156 162.140625 L 140.6875 160.074219 L 147.335938 136.132812 L 154.808594 138.199219 L 153.816406 141.769531 L 149.152344 158.570312 C 149.152344 158.574219 149.152344 158.574219 149.152344 158.574219 Z M 155.265625 143.074219 L 158.46875 143.960938 L 154.269531 159.085938 L 151.066406 158.199219 Z M 176.714844 229.511719 C 176.339844 230.175781 175.726562 230.640625 174.988281 230.828125 C 174.246094 231.011719 173.484375 230.886719 172.839844 230.480469 C 171.582031 229.675781 171.191406 228.042969 171.957031 226.757812 L 189.355469 197.640625 C 189.992188 198.257812 190.71875 198.773438 191.515625 199.175781 L 191.515625 203.289062 Z M 195.511719 232.867188 C 194.125 232.867188 193.261719 231.453125 193.261719 229.183594 L 193.261719 199.835938 C 193.980469 200.023438 194.734375 200.136719 195.511719 200.136719 C 196.292969 200.136719 197.042969 200.027344 197.765625 199.835938 L 197.765625 203.542969 C 197.765625 203.574219 197.757812 203.601562 197.765625 203.632812 L 197.765625 229.183594 C 197.765625 231.453125 196.902344 232.867188 195.511719 232.867188 Z M 218.171875 230.476562 C 217.53125 230.886719 216.769531 231.011719 216.027344 230.828125 C 215.285156 230.640625 214.671875 230.175781 214.296875 229.511719 L 199.507812 203.304688 L 199.507812 199.175781 C 200.300781 198.773438 201.027344 198.257812 201.664062 197.648438 L 219.054688 226.757812 C 219.820312 228.039062 219.433594 229.675781 218.171875 230.476562 Z M 201.109375 195.667969 C 201.105469 195.671875 201.101562 195.675781 201.097656 195.679688 C 199.792969 197.332031 197.777344 198.394531 195.511719 198.394531 C 191.882812 198.394531 188.882812 195.667969 188.449219 192.160156 L 190.3125 192.160156 C 190.730469 194.648438 192.898438 196.554688 195.511719 196.554688 C 198.125 196.554688 200.292969 194.648438 200.710938 192.160156 L 202.574219 192.160156 C 202.414062 193.472656 201.890625 194.671875 201.109375 195.667969 Z M 192.101562 192.15625 L 198.921875 192.15625 C 198.53125 193.679688 197.15625 194.8125 195.511719 194.8125 C 193.867188 194.8125 192.492188 193.679688 192.101562 192.15625 Z M 206.773438 190.414062 L 184.242188 190.414062 L 184.242188 187.15625 L 206.773438 187.15625 Z M 203.96875 185.414062 L 192.265625 185.414062 L 192.265625 171.40625 L 199.945312 173.53125 C 200.023438 173.554688 200.101562 173.5625 200.179688 173.5625 C 200.328125 173.5625 200.476562 173.523438 200.609375 173.449219 C 200.8125 173.335938 200.957031 173.148438 201.019531 172.925781 L 201.324219 171.835938 L 203.96875 172.570312 Z M 207.371094 171.703125 L 210.5 160.433594 L 239.007812 168.320312 L 238.640625 169.648438 C 238.640625 169.648438 238.636719 169.648438 238.636719 169.652344 L 236.253906 178.238281 L 235.878906 179.589844 Z M 238.160156 177.886719 L 240.085938 170.953125 L 242.746094 171.691406 L 241.785156 175.15625 L 240.957031 178.140625 L 240.820312 178.621094 Z M 245.527344 178.503906 L 242.871094 177.765625 L 243.464844 175.621094 L 244.0625 173.476562 L 246.722656 174.214844 Z M 245.527344 178.503906 " fill-opacity="1" fill-rule="nonzero"/></g><path fill="#000000" d="M 198.46875 175.921875 C 196.359375 175.921875 194.644531 177.632812 194.644531 179.738281 C 194.644531 181.839844 196.359375 183.550781 198.46875 183.550781 C 200.574219 183.550781 202.289062 181.839844 202.289062 179.738281 C 202.289062 177.632812 200.574219 175.921875 198.46875 175.921875 Z M 198.46875 181.8125 C 197.324219 181.8125 196.390625 180.878906 196.390625 179.738281 C 196.390625 178.59375 197.324219 177.664062 198.46875 177.664062 C 199.613281 177.664062 200.546875 178.59375 200.546875 179.738281 C 200.546875 180.878906 199.613281 181.8125 198.46875 181.8125 Z M 198.46875 181.8125 " fill-opacity="1" fill-rule="nonzero"/></svg>