<?xml version="1.0" encoding="UTF-8" standalone="no"?>
<svg
   fill-rule="evenodd"
   stroke-linejoin="round"
   stroke-miterlimit="2"
   clip-rule="evenodd"
   viewBox="0 0 32 32"
   version="1.1"
   id="svg5596"
   sodipodi:docname="biomedik.svg"
   inkscape:version="1.1.2 (b8e25be833, 2022-02-05)"
   xmlns:inkscape="http://www.inkscape.org/namespaces/inkscape"
   xmlns:sodipodi="http://sodipodi.sourceforge.net/DTD/sodipodi-0.dtd"
   xmlns="http://www.w3.org/2000/svg"
   xmlns:svg="http://www.w3.org/2000/svg">
  <defs
     id="defs5600" />
  <sodipodi:namedview
     id="namedview5598"
     pagecolor="#ffffff"
     bordercolor="#666666"
     borderopacity="1.0"
     inkscape:pageshadow="2"
     inkscape:pageopacity="0.0"
     inkscape:pagecheckerboard="0"
     showgrid="false"
     inkscape:zoom="3.0880679"
     inkscape:cx="98.605345"
     inkscape:cy="-16.191354"
     inkscape:window-width="1366"
     inkscape:window-height="745"
     inkscape:window-x="-8"
     inkscape:window-y="-8"
     inkscape:window-maximized="1"
     inkscape:current-layer="svg5596" />
  <g
     id="g9804"
     transform="matrix(0.12207017,0,0,0.12207017,109.23374,-23.535364)" />
  <g
     style="isolation:isolate"
     id="g10517"
     transform="matrix(0.35898682,0,0,0.35898682,4.9595181,5.0640978)">
    <path
       fill-rule="evenodd"
       d="m 30.241,36.053 0.08,0.08 6.33,-6.33 v 0 c -0.994,-1.319 -1.539,-2.935 -1.539,-4.61 v 0 0 c 0,-2.032 0.802,-3.978 2.235,-5.422 1.444,-1.433 3.39,-2.246 5.422,-2.246 1.675,0 3.292,0.552 4.611,1.549 l 8.212,-8.212 -6.855,-6.866 -25.271,25.272 3.427,3.432 3.353,3.348 v 0 z M 14.931,56.56 H 3.777 v 0 0 0 6.235 H 60.223 V 56.56 H 22.3 Z M 48.907,29.744 c 3.968,6.28 6.087,13.567 6.097,21.009 0,1.219 -0.063,2.447 -0.182,3.668 h -4.323 c 0.118,-1.165 0.174,-2.336 0.174,-3.508 0,-6.563 -1.895,-12.975 -5.421,-18.488 1.096,-0.368 2.098,-0.99 2.929,-1.821 0.269,-0.267 0.516,-0.552 0.726,-0.86 z M 20.161,54.421 H 17.07 v -3.123 h 3.091 z M 22.3,49.159 h 5.732 v -3.09 H 9.199 v 0 0 3.09 h 5.732 z M 52.138,4.371 55.293,1.205 58.383,4.296 55.229,7.461 Z M 37.251,25.193 c 0,-1.465 0.578,-2.877 1.615,-3.904 1.037,-1.037 2.438,-1.625 3.903,-1.625 1.466,0 2.867,0.588 3.904,1.625 1.037,1.027 1.615,2.439 1.615,3.904 0,1.465 -0.578,2.866 -1.615,3.903 -1.037,1.038 -2.438,1.615 -3.904,1.615 -1.465,0 -2.866,-0.577 -3.903,-1.615 -1.037,-1.037 -1.615,-2.438 -1.615,-3.903 z M 27.22,36.048 25.626,37.652 21.947,33.973 23.541,32.38 Z"
       id="path10508" />
  </g>
</svg>
