<svg xmlns="http://www.w3.org/2000/svg" xmlns:xlink="http://www.w3.org/1999/xlink" width="500" zoomAndPan="magnify" viewBox="0 0 375 374.999991" height="500" preserveAspectRatio="xMidYMid meet" version="1.0"><defs><clipPath id="id1"><path d="M 128.34375 137 L 238 137 L 238 246.65625 L 128.34375 246.65625 Z M 128.34375 137 " clip-rule="nonzero"/></clipPath><clipPath id="id2"><path d="M 128.34375 223 L 152 223 L 152 245 L 128.34375 245 Z M 128.34375 223 " clip-rule="nonzero"/></clipPath><clipPath id="id3"><path d="M 181.640625 221.5625 L 203.570312 221.5625 L 203.570312 243.496094 L 181.640625 243.496094 Z M 181.640625 221.5625 " clip-rule="nonzero"/></clipPath><clipPath id="id4"><path d="M 192.605469 202.738281 L 231.332031 202.738281 L 231.332031 235.683594 L 192.605469 235.683594 Z M 192.605469 202.738281 " clip-rule="nonzero"/></clipPath></defs><rect x="-37.5" width="450" fill="#ffffff" y="-37.499999" height="449.999989" fill-opacity="1"/><rect x="-37.5" width="450" fill="#ffffff" y="-37.499999" height="449.999989" fill-opacity="1"/><rect x="-37.5" width="450" fill="#ffffff" y="-37.499999" height="449.999989" fill-opacity="1"/><g clip-path="url(#id1)"><path stroke-linecap="butt" transform="matrix(0.335292, 0.335292, -0.335292, 0.335292, 130.101368, -48.055821)" fill="none" stroke-linejoin="miter" d="M 410.627663 211.12773 L 463.985934 211.931599 L 463.112163 358.783347 L 436.433027 378.379114 L 409.753892 357.979478 Z M 410.627663 211.12773 " stroke="#000000" stroke-width="8.533" stroke-opacity="1" stroke-miterlimit="4"/></g><path stroke-linecap="round" transform="matrix(0.335292, 0.335292, -0.335292, 0.335292, 130.101368, -48.055821)" fill="none" stroke-linejoin="round" d="M 418.969261 149.567663 L 454.78804 149.573488 L 454.78804 211.692768 L 418.969261 211.686943 Z M 418.969261 149.567663 " stroke="#000000" stroke-width="8.379" stroke-opacity="1" stroke-miterlimit="4"/><path stroke-linecap="round" transform="matrix(0.335292, 0.335292, -0.335292, 0.335292, 130.101368, -48.055821)" fill="none" stroke-linejoin="round" d="M 379.841804 209.059805 L 493.921322 209.059805 " stroke="#000000" stroke-width="14.173" stroke-opacity="1" stroke-miterlimit="4"/><path stroke-linecap="round" transform="matrix(0.335292, 0.335292, -0.335292, 0.335292, 130.101368, -48.055821)" fill="none" stroke-linejoin="round" d="M 389.930945 149.060876 L 483.820531 149.060876 " stroke="#000000" stroke-width="12.858" stroke-opacity="1" stroke-miterlimit="4"/><path stroke-linecap="round" transform="matrix(0.335292, 0.335292, -0.335292, 0.335292, 130.101368, -48.055821)" fill="none" stroke-linejoin="miter" d="M 410.709215 233.857421 L 430.567113 233.863246 " stroke="#000000" stroke-width="7.087" stroke-opacity="1" stroke-miterlimit="4"/><path stroke-linecap="round" transform="matrix(0.335292, 0.335292, -0.335292, 0.335292, 130.101368, -48.055821)" fill="none" stroke-linejoin="miter" d="M 410.709215 269.285915 L 430.567113 269.29174 " stroke="#000000" stroke-width="7.087" stroke-opacity="1" stroke-miterlimit="4"/><path stroke-linecap="round" transform="matrix(0.335292, 0.335292, -0.335292, 0.335292, 130.101368, -48.055821)" fill="none" stroke-linejoin="miter" d="M 410.709215 251.565843 L 430.567113 251.571668 " stroke="#000000" stroke-width="7.087" stroke-opacity="1" stroke-miterlimit="4"/><path stroke-linecap="round" transform="matrix(0.335292, 0.335292, -0.335292, 0.335292, 130.101368, -48.055821)" fill="none" stroke-linejoin="miter" d="M 410.709215 287.005987 L 430.567113 287.011813 " stroke="#000000" stroke-width="7.087" stroke-opacity="1" stroke-miterlimit="4"/><path stroke-linecap="round" transform="matrix(0.335292, 0.335292, -0.335292, 0.335292, 130.101368, -48.055821)" fill="none" stroke-linejoin="miter" d="M 410.71504 322.440307 L 430.567113 322.440307 " stroke="#000000" stroke-width="7.087" stroke-opacity="1" stroke-miterlimit="4"/><path stroke-linecap="round" transform="matrix(0.335292, 0.335292, -0.335292, 0.335292, 130.101368, -48.055821)" fill="none" stroke-linejoin="miter" d="M 410.71504 304.720234 L 430.567113 304.720234 " stroke="#000000" stroke-width="7.087" stroke-opacity="1" stroke-miterlimit="4"/><g clip-path="url(#id2)"><path fill="#000000" d="M 149.566406 223.140625 L 151.863281 225.4375 L 133.996094 243.304688 L 128.34375 244.359375 Z M 149.566406 223.140625 " fill-opacity="1" fill-rule="nonzero"/></g><g clip-path="url(#id3)"><path fill="#000000" d="M 202.496094 232.65625 C 202.496094 232.988281 202.472656 233.316406 202.441406 233.644531 L 182.480469 233.644531 C 182.445312 233.320312 182.425781 232.988281 182.425781 232.65625 C 182.425781 232.324219 182.445312 231.996094 182.480469 231.671875 L 202.441406 231.671875 C 202.472656 231.996094 202.496094 232.324219 202.496094 232.65625 Z M 203.183594 231.226562 C 202.480469 225.863281 197.871094 221.820312 192.460938 221.820312 C 187.050781 221.820312 182.441406 225.863281 181.738281 231.226562 C 181.738281 231.242188 181.738281 231.261719 181.734375 231.277344 C 181.671875 231.730469 181.640625 232.191406 181.640625 232.65625 C 181.640625 233.125 181.671875 233.585938 181.734375 234.035156 C 181.738281 234.054688 181.738281 234.070312 181.738281 234.085938 C 182.441406 239.449219 187.050781 243.496094 192.460938 243.496094 C 197.871094 243.496094 202.480469 239.449219 203.183594 234.089844 C 203.183594 234.074219 203.1875 234.054688 203.1875 234.039062 C 203.1875 234.035156 203.1875 234.035156 203.1875 234.035156 C 203.246094 233.585938 203.28125 233.121094 203.28125 232.65625 C 203.28125 232.171875 203.246094 231.691406 203.183594 231.226562 " fill-opacity="1" fill-rule="nonzero"/></g><g clip-path="url(#id4)"><path fill="#000000" d="M 214.644531 232.996094 C 212.523438 235.109375 209.078125 235.101562 206.96875 232.976562 L 205.757812 231.753906 C 204.734375 230.726562 204.171875 229.359375 204.179688 227.90625 C 204.183594 226.453125 204.75 225.089844 205.78125 224.066406 L 206.925781 222.925781 C 206.929688 222.921875 206.929688 222.921875 206.933594 222.917969 L 208.5 221.355469 C 208.511719 221.347656 208.523438 221.335938 208.535156 221.324219 L 212.660156 217.222656 L 221.515625 226.152344 Z M 200.828125 204.238281 C 202.84375 205.171875 204.980469 206.890625 206.847656 209.078125 C 209.363281 212.027344 210.945312 215.335938 211.007812 217.757812 L 208.117188 220.636719 C 205.707031 220.386719 202.464844 218.242188 199.800781 215.113281 C 196.078125 210.753906 194.550781 205.6875 196.457031 204.050781 C 197.34375 203.292969 198.933594 203.363281 200.828125 204.238281 Z M 231.332031 214.910156 C 231.335938 213.25 230.695312 211.683594 229.527344 210.503906 L 228.320312 209.289062 C 227.148438 208.109375 225.59375 207.460938 223.933594 207.457031 C 223.925781 207.457031 223.921875 207.457031 223.914062 207.457031 C 222.261719 207.457031 220.707031 208.097656 219.535156 209.265625 L 212.390625 216.382812 C 212.386719 216.382812 212.382812 216.386719 212.382812 216.386719 C 212.378906 216.390625 212.378906 216.390625 212.375 216.394531 L 211.734375 217.035156 C 211.421875 214.53125 209.835938 211.375 207.441406 208.566406 C 205.503906 206.296875 203.269531 204.507812 201.15625 203.527344 C 198.941406 202.503906 197.09375 202.476562 195.949219 203.453125 C 195.949219 203.457031 195.949219 203.457031 195.949219 203.457031 L 194.097656 205.039062 C 191.789062 207.019531 193.214844 212.363281 197.351562 217.207031 C 200.035156 220.355469 203.246094 222.511719 205.792969 222.949219 L 205.226562 223.511719 C 204.050781 224.683594 203.402344 226.242188 203.394531 227.90625 C 203.390625 229.566406 204.03125 231.128906 205.203125 232.308594 L 206.414062 233.527344 C 207.625 234.75 209.21875 235.359375 210.816406 235.359375 C 212.402344 235.359375 213.988281 234.757812 215.199219 233.554688 L 222.347656 226.429688 L 229.5 219.304688 C 230.679688 218.132812 231.328125 216.574219 231.332031 214.910156 " fill-opacity="1" fill-rule="nonzero"/></g></svg>