<svg xmlns="http://www.w3.org/2000/svg" xmlns:xlink="http://www.w3.org/1999/xlink" width="500" zoomAndPan="magnify" viewBox="0 0 375 374.999991" height="500" preserveAspectRatio="xMidYMid meet" version="1.0"><defs><clipPath id="id1"><path d="M 112.5 121.5 L 237.75 121.5 L 237.75 231.75 L 112.5 231.75 Z M 112.5 121.5 " clip-rule="nonzero"/></clipPath><clipPath id="id2"><path d="M 188 121.5 L 217 121.5 L 217 134 L 188 134 Z M 188 121.5 " clip-rule="nonzero"/></clipPath><clipPath id="id3"><path d="M 202 192 L 203 192 L 203 193 L 202 193 Z M 202 192 " clip-rule="nonzero"/></clipPath><clipPath id="id4"><path d="M 202 295 L 203 295 L 203 296.25 L 202 296.25 Z M 202 295 " clip-rule="nonzero"/></clipPath><clipPath id="id5"><path d="M 152.066406 267.964844 L 253.242188 267.964844 L 253.242188 292.257812 L 152.066406 292.257812 Z M 152.066406 267.964844 " clip-rule="nonzero"/></clipPath><clipPath id="id6"><path d="M 155 192 L 249 192 L 249 226 L 155 226 Z M 155 192 " clip-rule="nonzero"/></clipPath><clipPath id="id7"><path d="M 152.027344 192 L 201 192 L 201 234 L 152.027344 234 Z M 152.027344 192 " clip-rule="nonzero"/></clipPath><clipPath id="id8"><path d="M 153 192 L 205 192 L 205 235 L 153 235 Z M 153 192 " clip-rule="nonzero"/></clipPath><clipPath id="id9"><path d="M 158 192 L 210 192 L 210 235 L 158 235 Z M 158 192 " clip-rule="nonzero"/></clipPath><clipPath id="id10"><path d="M 163 192 L 215 192 L 215 235 L 163 235 Z M 163 192 " clip-rule="nonzero"/></clipPath><clipPath id="id11"><path d="M 169 192 L 221 192 L 221 235 L 169 235 Z M 169 192 " clip-rule="nonzero"/></clipPath><clipPath id="id12"><path d="M 174 192 L 226 192 L 226 234 L 174 234 Z M 174 192 " clip-rule="nonzero"/></clipPath><clipPath id="id13"><path d="M 184 192 L 236 192 L 236 235 L 184 235 Z M 184 192 " clip-rule="nonzero"/></clipPath><clipPath id="id14"><path d="M 179 192 L 231 192 L 231 234 L 179 234 Z M 179 192 " clip-rule="nonzero"/></clipPath><clipPath id="id15"><path d="M 189 192 L 241 192 L 241 235 L 189 235 Z M 189 192 " clip-rule="nonzero"/></clipPath><clipPath id="id16"><path d="M 193 192 L 246 192 L 246 235 L 193 235 Z M 193 192 " clip-rule="nonzero"/></clipPath><clipPath id="id17"><path d="M 198 192 L 251 192 L 251 235 L 198 235 Z M 198 192 " clip-rule="nonzero"/></clipPath><clipPath id="id18"><path d="M 203.65625 192 L 253.242188 192 L 253.242188 234.085938 L 203.65625 234.085938 Z M 203.65625 192 " clip-rule="nonzero"/></clipPath><clipPath id="id19"><path d="M 154 263 L 197 263 L 197 296.25 L 154 296.25 Z M 154 263 " clip-rule="nonzero"/></clipPath></defs><rect x="-37.5" width="450" fill="#ffffff" y="-37.499999" height="449.999989" fill-opacity="1"/><rect x="-37.5" width="450" fill="#ffffff" y="-37.499999" height="449.999989" fill-opacity="1"/><rect x="-37.5" width="450" fill="#ffffff" y="-37.499999" height="449.999989" fill-opacity="1"/><g clip-path="url(#id1)"><path fill="#100f0d" d="M 144.03125 202.480469 C 144.882812 200.539062 145.101562 198.59375 144.671875 196.671875 C 144.003906 193.675781 141.917969 191.527344 140.527344 190.375 L 157.0625 181.015625 L 157.0625 202.480469 Z M 141.054688 202.480469 L 119.136719 202.480469 L 138.015625 191.800781 C 138.714844 192.273438 141.429688 194.285156 142.089844 197.265625 C 142.453125 198.941406 142.101562 200.691406 141.054688 202.480469 Z M 236.273438 202.480469 L 159.714844 202.480469 L 159.714844 179.511719 L 160.414062 179.117188 C 166.6875 178.203125 171.597656 173.101562 172.203125 166.726562 L 228.492188 166.726562 L 228.367188 171.828125 L 234.949219 165.554688 L 228.675781 158.976562 L 228.554688 164.070312 L 172.203125 164.070312 C 171.535156 157.027344 165.609375 151.519531 158.390625 151.519531 C 156.054688 151.519531 153.851562 152.097656 151.917969 153.121094 L 134.917969 125.808594 L 138.964844 122.867188 L 129.988281 121.445312 L 128.5625 130.421875 L 132.765625 127.371094 L 149.699219 154.582031 C 146.539062 157.125 144.511719 161.023438 144.511719 165.398438 C 144.511719 172.023438 149.148438 177.546875 155.347656 178.9375 L 113.445312 202.65625 C 112.925781 202.949219 112.667969 203.5625 112.816406 204.148438 C 112.96875 204.730469 113.496094 205.132812 114.101562 205.132812 L 157.0625 205.132812 L 157.0625 225.277344 L 151.96875 225.378906 L 158.519531 231.679688 L 164.816406 225.125 L 159.714844 225.222656 L 159.714844 205.132812 L 236.273438 205.132812 C 237.003906 205.132812 237.601562 204.539062 237.601562 203.808594 C 237.601562 203.074219 237.003906 202.480469 236.273438 202.480469 " fill-opacity="1" fill-rule="nonzero"/></g><path fill="#100f0d" d="M 208.027344 138.996094 C 208.757812 138.996094 209.355469 138.40625 209.355469 137.671875 C 209.355469 136.941406 208.757812 136.34375 208.027344 136.34375 L 195.351562 136.34375 C 194.613281 136.34375 194.023438 136.941406 194.023438 137.671875 L 194.023438 157.023438 C 194.023438 157.753906 194.613281 158.351562 195.351562 158.351562 C 196.082031 158.351562 196.675781 157.753906 196.675781 157.023438 L 196.675781 148.675781 L 208.027344 148.675781 C 208.757812 148.675781 209.355469 148.078125 209.355469 147.347656 C 209.355469 146.617188 208.757812 146.019531 208.027344 146.019531 L 196.675781 146.019531 L 196.675781 138.996094 L 208.027344 138.996094 " fill-opacity="1" fill-rule="nonzero"/><g clip-path="url(#id2)"><path fill="#100f0d" d="M 189.558594 128.898438 L 211.304688 128.898438 L 211.203125 133.234375 L 216.996094 127.707031 L 211.476562 121.90625 L 211.367188 126.242188 L 189.558594 126.242188 C 188.824219 126.242188 188.230469 126.839844 188.230469 127.570312 C 188.230469 128.300781 188.824219 128.898438 189.558594 128.898438 " fill-opacity="1" fill-rule="nonzero"/></g><g clip-path="url(#id3)"><path stroke-linecap="butt" transform="matrix(0.0114649, 0, 0, -0.0114059, 152.065175, 296.249981)" fill="none" stroke-linejoin="miter" d="M 4396.353829 9139.9991 L 4396.353829 9080.065791 " stroke="#211d1d" stroke-width="30" stroke-opacity="1" stroke-miterlimit="10"/></g><path fill="#211d1d" d="M 202.296875 194.054688 L 202.296875 195.429688 L 202.640625 195.429688 L 202.640625 194.054688 M 202.296875 196.800781 L 202.296875 198.171875 L 202.640625 198.171875 L 202.640625 196.800781 M 202.296875 199.542969 L 202.296875 200.914062 L 202.640625 200.914062 L 202.640625 199.542969 M 202.296875 202.285156 L 202.296875 203.660156 L 202.640625 203.660156 L 202.640625 202.285156 M 202.296875 205.03125 L 202.296875 206.402344 L 202.640625 206.402344 L 202.640625 205.03125 M 202.296875 207.773438 L 202.296875 209.144531 L 202.640625 209.144531 L 202.640625 207.773438 M 202.296875 210.515625 L 202.296875 211.890625 L 202.640625 211.890625 L 202.640625 210.515625 M 202.296875 213.261719 L 202.296875 214.632812 L 202.640625 214.632812 L 202.640625 213.261719 M 202.296875 216.003906 L 202.296875 217.375 L 202.640625 217.375 L 202.640625 216.003906 M 202.296875 218.746094 L 202.296875 220.121094 L 202.640625 220.121094 L 202.640625 218.746094 M 202.296875 221.492188 L 202.296875 222.863281 L 202.640625 222.863281 L 202.640625 221.492188 M 202.296875 224.234375 L 202.296875 225.605469 L 202.640625 225.605469 L 202.640625 224.234375 M 202.296875 226.976562 L 202.296875 228.351562 L 202.640625 228.351562 L 202.640625 226.976562 M 202.296875 229.722656 L 202.296875 231.09375 L 202.640625 231.09375 L 202.640625 229.722656 M 202.296875 232.464844 L 202.296875 233.835938 L 202.640625 233.835938 L 202.640625 232.464844 M 202.296875 235.207031 L 202.296875 236.582031 L 202.640625 236.582031 L 202.640625 235.207031 M 202.296875 237.953125 L 202.296875 239.324219 L 202.640625 239.324219 L 202.640625 237.953125 M 202.296875 240.695312 L 202.296875 242.066406 L 202.640625 242.066406 L 202.640625 240.695312 M 202.296875 243.4375 L 202.296875 244.8125 L 202.640625 244.8125 L 202.640625 243.4375 M 202.296875 246.183594 L 202.296875 247.554688 L 202.640625 247.554688 L 202.640625 246.183594 M 202.296875 248.925781 L 202.296875 250.296875 L 202.640625 250.296875 L 202.640625 248.925781 M 202.296875 251.667969 L 202.296875 253.042969 L 202.640625 253.042969 L 202.640625 251.667969 M 202.296875 254.414062 L 202.296875 255.785156 L 202.640625 255.785156 L 202.640625 254.414062 M 202.296875 257.15625 L 202.296875 258.527344 L 202.640625 258.527344 L 202.640625 257.15625 M 202.296875 259.898438 L 202.296875 261.273438 L 202.640625 261.273438 L 202.640625 259.898438 M 202.296875 262.644531 L 202.296875 264.015625 L 202.640625 264.015625 L 202.640625 262.644531 M 202.296875 265.386719 L 202.296875 266.757812 L 202.640625 266.757812 L 202.640625 265.386719 M 202.296875 268.132812 L 202.296875 269.503906 L 202.640625 269.503906 L 202.640625 268.132812 M 202.296875 270.875 L 202.296875 272.246094 L 202.640625 272.246094 L 202.640625 270.875 M 202.296875 273.617188 L 202.296875 274.988281 L 202.640625 274.988281 L 202.640625 273.617188 M 202.296875 276.363281 L 202.296875 277.734375 L 202.640625 277.734375 L 202.640625 276.363281 M 202.296875 279.105469 L 202.296875 280.476562 L 202.640625 280.476562 L 202.640625 279.105469 M 202.296875 281.847656 L 202.296875 283.21875 L 202.640625 283.21875 L 202.640625 281.847656 M 202.296875 284.59375 L 202.296875 285.964844 L 202.640625 285.964844 L 202.640625 284.59375 M 202.296875 287.335938 L 202.296875 288.707031 L 202.640625 288.707031 L 202.640625 287.335938 M 202.296875 290.078125 L 202.296875 291.449219 L 202.640625 291.449219 L 202.640625 290.078125 M 202.296875 292.824219 L 202.296875 294.195312 L 202.640625 294.195312 L 202.640625 292.824219 " fill-opacity="1" fill-rule="nonzero"/><g clip-path="url(#id4)"><path stroke-linecap="butt" transform="matrix(0.0114649, 0, 0, -0.0114059, 152.065175, 296.249981)" fill="none" stroke-linejoin="miter" d="M 4396.353829 59.931603 L 4396.353829 -0.00170559 " stroke="#211d1d" stroke-width="30" stroke-opacity="1" stroke-miterlimit="10"/></g><g clip-path="url(#id5)"><path stroke-linecap="butt" transform="matrix(0.0114649, 0, 0, -0.0114059, 152.065175, 296.249981)" fill="none" stroke-linejoin="miter" d="M 6.580952 2194.92711 C 6.580952 2194.92711 4134.343599 -1310.31496 8818.834614 2194.92711 " stroke="#211d1d" stroke-width="20" stroke-opacity="1" stroke-miterlimit="10"/></g><g clip-path="url(#id6)"><path stroke-linecap="butt" transform="matrix(0.0114649, 0, 0, -0.0114059, 152.065175, 296.249981)" fill="none" stroke-linejoin="miter" d="M 1611.689616 7436.52323 L 1840.990854 7927.976361 L 7181.018042 7927.976361 L 6984.425451 7436.52323 Z M 1611.689616 7436.52323 " stroke="#211d1d" stroke-width="90" stroke-opacity="1" stroke-miterlimit="10"/></g><g clip-path="url(#id7)"><path stroke-linecap="butt" transform="matrix(0.0114649, 0, 0, -0.0114059, 152.065175, 296.249981)" fill="none" stroke-linejoin="miter" d="M 1681.876919 7441.660371 L 2202.148821 7921.12684 " stroke="#211d1d" stroke-width="140" stroke-opacity="1" stroke-miterlimit="10"/></g><g clip-path="url(#id8)"><path stroke-linecap="butt" transform="matrix(0.0114649, 0, 0, -0.0114059, 152.065175, 296.249981)" fill="none" stroke-linejoin="miter" d="M 2110.155754 7433.440946 L 2634.516236 7917.017128 " stroke="#211d1d" stroke-width="140" stroke-opacity="1" stroke-miterlimit="10"/></g><g clip-path="url(#id9)"><path stroke-linecap="butt" transform="matrix(0.0114649, 0, 0, -0.0114059, 152.065175, 296.249981)" fill="none" stroke-linejoin="miter" d="M 2548.315325 7433.783422 L 3065.180076 7920.784364 " stroke="#211d1d" stroke-width="140" stroke-opacity="1" stroke-miterlimit="10"/></g><g clip-path="url(#id10)"><path stroke-linecap="butt" transform="matrix(0.0114649, 0, 0, -0.0114059, 152.065175, 296.249981)" fill="none" stroke-linejoin="miter" d="M 2981.364171 7433.440946 L 3498.228922 7920.784364 " stroke="#211d1d" stroke-width="140" stroke-opacity="1" stroke-miterlimit="10"/></g><g clip-path="url(#id11)"><path stroke-linecap="butt" transform="matrix(0.0114649, 0, 0, -0.0114059, 152.065175, 296.249981)" fill="none" stroke-linejoin="miter" d="M 3493.799626 7436.52323 L 4018.841539 7920.441888 " stroke="#211d1d" stroke-width="140" stroke-opacity="1" stroke-miterlimit="10"/></g><g clip-path="url(#id12)"><path stroke-linecap="butt" transform="matrix(0.0114649, 0, 0, -0.0114059, 152.065175, 296.249981)" fill="none" stroke-linejoin="miter" d="M 3920.03417 7441.660371 L 4454.27539 7917.017128 " stroke="#211d1d" stroke-width="140" stroke-opacity="1" stroke-miterlimit="10"/></g><path stroke-linecap="butt" transform="matrix(0.0114649, 0, 0, -0.0114059, 152.065175, 296.249981)" fill="none" stroke-linejoin="miter" d="M 4864.837041 7920.099412 L 4348.313005 7433.440946 L 2372.165637 1898.685512 " stroke="#211d1d" stroke-width="60" stroke-opacity="1" stroke-miterlimit="10"/><g clip-path="url(#id13)"><path stroke-linecap="butt" transform="matrix(0.0114649, 0, 0, -0.0114059, 152.065175, 296.249981)" fill="none" stroke-linejoin="miter" d="M 4781.702566 7433.440946 L 5297.885887 7920.099412 " stroke="#211d1d" stroke-width="140" stroke-opacity="1" stroke-miterlimit="10"/></g><g clip-path="url(#id14)"><path stroke-linecap="butt" transform="matrix(0.0114649, 0, 0, -0.0114059, 152.065175, 296.249981)" fill="none" stroke-linejoin="miter" d="M 4369.437339 7438.920563 L 4885.62066 7925.579029 " stroke="#211d1d" stroke-width="140" stroke-opacity="1" stroke-miterlimit="10"/></g><g clip-path="url(#id15)"><path stroke-linecap="butt" transform="matrix(0.0114649, 0, 0, -0.0114059, 152.065175, 296.249981)" fill="none" stroke-linejoin="miter" d="M 5205.89282 7433.440946 L 5723.098286 7921.469316 " stroke="#211d1d" stroke-width="140" stroke-opacity="1" stroke-miterlimit="10"/></g><g clip-path="url(#id16)"><path stroke-linecap="butt" transform="matrix(0.0114649, 0, 0, -0.0114059, 152.065175, 296.249981)" fill="none" stroke-linejoin="miter" d="M 5631.786649 7433.440946 L 6169.094304 7921.12684 " stroke="#211d1d" stroke-width="140" stroke-opacity="1" stroke-miterlimit="10"/></g><g clip-path="url(#id17)"><path stroke-linecap="butt" transform="matrix(0.0114649, 0, 0, -0.0114059, 152.065175, 296.249981)" fill="none" stroke-linejoin="miter" d="M 6056.317618 7435.153326 L 6593.965988 7922.496744 " stroke="#211d1d" stroke-width="140" stroke-opacity="1" stroke-miterlimit="10"/></g><g clip-path="url(#id18)"><path stroke-linecap="butt" transform="matrix(0.0114649, 0, 0, -0.0114059, 152.065175, 296.249981)" fill="none" stroke-linejoin="miter" d="M 6482.551619 7435.1527 L 7014.407789 7926.263314 " stroke="#211d1d" stroke-width="140" stroke-opacity="1" stroke-miterlimit="10"/></g><path stroke-linecap="butt" transform="matrix(0.0114649, 0, 0, -0.0114059, 152.065175, 296.249981)" fill="none" stroke-linejoin="miter" d="M 6881.188786 7433.440946 L 7030.762699 7574.541078 " stroke="#211d1d" stroke-width="40" stroke-opacity="1" stroke-miterlimit="10"/><g clip-path="url(#id19)"><path stroke-linecap="butt" transform="matrix(0.0114649, 0, 0, -0.0114059, 152.065175, 296.249981)" fill="none" stroke-linejoin="miter" d="M 2989.541332 1030.508727 C 2989.541332 506.177895 2564.669648 81.165118 2040.309166 81.165118 C 1515.948683 81.165118 1091.076999 506.177895 1091.076999 1030.508727 C 1091.076999 1554.839559 1515.948683 1979.852336 2040.309166 1979.852336 C 2564.669648 1979.852336 2989.541332 1554.839559 2989.541332 1030.508727 Z M 2989.541332 1030.508727 " stroke="#211d1d" stroke-width="60" stroke-opacity="1" stroke-miterlimit="10"/></g><path stroke-linecap="butt" transform="matrix(0.0114649, 0, 0, -0.0114059, 152.065175, 296.249981)" fill="none" stroke-linejoin="miter" d="M 4505.382649 7394.398676 L 4524.803408 7337.547652 " stroke="#211d1d" stroke-width="30" stroke-opacity="1" stroke-miterlimit="10"/><path fill="#211d1d" d="M 204.226562 213.929688 L 204.679688 215.246094 L 205.003906 215.136719 L 204.554688 213.820312 M 205.128906 216.5625 L 205.578125 217.875 L 205.902344 217.765625 L 205.453125 216.449219 M 206.027344 219.191406 L 206.476562 220.507812 L 206.800781 220.398438 L 206.351562 219.082031 M 206.925781 221.824219 L 207.375 223.140625 L 207.699219 223.027344 L 207.25 221.714844 M 207.824219 224.453125 L 208.273438 225.769531 L 208.601562 225.660156 L 208.152344 224.34375 M 208.722656 227.085938 L 209.171875 228.402344 L 209.5 228.292969 L 209.050781 226.976562 M 209.625 229.71875 L 210.074219 231.03125 L 210.398438 230.921875 L 209.949219 229.605469 M 210.523438 232.347656 L 210.972656 233.664062 L 211.296875 233.554688 L 210.847656 232.238281 M 211.421875 234.980469 L 211.871094 236.292969 L 212.195312 236.183594 L 211.746094 234.871094 M 212.320312 237.609375 L 212.769531 238.925781 L 213.09375 238.816406 L 212.644531 237.5 M 213.21875 240.242188 L 213.667969 241.558594 L 213.996094 241.445312 L 213.546875 240.132812 M 214.117188 242.871094 L 214.566406 244.1875 L 214.894531 244.078125 L 214.445312 242.761719 M 215.019531 245.503906 L 215.46875 246.820312 L 215.792969 246.710938 L 215.34375 245.394531 M 215.917969 248.136719 L 216.367188 249.449219 L 216.691406 249.339844 L 216.242188 248.023438 M 216.816406 250.765625 L 217.265625 252.082031 L 217.589844 251.972656 L 217.140625 250.65625 M 217.714844 253.398438 L 218.164062 254.714844 L 218.492188 254.601562 L 218.039062 253.289062 M 218.613281 256.027344 L 219.0625 257.34375 L 219.390625 257.234375 L 218.941406 255.917969 M 219.511719 258.660156 L 219.964844 259.976562 L 220.289062 259.867188 L 219.839844 258.550781 M 220.414062 261.292969 L 220.863281 262.605469 L 221.1875 262.496094 L 220.738281 261.179688 M 221.3125 263.921875 L 221.761719 265.238281 L 222.085938 265.128906 L 221.636719 263.8125 M 222.210938 266.554688 L 222.660156 267.867188 L 222.984375 267.757812 L 222.535156 266.441406 M 223.109375 269.183594 L 223.558594 270.5 L 223.886719 270.390625 L 223.4375 269.074219 M 224.007812 271.816406 L 224.457031 273.132812 L 224.785156 273.019531 L 224.335938 271.707031 " fill-opacity="1" fill-rule="nonzero"/><path stroke-linecap="butt" transform="matrix(0.0114649, 0, 0, -0.0114059, 152.065175, 296.249981)" fill="none" stroke-linejoin="miter" d="M 6367.731186 1916.494267 L 6387.151945 1859.643242 " stroke="#211d1d" stroke-width="30" stroke-opacity="1" stroke-miterlimit="10"/><path fill="#211d1d" d="M 218.71875 287.722656 C 218.832031 288.179688 218.976562 288.625 219.144531 289.0625 L 219.464844 288.9375 C 219.300781 288.515625 219.164062 288.082031 219.054688 287.640625 Z M 219.734375 290.339844 C 219.957031 290.753906 220.207031 291.148438 220.480469 291.53125 L 220.757812 291.332031 C 220.496094 290.964844 220.253906 290.578125 220.035156 290.175781 Z M 221.371094 292.621094 C 221.695312 292.964844 222.035156 293.285156 222.398438 293.585938 L 222.617188 293.320312 C 222.269531 293.03125 221.9375 292.722656 221.625 292.386719 Z M 223.546875 294.40625 C 223.949219 294.65625 224.363281 294.875 224.792969 295.066406 L 224.933594 294.753906 C 224.519531 294.570312 224.117188 294.355469 223.726562 294.117188 Z M 226.121094 295.550781 C 226.574219 295.679688 227.035156 295.777344 227.503906 295.84375 L 227.550781 295.503906 C 227.101562 295.441406 226.65625 295.347656 226.21875 295.21875 Z M 228.914062 295.941406 C 229.390625 295.941406 229.859375 295.90625 230.328125 295.84375 L 230.277344 295.503906 C 229.828125 295.566406 229.375 295.597656 228.914062 295.597656 Z M 231.710938 295.550781 C 232.164062 295.417969 232.605469 295.257812 233.039062 295.066406 L 232.898438 294.753906 C 232.480469 294.9375 232.050781 295.09375 231.613281 295.21875 Z M 234.285156 294.40625 C 234.683594 294.160156 235.066406 293.886719 235.433594 293.585938 L 235.210938 293.320312 C 234.859375 293.613281 234.488281 293.875 234.105469 294.117188 Z M 236.460938 292.621094 C 236.78125 292.277344 237.078125 291.914062 237.351562 291.53125 L 237.070312 291.332031 C 236.804688 291.703125 236.515625 292.054688 236.207031 292.386719 Z M 238.097656 290.339844 C 238.320312 289.925781 238.515625 289.5 238.6875 289.0625 L 238.367188 288.941406 C 238.203125 289.363281 238.011719 289.777344 237.796875 290.175781 Z M 239.113281 287.722656 C 239.226562 287.269531 239.308594 286.808594 239.367188 286.34375 L 239.027344 286.300781 C 238.96875 286.753906 238.886719 287.199219 238.777344 287.640625 Z M 239.453125 284.941406 C 239.453125 284.46875 239.421875 284.003906 239.367188 283.539062 L 239.027344 283.582031 C 239.082031 284.03125 239.109375 284.484375 239.109375 284.941406 Z M 239.113281 282.160156 C 239 281.703125 238.855469 281.257812 238.6875 280.820312 L 238.367188 280.941406 C 238.53125 281.367188 238.667969 281.800781 238.777344 282.242188 Z M 238.097656 279.542969 C 237.875 279.128906 237.625 278.730469 237.351562 278.351562 L 237.074219 278.550781 C 237.335938 278.917969 237.578125 279.304688 237.796875 279.703125 Z M 236.460938 277.261719 C 236.136719 276.917969 235.792969 276.59375 235.433594 276.296875 L 235.214844 276.5625 C 235.5625 276.847656 235.894531 277.160156 236.207031 277.496094 Z M 234.285156 275.476562 C 233.882812 275.226562 233.46875 275.007812 233.039062 274.816406 L 232.898438 275.128906 C 233.3125 275.3125 233.714844 275.523438 234.105469 275.765625 Z M 231.710938 274.332031 C 231.253906 274.203125 230.792969 274.105469 230.328125 274.039062 L 230.277344 274.378906 C 230.730469 274.441406 231.175781 274.535156 231.613281 274.660156 Z M 228.914062 273.941406 C 228.441406 273.941406 227.972656 273.972656 227.503906 274.039062 L 227.550781 274.378906 C 228.003906 274.316406 228.457031 274.285156 228.914062 274.285156 Z M 226.121094 274.332031 C 225.667969 274.460938 225.226562 274.621094 224.792969 274.816406 L 224.933594 275.128906 C 225.351562 274.941406 225.78125 274.785156 226.21875 274.660156 Z M 223.546875 275.476562 C 223.148438 275.722656 222.765625 275.996094 222.398438 276.296875 L 222.617188 276.558594 C 222.972656 276.269531 223.339844 276.003906 223.726562 275.765625 Z M 221.371094 277.261719 C 221.050781 277.605469 220.753906 277.96875 220.480469 278.351562 L 220.757812 278.550781 C 221.027344 278.179688 221.3125 277.828125 221.625 277.496094 Z M 219.734375 279.542969 C 219.511719 279.953125 219.3125 280.378906 219.144531 280.820312 L 219.464844 280.941406 C 219.628906 280.515625 219.820312 280.105469 220.035156 279.703125 Z M 218.71875 282.160156 C 218.605469 282.613281 218.519531 283.074219 218.464844 283.539062 L 218.804688 283.578125 C 218.859375 283.128906 218.945312 282.679688 219.054688 282.242188 Z M 218.378906 284.941406 C 218.378906 285.410156 218.40625 285.878906 218.464844 286.34375 L 218.804688 286.300781 C 218.75 285.851562 218.722656 285.398438 218.722656 284.941406 Z M 218.378906 284.941406 " fill-opacity="1" fill-rule="nonzero"/></svg>