<?xml version="1.0" standalone="no"?>
<!DOCTYPE svg PUBLIC "-//W3C//DTD SVG 20010904//EN"
 "http://www.w3.org/TR/2001/REC-SVG-20010904/DTD/svg10.dtd">
<svg version="1.0" xmlns="http://www.w3.org/2000/svg"
 width="500.000000pt" height="500.000000pt" viewBox="0 0 500.000000 500.000000"
 preserveAspectRatio="xMidYMid meet">

<g transform="translate(0.000000,500.000000) scale(0.100000,-0.100000)"
fill="#000000" stroke="none">
<path d="M2310 4150 c-513 -72 -933 -334 -1204 -752 -321 -494 -353 -1110 -86
-1643 83 -164 173 -288 315 -431 233 -233 524 -389 853 -455 127 -25 358 -35
492 -20 238 26 493 115 700 244 352 220 621 585 726 985 124 475 29 984 -263
1395 -78 110 -266 296 -383 380 -179 127 -415 228 -646 277 -113 24 -396 35
-504 20z m525 -50 c1018 -221 1579 -1316 1159 -2264 -211 -475 -653 -832
-1161 -937 -623 -128 -1261 115 -1644 626 -149 200 -257 454 -300 706 -28 163
-23 460 10 607 142 636 645 1136 1269 1261 146 30 142 29 362 26 165 -2 225
-7 305 -25z"/>
<path d="M2655 3398 c-50 -18 -83 -46 -102 -88 -17 -37 -37 -51 -272 -187
-245 -141 -254 -146 -285 -135 -72 26 -141 8 -193 -51 -78 -89 -59 -208 44
-277 16 -10 52 -86 118 -248 l94 -233 -29 -40 c-16 -22 -34 -56 -40 -75 -10
-29 -16 -34 -42 -34 -24 0 -45 -15 -104 -72 l-74 -71 0 -59 0 -58 -48 0 c-26
0 -53 -5 -60 -12 -7 -7 -12 -40 -12 -78 0 -38 5 -71 12 -78 16 -16 1059 -17
1089 -2 16 9 19 22 19 78 0 40 -5 73 -12 80 -7 7 -34 12 -60 12 l-48 0 0 63 0
64 -69 66 c-59 57 -74 67 -105 67 -33 0 -36 3 -46 40 -10 38 -60 99 -107 130
-29 20 -239 519 -226 538 4 8 123 82 263 165 l255 151 75 1 c41 1 83 4 92 6
10 2 60 -25 118 -66 l100 -69 0 -117 0 -116 -30 -6 c-30 -6 -30 -7 -30 -75 0
-40 5 -73 12 -80 9 -9 2 -23 -35 -60 l-48 -48 3 -95 c3 -93 3 -94 28 -94 24 0
25 2 28 85 l3 85 57 58 c56 57 56 57 117 57 61 0 61 0 117 -57 l57 -58 3 -79
c2 -61 7 -81 20 -89 12 -8 21 -7 32 2 12 10 16 33 16 99 l0 86 -47 48 c-37 37
-44 51 -35 60 16 16 16 130 0 146 -7 7 -20 12 -30 12 -17 0 -18 13 -18 168 0
120 -4 173 -12 184 -7 8 -84 65 -171 127 -93 67 -163 124 -172 140 -20 39 -69
78 -113 91 -44 12 -58 12 -97 -2z m131 -92 c29 -29 34 -41 34 -79 0 -105 -121
-155 -193 -79 -73 77 -21 192 87 192 30 0 45 -7 72 -34z m-246 -140 c0 -7 9
-24 19 -38 l19 -24 -224 -132 c-123 -73 -227 -132 -231 -132 -5 0 -13 15 -19
33 -6 17 -14 39 -17 47 -5 11 48 46 215 142 122 70 225 125 230 122 4 -3 8
-11 8 -18z m481 -64 l124 -88 3 -162 2 -162 -39 0 -40 0 -3 132 -3 132 -95 69
c-52 38 -101 72 -109 76 -12 7 -11 15 5 49 10 23 22 42 25 42 4 0 62 -40 130
-88z m-1015 -188 c46 -31 57 -107 24 -161 -40 -66 -150 -66 -191 1 -55 89 15
198 116 179 16 -3 39 -12 51 -19z m132 -470 l89 -212 -36 -5 c-20 -3 -45 -9
-56 -12 -18 -6 -29 15 -107 207 l-86 212 47 16 c25 9 49 14 53 11 4 -4 47
-101 96 -217z m1072 156 c0 -19 -7 -20 -105 -20 -98 0 -105 1 -105 20 0 19 7
20 105 20 98 0 105 -1 105 -20z m-909 -463 c19 -12 44 -42 57 -65 l23 -42
-165 0 c-109 0 -166 4 -166 10 0 25 33 71 67 95 51 34 135 35 184 2z m237
-220 c38 -39 42 -47 42 -95 l0 -52 -370 0 -370 0 0 47 c0 43 4 52 47 95 l47
48 281 0 281 0 42 -43z m162 -237 c0 -20 -7 -20 -490 -20 -483 0 -490 0 -490
20 0 20 7 20 490 20 483 0 490 0 490 -20z"/>
</g>
</svg>
