<svg xmlns="http://www.w3.org/2000/svg" xmlns:xlink="http://www.w3.org/1999/xlink" width="500" zoomAndPan="magnify" viewBox="0 0 375 374.999991" height="500" preserveAspectRatio="xMidYMid meet" version="1.0"><defs><clipPath id="id1"><path d="M 150 161 L 226 161 L 226 262.5 L 150 262.5 Z M 150 161 " clip-rule="nonzero"/></clipPath><clipPath id="id2"><path d="M 176 112.5 L 190 112.5 L 190 125 L 176 125 Z M 176 112.5 " clip-rule="nonzero"/></clipPath><clipPath id="id3"><path d="M 199.582031 167 L 239 167 L 239 212.300781 L 199.582031 212.300781 Z M 199.582031 167 " clip-rule="nonzero"/></clipPath><clipPath id="id4"><path d="M 243 135.800781 L 255 135.800781 L 255 149 L 243 149 Z M 243 135.800781 " clip-rule="nonzero"/></clipPath><clipPath id="id5"><path d="M 283 171 L 285.832031 171 L 285.832031 185 L 283 185 Z M 283 171 " clip-rule="nonzero"/></clipPath><clipPath id="id6"><path d="M 275 176 L 285.832031 176 L 285.832031 179 L 275 179 Z M 275 176 " clip-rule="nonzero"/></clipPath></defs><rect x="-37.5" width="450" fill="#ffffff" y="-37.499999" height="449.999989" fill-opacity="1"/><rect x="-37.5" width="450" fill="#ffffff" y="-37.499999" height="449.999989" fill-opacity="1"/><rect x="-37.5" width="450" fill="#ffffff" y="-37.499999" height="449.999989" fill-opacity="1"/><g clip-path="url(#id1)"><path fill="#231f20" d="M 219.019531 229.316406 C 214.890625 221.640625 210.164062 214.28125 205.414062 206.980469 C 203.183594 203.546875 201.539062 199.816406 201.25 195.679688 C 200.960938 191.519531 201.359375 187.308594 201.195312 183.132812 C 201.097656 180.605469 200.914062 178.082031 200.671875 175.566406 C 200.640625 175.257812 200.527344 175.003906 200.363281 174.808594 C 200.605469 173.539062 202.488281 172.765625 203.398438 172.121094 C 204.417969 171.398438 205.320312 170.546875 206.0625 169.539062 C 207.40625 167.722656 208.109375 165.246094 206.738281 163.226562 C 205.167969 160.917969 201.789062 161.351562 199.386719 161.316406 C 196.097656 161.265625 192.804688 161.238281 189.515625 161.222656 C 186.226562 161.210938 182.933594 161.214844 179.644531 161.222656 C 177.25 161.230469 173.640625 160.566406 171.558594 162.101562 C 169.746094 163.4375 169.925781 165.976562 170.867188 167.78125 C 172.203125 170.339844 174.503906 172.078125 175.570312 174.851562 C 175.632812 175.011719 175.714844 175.144531 175.8125 175.257812 C 175.785156 175.355469 175.765625 175.457031 175.761719 175.566406 C 175.484375 180.046875 175.320312 184.535156 175.3125 189.023438 C 175.308594 193.777344 175.199219 198.242188 172.867188 202.535156 C 170.53125 206.835938 167.40625 210.765625 164.757812 214.882812 C 161.878906 219.363281 159.101562 223.914062 156.585938 228.613281 C 152.65625 235.957031 148.773438 243.800781 150.808594 252.339844 C 151.761719 256.332031 154.308594 259.609375 158.289062 260.871094 C 162.566406 262.226562 167.640625 261.761719 172.066406 261.898438 C 183.355469 262.25 194.664062 262.480469 205.957031 261.984375 C 210.375 261.792969 215.714844 262.019531 219.546875 259.414062 C 222.601562 257.335938 224.230469 253.867188 224.8125 250.300781 C 226.035156 242.785156 222.488281 235.761719 219.019531 229.316406 Z M 174.664062 168.492188 C 173.460938 167.0625 171.40625 164.109375 174.613281 163.921875 C 179.980469 163.605469 185.457031 163.875 190.832031 163.902344 C 193.464844 163.917969 196.097656 163.941406 198.726562 163.980469 C 200.765625 164.007812 206.074219 163.308594 204.542969 166.945312 C 202.980469 170.667969 196.894531 171.199219 197.789062 176.070312 C 197.839844 176.347656 197.957031 176.554688 198.109375 176.707031 C 198.460938 180.65625 198.648438 184.613281 198.613281 188.578125 C 198.574219 192.996094 198.316406 197.277344 199.730469 201.542969 C 200.921875 205.132812 203.011719 208.152344 205.035156 211.300781 C 207.230469 214.710938 209.394531 218.140625 211.492188 221.609375 C 206.820312 221.996094 202.128906 222.195312 197.441406 222.152344 C 193.574219 222.117188 189.800781 221.648438 185.964844 221.390625 C 183.992188 221.257812 181.988281 221.363281 180.027344 221.597656 C 178.449219 221.789062 176.878906 222.222656 175.289062 222.320312 C 173.660156 222.417969 172.128906 221.941406 170.542969 221.636719 C 168.414062 221.222656 166.25 221.003906 164.085938 220.960938 C 164.398438 220.453125 164.710938 219.945312 165.027344 219.441406 C 165.21875 219.566406 165.445312 219.648438 165.726562 219.65625 C 167.335938 219.703125 168.949219 219.691406 170.558594 219.617188 C 172.269531 219.542969 172.277344 216.867188 170.558594 216.945312 C 169.230469 217.003906 167.898438 217.019531 166.570312 217 C 167.289062 215.875 168.039062 214.765625 168.800781 213.660156 C 168.878906 213.675781 168.964844 213.691406 169.054688 213.695312 C 170.667969 213.742188 172.277344 213.726562 173.886719 213.65625 C 175.597656 213.578125 175.605469 210.90625 173.886719 210.980469 C 172.792969 211.03125 171.703125 211.050781 170.609375 211.042969 C 171.191406 210.199219 171.769531 209.347656 172.339844 208.492188 C 172.496094 208.566406 172.679688 208.613281 172.886719 208.617188 C 174.496094 208.664062 176.105469 208.652344 177.71875 208.582031 C 179.425781 208.503906 179.4375 205.828125 177.71875 205.90625 C 176.464844 205.964844 175.210938 205.980469 173.957031 205.964844 C 174.335938 205.347656 174.707031 204.722656 175.058594 204.089844 C 175.300781 203.65625 175.515625 203.21875 175.71875 202.78125 C 178.707031 202.828125 181.691406 202.816406 184.679688 202.742188 C 186.390625 202.703125 186.398438 200.027344 184.679688 200.070312 C 182.035156 200.132812 179.390625 200.148438 176.75 200.121094 C 177.066406 199.09375 177.308594 198.054688 177.488281 197.003906 C 177.625 197.054688 177.773438 197.089844 177.941406 197.097656 C 179.554688 197.144531 181.164062 197.132812 182.773438 197.058594 C 184.484375 196.980469 184.492188 194.308594 182.773438 194.386719 C 181.164062 194.457031 179.554688 194.46875 177.941406 194.421875 C 177.898438 194.421875 177.859375 194.429688 177.816406 194.433594 C 177.90625 193.394531 177.949219 192.339844 177.96875 191.273438 C 177.976562 191.277344 177.980469 191.277344 177.988281 191.277344 C 179.597656 191.324219 181.207031 191.3125 182.816406 191.238281 C 184.527344 191.164062 184.539062 188.488281 182.816406 188.566406 C 181.207031 188.636719 179.601562 188.652344 177.988281 188.605469 C 177.992188 187.636719 178 186.667969 178.015625 185.699219 C 178.023438 185.699219 178.023438 185.699219 178.03125 185.699219 C 179.640625 185.75 181.25 185.734375 182.863281 185.664062 C 184.570312 185.585938 184.582031 182.910156 182.863281 182.988281 C 181.269531 183.0625 179.675781 183.074219 178.082031 183.027344 C 178.113281 182.0625 178.148438 181.101562 178.191406 180.136719 C 180.824219 180.164062 183.453125 180.148438 186.085938 180.085938 C 187.800781 180.042969 187.804688 177.371094 186.085938 177.414062 C 183.5 177.476562 180.910156 177.492188 178.324219 177.464844 C 178.359375 176.832031 178.390625 176.199219 178.429688 175.566406 C 178.449219 175.238281 178.367188 174.972656 178.21875 174.769531 C 178.246094 174.582031 178.230469 174.371094 178.140625 174.144531 C 177.316406 171.996094 176.136719 170.242188 174.664062 168.492188 Z M 221.957031 251 C 220.894531 255.410156 217.976562 258.066406 213.503906 258.777344 C 208.359375 259.59375 202.933594 259.46875 197.734375 259.550781 C 192.46875 259.636719 187.203125 259.59375 181.9375 259.484375 C 176.578125 259.378906 171.21875 259.15625 165.859375 259.027344 C 161.621094 258.925781 156.933594 258.851562 154.550781 254.703125 C 152.796875 251.65625 152.546875 247.402344 153.113281 244.003906 C 153.832031 239.675781 155.953125 235.621094 157.941406 231.761719 C 159.378906 228.980469 160.914062 226.25 162.515625 223.554688 C 162.652344 223.601562 162.800781 223.632812 162.96875 223.628906 C 165.539062 223.605469 168.085938 223.835938 170.601562 224.371094 C 172.152344 224.703125 173.691406 225.085938 175.289062 224.992188 C 176.886719 224.898438 178.445312 224.472656 180.027344 224.273438 C 181.984375 224.023438 183.996094 223.929688 185.964844 224.0625 C 189.800781 224.324219 193.574219 224.792969 197.441406 224.828125 C 202.578125 224.871094 207.726562 224.632812 212.84375 224.167969 C 212.902344 224.164062 212.957031 224.148438 213.011719 224.136719 C 215.703125 228.648438 218.339844 233.261719 220.335938 238.121094 C 221.488281 240.929688 222.445312 243.882812 222.460938 246.835938 C 222.46875 248.277344 222.296875 249.605469 221.957031 251 Z M 221.957031 251 " fill-opacity="1" fill-rule="nonzero"/></g><path fill="#231f20" d="M 180.554688 149.730469 C 182.523438 148.875 183.734375 146.699219 183.421875 144.585938 C 183.015625 141.878906 180.488281 140.472656 177.9375 140.691406 C 177.839844 140.691406 177.734375 140.699219 177.628906 140.722656 C 177.511719 140.738281 177.410156 140.769531 177.3125 140.804688 C 174.96875 141.476562 173.539062 144.152344 174.066406 146.511719 C 174.679688 149.234375 178.035156 150.820312 180.554688 149.730469 Z M 178.339844 143.300781 C 179.5625 143.132812 180.652344 143.996094 180.820312 145.203125 C 180.824219 145.234375 180.816406 145.425781 180.8125 145.527344 C 180.769531 145.65625 180.652344 146.113281 180.601562 146.203125 C 180.425781 146.542969 180.105469 146.914062 179.777344 147.121094 C 178.675781 147.824219 176.894531 147.121094 176.640625 145.800781 C 176.421875 144.667969 177.25 143.519531 178.339844 143.300781 Z M 178.339844 143.300781 " fill-opacity="1" fill-rule="nonzero"/><path fill="#231f20" d="M 188.339844 134.507812 C 188.949219 137.234375 192.308594 138.820312 194.824219 137.730469 C 196.792969 136.875 198.007812 134.699219 197.691406 132.582031 C 197.289062 129.875 194.757812 128.46875 192.207031 128.691406 C 192.109375 128.691406 192.007812 128.699219 191.898438 128.71875 C 191.78125 128.738281 191.679688 128.765625 191.585938 128.804688 C 189.238281 129.472656 187.808594 132.152344 188.339844 134.507812 Z M 192.609375 131.296875 C 193.832031 131.128906 194.921875 131.992188 195.089844 133.203125 C 195.09375 133.230469 195.085938 133.421875 195.085938 133.527344 C 195.039062 133.652344 194.921875 134.109375 194.875 134.203125 C 194.695312 134.542969 194.378906 134.914062 194.050781 135.121094 C 192.945312 135.820312 191.164062 135.117188 190.910156 133.796875 C 190.695312 132.667969 191.519531 131.515625 192.609375 131.296875 Z M 192.609375 131.296875 " fill-opacity="1" fill-rule="nonzero"/><g clip-path="url(#id2)"><path fill="#231f20" d="M 185.289062 124.335938 C 187.769531 123.234375 189.34375 120.5 188.953125 117.808594 C 188.445312 114.332031 185.179688 112.503906 181.890625 112.820312 C 181.789062 112.820312 181.6875 112.832031 181.578125 112.851562 C 181.460938 112.867188 181.359375 112.898438 181.265625 112.933594 C 178.21875 113.75 176.289062 117.238281 177.03125 120.289062 C 177.855469 123.691406 182.101562 125.753906 185.289062 124.335938 Z M 182.289062 115.429688 C 186.230469 114.886719 187.644531 119.570312 184.722656 121.601562 C 183.050781 122.761719 180.25 121.777344 179.667969 119.804688 C 179.109375 117.921875 180.390625 115.8125 182.289062 115.429688 Z M 182.289062 115.429688 " fill-opacity="1" fill-rule="nonzero"/></g><path fill="#231f20" d="M 196.042969 142.839844 C 192.042969 143.609375 189.511719 148.027344 190.300781 151.921875 C 191.191406 156.304688 196.617188 158.945312 200.65625 157.183594 C 203.761719 155.828125 205.71875 152.363281 205.234375 149.019531 C 204.59375 144.589844 200.257812 142.222656 196.042969 142.839844 Z M 202.632812 149.554688 C 202.84375 151.359375 201.949219 153.285156 200.132812 154.445312 C 197.628906 156.042969 193.5625 154.363281 192.925781 151.445312 C 192.355469 148.8125 194.085938 145.929688 196.753906 145.417969 C 199.453125 145.023438 202.3125 146.773438 202.632812 149.554688 Z M 202.632812 149.554688 " fill-opacity="1" fill-rule="nonzero"/><g clip-path="url(#id3)"><path fill="#000000" d="M 218.921875 167.613281 L 238.226562 178.785156 L 238.226562 201.125 L 218.921875 212.292969 L 199.617188 201.125 L 199.617188 178.785156 Z M 218.921875 170.058594 L 236.117188 180.003906 L 236.117188 199.902344 L 218.921875 209.851562 L 201.726562 199.902344 L 201.726562 180.003906 Z M 218.921875 170.058594 " fill-opacity="1" fill-rule="evenodd"/></g><path fill="#000000" d="M 203.679688 180.960938 L 205.746094 180.960938 L 205.746094 198.949219 L 203.679688 198.949219 Z M 203.679688 180.960938 " fill-opacity="1" fill-rule="evenodd"/><path fill="#000000" d="M 233.714844 196.726562 L 234.746094 198.519531 L 219.203125 207.511719 L 218.167969 205.71875 Z M 233.714844 196.726562 " fill-opacity="1" fill-rule="evenodd"/><path fill="#000000" d="M 218.171875 174.328125 L 219.203125 172.535156 L 234.75 181.53125 L 233.714844 183.324219 Z M 218.171875 174.328125 " fill-opacity="1" fill-rule="evenodd"/><path fill="#000000" d="M 249.273438 165.441406 L 250.734375 166.90625 L 238.042969 179.625 L 236.582031 178.160156 Z M 249.273438 165.441406 " fill-opacity="1" fill-rule="evenodd"/><path fill="#000000" d="M 261.984375 178.160156 L 260.523438 179.625 L 247.832031 166.90625 L 249.292969 165.441406 Z M 261.984375 178.160156 " fill-opacity="1" fill-rule="evenodd"/><path fill="#000000" d="M 248.296875 168.933594 L 246.230469 168.933594 L 246.230469 150.410156 L 248.296875 150.410156 Z M 248.296875 168.933594 " fill-opacity="1" fill-rule="evenodd"/><path fill="#000000" d="M 252.414062 168.933594 L 250.347656 168.933594 L 250.347656 150.410156 L 252.414062 150.410156 Z M 252.414062 168.933594 " fill-opacity="1" fill-rule="evenodd"/><g clip-path="url(#id4)"><path fill="#000000" d="M 249.164062 135.796875 C 252.335938 135.796875 254.910156 138.554688 254.910156 141.945312 C 254.910156 145.339844 252.335938 148.097656 249.164062 148.097656 C 245.992188 148.097656 243.417969 145.339844 243.417969 141.945312 C 243.417969 138.554688 245.992188 135.796875 249.164062 135.796875 Z M 249.164062 137.992188 C 251.203125 137.992188 252.859375 139.761719 252.859375 141.945312 C 252.859375 144.128906 251.203125 145.902344 249.164062 145.902344 C 247.125 145.902344 245.46875 144.128906 245.46875 141.945312 C 245.46875 139.761719 247.125 137.992188 249.164062 137.992188 Z M 249.164062 137.992188 " fill-opacity="1" fill-rule="evenodd"/></g><path fill="#000000" d="M 268.601562 171.738281 C 271.773438 171.738281 274.347656 174.496094 274.347656 177.890625 C 274.347656 181.285156 271.773438 184.039062 268.601562 184.039062 C 265.429688 184.039062 262.855469 181.285156 262.855469 177.890625 C 262.855469 174.496094 265.429688 171.738281 268.601562 171.738281 Z M 268.601562 173.933594 C 270.640625 173.933594 272.296875 175.707031 272.296875 177.890625 C 272.296875 180.074219 270.640625 181.84375 268.601562 181.84375 C 266.558594 181.84375 264.90625 180.074219 264.90625 177.890625 C 264.90625 175.707031 266.558594 173.933594 268.601562 173.933594 Z M 268.601562 173.933594 " fill-opacity="1" fill-rule="evenodd"/><path fill="#000000" d="M 275.921875 171.742188 L 277.847656 171.742188 L 277.847656 184.039062 L 275.921875 184.039062 Z M 275.921875 171.742188 " fill-opacity="1" fill-rule="evenodd"/><g clip-path="url(#id5)"><path fill="#000000" d="M 283.886719 171.742188 L 285.808594 171.742188 L 285.808594 184.039062 L 283.886719 184.039062 Z M 283.886719 171.742188 " fill-opacity="1" fill-rule="evenodd"/></g><g clip-path="url(#id6)"><path fill="#000000" d="M 285.808594 176.925781 L 285.808594 178.855469 L 275.921875 178.855469 L 275.921875 176.925781 Z M 285.808594 176.925781 " fill-opacity="1" fill-rule="evenodd"/></g></svg>