<svg xmlns="http://www.w3.org/2000/svg" xmlns:xlink="http://www.w3.org/1999/xlink" width="500" zoomAndPan="magnify" viewBox="0 0 375 374.999991" height="500" preserveAspectRatio="xMidYMid meet" version="1.0"><defs><clipPath id="id1"><path d="M 112.5 112.5 L 262.5 112.5 L 262.5 227 L 112.5 227 Z M 112.5 112.5 " clip-rule="nonzero"/></clipPath><clipPath id="id2"><path d="M 179 199 L 262 199 L 262 262.5 L 179 262.5 Z M 179 199 " clip-rule="nonzero"/></clipPath><clipPath id="id3"><path d="M 118 184 L 262.5 184 L 262.5 256 L 118 256 Z M 118 184 " clip-rule="nonzero"/></clipPath><clipPath id="id4"><path d="M 145 118.5 L 183 118.5 L 183 234 L 145 234 Z M 145 118.5 " clip-rule="nonzero"/></clipPath><clipPath id="id5"><path d="M 189 138.835938 L 202 138.835938 L 202 151 L 189 151 Z M 189 138.835938 " clip-rule="nonzero"/></clipPath><clipPath id="id6"><path d="M 185.25 170 L 202 170 L 202 187.585938 L 185.25 187.585938 Z M 185.25 170 " clip-rule="nonzero"/></clipPath></defs><rect x="-37.5" width="450" fill="#ffffff" y="-37.499999" height="449.999989" fill-opacity="1"/><rect x="-37.5" width="450" fill="#ffffff" y="-37.499999" height="449.999989" fill-opacity="1"/><rect x="-37.5" width="450" fill="#ffffff" y="-37.499999" height="449.999989" fill-opacity="1"/><g clip-path="url(#id1)"><path fill="#000000" d="M 114.546875 178.238281 C 115.105469 178.980469 115.671875 179.722656 116.238281 180.476562 C 116.792969 181.242188 117.410156 181.972656 118.019531 182.71875 C 118.324219 183.09375 118.632812 183.46875 118.9375 183.847656 C 119.09375 184.035156 119.242188 184.226562 119.402344 184.414062 L 119.890625 184.964844 C 120.539062 185.703125 121.195312 186.445312 121.855469 187.191406 C 122.546875 187.914062 123.246094 188.640625 123.945312 189.371094 C 126.796875 192.257812 129.898438 195.054688 133.277344 197.65625 C 140 202.769531 147.339844 206.453125 154.386719 208.796875 C 161.4375 211.164062 168.203125 212.15625 173.945312 212.261719 C 176.820312 212.320312 179.445312 212.164062 181.75 211.898438 C 184.054688 211.632812 186.046875 211.273438 187.660156 210.898438 C 188.0625 210.804688 188.449219 210.726562 188.808594 210.636719 C 189.164062 210.542969 189.496094 210.453125 189.808594 210.371094 C 190.121094 210.289062 190.40625 210.214844 190.671875 210.144531 C 190.929688 210.066406 191.167969 209.996094 191.378906 209.933594 C 192.222656 209.679688 192.679688 209.542969 192.679688 209.542969 C 192.679688 209.542969 192.28125 209.808594 191.550781 210.296875 C 191.359375 210.417969 191.152344 210.558594 190.921875 210.707031 C 190.683594 210.851562 190.425781 211.003906 190.144531 211.171875 C 189.859375 211.335938 189.558594 211.515625 189.230469 211.707031 C 188.902344 211.890625 188.542969 212.074219 188.167969 212.273438 C 186.660156 213.082031 184.746094 213.957031 182.433594 214.789062 C 180.125 215.617188 177.410156 216.390625 174.332031 216.9375 C 171.257812 217.480469 167.816406 217.824219 164.109375 217.769531 C 163.644531 217.761719 163.179688 217.75 162.707031 217.738281 C 162.234375 217.730469 161.761719 217.691406 161.285156 217.667969 C 160.324219 217.621094 159.355469 217.519531 158.367188 217.421875 C 156.402344 217.191406 154.378906 216.898438 152.332031 216.445312 C 150.28125 216.007812 148.195312 215.464844 146.109375 214.777344 C 144.015625 214.097656 141.90625 213.304688 139.816406 212.359375 C 135.625 210.496094 131.488281 208.074219 127.589844 205.121094 C 123.738281 202.164062 120.324219 198.867188 117.335938 195.453125 C 116.601562 194.585938 115.875 193.730469 115.171875 192.867188 C 114.507812 191.984375 113.851562 191.101562 113.195312 190.230469 L 112.710938 189.578125 C 112.640625 189.480469 112.570312 189.375 112.503906 189.273438 C 112.503906 189.273438 113.714844 195.921875 116.113281 200.699219 C 117.628906 203.71875 119.722656 206.921875 122.375 210.058594 C 122.539062 210.257812 122.707031 210.453125 122.871094 210.652344 C 123.039062 210.851562 123.203125 211.054688 123.386719 211.238281 C 123.746094 211.621094 124.109375 212.003906 124.476562 212.394531 C 124.660156 212.585938 124.84375 212.78125 125.027344 212.976562 C 125.222656 213.160156 125.417969 213.347656 125.617188 213.53125 C 126.007812 213.902344 126.40625 214.28125 126.804688 214.660156 C 127.21875 215.023438 127.648438 215.375 128.074219 215.742188 C 128.285156 215.921875 128.5 216.105469 128.714844 216.285156 C 128.929688 216.46875 129.164062 216.628906 129.390625 216.804688 C 129.839844 217.144531 130.296875 217.492188 130.757812 217.839844 C 131.234375 218.164062 131.714844 218.488281 132.199219 218.816406 C 132.445312 218.976562 132.675781 219.15625 132.933594 219.304688 C 133.1875 219.457031 133.4375 219.609375 133.695312 219.761719 C 133.949219 219.914062 134.203125 220.070312 134.457031 220.222656 L 134.839844 220.457031 L 135.238281 220.667969 C 135.769531 220.953125 136.300781 221.238281 136.839844 221.527344 C 137.386719 221.789062 137.941406 222.054688 138.5 222.320312 C 140.75 223.339844 143.125 224.230469 145.617188 224.945312 C 148.101562 225.660156 150.707031 226.179688 153.367188 226.496094 C 156.03125 226.8125 158.761719 226.929688 161.46875 226.78125 C 161.804688 226.753906 162.140625 226.730469 162.480469 226.703125 C 162.816406 226.675781 163.15625 226.664062 163.488281 226.613281 C 164.152344 226.527344 164.832031 226.476562 165.480469 226.347656 C 165.808594 226.292969 166.136719 226.238281 166.464844 226.183594 C 166.785156 226.113281 167.101562 226.042969 167.421875 225.972656 L 167.902344 225.871094 C 168.0625 225.835938 168.238281 225.78125 168.402344 225.742188 C 168.738281 225.648438 169.074219 225.574219 169.410156 225.472656 C 170.757812 225.097656 172.121094 224.636719 173.492188 224.125 C 174.867188 223.605469 176.25 223.039062 177.636719 222.402344 C 183.203125 219.882812 188.609375 216.695312 193.851562 213.464844 C 199.097656 210.222656 204.195312 206.914062 209.164062 203.824219 C 214.132812 200.726562 218.976562 197.847656 223.65625 195.34375 C 228.335938 192.839844 232.851562 190.714844 237.097656 189.046875 C 241.339844 187.367188 245.316406 186.171875 248.847656 185.363281 C 250.613281 184.964844 252.273438 184.671875 253.800781 184.441406 C 255.335938 184.234375 256.738281 184.078125 258 184.003906 C 259.746094 183.890625 261.214844 183.878906 262.390625 183.90625 C 260.515625 144.152344 227.695312 112.5 187.480469 112.5 C 149.816406 112.5 118.640625 140.269531 113.292969 176.445312 C 113.710938 177.039062 114.125 177.636719 114.546875 178.238281 " fill-opacity="1" fill-rule="nonzero"/></g><g clip-path="url(#id2)"><path fill="#000000" d="M 260.671875 200.085938 C 260.359375 200.355469 260.023438 200.640625 259.683594 200.960938 C 258.996094 201.59375 258.222656 202.269531 257.410156 203.0625 C 257.003906 203.453125 256.574219 203.851562 256.140625 204.28125 C 255.707031 204.714844 255.253906 205.164062 254.792969 205.625 C 252.949219 207.496094 250.90625 209.667969 248.71875 212.132812 C 246.53125 214.601562 244.195312 217.355469 241.695312 220.34375 C 239.191406 223.332031 236.527344 226.558594 233.617188 229.921875 C 232.160156 231.601562 230.648438 233.320312 229.050781 235.050781 C 228.261719 235.917969 227.429688 236.78125 226.605469 237.65625 C 225.753906 238.519531 224.914062 239.402344 224.023438 240.265625 C 222.269531 242.011719 220.386719 243.726562 218.425781 245.421875 C 216.457031 247.109375 214.359375 248.742188 212.164062 250.3125 C 209.949219 251.863281 207.671875 253.292969 205.34375 254.585938 C 204.757812 254.902344 204.164062 255.203125 203.578125 255.511719 C 203.285156 255.660156 202.988281 255.8125 202.699219 255.960938 C 202.398438 256.101562 202.097656 256.246094 201.796875 256.386719 C 201.5 256.527344 201.199219 256.664062 200.902344 256.804688 C 200.601562 256.941406 200.300781 257.066406 200 257.199219 C 199.398438 257.453125 198.800781 257.714844 198.191406 257.941406 C 193.371094 259.851562 188.507812 261.039062 183.84375 261.691406 C 182.503906 261.882812 181.175781 262.019531 179.871094 262.117188 C 182.371094 262.367188 184.910156 262.5 187.480469 262.5 C 224.875 262.5 255.875 235.128906 261.546875 199.332031 C 261.273438 199.566406 260.984375 199.816406 260.671875 200.085938 " fill-opacity="1" fill-rule="nonzero"/></g><g clip-path="url(#id3)"><path fill="#000000" d="M 160.101562 255.199219 C 163.0625 255.644531 166.074219 255.769531 169.0625 255.558594 C 175.617188 255.101562 182.230469 253.328125 188.375 251.035156 C 190.351562 250.296875 192.324219 249.558594 194.261719 248.710938 C 194.765625 248.488281 195.261719 248.234375 195.761719 247.988281 C 196.007812 247.867188 196.261719 247.75 196.507812 247.621094 C 196.753906 247.488281 197.003906 247.359375 197.25 247.226562 C 197.496094 247.097656 197.746094 246.96875 197.996094 246.835938 C 198.242188 246.695312 198.488281 246.554688 198.738281 246.414062 C 199.230469 246.132812 199.726562 245.851562 200.226562 245.570312 C 202.199219 244.390625 204.164062 243.117188 206.117188 241.746094 C 208.0625 240.351562 209.964844 238.929688 211.804688 237.445312 C 213.640625 235.953125 215.445312 234.453125 217.191406 232.914062 C 218.074219 232.160156 218.929688 231.371094 219.789062 230.617188 C 220.640625 229.839844 221.496094 229.085938 222.328125 228.3125 C 224.007812 226.785156 225.644531 225.257812 227.257812 223.773438 C 230.476562 220.792969 233.585938 217.9375 236.578125 215.324219 C 239.570312 212.710938 242.445312 210.34375 245.164062 208.285156 C 247.875 206.222656 250.429688 204.472656 252.722656 203.03125 C 253.300781 202.679688 253.855469 202.335938 254.394531 202.007812 C 254.9375 201.683594 255.46875 201.390625 255.96875 201.105469 C 256.96875 200.519531 257.921875 200.046875 258.761719 199.605469 C 259.179688 199.382812 259.582031 199.191406 259.964844 199.015625 C 260.34375 198.832031 260.699219 198.664062 261.03125 198.511719 C 261.273438 198.394531 261.496094 198.292969 261.714844 198.195312 C 262.214844 194.703125 262.480469 191.132812 262.480469 187.5 C 262.480469 186.632812 262.457031 185.769531 262.429688 184.910156 C 261.328125 185.203125 259.976562 185.597656 258.417969 186.125 C 257.265625 186.507812 256.003906 186.992188 254.636719 187.539062 C 253.277344 188.109375 251.820312 188.75 250.285156 189.5 C 247.214844 191.003906 243.832031 192.890625 240.230469 195.214844 C 236.621094 197.53125 232.789062 200.253906 228.742188 203.316406 C 224.695312 206.378906 220.429688 209.78125 215.871094 213.375 C 211.3125 216.96875 206.46875 220.765625 201.148438 224.511719 C 198.484375 226.386719 195.695312 228.238281 192.75 230.019531 C 191.273438 230.90625 189.753906 231.773438 188.191406 232.609375 C 186.625 233.449219 185.007812 234.25 183.34375 235.007812 C 181.675781 235.765625 179.964844 236.457031 178.222656 237.082031 C 176.480469 237.699219 174.703125 238.257812 172.882812 238.703125 C 172.433594 238.824219 171.972656 238.914062 171.515625 239.019531 C 171.285156 239.070312 171.066406 239.125 170.828125 239.167969 L 170.109375 239.296875 C 169.632812 239.382812 169.15625 239.464844 168.683594 239.546875 C 168.210938 239.605469 167.742188 239.664062 167.269531 239.71875 C 166.328125 239.851562 165.402344 239.886719 164.476562 239.953125 C 164.015625 239.992188 163.558594 239.988281 163.101562 240 C 162.644531 240.003906 162.1875 240.011719 161.734375 240.019531 C 158.105469 239.996094 154.609375 239.578125 151.265625 238.878906 C 147.921875 238.175781 144.730469 237.191406 141.734375 235.953125 C 138.738281 234.71875 135.933594 233.246094 133.351562 231.613281 C 132.710938 231.195312 132.078125 230.78125 131.457031 230.359375 C 130.851562 229.914062 130.253906 229.46875 129.65625 229.03125 L 129.214844 228.699219 L 128.789062 228.347656 C 128.507812 228.113281 128.226562 227.878906 127.945312 227.648438 C 127.667969 227.414062 127.390625 227.183594 127.113281 226.949219 C 126.839844 226.722656 126.585938 226.464844 126.320312 226.226562 C 125.804688 225.738281 125.289062 225.253906 124.78125 224.773438 C 124.300781 224.265625 123.828125 223.761719 123.355469 223.261719 C 123.125 223.011719 122.882812 222.769531 122.664062 222.511719 C 122.445312 222.253906 122.230469 221.992188 122.015625 221.738281 C 121.585938 221.21875 121.15625 220.714844 120.75 220.203125 C 120.363281 219.675781 119.980469 219.152344 119.601562 218.632812 C 119.414062 218.375 119.230469 218.121094 119.042969 217.863281 C 118.878906 217.613281 118.71875 217.363281 118.558594 217.113281 C 119.480469 219.136719 121.597656 223.527344 123.429688 226.527344 C 125.296875 229.585938 127.382812 232.511719 129.667969 235.273438 C 134.632812 241.273438 140.289062 247.386719 147.265625 251.03125 C 151.273438 253.121094 155.632812 254.527344 160.101562 255.199219 " fill-opacity="1" fill-rule="nonzero"/></g><g clip-path="url(#id4)"><path fill="#ffffff" d="M 178.617188 225.726562 L 173.488281 156.363281 L 177.65625 152.226562 L 178.617188 152.226562 L 178.617188 150.476562 L 178.136719 150.476562 L 178.136719 145.863281 L 178.617188 145.863281 L 178.617188 145.066406 L 174.449219 145.066406 L 173.328125 141.25 L 175.089844 141.25 L 175.089844 139.660156 L 172.046875 139.660156 L 172.046875 129 L 173.328125 129 L 173.328125 127.089844 L 165.632812 123.273438 L 165.632812 120.25 C 165.632812 118.5 164.191406 118.5 164.191406 118.5 C 164.191406 118.5 162.75 118.5 162.75 120.25 L 162.75 123.273438 L 155.054688 127.089844 L 155.054688 129 L 156.339844 129 L 156.339844 139.660156 L 153.292969 139.660156 L 153.292969 141.25 L 155.054688 141.25 L 153.773438 144.910156 L 149.769531 144.910156 L 149.769531 145.703125 L 150.25 145.703125 L 150.25 150.316406 L 149.769531 150.316406 L 149.769531 152.066406 L 150.570312 152.066406 L 154.734375 156.203125 L 149.769531 225.726562 L 145.28125 225.726562 L 145.28125 234 L 182.945312 234 L 182.945312 225.726562 Z M 159.863281 129.160156 L 168.519531 129.160156 L 168.519531 138.546875 L 159.863281 138.546875 Z M 177.65625 145.863281 L 177.65625 150.476562 L 177.015625 150.476562 L 177.015625 145.863281 Z M 176.695312 145.863281 L 176.695312 150.476562 L 176.050781 150.476562 L 176.050781 145.863281 Z M 175.730469 145.863281 L 175.730469 150.476562 L 174.929688 150.476562 L 174.929688 146.339844 L 174.769531 145.703125 Z M 153.613281 145.863281 L 153.453125 146.5 L 153.453125 150.636719 L 152.652344 150.636719 L 152.652344 146.023438 L 153.613281 146.023438 Z M 152.332031 145.863281 L 152.332031 150.476562 L 151.691406 150.476562 L 151.691406 145.863281 Z M 150.730469 150.476562 L 150.730469 145.863281 L 151.371094 145.863281 L 151.371094 150.476562 Z M 150.730469 150.476562 " fill-opacity="1" fill-rule="nonzero"/></g><g clip-path="url(#id5)"><path fill="#ffffff" d="M 194.476562 150.757812 L 201.433594 143.800781 L 196.832031 139.199219 C 196.46875 138.835938 195.882812 138.835938 195.519531 139.199219 L 189.875 144.839844 C 189.703125 145.015625 189.605469 145.253906 189.605469 145.5 C 189.605469 145.746094 189.703125 145.980469 189.875 146.15625 Z M 194.476562 150.757812 " fill-opacity="1" fill-rule="nonzero"/></g><path fill="#ffffff" d="M 223.121094 165.488281 C 222.757812 165.125 222.167969 165.125 221.804688 165.488281 L 219.449219 167.84375 L 216.820312 165.214844 L 221.421875 160.617188 C 221.597656 160.441406 221.695312 160.203125 221.695312 159.957031 C 221.695312 159.710938 221.597656 159.476562 221.421875 159.300781 L 213.535156 151.414062 C 213.1875 151.066406 212.570312 151.066406 212.222656 151.414062 L 207.621094 156.015625 L 204.992188 153.386719 L 207.347656 151.03125 C 207.523438 150.855469 207.621094 150.621094 207.621094 150.371094 C 207.621094 150.125 207.523438 149.890625 207.347656 149.714844 L 202.746094 145.113281 L 195.789062 152.070312 L 200.390625 156.671875 C 200.566406 156.847656 200.800781 156.945312 201.046875 156.945312 C 201.292969 156.945312 201.53125 156.847656 201.707031 156.671875 L 203.675781 154.699219 L 206.304688 157.328125 L 201.707031 161.929688 C 201.53125 162.105469 201.433594 162.339844 201.433594 162.585938 C 201.433594 162.835938 201.53125 163.070312 201.707031 163.246094 L 204.992188 166.53125 L 203.609375 167.910156 C 202.855469 167.410156 201.972656 167.140625 201.046875 167.140625 C 199.804688 167.140625 198.640625 167.625 197.761719 168.5 C 195.949219 170.3125 195.949219 173.261719 197.761719 175.074219 C 198.640625 175.953125 199.804688 176.433594 201.046875 176.433594 C 202.289062 176.433594 203.457031 175.953125 204.332031 175.074219 C 205.921875 173.488281 206.117188 171.027344 204.925781 169.226562 L 206.304688 167.84375 L 209.59375 171.128906 C 209.773438 171.3125 210.011719 171.402344 210.25 171.402344 C 210.488281 171.402344 210.726562 171.3125 210.90625 171.128906 L 215.507812 166.53125 L 218.136719 169.160156 L 216.164062 171.128906 C 215.800781 171.492188 215.800781 172.082031 216.164062 172.445312 L 220.765625 177.046875 L 227.71875 170.089844 Z M 223.121094 165.488281 " fill-opacity="1" fill-rule="nonzero"/><path fill="#ffffff" d="M 233.636719 176.003906 L 229.035156 171.40625 L 222.082031 178.359375 L 226.679688 182.960938 C 226.855469 183.136719 227.089844 183.234375 227.339844 183.234375 C 227.585938 183.234375 227.820312 183.136719 227.996094 182.960938 L 233.636719 177.320312 C 234 176.957031 234 176.367188 233.636719 176.003906 Z M 233.636719 176.003906 " fill-opacity="1" fill-rule="nonzero"/><path fill="#ffffff" d="M 201.050781 180.152344 C 196.4375 180.152344 192.683594 176.402344 192.683594 171.789062 C 192.683594 171.273438 192.265625 170.859375 191.753906 170.859375 C 191.242188 170.859375 190.824219 171.273438 190.824219 171.789062 C 190.824219 177.425781 195.410156 182.011719 201.050781 182.011719 C 201.5625 182.011719 201.976562 181.597656 201.976562 181.082031 C 201.976562 180.570312 201.5625 180.152344 201.050781 180.152344 Z M 201.050781 180.152344 " fill-opacity="1" fill-rule="nonzero"/><g clip-path="url(#id6)"><path fill="#ffffff" d="M 201.050781 185.730469 C 197.324219 185.730469 193.824219 184.277344 191.191406 181.644531 C 188.558594 179.011719 187.105469 175.511719 187.105469 171.789062 C 187.105469 171.273438 186.691406 170.859375 186.175781 170.859375 C 185.664062 170.859375 185.25 171.273438 185.25 171.789062 C 185.25 176.007812 186.890625 179.976562 189.875 182.960938 C 192.859375 185.945312 196.828125 187.589844 201.050781 187.589844 C 201.5625 187.589844 201.976562 187.171875 201.976562 186.660156 C 201.976562 186.144531 201.5625 185.730469 201.050781 185.730469 Z M 201.050781 185.730469 " fill-opacity="1" fill-rule="nonzero"/></g></svg>