<svg xmlns="http://www.w3.org/2000/svg" xmlns:xlink="http://www.w3.org/1999/xlink" width="500" zoomAndPan="magnify" viewBox="0 0 375 374.999991" height="500" preserveAspectRatio="xMidYMid meet" version="1.0"><defs><clipPath id="id1"><path d="M 138.644531 157.222656 L 216 157.222656 L 216 255.535156 L 138.644531 255.535156 Z M 138.644531 157.222656 " clip-rule="nonzero"/></clipPath><clipPath id="id2"><path d="M 141.878906 151 L 161 151 L 161 170 L 141.878906 170 Z M 141.878906 151 " clip-rule="nonzero"/></clipPath><clipPath id="id3"><path d="M 178 151 L 196.855469 151 L 196.855469 170 L 178 170 Z M 178 151 " clip-rule="nonzero"/></clipPath><clipPath id="id4"><path d="M 165 151 L 174 151 L 174 174.328125 L 165 174.328125 Z M 165 151 " clip-rule="nonzero"/></clipPath><clipPath id="id5"><path d="M 144 119.347656 L 195 119.347656 L 195 153 L 144 153 Z M 144 119.347656 " clip-rule="nonzero"/></clipPath></defs><rect x="-37.5" width="450" fill="#ffffff" y="-37.499999" height="449.999989" fill-opacity="1"/><rect x="-37.5" width="450" fill="#ffffff" y="-37.499999" height="449.999989" fill-opacity="1"/><rect x="-37.5" width="450" fill="#ffffff" y="-37.499999" height="449.999989" fill-opacity="1"/><path fill="#000000" d="M 151.128906 243.25 L 154.179688 243.25 L 154.179688 227.273438 L 151.128906 227.273438 Z M 155.277344 245.445312 L 150.03125 245.445312 C 149.425781 245.445312 148.933594 244.953125 148.933594 244.347656 L 148.933594 226.175781 C 148.933594 225.566406 149.425781 225.078125 150.03125 225.078125 L 155.277344 225.078125 C 155.882812 225.078125 156.375 225.566406 156.375 226.175781 L 156.375 244.347656 C 156.375 244.953125 155.882812 245.445312 155.277344 245.445312 " fill-opacity="1" fill-rule="nonzero"/><path fill="#000000" d="M 159.835938 243.25 L 162.886719 243.25 L 162.886719 232.082031 L 159.835938 232.082031 Z M 163.984375 245.445312 L 158.738281 245.445312 C 158.128906 245.445312 157.640625 244.953125 157.640625 244.347656 L 157.640625 230.988281 C 157.640625 230.378906 158.128906 229.890625 158.738281 229.890625 L 163.984375 229.890625 C 164.589844 229.890625 165.082031 230.378906 165.082031 230.988281 L 165.082031 244.347656 C 165.082031 244.953125 164.589844 245.445312 163.984375 245.445312 " fill-opacity="1" fill-rule="nonzero"/><path fill="#000000" d="M 168.542969 243.25 L 171.589844 243.25 L 171.589844 236.636719 L 168.542969 236.636719 Z M 172.6875 245.445312 L 167.445312 245.445312 C 166.839844 245.445312 166.347656 244.953125 166.347656 244.347656 L 166.347656 235.539062 C 166.347656 234.933594 166.839844 234.441406 167.445312 234.441406 L 172.6875 234.441406 C 173.292969 234.441406 173.789062 234.933594 173.789062 235.539062 L 173.789062 244.347656 C 173.789062 244.953125 173.292969 245.445312 172.6875 245.445312 " fill-opacity="1" fill-rule="nonzero"/><path fill="#000000" d="M 160.804688 191.585938 L 160.804688 184.054688 L 168.226562 184.054688 C 167.789062 187.96875 164.703125 191.085938 160.804688 191.585938 Z M 151.1875 184.054688 L 158.609375 184.054688 L 158.609375 191.585938 C 154.710938 191.085938 151.625 187.96875 151.1875 184.054688 Z M 158.609375 174.605469 L 158.609375 181.859375 L 151.230469 181.859375 C 151.78125 178.078125 154.804688 175.09375 158.609375 174.605469 Z M 168.183594 181.859375 L 160.804688 181.859375 L 160.804688 174.605469 C 164.609375 175.09375 167.632812 178.078125 168.183594 181.859375 Z M 159.710938 172.332031 C 159.710938 172.332031 159.707031 172.332031 159.707031 172.332031 C 159.703125 172.332031 159.703125 172.332031 159.699219 172.332031 C 153.761719 172.335938 148.933594 177.164062 148.933594 183.09375 C 148.933594 189.03125 153.765625 193.859375 159.707031 193.859375 C 165.644531 193.859375 170.476562 189.03125 170.476562 183.09375 C 170.476562 177.164062 165.648438 172.335938 159.710938 172.332031 " fill-opacity="1" fill-rule="nonzero"/><path fill="#000000" d="M 150.03125 220.15625 C 149.828125 220.15625 149.628906 220.101562 149.445312 219.988281 C 148.933594 219.664062 148.78125 218.988281 149.105469 218.476562 L 153.824219 211.015625 C 154.027344 210.695312 154.378906 210.503906 154.753906 210.503906 L 159.125 210.503906 L 162.554688 203.652344 C 162.738281 203.277344 163.121094 203.042969 163.535156 203.042969 L 168.914062 203.042969 C 169.523438 203.042969 170.011719 203.535156 170.011719 204.140625 C 170.011719 204.746094 169.523438 205.238281 168.914062 205.238281 L 164.214844 205.238281 L 160.785156 212.089844 C 160.597656 212.464844 160.21875 212.699219 159.804688 212.699219 L 155.359375 212.699219 L 150.960938 219.648438 C 150.75 219.976562 150.394531 220.15625 150.03125 220.15625 " fill-opacity="1" fill-rule="nonzero"/><path fill="#000000" d="M 165.769531 209.128906 C 165.453125 209.128906 165.144531 208.996094 164.925781 208.738281 C 164.535156 208.273438 164.597656 207.582031 165.0625 207.191406 L 168.859375 204.003906 L 164.96875 200.933594 C 164.492188 200.554688 164.414062 199.867188 164.789062 199.390625 C 165.164062 198.917969 165.855469 198.835938 166.332031 199.210938 L 171.277344 203.117188 C 171.539062 203.324219 171.691406 203.632812 171.695312 203.964844 C 171.703125 204.292969 171.558594 204.609375 171.304688 204.820312 L 166.472656 208.871094 C 166.265625 209.046875 166.015625 209.128906 165.769531 209.128906 " fill-opacity="1" fill-rule="nonzero"/><path fill="#000000" d="M 203.007812 177.773438 L 180.171875 177.773438 C 179.566406 177.773438 179.074219 177.285156 179.074219 176.675781 C 179.074219 176.074219 179.566406 175.582031 180.171875 175.582031 L 203.007812 175.582031 C 203.613281 175.582031 204.105469 176.074219 204.105469 176.675781 C 204.105469 177.285156 203.613281 177.773438 203.007812 177.773438 " fill-opacity="1" fill-rule="nonzero"/><path fill="#000000" d="M 203.007812 184.191406 L 180.171875 184.191406 C 179.566406 184.191406 179.074219 183.703125 179.074219 183.09375 C 179.074219 182.492188 179.566406 182 180.171875 182 L 203.007812 182 C 203.613281 182 204.105469 182.492188 204.105469 183.09375 C 204.105469 183.703125 203.613281 184.191406 203.007812 184.191406 " fill-opacity="1" fill-rule="nonzero"/><path fill="#000000" d="M 203.007812 190.609375 L 180.171875 190.609375 C 179.566406 190.609375 179.074219 190.121094 179.074219 189.511719 C 179.074219 188.910156 179.566406 188.417969 180.171875 188.417969 L 203.007812 188.417969 C 203.613281 188.417969 204.105469 188.910156 204.105469 189.511719 C 204.105469 190.121094 203.613281 190.609375 203.007812 190.609375 " fill-opacity="1" fill-rule="nonzero"/><path fill="#000000" d="M 203.007812 204.246094 L 180.171875 204.246094 C 179.566406 204.246094 179.074219 203.753906 179.074219 203.148438 C 179.074219 202.542969 179.566406 202.050781 180.171875 202.050781 L 203.007812 202.050781 C 203.613281 202.050781 204.105469 202.542969 204.105469 203.148438 C 204.105469 203.753906 203.613281 204.246094 203.007812 204.246094 " fill-opacity="1" fill-rule="nonzero"/><path fill="#000000" d="M 203.007812 210.664062 L 180.171875 210.664062 C 179.566406 210.664062 179.074219 210.171875 179.074219 209.566406 C 179.074219 208.960938 179.566406 208.46875 180.171875 208.46875 L 203.007812 208.46875 C 203.613281 208.46875 204.105469 208.960938 204.105469 209.566406 C 204.105469 210.171875 203.613281 210.664062 203.007812 210.664062 " fill-opacity="1" fill-rule="nonzero"/><path fill="#000000" d="M 203.007812 217.082031 L 180.171875 217.082031 C 179.566406 217.082031 179.074219 216.589844 179.074219 215.984375 C 179.074219 215.378906 179.566406 214.886719 180.171875 214.886719 L 203.007812 214.886719 C 203.613281 214.886719 204.105469 215.378906 204.105469 215.984375 C 204.105469 216.589844 203.613281 217.082031 203.007812 217.082031 " fill-opacity="1" fill-rule="nonzero"/><path fill="#000000" d="M 203.007812 232.609375 L 180.171875 232.609375 C 179.566406 232.609375 179.074219 232.117188 179.074219 231.511719 C 179.074219 230.90625 179.566406 230.414062 180.171875 230.414062 L 203.007812 230.414062 C 203.613281 230.414062 204.105469 230.90625 204.105469 231.511719 C 204.105469 232.117188 203.613281 232.609375 203.007812 232.609375 " fill-opacity="1" fill-rule="nonzero"/><path fill="#000000" d="M 203.007812 239.027344 L 180.171875 239.027344 C 179.566406 239.027344 179.074219 238.535156 179.074219 237.929688 C 179.074219 237.324219 179.566406 236.832031 180.171875 236.832031 L 203.007812 236.832031 C 203.613281 236.832031 204.105469 237.324219 204.105469 237.929688 C 204.105469 238.535156 203.613281 239.027344 203.007812 239.027344 " fill-opacity="1" fill-rule="nonzero"/><path fill="#000000" d="M 203.007812 245.445312 L 180.171875 245.445312 C 179.566406 245.445312 179.074219 244.953125 179.074219 244.347656 C 179.074219 243.742188 179.566406 243.25 180.171875 243.25 L 203.007812 243.25 C 203.613281 243.25 204.105469 243.742188 204.105469 244.347656 C 204.105469 244.953125 203.613281 245.445312 203.007812 245.445312 " fill-opacity="1" fill-rule="nonzero"/><g clip-path="url(#id1)"><path fill="#000000" d="M 211.710938 255.53125 L 142.230469 255.53125 C 140.253906 255.53125 138.644531 253.921875 138.644531 251.945312 L 138.644531 160.855469 C 138.644531 158.878906 140.253906 157.269531 142.230469 157.269531 L 198.914062 157.269531 C 200.574219 157.269531 202.769531 158.207031 203.917969 159.40625 L 213.273438 169.160156 C 214.410156 170.34375 215.300781 172.558594 215.300781 174.203125 L 215.300781 199.265625 C 215.300781 199.871094 214.808594 200.363281 214.203125 200.363281 C 213.59375 200.363281 213.105469 199.871094 213.105469 199.265625 L 213.105469 174.203125 C 213.105469 173.109375 212.441406 171.464844 211.6875 170.675781 L 202.332031 160.925781 C 201.589844 160.144531 199.992188 159.464844 198.914062 159.464844 L 142.230469 159.464844 C 141.464844 159.464844 140.839844 160.089844 140.839844 160.855469 L 140.839844 251.945312 C 140.839844 252.714844 141.464844 253.339844 142.230469 253.339844 L 211.710938 253.339844 C 212.480469 253.339844 213.105469 252.714844 213.105469 251.945312 L 213.105469 218.574219 C 213.105469 217.96875 213.59375 217.480469 214.203125 217.480469 C 214.808594 217.480469 215.300781 217.96875 215.300781 218.574219 L 215.300781 251.945312 C 215.300781 253.921875 213.691406 255.53125 211.710938 255.53125 " fill-opacity="1" fill-rule="nonzero"/></g><path fill="#000000" d="M 203.058594 161.761719 L 203.058594 169.542969 C 203.058594 170.308594 203.683594 170.933594 204.449219 170.933594 L 211.667969 170.933594 Z M 211.710938 173.125 L 204.449219 173.125 C 202.472656 173.125 200.863281 171.519531 200.863281 169.542969 L 200.863281 161.476562 C 200.863281 159.734375 201.832031 159.121094 202.664062 159.121094 C 203.273438 159.121094 203.882812 159.433594 204.464844 160.054688 L 213.296875 169.464844 C 214.339844 170.570312 214.171875 171.484375 213.976562 171.929688 C 213.785156 172.375 213.234375 173.125 211.710938 173.125 " fill-opacity="1" fill-rule="nonzero"/><path fill="#000000" d="M 211.070312 222.0625 L 206.015625 219.734375 L 227.734375 172.738281 L 232.789062 175.070312 Z M 206.210938 225.921875 L 205.890625 222.136719 L 209.289062 223.707031 Z M 230.78125 169.617188 C 231.183594 169.617188 231.632812 169.730469 232.105469 169.949219 C 232.855469 170.296875 233.324219 170.757812 233.539062 171.367188 C 233.738281 171.925781 233.695312 172.53125 233.59375 173.027344 L 231.570312 172.089844 L 228.75 170.792969 C 229.175781 170.230469 229.851562 169.617188 230.78125 169.617188 Z M 235.617188 170.65625 C 235.203125 169.46875 234.332031 168.558594 233.023438 167.957031 C 232.261719 167.601562 231.507812 167.425781 230.78125 167.425781 C 227.707031 167.425781 226.34375 170.480469 226.195312 170.839844 L 203.5625 219.808594 C 203.441406 220.074219 203.429688 220.375 203.527344 220.648438 C 203.539062 220.675781 203.554688 220.699219 203.566406 220.726562 L 204.183594 228.035156 C 204.21875 228.425781 204.460938 228.773438 204.820312 228.9375 C 204.964844 229.003906 205.121094 229.039062 205.277344 229.039062 C 205.503906 229.039062 205.730469 228.96875 205.921875 228.832031 L 211.824219 224.585938 C 212.15625 224.515625 212.449219 224.308594 212.601562 223.980469 L 235.230469 175.011719 C 235.332031 174.808594 236.332031 172.703125 235.617188 170.65625 " fill-opacity="1" fill-rule="nonzero"/><g clip-path="url(#id2)"><path fill="#000000" d="M 145.710938 168.144531 C 144.289062 168.144531 143.128906 166.988281 143.128906 165.5625 C 143.128906 164.136719 144.289062 162.980469 145.710938 162.980469 C 147.136719 162.980469 148.292969 164.136719 148.292969 165.5625 C 148.292969 166.988281 147.136719 168.144531 145.710938 168.144531 Z M 160.0625 151.855469 C 159.714844 151.855469 159.433594 152.136719 159.433594 152.484375 L 159.433594 164.175781 C 159.433594 164.617188 159.078125 164.972656 158.636719 164.972656 L 149.503906 164.972656 C 149.21875 163.132812 147.628906 161.71875 145.710938 161.71875 C 143.59375 161.71875 141.871094 163.445312 141.871094 165.5625 C 141.871094 167.679688 143.59375 169.402344 145.710938 169.402344 C 147.601562 169.402344 149.171875 168.03125 149.492188 166.234375 L 158.636719 166.234375 C 159.769531 166.234375 160.695312 165.308594 160.695312 164.175781 L 160.695312 152.484375 C 160.695312 152.136719 160.414062 151.855469 160.0625 151.855469 " fill-opacity="1" fill-rule="nonzero"/></g><g clip-path="url(#id3)"><path fill="#000000" d="M 192.996094 168.144531 C 191.574219 168.144531 190.414062 166.988281 190.414062 165.5625 C 190.414062 164.136719 191.574219 162.980469 192.996094 162.980469 C 194.421875 162.980469 195.578125 164.136719 195.578125 165.5625 C 195.578125 166.988281 194.421875 168.144531 192.996094 168.144531 Z M 192.996094 161.71875 C 191.078125 161.71875 189.488281 163.132812 189.207031 164.972656 L 180.070312 164.972656 C 179.632812 164.972656 179.273438 164.617188 179.273438 164.175781 L 179.273438 152.484375 C 179.273438 152.136719 178.992188 151.855469 178.644531 151.855469 C 178.296875 151.855469 178.015625 152.136719 178.015625 152.484375 L 178.015625 164.175781 C 178.015625 165.308594 178.9375 166.234375 180.070312 166.234375 L 189.21875 166.234375 C 189.535156 168.03125 191.109375 169.402344 192.996094 169.402344 C 195.113281 169.402344 196.839844 167.679688 196.839844 165.5625 C 196.839844 163.445312 195.113281 161.71875 192.996094 161.71875 " fill-opacity="1" fill-rule="nonzero"/></g><g clip-path="url(#id4)"><path fill="#000000" d="M 169.355469 172.984375 C 167.929688 172.984375 166.773438 171.824219 166.773438 170.398438 C 166.773438 168.976562 167.929688 167.816406 169.355469 167.816406 C 170.777344 167.816406 171.9375 168.976562 171.9375 170.398438 C 171.9375 171.824219 170.777344 172.984375 169.355469 172.984375 Z M 169.984375 166.617188 L 169.984375 152.484375 C 169.984375 152.136719 169.703125 151.855469 169.355469 151.855469 C 169.007812 151.855469 168.726562 152.136719 168.726562 152.484375 L 168.726562 166.617188 C 166.90625 166.917969 165.511719 168.496094 165.511719 170.398438 C 165.511719 172.519531 167.234375 174.242188 169.355469 174.242188 C 171.472656 174.242188 173.195312 172.519531 173.195312 170.398438 C 173.195312 168.496094 171.804688 166.917969 169.984375 166.617188 " fill-opacity="1" fill-rule="nonzero"/></g><g clip-path="url(#id5)"><path fill="#000000" d="M 155.96875 130.777344 C 150.21875 130.777344 145.539062 135.457031 145.539062 141.207031 C 145.539062 146.957031 150.21875 151.636719 155.96875 151.636719 L 182.535156 151.636719 C 188.285156 151.636719 192.964844 146.957031 192.964844 141.207031 C 192.964844 135.457031 188.285156 130.777344 182.535156 130.777344 C 181.921875 130.777344 181.292969 130.835938 180.671875 130.945312 C 180.5 130.976562 180.324219 130.9375 180.183594 130.832031 C 180.042969 130.730469 179.953125 130.574219 179.933594 130.398438 C 179.296875 124.867188 174.613281 120.695312 169.035156 120.695312 C 163.492188 120.695312 158.8125 124.835938 158.148438 130.335938 C 158.128906 130.5 158.039062 130.65625 157.90625 130.757812 C 157.773438 130.859375 157.601562 130.90625 157.433594 130.882812 C 156.941406 130.8125 156.449219 130.777344 155.96875 130.777344 Z M 182.535156 152.894531 L 155.96875 152.894531 C 149.523438 152.894531 144.28125 147.652344 144.28125 141.207031 C 144.28125 134.761719 149.523438 129.519531 155.96875 129.519531 C 156.304688 129.519531 156.644531 129.535156 156.988281 129.5625 C 157.996094 123.746094 163.066406 119.433594 169.035156 119.433594 C 175.03125 119.433594 180.105469 123.765625 181.09375 129.609375 C 181.574219 129.550781 182.058594 129.519531 182.535156 129.519531 C 188.980469 129.519531 194.222656 134.761719 194.222656 141.207031 C 194.222656 147.652344 188.980469 152.894531 182.535156 152.894531 " fill-opacity="1" fill-rule="nonzero"/></g></svg>