<svg xmlns="http://www.w3.org/2000/svg" xmlns:xlink="http://www.w3.org/1999/xlink" width="500" zoomAndPan="magnify" viewBox="0 0 375 374.999991" height="500" preserveAspectRatio="xMidYMid meet" version="1.0"><defs><g/><clipPath id="id1"><path d="M 125.949219 128.078125 L 248.949219 128.078125 L 248.949219 246.578125 L 125.949219 246.578125 Z M 125.949219 128.078125 " clip-rule="nonzero"/></clipPath></defs><rect x="-37.5" width="450" fill="#ffffff" y="-37.499999" height="449.999989" fill-opacity="1"/><rect x="-37.5" width="450" fill="#ffffff" y="-37.499999" height="449.999989" fill-opacity="1"/><rect x="-37.5" width="450" fill="#ffffff" y="-37.499999" height="449.999989" fill-opacity="1"/><path fill="#000000" d="M 134.4375 136.542969 L 138.679688 136.542969 L 138.679688 140.773438 L 134.4375 140.773438 Z M 134.4375 136.542969 " fill-opacity="1" fill-rule="nonzero"/><path fill="#000000" d="M 142.917969 136.542969 L 147.160156 136.542969 L 147.160156 140.773438 L 142.917969 140.773438 Z M 142.917969 136.542969 " fill-opacity="1" fill-rule="nonzero"/><path fill="#000000" d="M 151.402344 136.542969 L 155.644531 136.542969 L 155.644531 140.773438 L 151.402344 140.773438 Z M 151.402344 136.542969 " fill-opacity="1" fill-rule="nonzero"/><g clip-path="url(#id1)"><path fill="#000000" d="M 240.464844 128.078125 L 134.4375 128.078125 C 133.878906 128.078125 133.328125 128.132812 132.785156 128.242188 C 132.238281 128.351562 131.707031 128.511719 131.191406 128.722656 C 130.679688 128.9375 130.191406 129.199219 129.726562 129.507812 C 129.265625 129.816406 128.835938 130.164062 128.441406 130.558594 C 128.050781 130.953125 127.699219 131.378906 127.386719 131.839844 C 127.078125 132.304688 126.816406 132.789062 126.605469 133.304688 C 126.390625 133.816406 126.230469 134.34375 126.121094 134.890625 C 126.011719 135.433594 125.957031 135.984375 125.957031 136.542969 L 125.957031 221.183594 C 125.957031 221.738281 126.011719 222.289062 126.121094 222.835938 C 126.230469 223.378906 126.390625 223.910156 126.605469 224.421875 C 126.816406 224.933594 127.078125 225.421875 127.386719 225.882812 C 127.699219 226.347656 128.050781 226.773438 128.441406 227.167969 C 128.835938 227.558594 129.265625 227.910156 129.726562 228.21875 C 130.191406 228.527344 130.679688 228.789062 131.191406 229 C 131.707031 229.214844 132.238281 229.375 132.785156 229.484375 C 133.328125 229.59375 133.878906 229.648438 134.4375 229.648438 L 171.828125 229.648438 L 170.671875 242.34375 L 164.125 242.34375 L 164.125 246.578125 L 210.777344 246.578125 L 210.777344 242.34375 L 204.230469 242.34375 L 203.074219 229.648438 L 240.464844 229.648438 C 241.019531 229.648438 241.570312 229.59375 242.117188 229.484375 C 242.664062 229.375 243.195312 229.214844 243.707031 229 C 244.222656 228.789062 244.710938 228.527344 245.175781 228.21875 C 245.636719 227.910156 246.066406 227.558594 246.457031 227.167969 C 246.851562 226.773438 247.203125 226.347656 247.511719 225.882812 C 247.824219 225.421875 248.085938 224.933594 248.296875 224.421875 C 248.511719 223.910156 248.671875 223.378906 248.78125 222.835938 C 248.890625 222.289062 248.945312 221.738281 248.945312 221.183594 L 248.945312 136.542969 C 248.945312 135.984375 248.890625 135.433594 248.78125 134.890625 C 248.671875 134.34375 248.511719 133.816406 248.296875 133.304688 C 248.085938 132.789062 247.824219 132.304688 247.511719 131.839844 C 247.203125 131.378906 246.851562 130.953125 246.457031 130.558594 C 246.066406 130.164062 245.636719 129.816406 245.175781 129.507812 C 244.710938 129.199219 244.222656 128.9375 243.707031 128.722656 C 243.195312 128.511719 242.664062 128.351562 242.117188 128.242188 C 241.570312 128.132812 241.019531 128.078125 240.464844 128.078125 Z M 134.4375 132.308594 L 240.464844 132.308594 C 240.742188 132.308594 241.019531 132.335938 241.289062 132.390625 C 241.5625 132.445312 241.828125 132.527344 242.085938 132.632812 C 242.34375 132.738281 242.585938 132.871094 242.820312 133.023438 C 243.050781 133.179688 243.265625 133.355469 243.460938 133.550781 C 243.65625 133.746094 243.832031 133.960938 243.988281 134.191406 C 244.144531 134.421875 244.273438 134.664062 244.378906 134.921875 C 244.488281 135.179688 244.566406 135.445312 244.621094 135.714844 C 244.675781 135.988281 244.703125 136.261719 244.703125 136.542969 L 244.703125 145.003906 L 130.195312 145.003906 L 130.195312 136.542969 C 130.195312 136.261719 130.222656 135.988281 130.277344 135.714844 C 130.332031 135.445312 130.414062 135.179688 130.519531 134.921875 C 130.628906 134.664062 130.757812 134.421875 130.914062 134.191406 C 131.066406 133.960938 131.242188 133.746094 131.441406 133.550781 C 131.636719 133.355469 131.851562 133.179688 132.082031 133.023438 C 132.3125 132.871094 132.558594 132.738281 132.816406 132.632812 C 133.074219 132.527344 133.335938 132.445312 133.609375 132.390625 C 133.882812 132.335938 134.160156 132.308594 134.4375 132.308594 Z M 244.703125 149.238281 L 244.703125 208.488281 L 130.195312 208.488281 L 130.195312 149.238281 Z M 199.972656 242.34375 L 174.929688 242.34375 L 176.085938 229.648438 L 198.816406 229.648438 Z M 240.464844 225.417969 L 134.4375 225.417969 C 134.160156 225.414062 133.882812 225.386719 133.609375 225.332031 C 133.335938 225.28125 133.074219 225.199219 132.816406 225.09375 C 132.558594 224.984375 132.3125 224.855469 132.082031 224.703125 C 131.851562 224.546875 131.636719 224.371094 131.441406 224.175781 C 131.242188 223.980469 131.066406 223.765625 130.914062 223.535156 C 130.757812 223.304688 130.628906 223.058594 130.519531 222.804688 C 130.414062 222.546875 130.332031 222.28125 130.277344 222.007812 C 130.222656 221.738281 130.195312 221.460938 130.195312 221.183594 L 130.195312 212.71875 L 244.703125 212.71875 L 244.703125 221.183594 C 244.703125 221.460938 244.675781 221.738281 244.621094 222.007812 C 244.566406 222.28125 244.488281 222.546875 244.378906 222.804688 C 244.273438 223.058594 244.144531 223.304688 243.988281 223.535156 C 243.832031 223.765625 243.65625 223.980469 243.460938 224.175781 C 243.265625 224.371094 243.050781 224.546875 242.820312 224.703125 C 242.585938 224.855469 242.34375 224.984375 242.085938 225.09375 C 241.828125 225.199219 241.5625 225.28125 241.289062 225.332031 C 241.019531 225.386719 240.742188 225.414062 240.464844 225.417969 Z M 240.464844 225.417969 " fill-opacity="1" fill-rule="nonzero"/></g><path fill="#000000" d="M 185.332031 216.953125 L 189.570312 216.953125 L 189.570312 221.183594 L 185.332031 221.183594 Z M 185.332031 216.953125 " fill-opacity="1" fill-rule="nonzero"/><path fill="#000000" d="M 136.558594 172.515625 L 140.800781 172.515625 L 140.800781 176.746094 L 136.558594 176.746094 Z M 136.558594 172.515625 " fill-opacity="1" fill-rule="nonzero"/><path fill="#000000" d="M 145.039062 172.515625 L 176.847656 172.515625 L 176.847656 176.746094 L 145.039062 176.746094 Z M 145.039062 172.515625 " fill-opacity="1" fill-rule="nonzero"/><path fill="#000000" d="M 136.558594 180.980469 L 140.800781 180.980469 L 140.800781 185.210938 L 136.558594 185.210938 Z M 136.558594 180.980469 " fill-opacity="1" fill-rule="nonzero"/><path fill="#000000" d="M 145.039062 180.980469 L 200.171875 180.980469 L 200.171875 185.210938 L 145.039062 185.210938 Z M 145.039062 180.980469 " fill-opacity="1" fill-rule="nonzero"/><path fill="#000000" d="M 136.558594 189.441406 L 140.800781 189.441406 L 140.800781 193.675781 L 136.558594 193.675781 Z M 136.558594 189.441406 " fill-opacity="1" fill-rule="nonzero"/><path fill="#000000" d="M 145.039062 189.441406 L 185.332031 189.441406 L 185.332031 193.675781 L 145.039062 193.675781 Z M 145.039062 189.441406 " fill-opacity="1" fill-rule="nonzero"/><path fill="#000000" d="M 136.558594 197.90625 L 140.800781 197.90625 L 140.800781 202.140625 L 136.558594 202.140625 Z M 136.558594 197.90625 " fill-opacity="1" fill-rule="nonzero"/><path fill="#000000" d="M 145.039062 197.90625 L 206.535156 197.90625 L 206.535156 202.140625 L 145.039062 202.140625 Z M 145.039062 197.90625 " fill-opacity="1" fill-rule="nonzero"/><path fill="#000000" d="M 137.179688 163.429688 L 141.421875 167.664062 L 144.417969 164.667969 L 141.675781 161.933594 L 144.417969 159.199219 L 141.421875 156.207031 L 137.179688 160.4375 C 136.980469 160.636719 136.828125 160.863281 136.71875 161.125 C 136.613281 161.382812 136.558594 161.652344 136.558594 161.933594 C 136.558594 162.214844 136.613281 162.484375 136.71875 162.742188 C 136.828125 163.003906 136.980469 163.230469 137.179688 163.429688 Z M 137.179688 163.429688 " fill-opacity="1" fill-rule="nonzero"/><path fill="#000000" d="M 158.382812 164.667969 L 161.382812 167.664062 L 165.625 163.429688 C 165.824219 163.230469 165.976562 163.003906 166.085938 162.742188 C 166.191406 162.484375 166.246094 162.214844 166.246094 161.933594 C 166.246094 161.652344 166.191406 161.382812 166.085938 161.125 C 165.976562 160.863281 165.824219 160.636719 165.625 160.4375 L 161.382812 156.207031 L 158.382812 159.199219 L 161.125 161.933594 Z M 158.382812 164.667969 " fill-opacity="1" fill-rule="nonzero"/><path fill="#000000" d="M 147.269531 167.613281 L 151.511719 154.917969 L 155.535156 156.253906 L 151.292969 168.953125 Z M 147.269531 167.613281 " fill-opacity="1" fill-rule="nonzero"/><path fill="#000000" d="M 204.414062 180.980469 L 217.136719 180.980469 L 217.136719 185.210938 L 204.414062 185.210938 Z M 204.414062 180.980469 " fill-opacity="1" fill-rule="nonzero"/><path fill="#000000" d="M 210.777344 197.90625 L 215.015625 197.90625 L 215.015625 202.140625 L 210.777344 202.140625 Z M 210.777344 197.90625 " fill-opacity="1" fill-rule="nonzero"/><path fill="#000000" d="M 219.257812 197.90625 L 223.5 197.90625 L 223.5 202.140625 L 219.257812 202.140625 Z M 219.257812 197.90625 " fill-opacity="1" fill-rule="nonzero"/><path fill="#000000" d="M 181.089844 172.515625 L 185.332031 172.515625 L 185.332031 176.746094 L 181.089844 176.746094 Z M 181.089844 172.515625 " fill-opacity="1" fill-rule="nonzero"/><g fill="#000000" fill-opacity="1"><g transform="translate(204.85382, 141.029787)"><g><path d="M 0.65625 0.1875 L 0.65625 -0.03125 C 0.65625 -0.09375 0.6875 -0.125 0.75 -0.125 L 1.40625 -0.125 L 1.40625 -3.828125 L 0.8125 -3.828125 C 0.75 -3.828125 0.71875 -3.859375 0.71875 -3.921875 L 0.71875 -4.140625 C 0.71875 -4.203125 0.75 -4.234375 0.8125 -4.234375 L 2.5 -4.234375 C 2.5625 -4.234375 2.59375 -4.203125 2.59375 -4.140625 L 2.59375 -3.921875 C 2.59375 -3.859375 2.5625 -3.828125 2.5 -3.828125 L 1.90625 -3.828125 L 1.90625 -0.125 L 2.5625 -0.125 C 2.625 -0.125 2.65625 -0.09375 2.65625 -0.03125 L 2.65625 0.1875 C 2.65625 0.25 2.625 0.28125 2.5625 0.28125 L 0.75 0.28125 C 0.6875 0.28125 0.65625 0.25 0.65625 0.1875 Z M 0.65625 0.1875 "/></g></g></g><g fill="#000000" fill-opacity="1"><g transform="translate(208.166194, 141.029787)"><g><path d="M 2.890625 0.1875 C 2.890625 0.25 2.859375 0.28125 2.796875 0.28125 L 2.53125 0.28125 C 2.46875 0.28125 2.4375 0.25 2.4375 0.1875 L 2.4375 -1.625 C 2.4375 -2.03125 2.378906 -2.316406 2.265625 -2.484375 C 2.160156 -2.660156 1.976562 -2.75 1.71875 -2.75 C 1.476562 -2.75 1.28125 -2.65625 1.125 -2.46875 C 0.96875 -2.28125 0.890625 -1.992188 0.890625 -1.609375 L 0.890625 0.1875 C 0.890625 0.25 0.859375 0.28125 0.796875 0.28125 L 0.53125 0.28125 C 0.46875 0.28125 0.4375 0.25 0.4375 0.1875 L 0.4375 -2.1875 C 0.4375 -2.382812 0.4375 -2.535156 0.4375 -2.640625 C 0.4375 -2.742188 0.429688 -2.84375 0.421875 -2.9375 C 0.410156 -2.96875 0.414062 -2.988281 0.4375 -3 C 0.457031 -3.019531 0.484375 -3.03125 0.515625 -3.03125 L 0.75 -3.03125 C 0.8125 -3.03125 0.84375 -3 0.84375 -2.9375 L 0.84375 -2.578125 C 0.945312 -2.765625 1.070312 -2.898438 1.21875 -2.984375 C 1.375 -3.078125 1.550781 -3.125 1.75 -3.125 C 2.144531 -3.125 2.429688 -3 2.609375 -2.75 C 2.796875 -2.507812 2.890625 -2.171875 2.890625 -1.734375 Z M 2.890625 0.1875 "/></g></g></g><g fill="#000000" fill-opacity="1"><g transform="translate(211.478569, 141.029787)"><g><path d="M 2.796875 -4.578125 C 2.835938 -4.554688 2.859375 -4.523438 2.859375 -4.484375 L 2.8125 -4.25 C 2.8125 -4.226562 2.800781 -4.210938 2.78125 -4.203125 C 2.757812 -4.191406 2.742188 -4.191406 2.734375 -4.203125 C 2.660156 -4.234375 2.582031 -4.257812 2.5 -4.28125 C 2.414062 -4.300781 2.332031 -4.3125 2.25 -4.3125 C 1.988281 -4.3125 1.820312 -4.179688 1.75 -3.921875 C 1.71875 -3.804688 1.703125 -3.570312 1.703125 -3.21875 L 1.703125 -2.875 L 2.859375 -2.875 C 2.921875 -2.875 2.953125 -2.847656 2.953125 -2.796875 L 2.953125 -2.59375 C 2.953125 -2.53125 2.921875 -2.5 2.859375 -2.5 L 1.703125 -2.5 L 1.703125 0.1875 C 1.703125 0.25 1.671875 0.28125 1.609375 0.28125 L 1.34375 0.28125 C 1.289062 0.28125 1.265625 0.25 1.265625 0.1875 L 1.265625 -2.5 L 0.453125 -2.5 C 0.390625 -2.5 0.359375 -2.53125 0.359375 -2.59375 L 0.359375 -2.796875 C 0.359375 -2.847656 0.390625 -2.875 0.453125 -2.875 L 1.265625 -2.875 L 1.265625 -3.171875 C 1.265625 -3.648438 1.304688 -4 1.390625 -4.21875 C 1.523438 -4.53125 1.800781 -4.6875 2.21875 -4.6875 C 2.425781 -4.6875 2.617188 -4.648438 2.796875 -4.578125 Z M 2.796875 -4.578125 "/></g></g></g><g fill="#000000" fill-opacity="1"><g transform="translate(214.790944, 141.029787)"><g><path d="M 2.578125 -1.375 C 2.578125 -1.550781 2.554688 -1.722656 2.515625 -1.890625 C 2.472656 -2.054688 2.410156 -2.207031 2.328125 -2.34375 C 2.160156 -2.613281 1.9375 -2.75 1.65625 -2.75 C 1.351562 -2.75 1.125 -2.613281 0.96875 -2.34375 C 0.882812 -2.207031 0.820312 -2.054688 0.78125 -1.890625 C 0.75 -1.722656 0.734375 -1.550781 0.734375 -1.375 C 0.734375 -1.1875 0.75 -1.007812 0.78125 -0.84375 C 0.8125 -0.675781 0.875 -0.53125 0.96875 -0.40625 C 1.164062 -0.132812 1.394531 0 1.65625 0 C 1.957031 0 2.179688 -0.132812 2.328125 -0.40625 C 2.421875 -0.53125 2.484375 -0.675781 2.515625 -0.84375 C 2.554688 -1.007812 2.578125 -1.1875 2.578125 -1.375 Z M 3.03125 -1.375 C 3.03125 -1.132812 3.003906 -0.90625 2.953125 -0.6875 C 2.898438 -0.476562 2.816406 -0.300781 2.703125 -0.15625 C 2.566406 0.0195312 2.410156 0.15625 2.234375 0.25 C 2.066406 0.34375 1.875 0.390625 1.65625 0.390625 C 1.425781 0.390625 1.222656 0.34375 1.046875 0.25 C 0.878906 0.15625 0.734375 0.0195312 0.609375 -0.15625 C 0.492188 -0.3125 0.410156 -0.492188 0.359375 -0.703125 C 0.304688 -0.910156 0.28125 -1.132812 0.28125 -1.375 C 0.28125 -1.875 0.390625 -2.285156 0.609375 -2.609375 C 0.859375 -2.960938 1.207031 -3.140625 1.65625 -3.140625 C 1.875 -3.140625 2.066406 -3.09375 2.234375 -3 C 2.410156 -2.914062 2.566406 -2.785156 2.703125 -2.609375 C 2.921875 -2.285156 3.03125 -1.875 3.03125 -1.375 Z M 3.03125 -1.375 "/></g></g></g><g fill="#000000" fill-opacity="1"><g transform="translate(218.103318, 141.029787)"><g><path d="M 2.015625 -0.125 C 2.078125 -0.125 2.109375 -0.09375 2.109375 -0.03125 L 2.109375 0.1875 C 2.109375 0.25 2.078125 0.28125 2.015625 0.28125 L 0.515625 0.28125 C 0.460938 0.28125 0.4375 0.25 0.4375 0.1875 L 0.4375 -0.03125 C 0.4375 -0.09375 0.460938 -0.125 0.515625 -0.125 L 0.921875 -0.125 L 0.921875 -2.625 L 0.40625 -2.625 C 0.34375 -2.625 0.3125 -2.65625 0.3125 -2.71875 L 0.3125 -2.9375 C 0.3125 -3 0.34375 -3.03125 0.40625 -3.03125 L 1.203125 -3.03125 C 1.265625 -3.03125 1.296875 -3 1.296875 -2.9375 L 1.296875 -2.296875 C 1.566406 -2.847656 1.957031 -3.125 2.46875 -3.125 C 2.726562 -3.125 2.960938 -3.070312 3.171875 -2.96875 C 3.210938 -2.957031 3.234375 -2.9375 3.234375 -2.90625 C 3.242188 -2.882812 3.238281 -2.859375 3.21875 -2.828125 L 3.140625 -2.578125 C 3.128906 -2.546875 3.113281 -2.53125 3.09375 -2.53125 C 3.070312 -2.539062 3.046875 -2.554688 3.015625 -2.578125 C 2.828125 -2.660156 2.617188 -2.703125 2.390625 -2.703125 C 2.035156 -2.691406 1.75 -2.5 1.53125 -2.125 C 1.414062 -1.894531 1.359375 -1.59375 1.359375 -1.21875 L 1.359375 -0.125 Z M 2.015625 -0.125 "/></g></g></g><g fill="#000000" fill-opacity="1"><g transform="translate(221.415693, 141.029787)"><g><path d="M 0.28125 -2.1875 C 0.28125 -2.375 0.273438 -2.519531 0.265625 -2.625 C 0.265625 -2.738281 0.257812 -2.84375 0.25 -2.9375 C 0.25 -3 0.28125 -3.03125 0.34375 -3.03125 L 0.59375 -3.03125 C 0.65625 -3.03125 0.6875 -3 0.6875 -2.9375 L 0.671875 -2.65625 C 0.703125 -2.800781 0.765625 -2.910156 0.859375 -2.984375 C 0.953125 -3.066406 1.046875 -3.109375 1.140625 -3.109375 C 1.304688 -3.109375 1.4375 -3.039062 1.53125 -2.90625 C 1.632812 -2.78125 1.695312 -2.625 1.71875 -2.4375 C 1.738281 -2.582031 1.789062 -2.726562 1.875 -2.875 C 1.957031 -3.019531 2.09375 -3.097656 2.28125 -3.109375 C 2.445312 -3.109375 2.578125 -3.078125 2.671875 -3.015625 C 2.773438 -2.960938 2.851562 -2.878906 2.90625 -2.765625 C 2.96875 -2.660156 3.007812 -2.535156 3.03125 -2.390625 C 3.050781 -2.242188 3.0625 -2.085938 3.0625 -1.921875 L 3.0625 0.1875 C 3.0625 0.25 3.03125 0.28125 2.96875 0.28125 L 2.71875 0.28125 C 2.65625 0.28125 2.625 0.253906 2.625 0.203125 L 2.625 -1.828125 C 2.625 -2.410156 2.503906 -2.703125 2.265625 -2.703125 C 2.179688 -2.703125 2.113281 -2.664062 2.0625 -2.59375 C 2.007812 -2.519531 1.96875 -2.429688 1.9375 -2.328125 C 1.914062 -2.222656 1.898438 -2.09375 1.890625 -1.9375 C 1.878906 -1.78125 1.875 -1.613281 1.875 -1.4375 L 1.875 0.1875 C 1.875 0.25 1.84375 0.28125 1.78125 0.28125 L 1.546875 0.28125 C 1.484375 0.28125 1.453125 0.25 1.453125 0.1875 L 1.453125 -1.828125 C 1.441406 -2.410156 1.320312 -2.703125 1.09375 -2.703125 C 0.96875 -2.703125 0.867188 -2.613281 0.796875 -2.4375 C 0.734375 -2.257812 0.707031 -2.003906 0.71875 -1.671875 L 0.71875 0.1875 C 0.71875 0.25 0.6875 0.28125 0.625 0.28125 L 0.375 0.28125 C 0.3125 0.28125 0.28125 0.25 0.28125 0.1875 Z M 0.28125 -2.1875 "/></g></g></g><g fill="#000000" fill-opacity="1"><g transform="translate(224.728067, 141.029787)"><g><path d="M 2.453125 -1.453125 L 2.328125 -1.453125 C 2.078125 -1.460938 1.867188 -1.453125 1.703125 -1.421875 C 1.535156 -1.398438 1.390625 -1.359375 1.265625 -1.296875 C 1.117188 -1.234375 1.003906 -1.132812 0.921875 -1 C 0.847656 -0.875 0.8125 -0.742188 0.8125 -0.609375 C 0.8125 -0.523438 0.828125 -0.4375 0.859375 -0.34375 C 0.898438 -0.257812 0.957031 -0.191406 1.03125 -0.140625 C 1.15625 -0.0351562 1.300781 0.015625 1.46875 0.015625 C 1.625 0.015625 1.75 -0.015625 1.84375 -0.078125 C 1.945312 -0.140625 2.046875 -0.234375 2.140625 -0.359375 C 2.242188 -0.484375 2.320312 -0.625 2.375 -0.78125 C 2.425781 -0.9375 2.453125 -1.09375 2.453125 -1.25 Z M 0.75 -2.484375 C 0.726562 -2.472656 0.707031 -2.46875 0.6875 -2.46875 C 0.664062 -2.476562 0.65625 -2.492188 0.65625 -2.515625 L 0.65625 -2.78125 C 0.65625 -2.832031 0.6875 -2.875 0.75 -2.90625 C 0.894531 -2.988281 1.046875 -3.046875 1.203125 -3.078125 C 1.359375 -3.117188 1.53125 -3.140625 1.71875 -3.140625 C 2.101562 -3.148438 2.394531 -3.039062 2.59375 -2.8125 C 2.800781 -2.582031 2.90625 -2.296875 2.90625 -1.953125 L 2.90625 -0.40625 C 2.90625 -0.28125 2.90625 -0.171875 2.90625 -0.078125 C 2.914062 0.015625 2.921875 0.109375 2.921875 0.203125 C 2.921875 0.253906 2.890625 0.28125 2.828125 0.28125 L 2.59375 0.28125 C 2.53125 0.28125 2.5 0.253906 2.5 0.203125 L 2.5 -0.265625 C 2.40625 -0.0546875 2.265625 0.101562 2.078125 0.21875 C 1.890625 0.332031 1.664062 0.390625 1.40625 0.390625 C 1.03125 0.390625 0.738281 0.265625 0.53125 0.015625 C 0.457031 -0.0546875 0.398438 -0.148438 0.359375 -0.265625 C 0.328125 -0.378906 0.3125 -0.488281 0.3125 -0.59375 C 0.3125 -0.820312 0.375 -1.03125 0.5 -1.21875 C 0.632812 -1.414062 0.832031 -1.5625 1.09375 -1.65625 C 1.34375 -1.769531 1.765625 -1.828125 2.359375 -1.828125 L 2.453125 -1.828125 L 2.453125 -1.984375 C 2.453125 -2.203125 2.390625 -2.382812 2.265625 -2.53125 C 2.140625 -2.6875 1.957031 -2.765625 1.71875 -2.765625 C 1.53125 -2.765625 1.359375 -2.742188 1.203125 -2.703125 C 1.054688 -2.660156 0.90625 -2.585938 0.75 -2.484375 Z M 0.75 -2.484375 "/></g></g></g><g fill="#000000" fill-opacity="1"><g transform="translate(228.040442, 141.029787)"><g><path d="M 2.828125 0.28125 C 2.640625 0.351562 2.421875 0.390625 2.171875 0.390625 C 1.773438 0.390625 1.519531 0.273438 1.40625 0.046875 C 1.332031 -0.117188 1.296875 -0.398438 1.296875 -0.796875 L 1.296875 -2.5 L 0.4375 -2.5 C 0.375 -2.5 0.34375 -2.53125 0.34375 -2.59375 L 0.34375 -2.796875 C 0.34375 -2.847656 0.375 -2.875 0.4375 -2.875 L 1.296875 -2.875 L 1.296875 -3.8125 C 1.296875 -3.882812 1.320312 -3.921875 1.375 -3.921875 L 1.65625 -3.921875 C 1.71875 -3.921875 1.75 -3.882812 1.75 -3.8125 L 1.75 -2.875 L 2.8125 -2.875 C 2.875 -2.875 2.90625 -2.847656 2.90625 -2.796875 L 2.90625 -2.59375 C 2.90625 -2.53125 2.875 -2.5 2.8125 -2.5 L 1.75 -2.5 L 1.75 -0.5 C 1.75 -0.164062 1.925781 0 2.28125 0 C 2.46875 0 2.640625 -0.0390625 2.796875 -0.125 C 2.816406 -0.125 2.835938 -0.117188 2.859375 -0.109375 C 2.878906 -0.109375 2.890625 -0.09375 2.890625 -0.0625 L 2.90625 0.140625 C 2.914062 0.203125 2.890625 0.25 2.828125 0.28125 Z M 2.828125 0.28125 "/></g></g></g><g fill="#000000" fill-opacity="1"><g transform="translate(231.352816, 141.029787)"><g><path d="M 2.75 -0.125 C 2.8125 -0.125 2.84375 -0.09375 2.84375 -0.03125 L 2.84375 0.1875 C 2.84375 0.25 2.8125 0.28125 2.75 0.28125 L 0.640625 0.28125 C 0.578125 0.28125 0.546875 0.25 0.546875 0.1875 L 0.546875 -0.03125 C 0.546875 -0.09375 0.578125 -0.125 0.640625 -0.125 L 1.484375 -0.125 L 1.484375 -2.625 L 0.703125 -2.625 C 0.640625 -2.625 0.609375 -2.65625 0.609375 -2.71875 L 0.609375 -2.9375 C 0.609375 -3 0.640625 -3.03125 0.703125 -3.03125 L 1.875 -3.03125 C 1.9375 -3.03125 1.96875 -3 1.96875 -2.9375 L 1.96875 -0.125 Z M 1.28125 -4.109375 C 1.28125 -4.210938 1.316406 -4.300781 1.390625 -4.375 C 1.460938 -4.445312 1.550781 -4.484375 1.65625 -4.484375 C 1.75 -4.484375 1.832031 -4.445312 1.90625 -4.375 C 1.976562 -4.300781 2.015625 -4.210938 2.015625 -4.109375 C 2.015625 -4.003906 1.976562 -3.914062 1.90625 -3.84375 C 1.832031 -3.769531 1.75 -3.734375 1.65625 -3.734375 C 1.550781 -3.734375 1.460938 -3.769531 1.390625 -3.84375 C 1.316406 -3.914062 1.28125 -4.003906 1.28125 -4.109375 Z M 1.28125 -4.109375 "/></g></g></g><g fill="#000000" fill-opacity="1"><g transform="translate(234.665191, 141.029787)"><g><path d="M 1.765625 -1.5625 L 3.0625 0.1875 C 3.070312 0.207031 3.070312 0.226562 3.0625 0.25 C 3.0625 0.269531 3.050781 0.28125 3.03125 0.28125 L 2.734375 0.28125 C 2.691406 0.28125 2.648438 0.273438 2.609375 0.265625 C 2.578125 0.253906 2.550781 0.226562 2.53125 0.1875 L 1.484375 -1.234375 L 1.03125 -0.703125 L 1.03125 0.1875 C 1.03125 0.25 1 0.28125 0.9375 0.28125 L 0.671875 0.28125 C 0.609375 0.28125 0.578125 0.25 0.578125 0.1875 L 0.578125 -4.5 C 0.578125 -4.5625 0.609375 -4.59375 0.671875 -4.59375 L 0.9375 -4.59375 C 1 -4.59375 1.03125 -4.5625 1.03125 -4.5 L 1.03125 -1.3125 L 1.203125 -1.53125 L 2.46875 -3.046875 C 2.5 -3.078125 2.546875 -3.09375 2.609375 -3.09375 L 2.9375 -3.09375 C 2.96875 -3.09375 2.984375 -3.082031 2.984375 -3.0625 C 2.992188 -3.039062 2.988281 -3.019531 2.96875 -3 Z M 1.765625 -1.5625 "/></g></g></g><g fill="#000000" fill-opacity="1"><g transform="translate(237.977565, 141.029787)"><g><path d="M 2.453125 -1.453125 L 2.328125 -1.453125 C 2.078125 -1.460938 1.867188 -1.453125 1.703125 -1.421875 C 1.535156 -1.398438 1.390625 -1.359375 1.265625 -1.296875 C 1.117188 -1.234375 1.003906 -1.132812 0.921875 -1 C 0.847656 -0.875 0.8125 -0.742188 0.8125 -0.609375 C 0.8125 -0.523438 0.828125 -0.4375 0.859375 -0.34375 C 0.898438 -0.257812 0.957031 -0.191406 1.03125 -0.140625 C 1.15625 -0.0351562 1.300781 0.015625 1.46875 0.015625 C 1.625 0.015625 1.75 -0.015625 1.84375 -0.078125 C 1.945312 -0.140625 2.046875 -0.234375 2.140625 -0.359375 C 2.242188 -0.484375 2.320312 -0.625 2.375 -0.78125 C 2.425781 -0.9375 2.453125 -1.09375 2.453125 -1.25 Z M 0.75 -2.484375 C 0.726562 -2.472656 0.707031 -2.46875 0.6875 -2.46875 C 0.664062 -2.476562 0.65625 -2.492188 0.65625 -2.515625 L 0.65625 -2.78125 C 0.65625 -2.832031 0.6875 -2.875 0.75 -2.90625 C 0.894531 -2.988281 1.046875 -3.046875 1.203125 -3.078125 C 1.359375 -3.117188 1.53125 -3.140625 1.71875 -3.140625 C 2.101562 -3.148438 2.394531 -3.039062 2.59375 -2.8125 C 2.800781 -2.582031 2.90625 -2.296875 2.90625 -1.953125 L 2.90625 -0.40625 C 2.90625 -0.28125 2.90625 -0.171875 2.90625 -0.078125 C 2.914062 0.015625 2.921875 0.109375 2.921875 0.203125 C 2.921875 0.253906 2.890625 0.28125 2.828125 0.28125 L 2.59375 0.28125 C 2.53125 0.28125 2.5 0.253906 2.5 0.203125 L 2.5 -0.265625 C 2.40625 -0.0546875 2.265625 0.101562 2.078125 0.21875 C 1.890625 0.332031 1.664062 0.390625 1.40625 0.390625 C 1.03125 0.390625 0.738281 0.265625 0.53125 0.015625 C 0.457031 -0.0546875 0.398438 -0.148438 0.359375 -0.265625 C 0.328125 -0.378906 0.3125 -0.488281 0.3125 -0.59375 C 0.3125 -0.820312 0.375 -1.03125 0.5 -1.21875 C 0.632812 -1.414062 0.832031 -1.5625 1.09375 -1.65625 C 1.34375 -1.769531 1.765625 -1.828125 2.359375 -1.828125 L 2.453125 -1.828125 L 2.453125 -1.984375 C 2.453125 -2.203125 2.390625 -2.382812 2.265625 -2.53125 C 2.140625 -2.6875 1.957031 -2.765625 1.71875 -2.765625 C 1.53125 -2.765625 1.359375 -2.742188 1.203125 -2.703125 C 1.054688 -2.660156 0.90625 -2.585938 0.75 -2.484375 Z M 0.75 -2.484375 "/></g></g></g></svg>