<svg xmlns="http://www.w3.org/2000/svg" xmlns:xlink="http://www.w3.org/1999/xlink" width="500" zoomAndPan="magnify" viewBox="0 0 375 374.999991" height="500" preserveAspectRatio="xMidYMid meet" version="1.0"><defs><clipPath id="id1"><path d="M 122.777344 110.605469 L 234.527344 110.605469 L 234.527344 222.355469 L 122.777344 222.355469 Z M 122.777344 110.605469 " clip-rule="nonzero"/></clipPath><clipPath id="id2"><path d="M 93 53 L 296 53 L 296 273 L 93 273 Z M 93 53 " clip-rule="nonzero"/></clipPath><clipPath id="id3"><path d="M 243.71875 53.570312 L 343.226562 133.28125 L 192.714844 321.179688 L 93.203125 241.46875 Z M 243.71875 53.570312 " clip-rule="nonzero"/></clipPath><clipPath id="id4"><path d="M 154.875 -17.59375 L 343.363281 133.386719 L 192.847656 321.289062 L 4.363281 170.304688 Z M 154.875 -17.59375 " clip-rule="nonzero"/></clipPath><clipPath id="id5"><path d="M 154.875 -17.59375 L 343.363281 133.386719 L 192.847656 321.289062 L 4.363281 170.304688 Z M 154.875 -17.59375 " clip-rule="nonzero"/></clipPath></defs><rect x="-37.5" width="450" fill="#ffffff" y="-37.499999" height="449.999989" fill-opacity="1"/><rect x="-37.5" width="450" fill="#ffffff" y="-37.499999" height="449.999989" fill-opacity="1"/><rect x="-37.5" width="450" fill="#ffffff" y="-37.499999" height="449.999989" fill-opacity="1"/><path fill="#000000" d="M 153.296875 153.183594 L 159.984375 153.183594 C 160.472656 153.183594 160.871094 152.789062 160.871094 152.296875 L 160.871094 146.25 C 160.871094 145.757812 160.472656 145.363281 159.984375 145.363281 L 153.296875 145.363281 C 152.808594 145.363281 152.410156 145.757812 152.410156 146.25 L 152.410156 152.296875 C 152.410156 152.789062 152.808594 153.183594 153.296875 153.183594 Z M 153.296875 153.183594 " fill-opacity="1" fill-rule="nonzero"/><path fill="#000000" d="M 196.25 141.476562 L 189.226562 141.476562 C 188.738281 141.476562 188.339844 141.875 188.339844 142.363281 L 188.339844 148.714844 C 188.339844 149.207031 188.738281 149.601562 189.226562 149.601562 L 196.25 149.601562 C 196.738281 149.601562 197.136719 149.207031 197.136719 148.714844 L 197.136719 142.363281 C 197.136719 141.875 196.738281 141.476562 196.25 141.476562 Z M 196.25 141.476562 " fill-opacity="1" fill-rule="nonzero"/><g clip-path="url(#id1)"><path fill="#000000" d="M 233.640625 204.402344 C 230.757812 204.402344 229.152344 203.300781 227.359375 201.402344 C 227.183594 201.210938 226.917969 201.105469 226.671875 201.125 C 226.414062 201.136719 226.171875 201.265625 226.011719 201.46875 C 225.988281 201.496094 223.640625 204.402344 216.898438 204.402344 C 216.171875 204.402344 215.425781 204.339844 214.671875 204.242188 L 214.671875 189.539062 L 218.28125 189.539062 C 218.769531 189.539062 219.167969 189.140625 219.167969 188.652344 L 219.167969 182.480469 L 222.515625 171.664062 C 222.597656 171.394531 222.550781 171.101562 222.382812 170.875 C 222.214844 170.648438 221.949219 170.511719 221.667969 170.511719 L 219.175781 170.511719 L 219.175781 152.554688 C 219.175781 152.0625 218.78125 151.667969 218.289062 151.667969 L 209.765625 151.667969 L 209.765625 146.261719 L 220.214844 124.078125 C 220.683594 124.160156 221.160156 124.21875 221.640625 124.21875 C 222.667969 124.21875 223.652344 124.011719 224.570312 123.652344 L 224.570312 136.640625 C 223.003906 137.011719 221.835938 138.320312 221.835938 139.890625 C 221.835938 141.742188 223.460938 143.25 225.457031 143.25 C 227.632812 143.25 229.402344 144.8125 229.402344 146.734375 C 229.402344 148.652344 227.632812 150.210938 225.457031 150.210938 C 223.285156 150.210938 221.519531 148.652344 221.519531 146.734375 C 221.519531 146.246094 221.121094 145.847656 220.632812 145.847656 C 220.140625 145.847656 219.746094 146.246094 219.746094 146.734375 C 219.746094 149.632812 222.308594 151.988281 225.457031 151.988281 C 228.609375 151.988281 231.175781 149.632812 231.175781 146.734375 C 231.175781 144.734375 229.957031 142.992188 228.164062 142.105469 C 228.730469 141.511719 229.082031 140.742188 229.082031 139.890625 C 229.082031 138.320312 227.914062 137.011719 226.34375 136.640625 L 226.34375 122.671875 C 228.0625 121.390625 229.082031 119.464844 229.082031 117.414062 C 229.082031 113.660156 225.746094 110.605469 221.640625 110.605469 C 217.539062 110.605469 214.203125 113.660156 214.203125 117.414062 C 214.203125 118.410156 214.449219 119.382812 214.90625 120.277344 L 197.644531 137.636719 L 181.144531 137.636719 C 180.65625 137.636719 180.257812 138.03125 180.257812 138.523438 L 180.257812 151.667969 L 172.683594 151.667969 L 172.683594 142.726562 C 172.683594 142.238281 172.289062 141.839844 171.796875 141.839844 L 168.367188 141.839844 L 168.367188 137.894531 C 168.367188 137.402344 167.96875 137.007812 167.480469 137.007812 L 153.289062 137.007812 C 152.800781 137.007812 152.402344 137.402344 152.402344 137.894531 L 152.402344 141.839844 L 148.960938 141.839844 C 148.472656 141.839844 148.074219 142.238281 148.074219 142.726562 L 148.074219 152.949219 L 147.257812 144.429688 C 147.257812 144.425781 147.257812 144.425781 147.257812 144.421875 C 147.257812 144.414062 147.253906 144.40625 147.253906 144.394531 L 147.25 144.390625 C 147.25 144.367188 147.246094 144.347656 147.246094 144.324219 L 144.53125 116.042969 C 144.527344 116.023438 144.515625 116.003906 144.511719 115.980469 C 144.503906 115.929688 144.484375 115.878906 144.46875 115.828125 C 144.445312 115.769531 144.421875 115.714844 144.386719 115.660156 C 144.375 115.640625 144.371094 115.617188 144.355469 115.597656 C 144.339844 115.574219 144.316406 115.5625 144.300781 115.546875 C 144.253906 115.496094 144.210938 115.457031 144.15625 115.417969 C 144.117188 115.390625 144.078125 115.363281 144.03125 115.34375 C 143.980469 115.316406 143.925781 115.300781 143.867188 115.285156 C 143.816406 115.269531 143.765625 115.257812 143.710938 115.253906 C 143.691406 115.253906 143.671875 115.242188 143.648438 115.242188 L 138.875 115.242188 L 138.875 112.085938 C 138.875 111.59375 138.480469 111.199219 137.988281 111.199219 C 137.5 111.199219 137.101562 111.59375 137.101562 112.085938 L 137.101562 115.242188 L 132.339844 115.242188 C 132.316406 115.242188 132.300781 115.253906 132.277344 115.253906 C 132.222656 115.257812 132.171875 115.269531 132.121094 115.28125 C 132.0625 115.296875 132.007812 115.3125 131.957031 115.339844 C 131.910156 115.359375 131.871094 115.386719 131.832031 115.417969 C 131.777344 115.453125 131.730469 115.496094 131.6875 115.542969 C 131.671875 115.5625 131.648438 115.574219 131.632812 115.59375 C 131.617188 115.613281 131.613281 115.636719 131.601562 115.660156 C 131.566406 115.714844 131.542969 115.769531 131.519531 115.828125 C 131.5 115.878906 131.484375 115.925781 131.476562 115.980469 C 131.472656 116.003906 131.460938 116.019531 131.457031 116.042969 L 130.582031 125.148438 C 130.582031 125.148438 130.582031 125.152344 130.582031 125.152344 L 130.578125 125.175781 C 130.578125 125.183594 130.578125 125.191406 130.574219 125.199219 L 127.066406 161.664062 C 127.066406 161.667969 127.0625 161.667969 127.0625 161.671875 L 126.136719 171.316406 C 126.132812 171.335938 126.140625 171.351562 126.140625 171.371094 C 126.140625 171.429688 126.148438 171.484375 126.160156 171.546875 C 126.164062 171.578125 126.160156 171.617188 126.167969 171.648438 C 126.171875 171.652344 126.167969 171.65625 126.171875 171.664062 C 126.171875 171.667969 126.171875 171.667969 126.171875 171.667969 L 129.511719 182.480469 L 129.511719 188.652344 C 129.511719 189.140625 129.90625 189.539062 130.398438 189.539062 L 134.015625 189.539062 L 134.015625 200.761719 C 133.605469 200.476562 133.375 200.285156 133.371094 200.28125 C 133.183594 200.125 132.945312 200.054688 132.699219 200.078125 C 132.457031 200.109375 132.238281 200.234375 132.089844 200.429688 C 130.054688 203.140625 127.375 204.402344 123.667969 204.402344 C 123.175781 204.402344 122.777344 204.796875 122.777344 205.289062 L 122.777344 221.457031 C 122.777344 221.949219 123.175781 222.34375 123.667969 222.34375 L 233.640625 222.34375 C 234.132812 222.34375 234.527344 221.949219 234.527344 221.457031 L 234.527344 205.289062 C 234.527344 204.800781 234.132812 204.402344 233.640625 204.402344 Z M 202.175781 191.898438 L 180.660156 191.898438 L 180.660156 189.539062 L 202.175781 189.539062 Z M 168.027344 191.898438 L 146.503906 191.898438 L 146.503906 189.539062 L 168.027344 189.539062 Z M 146.503906 197.351562 L 168.027344 197.351562 L 168.027344 204.03125 C 166.851562 204.273438 165.765625 204.402344 164.800781 204.402344 C 159.285156 204.402344 153.597656 199.675781 153.539062 199.628906 C 153.351562 199.46875 153.109375 199.402344 152.867188 199.425781 C 152.621094 199.453125 152.402344 199.582031 152.257812 199.777344 C 152.234375 199.808594 150.183594 202.519531 146.503906 203.574219 Z M 180.660156 197.351562 L 202.175781 197.351562 L 202.175781 200.09375 C 201.113281 201.023438 196.902344 204.402344 191.417969 204.402344 C 187.207031 204.402344 183.03125 202.675781 180.660156 201.492188 Z M 133.070312 117.789062 L 136.515625 120.386719 L 132.53125 123.386719 Z M 142.917969 117.789062 L 143.453125 123.390625 L 139.464844 120.386719 Z M 167.585938 162.585938 L 217.402344 162.585938 L 217.402344 170.511719 L 165.414062 170.511719 L 165.414062 162.585938 Z M 143.992188 162.585938 L 138.875 164.949219 L 138.875 162.585938 Z M 138.875 160.8125 L 138.875 158.710938 L 143.738281 160.8125 Z M 147.265625 163.027344 L 147.929688 169.945312 L 140.105469 166.332031 Z M 144.925781 170.515625 L 138.875 170.515625 L 138.875 167.722656 Z M 140.214844 157.355469 L 146.464844 154.65625 L 147.003906 160.289062 Z M 138.875 156.003906 L 138.875 154.25 L 142.933594 154.25 Z M 138.875 152.472656 L 138.875 150.113281 L 143.523438 152.472656 Z M 138.875 143.535156 L 138.875 140.742188 L 143.304688 143.535156 Z M 142.664062 145.308594 L 138.875 147.230469 L 138.875 145.308594 Z M 138.875 133.566406 L 138.875 131.234375 L 142.433594 133.566406 Z M 142.339844 135.339844 L 138.875 137.527344 L 138.875 135.339844 Z M 138.875 124.421875 L 138.875 122.164062 L 141.875 124.421875 Z M 141.554688 126.195312 L 138.875 127.953125 L 138.875 126.195312 Z M 137.101562 124.421875 L 134.105469 124.421875 L 137.101562 122.167969 Z M 137.101562 126.195312 L 137.101562 127.953125 L 134.421875 126.195312 Z M 137.101562 133.566406 L 133.546875 133.566406 L 137.101562 131.234375 Z M 137.101562 135.339844 L 137.101562 137.523438 L 133.644531 135.339844 Z M 137.101562 143.535156 L 132.683594 143.535156 L 137.101562 140.742188 Z M 137.101562 145.308594 L 137.101562 147.226562 L 133.324219 145.308594 Z M 137.101562 152.472656 L 132.464844 152.472656 L 137.101562 150.125 Z M 137.101562 154.25 L 137.101562 156.003906 L 133.042969 154.25 Z M 137.101562 160.8125 L 132.238281 160.8125 L 137.101562 158.710938 Z M 137.101562 162.585938 L 137.101562 164.949219 L 131.988281 162.585938 Z M 137.101562 170.515625 L 131.054688 170.515625 L 137.101562 167.722656 Z M 139.957031 148.671875 L 145.605469 145.804688 L 146.183594 151.839844 Z M 139.652344 139.132812 L 144.660156 135.972656 L 145.308594 142.703125 Z M 139.605469 129.59375 L 143.785156 126.851562 L 144.347656 132.699219 Z M 132.199219 126.855469 L 136.371094 129.59375 L 131.636719 132.699219 Z M 131.320312 135.972656 L 136.328125 139.132812 L 130.671875 142.707031 Z M 130.375 145.800781 L 136.039062 148.675781 L 129.792969 151.84375 Z M 129.519531 154.65625 L 135.765625 157.355469 L 128.980469 160.289062 Z M 128.714844 163.03125 L 135.875 166.335938 L 128.050781 169.949219 Z M 217.402344 160.8125 L 172.683594 160.8125 L 172.683594 153.441406 L 217.402344 153.441406 Z M 199.390625 138.398438 L 216.640625 121.054688 L 218.347656 119.328125 C 218.53125 119.144531 218.738281 119.039062 218.976562 119.015625 C 219.316406 118.972656 219.699219 119.097656 219.945312 119.335938 C 220.066406 119.449219 220.203125 119.640625 220.183594 119.886719 C 220.175781 119.972656 220.148438 120.0625 220.101562 120.164062 L 220.035156 120.308594 L 204.835938 142.175781 Z M 215.976562 117.414062 C 215.976562 114.636719 218.519531 112.378906 221.640625 112.378906 C 224.765625 112.378906 227.308594 114.636719 227.308594 117.414062 C 227.308594 119.019531 226.4375 120.539062 224.972656 121.480469 C 223.835938 122.222656 222.394531 122.53125 221.007812 122.402344 L 221.714844 120.90625 C 221.714844 120.90625 221.714844 120.902344 221.714844 120.902344 C 223.761719 120.867188 225.421875 119.320312 225.421875 117.414062 C 225.421875 115.484375 223.726562 113.914062 221.640625 113.914062 C 219.5625 113.914062 217.871094 115.484375 217.871094 117.414062 C 217.871094 117.449219 217.878906 117.480469 217.878906 117.511719 C 217.59375 117.648438 217.332031 117.839844 217.089844 118.078125 L 216.25 118.925781 C 216.074219 118.4375 215.976562 117.929688 215.976562 117.414062 Z M 182.035156 139.410156 L 197.738281 139.410156 L 204.550781 144.136719 C 204.550781 144.136719 204.550781 144.136719 204.550781 144.140625 L 207.992188 146.527344 L 207.992188 151.667969 L 182.035156 151.667969 Z M 153.289062 143.613281 C 153.777344 143.613281 154.175781 143.21875 154.175781 142.726562 L 154.175781 138.78125 L 166.59375 138.78125 L 166.59375 142.726562 C 166.59375 143.21875 166.988281 143.613281 167.480469 143.613281 L 170.910156 143.613281 L 170.910156 160.8125 L 168.472656 160.8125 L 168.472656 155.648438 C 168.472656 155.160156 168.074219 154.761719 167.585938 154.761719 L 160.898438 154.761719 C 160.410156 154.761719 160.011719 155.160156 160.011719 155.648438 L 160.011719 161.699219 C 160.011719 162.191406 160.410156 162.585938 160.898438 162.585938 L 163.640625 162.585938 L 163.640625 170.515625 L 149.847656 170.515625 L 149.847656 143.613281 Z M 140.996094 117.015625 L 138.875 118.613281 L 138.875 117.015625 Z M 137.101562 118.605469 L 134.992188 117.015625 L 137.101562 117.015625 Z M 131.285156 183.234375 L 217.394531 183.234375 L 217.394531 187.765625 L 131.285156 187.765625 Z M 232.753906 220.570312 L 124.554688 220.570312 L 124.554688 206.152344 C 128.0625 205.96875 130.824219 204.664062 132.953125 202.183594 C 133.308594 202.433594 133.78125 202.746094 134.363281 203.085938 C 134.394531 203.109375 134.425781 203.128906 134.457031 203.148438 C 136.527344 204.34375 139.78125 205.765625 143.550781 205.765625 C 144.285156 205.765625 145.03125 205.699219 145.773438 205.566406 C 149.523438 204.890625 152.019531 202.675781 153.089844 201.527344 C 154.867188 202.863281 159.773438 206.175781 164.800781 206.175781 C 166.089844 206.175781 167.542969 205.984375 169.121094 205.609375 C 173.101562 204.660156 176.808594 202.792969 178.085938 202.109375 C 178.382812 202.285156 178.816406 202.53125 179.363281 202.820312 C 181.769531 204.074219 186.535156 206.175781 191.417969 206.175781 C 197.230469 206.175781 201.632812 202.894531 203.132812 201.609375 C 204.625 202.601562 208.695312 205.054688 213.636719 205.894531 C 213.636719 205.898438 213.636719 205.898438 213.636719 205.898438 C 214.742188 206.082031 215.839844 206.175781 216.898438 206.175781 C 222.503906 206.175781 225.464844 204.328125 226.707031 203.265625 C 228.101562 204.636719 229.882812 205.921875 232.753906 206.140625 Z M 232.753906 220.570312 " fill-opacity="1" fill-rule="nonzero"/></g><g clip-path="url(#id2)"><g clip-path="url(#id3)"><g clip-path="url(#id4)"><g clip-path="url(#id5)"><path fill="#1e1b1b" d="M 247.589844 212.953125 C 248.339844 212.074219 249.882812 211.550781 251.015625 211.792969 L 274 216.714844 C 275.132812 216.957031 276.527344 216.332031 277.097656 215.324219 L 287.285156 194.855469 C 287.742188 193.789062 287.414062 192.28125 286.558594 191.5 L 268.871094 175.351562 C 268.015625 174.570312 267.511719 173.003906 267.75 171.871094 L 268.949219 165.175781 C 269.121094 164.03125 270.148438 162.757812 271.230469 162.351562 L 293.378906 154.003906 C 294.464844 153.597656 295.308594 152.316406 295.257812 151.160156 L 292.9375 128.046875 C 292.757812 126.902344 291.675781 125.808594 290.535156 125.613281 L 267.085938 121.625 C 265.945312 121.429688 264.6875 120.382812 264.289062 119.296875 L 261.898438 113.289062 C 261.441406 112.226562 261.632812 110.597656 262.324219 109.667969 L 276.566406 90.515625 C 277.257812 89.585938 277.289062 88.046875 276.632812 87.09375 L 262.425781 68.804688 C 261.664062 67.929688 260.171875 67.585938 259.105469 68.039062 L 237.355469 77.304688 C 236.289062 77.761719 235.050781 77.824219 234.601562 77.449219 L 234.183594 77.117188 C 231.652344 75.085938 228.117188 72.667969 228.117188 72.667969 C 227.160156 72.015625 226.445312 70.535156 226.523438 69.382812 L 228.167969 45.460938 C 228.246094 44.308594 227.441406 42.988281 226.375 42.535156 L 205.046875 34.75 C 203.9375 34.417969 202.5 34.925781 201.847656 35.882812 L 188.644531 55.300781 C 187.992188 56.257812 186.519531 56.945312 185.367188 56.828125 L 177.066406 56.25 C 175.910156 56.207031 174.507812 55.34375 173.949219 54.328125 L 162.398438 33.320312 C 161.839844 32.308594 160.449219 31.632812 159.308594 31.820312 L 137.824219 36.554688 C 136.710938 36.867188 135.773438 38.066406 135.742188 39.222656 L 135.128906 62.578125 C 135.097656 63.738281 134.226562 65.105469 133.191406 65.621094 L 124.441406 70.402344 C 123.445312 70.992188 121.796875 71.027344 120.78125 70.476562 L 99.785156 59.097656 C 98.769531 58.546875 97.234375 58.734375 96.378906 59.511719 C 96.378906 59.511719 85.546875 69.359375 80.148438 76.09375 L 80.121094 76.132812 C 80.089844 76.171875 80.554688 77.015625 81.15625 78.003906 L 93.257812 97.96875 C 93.859375 98.957031 93.867188 100.582031 93.28125 101.578125 L 87.871094 111.617188 C 87.367188 112.660156 86.007812 113.582031 84.855469 113.667969 L 61.179688 115.441406 C 60.027344 115.527344 58.847656 116.515625 58.5625 117.636719 L 54.464844 137.902344 C 54.296875 139.046875 55.007812 140.398438 56.046875 140.90625 L 77.117188 151.195312 C 78.15625 151.703125 79.054688 153.0625 79.109375 154.21875 L 80.207031 166.339844 C 80.359375 167.488281 79.726562 168.996094 78.804688 169.691406 L 59.980469 183.878906 C 59.054688 184.574219 58.605469 186.039062 58.980469 187.136719 L 66.625 206.160156 C 67.109375 207.210938 68.449219 207.957031 69.597656 207.824219 L 93.03125 205.066406 C 94.179688 204.929688 95.679688 205.585938 96.363281 206.515625 L 103.917969 215.925781 C 104.679688 216.796875 104.976562 218.398438 104.574219 219.484375 L 96.460938 241.4375 C 96.058594 242.523438 96.453125 244.023438 97.335938 244.773438 C 97.335938 244.773438 97.808594 245.175781 98.875 246.03125 C 104.421875 250.472656 114.460938 256.5625 114.460938 256.5625 C 115.449219 257.164062 116.992188 257.050781 117.886719 256.316406 L 136.246094 241.21875 C 137.140625 240.484375 138.761719 240.207031 139.847656 240.609375 L 150.394531 244.019531 C 151.507812 244.328125 152.625 245.507812 152.875 246.636719 L 157.902344 269.4375 C 158.148438 270.566406 159.296875 271.566406 160.453125 271.660156 L 181.863281 272.222656 C 183.023438 272.191406 184.257812 271.261719 184.613281 270.160156 L 191.953125 247.390625 C 192.308594 246.289062 193.519531 245.171875 194.648438 244.914062 L 203.847656 242.4375 C 204.953125 242.097656 206.53125 242.484375 207.351562 243.300781 L 223.941406 259.792969 C 224.765625 260.609375 226.273438 260.832031 227.292969 260.289062 L 246.269531 248.78125 C 247.226562 248.128906 247.765625 246.679688 247.46875 245.5625 L 241.316406 222.371094 C 241.019531 221.25 241.433594 219.65625 242.242188 218.824219 Z M 129.894531 206.8125 C 99.535156 182.496094 94.648438 138.15625 118.980469 107.777344 C 143.3125 77.402344 187.648438 72.492188 218.011719 96.8125 C 248.371094 121.128906 253.257812 165.46875 228.925781 195.84375 C 204.59375 226.222656 160.257812 231.132812 129.894531 206.8125 Z M 129.894531 206.8125 " fill-opacity="1" fill-rule="nonzero"/></g></g></g></g></svg>