<svg xmlns="http://www.w3.org/2000/svg" xmlns:xlink="http://www.w3.org/1999/xlink" width="500" zoomAndPan="magnify" viewBox="0 0 375 374.999991" height="500" preserveAspectRatio="xMidYMid meet" version="1.0"><defs><clipPath id="id1"><path d="M 112.5 186 L 188 186 L 188 213 L 112.5 213 Z M 112.5 186 " clip-rule="nonzero"/></clipPath><clipPath id="id2"><path d="M 112.5 162 L 188 162 L 188 189 L 112.5 189 Z M 112.5 162 " clip-rule="nonzero"/></clipPath><clipPath id="id3"><path d="M 187 186 L 262.5 186 L 262.5 213 L 187 213 Z M 187 186 " clip-rule="nonzero"/></clipPath><clipPath id="id4"><path d="M 187 162 L 262.5 162 L 262.5 189 L 187 189 Z M 187 162 " clip-rule="nonzero"/></clipPath><clipPath id="id5"><path d="M 162 112.5 L 189 112.5 L 189 188 L 162 188 Z M 162 112.5 " clip-rule="nonzero"/></clipPath><clipPath id="id6"><path d="M 186 112.5 L 213 112.5 L 213 188 L 186 188 Z M 186 112.5 " clip-rule="nonzero"/></clipPath><clipPath id="id7"><path d="M 162 187 L 189 187 L 189 262.5 L 162 262.5 Z M 162 187 " clip-rule="nonzero"/></clipPath><clipPath id="id8"><path d="M 186 187 L 213 187 L 213 262.5 L 186 262.5 Z M 186 187 " clip-rule="nonzero"/></clipPath></defs><rect x="-37.5" width="450" fill="#ffffff" y="-37.499999" height="449.999989" fill-opacity="1"/><rect x="-37.5" width="450" fill="#ffffff" y="-37.499999" height="449.999989" fill-opacity="1"/><rect x="-37.5" width="450" fill="#ffffff" y="-37.499999" height="449.999989" fill-opacity="1"/><g clip-path="url(#id1)"><path fill="#000000" d="M 112.6875 186.878906 C 112.503906 191.644531 115.371094 195.363281 118.847656 198.253906 C 122.679688 201.101562 128.039062 203.652344 134.667969 205.738281 C 147.925781 209.902344 166.144531 212.4375 186.179688 212.4375 L 187.503906 212.4375 L 187.503906 211.816406 C 147.242188 211.816406 117.675781 200.296875 117.675781 186.878906 Z M 112.6875 186.878906 " fill-opacity="1" fill-rule="nonzero"/></g><g clip-path="url(#id2)"><path fill="#000000" d="M 112.6875 188.121094 C 112.503906 183.355469 115.371094 179.636719 118.847656 176.746094 C 122.679688 173.898438 128.039062 171.347656 134.667969 169.261719 C 147.925781 165.097656 166.144531 162.5625 186.179688 162.5625 L 187.503906 162.5625 L 187.503906 163.183594 C 147.242188 163.183594 117.675781 174.703125 117.675781 188.121094 Z M 112.6875 188.121094 " fill-opacity="1" fill-rule="nonzero"/></g><g clip-path="url(#id3)"><path fill="#000000" d="M 262.3125 186.878906 C 262.496094 191.644531 259.628906 195.363281 256.152344 198.253906 C 252.320312 201.101562 246.960938 203.652344 240.332031 205.738281 C 227.074219 209.902344 208.855469 212.4375 188.820312 212.4375 L 187.496094 212.4375 L 187.496094 211.816406 C 227.757812 211.816406 257.324219 200.296875 257.324219 186.878906 Z M 262.3125 186.878906 " fill-opacity="1" fill-rule="nonzero"/></g><g clip-path="url(#id4)"><path fill="#000000" d="M 262.3125 188.121094 C 262.496094 183.355469 259.628906 179.636719 256.152344 176.746094 C 252.320312 173.898438 246.960938 171.347656 240.332031 169.261719 C 227.074219 165.097656 208.855469 162.5625 188.820312 162.5625 L 187.496094 162.5625 L 187.496094 163.183594 C 227.757812 163.183594 257.324219 174.703125 257.324219 188.121094 Z M 262.3125 188.121094 " fill-opacity="1" fill-rule="nonzero"/></g><path fill="#000000" d="M 202.46875 187.507812 C 202.46875 195.769531 195.769531 202.46875 187.507812 202.46875 C 179.242188 202.46875 172.542969 195.769531 172.542969 187.507812 C 172.542969 179.242188 179.242188 172.542969 187.507812 172.542969 C 195.769531 172.542969 202.46875 179.242188 202.46875 187.507812 Z M 202.46875 187.507812 " fill-opacity="1" fill-rule="nonzero"/><path fill="#000000" d="M 134.160156 239.957031 C 137.402344 243.460938 142.058594 244.0625 146.5625 243.648438 C 151.28125 242.953125 156.875 240.964844 163.039062 237.75 C 175.359375 231.324219 190.03125 220.234375 204.199219 206.066406 L 205.136719 205.128906 L 204.695312 204.6875 C 176.226562 233.15625 147.179688 245.921875 137.6875 236.429688 Z M 134.160156 239.957031 " fill-opacity="1" fill-rule="nonzero"/><path fill="#000000" d="M 135.039062 240.839844 C 131.539062 237.597656 130.9375 232.941406 131.351562 228.4375 C 132.046875 223.71875 134.035156 218.121094 137.246094 211.960938 C 143.675781 199.640625 154.765625 184.964844 168.933594 170.796875 L 169.871094 169.859375 L 170.3125 170.300781 C 141.839844 198.773438 129.078125 227.820312 138.566406 237.3125 L 135.042969 240.839844 Z M 135.039062 240.839844 " fill-opacity="1" fill-rule="nonzero"/><path fill="#000000" d="M 239.960938 134.160156 C 243.460938 137.398438 244.0625 142.054688 243.648438 146.558594 C 242.953125 151.28125 240.964844 156.875 237.753906 163.035156 C 231.324219 175.359375 220.234375 190.03125 206.066406 204.199219 L 205.128906 205.136719 L 204.6875 204.695312 C 233.160156 176.226562 245.921875 147.175781 236.433594 137.6875 L 239.957031 134.160156 Z M 239.960938 134.160156 " fill-opacity="1" fill-rule="nonzero"/><path fill="#000000" d="M 240.839844 135.039062 C 237.597656 131.535156 232.941406 130.9375 228.4375 131.351562 C 223.71875 132.046875 218.125 134.03125 211.960938 137.246094 C 199.640625 143.671875 184.96875 154.765625 170.796875 168.933594 L 169.863281 169.867188 L 170.300781 170.308594 C 198.773438 141.839844 227.820312 129.078125 237.3125 138.566406 Z M 240.839844 135.039062 " fill-opacity="1" fill-rule="nonzero"/><path fill="#000000" d="M 135.039062 134.160156 C 131.539062 137.402344 130.9375 142.058594 131.351562 146.5625 C 132.046875 151.28125 134.035156 156.878906 137.246094 163.039062 C 143.675781 175.359375 154.765625 190.035156 168.933594 204.203125 L 169.871094 205.136719 L 170.3125 204.699219 C 141.839844 176.226562 129.078125 147.179688 138.566406 137.6875 L 135.042969 134.160156 Z M 135.039062 134.160156 " fill-opacity="1" fill-rule="nonzero"/><path fill="#000000" d="M 134.160156 135.039062 C 137.402344 131.539062 142.058594 130.9375 146.5625 131.351562 C 151.28125 132.046875 156.875 134.035156 163.039062 137.246094 C 175.359375 143.675781 190.03125 154.765625 204.199219 168.933594 L 205.136719 169.871094 L 204.695312 170.3125 C 176.226562 141.839844 147.179688 129.078125 137.6875 138.570312 L 134.160156 135.042969 Z M 134.160156 135.039062 " fill-opacity="1" fill-rule="nonzero"/><path fill="#000000" d="M 240.839844 239.960938 C 237.597656 243.464844 232.941406 244.0625 228.4375 243.648438 C 223.71875 242.953125 218.121094 240.964844 211.960938 237.753906 C 199.640625 231.324219 184.96875 220.234375 170.796875 206.066406 L 169.863281 205.128906 L 170.300781 204.691406 C 198.773438 233.160156 227.820312 245.921875 237.3125 236.433594 Z M 240.839844 239.960938 " fill-opacity="1" fill-rule="nonzero"/><path fill="#000000" d="M 239.960938 240.839844 C 243.460938 237.597656 244.0625 232.941406 243.648438 228.4375 C 242.953125 223.71875 240.964844 218.125 237.753906 211.960938 C 231.324219 199.640625 220.234375 184.96875 206.066406 170.800781 L 205.128906 169.863281 L 204.6875 170.304688 C 233.160156 198.773438 245.921875 227.824219 236.433594 237.3125 L 239.957031 240.839844 Z M 239.960938 240.839844 " fill-opacity="1" fill-rule="nonzero"/><g clip-path="url(#id5)"><path fill="#000000" d="M 188.121094 112.6875 C 183.355469 112.503906 179.636719 115.371094 176.746094 118.847656 C 173.898438 122.679688 171.347656 128.039062 169.261719 134.667969 C 165.097656 147.925781 162.5625 166.144531 162.5625 186.179688 L 162.5625 187.503906 L 163.183594 187.503906 C 163.183594 147.242188 174.703125 117.675781 188.121094 117.675781 Z M 188.121094 112.6875 " fill-opacity="1" fill-rule="nonzero"/></g><g clip-path="url(#id6)"><path fill="#000000" d="M 186.878906 112.6875 C 191.644531 112.503906 195.363281 115.371094 198.253906 118.847656 C 201.101562 122.679688 203.652344 128.039062 205.738281 134.667969 C 209.902344 147.925781 212.4375 166.144531 212.4375 186.179688 L 212.4375 187.503906 L 211.816406 187.503906 C 211.816406 147.242188 200.296875 117.675781 186.878906 117.675781 Z M 186.878906 112.6875 " fill-opacity="1" fill-rule="nonzero"/></g><g clip-path="url(#id7)"><path fill="#000000" d="M 188.121094 262.3125 C 183.355469 262.496094 179.636719 259.628906 176.746094 256.152344 C 173.898438 252.320312 171.347656 246.960938 169.261719 240.332031 C 165.097656 227.074219 162.5625 208.855469 162.5625 188.820312 L 162.5625 187.496094 L 163.183594 187.496094 C 163.183594 227.757812 174.703125 257.324219 188.121094 257.324219 Z M 188.121094 262.3125 " fill-opacity="1" fill-rule="nonzero"/></g><g clip-path="url(#id8)"><path fill="#000000" d="M 186.878906 262.3125 C 191.644531 262.496094 195.363281 259.628906 198.253906 256.152344 C 201.101562 252.320312 203.652344 246.960938 205.738281 240.332031 C 209.902344 227.074219 212.4375 208.855469 212.4375 188.820312 L 212.4375 187.496094 L 211.816406 187.496094 C 211.816406 227.757812 200.296875 257.324219 186.878906 257.324219 Z M 186.878906 262.3125 " fill-opacity="1" fill-rule="nonzero"/></g></svg>