<svg xmlns="http://www.w3.org/2000/svg" xmlns:xlink="http://www.w3.org/1999/xlink" width="500" zoomAndPan="magnify" viewBox="0 0 375 374.999991" height="500" preserveAspectRatio="xMidYMid meet" version="1.0"><defs><clipPath id="id1"><path d="M 182 143.851562 L 193 143.851562 L 193 198 L 182 198 Z M 182 143.851562 " clip-rule="nonzero"/></clipPath><clipPath id="id2"><path d="M 118 229 L 257 229 L 257 293.101562 L 118 293.101562 Z M 118 229 " clip-rule="nonzero"/></clipPath><clipPath id="id3"><path d="M 112.5 216 L 262.5 216 L 262.5 225 L 112.5 225 Z M 112.5 216 " clip-rule="nonzero"/></clipPath><clipPath id="id4"><path d="M 165 81.691406 L 211 81.691406 L 211 147.691406 L 165 147.691406 Z M 165 81.691406 " clip-rule="nonzero"/></clipPath></defs><rect x="-37.5" width="450" fill="#ffffff" y="-37.499999" height="449.999989" fill-opacity="1"/><rect x="-37.5" width="450" fill="#ffffff" y="-37.499999" height="449.999989" fill-opacity="1"/><rect x="-37.5" width="450" fill="#ffffff" y="-37.499999" height="449.999989" fill-opacity="1"/><path fill="#000000" d="M 215.605469 197.3125 C 215.867188 197.3125 216.128906 197.289062 216.390625 197.234375 C 216.648438 197.183594 216.898438 197.109375 217.140625 197.007812 C 217.386719 196.90625 217.617188 196.78125 217.835938 196.636719 C 218.054688 196.488281 218.257812 196.324219 218.445312 196.136719 C 218.632812 195.949219 218.796875 195.75 218.945312 195.53125 C 219.089844 195.3125 219.214844 195.078125 219.316406 194.835938 C 219.417969 194.59375 219.492188 194.34375 219.546875 194.085938 C 219.597656 193.824219 219.621094 193.566406 219.621094 193.300781 L 219.621094 153.179688 C 219.621094 152.917969 219.597656 152.65625 219.546875 152.398438 C 219.496094 152.140625 219.417969 151.890625 219.316406 151.644531 C 219.214844 151.402344 219.09375 151.171875 218.945312 150.953125 C 218.800781 150.734375 218.632812 150.53125 218.445312 150.34375 C 218.257812 150.15625 218.058594 149.992188 217.835938 149.84375 C 217.617188 149.699219 217.386719 149.574219 217.144531 149.472656 C 216.898438 149.375 216.648438 149.296875 216.390625 149.246094 C 216.128906 149.195312 215.871094 149.167969 215.605469 149.167969 C 215.339844 149.167969 215.082031 149.195312 214.820312 149.246094 C 214.5625 149.296875 214.3125 149.375 214.066406 149.472656 C 213.824219 149.574219 213.59375 149.699219 213.375 149.84375 C 213.152344 149.992188 212.949219 150.15625 212.765625 150.34375 C 212.578125 150.53125 212.410156 150.734375 212.265625 150.953125 C 212.117188 151.171875 211.996094 151.402344 211.894531 151.644531 C 211.792969 151.890625 211.714844 152.140625 211.664062 152.398438 C 211.613281 152.65625 211.589844 152.917969 211.589844 153.179688 L 211.589844 193.300781 C 211.589844 193.566406 211.613281 193.824219 211.664062 194.085938 C 211.71875 194.34375 211.792969 194.59375 211.894531 194.835938 C 211.996094 195.078125 212.121094 195.3125 212.265625 195.53125 C 212.414062 195.75 212.578125 195.949219 212.765625 196.136719 C 212.953125 196.324219 213.15625 196.488281 213.375 196.636719 C 213.59375 196.78125 213.824219 196.90625 214.070312 197.007812 C 214.3125 197.109375 214.5625 197.183594 214.820312 197.234375 C 215.082031 197.289062 215.339844 197.3125 215.605469 197.3125 Z M 215.605469 197.3125 " fill-opacity="1" fill-rule="nonzero"/><path fill="#000000" d="M 159.359375 197.3125 C 159.625 197.3125 159.886719 197.289062 160.144531 197.234375 C 160.402344 197.183594 160.652344 197.109375 160.898438 197.007812 C 161.140625 196.90625 161.371094 196.78125 161.59375 196.636719 C 161.8125 196.488281 162.015625 196.324219 162.199219 196.136719 C 162.386719 195.949219 162.554688 195.75 162.699219 195.53125 C 162.847656 195.3125 162.96875 195.078125 163.070312 194.835938 C 163.171875 194.59375 163.25 194.34375 163.300781 194.085938 C 163.351562 193.824219 163.378906 193.566406 163.378906 193.300781 L 163.378906 153.179688 C 163.378906 152.917969 163.351562 152.65625 163.300781 152.398438 C 163.25 152.140625 163.171875 151.890625 163.074219 151.644531 C 162.972656 151.402344 162.847656 151.171875 162.703125 150.953125 C 162.554688 150.734375 162.386719 150.53125 162.203125 150.34375 C 162.015625 150.15625 161.8125 149.992188 161.59375 149.84375 C 161.375 149.699219 161.140625 149.574219 160.898438 149.472656 C 160.65625 149.375 160.402344 149.296875 160.144531 149.246094 C 159.886719 149.195312 159.625 149.167969 159.359375 149.167969 C 159.097656 149.167969 158.835938 149.195312 158.578125 149.246094 C 158.320312 149.296875 158.066406 149.375 157.824219 149.472656 C 157.578125 149.574219 157.347656 149.699219 157.128906 149.84375 C 156.910156 149.992188 156.707031 150.15625 156.519531 150.34375 C 156.332031 150.53125 156.167969 150.734375 156.019531 150.953125 C 155.875 151.171875 155.75 151.402344 155.648438 151.644531 C 155.546875 151.890625 155.472656 152.140625 155.421875 152.398438 C 155.371094 152.65625 155.34375 152.917969 155.34375 153.179688 L 155.34375 193.300781 C 155.34375 193.566406 155.371094 193.824219 155.421875 194.085938 C 155.472656 194.34375 155.550781 194.59375 155.652344 194.835938 C 155.75 195.078125 155.875 195.3125 156.023438 195.53125 C 156.167969 195.75 156.335938 195.949219 156.523438 196.136719 C 156.707031 196.324219 156.910156 196.488281 157.128906 196.636719 C 157.347656 196.78125 157.582031 196.90625 157.824219 197.007812 C 158.066406 197.109375 158.320312 197.183594 158.578125 197.234375 C 158.835938 197.289062 159.097656 197.3125 159.359375 197.3125 Z M 159.359375 197.3125 " fill-opacity="1" fill-rule="nonzero"/><path fill="#000000" d="M 243.304688 181.582031 C 241.011719 177.59375 238.320312 173.894531 235.230469 170.480469 C 232.140625 167.070312 228.722656 164.023438 224.980469 161.34375 L 224.980469 193.300781 C 224.980469 193.917969 224.917969 194.523438 224.800781 195.128906 C 224.679688 195.730469 224.5 196.316406 224.265625 196.882812 C 224.03125 197.453125 223.742188 197.992188 223.398438 198.503906 C 223.058594 199.015625 222.667969 199.488281 222.234375 199.921875 C 221.796875 200.355469 221.324219 200.742188 220.8125 201.085938 C 220.300781 201.425781 219.761719 201.714844 219.191406 201.949219 C 218.625 202.1875 218.039062 202.363281 217.433594 202.484375 C 216.832031 202.601562 216.222656 202.664062 215.605469 202.664062 C 214.988281 202.664062 214.378906 202.601562 213.777344 202.484375 C 213.171875 202.363281 212.585938 202.1875 212.019531 201.949219 C 211.449219 201.714844 210.910156 201.425781 210.398438 201.085938 C 209.886719 200.742188 209.414062 200.355469 208.976562 199.921875 C 208.542969 199.488281 208.152344 199.015625 207.8125 198.503906 C 207.46875 197.992188 207.179688 197.453125 206.945312 196.882812 C 206.710938 196.316406 206.53125 195.730469 206.410156 195.128906 C 206.292969 194.523438 206.230469 193.917969 206.230469 193.300781 L 206.230469 153.179688 C 206.230469 152.835938 206.25 152.488281 206.289062 152.144531 C 203.632812 151.34375 200.933594 150.71875 198.195312 150.265625 L 198.195312 191.964844 C 198.195312 192.667969 198.128906 193.363281 197.992188 194.050781 C 197.851562 194.742188 197.648438 195.410156 197.382812 196.058594 C 197.113281 196.707031 196.78125 197.324219 196.390625 197.910156 C 196 198.492188 195.554688 199.03125 195.058594 199.53125 C 194.5625 200.027344 194.019531 200.46875 193.433594 200.859375 C 192.851562 201.25 192.234375 201.578125 191.582031 201.847656 C 190.933594 202.117188 190.261719 202.320312 189.574219 202.457031 C 188.882812 202.59375 188.1875 202.664062 187.484375 202.664062 C 186.78125 202.664062 186.082031 202.59375 185.394531 202.457031 C 184.703125 202.320312 184.035156 202.117188 183.382812 201.847656 C 182.734375 201.578125 182.117188 201.25 181.53125 200.859375 C 180.945312 200.46875 180.40625 200.027344 179.90625 199.53125 C 179.410156 199.03125 178.964844 198.492188 178.574219 197.910156 C 178.183594 197.324219 177.855469 196.707031 177.585938 196.058594 C 177.316406 195.410156 177.113281 194.742188 176.976562 194.050781 C 176.839844 193.363281 176.769531 192.667969 176.769531 191.964844 L 176.769531 150.265625 C 174.03125 150.71875 171.332031 151.34375 168.675781 152.144531 C 168.714844 152.488281 168.734375 152.835938 168.734375 153.179688 L 168.734375 193.300781 C 168.734375 193.917969 168.675781 194.523438 168.554688 195.128906 C 168.433594 195.730469 168.257812 196.316406 168.023438 196.882812 C 167.785156 197.453125 167.496094 197.992188 167.15625 198.503906 C 166.8125 199.015625 166.425781 199.488281 165.988281 199.921875 C 165.554688 200.355469 165.082031 200.742188 164.570312 201.085938 C 164.058594 201.425781 163.515625 201.714844 162.949219 201.949219 C 162.378906 202.1875 161.792969 202.363281 161.191406 202.484375 C 160.585938 202.601562 159.976562 202.664062 159.359375 202.664062 C 158.746094 202.664062 158.136719 202.601562 157.53125 202.484375 C 156.929688 202.363281 156.34375 202.1875 155.773438 201.949219 C 155.207031 201.714844 154.664062 201.425781 154.152344 201.085938 C 153.640625 200.742188 153.167969 200.355469 152.734375 199.921875 C 152.296875 199.488281 151.910156 199.015625 151.566406 198.503906 C 151.226562 197.992188 150.9375 197.453125 150.699219 196.882812 C 150.464844 196.316406 150.289062 195.730469 150.167969 195.128906 C 150.046875 194.523438 149.988281 193.917969 149.988281 193.300781 L 149.988281 161.34375 C 148.011719 162.75 146.125 164.265625 144.324219 165.890625 C 142.523438 167.511719 140.820312 169.230469 139.214844 171.046875 C 137.609375 172.863281 136.113281 174.765625 134.722656 176.753906 C 133.335938 178.738281 132.066406 180.796875 130.910156 182.929688 C 129.757812 185.058594 128.726562 187.25 127.824219 189.496094 C 126.917969 191.746094 126.144531 194.035156 125.503906 196.371094 C 124.859375 198.707031 124.351562 201.074219 123.976562 203.464844 C 123.601562 205.859375 123.367188 208.265625 123.265625 210.6875 L 251.699219 210.6875 C 251.488281 205.570312 250.671875 200.550781 249.253906 195.632812 C 247.835938 190.710938 245.851562 186.027344 243.304688 181.582031 Z M 243.304688 181.582031 " fill-opacity="1" fill-rule="nonzero"/><g clip-path="url(#id1)"><path fill="#000000" d="M 187.484375 197.3125 C 187.835938 197.3125 188.183594 197.277344 188.527344 197.210938 C 188.871094 197.140625 189.207031 197.039062 189.53125 196.90625 C 189.855469 196.769531 190.164062 196.605469 190.457031 196.410156 C 190.75 196.214844 191.019531 195.992188 191.269531 195.746094 C 191.519531 195.496094 191.738281 195.226562 191.933594 194.933594 C 192.128906 194.644531 192.296875 194.335938 192.429688 194.011719 C 192.566406 193.6875 192.667969 193.351562 192.734375 193.007812 C 192.804688 192.664062 192.839844 192.316406 192.839844 191.964844 L 192.839844 149.167969 C 192.839844 148.816406 192.804688 148.46875 192.738281 148.125 C 192.667969 147.78125 192.566406 147.445312 192.433594 147.121094 C 192.296875 146.796875 192.132812 146.488281 191.9375 146.195312 C 191.742188 145.90625 191.519531 145.632812 191.269531 145.386719 C 191.023438 145.136719 190.75 144.914062 190.460938 144.71875 C 190.167969 144.527344 189.859375 144.359375 189.53125 144.226562 C 189.207031 144.09375 188.875 143.992188 188.527344 143.921875 C 188.183594 143.851562 187.835938 143.820312 187.484375 143.820312 C 187.132812 143.820312 186.78125 143.851562 186.4375 143.921875 C 186.09375 143.992188 185.757812 144.09375 185.433594 144.226562 C 185.109375 144.359375 184.800781 144.527344 184.507812 144.71875 C 184.214844 144.914062 183.945312 145.136719 183.695312 145.386719 C 183.445312 145.632812 183.226562 145.90625 183.03125 146.195312 C 182.832031 146.488281 182.667969 146.796875 182.535156 147.121094 C 182.398438 147.445312 182.296875 147.78125 182.230469 148.125 C 182.160156 148.46875 182.125 148.816406 182.125 149.167969 L 182.125 191.964844 C 182.128906 192.316406 182.160156 192.664062 182.230469 193.007812 C 182.300781 193.351562 182.402344 193.6875 182.535156 194.011719 C 182.671875 194.335938 182.835938 194.644531 183.03125 194.933594 C 183.226562 195.226562 183.449219 195.496094 183.699219 195.746094 C 183.945312 195.992188 184.214844 196.214844 184.507812 196.410156 C 184.800781 196.605469 185.109375 196.769531 185.433594 196.90625 C 185.757812 197.039062 186.09375 197.140625 186.4375 197.210938 C 186.785156 197.277344 187.132812 197.3125 187.484375 197.3125 Z M 187.484375 197.3125 " fill-opacity="1" fill-rule="nonzero"/></g><g clip-path="url(#id2)"><path fill="#000000" d="M 246.40625 234.511719 L 246.40625 229.410156 L 224.597656 229.410156 C 224.4375 230.511719 224.230469 231.605469 223.972656 232.691406 C 223.714844 233.777344 223.410156 234.847656 223.058594 235.902344 C 222.703125 236.960938 222.304688 238 221.859375 239.019531 C 221.414062 240.042969 220.921875 241.042969 220.386719 242.019531 C 219.851562 242.996094 219.273438 243.949219 218.652344 244.875 C 218.03125 245.800781 217.371094 246.699219 216.671875 247.566406 C 215.972656 248.433594 215.234375 249.269531 214.457031 250.070312 C 213.683594 250.871094 212.875 251.636719 212.03125 252.367188 C 211.1875 253.097656 210.3125 253.785156 209.40625 254.4375 C 208.503906 255.089844 207.570312 255.699219 206.609375 256.269531 C 205.648438 256.835938 204.667969 257.359375 203.660156 257.839844 C 202.652344 258.324219 201.628906 258.757812 200.582031 259.148438 C 199.535156 259.535156 198.476562 259.878906 197.398438 260.171875 C 196.324219 260.46875 195.238281 260.714844 194.136719 260.910156 C 193.039062 261.109375 191.933594 261.257812 190.824219 261.355469 C 189.710938 261.457031 188.597656 261.503906 187.484375 261.503906 C 186.367188 261.503906 185.253906 261.457031 184.140625 261.355469 C 183.03125 261.257812 181.925781 261.109375 180.828125 260.910156 C 179.730469 260.714844 178.644531 260.46875 177.566406 260.171875 C 176.492188 259.878906 175.429688 259.535156 174.382812 259.148438 C 173.339844 258.757812 172.3125 258.324219 171.304688 257.839844 C 170.300781 257.359375 169.316406 256.835938 168.355469 256.269531 C 167.398438 255.699219 166.464844 255.089844 165.558594 254.4375 C 164.652344 253.785156 163.777344 253.097656 162.9375 252.367188 C 162.09375 251.636719 161.28125 250.871094 160.507812 250.070312 C 159.734375 249.269531 158.996094 248.433594 158.292969 247.566406 C 157.59375 246.699219 156.933594 245.800781 156.3125 244.875 C 155.691406 243.949219 155.113281 242.996094 154.578125 242.019531 C 154.042969 241.042969 153.554688 240.042969 153.109375 239.019531 C 152.660156 238 152.261719 236.960938 151.910156 235.902344 C 151.554688 234.847656 151.25 233.777344 150.992188 232.691406 C 150.738281 231.605469 150.527344 230.511719 150.367188 229.410156 L 128.5625 229.410156 L 128.5625 234.511719 C 128.5625 235.304688 128.265625 235.964844 127.675781 236.496094 L 118.367188 244.890625 L 123.863281 258.136719 L 141.335938 257.246094 C 142.128906 257.207031 142.804688 257.464844 143.367188 258.027344 L 153.472656 268.117188 C 154.035156 268.675781 154.292969 269.351562 154.253906 270.144531 L 153.359375 287.597656 L 166.625 293.085938 L 178.351562 280.113281 C 178.882812 279.527344 179.546875 279.230469 180.339844 279.230469 L 194.628906 279.230469 C 195.421875 279.230469 196.085938 279.527344 196.617188 280.113281 L 208.339844 293.085938 L 221.605469 287.597656 L 220.710938 270.144531 C 220.671875 269.355469 220.933594 268.679688 221.492188 268.117188 L 231.597656 258.027344 C 232.160156 257.464844 232.835938 257.207031 233.628906 257.246094 L 251.105469 258.136719 L 256.597656 244.890625 L 247.289062 236.5 C 246.699219 235.96875 246.40625 235.304688 246.40625 234.511719 Z M 155.289062 259.996094 L 151.5 256.214844 L 155.289062 252.429688 L 159.074219 256.214844 Z M 190.160156 272.207031 L 184.804688 272.207031 L 184.804688 266.855469 L 190.160156 266.855469 Z M 219.679688 259.996094 L 215.890625 256.214844 L 219.679688 252.429688 L 223.464844 256.214844 Z M 219.679688 259.996094 " fill-opacity="1" fill-rule="nonzero"/></g><g clip-path="url(#id3)"><path fill="#000000" d="M 258.457031 216.035156 L 116.507812 216.035156 C 116.246094 216.035156 115.984375 216.0625 115.722656 216.113281 C 115.464844 216.164062 115.214844 216.242188 114.972656 216.34375 C 114.726562 216.441406 114.496094 216.566406 114.277344 216.714844 C 114.058594 216.859375 113.855469 217.027344 113.667969 217.210938 C 113.480469 217.398438 113.3125 217.601562 113.167969 217.820312 C 113.019531 218.039062 112.898438 218.269531 112.796875 218.511719 C 112.695312 218.757812 112.621094 219.007812 112.566406 219.265625 C 112.515625 219.523438 112.492188 219.785156 112.492188 220.050781 C 112.492188 220.3125 112.515625 220.574219 112.566406 220.832031 C 112.621094 221.089844 112.695312 221.339844 112.796875 221.585938 C 112.898438 221.828125 113.019531 222.058594 113.167969 222.277344 C 113.3125 222.496094 113.480469 222.699219 113.667969 222.886719 C 113.855469 223.070312 114.058594 223.238281 114.277344 223.386719 C 114.496094 223.53125 114.726562 223.65625 114.972656 223.753906 C 115.214844 223.855469 115.464844 223.933594 115.722656 223.984375 C 115.984375 224.035156 116.246094 224.0625 116.507812 224.0625 L 258.457031 224.0625 C 258.722656 224.0625 258.984375 224.035156 259.242188 223.984375 C 259.5 223.933594 259.75 223.855469 259.996094 223.753906 C 260.238281 223.65625 260.472656 223.53125 260.691406 223.386719 C 260.910156 223.238281 261.113281 223.070312 261.300781 222.886719 C 261.484375 222.699219 261.652344 222.496094 261.796875 222.277344 C 261.945312 222.058594 262.070312 221.828125 262.167969 221.585938 C 262.269531 221.339844 262.347656 221.089844 262.398438 220.832031 C 262.449219 220.574219 262.476562 220.3125 262.476562 220.050781 C 262.476562 219.785156 262.449219 219.523438 262.398438 219.265625 C 262.347656 219.007812 262.269531 218.757812 262.167969 218.511719 C 262.070312 218.269531 261.945312 218.039062 261.796875 217.820312 C 261.652344 217.601562 261.484375 217.398438 261.300781 217.210938 C 261.113281 217.027344 260.910156 216.859375 260.691406 216.714844 C 260.472656 216.566406 260.238281 216.441406 259.996094 216.34375 C 259.75 216.242188 259.5 216.164062 259.242188 216.113281 C 258.984375 216.0625 258.722656 216.035156 258.457031 216.035156 Z M 258.457031 216.035156 " fill-opacity="1" fill-rule="nonzero"/></g><g clip-path="url(#id4)"><path fill="#000000" d="M 209.054688 81.75 L 166.558594 81.75 C 166.371094 81.746094 166.191406 81.78125 166.015625 81.851562 C 165.84375 81.925781 165.691406 82.027344 165.558594 82.15625 C 165.425781 82.289062 165.324219 82.441406 165.253906 82.617188 C 165.183594 82.789062 165.148438 82.96875 165.152344 83.15625 L 165.152344 110.175781 C 165.152344 110.59375 165.304688 110.953125 165.601562 111.25 L 178.035156 123.660156 C 178.289062 123.949219 178.605469 124.066406 178.988281 124.011719 L 186.386719 124.011719 L 186.386719 128.992188 C 185.832031 129.074219 185.285156 129.203125 184.75 129.378906 C 184.214844 129.554688 183.703125 129.777344 183.207031 130.042969 C 182.710938 130.3125 182.246094 130.621094 181.804688 130.972656 C 181.363281 131.320312 180.960938 131.707031 180.589844 132.128906 C 180.21875 132.554688 179.886719 133.003906 179.597656 133.484375 C 179.308594 133.964844 179.0625 134.46875 178.859375 134.992188 C 178.660156 135.519531 178.507812 136.054688 178.402344 136.609375 C 178.296875 137.160156 178.242188 137.714844 178.238281 138.277344 C 178.238281 138.902344 178.300781 139.523438 178.425781 140.136719 C 178.546875 140.75 178.730469 141.34375 178.972656 141.921875 C 179.210938 142.5 179.507812 143.046875 179.855469 143.566406 C 180.203125 144.085938 180.601562 144.566406 181.042969 145.011719 C 181.488281 145.453125 181.96875 145.847656 182.492188 146.195312 C 183.011719 146.542969 183.5625 146.839844 184.140625 147.078125 C 184.71875 147.320312 185.316406 147.5 185.933594 147.625 C 186.546875 147.75 187.167969 147.8125 187.796875 147.8125 C 188.417969 147.808594 189.035156 147.746094 189.648438 147.621094 C 190.257812 147.496094 190.851562 147.3125 191.425781 147.070312 C 192 146.828125 192.542969 146.53125 193.058594 146.183594 C 193.578125 145.832031 194.054688 145.4375 194.492188 144.996094 C 194.929688 144.550781 195.316406 144.070312 195.660156 143.550781 C 196.003906 143.03125 196.292969 142.484375 196.523438 141.90625 C 196.757812 141.332031 196.933594 140.738281 197.050781 140.125 C 197.167969 139.515625 197.222656 138.898438 197.21875 138.277344 C 197.222656 138.097656 197.191406 137.925781 197.128906 137.757812 C 197.0625 137.589844 196.972656 137.441406 196.847656 137.308594 C 196.726562 137.179688 196.585938 137.074219 196.421875 137 C 196.257812 136.925781 196.085938 136.882812 195.910156 136.875 C 195.722656 136.875 195.546875 136.914062 195.378906 136.984375 C 195.210938 137.058594 195.058594 137.160156 194.933594 137.292969 C 194.804688 137.425781 194.703125 137.574219 194.636719 137.746094 C 194.570312 137.917969 194.535156 138.09375 194.539062 138.277344 C 194.539062 138.71875 194.496094 139.15625 194.410156 139.589844 C 194.324219 140.023438 194.199219 140.445312 194.03125 140.855469 C 193.859375 141.261719 193.652344 141.652344 193.410156 142.019531 C 193.164062 142.386719 192.882812 142.726562 192.570312 143.039062 C 192.257812 143.351562 191.917969 143.632812 191.550781 143.878906 C 191.183594 144.125 190.792969 144.332031 190.382812 144.503906 C 189.976562 144.671875 189.554688 144.800781 189.117188 144.886719 C 188.683594 144.972656 188.246094 145.019531 187.800781 145.019531 C 187.359375 145.019531 186.917969 144.976562 186.484375 144.890625 C 186.050781 144.804688 185.628906 144.679688 185.21875 144.511719 C 184.808594 144.339844 184.417969 144.132812 184.050781 143.890625 C 183.679688 143.644531 183.339844 143.367188 183.027344 143.054688 C 182.710938 142.742188 182.433594 142.402344 182.1875 142.035156 C 181.941406 141.667969 181.730469 141.277344 181.5625 140.871094 C 181.390625 140.460938 181.261719 140.042969 181.175781 139.609375 C 181.089844 139.175781 181.046875 138.738281 181.046875 138.296875 C 181.046875 137.855469 181.089844 137.414062 181.175781 136.984375 C 181.261719 136.550781 181.390625 136.128906 181.558594 135.71875 C 181.730469 135.3125 181.9375 134.921875 182.183594 134.554688 C 182.429688 134.1875 182.707031 133.847656 183.023438 133.535156 C 183.335938 133.222656 183.675781 132.945312 184.046875 132.699219 C 184.414062 132.453125 184.800781 132.246094 185.210938 132.078125 C 185.621094 131.910156 186.042969 131.78125 186.476562 131.695312 C 186.914062 131.609375 187.351562 131.566406 187.796875 131.566406 C 187.972656 131.570312 188.144531 131.539062 188.308594 131.480469 C 188.476562 131.417969 188.625 131.328125 188.757812 131.207031 C 188.886719 131.089844 188.992188 130.949219 189.070312 130.789062 C 189.144531 130.628906 189.191406 130.460938 189.203125 130.285156 L 189.203125 124.011719 L 196.601562 124.011719 C 196.976562 124.050781 197.292969 123.933594 197.554688 123.660156 L 203.59375 117.636719 L 209.984375 111.265625 C 210.28125 110.96875 210.429688 110.609375 210.433594 110.191406 L 210.433594 83.15625 C 210.425781 82.972656 210.386719 82.796875 210.316406 82.632812 C 210.246094 82.464844 210.144531 82.316406 210.015625 82.183594 C 209.890625 82.054688 209.742188 81.953125 209.578125 81.875 C 209.410156 81.800781 209.238281 81.757812 209.054688 81.75 Z M 198.847656 84.558594 L 207.652344 93.339844 L 207.652344 104.515625 L 187.648438 84.558594 Z M 195.972656 121.300781 L 194.117188 121.300781 C 194.078125 121.234375 194.035156 121.171875 193.992188 121.109375 L 167.964844 95.070312 L 167.964844 84.558594 L 168.53125 84.558594 L 200.753906 116.542969 Z M 195.972656 121.300781 " fill-opacity="1" fill-rule="nonzero"/></g></svg>