<svg xmlns="http://www.w3.org/2000/svg" xmlns:xlink="http://www.w3.org/1999/xlink" width="500" zoomAndPan="magnify" viewBox="0 0 375 374.999991" height="500" preserveAspectRatio="xMidYMid meet" version="1.0"><defs><clipPath id="id1"><path d="M 222 149 L 227 149 L 227 160.765625 L 222 160.765625 Z M 222 149 " clip-rule="nonzero"/></clipPath><clipPath id="id2"><path d="M 222 150 L 228.539062 150 L 228.539062 159 L 222 159 Z M 222 150 " clip-rule="nonzero"/></clipPath><clipPath id="id3"><path d="M 223 156 L 228.539062 156 L 228.539062 160 L 223 160 Z M 223 156 " clip-rule="nonzero"/></clipPath><clipPath id="id4"><path d="M 227 156 L 228.539062 156 L 228.539062 158 L 227 158 Z M 227 156 " clip-rule="nonzero"/></clipPath><clipPath id="id5"><path d="M 219 146.515625 L 222 146.515625 L 222 149 L 219 149 Z M 219 146.515625 " clip-rule="nonzero"/></clipPath><clipPath id="id6"><path d="M 212.789062 148 L 215 148 L 215 151 L 212.789062 151 Z M 212.789062 148 " clip-rule="nonzero"/></clipPath><clipPath id="id7"><path d="M 127.558594 127.558594 L 247.527344 127.558594 L 247.527344 247.558594 L 127.558594 247.558594 Z M 127.558594 127.558594 " clip-rule="nonzero"/></clipPath></defs><rect x="-37.5" width="450" fill="#ffffff" y="-37.499999" height="449.999989" fill-opacity="1"/><rect x="-37.5" width="450" fill="#ffffff" y="-37.499999" height="449.999989" fill-opacity="1"/><rect x="-37.5" width="450" fill="#ffffff" y="-37.499999" height="449.999989" fill-opacity="1"/><path fill="#211c1c" d="M 223.855469 154.3125 C 224.480469 154.007812 225.191406 154.457031 225.207031 155.152344 C 225.222656 155.890625 224.398438 156.304688 223.792969 155.957031 C 223.675781 155.890625 223.570312 156.070312 223.6875 156.136719 C 224.4375 156.570312 225.355469 156.066406 225.414062 155.199219 C 225.4375 154.804688 225.230469 154.4375 224.925781 154.207031 C 224.585938 153.953125 224.121094 153.949219 223.75 154.132812 C 223.632812 154.191406 223.734375 154.371094 223.855469 154.3125 " fill-opacity="1" fill-rule="nonzero"/><path fill="#211c1c" d="M 222.976562 151.304688 C 223.015625 151.179688 223.042969 151.046875 223.085938 150.925781 C 223.132812 150.796875 222.933594 150.742188 222.886719 150.867188 C 222.84375 150.992188 222.820312 151.121094 222.777344 151.246094 C 222.734375 151.375 222.933594 151.429688 222.976562 151.304688 " fill-opacity="1" fill-rule="nonzero"/><g clip-path="url(#id1)"><path fill="#211c1c" d="M 224.121094 149.8125 C 224.664062 149.707031 225.039062 150.261719 225.261719 150.679688 C 225.644531 151.390625 225.824219 152.214844 225.949219 153.003906 C 226.109375 154.035156 226.136719 155.09375 226.070312 156.132812 C 226.007812 157.050781 225.863281 157.96875 225.566406 158.839844 C 225.425781 159.25 225.246094 159.664062 224.972656 160.007812 C 224.789062 160.238281 224.539062 160.445312 224.230469 160.4375 C 223.835938 160.429688 223.542969 160.039062 223.355469 159.734375 C 223.027344 159.199219 222.847656 158.578125 222.707031 157.96875 C 222.675781 157.839844 222.476562 157.894531 222.507812 158.023438 C 222.6875 158.808594 222.941406 159.683594 223.507812 160.277344 C 223.851562 160.640625 224.335938 160.761719 224.761719 160.484375 C 225.242188 160.175781 225.507812 159.582031 225.703125 159.066406 C 226.015625 158.25 226.160156 157.367188 226.246094 156.5 C 226.402344 154.867188 226.316406 153.140625 225.839844 151.5625 C 225.609375 150.808594 225.082031 149.410156 224.066406 149.609375 C 223.933594 149.636719 223.988281 149.839844 224.121094 149.8125 " fill-opacity="1" fill-rule="nonzero"/></g><g clip-path="url(#id2)"><path fill="#211c1c" d="M 223.636719 153.167969 C 224.382812 152.503906 225.199219 151.898438 226.105469 151.476562 C 226.601562 151.25 227.351562 150.953125 227.875 151.257812 C 228.316406 151.515625 228.234375 152.148438 228.128906 152.5625 C 227.933594 153.332031 227.503906 154.039062 227.054688 154.679688 C 226.433594 155.578125 225.679688 156.390625 224.863281 157.113281 C 224.125 157.769531 223.308594 158.363281 222.40625 158.773438 C 222.285156 158.828125 222.390625 159.007812 222.511719 158.953125 C 223.335938 158.582031 224.078125 158.046875 224.769531 157.46875 C 225.566406 156.796875 226.296875 156.035156 226.929688 155.203125 C 227.4375 154.539062 227.894531 153.820312 228.195312 153.035156 C 228.375 152.5625 228.535156 151.953125 228.316406 151.464844 C 228.011719 150.785156 227.160156 150.890625 226.582031 151.070312 C 225.421875 151.429688 224.386719 152.222656 223.492188 153.019531 C 223.390625 153.109375 223.535156 153.257812 223.636719 153.167969 " fill-opacity="1" fill-rule="nonzero"/></g><path fill="#211c1c" d="M 220.761719 159.019531 C 220.683594 158.984375 220.617188 158.941406 220.554688 158.878906 C 220.457031 158.785156 220.3125 158.933594 220.40625 159.027344 C 220.480469 159.101562 220.566406 159.160156 220.660156 159.203125 C 220.710938 159.226562 220.769531 159.21875 220.800781 159.164062 C 220.828125 159.117188 220.816406 159.042969 220.761719 159.019531 " fill-opacity="1" fill-rule="nonzero"/><path fill="#211c1c" d="M 223.3125 151.996094 C 224.867188 152.976562 226.238281 154.355469 227.25 155.898438 C 227.320312 156.011719 227.5 155.90625 227.425781 155.792969 C 226.398438 154.21875 225 152.816406 223.417969 151.816406 C 223.304688 151.746094 223.199219 151.925781 223.3125 151.996094 " fill-opacity="1" fill-rule="nonzero"/><path fill="#211c1c" d="M 221.277344 154.417969 C 220.949219 153.910156 220.652344 153.375 220.464844 152.792969 C 220.34375 152.425781 220.242188 151.96875 220.398438 151.597656 C 220.449219 151.472656 220.273438 151.367188 220.222656 151.492188 C 220.050781 151.894531 220.121094 152.347656 220.234375 152.753906 C 220.414062 153.386719 220.746094 153.976562 221.097656 154.523438 C 221.171875 154.636719 221.351562 154.53125 221.277344 154.417969 " fill-opacity="1" fill-rule="nonzero"/><g clip-path="url(#id3)"><path fill="#211c1c" d="M 228.144531 157.859375 C 228.238281 158.332031 228.214844 158.921875 227.683594 159.085938 C 227.304688 159.203125 226.875 159.085938 226.515625 158.964844 C 225.285156 158.542969 224.191406 157.65625 223.257812 156.769531 C 223.164062 156.679688 223.015625 156.824219 223.113281 156.917969 C 223.699219 157.476562 224.328125 157.988281 225.003906 158.429688 C 225.527344 158.765625 226.09375 159.066406 226.695312 159.238281 C 227.082031 159.347656 227.527344 159.402344 227.90625 159.222656 C 228.433594 158.96875 228.445312 158.304688 228.34375 157.804688 C 228.320312 157.671875 228.121094 157.730469 228.144531 157.859375 " fill-opacity="1" fill-rule="nonzero"/></g><path fill="#211c1c" d="M 221.902344 159.367188 C 221.746094 159.511719 221.527344 159.511719 221.371094 159.367188 C 221.214844 159.21875 221.234375 158.972656 221.371094 158.824219 C 221.515625 158.667969 221.757812 158.6875 221.902344 158.824219 C 222.058594 158.972656 222.039062 159.21875 221.902344 159.367188 C 221.8125 159.464844 221.960938 159.613281 222.050781 159.511719 C 222.269531 159.269531 222.269531 158.921875 222.050781 158.679688 C 221.828125 158.433594 221.449219 158.46875 221.222656 158.679688 C 220.984375 158.902344 221.015625 159.285156 221.222656 159.511719 C 221.445312 159.757812 221.824219 159.722656 222.050781 159.511719 C 222.148438 159.421875 222 159.273438 221.902344 159.367188 " fill-opacity="1" fill-rule="nonzero"/><path fill="#211c1c" d="M 223.664062 150.484375 C 223.507812 150.628906 223.285156 150.628906 223.128906 150.484375 C 222.972656 150.335938 222.992188 150.089844 223.128906 149.941406 C 223.273438 149.785156 223.515625 149.804688 223.664062 149.941406 C 223.820312 150.089844 223.796875 150.335938 223.664062 150.484375 C 223.574219 150.582031 223.71875 150.730469 223.808594 150.628906 C 224.03125 150.386719 224.03125 150.039062 223.808594 149.796875 C 223.585938 149.550781 223.210938 149.585938 222.984375 149.796875 C 222.742188 150.019531 222.773438 150.402344 222.984375 150.628906 C 223.207031 150.871094 223.582031 150.839844 223.808594 150.628906 C 223.90625 150.539062 223.761719 150.390625 223.664062 150.484375 " fill-opacity="1" fill-rule="nonzero"/><g clip-path="url(#id4)"><path fill="#211c1c" d="M 228.082031 156.953125 C 227.925781 157.101562 227.707031 157.097656 227.550781 156.953125 C 227.394531 156.808594 227.414062 156.5625 227.550781 156.414062 C 227.691406 156.257812 227.9375 156.277344 228.082031 156.414062 C 228.238281 156.558594 228.21875 156.804688 228.082031 156.953125 C 227.992188 157.054688 228.136719 157.199219 228.230469 157.101562 C 228.449219 156.859375 228.449219 156.511719 228.230469 156.265625 C 228.007812 156.023438 227.628906 156.054688 227.402344 156.265625 C 227.164062 156.492188 227.195312 156.875 227.402344 157.101562 C 227.625 157.34375 228.003906 157.3125 228.230469 157.101562 C 228.328125 157.011719 228.179688 156.863281 228.082031 156.953125 " fill-opacity="1" fill-rule="nonzero"/></g><path fill="#211c1c" d="M 219.871094 149.039062 C 220.367188 150.570312 220.867188 152.101562 221.363281 153.632812 C 221.367188 153.640625 221.371094 153.652344 221.375 153.660156 C 221.398438 153.617188 221.421875 153.574219 221.445312 153.53125 C 221.445312 153.535156 221.441406 153.535156 221.441406 153.535156 C 221.386719 153.550781 221.351562 153.609375 221.367188 153.664062 C 221.789062 155.023438 221.0625 156.492188 219.722656 156.953125 C 218.386719 157.410156 216.917969 156.640625 216.464844 155.304688 C 216.445312 155.253906 216.394531 155.214844 216.335938 155.230469 C 216.335938 155.230469 216.332031 155.234375 216.332031 155.234375 C 216.375 155.257812 216.414062 155.28125 216.457031 155.308594 C 215.960938 153.777344 215.460938 152.246094 214.964844 150.714844 C 214.960938 150.707031 214.957031 150.695312 214.953125 150.683594 C 214.9375 150.632812 214.882812 150.59375 214.828125 150.613281 C 214.253906 150.804688 213.679688 150.992188 213.105469 151.183594 C 213.054688 151.203125 213.015625 151.257812 213.03125 151.3125 C 213.535156 152.863281 214.039062 154.410156 214.542969 155.957031 C 214.550781 155.976562 214.558594 155.996094 214.5625 156.015625 C 214.578125 156.066406 214.632812 156.109375 214.691406 156.089844 C 214.691406 156.089844 214.695312 156.085938 214.699219 156.085938 C 214.65625 156.0625 214.617188 156.039062 214.574219 156.011719 C 215.070312 157.496094 216.269531 158.632812 217.765625 159.042969 C 219.277344 159.453125 220.925781 159.015625 222.074219 157.945312 C 223.375 156.734375 223.84375 154.8125 223.3125 153.117188 C 223.289062 153.160156 223.265625 153.203125 223.238281 153.246094 C 223.242188 153.246094 223.246094 153.246094 223.25 153.242188 C 223.300781 153.226562 223.339844 153.171875 223.320312 153.117188 C 222.820312 151.566406 222.316406 150.019531 221.8125 148.46875 C 221.804688 148.449219 221.796875 148.429688 221.792969 148.410156 C 221.777344 148.359375 221.71875 148.320312 221.664062 148.339844 C 221.089844 148.53125 220.515625 148.722656 219.941406 148.910156 C 219.816406 148.953125 219.871094 149.15625 220 149.113281 C 220.570312 148.921875 221.144531 148.730469 221.71875 148.539062 C 221.679688 148.515625 221.636719 148.492188 221.59375 148.46875 C 222.097656 150.015625 222.601562 151.566406 223.105469 153.113281 C 223.109375 153.132812 223.117188 153.152344 223.125 153.171875 C 223.148438 153.128906 223.171875 153.085938 223.195312 153.042969 C 223.191406 153.042969 223.1875 153.042969 223.183594 153.046875 C 223.132812 153.0625 223.09375 153.117188 223.113281 153.175781 C 223.597656 154.71875 223.222656 156.417969 222.125 157.601562 C 221.011719 158.800781 219.285156 159.257812 217.730469 158.816406 C 216.347656 158.421875 215.234375 157.328125 214.773438 155.957031 C 214.753906 155.90625 214.699219 155.867188 214.644531 155.882812 C 214.640625 155.886719 214.636719 155.886719 214.636719 155.886719 C 214.675781 155.914062 214.71875 155.9375 214.761719 155.960938 C 214.257812 154.414062 213.753906 152.863281 213.25 151.316406 C 213.246094 151.296875 213.238281 151.277344 213.230469 151.257812 C 213.207031 151.300781 213.183594 151.34375 213.160156 151.386719 C 213.734375 151.195312 214.308594 151.003906 214.882812 150.8125 C 214.839844 150.789062 214.796875 150.765625 214.753906 150.742188 C 215.253906 152.269531 215.75 153.800781 216.25 155.332031 C 216.25 155.339844 216.253906 155.351562 216.257812 155.363281 C 216.277344 155.414062 216.328125 155.453125 216.386719 155.433594 C 216.386719 155.433594 216.390625 155.433594 216.390625 155.433594 C 216.347656 155.410156 216.308594 155.382812 216.265625 155.359375 C 216.761719 156.816406 218.324219 157.621094 219.777344 157.152344 C 221.230469 156.683594 222.019531 155.0625 221.566406 153.609375 C 221.542969 153.652344 221.519531 153.695312 221.496094 153.738281 C 221.496094 153.734375 221.5 153.734375 221.5 153.734375 C 221.554688 153.71875 221.589844 153.660156 221.574219 153.605469 C 221.074219 152.074219 220.578125 150.546875 220.078125 149.015625 C 220.078125 149.003906 220.074219 148.996094 220.070312 148.984375 C 220.027344 148.855469 219.828125 148.910156 219.871094 149.039062 " fill-opacity="1" fill-rule="nonzero"/><path fill="#211c1c" d="M 215.175781 151.6875 C 214.601562 151.878906 214.027344 152.066406 213.453125 152.257812 C 213.496094 152.285156 213.539062 152.308594 213.582031 152.332031 C 213.464844 151.972656 213.347656 151.617188 213.230469 151.257812 C 213.207031 151.300781 213.183594 151.34375 213.160156 151.386719 C 213.734375 151.195312 214.308594 151.003906 214.882812 150.8125 C 214.839844 150.789062 214.796875 150.765625 214.753906 150.742188 C 214.871094 151.097656 214.988281 151.457031 215.105469 151.816406 C 215.144531 151.941406 215.34375 151.886719 215.304688 151.757812 C 215.1875 151.402344 215.070312 151.042969 214.953125 150.683594 C 214.9375 150.632812 214.882812 150.59375 214.828125 150.613281 C 214.253906 150.804688 213.679688 150.992188 213.105469 151.183594 C 213.054688 151.203125 213.015625 151.257812 213.03125 151.3125 C 213.148438 151.671875 213.265625 152.027344 213.382812 152.386719 C 213.398438 152.4375 213.453125 152.480469 213.507812 152.460938 C 214.082031 152.269531 214.65625 152.078125 215.230469 151.886719 C 215.359375 151.847656 215.304688 151.644531 215.175781 151.6875 " fill-opacity="1" fill-rule="nonzero"/><path fill="#211c1c" d="M 222.015625 149.414062 C 221.441406 149.605469 220.867188 149.796875 220.292969 149.984375 C 220.335938 150.011719 220.378906 150.035156 220.417969 150.058594 C 220.304688 149.699219 220.1875 149.34375 220.070312 148.984375 C 220.046875 149.027344 220.023438 149.070312 219.996094 149.113281 C 220.570312 148.921875 221.144531 148.730469 221.71875 148.539062 C 221.679688 148.515625 221.636719 148.492188 221.59375 148.46875 C 221.710938 148.824219 221.828125 149.183594 221.941406 149.542969 C 221.984375 149.667969 222.183594 149.613281 222.140625 149.488281 C 222.023438 149.128906 221.910156 148.769531 221.792969 148.410156 C 221.777344 148.359375 221.71875 148.320312 221.664062 148.339844 C 221.089844 148.53125 220.515625 148.722656 219.941406 148.910156 C 219.890625 148.929688 219.851562 148.984375 219.871094 149.039062 C 219.988281 149.398438 220.105469 149.757812 220.21875 150.113281 C 220.238281 150.167969 220.292969 150.207031 220.347656 150.1875 C 220.921875 149.996094 221.496094 149.804688 222.070312 149.613281 C 222.195312 149.574219 222.140625 149.371094 222.015625 149.414062 " fill-opacity="1" fill-rule="nonzero"/><g clip-path="url(#id5)"><path fill="#211c1c" d="M 219.871094 146.699219 C 220 147.089844 220.125 147.476562 220.253906 147.867188 C 220.28125 147.949219 220.394531 147.972656 220.441406 147.890625 C 220.558594 147.6875 220.675781 147.484375 220.792969 147.28125 C 220.730469 147.273438 220.667969 147.265625 220.605469 147.257812 C 220.707031 147.53125 220.804688 147.808594 220.90625 148.082031 C 220.953125 148.207031 221.152344 148.152344 221.105469 148.027344 C 221.003906 147.75 220.90625 147.476562 220.804688 147.203125 C 220.773438 147.121094 220.664062 147.09375 220.617188 147.179688 C 220.5 147.378906 220.382812 147.582031 220.265625 147.785156 C 220.328125 147.792969 220.390625 147.800781 220.453125 147.808594 C 220.324219 147.421875 220.199219 147.03125 220.070312 146.644531 C 220.027344 146.515625 219.828125 146.570312 219.871094 146.699219 " fill-opacity="1" fill-rule="nonzero"/></g><g clip-path="url(#id6)"><path fill="#211c1c" d="M 212.828125 148.917969 C 212.957031 149.304688 213.085938 149.695312 213.214844 150.082031 C 213.242188 150.164062 213.355469 150.1875 213.402344 150.105469 C 213.519531 149.90625 213.636719 149.703125 213.753906 149.5 C 213.691406 149.492188 213.625 149.484375 213.5625 149.476562 C 213.664062 149.75 213.765625 150.023438 213.867188 150.296875 C 213.910156 150.421875 214.109375 150.367188 214.066406 150.242188 C 213.964844 149.96875 213.863281 149.695312 213.761719 149.417969 C 213.734375 149.335938 213.621094 149.3125 213.574219 149.394531 C 213.457031 149.597656 213.339844 149.800781 213.222656 150 C 213.285156 150.011719 213.347656 150.019531 213.414062 150.027344 C 213.285156 149.636719 213.15625 149.25 213.027344 148.859375 C 212.988281 148.734375 212.789062 148.789062 212.828125 148.917969 " fill-opacity="1" fill-rule="nonzero"/></g><g clip-path="url(#id7)"><path fill="#000000" d="M 245.578125 156.332031 L 239.898438 156.332031 C 239.417969 156.332031 239.015625 156.683594 238.929688 157.152344 C 238.46875 159.859375 237.394531 162.457031 235.816406 164.652344 C 235.53125 165.046875 235.574219 165.578125 235.914062 165.929688 L 239.941406 169.9375 L 236.820312 173.070312 L 232.804688 169.0625 C 232.78125 169.03125 232.75 169.019531 232.726562 169 C 232.707031 168.976562 232.6875 168.957031 232.664062 168.945312 C 232.632812 168.925781 232.601562 168.902344 232.570312 168.894531 C 232.546875 168.882812 232.535156 168.871094 232.515625 168.859375 C 232.472656 168.839844 232.429688 168.828125 232.386719 168.820312 C 232.375 168.808594 232.367188 168.808594 232.355469 168.796875 C 232.3125 168.785156 232.257812 168.777344 232.207031 168.777344 C 232.207031 168.777344 232.195312 168.777344 232.183594 168.777344 C 232.140625 168.765625 232.089844 168.765625 232.035156 168.777344 C 232.035156 168.777344 232.023438 168.777344 232.023438 168.777344 C 231.972656 168.777344 231.929688 168.785156 231.875 168.796875 C 231.867188 168.796875 231.867188 168.796875 231.855469 168.796875 C 231.8125 168.808594 231.78125 168.828125 231.738281 168.839844 C 231.726562 168.851562 231.707031 168.851562 231.683594 168.859375 C 231.664062 168.871094 231.640625 168.894531 231.621094 168.902344 C 231.589844 168.914062 231.566406 168.9375 231.535156 168.945312 C 230.96875 169.351562 230.382812 169.722656 229.789062 170.054688 C 229.777344 170.054688 229.777344 170.054688 229.765625 170.066406 C 229.511719 170.203125 229.234375 170.34375 228.96875 170.480469 C 228.894531 170.511719 228.808594 170.554688 228.734375 170.585938 C 228.53125 170.683594 228.328125 170.769531 228.136719 170.863281 C 228 170.917969 227.859375 170.96875 227.722656 171.035156 C 227.550781 171.097656 227.390625 171.164062 227.21875 171.226562 C 227.070312 171.28125 226.921875 171.320312 226.773438 171.375 C 226.582031 171.4375 226.390625 171.503906 226.199219 171.554688 C 226.089844 171.589844 225.984375 171.621094 225.867188 171.652344 C 225.621094 171.726562 225.367188 171.789062 225.109375 171.855469 C 225.070312 171.867188 225.027344 171.875 224.984375 171.886719 C 224.664062 171.949219 224.355469 172.015625 224.035156 172.066406 C 223.554688 172.152344 223.214844 172.558594 223.214844 173.039062 L 223.214844 178.714844 L 218.78125 178.714844 L 218.78125 173.039062 C 218.78125 172.558594 218.429688 172.152344 217.960938 172.066406 C 215.277344 171.621094 212.6875 170.542969 210.460938 168.945312 C 210.070312 168.667969 209.523438 168.722656 209.183594 169.0625 L 207.992188 170.257812 C 207.980469 170.265625 207.980469 170.265625 207.980469 170.265625 L 205.179688 173.070312 L 202.046875 169.9375 L 206.050781 165.929688 C 206.394531 165.589844 206.445312 165.046875 206.160156 164.652344 C 204.570312 162.4375 203.496094 159.835938 203.046875 157.152344 C 203.027344 157.035156 202.984375 156.929688 202.929688 156.824219 C 202.761719 156.523438 202.441406 156.332031 202.078125 156.332031 L 196.398438 156.332031 L 196.398438 151.902344 L 201.566406 151.902344 C 201.578125 151.902344 201.578125 151.902344 201.578125 151.902344 L 202.078125 151.902344 C 202.195312 151.902344 202.3125 151.878906 202.417969 151.847656 C 202.738281 151.71875 202.984375 151.441406 203.046875 151.082031 C 203.15625 150.410156 203.3125 149.75 203.507812 149.089844 C 204.070312 147.128906 204.976562 145.253906 206.160156 143.582031 C 206.296875 143.390625 206.359375 143.15625 206.339844 142.929688 C 206.328125 142.8125 206.308594 142.707031 206.253906 142.601562 C 206.210938 142.492188 206.148438 142.398438 206.050781 142.3125 L 202.046875 138.296875 L 205.179688 135.164062 L 209.183594 139.179688 C 209.523438 139.523438 210.070312 139.5625 210.460938 139.289062 C 212.667969 137.710938 215.265625 136.644531 217.960938 136.1875 C 218.429688 136.101562 218.78125 135.695312 218.78125 135.21875 L 218.78125 129.527344 L 223.214844 129.527344 L 223.214844 135.21875 C 223.214844 135.695312 223.554688 136.101562 224.035156 136.1875 C 226.75 136.644531 229.277344 137.6875 231.535156 139.289062 C 231.929688 139.5625 232.460938 139.523438 232.804688 139.179688 L 236.820312 135.164062 L 239.941406 138.296875 L 235.933594 142.3125 C 235.59375 142.652344 235.550781 143.1875 235.828125 143.582031 C 237.40625 145.785156 238.46875 148.386719 238.929688 151.082031 C 239.015625 151.558594 239.417969 151.902344 239.898438 151.902344 L 245.578125 151.902344 Z M 208.066406 172.972656 C 209.121094 178.703125 209.675781 184.691406 209.726562 190.808594 L 184.308594 190.808594 L 184.308594 172.109375 C 189.71875 172.066406 195.035156 171.632812 200.128906 170.8125 L 204.476562 175.167969 C 204.527344 175.210938 204.570312 175.253906 204.636719 175.285156 C 204.667969 175.304688 204.699219 175.328125 204.730469 175.339844 C 204.753906 175.347656 204.773438 175.371094 204.796875 175.382812 C 204.835938 175.390625 204.878906 175.402344 204.914062 175.414062 C 204.933594 175.414062 204.964844 175.421875 204.988281 175.433594 C 205.03125 175.445312 205.070312 175.445312 205.125 175.445312 C 205.136719 175.445312 205.15625 175.457031 205.179688 175.457031 C 205.199219 175.457031 205.222656 175.445312 205.253906 175.445312 C 205.285156 175.445312 205.328125 175.433594 205.359375 175.433594 C 205.390625 175.421875 205.421875 175.414062 205.457031 175.402344 C 205.488281 175.390625 205.519531 175.390625 205.550781 175.382812 C 205.582031 175.359375 205.617188 175.339844 205.65625 175.328125 C 205.679688 175.304688 205.699219 175.304688 205.722656 175.285156 C 205.773438 175.253906 205.828125 175.210938 205.871094 175.167969 L 206.957031 174.070312 Z M 227.5625 222.382812 C 222.609375 219.113281 216.332031 216.472656 209.257812 214.597656 C 210.792969 207.808594 211.632812 200.417969 211.699219 192.765625 L 237.117188 192.765625 C 236.914062 203.75 233.410156 213.9375 227.5625 222.382812 Z M 154.957031 192.765625 C 155.023438 200.417969 155.863281 207.808594 157.398438 214.597656 C 150.324219 216.472656 144.050781 219.113281 139.09375 222.382812 C 133.246094 213.9375 129.742188 203.75 129.539062 192.765625 Z M 139.148438 161.125 C 144.09375 164.375 150.367188 167.007812 157.417969 168.882812 C 155.875 175.699219 155.023438 183.125 154.957031 190.808594 L 129.539062 190.808594 C 129.742188 179.792969 133.269531 169.574219 139.148438 161.125 Z M 159.785156 167.453125 C 161.0625 162.351562 162.765625 157.644531 164.835938 153.488281 C 169.597656 143.964844 175.785156 138.519531 182.347656 138.03125 L 182.347656 170.140625 C 174.433594 170.074219 166.742188 169.128906 159.785156 167.453125 Z M 156.929688 190.808594 C 156.992188 183.285156 157.8125 176.019531 159.328125 169.371094 C 166.441406 171.085938 174.292969 172.046875 182.347656 172.121094 L 182.347656 190.808594 Z M 182.347656 211.359375 C 174.273438 211.433594 166.433594 212.390625 159.304688 214.105469 C 157.8125 207.480469 156.992188 200.257812 156.929688 192.765625 L 182.347656 192.765625 Z M 184.308594 211.359375 L 184.308594 192.765625 L 209.726562 192.765625 C 209.664062 200.257812 208.84375 207.480469 207.351562 214.105469 C 200.226562 212.390625 192.382812 211.433594 184.308594 211.359375 Z M 184.308594 213.328125 C 192.234375 213.402344 199.925781 214.339844 206.894531 216.023438 C 205.617188 221.167969 203.910156 225.910156 201.8125 230.085938 C 197.0625 239.609375 190.871094 245.042969 184.308594 245.542969 Z M 182.347656 245.542969 C 175.785156 245.042969 169.597656 239.609375 164.835938 230.085938 C 162.746094 225.910156 161.042969 221.167969 159.761719 216.023438 C 166.730469 214.339844 174.421875 213.402344 182.347656 213.328125 Z M 195.421875 149.941406 C 194.875 149.941406 194.429688 150.378906 194.429688 150.921875 L 194.429688 157.3125 C 194.429688 157.527344 194.492188 157.707031 194.601562 157.867188 C 194.78125 158.132812 195.078125 158.304688 195.421875 158.304688 L 201.257812 158.304688 C 201.769531 160.710938 202.738281 163.042969 204.082031 165.109375 L 200.417969 168.777344 C 195.25 169.640625 189.835938 170.097656 184.308594 170.140625 L 184.308594 138.03125 C 189.964844 138.457031 195.410156 142.632812 199.851562 149.941406 Z M 151.25 148.621094 C 151.367188 148.535156 151.476562 148.460938 151.59375 148.375 C 151.933594 148.128906 152.261719 147.882812 152.605469 147.648438 C 152.613281 147.640625 152.625 147.628906 152.636719 147.617188 C 159.15625 143.113281 166.625 140.054688 174.484375 138.734375 C 170.203125 141.449219 166.304688 146.148438 163.078125 152.605469 C 160.933594 156.886719 159.1875 161.734375 157.878906 166.976562 C 151.082031 165.164062 145.0625 162.640625 140.300781 159.527344 C 143.292969 155.542969 146.820312 151.996094 150.78125 148.980469 C 150.941406 148.855469 151.089844 148.738281 151.25 148.621094 Z M 152.464844 235.828125 C 152.210938 235.648438 151.953125 235.464844 151.699219 235.285156 C 151.515625 235.148438 151.335938 235.019531 151.164062 234.890625 C 151.15625 234.878906 151.144531 234.878906 151.132812 234.871094 C 147.011719 231.769531 143.335938 228.105469 140.246094 223.980469 C 145.007812 220.851562 151.039062 218.3125 157.84375 216.503906 C 159.175781 221.789062 160.925781 226.667969 163.078125 230.96875 C 166.304688 237.425781 170.203125 242.136719 174.484375 244.839844 C 166.644531 243.53125 159.199219 240.484375 152.710938 236 C 152.625 235.933594 152.550781 235.882812 152.464844 235.828125 Z M 214.246094 235.785156 C 214.128906 235.882812 214 235.96875 213.882812 236.050781 C 213.53125 236.285156 213.179688 236.53125 212.816406 236.765625 C 212.804688 236.765625 212.796875 236.777344 212.785156 236.789062 C 206.574219 240.847656 199.554688 243.605469 192.171875 244.839844 C 196.453125 242.136719 200.351562 237.425781 203.582031 230.96875 C 205.734375 226.667969 207.480469 221.789062 208.800781 216.503906 C 215.617188 218.3125 221.648438 220.851562 226.410156 223.980469 C 223.152344 228.328125 219.25 232.164062 214.851562 235.359375 C 214.648438 235.507812 214.445312 235.648438 214.246094 235.785156 Z M 217.804688 180.6875 L 224.195312 180.6875 C 224.738281 180.6875 225.175781 180.238281 225.175781 179.695312 L 225.175781 173.859375 C 227.21875 173.421875 229.160156 172.675781 230.980469 171.632812 C 231.320312 171.4375 231.652344 171.246094 231.984375 171.035156 L 233.625 172.675781 C 235.839844 178.480469 237.011719 184.574219 237.117188 190.808594 L 211.699219 190.808594 C 211.644531 184.09375 210.984375 177.542969 209.75 171.289062 L 210.003906 171.023438 C 212.082031 172.375 214.40625 173.347656 216.8125 173.859375 L 216.8125 179.695312 C 216.8125 180.238281 217.25 180.6875 217.804688 180.6875 Z M 202.429688 141.472656 L 204.082031 143.132812 C 202.941406 144.890625 202.066406 146.851562 201.515625 148.875 C 198.722656 144.292969 195.515625 140.851562 192.074219 138.691406 C 195.613281 139.265625 199.074219 140.203125 202.429688 141.472656 Z M 246.554688 149.941406 L 240.71875 149.941406 C 240.195312 147.511719 239.238281 145.1875 237.90625 143.132812 L 242.027344 138.988281 C 242.414062 138.605469 242.414062 137.988281 242.027344 137.605469 L 237.511719 133.078125 C 237.332031 132.894531 237.074219 132.789062 236.820312 132.789062 C 236.554688 132.789062 236.308594 132.894531 236.117188 133.078125 L 231.984375 137.210938 C 229.894531 135.855469 227.613281 134.910156 225.175781 134.398438 L 225.175781 128.539062 C 225.175781 127.996094 224.738281 127.558594 224.195312 127.558594 L 217.792969 127.558594 C 217.25 127.558594 216.8125 127.996094 216.8125 128.539062 L 216.8125 134.398438 C 214.394531 134.910156 212.070312 135.867188 210.003906 137.210938 L 205.871094 133.078125 C 205.488281 132.691406 204.859375 132.691406 204.476562 133.078125 L 199.949219 137.605469 C 199.765625 137.785156 199.660156 138.039062 199.660156 138.296875 C 199.660156 138.351562 199.671875 138.402344 199.679688 138.445312 C 194.40625 136.835938 188.933594 136.015625 183.328125 136.015625 C 182.796875 136.015625 182.261719 136.027344 181.730469 136.039062 C 181.632812 136.039062 181.527344 136.046875 181.433594 136.046875 C 180.964844 136.070312 180.496094 136.089844 180.035156 136.113281 C 179.984375 136.113281 179.941406 136.125 179.886719 136.125 C 166.28125 136.945312 153.605469 142.632812 143.890625 152.347656 C 133.351562 162.882812 127.558594 176.894531 127.558594 191.789062 C 127.558594 206.691406 133.351562 220.691406 143.890625 231.226562 C 153.605469 240.941406 166.273438 246.621094 179.867188 247.453125 C 179.929688 247.453125 179.984375 247.453125 180.046875 247.460938 C 180.496094 247.484375 180.953125 247.503906 181.398438 247.515625 C 181.515625 247.527344 181.632812 247.527344 181.742188 247.535156 C 182.242188 247.546875 182.742188 247.558594 183.253906 247.558594 C 183.273438 247.558594 183.308594 247.558594 183.328125 247.558594 C 183.351562 247.558594 183.382812 247.558594 183.402344 247.558594 C 183.902344 247.558594 184.40625 247.546875 184.90625 247.535156 C 185.023438 247.527344 185.140625 247.527344 185.257812 247.515625 C 185.714844 247.503906 186.164062 247.484375 186.609375 247.460938 C 186.664062 247.453125 186.726562 247.453125 186.789062 247.453125 C 200.382812 246.621094 213.050781 240.941406 222.765625 231.226562 C 233.304688 220.691406 239.097656 206.691406 239.097656 191.789062 C 239.097656 186.203125 238.277344 180.71875 236.648438 175.433594 C 236.710938 175.445312 236.765625 175.457031 236.820312 175.457031 C 237.074219 175.457031 237.332031 175.347656 237.511719 175.167969 L 242.027344 170.640625 C 242.414062 170.257812 242.414062 169.628906 242.019531 169.246094 L 237.894531 165.109375 C 239.238281 163.054688 240.195312 160.734375 240.71875 158.304688 L 246.554688 158.304688 C 247.101562 158.304688 247.535156 157.867188 247.535156 157.3125 L 247.535156 150.921875 C 247.535156 150.378906 247.101562 149.941406 246.554688 149.941406 " fill-opacity="1" fill-rule="nonzero"/></g><path fill="#000000" d="M 221 164.640625 C 215.191406 164.640625 210.460938 159.921875 210.460938 154.117188 C 210.460938 148.3125 215.191406 143.589844 221 143.589844 C 226.792969 143.589844 231.503906 148.3125 231.503906 154.117188 C 231.503906 159.921875 226.792969 164.640625 221 164.640625 Z M 221 141.621094 C 214.105469 141.621094 208.492188 147.222656 208.492188 154.117188 C 208.492188 161.007812 214.105469 166.625 221 166.625 C 227.882812 166.625 233.484375 161.007812 233.484375 154.117188 C 233.484375 147.222656 227.882812 141.621094 221 141.621094 " fill-opacity="1" fill-rule="nonzero"/></svg>