<svg xmlns="http://www.w3.org/2000/svg" xmlns:xlink="http://www.w3.org/1999/xlink" width="500" zoomAndPan="magnify" viewBox="0 0 375 374.999991" height="500" preserveAspectRatio="xMidYMid meet" version="1.0"><defs><clipPath id="id1"><path d="M 158 118.417969 L 222 118.417969 L 222 256.417969 L 158 256.417969 Z M 158 118.417969 " clip-rule="nonzero"/></clipPath></defs><rect x="-37.5" width="450" fill="#ffffff" y="-37.499999" height="449.999989" fill-opacity="1"/><rect x="-37.5" width="450" fill="#ffffff" y="-37.499999" height="449.999989" fill-opacity="1"/><rect x="-37.5" width="450" fill="#ffffff" y="-37.499999" height="449.999989" fill-opacity="1"/><rect x="-37.5" width="450" fill="#ffffff" y="-37.499999" height="449.999989" fill-opacity="1"/><g clip-path="url(#id1)"><path fill="#000000" d="M 201.292969 141.53125 L 186.644531 157.925781 L 180.617188 164.644531 L 158.648438 189.296875 L 170.03125 194.84375 L 180.554688 199.960938 L 182.644531 201.007812 L 190.460938 204.828125 L 198.03125 208.464844 L 188.308594 209.019531 L 172.738281 239.40625 L 167.015625 250.683594 L 165.601562 253.398438 L 164.1875 256.109375 L 164.246094 256.109375 L 164.246094 256.171875 L 164.738281 256.417969 L 166.832031 254.136719 L 168.984375 251.796875 L 178.03125 241.808594 L 193.105469 225.167969 L 213.78125 202.425781 L 218.398438 197.125 L 199.199219 187.757812 L 197.597656 187.015625 L 188.921875 182.765625 L 182.214844 179.496094 L 190.890625 179.003906 L 208.613281 144.304688 L 214.398438 133.023438 L 215.8125 130.3125 L 217.167969 127.601562 L 218.582031 124.828125 L 221.90625 118.417969 L 216.921875 123.964844 L 214.828125 126.308594 L 213.722656 127.539062 L 212.675781 128.710938 L 210.523438 131.175781 Z M 201.292969 141.53125 " fill-opacity="1" fill-rule="evenodd"/></g><path fill="#545454" d="M 177.167969 162.179688 L 197.414062 139.496094 L 197.414062 134.195312 L 177.167969 134.195312 L 177.167969 147.015625 C 172.554688 148.003906 168.246094 149.605469 164.1875 151.761719 L 155.941406 141.960938 L 140.433594 154.96875 L 148.679688 164.828125 C 145.847656 168.464844 143.507812 172.472656 141.785156 176.785156 L 129.171875 174.566406 L 125.664062 194.535156 L 138.277344 196.753906 C 138.464844 201.5 139.265625 206.0625 140.679688 210.375 L 129.601562 216.785156 L 139.695312 234.351562 L 150.769531 227.941406 C 153.847656 231.394531 157.417969 234.351562 161.355469 236.816406 L 156.984375 248.898438 L 162.214844 250.808594 L 163.199219 248.898438 L 174.460938 226.894531 C 161.910156 221.839844 153.046875 209.453125 153.046875 195.089844 C 153.046875 193.859375 153.109375 192.6875 153.230469 191.515625 C 153.355469 190.53125 153.476562 189.605469 153.664062 188.621094 C 156.0625 176.109375 165.171875 166 177.167969 162.300781 Z M 177.167969 162.179688 " fill-opacity="1" fill-rule="evenodd"/><path fill="#545454" d="M 209.722656 151.390625 L 203.015625 164.457031 C 213.722656 170.003906 221.167969 181.101562 221.535156 193.921875 C 221.535156 194.226562 221.535156 194.597656 221.535156 194.90625 C 221.535156 196.753906 221.414062 198.605469 221.105469 200.328125 C 218.953125 213.765625 209.042969 224.550781 196.183594 228.003906 L 181.90625 243.78125 C 183.691406 243.96875 185.476562 244.089844 187.324219 244.089844 C 189.660156 244.089844 192 243.90625 194.214844 243.597656 L 198.582031 255.617188 L 217.597656 248.714844 L 213.230469 236.632812 C 217.167969 234.167969 220.738281 231.207031 223.8125 227.757812 L 234.890625 234.167969 L 244.980469 216.601562 L 233.90625 210.191406 C 235.320312 205.878906 236.121094 201.316406 236.304688 196.570312 L 248.917969 194.351562 L 245.410156 174.382812 L 232.796875 176.601562 C 231.074219 172.285156 228.734375 168.28125 225.90625 164.644531 L 234.152344 154.78125 L 218.644531 141.777344 L 210.398438 151.578125 C 210.152344 151.453125 209.96875 151.332031 209.722656 151.207031 Z M 209.722656 151.390625 " fill-opacity="1" fill-rule="evenodd"/></svg>