<svg xmlns="http://www.w3.org/2000/svg" xmlns:xlink="http://www.w3.org/1999/xlink" width="500" zoomAndPan="magnify" viewBox="0 0 375 374.999991" height="500" preserveAspectRatio="xMidYMid meet" version="1.0"><defs><clipPath id="id1"><path d="M 165 126.714844 L 210 126.714844 L 210 150 L 165 150 Z M 165 126.714844 " clip-rule="nonzero"/></clipPath><clipPath id="id2"><path d="M 202 223 L 226 223 L 226 248.214844 L 202 248.214844 Z M 202 223 " clip-rule="nonzero"/></clipPath><clipPath id="id3"><path d="M 149 223 L 173 223 L 173 248.214844 L 149 248.214844 Z M 149 223 " clip-rule="nonzero"/></clipPath><clipPath id="id4"><path d="M 126.714844 132 L 162 132 L 162 144 L 126.714844 144 Z M 126.714844 132 " clip-rule="nonzero"/></clipPath><clipPath id="id5"><path d="M 213 132 L 248.214844 132 L 248.214844 144 L 213 144 Z M 213 132 " clip-rule="nonzero"/></clipPath></defs><rect x="-37.5" width="450" fill="#ffffff" y="-37.499999" height="449.999989" fill-opacity="1"/><rect x="-37.5" width="450" fill="#ffffff" y="-37.499999" height="449.999989" fill-opacity="1"/><rect x="-37.5" width="450" fill="#ffffff" y="-37.499999" height="449.999989" fill-opacity="1"/><g clip-path="url(#id1)"><path fill="#000000" d="M 171.339844 149.476562 L 203.585938 149.476562 C 206.71875 149.476562 209.277344 146.914062 209.277344 143.785156 L 209.277344 132.402344 C 209.277344 129.273438 206.71875 126.714844 203.585938 126.714844 L 171.339844 126.714844 C 168.207031 126.714844 165.648438 129.273438 165.648438 132.402344 L 165.648438 143.785156 C 165.648438 146.914062 168.207031 149.476562 171.339844 149.476562 Z M 187.464844 136.199219 C 188.507812 136.199219 189.359375 137.050781 189.359375 138.09375 C 189.359375 139.136719 188.507812 139.992188 187.464844 139.992188 C 186.417969 139.992188 185.566406 139.136719 185.566406 138.09375 C 185.566406 137.050781 186.417969 136.199219 187.464844 136.199219 Z M 187.464844 136.199219 " fill-opacity="1" fill-rule="nonzero"/></g><path fill="#000000" d="M 181.773438 153.269531 L 181.773438 160.859375 L 176.082031 160.859375 C 172.953125 160.859375 170.390625 163.417969 170.390625 166.550781 L 170.390625 172.238281 L 204.535156 172.238281 L 204.535156 166.550781 C 204.535156 163.417969 201.976562 160.859375 198.84375 160.859375 L 193.152344 160.859375 L 193.152344 153.269531 L 189.359375 153.269531 L 189.359375 160.859375 L 185.566406 160.859375 L 185.566406 153.269531 Z M 187.464844 165.601562 C 188.507812 165.601562 189.359375 166.453125 189.359375 167.496094 C 189.359375 168.539062 188.507812 169.394531 187.464844 169.394531 C 186.417969 169.394531 185.566406 168.539062 185.566406 167.496094 C 185.566406 166.453125 186.417969 165.601562 187.464844 165.601562 Z M 187.464844 165.601562 " fill-opacity="1" fill-rule="nonzero"/><path fill="#000000" d="M 187.464844 201.644531 C 185.851562 201.644531 184.617188 202.875 184.617188 204.488281 C 184.617188 206.003906 185.851562 207.332031 187.464844 207.332031 C 189.074219 207.332031 190.308594 206.003906 190.308594 204.488281 C 190.308594 202.875 189.074219 201.644531 187.464844 201.644531 Z M 187.464844 201.644531 " fill-opacity="1" fill-rule="nonzero"/><path fill="#000000" d="M 198.75 211.695312 C 199.605469 210.367188 200.171875 208.945312 200.550781 207.332031 L 203.019531 207.332031 C 203.964844 207.332031 204.726562 206.480469 204.726562 205.4375 L 204.726562 203.539062 C 204.726562 202.496094 203.964844 201.644531 203.019531 201.644531 L 200.550781 201.644531 C 200.171875 200.03125 199.605469 198.609375 198.75 197.28125 L 200.457031 195.574219 C 201.121094 194.910156 201.027344 193.769531 200.265625 193.011719 L 198.941406 191.683594 C 198.558594 191.304688 197.992188 191.019531 197.515625 191.019531 C 197.042969 191.019531 196.664062 191.210938 196.378906 191.492188 L 194.671875 193.203125 C 193.34375 192.347656 191.921875 191.777344 190.308594 191.398438 L 190.308594 188.933594 C 190.308594 187.984375 189.453125 187.226562 188.410156 187.226562 L 186.515625 187.226562 C 185.472656 187.226562 184.617188 187.984375 184.617188 188.933594 L 184.617188 191.398438 C 183.003906 191.777344 181.582031 192.347656 180.253906 193.203125 L 178.546875 191.492188 C 178.261719 191.210938 177.789062 191.019531 177.410156 191.019531 C 176.933594 191.019531 176.367188 191.210938 175.988281 191.683594 L 174.660156 193.011719 C 173.898438 193.769531 173.898438 194.910156 174.46875 195.574219 L 176.175781 197.28125 C 175.324219 198.609375 174.753906 200.03125 174.375 201.644531 L 171.90625 201.644531 C 170.960938 201.644531 170.199219 202.496094 170.199219 203.539062 L 170.199219 205.4375 C 170.199219 206.480469 170.960938 207.332031 171.90625 207.332031 L 174.375 207.332031 C 174.660156 208.945312 175.324219 210.367188 176.175781 211.695312 L 174.46875 213.402344 C 173.804688 214.066406 173.898438 215.207031 174.660156 215.964844 L 175.988281 217.292969 C 176.367188 217.671875 176.933594 217.863281 177.410156 217.863281 C 177.882812 217.863281 178.261719 217.671875 178.546875 217.386719 L 180.253906 215.679688 C 181.582031 216.535156 183.003906 217.101562 184.617188 217.480469 L 184.617188 219.949219 C 184.617188 220.898438 185.472656 221.65625 186.515625 221.65625 L 188.410156 221.65625 C 189.453125 221.65625 190.308594 220.898438 190.308594 219.949219 L 190.308594 217.480469 C 191.921875 217.101562 193.34375 216.535156 194.671875 215.679688 L 196.378906 217.386719 C 196.664062 217.671875 197.136719 217.863281 197.515625 217.863281 C 197.992188 217.863281 198.558594 217.671875 198.941406 217.292969 L 200.265625 215.964844 C 201.027344 215.207031 201.027344 214.066406 200.457031 213.402344 Z M 187.464844 211.128906 C 183.765625 211.128906 180.824219 208.09375 180.824219 204.488281 C 180.824219 200.789062 183.765625 197.847656 187.464844 197.847656 C 191.160156 197.847656 194.101562 200.789062 194.101562 204.488281 C 194.101562 208.1875 191.160156 211.128906 187.464844 211.128906 Z M 187.464844 211.128906 " fill-opacity="1" fill-rule="nonzero"/><path fill="#000000" d="M 159.957031 179.828125 L 159.957031 189.3125 C 159.957031 192.441406 162.519531 195.003906 165.648438 195.003906 L 170.296875 195.003906 C 170.296875 194.8125 170.199219 194.625 170.199219 194.433594 C 170.199219 193.296875 170.582031 192.15625 171.242188 191.210938 L 165.648438 191.210938 C 164.605469 191.210938 163.75 190.355469 163.75 189.3125 L 163.75 179.828125 L 211.175781 179.828125 L 211.175781 189.3125 C 211.175781 190.355469 210.320312 191.210938 209.277344 191.210938 L 203.683594 191.210938 C 204.347656 192.15625 204.628906 193.296875 204.628906 194.433594 C 204.628906 194.625 204.628906 194.8125 204.535156 195.003906 L 209.277344 195.003906 C 212.40625 195.003906 214.96875 192.441406 214.96875 189.3125 L 214.96875 179.828125 C 214.96875 177.742188 213.261719 176.035156 211.175781 176.035156 L 163.75 176.035156 C 161.664062 176.035156 159.957031 177.742188 159.957031 179.828125 Z M 159.957031 179.828125 " fill-opacity="1" fill-rule="nonzero"/><g clip-path="url(#id2)"><path fill="#000000" d="M 214.210938 223.933594 L 202.921875 245.273438 C 202.449219 246.125 202.734375 247.074219 203.398438 247.644531 C 204.0625 248.214844 205.105469 248.214844 205.863281 247.550781 L 225.6875 230.003906 C 220.945312 229.8125 216.867188 227.535156 214.210938 223.933594 Z M 214.210938 223.933594 " fill-opacity="1" fill-rule="nonzero"/></g><g clip-path="url(#id3)"><path fill="#000000" d="M 160.714844 223.933594 C 158.058594 227.441406 153.980469 229.8125 149.238281 230.003906 C 149.335938 230.097656 169.0625 247.550781 169.0625 247.550781 C 169.726562 248.117188 170.769531 248.214844 171.527344 247.644531 C 172.289062 247.074219 172.476562 246.03125 172.003906 245.273438 Z M 160.714844 223.933594 " fill-opacity="1" fill-rule="nonzero"/></g><path fill="#000000" d="M 209.277344 198.796875 L 206.335938 198.796875 L 213.832031 206.289062 C 214.210938 205.816406 214.589844 205.34375 214.96875 204.867188 C 214.96875 204.867188 215.0625 204.773438 215.0625 204.773438 C 216.960938 202.6875 219.523438 201.074219 222.367188 200.316406 C 222.558594 200.21875 222.746094 200.21875 222.9375 200.21875 C 223.125 200.125 223.410156 200.125 223.695312 200.125 C 223.882812 200.125 224.167969 200.03125 224.359375 200.03125 C 224.546875 200.03125 224.832031 199.9375 225.023438 199.9375 C 225.308594 199.9375 225.6875 199.9375 225.972656 199.9375 C 226.066406 199.9375 226.253906 199.9375 226.351562 199.9375 L 218.382812 191.96875 C 218.289062 192.253906 218.195312 192.441406 218.097656 192.726562 C 216.867188 196.238281 213.355469 198.796875 209.277344 198.796875 Z M 209.277344 198.796875 " fill-opacity="1" fill-rule="nonzero"/><path fill="#000000" d="M 165.648438 198.796875 C 161.285156 198.796875 157.585938 195.855469 156.542969 191.777344 L 148.574219 199.746094 C 148.671875 199.746094 148.859375 199.746094 148.953125 199.746094 C 149.238281 199.746094 149.617188 199.746094 149.902344 199.746094 C 150.09375 199.746094 150.378906 199.839844 150.566406 199.839844 C 150.757812 199.839844 151.042969 199.9375 151.230469 199.9375 C 151.515625 199.9375 151.707031 200.03125 151.988281 200.03125 C 152.179688 200.03125 152.371094 200.125 152.558594 200.125 C 156.070312 201.074219 159.105469 203.253906 161.09375 206.195312 L 168.589844 198.703125 L 165.648438 198.703125 Z M 165.648438 198.796875 " fill-opacity="1" fill-rule="nonzero"/><g clip-path="url(#id4)"><path fill="#000000" d="M 161.855469 139.992188 L 130.554688 139.992188 L 130.554688 136.199219 L 161.855469 136.199219 L 161.855469 132.402344 L 130.554688 132.402344 C 128.46875 132.402344 126.761719 134.109375 126.761719 136.199219 L 126.761719 139.992188 C 126.761719 142.078125 128.46875 143.785156 130.554688 143.785156 L 161.855469 143.785156 Z M 161.855469 139.992188 " fill-opacity="1" fill-rule="nonzero"/></g><g clip-path="url(#id5)"><path fill="#000000" d="M 244.371094 132.402344 L 213.070312 132.402344 L 213.070312 136.199219 L 244.371094 136.199219 L 244.371094 139.992188 L 213.070312 139.992188 L 213.070312 143.785156 L 244.371094 143.785156 C 246.457031 143.785156 248.164062 142.078125 248.164062 139.992188 L 248.164062 136.199219 C 248.164062 134.109375 246.457031 132.402344 244.371094 132.402344 Z M 244.371094 132.402344 " fill-opacity="1" fill-rule="nonzero"/></g><path fill="#000000" d="M 226.351562 203.539062 C 220.089844 203.539062 214.96875 208.660156 214.96875 214.921875 C 214.96875 221.179688 220.089844 226.304688 226.351562 226.304688 C 232.609375 226.304688 237.730469 221.179688 237.730469 214.921875 C 237.730469 208.660156 232.609375 203.539062 226.351562 203.539062 Z M 226.351562 222.507812 C 222.175781 222.507812 218.761719 219.09375 218.761719 214.921875 C 218.761719 210.75 222.175781 207.332031 226.351562 207.332031 C 230.523438 207.332031 233.9375 210.75 233.9375 214.921875 C 233.9375 219.09375 230.523438 222.507812 226.351562 222.507812 Z M 226.351562 222.507812 " fill-opacity="1" fill-rule="nonzero"/><path fill="#000000" d="M 226.824219 213.023438 L 225.875 213.023438 C 224.832031 213.023438 223.980469 213.878906 223.980469 214.921875 C 223.980469 215.964844 224.832031 216.820312 225.875 216.820312 L 226.824219 216.820312 C 227.867188 216.820312 228.722656 215.964844 228.722656 214.921875 C 228.722656 213.878906 227.867188 213.023438 226.824219 213.023438 Z M 226.824219 213.023438 " fill-opacity="1" fill-rule="nonzero"/><path fill="#000000" d="M 159.957031 214.921875 C 159.957031 208.660156 154.835938 203.539062 148.574219 203.539062 C 142.316406 203.539062 137.195312 208.660156 137.195312 214.921875 C 137.195312 221.179688 142.316406 226.304688 148.574219 226.304688 C 154.835938 226.304688 159.957031 221.179688 159.957031 214.921875 Z M 148.574219 222.507812 C 144.402344 222.507812 140.988281 219.09375 140.988281 214.921875 C 140.988281 210.75 144.402344 207.332031 148.574219 207.332031 C 152.75 207.332031 156.164062 210.75 156.164062 214.921875 C 156.164062 219.09375 152.75 222.507812 148.574219 222.507812 Z M 148.574219 222.507812 " fill-opacity="1" fill-rule="nonzero"/><path fill="#000000" d="M 149.050781 213.023438 L 148.101562 213.023438 C 147.058594 213.023438 146.203125 213.878906 146.203125 214.921875 C 146.203125 215.964844 147.058594 216.820312 148.101562 216.820312 L 149.050781 216.820312 C 150.09375 216.820312 150.945312 215.964844 150.945312 214.921875 C 150.945312 213.878906 150.09375 213.023438 149.050781 213.023438 Z M 149.050781 213.023438 " fill-opacity="1" fill-rule="nonzero"/></svg>