<svg xmlns="http://www.w3.org/2000/svg" xmlns:xlink="http://www.w3.org/1999/xlink" width="500" zoomAndPan="magnify" viewBox="0 0 375 374.999991" height="500" preserveAspectRatio="xMidYMid meet" version="1.0"><defs><clipPath id="id1"><path d="M 152 144 L 246 144 L 246 245 L 152 245 Z M 152 144 " clip-rule="nonzero"/></clipPath><clipPath id="id2"><path d="M 221.179688 144.085938 L 266.839844 180.660156 L 197.910156 266.707031 L 152.253906 230.132812 Z M 221.179688 144.085938 " clip-rule="nonzero"/></clipPath><clipPath id="id3"><path d="M 180.460938 111.46875 L 267.09375 180.863281 L 198.167969 266.914062 L 111.535156 197.515625 Z M 180.460938 111.46875 " clip-rule="nonzero"/></clipPath><clipPath id="id4"><path d="M 180.460938 111.46875 L 267.09375 180.863281 L 198.167969 266.914062 L 111.535156 197.515625 Z M 180.460938 111.46875 " clip-rule="nonzero"/></clipPath><clipPath id="id5"><path d="M 132 132 L 231 132 L 231 234 L 132 234 Z M 132 132 " clip-rule="nonzero"/></clipPath><clipPath id="id6"><path d="M 153.316406 233.03125 L 108.113281 191.332031 L 184.902344 108.09375 L 230.105469 149.792969 Z M 153.316406 233.03125 " clip-rule="nonzero"/></clipPath><clipPath id="id7"><path d="M 191.34375 268.117188 L 108.105469 191.324219 L 184.898438 108.085938 L 268.136719 184.878906 Z M 191.34375 268.117188 " clip-rule="nonzero"/></clipPath><clipPath id="id8"><path d="M 191.34375 268.117188 L 108.105469 191.324219 L 184.898438 108.085938 L 268.136719 184.878906 Z M 191.34375 268.117188 " clip-rule="nonzero"/></clipPath><clipPath id="id9"><path d="M 131 131 L 231 131 L 231 234 L 131 234 Z M 131 131 " clip-rule="nonzero"/></clipPath><clipPath id="id10"><path d="M 153.316406 233.03125 L 108.113281 191.332031 L 184.902344 108.09375 L 230.105469 149.792969 Z M 153.316406 233.03125 " clip-rule="nonzero"/></clipPath><clipPath id="id11"><path d="M 191.34375 268.117188 L 108.105469 191.324219 L 184.898438 108.085938 L 268.136719 184.878906 Z M 191.34375 268.117188 " clip-rule="nonzero"/></clipPath><clipPath id="id12"><path d="M 191.34375 268.117188 L 108.105469 191.324219 L 184.898438 108.085938 L 268.136719 184.878906 Z M 191.34375 268.117188 " clip-rule="nonzero"/></clipPath><clipPath id="id13"><path d="M 154 154 L 222 154 L 222 222 L 154 222 Z M 154 154 " clip-rule="nonzero"/></clipPath><clipPath id="id14"><path d="M 153.316406 233.03125 L 108.113281 191.332031 L 184.902344 108.09375 L 230.105469 149.792969 Z M 153.316406 233.03125 " clip-rule="nonzero"/></clipPath><clipPath id="id15"><path d="M 191.34375 268.117188 L 108.105469 191.324219 L 184.898438 108.085938 L 268.136719 184.878906 Z M 191.34375 268.117188 " clip-rule="nonzero"/></clipPath><clipPath id="id16"><path d="M 191.34375 268.117188 L 108.105469 191.324219 L 184.898438 108.085938 L 268.136719 184.878906 Z M 191.34375 268.117188 " clip-rule="nonzero"/></clipPath><clipPath id="id17"><path d="M 152 152 L 224 152 L 224 224 L 152 224 Z M 152 152 " clip-rule="nonzero"/></clipPath><clipPath id="id18"><path d="M 153.316406 233.03125 L 108.113281 191.332031 L 184.902344 108.09375 L 230.105469 149.792969 Z M 153.316406 233.03125 " clip-rule="nonzero"/></clipPath><clipPath id="id19"><path d="M 191.34375 268.117188 L 108.105469 191.324219 L 184.898438 108.085938 L 268.136719 184.878906 Z M 191.34375 268.117188 " clip-rule="nonzero"/></clipPath><clipPath id="id20"><path d="M 191.34375 268.117188 L 108.105469 191.324219 L 184.898438 108.085938 L 268.136719 184.878906 Z M 191.34375 268.117188 " clip-rule="nonzero"/></clipPath><clipPath id="id21"><path d="M 167.503906 168.035156 L 209.503906 168.035156 L 209.503906 207 L 167.503906 207 Z M 167.503906 168.035156 " clip-rule="nonzero"/></clipPath></defs><rect x="-37.5" width="450" fill="#ffffff" y="-37.499999" height="449.999989" fill-opacity="1"/><rect x="-37.5" width="450" fill="#ffffff" y="-37.499999" height="449.999989" fill-opacity="1"/><rect x="-37.5" width="450" fill="#ffffff" y="-37.499999" height="449.999989" fill-opacity="1"/><g clip-path="url(#id1)"><g clip-path="url(#id2)"><g clip-path="url(#id3)"><g clip-path="url(#id4)"><path fill="#1e1b1b" d="M 223.203125 217.277344 C 223.550781 216.871094 224.257812 216.632812 224.777344 216.746094 L 235.332031 219.023438 C 235.851562 219.132812 236.488281 218.847656 236.75 218.386719 L 241.410156 209.007812 C 241.617188 208.519531 241.46875 207.828125 241.074219 207.46875 L 232.941406 200.050781 C 232.550781 199.691406 232.316406 198.972656 232.425781 198.453125 L 232.96875 195.382812 C 233.046875 194.855469 233.519531 194.273438 234.015625 194.089844 L 244.171875 190.28125 C 244.671875 190.09375 245.058594 189.507812 245.035156 188.976562 L 243.949219 178.375 C 243.867188 177.851562 243.367188 177.347656 242.84375 177.257812 L 232.078125 175.40625 C 231.554688 175.316406 230.976562 174.835938 230.792969 174.335938 L 229.691406 171.582031 C 229.480469 171.09375 229.566406 170.347656 229.882812 169.921875 L 236.402344 161.148438 C 236.722656 160.722656 236.734375 160.015625 236.429688 159.578125 L 229.894531 151.179688 C 229.546875 150.777344 228.859375 150.621094 228.371094 150.828125 L 218.394531 155.058594 C 217.90625 155.265625 217.339844 155.292969 217.132812 155.121094 L 216.941406 154.96875 C 215.777344 154.035156 214.152344 152.925781 214.152344 152.925781 C 213.710938 152.625 213.382812 151.945312 213.417969 151.414062 L 214.152344 140.445312 C 214.1875 139.917969 213.816406 139.3125 213.328125 139.101562 L 203.53125 135.515625 C 203.023438 135.359375 202.363281 135.59375 202.0625 136.03125 L 196.019531 144.925781 C 195.722656 145.363281 195.046875 145.679688 194.515625 145.625 L 190.707031 145.351562 C 190.175781 145.332031 189.53125 144.933594 189.273438 144.46875 L 183.957031 134.824219 C 183.699219 134.359375 183.058594 134.046875 182.535156 134.132812 L 172.679688 136.289062 C 172.167969 136.429688 171.738281 136.976562 171.726562 137.507812 L 171.464844 148.21875 C 171.449219 148.75 171.050781 149.378906 170.578125 149.613281 L 166.5625 151.796875 C 166.109375 152.070312 165.351562 152.082031 164.886719 151.828125 L 155.238281 146.59375 C 154.773438 146.339844 154.066406 146.425781 153.675781 146.78125 C 153.675781 146.78125 148.710938 151.289062 146.242188 154.371094 L 146.226562 154.390625 C 146.210938 154.40625 146.425781 154.792969 146.703125 155.25 L 152.277344 164.414062 C 152.550781 164.867188 152.558594 165.613281 152.289062 166.070312 L 149.816406 170.667969 C 149.582031 171.148438 148.960938 171.570312 148.429688 171.609375 L 137.566406 172.402344 C 137.039062 172.441406 136.496094 172.890625 136.367188 173.40625 L 134.503906 182.695312 C 134.425781 183.222656 134.753906 183.84375 135.230469 184.074219 L 144.910156 188.8125 C 145.390625 189.046875 145.800781 189.671875 145.828125 190.199219 L 146.339844 195.757812 C 146.414062 196.285156 146.125 196.976562 145.699219 197.296875 L 137.074219 203.785156 C 136.648438 204.105469 136.445312 204.777344 136.617188 205.277344 L 140.140625 214.007812 C 140.363281 214.492188 140.980469 214.835938 141.507812 214.777344 L 152.257812 213.53125 C 152.785156 213.46875 153.476562 213.769531 153.792969 214.199219 L 157.265625 218.519531 C 157.617188 218.917969 157.753906 219.652344 157.570312 220.152344 L 153.863281 230.214844 C 153.679688 230.710938 153.863281 231.398438 154.269531 231.742188 C 154.269531 231.742188 154.484375 231.929688 154.976562 232.320312 C 157.527344 234.363281 162.136719 237.164062 162.136719 237.164062 C 162.59375 237.441406 163.300781 237.390625 163.710938 237.054688 L 172.125 230.144531 C 172.535156 229.808594 173.277344 229.683594 173.777344 229.871094 L 178.621094 231.441406 C 179.132812 231.585938 179.644531 232.125 179.761719 232.644531 L 182.085938 243.105469 C 182.203125 243.625 182.730469 244.082031 183.261719 244.125 L 193.089844 244.402344 C 193.621094 244.390625 194.1875 243.964844 194.347656 243.460938 L 197.699219 233.023438 C 197.859375 232.515625 198.414062 232.007812 198.933594 231.890625 L 203.152344 230.761719 C 203.660156 230.605469 204.386719 230.785156 204.761719 231.160156 L 212.390625 238.738281 C 212.769531 239.113281 213.460938 239.214844 213.929688 238.96875 L 222.628906 233.707031 C 223.070312 233.40625 223.316406 232.742188 223.179688 232.230469 L 220.332031 221.589844 C 220.195312 221.078125 220.386719 220.34375 220.757812 219.964844 Z M 169.179688 214.363281 C 155.226562 203.183594 152.945312 182.847656 164.089844 168.933594 C 175.234375 155.023438 195.578125 152.808594 209.53125 163.988281 C 223.488281 175.164062 225.765625 195.503906 214.625 209.414062 C 203.480469 223.324219 183.136719 225.539062 169.179688 214.363281 Z M 169.179688 214.363281 " fill-opacity="1" fill-rule="nonzero"/></g></g></g></g><g clip-path="url(#id5)"><g clip-path="url(#id6)"><g clip-path="url(#id7)"><g clip-path="url(#id8)"><path fill="#ffffff" d="M 205.308594 169.472656 C 215.675781 179.035156 216.324219 195.195312 206.761719 205.566406 C 197.195312 215.933594 181.035156 216.585938 170.664062 207.023438 C 160.296875 197.453125 159.644531 181.292969 169.210938 170.925781 C 178.777344 160.554688 194.9375 159.902344 205.308594 169.472656 Z M 152.199219 145.605469 L 143.671875 154.847656 L 150.992188 168.339844 C 149.175781 171.714844 147.84375 175.265625 147.015625 178.910156 L 132.671875 183.449219 L 133.175781 196.015625 L 147.753906 200.335938 C 148.839844 203.972656 150.429688 207.472656 152.515625 210.753906 L 145.625 224.023438 L 154.867188 232.546875 L 168.210938 225.308594 C 171.640625 227.140625 175.25 228.464844 178.953125 229.277344 L 183.46875 243.546875 L 196.035156 243.042969 L 200.378906 228.390625 C 203.957031 227.289062 207.398438 225.699219 210.628906 223.632812 L 224.042969 230.59375 L 232.566406 221.351562 L 225.191406 207.757812 C 226.9375 204.433594 228.207031 200.941406 229 197.359375 L 243.570312 192.75 L 243.0625 180.183594 L 228.101562 175.75 C 227.03125 172.296875 225.496094 168.964844 223.523438 165.835938 L 230.613281 152.179688 L 221.375 143.65625 L 207.628906 151.109375 C 204.355469 149.378906 200.925781 148.097656 197.402344 147.289062 L 192.769531 132.652344 L 180.203125 133.15625 L 175.792969 148.042969 C 172.277344 149.101562 168.894531 150.628906 165.714844 152.625 L 152.199219 145.605469 " fill-opacity="1" fill-rule="nonzero"/></g></g></g></g><g clip-path="url(#id9)"><g clip-path="url(#id10)"><g clip-path="url(#id11)"><g clip-path="url(#id12)"><path fill="#1e2a4e" d="M 205.308594 169.472656 L 204.351562 170.507812 C 209.253906 175.027344 211.851562 181.097656 212.101562 187.273438 C 212.347656 193.449219 210.246094 199.707031 205.726562 204.609375 C 201.203125 209.511719 195.132812 212.109375 188.957031 212.363281 C 182.78125 212.609375 176.523438 210.507812 171.621094 205.984375 C 166.71875 201.460938 164.121094 195.390625 163.871094 189.214844 C 163.625 183.039062 165.726562 176.78125 170.246094 171.878906 C 174.769531 166.980469 180.839844 164.378906 187.015625 164.128906 C 193.191406 163.882812 199.449219 165.984375 204.351562 170.507812 L 206.261719 168.4375 C 200.796875 163.390625 193.789062 161.035156 186.902344 161.3125 C 180.011719 161.589844 173.21875 164.5 168.175781 169.96875 C 163.132812 175.4375 160.773438 182.441406 161.054688 189.328125 C 161.332031 196.21875 164.242188 203.011719 169.710938 208.058594 C 175.175781 213.101562 182.183594 215.457031 189.070312 215.175781 C 195.957031 214.902344 202.753906 211.988281 207.796875 206.519531 C 212.839844 201.054688 215.195312 194.046875 214.917969 187.160156 C 214.644531 180.273438 211.730469 173.476562 206.261719 168.4375 Z M 152.199219 145.605469 L 151.164062 144.648438 L 141.953125 154.632812 L 149.753906 169.007812 L 150.992188 168.339844 L 149.753906 167.671875 C 147.875 171.15625 146.5 174.828125 145.640625 178.597656 L 147.015625 178.910156 L 146.589844 177.570312 L 131.222656 182.433594 L 131.808594 197.082031 L 147.351562 201.6875 L 147.753906 200.335938 L 146.402344 200.742188 C 147.527344 204.5 149.171875 208.117188 151.324219 211.507812 L 152.515625 210.753906 L 151.265625 210.105469 L 143.878906 224.328125 L 154.652344 234.269531 L 168.882812 226.546875 L 168.210938 225.308594 L 167.546875 226.550781 C 171.085938 228.445312 174.820312 229.8125 178.652344 230.652344 L 178.953125 229.277344 L 177.609375 229.703125 L 182.449219 245 L 197.101562 244.410156 L 201.730469 228.789062 L 200.378906 228.390625 L 200.792969 229.738281 C 204.492188 228.597656 208.050781 226.953125 211.386719 224.820312 L 210.628906 223.632812 L 209.976562 224.882812 L 224.347656 232.34375 L 234.289062 221.570312 L 226.429688 207.085938 L 225.191406 207.757812 L 226.4375 208.414062 C 228.242188 204.980469 229.558594 201.367188 230.375 197.664062 L 229 197.359375 L 229.425781 198.703125 L 245.019531 193.769531 L 244.429688 179.121094 L 228.503906 174.398438 L 228.101562 175.75 L 229.449219 175.332031 C 228.339844 171.757812 226.753906 168.316406 224.714844 165.085938 L 223.523438 165.835938 L 224.773438 166.488281 L 232.363281 151.875 L 221.589844 141.933594 L 206.957031 149.871094 L 207.628906 151.109375 L 208.289062 149.863281 C 204.910156 148.074219 201.363281 146.75 197.71875 145.917969 L 197.402344 147.289062 L 198.746094 146.867188 L 193.789062 131.199219 L 179.136719 131.789062 L 174.441406 147.640625 L 175.792969 148.042969 L 175.386719 146.691406 C 171.753906 147.789062 168.253906 149.367188 164.964844 151.429688 L 165.714844 152.625 L 166.363281 151.371094 L 151.894531 143.859375 L 151.164062 144.648438 L 152.199219 145.605469 L 151.550781 146.855469 L 165.777344 154.246094 L 166.460938 153.816406 C 169.535156 151.890625 172.804688 150.417969 176.199219 149.390625 L 176.925781 149.171875 L 181.269531 134.523438 L 191.75 134.105469 L 196.300781 148.484375 L 197.089844 148.664062 C 200.492188 149.441406 203.804688 150.679688 206.96875 152.355469 L 207.636719 152.710938 L 221.160156 145.371094 L 228.867188 152.484375 L 221.898438 165.90625 L 222.332031 166.589844 C 224.242188 169.617188 225.722656 172.832031 226.757812 176.167969 L 226.980469 176.886719 L 241.695312 181.25 L 242.117188 191.730469 L 227.800781 196.261719 L 227.625 197.054688 C 226.859375 200.515625 225.632812 203.890625 223.945312 207.101562 L 223.59375 207.769531 L 230.847656 221.140625 L 223.734375 228.851562 L 210.554688 222.003906 L 209.867188 222.445312 C 206.746094 224.441406 203.417969 225.980469 199.964844 227.042969 L 199.242188 227.265625 L 194.972656 241.675781 L 184.488281 242.097656 L 180.050781 228.074219 L 179.253906 227.902344 C 175.675781 227.117188 172.1875 225.835938 168.875 224.066406 L 168.207031 223.707031 L 155.082031 230.828125 L 147.371094 223.714844 L 154.136719 210.683594 L 153.703125 209.996094 C 151.691406 206.828125 150.15625 203.445312 149.105469 199.933594 L 148.882812 199.203125 L 134.546875 194.953125 L 134.121094 184.46875 L 148.210938 180.011719 L 148.390625 179.226562 C 149.191406 175.703125 150.476562 172.273438 152.234375 169.007812 L 152.59375 168.335938 L 145.394531 155.0625 L 153.234375 146.5625 L 152.199219 145.605469 L 151.550781 146.855469 L 152.199219 145.605469 " fill-opacity="1" fill-rule="nonzero"/></g></g></g></g><g clip-path="url(#id13)"><g clip-path="url(#id14)"><g clip-path="url(#id15)"><g clip-path="url(#id16)"><path fill="#ffffff" d="M 203.644531 171.269531 C 212.941406 179.84375 213.527344 194.332031 204.949219 203.625 C 196.375 212.921875 181.886719 213.503906 172.589844 204.929688 C 163.296875 196.355469 162.714844 181.867188 171.289062 172.574219 C 179.863281 163.277344 194.351562 162.695312 203.644531 171.269531 Z M 165.199219 212.941406 C 178.921875 225.597656 200.304688 224.734375 212.960938 211.015625 C 225.617188 197.296875 224.753906 175.914062 211.035156 163.257812 C 197.316406 150.601562 175.9375 151.464844 163.277344 165.183594 C 150.621094 178.902344 151.484375 200.285156 165.199219 212.941406 " fill-opacity="1" fill-rule="nonzero"/></g></g></g></g><g clip-path="url(#id17)"><g clip-path="url(#id18)"><g clip-path="url(#id19)"><g clip-path="url(#id20)"><path fill="#1e2a4e" d="M 203.644531 171.269531 L 202.6875 172.304688 C 207.054688 176.332031 209.367188 181.734375 209.589844 187.234375 C 209.8125 192.734375 207.941406 198.304688 203.914062 202.671875 C 199.886719 207.035156 194.484375 209.347656 188.984375 209.570312 C 183.484375 209.792969 177.914062 207.921875 173.546875 203.894531 C 169.183594 199.867188 166.871094 194.464844 166.648438 188.964844 C 166.429688 183.464844 168.300781 177.894531 172.324219 173.527344 C 176.351562 169.164062 181.753906 166.851562 187.253906 166.628906 C 192.753906 166.40625 198.324219 168.277344 202.6875 172.304688 L 204.601562 170.234375 C 199.671875 165.683594 193.351562 163.558594 187.140625 163.8125 C 180.929688 164.0625 174.800781 166.6875 170.253906 171.617188 C 165.703125 176.546875 163.578125 182.867188 163.832031 189.078125 C 164.078125 195.289062 166.707031 201.417969 171.636719 205.964844 C 176.566406 210.515625 182.886719 212.640625 189.097656 212.386719 C 195.308594 212.140625 201.4375 209.511719 205.984375 204.582031 C 210.535156 199.652344 212.65625 193.332031 212.40625 187.121094 C 212.15625 180.910156 209.53125 174.78125 204.601562 170.234375 Z M 165.199219 212.941406 L 164.246094 213.976562 C 171.386719 220.566406 180.539062 223.640625 189.535156 223.277344 C 198.535156 222.917969 207.40625 219.113281 213.996094 211.972656 C 220.585938 204.832031 223.660156 195.679688 223.296875 186.683594 C 222.9375 177.683594 219.132812 168.8125 211.988281 162.222656 C 204.847656 155.632812 195.699219 152.558594 186.703125 152.921875 C 177.703125 153.285156 168.832031 157.085938 162.242188 164.226562 C 155.652344 171.371094 152.578125 180.519531 152.941406 189.515625 C 153.300781 198.515625 157.101562 207.386719 164.246094 213.976562 L 166.15625 211.902344 C 159.582031 205.835938 156.09375 197.691406 155.757812 189.402344 C 155.425781 181.117188 158.246094 172.714844 164.316406 166.140625 C 170.382812 159.5625 178.53125 156.074219 186.816406 155.738281 C 195.101562 155.40625 203.503906 158.226562 210.078125 164.292969 C 216.65625 170.363281 220.144531 178.507812 220.480469 186.796875 C 220.8125 195.082031 217.992188 203.484375 211.925781 210.0625 C 205.855469 216.636719 197.710938 220.125 189.421875 220.460938 C 181.136719 220.792969 172.734375 217.972656 166.15625 211.902344 L 165.199219 212.941406 " fill-opacity="1" fill-rule="nonzero"/></g></g></g></g><path fill="#0f0005" d="M 179.136719 195.28125 L 197.867188 195.28125 L 197.867188 179.695312 L 179.136719 179.695312 Z M 183.808594 187.175781 L 189.332031 180.71875 C 189.59375 180.417969 189.925781 180.253906 190.324219 180.234375 C 190.722656 180.21875 191.066406 180.351562 191.351562 180.628906 C 191.5625 180.835938 191.695312 181.082031 191.746094 181.371094 C 191.800781 181.664062 191.761719 181.941406 191.632812 182.207031 L 190.066406 185.539062 L 192.148438 185.480469 C 192.417969 185.46875 192.664062 185.535156 192.890625 185.671875 C 193.121094 185.8125 193.292969 186 193.40625 186.242188 C 193.523438 186.480469 193.5625 186.734375 193.527344 187 C 193.492188 187.261719 193.386719 187.496094 193.210938 187.699219 L 187.574219 194.257812 C 187.300781 194.582031 186.953125 194.746094 186.53125 194.742188 C 186.414062 194.742188 186.300781 194.730469 186.1875 194.699219 C 186.078125 194.671875 185.96875 194.628906 185.871094 194.574219 C 185.769531 194.519531 185.675781 194.453125 185.589844 194.375 C 185.507812 194.296875 185.433594 194.207031 185.371094 194.109375 C 185.308594 194.011719 185.257812 193.910156 185.222656 193.800781 C 185.1875 193.691406 185.164062 193.578125 185.15625 193.464844 C 185.144531 193.347656 185.152344 193.234375 185.171875 193.121094 C 185.191406 193.007812 185.226562 192.898438 185.273438 192.792969 L 186.8125 189.402344 L 184.953125 189.5 C 184.671875 189.515625 184.410156 189.449219 184.164062 189.308594 C 183.921875 189.164062 183.738281 188.96875 183.613281 188.714844 C 183.488281 188.460938 183.445312 188.195312 183.480469 187.914062 C 183.515625 187.636719 183.625 187.390625 183.808594 187.175781 Z M 183.808594 187.175781 " fill-opacity="1" fill-rule="nonzero"/><path fill="#0f0005" d="M 187.554688 187.871094 C 187.726562 187.871094 187.890625 187.910156 188.046875 187.996094 C 188.199219 188.078125 188.324219 188.191406 188.417969 188.339844 C 188.515625 188.484375 188.566406 188.644531 188.582031 188.820312 C 188.59375 188.992188 188.566406 189.160156 188.496094 189.320312 L 186.96875 192.683594 L 191.859375 186.980469 L 189.308594 187.054688 C 188.929688 187.078125 188.636719 186.929688 188.433594 186.609375 C 188.230469 186.292969 188.210938 185.96875 188.367188 185.628906 L 189.9375 182.3125 L 185.070312 187.996094 L 187.5 187.871094 Z M 187.554688 187.871094 " fill-opacity="1" fill-rule="nonzero"/><g clip-path="url(#id21)"><path fill="#0f0005" d="M 208.683594 188.234375 C 208.886719 188.234375 209.0625 188.164062 209.210938 188.015625 C 209.355469 187.871094 209.429688 187.695312 209.429688 187.488281 C 209.429688 187.28125 209.355469 187.105469 209.210938 186.960938 C 209.0625 186.816406 208.886719 186.742188 208.683594 186.742188 L 201.617188 186.742188 L 201.617188 180.492188 L 208.683594 180.492188 C 208.886719 180.492188 209.0625 180.417969 209.210938 180.273438 C 209.355469 180.128906 209.429688 179.949219 209.429688 179.746094 C 209.429688 179.539062 209.355469 179.363281 209.210938 179.214844 C 209.0625 179.070312 208.886719 178.996094 208.683594 178.996094 L 201.617188 178.996094 L 201.617188 178.1875 C 201.617188 177.882812 201.558594 177.589844 201.441406 177.308594 C 201.324219 177.027344 201.15625 176.78125 200.941406 176.566406 C 200.726562 176.351562 200.476562 176.183594 200.195312 176.066406 C 199.914062 175.953125 199.621094 175.894531 199.316406 175.894531 L 196.996094 175.894531 L 196.996094 168.828125 C 196.996094 168.625 196.925781 168.449219 196.777344 168.300781 C 196.632812 168.15625 196.457031 168.082031 196.25 168.082031 C 196.042969 168.082031 195.867188 168.15625 195.722656 168.300781 C 195.574219 168.449219 195.503906 168.625 195.503906 168.828125 L 195.503906 175.894531 L 189.25 175.894531 L 189.25 168.828125 C 189.25 168.625 189.175781 168.449219 189.03125 168.300781 C 188.886719 168.15625 188.707031 168.082031 188.503906 168.082031 C 188.296875 168.082031 188.121094 168.15625 187.972656 168.300781 C 187.828125 168.449219 187.753906 168.625 187.753906 168.828125 L 187.753906 175.894531 L 181.503906 175.894531 L 181.503906 168.828125 C 181.503906 168.625 181.429688 168.449219 181.285156 168.300781 C 181.136719 168.15625 180.960938 168.082031 180.753906 168.082031 C 180.546875 168.082031 180.371094 168.15625 180.226562 168.300781 C 180.082031 168.449219 180.007812 168.625 180.007812 168.828125 L 180.007812 175.894531 L 177.6875 175.894531 C 177.382812 175.894531 177.089844 175.953125 176.808594 176.066406 C 176.527344 176.183594 176.277344 176.351562 176.0625 176.566406 C 175.847656 176.78125 175.679688 177.027344 175.5625 177.308594 C 175.445312 177.589844 175.386719 177.882812 175.386719 178.1875 L 175.386719 178.992188 L 168.324219 178.992188 C 168.117188 178.992188 167.941406 179.066406 167.792969 179.210938 C 167.648438 179.359375 167.574219 179.535156 167.574219 179.738281 C 167.574219 179.945312 167.648438 180.121094 167.792969 180.269531 C 167.941406 180.414062 168.117188 180.488281 168.324219 180.488281 L 175.386719 180.488281 L 175.386719 186.738281 L 168.324219 186.738281 C 168.117188 186.738281 167.941406 186.808594 167.792969 186.957031 C 167.648438 187.101562 167.574219 187.277344 167.574219 187.484375 C 167.574219 187.691406 167.648438 187.867188 167.792969 188.011719 C 167.941406 188.160156 168.117188 188.230469 168.324219 188.230469 L 175.386719 188.230469 L 175.386719 194.484375 L 168.324219 194.484375 C 168.117188 194.484375 167.941406 194.554688 167.792969 194.703125 C 167.648438 194.847656 167.574219 195.023438 167.574219 195.230469 C 167.574219 195.4375 167.648438 195.613281 167.792969 195.757812 C 167.941406 195.902344 168.117188 195.976562 168.324219 195.976562 L 175.386719 195.976562 L 175.386719 196.789062 C 175.386719 197.09375 175.445312 197.386719 175.5625 197.667969 C 175.679688 197.949219 175.847656 198.199219 176.0625 198.414062 C 176.277344 198.628906 176.527344 198.792969 176.808594 198.910156 C 177.089844 199.027344 177.382812 199.085938 177.6875 199.085938 L 180.007812 199.085938 L 180.007812 206.238281 C 180.007812 206.445312 180.082031 206.621094 180.226562 206.765625 C 180.371094 206.914062 180.546875 206.984375 180.753906 206.984375 C 180.960938 206.984375 181.136719 206.914062 181.285156 206.765625 C 181.429688 206.621094 181.503906 206.445312 181.503906 206.238281 L 181.503906 199.085938 L 187.753906 199.085938 L 187.753906 206.238281 C 187.753906 206.445312 187.828125 206.621094 187.972656 206.765625 C 188.121094 206.914062 188.296875 206.984375 188.503906 206.984375 C 188.707031 206.984375 188.886719 206.914062 189.03125 206.765625 C 189.175781 206.621094 189.25 206.445312 189.25 206.238281 L 189.25 199.085938 L 195.503906 199.085938 L 195.503906 206.238281 C 195.503906 206.445312 195.574219 206.621094 195.722656 206.765625 C 195.867188 206.914062 196.042969 206.984375 196.25 206.984375 C 196.457031 206.984375 196.632812 206.914062 196.777344 206.765625 C 196.925781 206.621094 196.996094 206.445312 196.996094 206.238281 L 196.996094 199.085938 L 199.316406 199.085938 C 199.621094 199.085938 199.914062 199.027344 200.195312 198.910156 C 200.476562 198.792969 200.726562 198.628906 200.941406 198.414062 C 201.15625 198.199219 201.324219 197.949219 201.441406 197.667969 C 201.558594 197.386719 201.617188 197.09375 201.617188 196.789062 L 201.617188 195.980469 L 208.683594 195.980469 C 208.886719 195.980469 209.0625 195.90625 209.210938 195.761719 C 209.355469 195.617188 209.429688 195.441406 209.429688 195.234375 C 209.429688 195.027344 209.355469 194.851562 209.210938 194.707031 C 209.0625 194.558594 208.886719 194.488281 208.683594 194.488281 L 201.617188 194.488281 L 201.617188 188.234375 Z M 199.363281 195.4375 C 199.363281 195.617188 199.328125 195.785156 199.261719 195.949219 C 199.191406 196.113281 199.097656 196.257812 198.96875 196.382812 C 198.84375 196.511719 198.699219 196.605469 198.535156 196.675781 C 198.371094 196.742188 198.203125 196.777344 198.023438 196.777344 L 178.980469 196.777344 C 178.804688 196.777344 178.632812 196.742188 178.46875 196.675781 C 178.304688 196.605469 178.160156 196.511719 178.035156 196.382812 C 177.910156 196.257812 177.8125 196.113281 177.746094 195.949219 C 177.675781 195.785156 177.644531 195.617188 177.644531 195.4375 L 177.644531 179.539062 C 177.644531 179.363281 177.675781 179.191406 177.746094 179.027344 C 177.8125 178.863281 177.910156 178.71875 178.035156 178.59375 C 178.160156 178.46875 178.304688 178.371094 178.46875 178.304688 C 178.632812 178.234375 178.804688 178.203125 178.980469 178.203125 L 198.023438 178.203125 C 198.203125 178.203125 198.371094 178.234375 198.535156 178.304688 C 198.699219 178.371094 198.84375 178.46875 198.96875 178.59375 C 199.097656 178.71875 199.191406 178.863281 199.261719 179.027344 C 199.328125 179.191406 199.363281 179.363281 199.363281 179.539062 Z M 199.363281 195.4375 " fill-opacity="1" fill-rule="nonzero"/></g></svg>