<svg xmlns="http://www.w3.org/2000/svg" xmlns:xlink="http://www.w3.org/1999/xlink" width="500" zoomAndPan="magnify" viewBox="0 0 375 374.999991" height="500" preserveAspectRatio="xMidYMid meet" version="1.0"><defs><clipPath id="id1"><path d="M 122 146.601562 L 171.847656 146.601562 L 171.847656 239.601562 L 122 239.601562 Z M 122 146.601562 " clip-rule="nonzero"/></clipPath><clipPath id="id2"><path d="M 178 143.550781 L 251 143.550781 L 251 231.300781 L 178 231.300781 Z M 178 143.550781 " clip-rule="nonzero"/></clipPath><clipPath id="id3"><path d="M 135.089844 149 L 222.089844 149 L 222.089844 262.5 L 135.089844 262.5 Z M 135.089844 149 " clip-rule="nonzero"/></clipPath><clipPath id="id4"><path d="M 136 112.5 L 221 112.5 L 221 216 L 136 216 Z M 136 112.5 " clip-rule="nonzero"/></clipPath><clipPath id="id5"><path d="M 159 112.5 L 198 112.5 L 198 124 L 159 124 Z M 159 112.5 " clip-rule="nonzero"/></clipPath><clipPath id="id6"><path d="M 138 219 L 219 219 L 219 262.5 L 138 262.5 Z M 138 219 " clip-rule="nonzero"/></clipPath></defs><rect x="-37.5" width="450" fill="#ffffff" y="-37.499999" height="449.999989" fill-opacity="1"/><rect x="-37.5" width="450" fill="#ffffff" y="-37.499999" height="449.999989" fill-opacity="1"/><rect x="-37.5" width="450" fill="#ffffff" y="-37.499999" height="449.999989" fill-opacity="1"/><g clip-path="url(#id1)"><path fill="#000000" d="M 140.480469 239.019531 C 133.933594 237.699219 127.695312 232.96875 124.5625 226.960938 C 122.992188 223.945312 122.410156 221.949219 122.152344 218.707031 C 121.597656 211.75 123.804688 205.4375 128.363281 200.941406 C 130.453125 198.878906 131.425781 198.058594 132.84375 197.164062 C 136.910156 194.597656 137.582031 194.027344 138.441406 192.394531 C 139.914062 189.589844 139.984375 188.496094 139.871094 170.101562 L 139.765625 153.359375 L 138.988281 151.3125 C 138.5625 150.1875 138.28125 149.085938 138.367188 148.863281 C 138.453125 148.640625 139.371094 148.0625 140.40625 147.578125 C 142.125 146.777344 142.542969 146.699219 145.210938 146.683594 C 147.277344 146.667969 148.621094 146.808594 149.800781 147.167969 C 152.648438 148.027344 152.585938 147.882812 151.773438 151.574219 C 151.359375 153.457031 151.316406 155.667969 151.390625 171.246094 C 151.472656 188.738281 151.472656 188.800781 152.085938 189.945312 C 152.871094 191.417969 154.679688 193.027344 158.011719 195.214844 C 167.796875 201.640625 171.84375 209.074219 170.871094 218.835938 C 170.40625 223.519531 169.3125 226.34375 166.503906 230.15625 C 163.203125 234.625 156.8125 238.429688 151.453125 239.117188 C 148.191406 239.53125 142.785156 239.484375 140.480469 239.019531 Z M 149.703125 238.601562 C 160 237.746094 168.359375 230.320312 170.117188 220.464844 C 171.097656 214.96875 169.558594 208.445312 166.101562 203.445312 C 164.472656 201.089844 160.726562 197.6875 157.101562 195.277344 C 153.9375 193.171875 151.875 191.304688 151.097656 189.851562 C 150.800781 189.296875 150.71875 185.480469 150.683594 170.699219 C 150.640625 154.179688 150.683594 152.082031 151.101562 150.707031 C 151.355469 149.863281 151.523438 149.132812 151.476562 149.082031 C 151.425781 149.035156 150.878906 149.253906 150.257812 149.570312 C 149.636719 149.890625 148.933594 150.148438 148.699219 150.148438 C 148.464844 150.148438 148.269531 150.273438 148.269531 150.429688 C 148.269531 150.597656 147.15625 150.707031 145.484375 150.707031 C 143.152344 150.707031 142.414062 150.59375 140.984375 150.011719 C 140.042969 149.625 139.226562 149.359375 139.171875 149.414062 C 139.113281 149.472656 139.386719 150.617188 139.777344 151.964844 L 140.484375 154.410156 L 140.503906 171.042969 C 140.515625 180.191406 140.625 187.800781 140.746094 187.957031 C 141.019531 188.296875 140.785156 190.050781 140.464844 190.050781 C 140.339844 190.050781 140.289062 189.578125 140.359375 189.003906 C 140.425781 188.429688 140.234375 188.859375 139.9375 189.964844 C 139.640625 191.066406 139.214844 192.324219 138.992188 192.753906 C 138.316406 194.054688 135.816406 196.207031 133.082031 197.839844 C 129.785156 199.8125 126.234375 203.839844 124.65625 207.390625 C 123.191406 210.691406 122.855469 212.4375 122.839844 216.835938 C 122.828125 220.691406 122.867188 220.996094 123.707031 223.339844 C 125.851562 229.320312 129.300781 233.371094 134.652344 236.1875 C 139.34375 238.65625 142.652344 239.1875 149.703125 238.601562 Z M 151.496094 236.332031 C 148.1875 236.015625 147.996094 235.6875 151.261719 235.9375 C 152.679688 236.042969 153.835938 236.027344 153.835938 235.902344 C 153.835938 235.609375 153.367188 235.589844 147.4375 235.597656 C 140.789062 235.605469 139.40625 235.65625 138.113281 235.925781 C 137.351562 236.085938 137.089844 236.066406 137.28125 235.871094 C 137.925781 235.203125 140.144531 234.925781 146.050781 234.777344 C 151.3125 234.644531 152.691406 234.695312 154.667969 235.09375 C 155.960938 235.359375 157.136719 235.648438 157.28125 235.738281 C 157.558594 235.910156 155.105469 236.640625 154.394531 236.597656 C 154.164062 236.585938 152.859375 236.464844 151.496094 236.332031 Z M 159.304688 231.53125 C 159.738281 231.019531 160.417969 230.410156 160.8125 230.179688 C 161.203125 229.945312 161.796875 229.179688 162.125 228.476562 C 162.457031 227.773438 162.898438 227.09375 163.109375 226.96875 C 163.316406 226.84375 163.746094 225.738281 164.0625 224.511719 C 164.375 223.28125 164.644531 222.59375 164.65625 222.976562 C 164.671875 223.359375 164.507812 224.332031 164.292969 225.136719 C 164.078125 225.945312 164.007812 226.601562 164.136719 226.601562 C 164.660156 226.601562 165.324219 222.363281 165.152344 220.128906 C 165.042969 218.734375 165.082031 217.992188 165.253906 218.097656 C 165.65625 218.347656 165.570312 222.597656 165.125 224.503906 C 164.910156 225.421875 164.785156 226.253906 164.847656 226.355469 C 164.910156 226.457031 164.773438 226.695312 164.546875 226.886719 C 164.316406 227.074219 164.128906 227.121094 164.121094 226.988281 C 164.109375 226.675781 163.019531 227.976562 163.019531 228.300781 C 163.019531 228.433594 163.363281 228.40625 163.785156 228.242188 C 164.9375 227.785156 166.078125 227.464844 166.078125 227.597656 C 166.078125 227.71875 164.601562 228.398438 163.019531 229 C 162.101562 229.347656 162.085938 229.371094 162.792969 229.382812 C 163.207031 229.386719 163.609375 229.28125 163.695312 229.148438 C 163.777344 229.011719 164.148438 228.84375 164.519531 228.773438 C 165.003906 228.679688 165.152344 228.75 165.050781 229.019531 C 164.972656 229.226562 164.695312 229.394531 164.433594 229.394531 C 164.171875 229.394531 163.71875 229.578125 163.417969 229.804688 C 162.773438 230.292969 162.980469 230.335938 164.042969 229.933594 L 164.828125 229.636719 L 163.878906 230.621094 C 163.035156 231.492188 162.890625 231.554688 162.597656 231.15625 C 162.175781 230.574219 160.992188 230.847656 159.886719 231.785156 C 158.722656 232.765625 158.378906 232.617188 159.304688 231.53125 Z M 152.167969 231.09375 C 152.167969 230.957031 152.667969 229.863281 153.28125 228.660156 C 153.890625 227.460938 154.394531 226.257812 154.394531 225.984375 C 154.394531 225.710938 154.511719 225.488281 154.660156 225.488281 C 154.804688 225.488281 155.007812 225.015625 155.113281 224.441406 C 155.214844 223.867188 155.425781 223.234375 155.582031 223.039062 C 155.753906 222.820312 155.804688 221.601562 155.710938 219.898438 C 155.628906 218.367188 155.660156 217.117188 155.78125 217.117188 C 156.105469 217.117188 156.425781 221.332031 156.214844 222.75 C 155.964844 224.394531 154.925781 227.25 154.480469 227.523438 C 154.277344 227.644531 154.113281 227.949219 154.113281 228.195312 C 154.113281 228.617188 152.519531 231.347656 152.277344 231.347656 C 152.214844 231.347656 152.167969 231.234375 152.167969 231.09375 Z M 145.917969 228.875 C 145.699219 228.1875 145.832031 225.207031 146.082031 225.207031 C 146.1875 225.207031 146.277344 225.769531 146.277344 226.457031 C 146.277344 227.148438 146.359375 228.089844 146.460938 228.550781 C 146.664062 229.46875 146.195312 229.75 145.917969 228.875 Z M 144.546875 227.125 C 143.914062 224 143.796875 222.882812 144.074219 222.605469 C 144.289062 222.390625 144.378906 222.460938 144.382812 222.851562 C 144.386719 223.148438 144.511719 224.328125 144.660156 225.464844 C 144.914062 227.421875 144.835938 228.554688 144.546875 227.125 Z M 164.136719 227.347656 C 165.449219 226.664062 166.6875 226.308594 166.574219 226.652344 C 166.515625 226.828125 165.910156 227.136719 165.230469 227.339844 C 163.652344 227.8125 163.246094 227.816406 164.136719 227.347656 Z M 143.011719 224.738281 C 142.480469 221.167969 142.304688 218.402344 142.617188 218.597656 C 142.773438 218.691406 142.976562 220.0625 143.070312 221.640625 C 143.164062 223.21875 143.371094 224.945312 143.527344 225.476562 C 143.6875 226.011719 143.707031 226.546875 143.574219 226.679688 C 143.441406 226.8125 143.191406 225.953125 143.011719 224.738281 Z M 166.738281 225.714844 C 167.382812 223.613281 167.554688 222.5 167.582031 220.257812 C 167.597656 218.835938 167.703125 217.675781 167.820312 217.675781 C 168.511719 217.671875 167.710938 224.476562 166.867188 225.765625 C 166.636719 226.117188 166.617188 226.109375 166.738281 225.714844 Z M 166.226562 224.929688 C 166.886719 221.621094 166.996094 220.078125 166.703125 218.171875 C 166.53125 217.0625 166.445312 216.097656 166.511719 216.03125 C 167.222656 215.320312 167.246094 222.4375 166.542969 224.371094 C 166.292969 225.0625 166.148438 225.3125 166.226562 224.929688 Z M 142.042969 224.980469 C 141.515625 224.125 140.832031 215.480469 141.234375 214.761719 C 141.421875 214.417969 141.558594 215.503906 141.691406 218.417969 C 141.796875 220.695312 142.007812 223.109375 142.164062 223.78125 C 142.4375 224.960938 142.378906 225.527344 142.042969 224.980469 Z M 156.65625 224.789062 C 156.609375 224.484375 156.589844 222.902344 156.613281 221.28125 C 156.652344 218.886719 156.523438 217.8125 155.933594 215.59375 C 155.535156 214.085938 155.074219 212.609375 154.914062 212.304688 C 154.714844 211.933594 154.710938 211.664062 154.902344 211.472656 C 155.09375 211.28125 155.367188 211.808594 155.742188 213.105469 C 156.699219 216.378906 156.933594 218.246094 156.832031 221.859375 C 156.78125 223.777344 156.703125 225.097656 156.65625 224.789062 Z M 157.175781 224.589844 C 157.175781 224.378906 157.332031 224.046875 157.523438 223.855469 C 158.15625 223.222656 158.144531 217.59375 157.507812 215.023438 C 156.960938 212.835938 156.941406 212.289062 157.425781 212.808594 C 157.804688 213.21875 158.570312 217.917969 158.554688 219.765625 C 158.539062 221.882812 157.960938 224.710938 157.515625 224.863281 C 157.328125 224.925781 157.175781 224.800781 157.175781 224.589844 Z M 165.941406 220.367188 C 165.941406 218.300781 166.03125 216.757812 166.144531 216.933594 C 166.394531 217.324219 166.375 222.582031 166.121094 223.480469 C 166.023438 223.832031 165.941406 222.433594 165.941406 220.367188 Z M 157.355469 221.804688 C 157.542969 219.621094 157.039062 215.667969 156.300781 213.515625 C 155.703125 211.773438 155.644531 211.28125 156.082031 211.722656 C 157.097656 212.742188 158.121094 220.660156 157.496094 222.695312 C 157.238281 223.535156 157.21875 223.410156 157.355469 221.804688 Z M 140.664062 221.671875 C 140.207031 218.09375 140.152344 215.605469 140.476562 212.96875 C 140.664062 211.410156 140.949219 210.054688 141.105469 209.957031 C 141.289062 209.84375 141.328125 210.117188 141.222656 210.730469 C 140.871094 212.699219 140.714844 218.453125 140.960938 220.390625 C 141.097656 221.5 141.128906 222.546875 141.023438 222.714844 C 140.921875 222.882812 140.757812 222.414062 140.664062 221.671875 Z M 139.363281 216.140625 C 139.121094 214.683594 139.820312 209.582031 140.261719 209.582031 C 140.421875 209.582031 140.46875 209.855469 140.367188 210.210938 C 140.265625 210.554688 140.058594 211.96875 139.902344 213.347656 C 139.625 215.839844 139.457031 216.695312 139.363281 216.140625 Z M 130.480469 214.359375 C 130.457031 212.558594 131.4375 208.179688 132.027344 207.453125 C 132.429688 206.960938 132.441406 206.96875 132.265625 207.628906 C 132.160156 208.011719 131.839844 209.207031 131.550781 210.28125 C 131.265625 211.355469 131.015625 212.796875 131.003906 213.488281 C 130.964844 215.433594 130.507812 216.203125 130.480469 214.359375 Z M 132.070312 215.53125 C 131.859375 215.117188 132.179688 212.371094 132.441406 212.371094 C 132.582031 212.371094 132.617188 213.066406 132.511719 213.976562 C 132.324219 215.671875 132.257812 215.898438 132.070312 215.53125 Z M 128.105469 212.792969 C 128.273438 210.171875 129.191406 206.960938 130.257812 205.257812 C 131.417969 203.40625 132.96875 201.492188 133.304688 201.492188 C 133.453125 201.492188 133.007812 202.125 132.3125 202.898438 C 130.148438 205.3125 129.207031 207.699219 128.246094 213.210938 L 127.976562 214.746094 Z M 129.347656 213.773438 C 129.347656 212.769531 130.199219 209.007812 130.769531 207.476562 C 131.394531 205.796875 133.46875 202.457031 133.722656 202.714844 C 133.816406 202.808594 133.515625 203.421875 133.050781 204.070312 C 132.585938 204.722656 131.929688 205.800781 131.59375 206.464844 C 130.839844 207.964844 129.90625 211.546875 129.90625 212.960938 C 129.90625 213.539062 129.78125 214.089844 129.628906 214.1875 C 129.472656 214.28125 129.347656 214.09375 129.347656 213.773438 Z M 126.320312 213.070312 C 126.257812 209.941406 128.035156 205.257812 130.191406 202.886719 L 131.332031 201.628906 L 130.230469 203.164062 C 128.175781 206.035156 127.253906 208.324219 126.691406 211.949219 C 126.445312 213.519531 126.335938 213.851562 126.320312 213.070312 Z M 125.378906 211.464844 C 125.683594 209.019531 126.867188 205.949219 128.320312 203.804688 C 129.117188 202.632812 129.945312 201.617188 130.160156 201.542969 C 130.375 201.472656 129.996094 202.152344 129.316406 203.054688 C 128.632812 203.960938 127.863281 205.039062 127.601562 205.453125 C 127.011719 206.394531 125.730469 210.765625 125.730469 211.847656 C 125.730469 212.289062 125.617188 212.652344 125.480469 212.652344 C 125.339844 212.652344 125.296875 212.117188 125.378906 211.464844 Z M 140.757812 201.355469 C 140.757812 200.785156 141.632812 198.644531 141.796875 198.8125 C 142 199.015625 141.242188 201.769531 140.984375 201.769531 C 140.859375 201.769531 140.757812 201.585938 140.757812 201.355469 Z M 132.378906 200.636719 C 132.746094 200.332031 133.121094 200.15625 133.214844 200.25 C 133.410156 200.449219 132.441406 201.214844 132.007812 201.203125 C 131.847656 201.199219 132.015625 200.941406 132.378906 200.636719 Z M 131.019531 200.722656 C 131.019531 200.589844 131.363281 200.226562 131.785156 199.921875 C 132.925781 199.085938 133.246094 198.921875 133.238281 199.171875 C 133.230469 199.484375 131.019531 201.027344 131.019531 200.722656 Z M 140.898438 197.585938 C 141.285156 196.816406 141.726562 196.1875 141.878906 196.1875 C 142.035156 196.1875 141.839844 196.816406 141.453125 197.585938 C 141.066406 198.351562 140.625 198.980469 140.46875 198.980469 C 140.316406 198.980469 140.507812 198.351562 140.898438 197.585938 Z M 140.617188 195.980469 C 140.722656 195.710938 140.992188 194.894531 141.214844 194.167969 C 141.433594 193.4375 141.742188 192.839844 141.898438 192.839844 C 142.054688 192.839844 142.128906 192.933594 142.0625 193.050781 C 141.992188 193.164062 141.734375 193.980469 141.480469 194.863281 C 141.226562 195.746094 140.886719 196.46875 140.71875 196.46875 C 140.546875 196.46875 140.5 196.265625 140.617188 195.980469 Z M 139.792969 194.585938 C 140.4375 193.058594 140.734375 192.058594 140.746094 191.375 C 140.753906 190.953125 140.882812 190.609375 141.035156 190.609375 C 141.445312 190.609375 141.382812 191.167969 140.746094 193.230469 C 140.433594 194.242188 140.046875 195.074219 139.882812 195.074219 C 139.707031 195.074219 139.667969 194.875 139.792969 194.585938 Z M 152.734375 193.785156 C 151.855469 193.042969 150.898438 191.507812 151.152344 191.253906 C 151.226562 191.175781 151.5 191.535156 151.753906 192.046875 C 152.007812 192.5625 152.613281 193.320312 153.097656 193.738281 C 153.578125 194.15625 153.890625 194.503906 153.789062 194.507812 C 153.683594 194.511719 153.210938 194.1875 152.734375 193.785156 Z M 139.464844 192.632812 C 139.789062 191.75 140.09375 191.238281 140.144531 191.496094 C 140.222656 191.910156 139.234375 194.234375 138.976562 194.234375 C 138.917969 194.234375 139.140625 193.515625 139.464844 192.632812 Z M 149.714844 193.367188 C 148.953125 192.421875 148.539062 191.128906 148.574219 189.773438 C 148.59375 188.933594 148.644531 189.011719 148.929688 190.339844 C 149.109375 191.191406 149.542969 192.367188 149.890625 192.957031 C 150.65625 194.261719 150.582031 194.4375 149.714844 193.363281 Z M 150.8125 193.300781 C 150.472656 192.9375 150.136719 192.152344 150.0625 191.554688 L 149.929688 190.46875 L 150.328125 191.675781 C 150.550781 192.34375 150.949219 193.128906 151.214844 193.421875 C 151.910156 194.195312 151.546875 194.082031 150.8125 193.300781 Z M 147.851562 191.722656 C 147.511719 191.171875 147.335938 188.097656 147.644531 188.097656 C 147.800781 188.097656 147.984375 188.945312 148.058594 189.980469 C 148.195312 191.980469 148.164062 192.230469 147.851562 191.722656 Z M 149.941406 181.957031 C 149.941406 178.839844 149.996094 176.34375 150.066406 176.414062 C 150.265625 176.613281 150.308594 187.261719 150.113281 187.457031 C 150.019531 187.554688 149.941406 185.078125 149.941406 181.957031 Z M 147.945312 176.796875 C 147.875 174.800781 147.886719 173.042969 147.976562 172.890625 C 148.199219 172.492188 148.449219 178.886719 148.242188 179.726562 C 148.148438 180.109375 148.015625 178.792969 147.945312 176.796875 Z M 149.035156 175.261719 C 148.921875 172.578125 148.847656 167.050781 148.871094 162.984375 L 148.914062 155.589844 L 149.148438 163.542969 C 149.277344 167.917969 149.351562 173.441406 149.3125 175.820312 L 149.246094 180.144531 Z M 149.664062 168.101562 C 149.664062 164.316406 149.710938 161.269531 149.773438 161.335938 C 150.039062 161.605469 150.191406 174.984375 149.933594 174.984375 C 149.765625 174.984375 149.664062 172.394531 149.664062 168.101562 Z M 149.730469 149.246094 C 150.613281 148.839844 151.332031 148.445312 151.332031 148.371094 C 151.332031 147.910156 147.839844 147.246094 145.347656 147.234375 C 142.972656 147.222656 142.351562 147.320312 141.105469 147.898438 C 140.300781 148.269531 139.644531 148.660156 139.644531 148.765625 C 139.644531 148.949219 141.40625 149.675781 142.566406 149.972656 C 142.871094 150.050781 144.25 150.085938 145.628906 150.050781 C 147.65625 149.996094 148.4375 149.84375 149.730469 149.246094 Z M 149.730469 149.246094 " fill-opacity="1" fill-rule="nonzero"/></g><g clip-path="url(#id2)"><path fill="#000000" d="M 204.488281 143.550781 C 202.972656 143.550781 201.746094 145.3125 201.746094 146.824219 L 201.746094 148.121094 C 201.746094 149.1875 202.363281 150.109375 203.257812 150.554688 C 203.242188 150.734375 203.230469 150.914062 203.230469 151.09375 L 203.230469 176.832031 C 202.824219 177.597656 202.429688 178.390625 202 179.175781 L 179.824219 219.191406 C 176.253906 225.738281 183.050781 231.308594 187.050781 231.308594 L 242.542969 231.308594 C 246.542969 231.308594 253.414062 225.871094 249.769531 219.191406 L 227.59375 179.175781 C 227.164062 178.390625 226.769531 177.597656 226.363281 176.832031 L 226.363281 151.09375 C 226.363281 150.914062 226.351562 150.734375 226.339844 150.554688 C 227.230469 150.109375 227.851562 149.1875 227.851562 148.121094 L 227.851562 146.824219 C 227.851562 145.3125 226.632812 143.550781 225.117188 143.550781 Z M 204.488281 143.550781 " fill-opacity="1" fill-rule="nonzero"/></g><path fill="#ffffff" d="M 210.535156 175.894531 L 219.09375 175.894531 C 222.496094 175.894531 223.609375 179.058594 225.238281 182.058594 L 244.5625 217.695312 C 248.46875 224.894531 241.824219 228.0625 238.417969 228.0625 L 191.207031 228.0625 C 187.804688 228.0625 181.585938 224.109375 185.0625 217.695312 L 204.390625 182.058594 C 206.015625 179.058594 207.128906 175.894531 210.535156 175.894531 Z M 210.535156 175.894531 " fill-opacity="1" fill-rule="nonzero"/><path fill="#ffffff" d="M 206.023438 149.085938 L 223.582031 149.085938 L 223.582031 181.179688 L 206.023438 181.179688 Z M 206.023438 149.085938 " fill-opacity="1" fill-rule="nonzero"/><path fill="#ffffff" d="M 204.46875 148.316406 L 204.46875 147.042969 C 204.46875 146.890625 204.496094 146.738281 204.554688 146.597656 C 204.617188 146.453125 204.699219 146.324219 204.8125 146.214844 C 204.921875 146.105469 205.046875 146.019531 205.191406 145.960938 C 205.335938 145.902344 205.484375 145.871094 205.640625 145.871094 L 223.9375 145.871094 C 224.09375 145.871094 224.242188 145.902344 224.386719 145.960938 C 224.53125 146.019531 224.65625 146.105469 224.769531 146.214844 C 224.878906 146.324219 224.964844 146.453125 225.023438 146.597656 C 225.082031 146.738281 225.113281 146.890625 225.113281 147.042969 L 225.113281 148.316406 C 225.113281 148.472656 225.082031 148.621094 225.023438 148.765625 C 224.964844 148.910156 224.878906 149.035156 224.769531 149.144531 C 224.65625 149.253906 224.53125 149.339844 224.386719 149.398438 C 224.242188 149.457031 224.09375 149.488281 223.9375 149.488281 L 205.640625 149.488281 C 205.484375 149.488281 205.335938 149.457031 205.191406 149.398438 C 205.046875 149.339844 204.921875 149.253906 204.8125 149.144531 C 204.699219 149.035156 204.617188 148.910156 204.554688 148.765625 C 204.496094 148.621094 204.46875 148.472656 204.46875 148.316406 Z M 204.46875 148.316406 " fill-opacity="1" fill-rule="nonzero"/><path fill="#000000" d="M 226.085938 187.304688 L 241.507812 216.554688 C 244.886719 222.957031 239.085938 225.714844 236.074219 225.714844 L 194.339844 225.714844 C 191.332031 225.714844 185.820312 222.21875 188.90625 216.554688 L 204.027344 188.8125 C 217.398438 194.042969 222.261719 179.503906 226.085938 187.308594 Z M 226.085938 187.304688 " fill-opacity="1" fill-rule="nonzero"/><path fill="#ffffff" d="M 216.695312 208.570312 C 216.695312 211.3125 214.464844 213.539062 211.714844 213.539062 C 208.960938 213.539062 206.730469 211.3125 206.730469 208.570312 C 206.730469 205.824219 208.960938 203.597656 211.714844 203.597656 C 214.464844 203.597656 216.695312 205.824219 216.695312 208.570312 Z M 216.695312 208.570312 " fill-opacity="1" fill-rule="nonzero"/><path fill="#ffffff" d="M 209.613281 202.625 C 209.613281 204.246094 208.296875 205.558594 206.671875 205.558594 C 205.042969 205.558594 203.726562 204.246094 203.726562 202.625 C 203.726562 201 205.042969 199.6875 206.671875 199.6875 C 208.296875 199.6875 209.613281 201 209.613281 202.625 Z M 209.613281 202.625 " fill-opacity="1" fill-rule="nonzero"/><path fill="#ffffff" d="M 221.238281 196.902344 C 221.238281 197.859375 220.460938 198.636719 219.5 198.636719 C 218.542969 198.636719 217.765625 197.859375 217.765625 196.902344 C 217.765625 195.949219 218.542969 195.171875 219.5 195.171875 C 220.460938 195.171875 221.238281 195.949219 221.238281 196.902344 Z M 221.238281 196.902344 " fill-opacity="1" fill-rule="nonzero"/><path fill="#000000" d="M 219.277344 149.753906 C 219.445312 149.753906 219.605469 149.785156 219.761719 149.851562 C 219.917969 149.914062 220.054688 150.007812 220.171875 150.125 C 220.289062 150.242188 220.382812 150.378906 220.445312 150.535156 C 220.511719 150.6875 220.542969 150.847656 220.542969 151.015625 L 220.542969 175.957031 C 220.542969 176.125 220.511719 176.285156 220.445312 176.441406 C 220.382812 176.59375 220.289062 176.730469 220.171875 176.851562 C 220.054688 176.96875 219.917969 177.058594 219.761719 177.125 C 219.605469 177.1875 219.445312 177.21875 219.277344 177.21875 C 219.109375 177.21875 218.949219 177.1875 218.792969 177.125 C 218.636719 177.058594 218.5 176.96875 218.382812 176.851562 C 218.265625 176.730469 218.171875 176.59375 218.109375 176.441406 C 218.042969 176.285156 218.011719 176.125 218.011719 175.957031 L 218.011719 151.015625 C 218.011719 150.847656 218.042969 150.6875 218.109375 150.535156 C 218.171875 150.378906 218.265625 150.242188 218.382812 150.125 C 218.5 150.007812 218.636719 149.914062 218.792969 149.851562 C 218.949219 149.785156 219.109375 149.753906 219.277344 149.753906 Z M 219.277344 149.753906 " fill-opacity="1" fill-rule="nonzero"/><g clip-path="url(#id3)"><path stroke-linecap="butt" transform="matrix(0.185462, 0, 0, 0.184912, 110.127127, 82.51624)" fill="none" stroke-linejoin="miter" d="M 414.473931 532.640509 C 420.666253 534.077004 426.795389 535.809248 432.861337 537.83724 C 438.906223 539.844108 444.866859 542.146725 450.701122 544.723966 C 456.556447 547.322331 462.285398 550.174196 467.866913 553.300685 C 473.46949 556.406049 478.903569 559.786037 484.211273 563.419524 C 489.497916 567.074135 494.61606 570.939997 499.565705 575.059357 C 504.51535 579.178717 509.275435 583.530451 513.845958 588.093435 C 518.416481 592.656418 522.776382 597.430651 526.904597 602.416133 C 531.053874 607.401615 534.950403 612.556097 538.636309 617.900703 C 542.322215 623.245309 545.755373 628.758914 548.956846 634.441518 C 552.158318 640.102998 555.085981 645.912352 557.760896 651.869581 C 560.43581 657.805684 562.857977 663.868538 564.985271 670.05814 C 567.133628 676.226618 568.987112 682.500721 570.566786 688.838198 C 572.167523 695.1968 573.452324 701.618777 574.463316 708.083004 C 575.495369 714.568355 576.211488 721.074832 576.653797 727.602434 C 577.075043 734.15116 577.222479 740.699886 577.075043 747.269738 C 576.948669 753.818464 576.506361 760.346066 575.790242 766.873667 C 575.053061 773.380144 574.042069 779.844371 572.736205 786.266348 C 571.451404 792.688325 569.87173 799.046927 567.997183 805.299904 C 566.143699 811.574007 563.995342 817.742485 561.594238 823.826463 C 559.172071 829.889316 556.497156 835.82542 553.569494 841.655899 C 550.620769 847.465253 547.440359 853.126733 544.007201 858.640338 C 540.55298 864.175068 536.888136 869.498549 532.970545 874.674155 C 529.052953 879.849761 524.924738 884.814119 520.564838 889.609476 C 516.204938 894.383709 511.634414 898.946693 506.87433 903.298427 C 502.114246 907.650162 497.1646 911.748397 492.046457 915.635383 C 486.928313 919.522369 481.620608 923.155856 476.186529 926.535844 C 470.731389 929.915832 465.149874 933.04232 459.420923 935.894185 C 453.691972 938.74605 447.836646 941.344416 441.897072 943.647032 C 435.936436 945.949649 429.89155 947.977642 423.762415 949.709885 C 417.612217 951.442129 411.419895 952.878624 405.164386 954.040495 C 398.887814 955.181241 392.590181 956.026238 386.250422 956.596611 C 379.910664 957.145859 373.570905 957.399358 367.210085 957.357108 C 360.828202 957.314858 354.488443 956.976859 348.148685 956.343112 C 341.829989 955.688239 335.532355 954.758742 329.297908 953.512372 C 323.042399 952.287126 316.850077 950.766132 310.742004 948.928263 C 304.633931 947.11152 298.610108 945.020152 292.691596 942.633036 C 286.752022 940.245919 280.959884 937.584179 275.251995 934.647815 C 269.565168 931.71145 264.025778 928.521587 258.612762 925.057099 C 253.199746 921.613736 247.97629 917.89575 242.900271 913.945389 C 237.803189 909.995028 232.916731 905.812293 228.219834 901.397184 C 223.501874 896.982075 219.0156 892.355717 214.718886 887.518109 C 210.422173 882.680501 206.336083 877.652769 202.502741 872.434913 C 198.648336 867.217057 195.025617 861.830201 191.655646 856.253221 C 188.285675 850.697366 185.168451 844.993637 182.303976 839.120908 C 179.460562 833.269304 176.848835 827.29095 174.510917 821.185847 C 172.194062 815.080744 170.129955 808.891141 168.339657 802.595914 C 166.570423 796.300687 165.074998 789.92096 163.853383 783.498983 C 162.631769 777.055881 161.705027 770.570529 161.052095 764.042928 C 160.420225 757.515326 160.062166 750.987725 159.998979 744.417873 C 159.935792 737.869147 160.167477 731.32042 160.694035 724.792819 C 161.220593 718.244092 162.020961 711.75874 163.116202 705.294514 C 164.211443 698.830287 165.601556 692.429435 167.265479 686.113083 C 168.929402 679.775605 170.867136 673.543753 173.078679 667.3964 C 175.311285 661.249047 177.796639 655.207319 180.555803 649.313465 C 183.293905 643.398486 186.305817 637.631382 189.570476 631.991027 C 192.835136 626.371797 196.352543 620.900442 200.101636 615.598086 C 203.850729 610.316855 207.831508 605.204623 212.02291 600.282516 C 216.235374 595.360409 220.658461 590.649551 225.271109 586.128817 C 229.904819 581.629208 234.707028 577.361973 239.719861 573.305988 C 244.71163 569.250003 249.892961 565.447516 255.221728 561.877404 C 260.571558 558.307292 266.047761 555.011804 271.692463 551.969815 C 277.316102 548.927826 283.087178 546.139336 288.963565 543.646595 C 294.839953 541.132729 300.821651 538.914612 306.8876 536.971119 C 312.97461 535.027626 319.124808 533.379881 325.359255 532.027886 " stroke="#000000" stroke-width="30.1" stroke-opacity="1" stroke-miterlimit="4"/></g><g clip-path="url(#id4)"><path stroke-linecap="butt" transform="matrix(0.185462, 0, 0, 0.184912, 110.127127, 82.51624)" fill="none" stroke-linejoin="miter" d="M 314.217287 548.146203 L 312.785049 203.725441 L 424.352159 203.725441 L 424.352159 548.146203 " stroke="#000000" stroke-width="30.1" stroke-opacity="1" stroke-miterlimit="4"/></g><path fill="#000000" d="M 161.007812 113.871094 L 195.960938 113.871094 L 195.960938 122.566406 L 161.007812 122.566406 Z M 161.007812 113.871094 " fill-opacity="1" fill-rule="evenodd"/><g clip-path="url(#id5)"><path stroke-linecap="butt" transform="matrix(0.185462, 0, 0, 0.184912, 110.127127, 82.51624)" fill="none" stroke-linejoin="round" d="M 274.346315 169.566439 L 462.811956 169.566439 L 462.811956 216.59052 L 274.346315 216.59052 Z M 274.346315 169.566439 " stroke="#000000" stroke-width="14.499" stroke-opacity="1" stroke-miterlimit="4"/></g><g clip-path="url(#id6)"><path stroke-linecap="butt" transform="matrix(0.185462, 0, 0, 0.184912, 110.127127, 82.51624)" fill="none" stroke-linejoin="miter" d="M 529.916508 797.018934 C 527.157344 805.722403 523.766311 814.151248 519.722345 822.305468 C 515.67838 830.480814 511.044669 838.254786 505.821214 845.669634 C 500.597759 853.084483 494.847745 860.034583 488.571174 866.498809 C 482.27354 872.984161 475.55466 878.920265 468.351346 884.30712 C 461.169095 889.693976 453.607722 894.468209 445.709352 898.629819 C 437.78992 902.791429 429.596677 906.298166 421.150687 909.128906 C 412.704696 911.959646 404.090207 914.114388 395.30722 915.550883 C 386.545295 917.008503 377.69912 917.72675 368.810821 917.747875 C 359.943584 917.747875 351.09741 917.050753 342.314422 915.635383 C 333.531435 914.220013 324.916946 912.107521 316.470955 909.297906 C 308.003903 906.467166 299.81066 903.002678 291.891228 898.862193 C 283.950733 894.721708 276.38936 889.9686 269.186047 884.602869 C 261.982733 879.237139 255.242791 873.32216 248.924094 866.857933 C 242.626461 860.414831 236.855385 853.485856 231.610867 846.092133 C 226.36635 838.698409 221.711577 830.924437 217.646549 822.770217 C 213.581521 814.637121 210.169425 806.208276 207.389199 797.504807 " stroke="#000000" stroke-width="10" stroke-opacity="1" stroke-miterlimit="4"/></g><path stroke-linecap="butt" transform="matrix(0.185462, 0, 0, 0.184912, 110.127127, 82.51624)" fill="none" stroke-linejoin="round" d="M 208.12638 803.060662 C 208.12638 803.060662 194.878181 756.564704 281.549628 757.282952 C 333.025939 757.70545 354.446319 788.906963 395.686342 788.906963 C 436.926365 788.906963 434.293575 759.141945 481.36786 758.296948 C 538.615247 757.282952 529.11614 798.793428 529.11614 798.793428 " stroke="#000000" stroke-width="10" stroke-opacity="1" stroke-miterlimit="4"/><path stroke-linecap="butt" transform="matrix(0.185462, 0, 0, 0.184912, 110.127127, 82.51624)" fill="none" stroke-linejoin="round" d="M 429.512428 735.587655 C 428.838434 737.488898 427.953816 739.305642 426.879638 741.037885 C 425.826522 742.791254 424.562783 744.417873 423.151607 745.938868 C 421.719369 747.459862 420.160758 748.832982 418.433647 750.079353 C 416.7276 751.325723 414.895178 752.38197 412.936382 753.290341 C 410.977586 754.198713 408.955603 754.938085 406.849371 755.466208 C 404.743139 756.015456 402.594783 756.37458 400.425364 756.522455 C 398.234882 756.691454 396.065463 756.649204 393.874982 756.41683 C 391.705563 756.184456 389.578269 755.761957 387.493099 755.149335 C 385.428992 754.536712 383.428071 753.733965 381.5114 752.762218 C 379.594729 751.790472 377.804432 750.649726 376.140509 749.361105 C 374.476585 748.072485 372.960098 746.63599 371.61211 745.072746 C 370.243059 743.488376 369.063569 741.819507 368.07364 740.045014 C 367.062649 738.27052 366.26228 736.411527 365.672535 734.489159 C 365.061728 732.566791 364.682606 730.602173 364.514108 728.61643 C 364.324547 726.630687 364.366672 724.644944 364.619419 722.659201 C 364.872167 720.652334 365.314476 718.708841 365.98847 716.807597 C 366.662464 714.906354 367.52602 713.089611 368.579136 711.336242 C 369.653314 709.582873 370.895991 707.956254 372.307166 706.43526 C 373.718342 704.89314 375.276953 703.52002 377.004064 702.27365 C 378.710112 701.027279 380.542533 699.949908 382.480267 699.041536 C 384.439063 698.11204 386.461045 697.372667 388.567277 696.823419 C 390.652447 696.274171 392.800804 695.915047 394.991285 695.746048 C 397.160704 695.577049 399.351185 695.619298 401.520604 695.830548 C 403.690023 696.062922 405.817318 696.48542 407.902487 697.076918 C 409.987657 697.689541 411.988578 698.471163 413.905249 699.44291 C 415.82192 700.414656 417.612217 701.534277 419.297203 702.822898 C 420.961126 704.111518 422.477613 705.548013 423.846664 707.111257 C 425.215715 708.674502 426.395205 710.343371 427.406196 712.117864 C 428.417187 713.892358 429.217555 715.730226 429.828363 717.652594 C 430.43917 719.574962 430.839354 721.53958 431.028915 723.525323 C 431.218476 725.511066 431.197414 727.496809 430.944666 729.482552 C 430.71298 731.468295 430.249609 733.432913 429.596677 735.334156 " stroke="#000000" stroke-width="7.151" stroke-opacity="1" stroke-miterlimit="4"/><path stroke-linecap="butt" transform="matrix(0.185462, 0, 0, 0.184912, 110.127127, 82.51624)" fill="none" stroke-linejoin="round" d="M 340.861122 665.220533 C 340.334564 666.678152 339.66057 668.072397 338.839139 669.424393 C 338.017709 670.755263 337.069905 672.022758 335.974664 673.184629 C 334.879423 674.3465 333.678871 675.402746 332.351945 676.374493 C 331.025019 677.325114 329.613843 678.148986 328.118418 678.846109 C 326.622994 679.543231 325.064382 680.092479 323.442583 680.514978 C 321.820785 680.937476 320.177924 681.190975 318.492938 681.317725 C 316.829015 681.444474 315.144029 681.423349 313.480106 681.233225 C 311.816183 681.064226 310.173322 680.726227 308.572585 680.261479 C 306.971849 679.775605 305.4343 679.184108 303.959937 678.42361 C 302.506637 677.684238 301.116524 676.796991 299.831722 675.80412 C 298.567983 674.811248 297.388493 673.712752 296.35644 672.508632 C 295.303324 671.304511 294.397644 670.01589 293.6394 668.64277 C 292.860094 667.290775 292.249287 665.85428 291.785916 664.375536 C 291.322545 662.896791 291.027673 661.396921 290.901299 659.875927 C 290.753862 658.333807 290.795987 656.812813 290.985548 655.291818 C 291.175109 653.749699 291.533168 652.249829 292.038664 650.79221 C 292.54416 649.33459 293.218154 647.940345 294.039584 646.58835 C 294.861015 645.236355 295.808819 643.989984 296.882998 642.806988 C 297.978238 641.645117 299.178791 640.567746 300.505717 639.617125 C 301.811581 638.666503 303.222756 637.842631 304.718181 637.124384 C 306.213605 636.427261 307.772217 635.856888 309.372953 635.43439 C 310.994752 635.011891 312.637613 634.737267 314.322599 634.610518 C 316.007584 634.483768 317.671508 634.504893 319.335431 634.673892 C 321.020417 634.842892 322.663278 635.159766 324.264014 635.624514 C 325.86475 636.089262 327.4023 636.701885 328.876662 637.441258 C 330.351024 638.18063 331.720075 639.046752 333.004877 640.039623 C 334.289678 641.032495 335.469168 642.130991 336.501222 643.335111 C 337.554338 644.539232 338.48108 645.806727 339.239324 647.179848 C 340.018629 648.552968 340.650499 649.968338 341.11387 651.447082 C 341.577241 652.925827 341.893176 654.425697 342.01955 655.946691 C 342.166986 657.488811 342.145924 659.009805 341.956363 660.5308 C 341.787864 662.072919 341.429805 663.572789 340.924309 665.030408 " stroke="#000000" stroke-width="5.496" stroke-opacity="1" stroke-miterlimit="4"/><path stroke-linecap="butt" transform="matrix(0.185462, 0, 0, 0.184912, 110.127127, 82.51624)" fill="none" stroke-linejoin="round" d="M 384.649686 576.83385 C 383.954629 578.735093 382.922576 580.425087 381.490338 581.946082 C 380.079162 583.467076 378.394177 584.671197 376.456443 585.579569 C 374.497648 586.487941 372.43354 587.016064 370.264121 587.185063 C 368.094702 587.332938 365.967408 587.121688 363.882238 586.509066 C 361.797068 585.875318 359.922522 584.924696 358.258599 583.636076 C 356.594675 582.347456 355.267749 580.805336 354.27782 579.030842 C 353.287891 577.256349 352.698146 575.376231 352.508585 573.390488 C 352.340087 571.404745 352.592835 569.461252 353.245766 567.560009 C 353.919761 565.658765 354.951814 563.947647 356.36299 562.426652 C 357.774165 560.905658 359.459151 559.680412 361.396884 558.77204 C 363.334618 557.863668 365.398725 557.31442 367.568144 557.145421 C 369.758626 556.976422 371.88592 557.208796 373.97109 557.800294 C 376.056259 558.412917 377.930806 559.363538 379.594729 560.652158 C 381.258652 561.940779 382.606641 563.461773 383.59657 565.236267 C 384.607561 567.010761 385.197306 568.890879 385.386867 570.876622 C 385.576428 572.862365 385.344742 574.805858 384.691811 576.707101 " stroke="#000000" stroke-width="3.534" stroke-opacity="1" stroke-miterlimit="4"/><path stroke-linecap="butt" transform="matrix(0.185462, 0, 0, 0.184912, 110.127127, 82.51624)" fill="none" stroke-linejoin="round" d="M 328.097356 906.108042 C 286.288651 894.616083 245.533061 861.555577 225.502794 822.896966 C 212.338844 797.462558 211.93866 787.766217 223.628248 777.922003 C 236.139266 767.380666 252.42044 763.958428 283.508424 765.310423 C 307.687968 766.345544 313.690729 767.782039 338.586392 778.513501 C 389.536144 800.462297 405.122261 800.483422 441.24414 778.661375 C 460.537226 767.000417 463.29639 766.15542 482.27354 766.15542 C 504.87341 766.15542 515.488819 770.27478 520.333153 780.900617 C 525.324923 791.843328 524.292869 796.807685 511.887162 821.587221 C 491.393525 862.506199 451.85955 894.573834 407.64974 906.086917 C 387.366725 911.368148 347.306192 911.368148 328.097356 906.108042 Z M 328.097356 906.108042 " stroke="#000000" stroke-width="14.286" stroke-opacity="1" stroke-miterlimit="4"/><path stroke-linecap="butt" transform="matrix(0.185462, 0, 0, 0.184912, 110.127127, 82.51624)" fill="none" stroke-linejoin="round" d="M 335.553417 898.841068 C 298.462672 891.531844 251.262012 854.056229 233.253728 817.63686 C 221.606265 794.061445 221.943262 788.632339 235.654833 780.351369 C 243.405767 775.661636 250.082522 774.753264 276.368298 774.816639 C 306.592727 774.880014 308.88852 775.344762 336.606534 786.731096 C 387.240351 807.560271 405.775193 807.708146 442.613191 787.491593 C 460.474039 777.668504 466.308301 775.915135 481.557421 775.640511 C 515.425632 775.070138 520.480589 783.815857 504.747036 815.756742 C 484.527208 856.760219 440.506959 891.172721 398.108508 899.031193 C 380.163412 902.347806 352.971956 902.263306 335.553417 898.841068 Z M 335.553417 898.841068 " stroke="#000000" stroke-width="14.286" stroke-opacity="1" stroke-miterlimit="4"/><path stroke-linecap="butt" transform="matrix(0.185462, 0, 0, 0.184912, 110.127127, 82.51624)" fill="none" stroke-linejoin="round" d="M 332.30982 888.764479 C 297.936114 879.511763 256.696091 845.078136 239.572424 811.299383 C 233.422227 799.173676 233.717099 791.29408 240.457042 787.681718 C 243.511078 786.055099 259.729065 784.724228 276.536796 784.724228 C 305.455362 784.724228 308.783209 785.357976 338.860202 796.70206 C 366.283343 807.053273 373.823653 808.722142 393.685421 808.848892 C 415.105801 808.996766 418.581084 808.130644 442.634253 796.723185 C 465.486871 785.864974 470.499703 784.512979 485.306514 785.294601 C 500.808382 786.097348 502.135308 786.688846 502.872489 793.300947 C 504.073041 804.053534 484.611458 834.4523 464.412692 853.359107 C 427.511507 887.877233 378.204616 901.101435 332.30982 888.764479 Z M 332.30982 888.764479 " stroke="#000000" stroke-width="14.286" stroke-opacity="1" stroke-miterlimit="4"/><path stroke-linecap="butt" transform="matrix(0.185462, 0, 0, 0.184912, 110.127127, 82.51624)" fill="none" stroke-linejoin="round" d="M 336.374848 880.715883 C 313.690729 873.512284 293.197092 860.71058 274.66225 842.184022 C 255.937847 823.446214 241.720781 801.370668 245.006503 796.068313 C 245.933245 794.547318 259.223569 793.300947 274.535876 793.300947 C 299.410476 793.300947 305.939795 794.505068 336.374848 804.729531 C 365.356601 814.468121 373.950027 816.158115 394.464727 816.158115 C 416.179979 816.158115 421.150687 815.038494 445.288106 804.729531 C 461.632466 797.758306 476.481402 793.300947 483.495155 793.300947 C 489.792788 793.300947 494.931994 793.99807 494.931994 794.843067 C 494.931994 798.814553 482.715849 818.92548 472.879745 831.156811 C 460.57935 846.430132 435.683688 866.224185 420.666253 872.667287 C 392.67443 884.666244 358.932593 887.898358 336.374848 880.715883 Z M 336.374848 880.715883 " stroke="#000000" stroke-width="14.286" stroke-opacity="1" stroke-miterlimit="4"/><path stroke-linecap="butt" transform="matrix(0.185462, 0, 0, 0.184912, 110.127127, 82.51624)" fill="none" stroke-linejoin="round" d="M 331.7622 869.435174 C 322.95815 865.801687 311.310687 860.097957 305.897671 856.760219 C 294.713579 849.831244 263.309659 817.974859 258.170453 808.299644 C 254.758357 801.898792 254.842606 801.877667 276.094488 801.877667 C 292.670534 801.877667 305.013053 804.222533 331.193517 812.355629 C 360.133145 821.375972 369.000382 822.896966 393.516923 823.08709 C 420.034384 823.277215 424.099412 822.516717 450.237751 812.419004 C 465.739619 806.44065 479.051005 802.173416 479.809249 802.933913 C 482.357789 805.490029 463.84401 829.656942 450.006065 841.846023 C 430.755105 858.809337 416.264229 866.667809 394.907036 871.695541 C 368.874008 877.842894 350.612976 877.188021 331.7622 869.435174 Z M 331.7622 869.435174 " stroke="#000000" stroke-width="14.286" stroke-opacity="1" stroke-miterlimit="4"/><path stroke-linecap="butt" transform="matrix(0.185462, 0, 0, 0.184912, 110.127127, 82.51624)" fill="none" stroke-linejoin="round" d="M 342.082737 863.58357 C 317.818944 855.915222 293.744712 839.226532 278.937901 819.812727 L 271.102718 809.546014 L 286.583523 811.193758 C 295.113763 812.081005 316.133958 816.791863 333.299749 821.629471 C 372.728413 832.762306 416.790787 834.050926 441.159891 824.798209 C 449.332071 821.692845 456.535385 819.664853 457.146192 820.277476 C 459.147112 822.284343 434.146138 844.951387 422.203803 851.943737 C 409.166227 859.590959 378.710112 867.576181 363.503116 867.343806 C 358.005851 867.280432 348.359308 865.569313 342.082737 863.58357 Z M 342.082737 863.58357 " stroke="#000000" stroke-width="14.286" stroke-opacity="1" stroke-miterlimit="4"/><path stroke-linecap="butt" transform="matrix(0.185462, 0, 0, 0.184912, 110.127127, 82.51624)" fill="none" stroke-linejoin="round" d="M 337.112029 852.133861 C 319.41968 844.866887 289.890307 824.037712 294.90314 822.368843 C 296.588125 821.79847 311.626622 824.819334 328.307979 829.086569 C 347.727439 834.029801 370.622181 837.494289 391.810875 838.677284 C 424.647032 840.515153 424.857655 840.578528 416.243166 845.268261 C 404.9327 851.415614 375.298016 859.041711 363.102932 858.957212 C 357.81629 858.914962 346.126702 855.851848 337.112029 852.133861 Z M 337.112029 852.133861 " stroke="#000000" stroke-width="14.286" stroke-opacity="1" stroke-miterlimit="4"/><path stroke-linecap="butt" transform="matrix(0.185462, 0, 0, 0.184912, 110.127127, 82.51624)" fill="none" stroke-linejoin="round" d="M 344.041533 845.648509 C 328.58179 840.177154 330.119339 837.895662 346.695385 841.698149 C 353.582764 843.303643 364.366672 844.655638 370.643243 844.719013 C 379.089233 844.782387 380.96378 845.542885 377.783369 847.592002 C 371.738484 851.500113 358.427097 850.739616 344.041533 845.648509 Z M 344.041533 845.648509 " stroke="#000000" stroke-width="14.286" stroke-opacity="1" stroke-miterlimit="4"/><path stroke-linecap="butt" transform="matrix(0.185462, 0, 0, 0.184912, 110.127127, 82.51624)" fill="none" stroke-linejoin="round" d="M 345.19996 920.55749 C 308.972769 915.614258 274.830748 898.41857 247.491857 871.357542 C 232.137425 856.147597 221.311393 840.641902 211.917598 820.404225 C 209.137372 814.383622 205.893774 807.539146 204.735347 805.173155 C 200.059512 795.666939 204.924908 779.337373 215.20332 770.105781 C 225.839792 760.53619 241.720781 755.254959 265.521203 753.332591 C 294.313395 751.008849 311.921494 754.663461 346.337325 770.063531 C 368.031515 779.759871 375.445452 782.231487 387.366725 783.710232 C 404.216581 785.822724 416.432727 782.527236 431.386974 771.838025 C 450.974932 757.853325 462.496021 753.945214 483.72684 754.050839 C 510.96042 754.177588 527.178407 763.345805 532.633548 781.703364 C 535.224213 790.449083 534.718717 797.652682 530.822188 807.750396 C 518.205858 840.409528 497.775408 867.533931 470.225893 888.172982 C 434.52526 914.917135 389.451895 926.599218 345.178898 920.55749 Z M 393.264175 846.218882 C 393.832857 845.690759 392.505931 845.331636 389.978453 845.331636 C 386.77698 845.331636 385.744927 845.711884 385.744927 846.916005 C 385.744927 848.1835 386.418921 848.373625 389.009586 847.824377 C 390.820946 847.444128 392.737617 846.725881 393.264175 846.218882 Z M 434.230388 834.515674 C 434.230388 834.029801 425.931833 835.191672 425.321026 835.74092 C 425.131465 835.909919 425.552712 836.945041 426.268831 838.064662 C 427.511507 840.071529 427.574694 840.071529 430.881479 837.536539 C 432.713901 836.142294 434.230388 834.769173 434.230388 834.515674 Z M 327.507611 837.790038 C 328.202668 835.952169 327.655047 835.593046 322.600091 834.684674 C 318.303377 833.903052 318.366564 834.4523 322.852838 837.325289 C 326.349184 839.564531 326.791492 839.606781 327.507611 837.790038 Z M 289.763933 818.502982 C 289.763933 818.249483 289.068877 818.059359 288.205322 818.059359 C 287.341767 818.059359 286.899458 818.524107 287.257517 819.073355 C 287.8262 820.023976 289.763933 819.559228 289.763933 818.502982 Z M 465.065624 815.967991 C 465.992367 814.468121 465.128811 813.855499 463.170016 814.594871 C 462.243274 814.953995 461.75884 815.651117 462.074775 816.13699 C 462.833018 817.362236 464.265256 817.277736 465.065624 815.967991 Z M 465.065624 815.967991 " stroke="#000000" stroke-width="5.051" stroke-opacity="1" stroke-miterlimit="4"/><path stroke-linecap="butt" transform="matrix(0.185462, 0, 0, 0.184912, 110.127127, 82.51624)" fill="none" stroke-linejoin="round" d="M 385.997674 750.269477 C 376.014135 746.424741 368.558073 736.094653 368.558073 726.123689 C 368.558073 703.076397 399.793494 691.225314 417.82284 707.428131 C 430.16536 718.518716 430.017924 734.130035 417.443718 745.199495 C 409.355787 752.33972 396.697333 754.367712 385.997674 750.248352 Z M 385.997674 750.269477 " stroke="#000000" stroke-width="5.051" stroke-opacity="1" stroke-miterlimit="4"/><path stroke-linecap="butt" transform="matrix(0.185462, 0, 0, 0.184912, 110.127127, 82.51624)" fill="none" stroke-linejoin="round" d="M 306.445291 675.973119 C 299.305164 672.212883 293.850023 664.417786 293.850023 657.953559 C 293.850023 651.045709 299.873847 642.870363 307.16141 639.828374 C 312.237429 637.694757 321.610162 637.842631 326.644056 640.124123 C 333.257625 643.144987 339.260386 651.616082 339.260386 657.953559 C 339.260386 664.291036 333.257625 672.762131 326.644056 675.76187 C 321.50485 678.106736 310.69988 678.212361 306.445291 675.973119 Z M 306.445291 675.973119 " stroke="#000000" stroke-width="5.051" stroke-opacity="1" stroke-miterlimit="4"/><path stroke-linecap="butt" transform="matrix(0.185462, 0, 0, 0.184912, 110.127127, 82.51624)" fill="none" stroke-linejoin="round" d="M 362.997621 583.762825 C 359.501276 582.326331 355.499435 577.552098 354.82544 574.024235 C 353.582764 567.30651 361.08095 559.469163 368.747634 559.469163 C 383.175323 559.469163 388.124969 576.728226 375.592888 583.213577 C 372.475665 584.819072 366.26228 585.093696 362.997621 583.762825 Z M 362.997621 583.762825 " stroke="#000000" stroke-width="5.051" stroke-opacity="1" stroke-miterlimit="4"/></svg>