<?xml version="1.0" encoding="UTF-8" standalone="no"?>
<svg
   enable-background="new 0 0 100 100"
   viewBox="0 0 100 100"
   version="1.1"
   id="svg18597"
   sodipodi:docname="telekomunikasi.svg"
   inkscape:version="1.1.2 (b8e25be833, 2022-02-05)"
   xmlns:inkscape="http://www.inkscape.org/namespaces/inkscape"
   xmlns:sodipodi="http://sodipodi.sourceforge.net/DTD/sodipodi-0.dtd"
   xmlns="http://www.w3.org/2000/svg"
   xmlns:svg="http://www.w3.org/2000/svg">
  <defs
     id="defs18601" />
  <sodipodi:namedview
     id="namedview18599"
     pagecolor="#ffffff"
     bordercolor="#666666"
     borderopacity="1.0"
     inkscape:pageshadow="2"
     inkscape:pageopacity="0.0"
     inkscape:pagecheckerboard="0"
     showgrid="false"
     showguides="true"
     inkscape:guide-bbox="true"
     inkscape:zoom="3.6557421"
     inkscape:cx="54.024599"
     inkscape:cy="38.843003"
     inkscape:window-width="1366"
     inkscape:window-height="745"
     inkscape:window-x="-8"
     inkscape:window-y="-8"
     inkscape:window-maximized="1"
     inkscape:current-layer="svg18597" />
  <path
     d="m 65.16508,47.494921 a 14.198016,14.198016 0 0 0 -10.940467,-11.032655 2.9732856,2.9732856 0 0 0 -5.885115,0 14.213381,14.213381 0 0 0 -10.948126,11.032655 2.9732856,2.9732856 0 0 0 0.0615,5.91584 14.228747,14.228747 0 0 0 10.863629,10.80217 2.9732856,2.9732856 0 0 0 5.931204,0 14.221065,14.221065 0 0 0 10.863627,-10.80217 2.9732856,2.9732856 0 0 0 0.05372,-5.908157 z M 51.282067,35.087022 a 1.8438981,1.8438981 0 1 1 -1.836223,1.836214 1.8362151,1.8362151 0 0 1 1.836223,-1.836214 z m -2.550734,3.380479 a 2.9732856,2.9732856 0 0 0 5.447189,-0.845117 13.060945,13.060945 0 0 1 9.65742,9.219489 13.744724,13.744724 0 0 0 -6.038771,-2.996332 16.687277,16.687277 0 0 0 -1.536591,-3.841456 0.57621815,0.57621815 0 0 0 -0.768283,-0.21511 0.57621815,0.57621815 0 0 0 -0.207354,0.768291 15.504109,15.504109 0 0 1 1.267684,3.019384 27.036157,27.036157 0 0 0 -5.132169,-0.476341 26.183353,26.183353 0 0 0 -5.378055,0.553169 11.862411,11.862411 0 0 1 2.689027,-5.185964 z m 8.78157,12.077533 a 25.138476,25.138476 0 0 1 -0.599262,5.477916 25.276771,25.276771 0 0 1 -5.731458,0.645363 24.623723,24.623723 0 0 1 -5.477917,-0.599266 24.846526,24.846526 0 0 1 -0.653035,-5.731451 25.138476,25.138476 0 0 1 0.599263,-5.477912 25.276771,25.276771 0 0 1 5.731434,-0.668413 24.623723,24.623723 0 0 1 5.477915,0.599266 24.846526,24.846526 0 0 1 0.65306,5.754497 z m -9.726579,-12.78436 a 13.70631,13.70631 0 0 0 -3.119246,6.146329 16.625815,16.625815 0 0 0 -3.879873,1.53658 0.57621815,0.57621815 0 0 0 -0.215134,0.768294 0.58390106,0.58390106 0 0 0 0.768284,0.215109 14.682038,14.682038 0 0 1 3.027066,-1.221582 27.013107,27.013107 0 0 0 -0.46865,5.132182 26.667376,26.667376 0 0 0 0.553149,5.378036 11.877777,11.877777 0 0 1 -5.139851,-2.758163 2.9656028,2.9656028 0 0 0 -0.768309,-5.378037 13.060945,13.060945 0 0 1 9.24254,-9.818758 z M 35.916233,50.445159 a 1.8438981,1.8438981 0 1 1 1.843906,1.836214 1.8362151,1.8362151 0 0 1 -1.843906,-1.836214 z m 15.365834,15.365815 a 1.8362151,1.8362151 0 1 1 1.836197,-1.836215 1.8362151,1.8362151 0 0 1 -1.836197,1.828533 z m 2.543028,-3.388161 a 2.9656028,2.9656028 0 0 0 -5.378031,0.653046 13.107043,13.107043 0 0 1 -9.657419,-8.958271 13.959845,13.959845 0 0 0 5.977318,2.934871 16.687277,16.687277 0 0 0 1.536566,3.841454 0.58390106,0.58390106 0 0 0 0.499402,0.29195 0.56853524,0.56853524 0 0 0 0.499379,-0.860484 14.935574,14.935574 0 0 1 -1.267686,-3.027066 26.406158,26.406158 0 0 0 5.132194,0.484024 26.721157,26.721157 0 0 0 5.378032,-0.553171 11.870094,11.870094 0 0 1 -2.719755,5.185963 z m 1.221597,0.407193 a 14.021309,14.021309 0 0 0 2.850341,-5.869741 16.625815,16.625815 0 0 0 3.841462,-1.536583 0.57621815,0.57621815 0 0 0 0.215135,-0.768291 0.58390106,0.58390106 0 0 0 -0.768307,-0.215109 14.866428,14.866428 0 0 1 -2.988635,1.275361 27.013107,27.013107 0 0 0 0.484014,-5.132182 26.667376,26.667376 0 0 0 -0.553173,-5.378034 11.754851,11.754851 0 0 1 5.139875,2.765844 2.9656028,2.9656028 0 0 0 0.722195,5.378039 13.060945,13.060945 0 0 1 -8.942907,9.473025 z m 9.75728,-10.548633 a 1.8362151,1.8362151 0 1 1 1.843904,-1.836214 1.8438981,1.8438981 0 0 1 -1.843904,1.836214 z"
     id="path19002"
     style="fill:#000000;fill-opacity:1;stroke-width:0.768291" />
  <path
     fill="#1c225c"
     d="m 33.615189,68.230253 c -0.285494,0 -0.570989,-0.109291 -0.78957,-0.325642 -9.998996,-10.001225 -9.998996,-26.272176 0,-36.275632 0.434933,-0.434933 1.141977,-0.434933 1.57691,0 0.434933,0.434933 0.434933,1.141978 0,1.576911 -9.13136,9.131359 -9.13136,23.990451 0,33.121811 0.434933,0.434933 0.434933,1.141977 0,1.57691 -0.216351,0.216351 -0.501845,0.325642 -0.78734,0.325642 z m 34.696492,0 c -0.285495,0 -0.570989,-0.109291 -0.789571,-0.325642 -0.434933,-0.434933 -0.434933,-1.141977 0,-1.57691 9.13136,-9.13136 9.13136,-23.990452 0,-33.121811 -0.434933,-0.434933 -0.434933,-1.141978 0,-1.576911 0.434933,-0.434933 1.141978,-0.434933 1.576911,0 9.998995,10.001226 9.998995,26.272176 0,36.275632 -0.216352,0.216351 -0.501846,0.325642 -0.78734,0.325642 z"
     id="path19085"
     style="stroke-width:2.23042;fill:#000000" />
  <path
     fill="#1c225c"
     d="m 25.918687,76.422175 c -0.412172,0 -0.824323,-0.157776 -1.139898,-0.470122 -14.435305,-14.438532 -14.435305,-37.928517 0,-52.370268 0.627903,-0.627904 1.648646,-0.627904 2.27655,0 0.627903,0.627901 0.627903,1.648644 0,2.276547 -13.182724,13.182729 -13.182724,34.634445 0,47.817174 0.627903,0.627903 0.627903,1.648646 0,2.276547 -0.312329,0.312341 -0.724501,0.470122 -1.136652,0.470122 z m 50.090491,0 c -0.412152,0 -0.824324,-0.157776 -1.139878,-0.470122 -0.627903,-0.627901 -0.627903,-1.648644 0,-2.276547 13.182724,-13.182729 13.182724,-34.634445 0,-47.817174 -0.627903,-0.627903 -0.627903,-1.648646 0,-2.276547 0.627904,-0.627904 1.648647,-0.627904 2.27655,0 14.435307,14.438531 14.435307,37.928517 0,52.370268 -0.312348,0.312341 -0.7245,0.470122 -1.136672,0.470122 z"
     id="path19085-6"
     style="fill:#000000;stroke-width:3.22" />
</svg>
