<?xml version="1.0" encoding="UTF-8" standalone="no"?>
<svg
   width="2730.662"
   height="2730.662"
   fill-rule="evenodd"
   clip-rule="evenodd"
   image-rendering="optimizeQuality"
   shape-rendering="geometricPrecision"
   text-rendering="geometricPrecision"
   viewBox="0 0 28444 28444"
   version="1.1"
   id="svg10414"
   sodipodi:docname="industri.svg"
   inkscape:version="1.1.2 (b8e25be833, 2022-02-05)"
   xmlns:inkscape="http://www.inkscape.org/namespaces/inkscape"
   xmlns:sodipodi="http://sodipodi.sourceforge.net/DTD/sodipodi-0.dtd"
   xmlns="http://www.w3.org/2000/svg"
   xmlns:svg="http://www.w3.org/2000/svg">
  <defs
     id="defs10418" />
  <sodipodi:namedview
     id="namedview10416"
     pagecolor="#ffffff"
     bordercolor="#666666"
     borderopacity="1.0"
     inkscape:pageshadow="2"
     inkscape:pageopacity="0.0"
     inkscape:pagecheckerboard="0"
     showgrid="false"
     inkscape:zoom="0.10235613"
     inkscape:cx="1587.5942"
     inkscape:cy="1182.1471"
     inkscape:window-width="1366"
     inkscape:window-height="745"
     inkscape:window-x="-8"
     inkscape:window-y="-8"
     inkscape:window-maximized="1"
     inkscape:current-layer="svg10414" />
  <g
     id="g10632">
    <g
       id="g10625"
       transform="matrix(0.53720159,0,0,0.53720159,5564.7074,5563.7818)">
      <path
         fill-rule="nonzero"
         d="m 19337,10911 4019,-1077 c 33,-11 68,-17 104,-17 184,0 333,149 333,333 v 12822 h 652 c 184,0 333,149 333,333 0,184 -149,333 -333,333 H 23460 5481 4001 c -184,0 -333,-149 -333,-333 0,-184 149,-333 333,-333 H 5148 V 5470 h -907 c -184,0 -333,-149 -333,-333 0,-184 149,-333 333,-333 h 1240 2787 1433 c 184,0 333,149 333,333 0,184 -149,333 -333,333 H 8601 v 10672 h 1173 l -13,-4793 c -12,-157 89,-305 246,-347 l 4438,-1189 c 33,-11 68,-17 104,-17 184,0 333,149 333,333 v 754 l 4018,-1076 c 33,-11 68,-17 104,-17 184,0 333,149 333,333 v 785 z m 3790,12062 V 10585 l -3790,1015 v 4871 c 0,184 -149,333 -333,333 -184,0 -333,-149 -333,-333 v -5912 l -3788,1015 v 4902 c 0,184 -149,333 -333,333 -184,0 -333,-149 -333,-333 v -5129 c -2,-19 -2,-37 0,-56 v -726 l -3790,1016 14,4866 c 1,10 1,20 1,30 0,184 -149,333 -333,333 H 8269 c -184,0 -333,-149 -333,-333 V 5471 H 5815 v 17502 h 17313 z"
         id="path10410" />
      <path
         fill-rule="nonzero"
         d="m 8444,18724 h 2090 c 184,0 333,149 333,333 v 1889 c 0,184 -149,333 -333,333 H 8444 c -184,0 -333,-149 -333,-333 v -1889 c 0,-184 149,-333 333,-333 z m 1757,667 H 8778 v 1222 h 1423 z m 2754,-667 h 2090 c 184,0 333,149 333,333 v 1889 c 0,184 -149,333 -333,333 h -2090 c -184,0 -333,-149 -333,-333 v -1889 c 0,-184 149,-333 333,-333 z m 1757,667 h -1423 v 1222 h 1423 z m 2753,-667 h 2090 c 184,0 333,149 333,333 v 1889 c 0,184 -149,333 -333,333 h -2090 c -184,0 -333,-149 -333,-333 v -1889 c 0,-184 149,-333 333,-333 z m 1757,667 h -1423 v 1222 h 1423 z"
         id="path10412" />
    </g>
    <g
       id="g10541"
       transform="matrix(48.177443,0,0,48.177443,670.21206,1280.8167)">
      <path
         d="M 291.707,493.641 H 221.23 c -3.978,0 -7.202,-3.224 -7.202,-7.201 v -56.693 c -17.627,-4.316 -34.42,-11.281 -50.066,-20.766 l -40.084,40.141 c -1.35,1.352 -3.182,2.112 -5.093,2.112 -10e-4,0 -0.002,0 -0.002,0 -1.911,0 -3.742,-0.759 -5.093,-2.109 L 63.842,399.276 c -2.811,-2.811 -2.813,-7.368 -0.003,-10.181 l 40.089,-40.136 C 94.426,333.324 87.476,316.546 83.209,298.937 H 26.47 c -3.977,0 -7.202,-3.224 -7.202,-7.201 v -70.478 c 0,-3.978 3.225,-7.201 7.202,-7.201 h 56.739 c 4.282,-17.686 11.248,-34.485 20.765,-50.083 L 63.842,123.842 c -1.351,-1.351 -2.109,-3.183 -2.109,-5.093 0,-1.91 0.759,-3.742 2.109,-5.093 L 113.69,63.812 c 1.351,-1.35 3.183,-2.108 5.092,-2.108 0.001,0 0.001,0 0.003,0 1.911,0 3.743,0.761 5.093,2.112 l 40.084,40.141 c 15.646,-9.484 32.439,-16.449 50.066,-20.766 V 26.498 c 0,-3.978 3.224,-7.201 7.202,-7.201 h 70.477 c 3.979,0 7.202,3.224 7.202,7.201 v 56.693 c 17.645,4.32 34.422,11.285 50.013,20.762 l 40.142,-40.141 c 2.811,-2.811 7.371,-2.813 10.184,0 l 49.849,49.844 c 1.351,1.351 2.109,3.183 2.109,5.093 0,1.91 -0.759,3.742 -2.108,5.093 l -40.134,40.133 c 9.454,15.508 16.415,32.307 20.752,50.082 h 56.753 c 3.978,0 7.201,3.224 7.201,7.201 v 70.478 c 0,3.978 -3.224,7.201 -7.201,7.201 h -56.753 c -4.33,17.73 -11.291,34.512 -20.751,50.026 l 40.132,40.128 c 1.351,1.351 2.109,3.183 2.109,5.093 0,1.91 -0.758,3.741 -2.108,5.093 l -49.849,49.849 c -1.351,1.35 -3.183,2.108 -5.093,2.108 -0.001,0 -0.002,0 -0.003,0 -1.91,0 -3.742,-0.761 -5.093,-2.112 l -40.085,-40.141 c -15.646,9.484 -32.438,16.449 -50.065,20.766 v 56.693 c -0.001,3.977 -3.224,7.201 -7.203,7.201 z m -63.275,-14.403 h 56.074 V 424 c 0,-3.406 2.387,-6.347 5.719,-7.047 19.867,-4.18 38.661,-11.973 55.858,-23.163 2.854,-1.856 6.617,-1.462 9.023,0.947 l 39.053,39.106 39.66,-39.66 -39.113,-39.108 c -2.414,-2.413 -2.802,-6.189 -0.93,-9.043 11.153,-17 18.938,-35.766 23.142,-55.777 0.7,-3.334 3.641,-5.721 7.048,-5.721 h 55.301 v -56.075 h -55.301 c -3.407,0 -6.348,-2.387 -7.048,-5.721 -4.215,-20.067 -12.001,-38.853 -23.142,-55.833 -1.872,-2.854 -1.484,-6.629 0.929,-9.043 L 433.819,118.749 394.155,79.09 355.04,118.204 c -2.41,2.41 -6.179,2.799 -9.029,0.938 -17.12,-11.181 -35.89,-18.972 -55.786,-23.157 -3.332,-0.7 -5.719,-3.641 -5.719,-7.047 V 33.699 h -56.074 v 55.238 c 0,3.406 -2.386,6.347 -5.719,7.048 -19.868,4.179 -38.661,11.972 -55.858,23.162 -2.854,1.857 -6.618,1.463 -9.023,-0.947 l -39.053,-39.107 -39.659,39.656 39.113,39.113 c 2.413,2.414 2.801,6.189 0.929,9.043 -11.225,17.108 -19.009,35.887 -23.138,55.813 -0.692,3.344 -3.638,5.74 -7.052,5.74 h -55.3 v 56.075 h 55.3 c 3.414,0 6.359,2.396 7.052,5.74 4.109,19.831 11.878,38.596 23.091,55.771 1.861,2.851 1.471,6.616 -0.935,9.025 l -39.063,39.109 39.663,39.663 39.052,-39.106 c 2.406,-2.409 6.17,-2.804 9.023,-0.947 17.197,11.19 35.99,18.983 55.858,23.162 3.333,0.701 5.719,3.642 5.719,7.048 z"
         id="path10529" />
    </g>
  </g>
</svg>
